<svg xmlns="http://www.w3.org/2000/svg" width="415" height="264" viewBox="0 0 415 264">
  <g fill="none" fill-rule="evenodd">
    <polygon fill="#07BCFF" points="0 .16 415 .16 415 264 0 264"/>
    <path fill="#00A6EF" d="M415,155.15 L415,115.34 L412.31,115.34 L412.31,94.19 L409.61,94.19 L409.61,91.71 L396.15,91.71 L396.15,94.19 L390.77,94.19 L392.11,96.68 L392.11,107.88 L371.92,107.88 L371.92,109.12 L373.26,110.36 L373.26,125.29 L369.26,125.29 L369.26,75.53 L359.8,75.53 L359.8,71.8 L357.11,69.32 L353.11,69.32 L353.11,71.8 L347.72,71.8 L347.72,75.53 L343.72,75.53 L343.72,107.88 L338.78,107.88 L338.78,69.32 L341.92,66.41 L334.29,66.41 L334.29,45.68 L335.64,43.19 L330.25,43.19 L328.84,42 L327.49,42 L326.14,25.83 L324.8,42 L323.45,42 L322.1,43.24 L317.22,43.24 L318.07,45.73 L318.07,65.63 L315.37,65.63 L315.37,66.88 L312.26,66.88 L312.26,68.31 L314,69.32 L314,120.32 L310,120.32 L310,86.42 L306,85.49 L303.31,82.38 L285.75,82.38 L282.75,85.18 L279.05,85.49 L279.05,126.54 L275.05,126.54 L275.05,95.61 L268.63,95.61 L268.63,88 L256.14,88 L256.14,116.61 L250.8,116.61 L250.8,44.41 L233.25,32 L222.48,44.44 L222.48,116.58 L217.09,116.58 L217.09,84.24 L218.44,84.24 L219.78,80.51 L215.78,80.51 L215.78,78 L207,78 L207,80.49 L192.86,80.49 L192.86,83 L195.55,83 L195.55,124.05 L190.17,124.05 L190.17,107.88 L193.53,104.77 L193.53,100.41 L174,100.41 L174,88 L178,88 L178,84.24 L171.27,84.24 L171.27,80.51 L159.2,80.51 L159.2,84.16 L149.78,84.16 L149.78,86.73 L153.78,86.73 L153.78,107.88 L144.35,107.88 L144.35,48.17 L116.12,60.61 L116.12,122.8 L110.73,122.8 L110.73,107.88 L102.66,107.88 L102.66,134 L87.85,134 L87.85,90.46 L54.19,90.46 L54.19,139 L12,139 L12,155.18 C12,155.18 415,155 415,155.15 Z" opacity=".36"/>
    <path fill="#00A6EF" d="M0,155.59 L0,113.28 L3,113.28 L3,90.81 L6,90.81 L6,88.16 L21,88.16 L21,90.81 L27,90.81 L25.5,93.45 L25.5,105.35 L47.92,105.35 L47.92,106.67 L46.42,108 L46.42,123.87 L50.92,123.87 L50.92,71 L61.4,71 L61.4,67 L64.4,64.36 L68.9,64.36 L68.9,67 L74.9,67 L74.9,71 L79.39,71 L79.39,105.37 L84.88,105.37 L84.88,64.37 L81.39,61.28 L89.87,61.28 L89.87,39.28 L88.36,36.6 L94.36,36.6 L95.85,35.28 L97.35,35.28 L98.85,18.09 L100.35,35.28 L101.84,35.28 L103.34,36.6 L108.78,36.6 L107.78,39.25 L107.78,60.4 L110.78,60.4 L110.78,61.72 L114.24,61.72 L114.24,63.25 L112.24,64.37 L112.24,118.57 L116.73,118.57 L116.73,82.57 L121.22,81.57 L124.22,78.27 L143.68,78.27 L147.05,81.27 L151.17,81.6 L151.17,125.23 L155.66,125.23 L155.66,92.31 L162.81,92.31 L162.81,84.2 L176.63,84.2 L176.63,114.6 L182.57,114.6 L182.57,37.89 L202.17,24.7 L202.17,32.64 L214.17,37.92 L214.17,114.6 L220.17,114.6 L220.17,80.23 L218.67,80.23 L217.17,76.23 L221.67,76.23 L221.67,73.62 L231.4,73.62 L231.4,76.26 L247.1,76.26 L247.1,78.91 L244.1,78.91 L244.1,122.54 L250.1,122.54 L250.1,105.35 L246.35,102 L246.35,97.42 L268.06,97.42 L268.06,84.2 L263.57,84.2 L263.57,80.2 L271.06,80.2 L271.06,76.2 L284.53,76.2 L284.53,80.08 L295,80.08 L295,82.81 L290.5,82.81 L290.5,105.29 L301,105.29 L301,41.89 L332.45,55.11 L332.45,121.21 L338.45,121.21 L338.45,105.35 L347.45,105.35 L347.45,133.11 L363.9,133.11 L363.9,86.84 L401.34,86.84 L401.34,138.4 L415,138.4 L415,155.59 C415,155.59 0,155.4 0,155.59 Z"/>
    <polygon fill="#F3663A" points="309.82 89.59 217.06 89.59 217.06 96.12 224.25 96.12 224.25 155.15 302.4 155.15 302.4 96.12 309.82 96.12"/>
    <path fill="#F3663A" d="M273.44,75.15 L271.44,75.15 L271.44,88 L271.69,88 L271.69,88.31 L279.26,88.31 L279.26,86.31 L273.46,86.31 L273.44,75.15 Z M283.92,86.35 L283.92,75.15 L281.92,75.15 L281.92,88 L282.14,88 L282.14,88.31 L289.71,88.31 L289.71,86.31 L283.92,86.35 Z M246.31,85.26 L241.71,75.15 L239.43,75.15 L239.43,88 L241.43,88 L241.43,79.34 L245.16,87.78 L245.16,87.85 L247.49,87.85 L247.49,87.78 L251.11,79.42 L251.11,88 L253.11,88 L253.11,75.15 L250.83,75.15 L246.31,85.26 Z M261,75.15 L255.51,87.85 L257.79,87.85 L259.5,83.85 L265,83.85 L266.74,87.85 L269.02,87.85 L263.42,75.15 L261,75.15 Z M260.36,81.9 L262.25,77.53 L264.17,81.9 L260.36,81.9 Z"/>
    <path fill="#E2522B" d="M248.61,155.12 L278.61,155.12 L278.61,119.81 L248.61,119.81 L248.61,155.12 Z M224.42,96 L224.42,98 L302,98 L302,96 L224.42,96 Z"/>
    <path fill="#FECE6A" d="M223.09,121.27 C223.09,123.550936 224.939064,125.4 227.22,125.4 C229.500936,125.4 231.35,123.550936 231.35,121.27 L231.35,105.42 L223.09,105.42 L223.09,121.27 Z M231.55,121.27 C231.532924,123.220305 232.885724,124.915375 234.791239,125.3313 C236.696755,125.747225 238.63284,124.770033 239.43,122.99 C240.22716,124.770033 242.163245,125.747225 244.068761,125.3313 C245.974276,124.915375 247.327076,123.220305 247.31,121.27 L247.31,105.42 L231.55,105.42 L231.55,121.27 Z M247.5,105.42 L247.5,121.27 C247.501463,123.200181 248.839654,124.871933 250.722682,125.295973 C252.605709,125.720014 254.531316,124.78324 255.36,123.04 C256.181251,124.790854 258.109736,125.734865 259.996268,125.309494 C261.8828,124.884123 263.219572,123.203869 263.21,121.27 C263.181548,123.389456 264.765889,125.184647 266.872445,125.419858 C268.979002,125.655068 270.920277,124.253535 271.36,122.18 C271.757037,124.009681 273.340473,125.339797 275.211222,125.415098 C277.081972,125.490398 278.767191,124.291851 279.31,122.5 C279.907783,124.455869 281.849844,125.677154 283.871619,125.36862 C285.893395,125.060086 287.382793,123.315142 287.37,121.27 C287.366584,123.376357 288.948873,125.147799 291.042256,125.381253 C293.135639,125.614706 295.069302,124.235362 295.53,122.18 C295.969723,124.253535 297.910998,125.655068 300.017555,125.419858 C302.124111,125.184647 303.708452,123.389456 303.68,121.27 L303.68,105.42 L247.5,105.42 Z"/>
    <path fill="#FFFFFF" d="M263.21,121.27 C263.21,122.745507 263.997173,124.108932 265.275,124.846685 C266.552826,125.584439 268.127174,125.584439 269.405,124.846685 C270.682827,124.108932 271.47,122.745507 271.47,121.27 L271.47,105.42 L263.21,105.42 L263.21,121.27 Z M247.5,121.27 C247.424943,122.795809 248.196242,124.238959 249.506538,125.024359 C250.816833,125.809758 252.453167,125.809758 253.763462,125.024359 C255.073758,124.238959 255.845057,122.795809 255.77,121.27 L255.77,105.42 L247.5,105.42 L247.5,121.27 Z M231.55,121.27 C231.55,123.550936 233.399064,125.4 235.68,125.4 C237.960936,125.4 239.81,123.550936 239.81,121.27 L239.81,105.42 L231.55,105.42 L231.55,121.27 Z M295.42,105.42 L295.42,121.27 C295.42,123.550936 297.269064,125.4 299.55,125.4 C301.830936,125.4 303.68,123.550936 303.68,121.27 L303.68,105.42 L295.42,105.42 Z M279.11,121.27 C279.11,123.550936 280.959064,125.4 283.24,125.4 C285.520936,125.4 287.37,123.550936 287.37,121.27 L287.37,105.42 L279.11,105.42 L279.11,121.27 Z"/>
    <circle cx="144.74" cy="110.32" r="12.81" fill="#07BCFF" fill-rule="nonzero"/>
    <rect width="6.4" height="20.49" x="93.64" y="109.812" fill="#545A5B" fill-rule="nonzero" transform="rotate(-10.24 96.84 120.057)" rx="2.5"/>
    <rect width="6.4" height="20.49" x="97.959" y="133.763" fill="#545A5B" fill-rule="nonzero" transform="rotate(-10.24 101.159 144.008)" rx="2.5"/>
    <path fill="#374246" d="M215.55,233.19 L186.9,74.64 C186.7,73.52 185.9,72.73 185.13,72.87 L92.13,89.66 C91.35,89.8 90.89,90.82 91.13,91.94 L119.75,250.5 C119.95,251.61 120.75,252.4 121.53,252.26 L214.53,235.47 C215.28,235.33 215.75,234.31 215.55,233.19 Z M202.38,210.32 L127.28,223.89 C126.64523,223.998867 126.041833,223.574254 125.93,222.94 L104.58,104.75 C104.521416,104.444975 104.586523,104.129174 104.760971,103.872192 C104.935418,103.615209 105.20489,103.438138 105.51,103.38 L180.61,89.82 C180.922774,89.7655843 181.244184,89.8417383 181.499291,90.0307069 C181.754399,90.2196754 181.920909,90.5049431 181.96,90.82 L203.31,209 C203.407372,209.618958 202.995622,210.203379 202.38,210.32 Z"/>
    <path fill="#E9FDFF" d="M100,100 L180.16,85.52 C180.705716,85.4736342 181.187198,85.8748692 181.24,86.42 L203.6,210.31 C203.741933,210.833813 203.440163,211.375224 202.92,211.53 L122.75,226 C122.204284,226.046366 121.722802,225.645131 121.67,225.1 L99.29,101.18 C99.1749827,100.660405 99.4870534,100.141752 100,100 Z"/>
    <circle cx="165.51" cy="230" r="6.4" fill="#D5F0F7" fill-rule="nonzero" opacity=".32"/>
    <circle cx="127.18" cy="89.84" r="1.28" fill="#D5F0F7" fill-rule="nonzero" opacity=".32"/>
    <path fill="#FF7F29" fill-rule="nonzero" d="M134.56,130.64 L132.45,127 L131.75,131.15 L127.55,132.02 L131.35,133.93 L130.87,138.1 L133.87,135.1 L137.76,136.82 L135.85,133.08 L138.74,129.96 L134.56,130.64 Z M149.25,128 L147.15,124.36 L146.44,128.51 L142.25,129.37 L146.05,131.28 L145.56,135.46 L148.61,132.46 L152.51,134.17 L150.59,130.43 L153.49,127.32 L149.25,128 Z M167.75,124.77 L163.52,125.42 L161.41,121.78 L160.71,125.93 L156.51,126.8 L160.31,128.7 L159.83,132.88 L162.83,129.88 L166.72,131.6 L164.81,127.85 L167.75,124.77 Z"/>
    <path fill="#B5DBEA" d="M185.93,162.91 C185.884353,162.662411 185.648151,162.497516 185.4,162.54 L123.28,173.77 C123.159745,173.789423 123.052501,173.85677 122.982772,173.956652 C122.913043,174.056534 122.886786,174.180419 122.91,174.3 L127.38,199.06 C127.425647,199.307589 127.661849,199.472484 127.91,199.43 L190,188.2 C190.118419,188.178213 190.223168,188.109878 190.290822,188.010275 C190.358477,187.910673 190.383393,187.788112 190.36,187.67 L185.93,162.91 Z M184.87,157.06 L184.63,155.71 C184.584353,155.462411 184.348151,155.297516 184.1,155.34 L122,166.56 C121.752411,166.605647 121.587516,166.841849 121.63,167.09 L121.87,168.45 C121.891787,168.568419 121.960122,168.673168 122.059725,168.740822 C122.159327,168.808477 122.281888,168.833393 122.4,168.81 L184.53,157.59 C184.768648,157.535251 184.919728,157.299745 184.87,157.06 L184.87,157.06 Z M183.74,150.76 L183.49,149.41 C183.479851,149.290467 183.422393,149.179934 183.330389,149.10295 C183.238384,149.025967 183.11945,148.988906 183,149 L120.88,160.22 C120.759745,160.239423 120.652501,160.30677 120.582772,160.406652 C120.513043,160.506534 120.486786,160.630419 120.51,160.75 L120.75,162.1 C120.795647,162.347589 121.031849,162.512484 121.28,162.47 L183.41,151.25 C183.624205,151.188214 183.763272,150.98172 183.74,150.76 Z M150.84,150.66 L150.6,149.31 C150.580577,149.189745 150.51323,149.082501 150.413348,149.012772 C150.313466,148.943043 150.189581,148.916786 150.07,148.94 L119.78,154.41 C119.532411,154.455647 119.367516,154.691849 119.41,154.94 L119.66,156.29 C119.705647,156.537589 119.941849,156.702484 120.19,156.66 L150.47,151.19 C150.717589,151.144353 150.882484,150.908151 150.84,150.66 Z"/>
    <path fill="#A4CFDD" d="M153.83,118.39 L151.26,111.2 C151.213814,110.936636 151.064081,110.702738 150.844241,110.55054 C150.624401,110.398343 150.352766,110.340526 150.09,110.39 L149.09,110.58 C148.347573,108.47635 146.189496,107.221215 143.993912,107.616122 C141.798328,108.01103 140.212867,109.939493 140.25,112.17 L139.25,112.36 C138.988708,112.406308 138.756536,112.554572 138.604612,112.772143 C138.452687,112.989713 138.39347,113.258747 138.44,113.52 L138.54,121.15 C138.54,122.47 139.1,122.84 140.34,122.61 L152.68,120.38 C153.65,120.21 154.27,119.69 153.83,118.39 Z M151.06,117.48 L151.06,117.48 L150,111.32 L150,111.32 L151.06,117.48 Z M144.23,108.69 C146.055147,108.450649 147.800066,109.516756 148.42,111.25 L141.21,112.55 C141.185316,110.713791 142.441792,109.107832 144.23,108.69 L144.23,108.69 Z"/>
    <rect width="17.93" height="2.56" x="130.811" y="86.287" fill="#FFFFFF" fill-rule="nonzero" opacity=".21" transform="rotate(-10.24 139.776 87.567)" rx="1"/>
    <path fill="#FFE9CF" stroke="#898071" d="M194.81 228.88C194.81 228.88 194.76 174.43 194.76 166.3 194.76 160.04 197.31 157.54 202.32 157.54 205.56 157.54 208.58 160.04 208.58 166.3 208.58 167.49 208.8 173.58 209.06 181.66 209.41 192.66 209.83 205.1 209.83 205.1L209.83 205.1 209.83 186.33C209.83 186.33 209.83 177.56 217.34 177.56 222.34 177.56 224.85 181.32 224.85 187.56L224.85 205.1 224.85 205.1 224.85 192.58C224.85 192.58 224.85 183.82 232.36 183.82 237.36 183.82 239.87 187.58 239.87 192.58L239.87 205.1 239.87 205.1 239.87 197.59C239.87 195.09 242.37 190.08 247.38 190.08 251.14 190.08 254.89 193.84 254.89 198.84L254.89 227.63C254.89 242.63 244.89 260.18 222.35 260.18 203.57 260.18 199.14 254.54 194.18 249.54 189.22 244.54 181.04 236.39 177.29 232.64 175.778344 231.154672 174.926856 229.124269 174.926856 227.005 174.926856 224.885731 175.778344 222.855328 177.29 221.37 179.79 218.87 183.54 217.62 187.29 221.37L194.81 228.88zM103.93 211.42C103.93 211.42 110.59 202.54 114.57 197.42 118.55 192.3 120 186 114.83 182 109.66 178 103.14 181.8 100.47 185.61 97.8 189.42 89.7 199.53 85.83 206 80.48 214.9 78.96 227.73 89.16 239.47 99.36 251.21 111.07 250.21 116.27 250.22 119.21 250.22 118.89 248.98 118.89 248.98L110.55 202.98 104.3 210.8 103.93 211.43 103.93 211.42z"/>
    <path fill="#FFFFFF" d="M311.84,141.06 C320.709693,141.06 327.9,148.250307 327.9,157.12 C327.9,165.989693 320.709693,173.18 311.84,173.18 C302.970307,173.18 295.78,165.989693 295.78,157.12 C295.78,148.250307 302.970307,141.06 311.84,141.06 L311.84,141.06 Z"/>
    <path fill="#0CC1B8" d="M318.94,154.49 C318.800641,150.876727 315.830959,148.019374 312.215,148.019374 C308.599041,148.019374 305.629359,150.876727 305.49,154.49 C305.488882,155.965264 305.989646,157.397025 306.91,158.55 L306.91,158.55 L311.08,165.97 L311.13,165.97 C311.231609,166.502863 311.697536,166.88834 312.24,166.88834 C312.782464,166.88834 313.248391,166.502863 313.35,165.97 L313.4,165.97 L317.57,158.55 L317.57,158.55 C318.471729,157.390037 318.954563,155.959155 318.94,154.49 Z M312.21,157.34 C310.646908,157.317982 309.395497,156.036887 309.410124,154.473708 C309.424751,152.910529 310.699915,151.653076 312.263146,151.660312 C313.826377,151.667548 315.089845,152.936753 315.09,154.5 C315.084714,155.258525 314.778312,155.983881 314.238204,156.516488 C313.698095,157.049095 312.968525,157.345323 312.21,157.34 Z"/>
  </g>
</svg>
