<svg xmlns="http://www.w3.org/2000/svg" width="415" height="264" viewBox="0 0 415 264">
  <g fill="none" fill-rule="evenodd">
    <polygon fill="#F44F85" points="0 .16 415 .16 415 264 0 264"/>
    <path fill="#A81148" d="M154,191.4 C154,193.4 153,196.4 154,198.4 C155,200.4 155,202.4 156,207.4 C157,212.4 161,209.4 161,206.4 C161,203.4 162,199.4 165,197.4 C168,195.4 168,194.4 168,193.4 C168,192.4 172,190.4 172,189.4 C172,188.4 175,189.4 174,190.4 C173,191.4 176,196.4 178,199.4 C180,202.4 181,202.4 183,201.4 C185,200.4 183,192.4 184,190.4 C185,188.4 187,187.4 189,185.4 C191,183.4 191,181.4 193,180.4 C195,179.4 203,172.4 209,169.4 C215,166.4 215,164.4 216,161.4 C217,158.4 212,148.4 212,146.4 C212,144.4 215,145.4 215,144.4 C215,143.4 207,131.4 206,130.4 C205,129.4 208,126.4 208,125.4 C208,124.4 208,120.4 210,118.4 C212,116.4 210,115.4 210,113.4 C210,111.4 206,107.4 205,105.4 C204,103.4 206,104.4 207,103.4 C208,102.4 207,102.4 208,100.4 C208.584701,99.1307682 208.584701,97.6692318 208,96.4 C207.188429,95.5045754 206.514403,94.4935367 206,93.4 C205.744437,92.8604913 205.279705,92.4486936 204.713362,92.2599127 C204.14702,92.0711318 203.528156,92.1217311 203,92.4 C203,92.4 200,91.4 199,92.4 C198,93.4 197,93.4 196,94.4 C195,95.4 195,97.4 195,98.4 C195,99.4 192,98.4 190,98.4 C188,98.4 185,94.4 183,92.4 C180.195336,89.8258188 177.185354,87.4847216 174,85.4 L160.1,76.13 C159.05,75.83 159.04,75.42 159.04,75.42 L160.1,76.13 C161.060152,76.3521396 162.044931,76.4496091 163.03,76.42 C165.42185,76.4361073 167.720406,75.493069 169.411737,73.8017373 C171.103069,72.1104057 172.046107,69.8118499 172.03,67.42 C172.03,62.42 168.03,58.42 162.03,58.42 C156.03,58.42 154.03,65.42 154.03,65.42 C154.03,65.42 153.03,65.42 153.03,68.42 C153.03,71.42 153.03,71.42 154.03,73.42 L156.03,77.42 C157.03,79.42 158.03,79.42 159.03,80.42 C160.03,81.42 169.03,88.42 170.03,90.42 C171.03,92.42 172.03,92.42 173.03,93.42 C174.03,94.42 183.03,102.42 183.03,102.42 C183.151618,103.478542 183.492169,104.500196 184.03,105.42 C185.03,107.42 184.03,109.42 184.03,111.42 C184.03,113.42 186.03,119.42 188.03,122.42 C190.03,125.42 189.03,126.42 188.03,127.42 C187.03,128.42 186.03,131.42 185.03,134.42 C184.03,137.42 183.03,145.42 184.03,145.42 C185.03,145.42 185.03,146.42 185.03,148.42 C185.03,150.42 182.03,152.42 181.03,154.42 C180.03,156.42 179.03,157.42 180.03,158.42 C181.03,159.42 185.03,159.42 185.03,159.42 C185.483666,160.720332 185.818372,162.059158 186.03,163.42 C186.03,164.42 182.03,167.42 179.42,169.28 C176.81,171.14 172,179.43 169,182.42 C166,185.41 162,188.42 161,188.42 C160,188.42 156,187.42 155,188.42 C154,189.42 154,189.4 154,191.4 Z M197.88,165.47 C197.88,165.47 199.88,161.47 199.88,160.47 C199.88,159.47 201.88,158.47 201.88,158.47 L202.88,161.47 L197.88,165.47 Z" opacity=".28"/>
    <path stroke="#FFFFFF" stroke-width="2" d="M116.22,228.15 L116.22,147 C116.22,147 152,53 249.94,53 C347.88,53 382.33,147 382.33,147 L382.33,228.16 L116.22,228.15 Z"/>
    <polygon stroke="#FFFFFF" stroke-width="2" points="197.88 120.91 305.98 120.91 305.98 228.15 209.84 228.15 197.77 228.15"/>
    <path stroke="#FFFFFF" stroke-width="2" d="M215.52,120.91 L215.52,228.15 L288.74,228.15 L288.74,120.91 C288.74,120.91 289.66,84.96 252.74,84.96 C215.52,85 215.52,120.91 215.52,120.91 Z"/>
    <polygon fill="#FF9515" points="276.5 36.94 269.5 36.94 266 43 269.5 49.06 276.5 49.06 280 43"/>
    <polygon fill="#FFAC1A" points="263.51 46.11 255.75 46.11 251.87 52.83 255.75 59.54 263.51 59.54 267.39 52.83"/>
    <polygon fill="#FF7C24" points="379.74 94.02 373 94.02 369.63 99.85 373 105.69 379.74 105.69 383.11 99.85"/>
    <polygon fill="#FFE12E" points="383.73 124.08 377.99 124.08 375.12 129.05 377.99 134.02 383.73 134.02 386.6 129.05"/>
    <polygon fill="#FFE12E" points="110.73 143.08 104.99 143.08 102.12 148.05 104.99 153.02 110.73 153.02 113.59 148.05"/>
    <polygon fill="#DAEE7E" points="360.59 97.41 353.79 97.41 350.39 103.3 353.79 109.19 360.59 109.19 363.99 103.3"/>
    <polygon fill="#FFAC1A" points="250.98 27.5 244.94 27.5 241.93 32.72 244.94 37.95 250.98 37.95 253.99 32.72"/>
    <polygon fill="#FFDB2C" points="241.03 41.06 233.68 41.06 230 47.43 233.68 53.8 241.03 53.8 244.7 47.43"/>
    <polygon fill="#FF9515" points="117.84 116.35 110.53 116.35 106.87 122.69 110.53 129.02 117.84 129.02 121.5 122.69"/>
    <polygon fill="#68EAD4" points="132.65 107.06 127.95 107.06 125.6 111.13 127.95 115.2 132.65 115.2 135 111.13"/>
    <polygon fill="#F5E47A" points="218.71 31.88 212.9 31.88 210 36.91 212.9 41.94 218.71 41.94 221.61 36.91"/>
    <polygon fill="#FFDB2C" points="313.83 53.02 306.71 53.02 303.15 59.19 306.71 65.36 313.83 65.36 317.39 59.19"/>
    <polygon fill="#FFDB2C" points="292.36 36.28 287.06 36.28 284.42 40.86 287.06 45.44 292.36 45.44 295 40.86"/>
    <polygon fill="#FFDD36" points="245.81 196.64 239.44 196.64 236.25 202.16 239.44 207.68 245.81 207.68 249 202.16"/>
    <polygon fill="#F5E47A" points="239.75 183.38 233.25 183.38 230 189.01 233.25 194.63 239.75 194.63 243 189.01"/>
    <polygon fill="#FFDB2C" points="287.08 53.76 281.25 53.76 278.33 58.82 281.25 63.87 287.08 63.87 290 58.82"/>
    <polygon fill="#E0E984" points="226.09 50.99 220.28 50.99 217.38 56.02 220.28 61.06 226.09 61.06 229 56.02"/>
    <polygon fill="#CEE382" points="330.8 61.88 325.88 61.88 323.42 66.15 325.88 70.41 330.8 70.41 333.26 66.15"/>
    <polygon fill="#40D3AC" points="334.66 76.59 329.8 76.59 327.37 80.79 329.8 85 334.66 85 337.09 80.79"/>
    <polygon fill="#68D8D8" points="354.13 84.02 348.57 84.02 345.79 88.83 348.57 93.65 354.13 93.65 356.91 88.83"/>
    <polygon fill="#40D3AC" points="348.38 70.02 343.32 70.02 340.79 74.4 343.32 78.79 348.38 78.79 350.91 74.4"/>
    <polygon fill="#68D8D8" points="325.22 46.1 319.66 46.1 316.88 50.92 319.66 55.73 325.22 55.73 328 50.92"/>
    <polygon fill="#DAEE7E" points="160.88 70.39 166.65 70.39 169.53 75.38 166.65 80.38 160.88 80.38 158 75.38"/>
    <polygon fill="#40D3AC" points="125.79 77.29 131.83 77.29 134.84 82.52 131.83 87.75 125.79 87.75 122.78 82.52"/>
    <polygon fill="#40D3AC" points="141.73 86.95 148.43 86.95 151.79 92.76 148.43 98.56 141.73 98.56 138.38 92.76"/>
    <polygon fill="#CEE382" points="182.24 58.28 186.6 58.28 188.79 62.06 186.6 65.85 182.24 65.85 180.05 62.06"/>
    <polygon fill="#CEE382" points="164.58 51.2 169.72 51.2 172.29 55.64 169.72 60.09 164.58 60.09 162.01 55.64"/>
    <polygon fill="#68D8D8" points="174.26 66.46 180.04 66.46 182.93 71.47 180.04 76.47 174.26 76.47 171.37 71.47"/>
    <polygon fill="#E0E984" points="202.77 39.47 196.26 39.47 193 45.11 196.26 50.75 202.77 50.75 206.03 45.11"/>
    <polygon fill="#40D3AC" points="207.25 53.77 200.38 53.77 196.94 59.72 200.38 65.68 207.25 65.68 210.69 59.72"/>
    <polygon fill="#F89B5B" points="261.57 199.39 254.71 199.39 251.28 205.33 254.71 211.26 261.57 211.26 265 205.33"/>
    <polygon fill="#FF933B" points="251.65 201.97 243.54 201.97 239.48 208.99 243.54 216.02 251.65 216.02 255.71 208.99"/>
    <polygon fill="#F89349" points="259.56 188.02 252.94 188.02 249.63 193.75 252.94 199.48 259.56 199.48 262.87 193.75"/>
    <polygon fill="#F89349" points="235.97 202.02 228.9 202.02 225.37 208.13 228.9 214.25 235.97 214.25 239.5 208.13"/>
    <polygon fill="#FFDD36" points="266.41 186.19 261.47 186.19 259 190.47 261.47 194.75 266.41 194.75 268.88 190.47"/>
    <polygon fill="#FFDD36" points="279.5 194.29 271.17 194.29 267 201.51 271.17 208.73 279.5 208.73 283.67 201.51"/>
    <polygon fill="#FFDD36" points="267.25 203.21 259.75 203.21 256 209.7 259.75 216.2 267.25 216.2 271 209.7"/>
    <polygon fill="#DAEE7E" points="243.07 169.2 251.21 169.2 255.28 176.25 251.21 183.3 243.07 183.3 239 176.25"/>
    <polygon fill="#68D8D8" points="224.78 183.4 232.33 183.4 236.11 189.94 232.33 196.49 224.78 196.49 221 189.94"/>
    <polygon fill="#A9CE95" points="225.4 138.51 230.57 138.51 233.16 142.99 230.57 147.47 225.4 147.47 222.82 142.99"/>
    <polygon fill="#40D3AC" points="252.53 100.38 258.18 100.38 261 105.27 258.18 110.16 252.53 110.16 249.71 105.27"/>
    <polygon fill="#10BBE8" points="265.61 102.69 272.54 102.69 276 108.69 272.54 114.69 265.61 114.69 262.14 108.69"/>
    <polygon fill="#A9CE95" points="303.05 96.7 308.22 96.7 310.8 101.18 308.22 105.66 303.05 105.66 300.46 101.18"/>
    <polygon fill="#40D3AC" points="282.64 86.88 288.88 86.88 292 92.28 288.88 97.69 282.64 97.69 279.51 92.28"/>
    <polygon fill="#A9CE95" points="328.12 124.58 333.56 124.58 336.29 129.3 333.56 134.02 328.12 134.02 325.39 129.3"/>
    <polygon fill="#40D3AC" points="236.29 77.31 240.87 77.31 243.16 81.28 240.87 85.25 236.29 85.25 234 81.28"/>
    <polygon fill="#68D8D8" points="212.97 77.29 217.16 77.29 219.26 80.92 217.16 84.56 212.97 84.56 210.87 80.92"/>
    <polygon fill="#10BBE8" points="236.44 100.64 241.07 100.64 243.38 104.64 241.07 108.65 236.44 108.65 234.13 104.64"/>
    <polygon fill="#40D3AC" points="234.84 91.02 239.47 91.02 241.78 95.03 239.47 99.03 234.84 99.03 232.53 95.03"/>
    <polygon fill="#40D3AC" points="232.34 111.64 239.45 111.64 243 117.79 239.45 123.94 232.34 123.94 228.79 117.79"/>
    <polygon fill="#68D8D8" points="251.85 87.75 256.16 87.75 258.31 91.48 256.16 95.21 251.85 95.21 249.69 91.48"/>
    <polygon fill="#40D3AC" points="263.79 80.28 268.1 80.28 270.26 84.01 268.1 87.75 263.79 87.75 261.64 84.01"/>
    <polygon fill="#40D3AC" points="240 131.16 246 131.16 249 136.36 246 141.55 240 141.55 237 136.36"/>
    <polygon fill="#10BBE8" points="269.9 125.07 275.71 125.07 278.62 130.1 275.71 135.13 269.9 135.13 267 130.1"/>
    <polygon fill="#40D3AC" points="256.38 138.33 260.79 138.33 263 142.16 260.79 145.98 256.38 145.98 254.17 142.16"/>
    <polygon fill="#CADF8C" points="259.29 165.6 264.72 165.6 267.44 170.31 264.72 175.02 259.29 175.02 256.57 170.31"/>
    <polygon fill="#CADF8C" points="278.68 155.44 283.56 155.44 286 159.67 283.56 163.9 278.68 163.9 276.24 159.67"/>
    <polygon fill="#C2DE88" points="258.44 148.5 264.51 148.5 267.55 153.76 264.51 159.02 258.44 159.02 255.4 153.76"/>
    <polygon fill="#68D8D8" points="338.97 178.83 344.32 178.83 347 183.46 344.32 188.1 338.97 188.1 336.3 183.46"/>
    <polygon fill="#C2DE88" points="330.62 198.25 336.26 198.25 339.08 203.13 336.26 208.02 330.62 208.02 327.8 203.13"/>
    <polygon fill="#40D3AC" points="324.74 178.83 330.23 178.83 332.97 183.58 330.23 188.33 324.74 188.33 322 183.58"/>
    <polygon fill="#40D3AC" points="306.33 174.81 312.11 174.81 315 179.82 312.11 184.82 306.33 184.82 303.45 179.82"/>
    <polygon fill="#BBDB8F" points="361.45 201.2 365.76 201.2 367.92 204.93 365.76 208.66 361.45 208.66 359.3 204.93"/>
    <polygon fill="#40D3AC" points="353.62 158.02 358.96 158.02 361.63 162.65 358.96 167.27 353.62 167.27 350.94 162.65"/>
    <polygon fill="#A9CD99" points="344.02 136.43 349.34 136.43 352 141.04 349.34 145.65 344.02 145.65 341.36 141.04"/>
    <polygon fill="#A9CD99" points="332.86 141.06 338.59 141.06 341.45 146.02 338.59 150.98 332.86 150.98 330 146.02"/>
    <polygon fill="#CEE382" points="274.45 182.22 279.39 182.22 281.86 186.49 279.39 190.77 274.45 190.77 271.98 186.49"/>
    <polygon fill="#CEE382" points="260 177.02 266 177.02 269 182.22 266 187.41 260 187.41 257 182.22"/>
    <polygon fill="#FFDD36" points="177.94 154.02 172.23 154.02 169.38 158.96 172.23 163.9 177.94 163.9 180.79 158.96"/>
    <polygon fill="#ECF18F" points="343.19 112.02 336.51 112.02 333.18 117.8 336.51 123.58 343.19 123.58 346.52 117.8"/>
    <polygon fill="#FBDB6F" points="148.74 139.91 144.37 139.91 142.19 143.69 144.37 147.47 148.74 147.47 150.92 143.69"/>
    <polygon fill="#CEE382" points="181.7 112.08 187.11 112.08 189.82 116.76 187.11 121.44 181.7 121.44 179 116.76"/>
    <polygon fill="#CEE382" points="159.46 125.32 164.49 125.32 167 129.68 164.49 134.03 159.46 134.03 156.94 129.68"/>
    <polygon fill="#68D8D8" points="147.7 172.85 152.99 172.85 155.63 177.44 152.99 182.02 147.7 182.02 145.05 177.44"/>
    <polygon fill="#40D3AC" points="163.8 190.32 169.27 190.32 172 195.05 169.27 199.79 163.8 199.79 161.06 195.05"/>
    <polygon fill="#CEE382" points="279.53 174.35 283.84 174.35 286 178.08 283.84 181.81 279.53 181.81 277.38 178.08"/>
    <polygon fill="#68D8D8" points="242.27 153.39 248.8 153.39 252.07 159.05 248.8 164.71 242.27 164.71 239 159.05"/>
    <polygon fill="#FFDD36" points="252.56 185.99 246.2 185.99 243.01 191.5 246.2 197.02 252.56 197.02 255.75 191.5"/>
    <polygon fill="#68D8D8" points="303.81 66.36 297.08 66.36 293.71 72.19 297.08 78.02 303.81 78.02 307.18 72.19"/>
    <path fill="#FFFFFF" d="M24,226 L24,175.56 C28.1215826,172.486331 30.991629,168.024971 32.08,163 C33.0294835,158.505775 33.4987841,153.923389 33.48,149.33 L44,149.33 C44,149.33 43.69,165.09 57,165.09 C70.31,165.09 70,149.68 70,149.68 L80.52,149.68 C80.52,149.68 80.07,158.68 82.28,164.74 C83.9736507,169.00023 86.6134791,172.819775 90,175.91 L90,226 L24,226 Z"/>
    <path fill="#FFBF31" d="M135.65,201 C142.916537,214.438161 138.010428,231.221512 124.65,238.63 C118.241523,242.14456 110.693237,242.948899 103.688054,240.863688 C96.6828699,238.778476 90.803224,233.977086 87.36,227.53 C80.0934633,214.091839 84.9995719,197.308488 98.36,189.9 C104.768477,186.38544 112.316763,185.581101 119.321946,187.666312 C126.32713,189.751524 132.206776,194.552914 135.65,201 L135.65,201 Z"/>
    <path fill="#F44F85" d="M137.83,214.63 C129.09,205.87 121.31,207.55 117.83,201.01 C123.352236,199.28239 129.013227,198.034429 134.75,197.28 C134.14,196.5 133.5,195.76 132.83,195.05 C127.386215,195.788586 122.014026,196.982777 116.77,198.62 C115.206491,194.766165 115.43734,190.416684 117.4,186.75 C116.37176,186.559887 115.333344,186.429668 114.29,186.36 C112.546907,190.569134 112.464715,195.282653 114.06,199.55 C111.90936,200.330218 109.80873,201.241939 107.77,202.28 L100.56,188.93 C100,189.19 99.44,189.47 98.89,189.77 L98.25,190.14 L105.48,203.54 C103.419967,204.801776 101.454749,206.212188 99.6,207.76 C97.0819586,203.592265 92.5792406,201.032267 87.71,201 C87.1821209,201.973259 86.7080742,202.974766 86.29,204 C90.79,203.69 94.83,205.06 97.65,209.5 C93.1499206,213.654389 89.0486897,218.220984 85.4,223.14 C85.67,224.04 85.99,224.93 86.35,225.81 C90.0682106,220.755469 94.26057,216.067527 98.87,211.81 C101.22,217.19 97.41,226.17 98.36,233.2 C98.68,235.61 99.14,237.97 99.61,240.26 C100.541426,240.738218 101.499687,241.162257 102.48,241.53 C101.606871,237.995507 101.041426,234.392049 100.79,230.76 C100.33,223.08 103.73,216.11 100.91,210.05 C102.755204,208.509408 104.71783,207.115175 106.78,205.88 L125.35,240.25 L126.01,239.9 C126.56,239.6 127.1,239.28 127.62,238.9 L109.07,204.57 C111.056869,203.568701 113.100323,202.683872 115.19,201.92 C119.61,210.12 127.09,208.06 134.91,215.58 C136.66,217.26 138.43,218.96 140.19,220.58 C140.409986,219.546752 140.570252,218.501687 140.67,217.45 L137.83,214.63 Z"/>
    <path fill="#0CC1B8" d="M27,179.9 C30.4230506,176.658762 33.1634381,172.76578 35.06,168.45 C38.59,159.63 37.7,154 37.7,154 L40.33,154 C40.33,154 43,169.35 56.64,169.35 C70.28,169.35 73.64,154.02 73.64,154.02 L76.26,154.02 C76.2598415,159.135049 77.3080777,164.195852 79.34,168.89 C81.99,174.63 87.4,179.89 87.4,179.89 L87.4,182.68 C87.4,182.68 81.34,176.51 78.14,170.21 C73.97,162.01 74.61,156.56 74.61,156.56 C74.61,156.56 71,171 57,171 C42.28,171 39.35,156.17 39.35,156.17 C39.5094795,161.364404 38.2915921,166.508512 35.82,171.08 C33.5285617,175.40238 30.5497122,179.323518 27,182.69 L27,179.9 Z"/>
    <text fill="#00B2A9" font-family="Helvetica" font-size="21">
      <tspan x="40" y="204.52">NBA</tspan>
    </text>
  </g>
</svg>
