<svg xmlns="http://www.w3.org/2000/svg" width="415" height="265" viewBox="0 0 415 265">
  <g fill="none" fill-rule="evenodd">
    <polygon fill="#F44F85" points="0 .16 415 .16 415 264 0 264"/>
    <path fill="#9B004E" d="M415,208.15 L415,168.34 L412.31,168.34 L412.31,147.19 L409.61,147.19 L409.61,144.71 L396.15,144.71 L396.15,147.19 L390.77,147.19 L392.11,149.68 L392.11,160.88 L371.92,160.88 L371.92,162.12 L373.26,163.36 L373.26,178.29 L369.26,178.29 L369.26,128.53 L359.8,128.53 L359.8,124.8 L357.11,122.32 L353.11,122.32 L353.11,124.8 L347.72,124.8 L347.72,128.53 L343.72,128.53 L343.72,160.88 L338.78,160.88 L338.78,122.32 L341.92,119.41 L334.29,119.41 L334.29,98.68 L335.64,96.19 L330.25,96.19 L328.84,95 L327.49,95 L326.14,78.83 L324.8,95 L323.45,95 L322.1,96.24 L317.22,96.24 L318.07,98.73 L318.07,118.63 L315.37,118.63 L315.37,119.88 L312.26,119.88 L312.26,121.31 L314.03,122.37 L314.03,173.37 L310.03,173.37 L310.03,139.47 L306.03,138.54 L303.34,135.43 L285.75,135.43 L282.75,138.23 L279.05,138.54 L279.05,179.54 L275.05,179.54 L275.05,148.61 L268.63,148.61 L268.63,141 L256.14,141 L256.14,169.61 L250.8,169.61 L250.8,97.41 L233.25,85 L222.48,97.44 L222.48,169.58 L217.09,169.58 L217.09,137.24 L218.44,137.24 L219.78,133.51 L215.78,133.51 L215.78,131 L207,131 L207,133.49 L192.86,133.49 L192.86,136 L195.55,136 L195.55,177.05 L190.17,177.05 L190.17,160.88 L193.53,157.77 L193.53,153.41 L174,153.41 L174,141 L178,141 L178,137.27 L171.27,137.27 L171.27,133.54 L159.2,133.54 L159.2,137.19 L149.78,137.19 L149.78,139.76 L153.78,139.76 L153.78,160.91 L144.35,160.91 L144.35,101.17 L116.08,113.61 L116.08,175.8 L110.69,175.8 L110.69,160.88 L102.62,160.88 L102.62,187 L87.85,187 L87.85,143.46 L54.19,143.46 L54.19,192 L12,192 L12,208.18 C12,208.18 415,208 415,208.15 Z" opacity=".17"/>
    <path fill="#CE2566" d="M0,208.59 L0,166.28 L3,166.28 L3,143.81 L6,143.81 L6,141.16 L21,141.16 L21,143.81 L27,143.81 L25.5,146.45 L25.5,158.35 L47.92,158.35 L47.92,159.67 L46.42,161 L46.42,176.87 L50.92,176.87 L50.92,124 L61.4,124 L61.4,120 L64.4,117.36 L68.9,117.36 L68.9,120 L74.9,120 L74.9,124 L79.39,124 L79.39,158.37 L84.88,158.37 L84.88,117.37 L81.39,114.28 L89.87,114.28 L89.87,92.28 L88.36,89.6 L94.36,89.6 L95.85,88.28 L97.35,88.28 L98.85,71.09 L100.35,88.28 L101.84,88.28 L103.34,89.6 L108.78,89.6 L107.78,92.25 L107.78,113.4 L110.78,113.4 L110.78,114.72 L114.24,114.72 L114.24,116.25 L112.24,117.37 L112.24,171.57 L116.73,171.57 L116.73,135.57 L121.22,134.57 L124.22,131.27 L143.68,131.27 L147.05,134.27 L151.17,134.6 L151.17,178.23 L155.66,178.23 L155.66,145.31 L162.81,145.31 L162.81,137.2 L176.63,137.2 L176.63,167.6 L182.57,167.6 L182.57,90.89 L202.17,77.7 L202.17,85.64 L214.17,90.92 L214.17,167.6 L220.17,167.6 L220.17,133.23 L218.67,133.23 L217.17,129.23 L221.67,129.23 L221.67,126.59 L231.4,126.59 L231.4,129.23 L247.1,129.23 L247.1,131.88 L244.1,131.88 L244.1,175.51 L250.1,175.51 L250.1,158.35 L246.35,155 L246.35,150.38 L268.06,150.38 L268.06,137.2 L263.57,137.2 L263.57,133.2 L271.06,133.2 L271.06,129.2 L284.53,129.2 L284.53,133.08 L295,133.08 L295,135.81 L290.5,135.81 L290.5,158.29 L301,158.29 L301,94.89 L332.45,108.11 L332.45,174.21 L338.45,174.21 L338.45,158.35 L347.45,158.35 L347.45,186.11 L363.9,186.11 L363.9,139.84 L401.34,139.84 L401.34,191.4 L415,191.4 L415,208.59 C415,208.59 0,208.4 0,208.59 Z"/>
    <path fill="#10BBE8" d="M69.53,23.19 C64.28,17.26 54.53,17.31 53.34,17.33 L53.34,17.33 C53.34,17.33 42.61,16.87 37,23.18 C30.78,30.18 35.08,42.18 41.68,50.82 C47.16,57.93 49,60.13 49,60.13 L57.61,60.13 C57.61,60.13 59.26,57.93 64.88,50.82 C71.58,42.33 75.75,30.2 69.53,23.19 Z"/>
    <path fill="#FFBF31" d="M50.62,68 L56,68 L57.28,62.87 L49.56,62.87 L50.62,68 Z M54.83,17.3 L51.57,17.3 C51.57,17.3 38.2,20.72 40.43,36.55 C41.24,42.33 44.35,48.45 46.21,52.81 C48.63,58.51 50.21,60.13 50.21,60.13 L52.08,60.13 C52.08,60.13 48.14,45.82 47.82,35.27 C47.754373,28.9172731 49.6315184,22.6961759 53.2,17.44 C56.779095,22.6927133 58.6667902,28.9140821 58.61,35.27 C58.29,45.82 54.35,60.13 54.35,60.13 L56.22,60.13 C56.22,60.13 57.92,58.46 60.34,52.81 C62.22,48.44 65.19,42.38 66.01,36.55 C68.24,20.72 54.83,17.32 54.83,17.32 L54.83,17.3 Z"/>
    <path fill="#374246" d="M379.07,161.87 L297.33,161.87 C296.670879,161.84746 296.117094,162.361051 296.09,163.02 L296.09,262.86 C296.100434,263.17832 296.236983,263.479435 296.469567,263.697014 C296.702152,263.914593 297.011692,264.030787 297.33,264.02 L379.07,264.02 C379.730797,264.036944 380.282903,263.520458 380.31,262.86 L380.31,163 C380.27236,162.34898 379.721708,161.847176 379.07,161.87 Z M359.7,258 C359.7,258.452873 359.332873,258.82 358.88,258.82 L304.71,258.82 C304.255481,258.820033 303.885476,258.454486 303.88,258 L303.88,173.57 C303.88,173.111604 304.251604,172.74 304.71,172.74 L358.88,172.74 C359.334486,172.745476 359.700033,173.115481 359.7,173.57 L359.7,258 Z"/>
    <path fill="#FFBF31" d="M371.18,171.85 L305,171.85 C304.582583,171.871557 304.258587,172.222182 304.27,172.64 L304.27,262.41 C304.261885,262.611606 304.334271,262.808165 304.471205,262.956355 C304.60814,263.104544 304.798381,263.192199 305,263.2 L371.22,263.2 C371.420785,263.192257 371.610067,263.104269 371.745417,262.95576 C371.880767,262.80725 371.950866,262.610641 371.94,262.41 L371.94,172.64 C371.948166,172.433289 371.871715,172.232182 371.728292,172.083099 C371.58487,171.934015 371.386872,171.849839 371.18,171.85 L371.18,171.85 Z M334.25,168.94 L344.07,168.94 C344.373757,168.94 344.62,168.693757 344.62,168.39 L344.62,168 C344.614547,167.700156 344.369894,167.45995 344.07,167.46 L334.25,167.46 C333.950106,167.45995 333.705453,167.700156 333.7,168 L333.7,168.36 C333.691752,168.510994 333.746036,168.658723 333.850088,168.768451 C333.954141,168.878179 334.098781,168.940225 334.25,168.94 L334.25,168.94 Z"/>
    <path fill="#FF8533" d="M35.66,48.18 L0.37,48.18 L0.37,53.11 L35.66,53.11 L35.66,48.18 Z M0.37,61.31 L53.71,61.31 L53.71,56.39 L0.37,56.39 L0.37,61.31 Z M35.66,0.59 L0.37,0.59 L0.37,5.51 L35.66,5.51 L35.66,0.59 Z M0.37,8.79 L0.37,13.72 L53.71,13.72 L53.71,8.79 L0.37,8.79 Z M0.37,22.33 L53.71,22.33 L53.71,17.41 L0.37,17.41 L0.37,22.33 Z" opacity=".62" transform="translate(310 196)"/>
    <path fill="#FFFFFF" d="M394.36,240.33 L394.36,219.79 C394.36,219.038893 393.751107,218.43 393,218.43 L332.77,218.43 C332.410218,218.42999 332.065316,218.573594 331.811853,218.828935 C331.558389,219.084276 331.417335,219.430228 331.42,219.79 L331.42,244.16 C331.417335,244.519772 331.558389,244.865724 331.811853,245.121065 C332.065316,245.376406 332.410218,245.52001 332.77,245.52 L388.35,245.52 L392.62,248.7 C392.91,248.99 393.78,249.57 394.07,249.28 C394.259556,249.029701 394.361465,248.723973 394.36,248.41 L394.36,240.33 L394.36,240.33 Z M334.94,204.8 L334.94,180.45 C334.942665,180.090228 334.801611,179.744276 334.548147,179.488935 C334.294684,179.233594 333.949782,179.08999 333.59,179.09 L273.36,179.09 C272.608893,179.09 272,179.698893 272,180.45 L272,209.07 C271.998535,209.383973 272.100444,209.689701 272.29,209.94 C272.58,210.23 273.46,209.65 273.75,209.36 L278.02,206.16 L333.59,206.16 C333.949782,206.16001 334.294684,206.016406 334.548147,205.761065 C334.801611,205.505724 334.942665,205.159772 334.94,204.8 Z"/>
    <path fill="#0FBFDB" d="M381.61 228.71L341.53 228.71C341.324963 228.707284 341.127528 228.787536 340.982532 228.932532 340.837536 229.077528 340.757284 229.274963 340.76 229.48L340.76 229.48C340.757284 229.685037 340.837536 229.882472 340.982532 230.027468 341.127528 230.172464 341.324963 230.252716 341.53 230.25L381.61 230.25C381.815944 230.252675 382.014375 230.172732 382.160948 230.028038 382.307521 229.883345 382.390017 229.685961 382.39 229.48L382.39 229.48C382.390017 229.274039 382.307521 229.076655 382.160948 228.931962 382.014375 228.787268 381.815944 228.707325 381.61 228.71L381.61 228.71zM381.61 234.53L341.53 234.53C341.135878 234.574841 340.838176 234.908335 340.838176 235.305 340.838176 235.701665 341.135878 236.035159 341.53 236.08L381.61 236.08C381.907901 236.113894 382.198863 235.974034 382.35847 235.720225 382.518078 235.466415 382.518078 235.143585 382.35847 234.889775 382.198863 234.635966 381.907901 234.496106 381.61 234.53L381.61 234.53zM324.7 188.66L284.62 188.66C284.414056 188.657325 284.215625 188.737268 284.069052 188.881962 283.922479 189.026655 283.839983 189.224039 283.84 189.43L283.84 189.43C283.839983 189.635961 283.922479 189.833345 284.069052 189.978038 284.215625 190.122732 284.414056 190.202675 284.62 190.2L324.7 190.2C324.905037 190.202716 325.102472 190.122464 325.247468 189.977468 325.392464 189.832472 325.472716 189.635037 325.47 189.43L325.47 189.43C325.472716 189.224963 325.392464 189.027528 325.247468 188.882532 325.102472 188.737536 324.905037 188.657284 324.7 188.66L324.7 188.66zM324.7 194.48L284.61 194.48C284.215878 194.524841 283.918176 194.858335 283.918176 195.255 283.918176 195.651665 284.215878 195.985159 284.61 196.03L324.7 196.03C325.094122 195.985159 325.391824 195.651665 325.391824 195.255 325.391824 194.858335 325.094122 194.524841 324.7 194.48L324.7 194.48z"/>
    <path fill="#FFFFFF" d="M380.47,137.15 C390.411125,137.15 398.47,145.208875 398.47,155.15 C398.47,165.091125 390.411125,173.15 380.47,173.15 C370.528875,173.15 362.47,165.091125 362.47,155.15 C362.47,145.208875 370.528875,137.15 380.47,137.15 L380.47,137.15 Z"/>
    <path fill="#F44F85" d="M388.41,152.18 C388.262364,148.130755 384.936935,144.924363 380.885,144.924363 C376.833065,144.924363 373.507636,148.130755 373.36,152.18 C373.362311,153.831116 373.926592,155.432266 374.96,156.72 L374.96,156.72 L379.63,165.02 L379.68,165.02 C379.7994,165.612836 380.32026,166.039251 380.925,166.039251 C381.52974,166.039251 382.0506,165.612836 382.17,165.02 L382.22,165.02 L386.89,156.72 L386.89,156.72 C387.891237,155.419827 388.42655,153.82093 388.41,152.18 L388.41,152.18 Z M380.89,155.37 C379.139111,155.347974 377.735473,153.914635 377.750111,152.163668 C377.764749,150.412702 379.192153,149.003029 380.943166,149.010279 C382.694179,149.017528 384.109861,150.438972 384.11,152.19 C384.104712,153.038698 383.762489,153.850533 383.158618,154.446902 C382.554747,155.043272 381.738698,155.375321 380.89,155.37 L380.89,155.37 Z"/>
    <path fill="#FFFFFF" d="M145.6,191.3 C153.563946,191.3 160.02,197.756054 160.02,205.72 C160.02,213.683946 153.563946,220.14 145.6,220.14 C137.636054,220.14 131.18,213.683946 131.18,205.72 C131.185516,197.75834 137.63834,191.305516 145.6,191.3 L145.6,191.3 Z"/>
    <path fill="#0CC1B8" d="M152,203.36 C152,200.0242 149.2958,197.32 145.96,197.32 C142.6242,197.32 139.92,200.0242 139.92,203.36 C139.918746,204.683857 140.37042,205.968305 141.2,207 L141.2,207 L144.95,213.67 L144.95,213.67 C144.95,214.222285 145.397715,214.67 145.95,214.67 C146.502285,214.67 146.95,214.222285 146.95,213.67 L146.95,213.67 L150.7,207 L150.7,207 C151.536768,205.97099 151.995593,204.686281 152,203.36 L152,203.36 Z M146,205.92 C144.597092,205.897991 143.475523,204.746756 143.490138,203.343751 C143.504754,201.940746 144.650062,200.813126 146.053125,200.820348 C147.456187,200.827569 148.589827,201.966919 148.59,203.37 C148.585025,204.064014 148.29957,204.726512 147.798566,205.206798 C147.297562,205.687084 146.623605,205.944322 145.93,205.92 L146,205.92 Z"/>
    <circle cx="158.31" cy="141.84" r="19.49" fill="#FFFFFF" fill-rule="nonzero"/>
    <circle cx="241.81" cy="105.03" r="17.54" fill="#FFFFFF" fill-rule="nonzero"/>
    <circle cx="259.77" cy="160.7" r="15.68" fill="#FFFFFF" fill-rule="nonzero"/>
    <circle cx="236.42" cy="43.08" r="9.88" fill="#FFFFFF" fill-rule="nonzero"/>
    <circle cx="186.59" cy="74.95" r="15.33" fill="#FFFFFF" fill-rule="nonzero"/>
    <circle cx="277.72" cy="59.24" r="12.57" fill="#FFFFFF" fill-rule="nonzero"/>
    <circle cx="313.63" cy="110.42" r="14.37" fill="#FFFFFF" fill-rule="nonzero"/>
    <path stroke="#FFFFFF" stroke-width="2" d="M173.58 139.15L233.73 110.42M243.6 103.24L277.72 59.24M259.77 160.7L313.63 110.42M73.31 166.79L102.23 116.41M244.6 106.93L313.63 110.42"/>
    <path fill="#FFFFFF" d="M130,46.66 C138.676393,46.66 145.71,53.6936066 145.71,62.37 C145.71,71.0463934 138.676393,78.08 130,78.08 C121.323607,78.08 114.29,71.0463934 114.29,62.37 C114.29,53.6936066 121.323607,46.66 130,46.66 L130,46.66 Z"/>
    <path fill="#FFBF31" fill-rule="nonzero" d="M121.28,48.62 L119.71,43.06 L118.13,48.62 L113.42,50.47 L118.13,52.32 L119.71,57.88 L121.28,52.32 L126,50.47 L121.28,48.62 Z M102.42,35 L100.23,42.92 L93.67,45.55 L100.23,48.19 L102.42,56.1 L104.61,48.19 L111.18,45.55 L104.61,42.92 L102.42,35 Z"/>
    <path stroke="#FFFFFF" stroke-width="2" d="M166.39,146.33 L259.77,160.7"/>
    <circle cx="102.37" cy="114.66" r="12.32" fill="#FFFFFF" fill-rule="nonzero"/>
    <circle cx="74.58" cy="164" r="15.67" fill="#FFFFFF" fill-rule="nonzero"/>
    <circle cx="75.31" cy="80.15" r="9.47" fill="#FFFFFF" fill-rule="nonzero"/>
    <path stroke="#FFFFFF" stroke-width="2" d="M153.8 140.37L108.46 118.72M101.02 113.31L75.31 80.15M159.21 145.78L75.18 166.79"/>
    <circle cx="216.35" cy="197.16" r="14.51" fill="#FFFFFF" fill-rule="nonzero"/>
    <path stroke="#FFFFFF" stroke-width="2" d="M156.52 147.23L213.25 195.71M161.07 129.65L186.14 74.5M158.31 141.84L131.38 62.83M148.44 193.91L158.31 139.15M189.59 72.84L234.63 44.88M241.81 105.03L188.84 74.65"/>
    <path fill="#828282" d="M161.47,141.73 C163.486547,140.356466 164.371999,137.828713 163.653352,135.497061 C162.934705,133.165409 160.779889,131.574709 158.34,131.574709 C155.900111,131.574709 153.745295,133.165409 153.026648,135.497061 C152.308001,137.828713 153.193453,140.356466 155.21,141.73 C149.08,143.53 149.08,150.56 149.08,150.56 L167.59,150.56 C167.59,150.56 167.59,143.53 161.47,141.73 Z"/>
    <path fill="#07BCFF" d="M104.91,114.38 C106.233699,113.478236 106.814858,111.818859 106.34304,110.288257 C105.871222,108.757654 104.456673,107.713466 102.855,107.713466 C101.253327,107.713466 99.8387776,108.757654 99.3669599,110.288257 C98.8951421,111.818859 99.4763011,113.478236 100.8,114.38 C96.8,115.57 96.8,120.18 96.8,120.18 L108.95,120.18 C108.95,120.18 108.93,115.57 104.91,114.38 Z"/>
    <path fill="#828282" d="M77.06,79.85 C78.090953,79.1441922 78.5419927,77.84919 78.1725713,76.6556421 C77.8031499,75.4620942 76.6994113,74.6483197 75.45,74.6483197 C74.2005887,74.6483197 73.0968501,75.4620942 72.7274287,76.6556421 C72.3580073,77.84919 72.809047,79.1441922 73.84,79.85 C70.7,80.77 70.7,84.38 70.7,84.38 L80.2,84.38 C80.2,84.38 80.2,80.77 77.06,79.85 Z"/>
    <path fill="#07BCFF" d="M317.7,109.62 C319.31644,108.522284 320.027718,106.498538 319.453505,104.630883 C318.879292,102.763227 317.153934,101.488628 315.2,101.488628 C313.246066,101.488628 311.520708,102.763227 310.946495,104.630883 C310.372282,106.498538 311.08356,108.522284 312.7,109.62 C307.79,111.07 307.79,116.7 307.79,116.7 L322.63,116.7 C322.63,116.7 322.61,111.07 317.7,109.62 Z"/>
    <path fill="#F3663A" d="M77.8,163.28 C79.5897304,162.058369 80.3744042,159.81299 79.7351372,157.742518 C79.0958702,155.672046 77.1819141,154.259881 75.015,154.259881 C72.8480859,154.259881 70.9341298,155.672046 70.2948628,157.742518 C69.6555958,159.81299 70.4402696,162.058369 72.23,163.28 C66.78,164.89 66.78,171.14 66.78,171.14 L83.26,171.14 C83.26,171.14 83.26,164.89 77.8,163.28 Z"/>
    <path fill="#F44F85" d="M218.82,196.9 C220.399545,195.826582 221.094242,193.848459 220.532711,192.023118 C219.97118,190.197776 218.284762,188.952157 216.375,188.952157 C214.465238,188.952157 212.77882,190.197776 212.217289,192.023118 C211.655758,193.848459 212.350455,195.826582 213.93,196.9 C209.14,198.31 209.14,203.8 209.14,203.8 L223.6,203.8 C223.6,203.8 223.6,198.31 218.82,196.9 Z"/>
    <path fill="#FF8533" d="M244.83,104.78 C246.750675,103.46487 247.590873,101.052116 246.902524,98.8284402 C246.214174,96.6047644 244.15778,95.0886646 241.83,95.0886646 C239.50222,95.0886646 237.445826,96.6047644 236.757476,98.8284402 C236.069127,101.052116 236.909325,103.46487 238.83,104.78 C232.98,106.5 232.98,113.22 232.98,113.22 L250.66,113.22 C250.66,113.22 250.68,106.5 244.83,104.78 Z"/>
    <path fill="#F44F85" d="M190.09,74.14 C191.957453,72.867498 192.777201,70.5262455 192.111396,68.3667676 C191.44559,66.2072898 189.449788,64.7341217 187.19,64.7341217 C184.930212,64.7341217 182.93441,66.2072898 182.268604,68.3667676 C181.602799,70.5262455 182.422547,72.867498 184.29,74.14 C178.6,75.82 178.6,82.34 178.6,82.34 L195.78,82.34 C195.78,82.34 195.78,75.82 190.09,74.14 Z"/>
    <path fill="#828282" d="M238,41.83 C239.00041,41.1477796 239.439314,39.8931528 239.082339,38.7360812 C238.725364,37.5790097 237.655886,36.7897423 236.445,36.7897423 C235.234114,36.7897423 234.164636,37.5790097 233.807661,38.7360812 C233.450686,39.8931528 233.88959,41.1477796 234.89,41.83 C231.89,42.73 231.89,46.22 231.89,46.22 L241,46.22 C241,46.22 241,42.73 238,41.83 Z"/>
    <path fill="#4AC1C0" d="M280 59.05C281.480655 58.0426571 282.131341 56.1875321 281.604333 54.4760002 281.077325 52.7644683 279.495832 51.5966671 277.705 51.5966671 275.914168 51.5966671 274.332675 52.7644683 273.805667 54.4760002 273.278659 56.1875321 273.929345 58.0426571 275.41 59.05 271 60.37 271 65.53 271 65.53L284.57 65.53C284.57 65.53 284.53 60.37 280 59.05zM263 160.42C265.07068 159.009235 265.979738 156.413358 265.241598 154.018964 264.503458 151.62457 262.290588 149.991115 259.785 149.991115 257.279412 149.991115 255.066542 151.62457 254.328402 154.018964 253.590262 156.413358 254.49932 159.009235 256.57 160.42 250.29 162.28 250.28 169.49 250.28 169.49L269.28 169.49C269.28 169.49 269.3 162.28 263 160.42z"/>
    <path fill="#F44F85" d="M134.48,58.09 C132.864397,58.1430625 131.334391,58.8290512 130.22,60 C129.078981,58.8444187 127.533542,58.1774775 125.91,58.14 C122.84,58.14 121.32,62.55 124.38,65.6 C127.18,68.4 130.22,71.19 130.22,71.19 C130.22,71.19 133.22,68.4 136,65.6 C139,62.48 137.52,58.09 134.48,58.09 Z"/>
  </g>
</svg>
