<?xml version="1.0" ?><!DOCTYPE svg  PUBLIC '-//W3C//DTD SVG 1.1//EN'  'http://www.w3.org/Graphics/SVG/1.1/DTD/svg11.dtd'><svg enable-background="new 0 0 64 64" id="Layer_1" version="1.1" viewBox="0 0 64 64" xml:space="preserve" xmlns="http://www.w3.org/2000/svg" xmlns:xlink="http://www.w3.org/1999/xlink"><g><g><rect fill="#193651" height="2" width="2" x="6" y="36.5"/><rect fill="#193651" height="2" width="2" x="6" y="42.4"/><rect fill="#193651" height="2" width="2" x="6" y="48.4"/></g><path d="M22.2,38.7c-0.2,2.1,0,4.3,0.5,6.4L18.8,48l2.9,5.6l4.6-1.5c1.4,1.7,3.1,3.1,4.9,4.2L30.5,61l6,1.9l2.2-4.3   c2.1,0.2,4.3,0,6.4-0.5l2.9,3.9l5.6-2.9l-1.5-4.6c1.7-1.4,3.1-3.1,4.1-4.9l4.8,0.7l1.9-6L58.6,42c0.2-2.1,0-4.3-0.5-6.4l3.9-2.9   L59,27.1l-4.6,1.5c-1.4-1.7-3.1-3.1-4.9-4.2l0.7-4.8l-6-1.9L42,22.1c-2.1-0.2-4.3,0-6.4,0.5l-2.9-3.9l-5.6,2.9l1.5,4.6   c-1.7,1.4-3.1,3.1-4.1,4.9l-4.8-0.7l-1.9,6L22.2,38.7z" fill="#FFFFFF"/><g><ellipse cx="40.4" cy="40.3" fill="#FDBF5E" rx="14.5" ry="14.5" transform="matrix(-0.9979 6.522376e-002 -6.522376e-002 -0.9979 83.2725 77.9744)"/></g><g><g><path d="M36.4,45.6h-1.5v-7.4c0-1.3-1-2.3-2.3-2.3s-2.3,1-2.3,2.3v7.4h-1.5v-7.4c0-2.1,1.7-3.8,3.8-3.8     c2.1,0,3.8,1.7,3.8,3.8V45.6z" fill="#193651"/></g><g><path d="M39.9,45.6h-1.5V34.4h4c1.6,0,2.9,1.3,2.9,2.9v1.3c0,1.6-1.3,2.9-2.9,2.9h-2.5V45.6z M39.9,40h2.5     c0.8,0,1.4-0.6,1.4-1.4v-1.3c0-0.8-0.6-1.4-1.4-1.4h-2.5V40z" fill="#193651"/></g><polygon fill="#193651" points="51.2,35.9 51.2,34.4 46.8,34.4 46.8,35.9 48.3,35.9 48.3,44.8 46.8,44.8 46.8,46.3 51.2,46.3     51.2,44.8 49.8,44.8 49.8,35.9   "/><g><rect fill="#193651" height="1.5" width="6.1" x="29.5" y="39.3"/></g></g><g><path d="M34.4,10.5c0-0.1,0-0.2,0-0.3c0-5.1-4.2-9.3-9.3-9.3c-3.5,0-6.5,1.9-8.1,4.7c-1.1-1-2.6-1.6-4.3-1.6    c-3.6,0-6.6,3-6.6,6.6c0,0,0,0.1,0,0.1c-3.1,1.2-5.3,4.3-5.3,7.9c0,4.7,3.8,8.4,8.4,8.4h22.8c4.7,0,8.4-3.8,8.4-8.4    C40.6,14.8,38,11.5,34.4,10.5z" fill="#FFFFFF"/><path d="M59.6,41.4c0.1-1.8,0-3.6-0.5-5.4l4-3l-3.7-7.1l-4.8,1.6c-1.2-1.4-2.6-2.5-4.2-3.5l0.8-5l-7.6-2.4    l-2.2,4.5c-0.1,0-0.2,0-0.2,0c0.2-0.8,0.3-1.6,0.3-2.5c0-3.9-2.5-7.5-6.1-8.8c-0.2-5.5-4.7-9.9-10.3-9.9c-3.3,0-6.4,1.6-8.4,4.3    c-1.2-0.7-2.6-1.1-4-1.1c-4,0-7.3,3.1-7.6,7c-3.3,1.6-5.3,4.8-5.3,8.5c0,5.2,4.2,9.4,9.4,9.4h16.2c-0.5,0.7-1,1.3-1.5,2.1l-5-0.8    L16.6,37l4.5,2.2c-0.1,1.8,0,3.6,0.5,5.4l-4,3l3.7,7.1l4.8-1.6c1.2,1.4,2.6,2.5,4.2,3.5l-0.8,5l7.6,2.4l2.2-4.5    c1.8,0.1,3.6-0.1,5.4-0.5l3,4l7.1-3.7l-1.6-4.8c1.4-1.2,2.5-2.6,3.5-4.2l5,0.8l2.4-7.7L59.6,41.4z M1.9,18.6    c0-3.1,1.8-5.8,4.7-6.9l0.6-0.4v-0.7c0-3.1,2.5-5.6,5.6-5.6c1.3,0,2.6,0.5,3.6,1.3l0.9,0.8L18,6.1c1.5-2.6,4.2-4.2,7.2-4.2    c4.6,0,8.3,3.7,8.3,8.3l0,1.1l0.7,0.2c3.2,0.9,5.4,3.9,5.4,7.2c0,4.1-3.3,7.4-7.4,7.4H9.3C5.2,26.1,1.9,22.7,1.9,18.6z M60.3,49.1    l-4.6-0.7L55.3,49c-1,1.8-2.3,3.4-3.9,4.7l-0.5,0.4l1.5,4.4l-4.1,2.1l-2.8-3.8l-0.7,0.2c-2,0.5-4,0.7-6.1,0.5l-0.7-0.1L36,61.7    l-4.4-1.4l0.7-4.6l-0.6-0.3c-1.8-1-3.3-2.3-4.7-3.9l-0.4-0.5l-4.4,1.5l-2.1-4.1l3.8-2.8l-0.2-0.7c-0.5-2-0.7-4-0.5-6.1l0.1-0.7    L19,36l1.4-4.4l4.6,0.7l0.3-0.6c0.8-1.3,1.7-2.6,2.8-3.6h3.9c3.6,0,6.7-2,8.3-5c0.5,0,1,0,1.5,0.1l0.7,0.1l2.1-4.2l4.4,1.4    L48.4,25l0.6,0.3c1.8,1,3.3,2.3,4.7,3.9l0.4,0.5l4.4-1.5l2.1,4.1l-3.8,2.8l0.2,0.7c0.5,2,0.7,4,0.5,6.1l-0.1,0.7l4.2,2.1    L60.3,49.1z" fill="#193651"/></g><polygon fill="#2EA2DB" points="24.2,19.1 29.3,19.1 29.3,14 27.8,15.5 21.8,9.4 19.7,11.5 25.8,17.6  "/><polygon fill="#F16051" points="16.6,12.4 11.5,12.4 11.5,17.5 13.1,16 19.1,22.1 21.2,20 15.1,13.9  "/></g></svg>