<?xml version="1.0" encoding="UTF-8"?>
<svg width="16px" height="15px" viewBox="0 0 16 15" version="1.1" xmlns="http://www.w3.org/2000/svg" xmlns:xlink="http://www.w3.org/1999/xlink">
    <!-- Generator: Sketch 51.2 (57519) - http://www.bohemiancoding.com/sketch -->
    <title>arrow-right</title>
    <desc>Created with Sketch.</desc>
    <defs></defs>
    <g id="Page-1" stroke="none" stroke-width="1" fill="none" fill-rule="evenodd">
        <g id="arrow-left" fill="#FFFFFF" fill-rule="nonzero">
            <g id="arrow-right" transform="translate(8.000000, 7.500000) scale(-1, 1) translate(-8.000000, -7.500000) ">
                <polygon id="path-1" points="13.1162464 8.0737686 0 8.0737686 0 6.6058107 13.2637836 6.6058107 7.695976 1.038003 8.733979 0 16 7.266021 14.961997 8.304024 8.733979 14.5320421 7.695976 13.4940391"></polygon>
                <polygon id="path-1" points="13.1162464 8.0737686 0 8.0737686 0 6.6058107 13.2637836 6.6058107 7.695976 1.038003 8.733979 0 16 7.266021 14.961997 8.304024 8.733979 14.5320421 7.695976 13.4940391"></polygon>
                <polygon id="path-1" points="13.1162464 8.0737686 0 8.0737686 0 6.6058107 13.2637836 6.6058107 7.695976 1.038003 8.733979 0 16 7.266021 14.961997 8.304024 8.733979 14.5320421 7.695976 13.4940391"></polygon>
            </g>
        </g>
    </g>
</svg>