<?xml version="1.0" ?><!DOCTYPE svg  PUBLIC '-//W3C//DTD SVG 1.1//EN'  'http://www.w3.org/Graphics/SVG/1.1/DTD/svg11.dtd'><svg enable-background="new 0 0 128 128" id="Слой_1" version="1.1" viewBox="0 0 128 128" xml:space="preserve" xmlns="http://www.w3.org/2000/svg" xmlns:xlink="http://www.w3.org/1999/xlink"><path d="M124,27.9H86.5V12.6c0-1.4-1.1-2.5-2.5-2.5H42c-1.4,0-2.5,1.1-2.5,2.5v15.3H4c-1.4,0-2.5,1.1-2.5,2.5v85  c0,1.4,1.1,2.5,2.5,2.5h120c1.4,0,2.5-1.1,2.5-2.5v-85C126.5,29,125.4,27.9,124,27.9z M44.5,15.1h37v12.8h-37V15.1z M121.5,112.9  H6.5v-65H114c1.4,0,2.5-1.1,2.5-2.5s-1.1-2.5-2.5-2.5H6.5v-10h115V112.9z" fill="#4A374F"/></svg>