<svg xmlns="http://www.w3.org/2000/svg" width="127" height="127" viewBox="0 0 127 127">
  <defs>
    <linearGradient id="a" x1="6.653%" x2="93.25%" y1="1.327%" y2="97.054%">
      <stop stop-color="#FF1679" offset="0%"/>
      <stop stop-color="#FF770B" offset="100%"/>
    </linearGradient>
  </defs>
  <g fill="none" transform="translate(1 1)">
    <rect width="125" height="124.8" y=".6" fill="url(#a)" rx="62.4"/>
    <path fill="#FFFFFF" d="M102.612606 61.4609933L80.4594987 47.5986049C79.1397391 46.7716518 77.3990217 47.1681362 76.5701087 48.4821987 75.7395703 49.7962612 76.1377737 51.5294643 77.4575332 52.3547991L95.6984962 63.7670759 77.5241714 74.472154C76.1816573 75.2618862 75.7363197 76.9853795 76.5327263 78.3188616 77.0560793 79.205692 77.9971394 79.6992746 78.9625793 79.6992746 79.4485499 79.6992746 79.9442724 79.5714286 80.3944859 79.3060268L102.550844 66.2576451C103.397636 65.7575893 103.922614 64.8561942 103.937242 63.8771205 103.948619 62.8980469 103.446395 61.9820871 102.612606 61.4609933zM49.0290665 74.5109933L30.7897289 63.0987165 48.9673043 52.3936384C50.3065678 51.6039063 50.7535307 49.8820312 49.957124 48.5469308 49.1655934 47.2118304 47.4346279 46.7716518 46.0921138 47.5597656L23.9390064 60.6097656C23.0922148 61.1082031 22.5639859 62.0095982 22.5526087 62.9902902 22.5412315 63.9693638 23.0402046 64.8837054 23.8723683 65.4047991L46.0287263 79.2671875C46.4968184 79.5584821 47.0136701 79.6992746 47.5256458 79.6992746 48.4667059 79.6992746 49.3817609 79.2332031 49.9181164 78.3835938 50.7454041 77.0695313 50.3520767 75.3363281 49.0290665 74.5109933zM71.1431662 38.856529C69.3601905 38.3014509 67.4585665 39.2918527 66.9059578 41.0671317L53.7489949 82.9763393C53.1915102 84.7532366 54.1894565 86.6434152 55.9708069 87.1984933 56.3088734 87.3020647 56.6501905 87.3538504 56.9833811 87.3538504 58.4234143 87.3538504 59.7594271 86.4281808 60.211266 84.9878906L73.3666036 43.0803013C73.9240882 41.3017857 72.9293926 39.4116071 71.1431662 38.856529z"/>
  </g>
</svg>
