<?xml version="1.0" encoding="UTF-8" standalone="no"?>
<svg width="145px" height="145px" viewBox="0 0 145 145" version="1.1" xmlns="http://www.w3.org/2000/svg" xmlns:xlink="http://www.w3.org/1999/xlink">
    <!-- Generator: Sketch 40.3 (33839) - http://www.bohemiancoding.com/sketch -->
    <title>Artboard</title>
    <desc>Created with Sketch.</desc>
    <defs></defs>
    <g id="Page-1" stroke="none" stroke-width="1" fill="none" fill-rule="evenodd">
        <g id="Artboard" fill="#000000">
            <g id="consulting" transform="translate(20.000000, 28.000000)">
                <g id="Artboard">
                    <g id="Page-1">
                        <g id="Artboard">
                            <g id="copy">
                                <g id="Слой_1">
                                    <g id="Group">
                                        <path d="M2.5,88.8700027 C1.1,88.8700027 0,87.9389837 0,86.7540503 L0,2.11595245 C0,0.931019076 1.1,0 2.5,0 L102.5,0 C103.9,0 105,0.931019076 105,2.11595245 L105,86.7540503 C105,87.9389837 103.9,88.8700027 102.5,88.8700027 L2.5,88.8700027 L2.5,88.8700027 Z M102,85.6400032 L102,3.22999954 L3,3.22999954 L3,85.6400032 L102,85.6400032 L102,85.6400032 Z" id="Shape"></path>
                                    </g>
                                </g>
                            </g>
                            <g id="copy" transform="translate(30.000000, 24.000000)">
                                <g id="Слой_1">
                                    <g id="Group">
                                        <path d="M1.07142857,39 C0.471428571,39 0,38.5914286 0,38.0714286 L0,0.928571429 C0,0.408571429 0.471428571,0 1.07142857,0 L43.9285714,0 C44.5285714,0 45,0.408571429 45,0.928571429 L45,38.0714286 C45,38.5914286 44.5285714,39 43.9285714,39 L1.07142857,39 L1.07142857,39 Z M42,36.15 L42,3 L3,3 L3,36.15 L42,36.15 L42,36.15 Z" id="Shape"></path>
                                    </g>
                                </g>
                            </g>
                            <polygon id="Triangle" transform="translate(101.500000, 54.000000) scale(-1, 1) rotate(90.000000) translate(-101.500000, -54.000000) " points="101.5 50.5 110.5 57.5 92.5 57.5"></polygon>
                        </g>
                    </g>
                </g>
            </g>
        </g>
    </g>
</svg>