<?xml version="1.0" ?><!DOCTYPE svg  PUBLIC '-//W3C//DTD SVG 1.1//EN'  'http://www.w3.org/Graphics/SVG/1.1/DTD/svg11.dtd'><svg enable-background="new 0 0 128 128" id="Слой_1" version="1.1" viewBox="0 0 128 128" xml:space="preserve" xmlns="http://www.w3.org/2000/svg" xmlns:xlink="http://www.w3.org/1999/xlink"><g><g><path d="M104,126.5H4c-1.4,0-2.5-1.1-2.5-2.5V24c0-1.4,1.1-2.5,2.5-2.5h100c1.4,0,2.5,1.1,2.5,2.5v100    C106.5,125.4,105.4,126.5,104,126.5z M6.5,121.5h95v-95h-95V121.5z" fill="#4A374F"/></g><g><path d="M124,106.5h-10c-1.4,0-2.5-1.1-2.5-2.5s1.1-2.5,2.5-2.5h7.5v-95h-95V14c0,1.4-1.1,2.5-2.5,2.5    s-2.5-1.1-2.5-2.5V4c0-1.4,1.1-2.5,2.5-2.5h100c1.4,0,2.5,1.1,2.5,2.5v100C126.5,105.4,125.4,106.5,124,106.5z" fill="#4A374F"/></g></g></svg>