<?xml version="1.0" ?><!DOCTYPE svg  PUBLIC '-//W3C//DTD SVG 1.1//EN'  'http://www.w3.org/Graphics/SVG/1.1/DTD/svg11.dtd'><svg enable-background="new 0 0 128 128" id="Слой_1" version="1.1" viewBox="0 0 128 128" xml:space="preserve" xmlns="http://www.w3.org/2000/svg" xmlns:xlink="http://www.w3.org/1999/xlink"><g><g><path d="M64,126.5c-16.7,0-32.4-6.5-44.2-18.3c-24.4-24.4-24.4-64,0-88.4C31.6,8,47.3,1.5,64,1.5    S96.4,8,108.2,19.8c24.4,24.4,24.4,64,0,88.4C96.4,120,80.7,126.5,64,126.5z M64,6.5c-15.4,0-29.8,6-40.7,16.8    c-22.4,22.4-22.4,58.9,0,81.3c10.9,10.9,25.3,16.8,40.7,16.8s29.8-6,40.7-16.8c22.4-22.4,22.4-58.9,0-81.3    C93.8,12.5,79.4,6.5,64,6.5z" fill="#4A374F"/></g><g><path d="M85.2,87.7c-0.6,0-1.3-0.2-1.8-0.7L41,44.6c-1-1-1-2.6,0-3.5s2.6-1,3.5,0L87,83.4c1,1,1,2.6,0,3.5    C86.5,87.5,85.9,87.7,85.2,87.7z" fill="#4A374F"/></g><g><path d="M42.8,87.7c-0.6,0-1.3-0.2-1.8-0.7c-1-1-1-2.6,0-3.5L83.4,41c1-1,2.6-1,3.5,0s1,2.6,0,3.5L44.6,87    C44.1,87.5,43.4,87.7,42.8,87.7z" fill="#4A374F"/></g></g></svg>