<?xml version="1.0" encoding="UTF-8" standalone="no"?>
<svg width="145px" height="145px" viewBox="0 0 145 145" version="1.1" xmlns="http://www.w3.org/2000/svg" xmlns:xlink="http://www.w3.org/1999/xlink">
    <!-- Generator: Sketch 40.3 (33839) - http://www.bohemiancoding.com/sketch -->
    <title>Artboard</title>
    <desc>Created with Sketch.</desc>
    <defs></defs>
    <g id="Page-1" stroke="none" stroke-width="1" fill="none" fill-rule="evenodd">
        <g id="Artboard" fill="#000000">
            <g id="copy" transform="translate(21.000000, 28.000000)">
                <g id="Слой_1">
                    <g id="Group">
                        <path d="M2.5,88.8700027 C1.1,88.8700027 0,87.9389837 0,86.7540503 L0,2.11595245 C0,0.931019076 1.1,0 2.5,0 L102.5,0 C103.9,0 105,0.931019076 105,2.11595245 L105,86.7540503 C105,87.9389837 103.9,88.8700027 102.5,88.8700027 L2.5,88.8700027 Z M102,85.6400032 L102,3.22999954 L3,3.22999954 L3,85.6400032 L102,85.6400032 Z" id="Shape"></path>
                    </g>
                </g>
            </g>
            <g id="pencil" transform="translate(64.000000, 45.000000)">
                <g id="Слой_1">
                    <path d="M18.6956522,0.218253968 L1.30434783,0.218253968 C0.695652174,0.218253968 0.217391304,0.698412698 0.217391304,1.30952381 L0.217391304,40.5952381 C0.217391304,40.5952381 0.217391304,40.5952381 0.217391304,40.6388889 C0.217391304,40.7261905 0.217391304,40.8134921 0.260869565,40.9007937 L0.260869565,40.9444444 C0.260869565,40.9880952 0.304347826,41.031746 0.304347826,41.0753968 C0.304347826,41.1190476 0.347826087,41.1190476 0.347826087,41.1626984 L0.347826087,41.2063492 L9.04347826,54.3015873 C9.26086957,54.6071429 9.56521739,54.781746 9.95652174,54.781746 C10.3478261,54.781746 10.6521739,54.6071429 10.8695652,54.3015873 L19.5652174,41.2063492 C19.5652174,41.2063492 19.5652174,41.1626984 19.6086957,41.1626984 L19.6521739,41.1190476 C19.6956522,41.0753968 19.6956522,41.031746 19.6956522,40.9880952 L19.6956522,40.9444444 C19.7391304,40.8571429 19.7391304,40.7698413 19.7391304,40.6825397 C19.7391304,40.6825397 19.7391304,40.6825397 19.7391304,40.6388889 L19.7391304,1.30952381 C19.7826087,0.698412698 19.3043478,0.218253968 18.6956522,0.218253968 L18.6956522,0.218253968 Z M13.4782609,46.4880952 L6.52173913,46.4880952 L2.91304348,41.031746 L10,37.452381 L17.0869565,41.031746 L13.4782609,46.4880952 L13.4782609,46.4880952 Z M2.39130435,6.76587302 L8.91304348,6.76587302 L8.91304348,35.5753968 L2.39130435,38.8492063 L2.39130435,6.76587302 L2.39130435,6.76587302 Z M11.0869565,35.5753968 L11.0869565,6.76587302 L17.6086957,6.76587302 L17.6086957,38.8492063 L11.0869565,35.5753968 L11.0869565,35.5753968 Z M17.6086957,2.40079365 L17.6086957,4.58333333 L2.39130435,4.58333333 L2.39130435,2.40079365 L17.6086957,2.40079365 L17.6086957,2.40079365 Z M10,51.7261905 L7.95652174,48.6706349 L12,48.6706349 L10,51.7261905 L10,51.7261905 Z" id="Shape"></path>
                </g>
            </g>
            <polygon id="Triangle" transform="translate(122.500000, 73.000000) scale(-1, 1) rotate(90.000000) translate(-122.500000, -73.000000) " points="122.5 69.5 131.5 76.5 113.5 76.5"></polygon>
        </g>
    </g>
</svg>