<?xml version="1.0" encoding="UTF-8" standalone="no"?>
<svg width="145px" height="145px" viewBox="0 0 145 145" version="1.1" xmlns="http://www.w3.org/2000/svg" xmlns:xlink="http://www.w3.org/1999/xlink">
    <!-- Generator: Sketch 40.3 (33839) - http://www.bohemiancoding.com/sketch -->
    <title>Artboard</title>
    <desc>Created with Sketch.</desc>
    <defs></defs>
    <g id="Page-1" stroke="none" stroke-width="1" fill="none" fill-rule="evenodd">
        <g id="Artboard" fill="#000000">
            <g id="desktop" transform="translate(10.000000, 15.000000)">
                <g id="Слой_1">
                    <path d="M123,0.5 L3,0.5 C1.6,0.5 0.5,1.6 0.5,3 L0.5,93 C0.5,94.4 1.6,95.5 3,95.5 L45.5,95.5 L45.5,110.5 L23,110.5 C21.6,110.5 20.5,111.6 20.5,113 C20.5,114.4 21.6,115.5 23,115.5 L48,115.5 L78,115.5 L103,115.5 C104.4,115.5 105.5,114.4 105.5,113 C105.5,111.6 104.4,110.5 103,110.5 L80.5,110.5 L80.5,95.5 L123,95.5 C124.4,95.5 125.5,94.4 125.5,93 L125.5,3 C125.5,1.6 124.4,0.5 123,0.5 L123,0.5 Z M120.5,5.5 L120.5,75.5 L5.5,75.5 L5.5,5.5 L120.5,5.5 L120.5,5.5 Z M75.5,110.5 L50.5,110.5 L50.5,95.5 L75.5,95.5 L75.5,110.5 L75.5,110.5 Z M78,90.5 L48,90.5 L5.5,90.5 L5.5,80.5 L120.5,80.5 L120.5,90.5 L78,90.5 L78,90.5 Z" id="Shape"></path>
                </g>
            </g>
        </g>
    </g>
</svg>