<?xml version="1.0" ?><!DOCTYPE svg  PUBLIC '-//W3C//DTD SVG 1.1//EN'  'http://www.w3.org/Graphics/SVG/1.1/DTD/svg11.dtd'><svg enable-background="new 0 0 128 128" id="Слой_1" version="1.1" viewBox="0 0 128 128" xml:space="preserve" xmlns="http://www.w3.org/2000/svg" xmlns:xlink="http://www.w3.org/1999/xlink"><g><path d="M31.5,50.1c-8.3,0-15,6.7-15,15c0,1.4,1.1,2.5,2.5,2.5s2.5-1.1,2.5-2.5c0-5.5,4.5-10,10-10   c1.4,0,2.5-1.1,2.5-2.5S32.9,50.1,31.5,50.1z" fill="#4A374F"/><path d="M96.5,50.1c-8.3,0-15,6.7-15,15c0,1.4,1.1,2.5,2.5,2.5s2.5-1.1,2.5-2.5c0-5.5,4.5-10,10-10   c1.4,0,2.5-1.1,2.5-2.5S97.9,50.1,96.5,50.1z" fill="#4A374F"/><path d="M124,62.6h-2.6c-1.3-12.6-11.9-22.5-24.9-22.5S72.9,50,71.6,62.6H56.4C55.1,50,44.4,40.1,31.5,40.1   S7.9,50,6.6,62.6H4c-1.4,0-2.5,1.1-2.5,2.5s1.1,2.5,2.5,2.5h2.6c1.3,12.6,11.9,22.5,24.9,22.5s23.6-9.9,24.9-22.5h15.3   c1.3,12.6,11.9,22.5,24.9,22.5s23.6-9.9,24.9-22.5h2.6c1.4,0,2.5-1.1,2.5-2.5S125.4,62.6,124,62.6z M31.5,85.1c-11,0-20-9-20-20   s9-20,20-20s20,9,20,20S42.5,85.1,31.5,85.1z M96.5,85.1c-11,0-20-9-20-20s9-20,20-20s20,9,20,20S107.5,85.1,96.5,85.1z" fill="#4A374F"/></g></svg>