<?xml version="1.0" ?><!DOCTYPE svg  PUBLIC '-//W3C//DTD SVG 1.1//EN'  'http://www.w3.org/Graphics/SVG/1.1/DTD/svg11.dtd'><svg enable-background="new 0 0 128 128" id="Слой_1" version="1.1" viewBox="0 0 128 128" xml:space="preserve" xmlns="http://www.w3.org/2000/svg" xmlns:xlink="http://www.w3.org/1999/xlink"><path d="M126.5,63.8c0-0.2,0-0.4-0.1-0.6C126.1,29.1,98.3,1.4,64.1,1.3l-0.2,0C51,1.2,38.6,5.2,28.1,12.6  C11.4,24.3,1.5,43.4,1.5,63.8c0,33.8,27,61.4,60.6,62.5c0.4,0.3,1,0.5,1.5,0.5c0.6,0,1.1-0.2,1.5-0.5  C99.1,125.6,126.5,97.8,126.5,63.8z M106.3,102.6c-4.2-1.9-8.5-3.5-12.8-4.8c3.7-10,5.7-20.7,6.1-31.5h21.9  C120.9,80.2,115.2,92.9,106.3,102.6z M66.1,121.2V98.5c7,0.1,13.9,1,20.6,2.6c-2.8,6.6-6.4,12.9-10.7,18.8  C72.8,120.7,69.5,121.1,66.1,121.2z M53.9,120.3c-4.5-6.1-8.2-12.7-11.2-19.5c6-1.3,12.2-2.1,18.4-2.3v22.7  C58.7,121.1,56.2,120.8,53.9,120.3z M46.6,118.5c-7.9-2.5-15.1-6.7-21.1-12.2c4-1.7,8.1-3.2,12.3-4.4  C40.2,107.8,43.1,113.3,46.6,118.5z M61.1,6.3v23.4c-6.6-0.2-13.2-1-19.5-2.5c2.7-6.9,6.2-13.5,10.5-19.7C55,6.9,58,6.5,61.1,6.3z   M77.9,8c4,6,7.4,12.3,10,18.9c-7.1,1.8-14.3,2.8-21.8,2.9V6.3C70.2,6.5,74.1,7,77.9,8z M85.3,10.4c6.6,2.7,12.6,6.5,17.7,11.2  c-3.4,1.5-6.8,2.8-10.3,3.8C90.7,20.3,88.2,15.2,85.3,10.4z M66.1,66.2h28.5c-0.4,10.4-2.4,20.6-5.9,30.2c-7.3-1.8-14.9-2.8-22.5-3  V66.2z M66.1,61.2V34.8c8-0.2,15.9-1.2,23.5-3.2c3.2,9.5,4.9,19.5,5,29.7H66.1z M61.1,34.8v26.5H35c0.1-10.1,1.8-19.9,4.9-29.3  C46.8,33.6,53.9,34.6,61.1,34.8z M61.1,66.2v27.3c-6.9,0.2-13.7,1.1-20.3,2.6c-3.5-9.5-5.4-19.5-5.8-29.8H61.1z M91.6,102.5  c3.7,1.1,7.3,2.4,10.9,3.9c-5.5,4.9-11.9,8.9-19,11.4C86.7,112.9,89.4,107.8,91.6,102.5z M99.6,61.2c-0.1-10.7-1.9-21.1-5.2-31  c4.2-1.3,8.3-2.9,12.4-4.8c8.6,9.6,14.1,22.1,14.6,35.8H99.6z M30.9,16.7c4.3-3,9-5.4,13.9-7.1c-3.2,5.3-5.9,10.7-8.1,16.4  c-4-1.2-8-2.6-11.9-4.3C26.8,19.9,28.8,18.2,30.9,16.7z M21.1,25.4c4.5,2.1,9.2,3.8,13.9,5.2c-3.2,9.8-4.9,20.1-5.1,30.6H6.5  C7.1,47.9,12.3,35.2,21.1,25.4z M30,66.2c0.4,10.7,2.4,21.2,6,31.1c-4.9,1.4-9.7,3.1-14.3,5.3C12.8,92.9,7.1,80.2,6.5,66.2H30z" fill="#4A374F"/></svg>