<?xml version="1.0" encoding="utf-8"?>
<!-- Generator: Adobe Illustrator 22.1.0, SVG Export Plug-In . SVG Version: 6.00 Build 0)  -->
<svg version="1.1" id="Layer_3" xmlns="http://www.w3.org/2000/svg" xmlns:xlink="http://www.w3.org/1999/xlink" x="0px" y="0px"
	 viewBox="0 0 512 512" style="enable-background:new 0 0 512 512;" xml:space="preserve">
<style type="text/css">
	.st0{fill:#525C65;}
</style>
<path class="st0" d="M148.1,393.5c-3.8-0.5-9.2-0.7-16.3-0.7c-27.5,0-52.3,3.8-74.6,11.4c-16.9,5.9-30.3,13.6-40.2,23V469
	c0,13.8,11.2,25,25,25h183.2c0.2-2.2,0.3-4.5,0.3-6.8c0-17-6.2-32.4-18.5-46.2C197.6,430.6,177.9,414.8,148.1,393.5z M120.4,278.4
	c18.9,0,35-6.6,48.3-19.9c11.8-11.8,17.8-29.1,17.8-51.8c0-29.8-7.6-58-22.7-84.5C146.2,91.4,123.9,78,97,78
	c-24.6,0-42.9,8.4-54.7,29.2C35.2,119.1,31.6,134,31.6,152c0,28.9,7.1,55.9,21.3,81C70,263.3,92.5,278.4,120.4,278.4z M469,17H42
	c-13.8,0-25,11.2-25,25v47.6c30.4-24.7,71.9-37,124.7-37H288l-45.5,26.9h-44c33.6,28,50.4,58,50.4,94c0,23.2-6.2,43.6-18.5,61.2
	c-8.1,11.4-21.8,24.7-41.2,39.8c-13.3,13.3-19.9,24.9-19.9,34.9c0,10.9,6.1,21.1,18.5,30.6l25.6,19.9c19.9,15.2,33.8,28.7,41.9,40.5
	c11.8,17.1,17.8,36.7,17.8,59c0,12.2-1.8,23.7-5.4,34.7H469c13.8,0,25-11.2,25-25V42C494,28.2,482.7,17,469,17z M446.6,161.6h-60.1
	v53.8H360v-53.8h-57.1V134H360V80h26.5v54h60.1V161.6z M102.6,325.5c0-7,2.4-16,7.1-27.2H87c-27.3,0-50.6-6.7-70-20v114
	c27.5-9.9,63.1-16.3,106.9-19.4C109.7,354.8,102.6,338.9,102.6,325.5z"/>
</svg>
