<?xml version="1.0" ?><!DOCTYPE svg  PUBLIC '-//W3C//DTD SVG 1.1//EN'  'http://www.w3.org/Graphics/SVG/1.1/DTD/svg11.dtd'><svg enable-background="new 0 0 50 50" height="50px" id="Layer_1" version="1.1" viewBox="0 0 50 50" width="50px" xml:space="preserve" xmlns="http://www.w3.org/2000/svg" xmlns:xlink="http://www.w3.org/1999/xlink"><g><g><polyline fill="none" points="    20,43 20,33 24,33 24,43 28,43 28,38 32,38 32,43 36,43 36,22 40,22 40,43 44,43 44,27 48,27 48,43   " stroke="#EF512A" stroke-linecap="round" stroke-linejoin="round" stroke-miterlimit="10" stroke-width="2"/></g><g><path d="M12,30c0,1.65-1.35,3-3,3    l0,0c-1.65,0-3-1.35-3-3v-2c0-1.65,1.35-3,3-3l0,0c1.65,0,3,1.35,3,3V30z" fill="none" stroke="#403E3E" stroke-linejoin="round" stroke-miterlimit="10" stroke-width="2"/><path d="    M12,43H2v-2c0-1.023,0.391-2.047,1.172-2.828S4.977,37,6,37h6c1.023,0,2.048,0.391,2.828,1.172C15.609,38.953,16,39.977,16,41v2" fill="none" stroke="#403E3E" stroke-linecap="round" stroke-linejoin="round" stroke-miterlimit="10" stroke-width="2"/></g><g><line fill="none" stroke="#403E3E" stroke-linejoin="round" stroke-miterlimit="10" stroke-width="2" x1="45" x2="39" y1="17" y2="11"/><line fill="none" stroke="#403E3E" stroke-linejoin="round" stroke-miterlimit="10" stroke-width="2" x1="21" x2="11" y1="25" y2="15"/><line fill="none" stroke="#403E3E" stroke-linejoin="round" stroke-miterlimit="10" stroke-width="2" x1="31" x2="37" y1="17" y2="11"/><line fill="none" stroke="#403E3E" stroke-linejoin="round" stroke-miterlimit="10" stroke-width="2" x1="23" x2="29" y1="25" y2="19"/><circle cx="9" cy="13" fill="none" r="2" stroke="#EF512A" stroke-linejoin="round" stroke-miterlimit="10" stroke-width="2"/><circle cx="22" cy="26" fill="none" r="2" stroke="#EF512A" stroke-linejoin="round" stroke-miterlimit="10" stroke-width="2"/><circle cx="38" cy="10" fill="none" r="2" stroke="#EF512A" stroke-linejoin="round" stroke-miterlimit="10" stroke-width="2"/><circle cx="30" cy="18" fill="none" r="2" stroke="#EF512A" stroke-linejoin="round" stroke-miterlimit="10" stroke-width="2"/><circle cx="46" cy="18" fill="none" r="2" stroke="#EF512A" stroke-linejoin="round" stroke-miterlimit="10" stroke-width="2"/></g><line fill="none" stroke="#403E3E" stroke-linejoin="round" stroke-miterlimit="10" stroke-width="2" x1="1" x2="49" y1="47" y2="47"/><g><line fill="none" stroke="#403E3E" stroke-linejoin="round" stroke-miterlimit="10" stroke-width="2" x1="43" x2="41" y1="3" y2="3"/><line fill="none" stroke="#403E3E" stroke-linejoin="round" stroke-miterlimit="10" stroke-width="2" x1="39" x2="37" y1="3" y2="3"/><line fill="none" stroke="#403E3E" stroke-linejoin="round" stroke-miterlimit="10" stroke-width="2" x1="35" x2="33" y1="3" y2="3"/></g><g><line fill="none" stroke="#403E3E" stroke-linejoin="round" stroke-miterlimit="10" stroke-width="2" x1="5" x2="22" y1="3" y2="3"/><line fill="none" stroke="#403E3E" stroke-linejoin="round" stroke-miterlimit="10" stroke-width="2" x1="5" x2="12" y1="7" y2="7"/><line fill="none" stroke="#403E3E" stroke-linejoin="round" stroke-miterlimit="10" stroke-width="2" x1="1" x2="3" y1="3" y2="3"/><line fill="none" stroke="#403E3E" stroke-linejoin="round" stroke-miterlimit="10" stroke-width="2" x1="1" x2="3" y1="7" y2="7"/></g></g></svg>