<?xml version="1.0" ?><!DOCTYPE svg  PUBLIC '-//W3C//DTD SVG 1.1//EN'  'http://www.w3.org/Graphics/SVG/1.1/DTD/svg11.dtd'><svg enable-background="new 0 0 50 50" height="50px" id="Layer_1" version="1.1" viewBox="0 0 50 50" width="50px" xml:space="preserve" xmlns="http://www.w3.org/2000/svg" xmlns:xlink="http://www.w3.org/1999/xlink"><g><g><circle cx="42" cy="13" fill="none" r="4" stroke="#403E3E" stroke-linejoin="round" stroke-miterlimit="10" stroke-width="2"/><polyline fill="none" points="    48,27 40,25 33,13 27,9 17,9   " stroke="#403E3E" stroke-linecap="round" stroke-linejoin="round" stroke-miterlimit="10" stroke-width="2"/><line fill="none" stroke="#403E3E" stroke-linecap="round" stroke-linejoin="round" stroke-miterlimit="10" stroke-width="2" x1="9" x2="23" y1="45" y2="34"/><line fill="none" stroke="#403E3E" stroke-linecap="round" stroke-linejoin="round" stroke-miterlimit="10" stroke-width="2" x1="4" x2="17" y1="45" y2="32"/><path d="    M25,45l10.773-5.801c1.137-0.611,1.404-2.124,0.547-3.09L29,28l4-4l4,5l8,1" fill="none" stroke="#403E3E" stroke-linecap="round" stroke-linejoin="round" stroke-miterlimit="10" stroke-width="2"/><path d="    M16,13l9,1l3,3c0,0-3,3-5,5s-3.049,4.188-3,6c0.056,2.072,1.085,4.112,3,5c1.727,0.802,7,3,7,3l-10,9" fill="none" stroke="#403E3E" stroke-linecap="round" stroke-linejoin="round" stroke-miterlimit="10" stroke-width="2"/><rect fill="none" height="11.314" stroke="#EF512A" stroke-linejoin="round" stroke-miterlimit="10" stroke-width="2" transform="matrix(-0.7071 0.7071 -0.7071 -0.7071 28.6777 16.1213)" width="8.485" x="6.757" y="8.343"/></g><g><line fill="none" stroke="#EF512A" stroke-linecap="round" stroke-linejoin="round" stroke-miterlimit="10" stroke-width="2" x1="13" x2="16" y1="28" y2="28"/><g><line fill="none" stroke="#EF512A" stroke-linecap="round" stroke-linejoin="round" stroke-miterlimit="10" stroke-width="2" x1="4" x2="11" y1="24" y2="24"/><line fill="none" stroke="#EF512A" stroke-linejoin="round" stroke-miterlimit="10" stroke-width="2" x1="14" x2="16" y1="24" y2="24"/></g><g><line fill="none" stroke="#EF512A" stroke-linecap="round" stroke-linejoin="round" stroke-miterlimit="10" stroke-width="2" x1="32" x2="22" y1="5" y2="5"/><line fill="none" stroke="#EF512A" stroke-linejoin="round" stroke-miterlimit="10" stroke-width="2" x1="19" x2="17" y1="5" y2="5"/><line fill="none" stroke="#EF512A" stroke-linejoin="round" stroke-miterlimit="10" stroke-width="2" x1="15" x2="13" y1="5" y2="5"/></g><line fill="none" stroke="#EF512A" stroke-linecap="round" stroke-linejoin="round" stroke-miterlimit="10" stroke-width="2" x1="4" x2="2" y1="7" y2="7"/></g><g><line fill="none" stroke="#403E3E" stroke-linecap="round" stroke-linejoin="round" stroke-miterlimit="10" stroke-width="2" x1="25" x2="48" y1="45" y2="45"/><line fill="none" stroke="#403E3E" stroke-linecap="round" stroke-linejoin="round" stroke-miterlimit="10" stroke-width="2" x1="2" x2="16" y1="45" y2="45"/></g></g></svg>