<?xml version="1.0" ?><!DOCTYPE svg  PUBLIC '-//W3C//DTD SVG 1.1//EN'  'http://www.w3.org/Graphics/SVG/1.1/DTD/svg11.dtd'><svg enable-background="new 0 0 50 50" height="50px" id="Layer_1" version="1.1" viewBox="0 0 50 50" width="50px" xml:space="preserve" xmlns="http://www.w3.org/2000/svg" xmlns:xlink="http://www.w3.org/1999/xlink"><g><g><path d="M34,38    c-7.18,0-13-5.82-13-13" fill="none" stroke="#EF512A" stroke-linejoin="round" stroke-miterlimit="10" stroke-width="2"/><path d="    M27.53,19C28.47,20.8,29,22.84,29,25c0,7.179-5.82,13-13,13S3,32.18,3,25c0-7.18,5.82-13,13-13c3.5,0,6.67,1.38,9,3.63" fill="none" stroke="#403E3E" stroke-linecap="round" stroke-linejoin="round" stroke-miterlimit="10" stroke-width="2"/><path d="M21,25    c0-7.18,5.82-13,13-13s13,5.82,13,13c0,7.179-5.82,13-13,13" fill="none" stroke="#EF512A" stroke-linejoin="round" stroke-miterlimit="10" stroke-width="2"/><line fill="none" stroke="#EF512A" stroke-linejoin="round" stroke-miterlimit="10" stroke-width="2" x1="25" x2="25" y1="24" y2="26"/><line fill="none" stroke="#EF512A" stroke-linejoin="round" stroke-miterlimit="10" stroke-width="2" x1="43" x2="43" y1="24" y2="26"/><line fill="none" stroke="#403E3E" stroke-linejoin="round" stroke-miterlimit="10" stroke-width="2" x1="7" x2="7" y1="24" y2="26"/><line fill="none" stroke="#403E3E" stroke-linejoin="round" stroke-miterlimit="10" stroke-width="2" x1="16" x2="16" y1="15" y2="17"/><line fill="none" stroke="#EF512A" stroke-linejoin="round" stroke-miterlimit="10" stroke-width="2" x1="34" x2="34" y1="15" y2="17"/><line fill="none" stroke="#403E3E" stroke-linejoin="round" stroke-miterlimit="10" stroke-width="2" x1="16" x2="16" y1="33" y2="35"/><line fill="none" stroke="#EF512A" stroke-linejoin="round" stroke-miterlimit="10" stroke-width="2" x1="34" x2="34" y1="33" y2="35"/><polyline fill="none" points="    16,20 16,25 13,25   " stroke="#403E3E" stroke-linecap="round" stroke-linejoin="round" stroke-miterlimit="10" stroke-width="2"/><polyline fill="none" points="    34,20 34,25 36,27   " stroke="#EF512A" stroke-linecap="round" stroke-linejoin="round" stroke-miterlimit="10" stroke-width="2"/></g><path d="   M4,13c3.321-3.321,7.65-5.001,12-5c3.128,0.001,6.256,0.861,9,2.581c2.744-1.72,5.872-2.58,9-2.581c4.35-0.001,8.679,1.679,12,5" fill="none" stroke="#403E3E" stroke-linecap="round" stroke-linejoin="round" stroke-miterlimit="10" stroke-width="2"/><path d="   M4,37c3.321,3.322,7.651,5.002,12,5c3.128,0,6.256-0.86,9-2.58c2.744,1.72,5.872,2.58,9,2.58c4.349,0.002,8.679-1.678,12-5" fill="none" stroke="#403E3E" stroke-linecap="round" stroke-linejoin="round" stroke-miterlimit="10" stroke-width="2"/></g></svg>