<?xml version="1.0" ?><!DOCTYPE svg  PUBLIC '-//W3C//DTD SVG 1.1//EN'  'http://www.w3.org/Graphics/SVG/1.1/DTD/svg11.dtd'><svg enable-background="new 0 0 50 50" height="50px" id="Layer_1" version="1.1" viewBox="0 0 50 50" width="50px" xml:space="preserve" xmlns="http://www.w3.org/2000/svg" xmlns:xlink="http://www.w3.org/1999/xlink"><g><g><path d="    M38,25c-1.104,0-2,0.896-2,2v1" fill="none" stroke="#403E3E" stroke-linecap="round" stroke-linejoin="round" stroke-miterlimit="10" stroke-width="2"/><path d="    M34,24c-1.104,0-2,0.896-2,2v9" fill="none" stroke="#403E3E" stroke-linecap="round" stroke-linejoin="round" stroke-miterlimit="10" stroke-width="2"/><path d="    M42,26c-1.104,0-2,0.896-2,2v1" fill="none" stroke="#403E3E" stroke-linecap="round" stroke-linejoin="round" stroke-miterlimit="10" stroke-width="2"/><path d="    M48,43V29c0-1.104-0.896-2-2-2s-2,0.896-2,2v1" fill="none" stroke="#403E3E" stroke-linecap="round" stroke-linejoin="round" stroke-miterlimit="10" stroke-width="2"/><polyline fill="none" points="    48,43 46,45 46,48   " stroke="#403E3E" stroke-linecap="round" stroke-linejoin="round" stroke-miterlimit="10" stroke-width="2"/><polyline fill="none" points="    28,35 28,39 34,45 34,48   " stroke="#403E3E" stroke-linecap="round" stroke-linejoin="round" stroke-miterlimit="10" stroke-width="2"/></g><g><circle cx="16" cy="16" fill="none" r="14" stroke="#403E3E" stroke-linecap="round" stroke-linejoin="round" stroke-miterlimit="10" stroke-width="2"/><line fill="none" stroke="#403E3E" stroke-linecap="round" stroke-linejoin="round" stroke-miterlimit="10" stroke-width="2" x1="24.5" x2="32" y1="27.5" y2="35"/><line fill="none" stroke="#403E3E" stroke-linecap="round" stroke-linejoin="round" stroke-miterlimit="10" stroke-width="2" x1="32" x2="27.5" y1="29" y2="24.5"/><g><path d="M20,13     c0,2.199-1.799,4-4,4l0,0c-2.199,0-4-1.801-4-4v-2c0-2.199,1.801-4,4-4l0,0c2.201,0,4,1.801,4,4V13z" fill="none" stroke="#EF512A" stroke-linejoin="round" stroke-miterlimit="10" stroke-width="2"/><polyline fill="none" points="7,21 14,17      14,16    " stroke="#EF512A" stroke-linejoin="round" stroke-miterlimit="10" stroke-width="2"/><polyline fill="none" points="18,16 18,17      24,21    " stroke="#EF512A" stroke-linejoin="round" stroke-miterlimit="10" stroke-width="2"/></g><path d="    M7,21c-1-2-1-3.18-1-5" fill="none" stroke="#EF512A" stroke-linecap="round" stroke-linejoin="round" stroke-miterlimit="10" stroke-width="2"/><path d="    M10,23.99c1.67,1.26,3.75,2.01,6,2.01c5.52,0,10-4.479,10-10" fill="none" stroke="#EF512A" stroke-linecap="round" stroke-linejoin="round" stroke-miterlimit="10" stroke-width="2"/></g><g><g><line fill="none" stroke="#403E3E" stroke-linejoin="round" stroke-miterlimit="10" stroke-width="2" x1="37" x2="43" y1="2" y2="2"/><line fill="none" stroke="#EF512A" stroke-linejoin="round" stroke-miterlimit="10" stroke-width="2" x1="35" x2="33" y1="2" y2="2"/></g><g><line fill="none" stroke="#403E3E" stroke-linejoin="round" stroke-miterlimit="10" stroke-width="2" x1="37" x2="49" y1="6" y2="6"/><line fill="none" stroke="#EF512A" stroke-linejoin="round" stroke-miterlimit="10" stroke-width="2" x1="35" x2="33" y1="6" y2="6"/></g><g><line fill="none" stroke="#403E3E" stroke-linejoin="round" stroke-miterlimit="10" stroke-width="2" x1="37" x2="45" y1="10" y2="10"/><line fill="none" stroke="#EF512A" stroke-linejoin="round" stroke-miterlimit="10" stroke-width="2" x1="35" x2="33" y1="10" y2="10"/></g><g><line fill="none" stroke="#403E3E" stroke-linejoin="round" stroke-miterlimit="10" stroke-width="2" x1="37" x2="42" y1="14" y2="14"/><line fill="none" stroke="#EF512A" stroke-linejoin="round" stroke-miterlimit="10" stroke-width="2" x1="35" x2="33" y1="14" y2="14"/></g><g><line fill="none" stroke="#403E3E" stroke-linejoin="round" stroke-miterlimit="10" stroke-width="2" x1="37" x2="47" y1="18" y2="18"/><line fill="none" stroke="#EF512A" stroke-linejoin="round" stroke-miterlimit="10" stroke-width="2" x1="35" x2="33" y1="18" y2="18"/></g></g><g><g><line fill="none" stroke="#403E3E" stroke-linejoin="round" stroke-miterlimit="10" stroke-width="2" x1="9" x2="23" y1="36" y2="36"/><line fill="none" stroke="#403E3E" stroke-linejoin="round" stroke-miterlimit="10" stroke-width="2" x1="9" x2="16" y1="40" y2="40"/></g><g><line fill="none" stroke="#403E3E" stroke-linejoin="round" stroke-miterlimit="10" stroke-width="2" x1="9" x2="23" y1="44" y2="44"/><line fill="none" stroke="#403E3E" stroke-linejoin="round" stroke-miterlimit="10" stroke-width="2" x1="9" x2="20" y1="48" y2="48"/></g><polyline fill="none" points="    6,37 3,40 2,39   " stroke="#EF512A" stroke-linecap="round" stroke-linejoin="round" stroke-miterlimit="10" stroke-width="2"/><g><line fill="none" stroke="#EF512A" stroke-linecap="round" stroke-linejoin="round" stroke-miterlimit="10" stroke-width="2" x1="2" x2="6" y1="44" y2="48"/><line fill="none" stroke="#EF512A" stroke-linecap="round" stroke-linejoin="round" stroke-miterlimit="10" stroke-width="2" x1="2" x2="6" y1="48" y2="44"/></g></g></g></svg>