<?xml version="1.0" ?><!DOCTYPE svg  PUBLIC '-//W3C//DTD SVG 1.1//EN'  'http://www.w3.org/Graphics/SVG/1.1/DTD/svg11.dtd'><svg enable-background="new 0 0 50 50" height="50px" id="Layer_1" version="1.1" viewBox="0 0 50 50" width="50px" xml:space="preserve" xmlns="http://www.w3.org/2000/svg" xmlns:xlink="http://www.w3.org/1999/xlink"><g><g><path d="    M46,16H4c-1.104,0-2,0.896-2,2v26c0,1.105,0.896,2,2,2h42c1.104,0,2-0.895,2-2V18C48,16.896,47.104,16,46,16z" fill="none" stroke="#EF512A" stroke-linecap="round" stroke-linejoin="round" stroke-miterlimit="10" stroke-width="2"/><g><path d="M16,25     c0,1.65-1.35,3-3,3l0,0c-1.65,0-3-1.35-3-3v-2c0-1.65,1.35-3,3-3l0,0c1.65,0,3,1.35,3,3V25z" fill="none" stroke="#403E3E" stroke-linejoin="round" stroke-miterlimit="10" stroke-width="2"/><path d="     M20,38v-2c0-1.023-0.391-2.047-1.172-2.828C18.048,32.391,17.023,32,16,32h-6c-1.023,0-2.047,0.391-2.828,1.172S6,34.977,6,36v2     h10" fill="none" stroke="#403E3E" stroke-linecap="round" stroke-linejoin="round" stroke-miterlimit="10" stroke-width="2"/></g><line fill="none" stroke="#EF512A" stroke-linejoin="round" stroke-miterlimit="10" stroke-width="2" x1="5" x2="45" y1="42" y2="42"/><g><line fill="none" stroke="#403E3E" stroke-linejoin="round" stroke-miterlimit="10" stroke-width="2" x1="33" x2="31" y1="20" y2="20"/><line fill="none" stroke="#403E3E" stroke-linejoin="round" stroke-miterlimit="10" stroke-width="2" x1="29" x2="27" y1="20" y2="20"/><line fill="none" stroke="#403E3E" stroke-linejoin="round" stroke-miterlimit="10" stroke-width="2" x1="25" x2="23" y1="20" y2="20"/></g><g><line fill="none" stroke="#403E3E" stroke-linejoin="round" stroke-miterlimit="10" stroke-width="2" x1="23" x2="41" y1="24" y2="24"/><line fill="none" stroke="#403E3E" stroke-linejoin="round" stroke-miterlimit="10" stroke-width="2" x1="23" x2="41" y1="28" y2="28"/><line fill="none" stroke="#403E3E" stroke-linejoin="round" stroke-miterlimit="10" stroke-width="2" x1="23" x2="33" y1="32" y2="32"/></g></g><path d="   M45,12c0-1.104-0.896-2-2-2H7c-1.104,0-2,0.896-2,2" fill="none" stroke="#403E3E" stroke-linecap="round" stroke-linejoin="round" stroke-miterlimit="10" stroke-width="2"/><path d="   M42,6c0-1.104-0.896-2-2-2H10C8.896,4,8,4.896,8,6" fill="none" stroke="#403E3E" stroke-linecap="round" stroke-linejoin="round" stroke-miterlimit="10" stroke-width="2"/></g></svg>