<?xml version="1.0" ?><!DOCTYPE svg  PUBLIC '-//W3C//DTD SVG 1.1//EN'  'http://www.w3.org/Graphics/SVG/1.1/DTD/svg11.dtd'><svg enable-background="new 0 0 50 50" height="50px" id="Layer_1" version="1.1" viewBox="0 0 50 50" width="50px" xml:space="preserve" xmlns="http://www.w3.org/2000/svg" xmlns:xlink="http://www.w3.org/1999/xlink"><g><path d="   M33,30c1-1,1.279-1.279,2-2c2-2,5-6.01,5-11c0-8.29-6.721-15-15-15c-8.28,0-15,6.71-15,15c0,4.99,3,9,5,11c3,3,4,5,4,8v7   c0,0.261,0.1,0.511,0.29,0.71C19.49,43.9,19.74,44,20,44h10c0.26,0,0.51-0.1,0.71-0.29C30.9,43.511,31,43.261,31,43v-7" fill="none" stroke="#403E3E" stroke-linecap="round" stroke-linejoin="round" stroke-miterlimit="10" stroke-width="2"/><g><line fill="none" stroke="#403E3E" stroke-linecap="round" stroke-linejoin="round" stroke-miterlimit="10" stroke-width="2" x1="23" x2="23" y1="22" y2="36"/><line fill="none" stroke="#403E3E" stroke-linecap="round" stroke-linejoin="round" stroke-miterlimit="10" stroke-width="2" x1="27" x2="27" y1="36" y2="22"/></g><g><line fill="none" stroke="#403E3E" stroke-linecap="round" stroke-linejoin="round" stroke-miterlimit="10" stroke-width="2" x1="19" x2="18" y1="36" y2="36"/><line fill="none" stroke="#403E3E" stroke-linecap="round" stroke-linejoin="round" stroke-miterlimit="10" stroke-width="2" x1="19" x2="18" y1="40" y2="40"/><line fill="none" stroke="#403E3E" stroke-linecap="round" stroke-linejoin="round" stroke-miterlimit="10" stroke-width="2" x1="32" x2="23" y1="36" y2="36"/><line fill="none" stroke="#403E3E" stroke-linecap="round" stroke-linejoin="round" stroke-miterlimit="10" stroke-width="2" x1="32" x2="23" y1="40" y2="40"/></g><path d="M22,44v3   c0,0.256,0.098,0.512,0.293,0.707S22.744,48,23,48h4c0.256,0,0.512-0.098,0.707-0.293S28,47.256,28,47v-3" fill="none" stroke="#403E3E" stroke-linejoin="round" stroke-miterlimit="10" stroke-width="2"/><polyline fill="none" points="   19,19 22,16 25,19 28,16 31,19  " stroke="#EF512A" stroke-linecap="round" stroke-linejoin="round" stroke-miterlimit="10" stroke-width="2"/><g><line fill="none" stroke="#EF512A" stroke-linecap="round" stroke-linejoin="round" stroke-miterlimit="10" stroke-width="2" x1="44" x2="47" y1="17" y2="17"/><line fill="none" stroke="#EF512A" stroke-linecap="round" stroke-linejoin="round" stroke-miterlimit="10" stroke-width="2" x1="43" x2="44" y1="13" y2="12"/><line fill="none" stroke="#EF512A" stroke-linecap="round" stroke-linejoin="round" stroke-miterlimit="10" stroke-width="2" x1="43" x2="44" y1="21" y2="22"/></g><g><line fill="none" stroke="#EF512A" stroke-linecap="round" stroke-linejoin="round" stroke-miterlimit="10" stroke-width="2" x1="6" x2="3" y1="17" y2="17"/><line fill="none" stroke="#EF512A" stroke-linecap="round" stroke-linejoin="round" stroke-miterlimit="10" stroke-width="2" x1="7" x2="6" y1="13" y2="12"/><line fill="none" stroke="#EF512A" stroke-linecap="round" stroke-linejoin="round" stroke-miterlimit="10" stroke-width="2" x1="7" x2="6" y1="21" y2="22"/></g></g></svg>