<?xml version="1.0" ?><!DOCTYPE svg  PUBLIC '-//W3C//DTD SVG 1.1//EN'  'http://www.w3.org/Graphics/SVG/1.1/DTD/svg11.dtd'><svg enable-background="new 0 0 50 50" height="50px" id="Layer_1" version="1.1" viewBox="0 0 50 50" width="50px" xml:space="preserve" xmlns="http://www.w3.org/2000/svg" xmlns:xlink="http://www.w3.org/1999/xlink"><g><g><line fill="none" stroke="#EF512A" stroke-linecap="round" stroke-linejoin="round" stroke-miterlimit="10" stroke-width="2" x1="36" x2="36" y1="22" y2="33"/><line fill="none" stroke="#EF512A" stroke-linecap="round" stroke-linejoin="round" stroke-miterlimit="10" stroke-width="2" x1="36" x2="36" y1="2" y2="15"/><path d="    M36,11c0.828-0.666,1.914-1,3-1s2.172,0.334,3,1v3c0.828-0.666,1.914-1,3-1s2.172,0.334,3,1V7c-0.828-0.666-1.914-1-3-1    s-2.172,0.334-3,1V4c-0.828-0.666-1.914-1-3-1s-2.172,0.334-3,1" fill="none" stroke="#EF512A" stroke-linecap="round" stroke-linejoin="round" stroke-miterlimit="10" stroke-width="2"/></g><g><line fill="none" stroke="#403E3E" stroke-linejoin="round" stroke-miterlimit="10" stroke-width="2" x1="13" x2="13" y1="45" y2="26"/><polyline fill="none" points="    17,45 17,32 18,32 22,36 22,41   " stroke="#403E3E" stroke-linecap="round" stroke-linejoin="round" stroke-miterlimit="10" stroke-width="2"/><circle cx="17" cy="6" fill="none" r="4" stroke="#403E3E" stroke-linejoin="round" stroke-miterlimit="10" stroke-width="2"/><line fill="none" stroke="#403E3E" stroke-linejoin="round" stroke-miterlimit="10" stroke-width="2" x1="17" x2="17" y1="17" y2="19"/><path d="M26,41v-7l-5-5V18h14    c0.553,0,1-0.447,1-1v-2c0-0.552-0.447-1-1-1H14c-2.762,0-5,2.239-5,5v10h4" fill="none" stroke="#403E3E" stroke-linejoin="round" stroke-miterlimit="10" stroke-width="2"/></g><g><polyline fill="none" points="    39,36 36,33 28,41 22,41 18,45 5,45 2,48   " stroke="#403E3E" stroke-linecap="round" stroke-linejoin="round" stroke-miterlimit="10" stroke-width="2"/><polyline fill="none" points="    32,45 37,40 40,40 43,37 45,37 48,40   " stroke="#403E3E" stroke-linecap="round" stroke-linejoin="round" stroke-miterlimit="10" stroke-width="2"/></g></g></svg>