<?xml version="1.0" ?><!DOCTYPE svg  PUBLIC '-//W3C//DTD SVG 1.1//EN'  'http://www.w3.org/Graphics/SVG/1.1/DTD/svg11.dtd'><svg enable-background="new 0 0 50 50" height="50px" id="Layer_1" version="1.1" viewBox="0 0 50 50" width="50px" xml:space="preserve" xmlns="http://www.w3.org/2000/svg" xmlns:xlink="http://www.w3.org/1999/xlink"><g><g><path d="    M33,27v-7c0-2.762-2.238-5-5-5h-6c-2.762,0-5,2.238-5,5v3" fill="none" stroke="#EF512A" stroke-linecap="round" stroke-linejoin="round" stroke-miterlimit="10" stroke-width="2"/><circle cx="25" cy="7" fill="none" r="4" stroke="#EF512A" stroke-linejoin="round" stroke-miterlimit="10" stroke-width="2"/><line fill="none" stroke="#EF512A" stroke-linejoin="round" stroke-miterlimit="10" stroke-width="2" x1="25" x2="25" y1="18" y2="20"/></g><g><line fill="none" stroke="#403E3E" stroke-linejoin="round" stroke-miterlimit="10" stroke-width="2" x1="25" x2="25" y1="34" y2="48"/><line fill="none" stroke="#403E3E" stroke-linejoin="round" stroke-miterlimit="10" stroke-width="2" x1="10" x2="40" y1="31" y2="31"/></g><g><circle cx="44" cy="12" fill="none" r="4" stroke="#403E3E" stroke-linejoin="round" stroke-miterlimit="10" stroke-width="2"/><path d="    M30,31v-2c0-1.104,0.896-2,2-2h5c0,0,3.034-3.724,4-5c0.779-1.03,1.708-2,3-2h1c1.657,0,3,1.343,3,3v13c0,2.209-1.791,4-4,4h-7    l-3,7" fill="none" stroke="#403E3E" stroke-linecap="round" stroke-linejoin="round" stroke-miterlimit="10" stroke-width="2"/><path d="    M40,31v4h-3.838c-1.291,0-2.438,0.826-2.846,2.052L30,47" fill="none" stroke="#403E3E" stroke-linecap="round" stroke-linejoin="round" stroke-miterlimit="10" stroke-width="2"/><line fill="none" stroke="#403E3E" stroke-linecap="round" stroke-linejoin="round" stroke-miterlimit="10" stroke-width="2" x1="40" x2="43" y1="31" y2="27"/></g><g><circle cx="6" cy="12" fill="none" r="4" stroke="#403E3E" stroke-linejoin="round" stroke-miterlimit="10" stroke-width="2"/><path d="    M20,31v-2c0-1.104-0.896-2-2-2h-5c0,0-3.034-3.724-4-5c-0.779-1.03-1.708-2-3-2H5c-1.657,0-3,1.343-3,3v13c0,2.209,1.791,4,4,4h7    l3,7" fill="none" stroke="#403E3E" stroke-linecap="round" stroke-linejoin="round" stroke-miterlimit="10" stroke-width="2"/><path d="    M10,31v4h3.838c1.291,0,2.438,0.826,2.846,2.052L20,47" fill="none" stroke="#403E3E" stroke-linecap="round" stroke-linejoin="round" stroke-miterlimit="10" stroke-width="2"/><line fill="none" stroke="#403E3E" stroke-linecap="round" stroke-linejoin="round" stroke-miterlimit="10" stroke-width="2" x1="10" x2="7" y1="31" y2="27"/></g></g></svg>