<?xml version="1.0" ?><!DOCTYPE svg  PUBLIC '-//W3C//DTD SVG 1.1//EN'  'http://www.w3.org/Graphics/SVG/1.1/DTD/svg11.dtd'><svg enable-background="new 0 0 50 50" height="50px" id="Layer_1" version="1.1" viewBox="0 0 50 50" width="50px" xml:space="preserve" xmlns="http://www.w3.org/2000/svg" xmlns:xlink="http://www.w3.org/1999/xlink"><g><g><path d="    M46.08,40.33c-0.67,1.2-1.51,2.301-2.48,3.271" fill="none" stroke="#EF512A" stroke-linecap="round" stroke-linejoin="round" stroke-miterlimit="10" stroke-width="2"/><path d="    M36,18c6.85,1.391,12,7.75,12,15c0,2.66-0.7,5.16-1.92,7.33L48,48l-7.67-1.92C38.16,47.301,35.66,48,33,48    c-7.25,0-13.61-5.149-15-12" fill="none" stroke="#EF512A" stroke-linecap="round" stroke-linejoin="round" stroke-miterlimit="10" stroke-width="2"/></g><g><path d="    M29,26c1.63,0,3.09,0.79,4,2" fill="none" stroke="#EF512A" stroke-linecap="round" stroke-linejoin="round" stroke-miterlimit="10" stroke-width="2"/><path d="    M32,31c0-2.761,2.238-5,5-5s5,2.239,5,5c0,1.279-0.482,2.564-1.465,3.536C34,41,33,42,33,42s-1-1-7.536-7.464" fill="none" stroke="#EF512A" stroke-linecap="round" stroke-linejoin="round" stroke-miterlimit="10" stroke-width="2"/></g><g><path d="    M6.4,27.601c-0.97-0.97-1.81-2.07-2.48-3.271" fill="none" stroke="#403E3E" stroke-linecap="round" stroke-linejoin="round" stroke-miterlimit="10" stroke-width="2"/><path d="    M3.918,24.328C2.701,22.16,2,19.663,2,17C2,8.716,8.716,2,17,2s15,6.716,15,15s-6.716,15-15,15c-2.663,0-5.159-0.701-7.327-1.918    L2,32L3.918,24.328z" fill="none" stroke="#403E3E" stroke-linecap="round" stroke-linejoin="round" stroke-miterlimit="10" stroke-width="2"/></g><g><path d="    M17.981,15C19.242,13.326,20,11.252,20,9c0-1.104-0.896-2-2-2s-2,0.896-2,2c0,3.309-2.691,6-6,6v4" fill="none" stroke="#403E3E" stroke-linecap="round" stroke-linejoin="round" stroke-miterlimit="10" stroke-width="2"/><path d="    M10,23l3,2h8c2,0,2.825-0.866,3-2c0.271-1.747,0.878-5.236,1-7c0.038-0.551-0.448-1-1-1h-2" fill="none" stroke="#403E3E" stroke-linecap="round" stroke-linejoin="round" stroke-miterlimit="10" stroke-width="2"/></g></g></svg>