<?xml version="1.0" ?><!DOCTYPE svg  PUBLIC '-//W3C//DTD SVG 1.1//EN'  'http://www.w3.org/Graphics/SVG/1.1/DTD/svg11.dtd'><svg enable-background="new 0 0 50 50" height="50px" id="Layer_1" version="1.1" viewBox="0 0 50 50" width="50px" xml:space="preserve" xmlns="http://www.w3.org/2000/svg" xmlns:xlink="http://www.w3.org/1999/xlink"><g><g><line fill="none" stroke="#403E3E" stroke-linecap="round" stroke-linejoin="round" stroke-miterlimit="10" stroke-width="2" x1="14" x2="14" y1="18" y2="28"/><circle cx="10" cy="6" fill="none" r="4" stroke="#403E3E" stroke-linejoin="round" stroke-miterlimit="10" stroke-width="2"/><line fill="none" stroke="#403E3E" stroke-linejoin="round" stroke-miterlimit="10" stroke-width="2" x1="10" x2="10" y1="17" y2="19"/><path d="    M14,18h15v-4H14H7c-2.762,0-5,2.239-5,5v9" fill="none" stroke="#403E3E" stroke-linecap="round" stroke-linejoin="round" stroke-miterlimit="10" stroke-width="2"/><line fill="none" stroke="#403E3E" stroke-linecap="round" stroke-linejoin="round" stroke-miterlimit="10" stroke-width="2" x1="6" x2="6" y1="25" y2="28"/></g><g><g><path d="M9,32     c-1.65,0-3,1.35-3,3s1.35,3,3,3s3-1.35,3-3S10.65,32,9,32z" fill="none" stroke="#403E3E" stroke-linejoin="round" stroke-miterlimit="10" stroke-width="2"/><path d="     M14.828,43.172C14.048,42.391,13.023,42,12,42H6c-1.023,0-2.047,0.391-2.828,1.172S2,44.977,2,46v2h12" fill="none" stroke="#403E3E" stroke-linecap="round" stroke-linejoin="round" stroke-miterlimit="10" stroke-width="2"/></g><g><path d="M25,32     c-1.65,0-3,1.35-3,3s1.35,3,3,3s3-1.35,3-3S26.65,32,25,32z" fill="none" stroke="#403E3E" stroke-linejoin="round" stroke-miterlimit="10" stroke-width="2"/><path d="     M32,48v-2c0-1.023-0.391-2.047-1.172-2.828C30.048,42.391,29.023,42,28,42h-6c-1.023,0-2.047,0.391-2.828,1.172S18,44.977,18,46     v2H32z" fill="none" stroke="#403E3E" stroke-linecap="round" stroke-linejoin="round" stroke-miterlimit="10" stroke-width="2"/></g><g><path d="M41,32     c-1.65,0-3,1.35-3,3s1.35,3,3,3s3-1.35,3-3S42.65,32,41,32z" fill="none" stroke="#403E3E" stroke-linejoin="round" stroke-miterlimit="10" stroke-width="2"/><path d="     M35.172,43.172C35.953,42.391,36.977,42,38,42h6c1.023,0,2.048,0.391,2.828,1.172C47.609,43.953,48,44.977,48,46v2H36" fill="none" stroke="#403E3E" stroke-linecap="round" stroke-linejoin="round" stroke-miterlimit="10" stroke-width="2"/></g></g><g><path d="    M18,2h28c1.104,0,2,0.896,2,2v22c0,1.105-0.896,2-2,2H18" fill="none" stroke="#EF512A" stroke-linecap="round" stroke-linejoin="round" stroke-miterlimit="10" stroke-width="2"/><line fill="none" stroke="#EF512A" stroke-linecap="round" stroke-linejoin="round" stroke-miterlimit="10" stroke-width="2" x1="18" x2="44" y1="24" y2="24"/><g><line fill="none" stroke="#EF512A" stroke-linejoin="round" stroke-miterlimit="10" stroke-width="2" x1="27" x2="25" y1="6" y2="6"/><line fill="none" stroke="#EF512A" stroke-linejoin="round" stroke-miterlimit="10" stroke-width="2" x1="23" x2="21" y1="6" y2="6"/><line fill="none" stroke="#EF512A" stroke-linejoin="round" stroke-miterlimit="10" stroke-width="2" x1="19" x2="17" y1="6" y2="6"/></g></g></g></svg>