<?xml version="1.0" ?><!DOCTYPE svg  PUBLIC '-//W3C//DTD SVG 1.1//EN'  'http://www.w3.org/Graphics/SVG/1.1/DTD/svg11.dtd'><svg enable-background="new 0 0 50 50" height="50px" id="Layer_1" version="1.1" viewBox="0 0 50 50" width="50px" xml:space="preserve" xmlns="http://www.w3.org/2000/svg" xmlns:xlink="http://www.w3.org/1999/xlink"><g><g><path d="M31,9    c0,2.199-1.799,4-4,4l0,0c-2.199,0-4-1.801-4-4V7c0-2.199,1.801-4,4-4l0,0c2.201,0,4,1.801,4,4V9z" fill="none" stroke="#EF512A" stroke-linejoin="round" stroke-miterlimit="10" stroke-width="2"/><path d="M29,12v1l5.555,3.703    C34.833,16.889,35,17.201,35,17.535V21c0,0-1.999,2-4.998,2c-1.65,0-4.354,0-6.004,0C20.999,23,19,21,19,21v-3.465    c0-0.334,0.167-0.646,0.445-0.832L25,13v-1" fill="none" stroke="#EF512A" stroke-linejoin="round" stroke-miterlimit="10" stroke-width="2"/></g><g><path d="M19,33    c0,2.199-1.799,4-4,4l0,0c-2.199,0-4-1.801-4-4v-2c0-2.199,1.801-4,4-4l0,0c2.201,0,4,1.801,4,4V33z" fill="none" stroke="#403E3E" stroke-linejoin="round" stroke-miterlimit="10" stroke-width="2"/><path d="M17,36v1l5.555,3.703    C22.833,40.889,23,41.201,23,41.535V45c0,0-1.999,2-4.998,2c-1.65,0-4.354,0-6.004,0C8.999,47,7,45,7,45v-3.465    c0-0.334,0.167-0.646,0.445-0.832L13,37v-1" fill="none" stroke="#403E3E" stroke-linejoin="round" stroke-miterlimit="10" stroke-width="2"/></g><g><path d="M43,33    c0,2.199-1.799,4-4,4l0,0c-2.199,0-4-1.801-4-4v-2c0-2.199,1.801-4,4-4l0,0c2.201,0,4,1.801,4,4V33z" fill="none" stroke="#403E3E" stroke-linejoin="round" stroke-miterlimit="10" stroke-width="2"/><path d="M41,36v1l5.555,3.703    C46.833,40.889,47,41.201,47,41.535V45c0,0-1.999,2-4.998,2c-1.65,0-4.354,0-6.004,0C32.999,47,31,45,31,45v-3.465    c0-0.334,0.167-0.646,0.445-0.832L37,37v-1" fill="none" stroke="#403E3E" stroke-linejoin="round" stroke-miterlimit="10" stroke-width="2"/></g><g><line fill="none" stroke="#403E3E" stroke-linejoin="round" stroke-miterlimit="10" stroke-width="2" x1="32" x2="30" y1="32" y2="32"/><line fill="none" stroke="#403E3E" stroke-linejoin="round" stroke-miterlimit="10" stroke-width="2" x1="28" x2="26" y1="32" y2="32"/><line fill="none" stroke="#403E3E" stroke-linejoin="round" stroke-miterlimit="10" stroke-width="2" x1="24" x2="22" y1="32" y2="32"/></g><g><path d="M47,20v-8    c0-2.209-1.791-4-4-4h-8" fill="none" stroke="#403E3E" stroke-linejoin="round" stroke-miterlimit="10" stroke-width="2"/><line fill="none" stroke="#403E3E" stroke-linejoin="round" stroke-miterlimit="10" stroke-width="2" x1="47" x2="47" y1="24" y2="22"/><polyline fill="none" points="    38,11 35,8 38,5   " stroke="#403E3E" stroke-linecap="round" stroke-linejoin="round" stroke-miterlimit="10" stroke-width="2"/></g><g><path d="M16,8h-5    c-2.209,0-4,1.791-4,4v11" fill="none" stroke="#403E3E" stroke-linejoin="round" stroke-miterlimit="10" stroke-width="2"/><line fill="none" stroke="#403E3E" stroke-linejoin="round" stroke-miterlimit="10" stroke-width="2" x1="20" x2="18" y1="8" y2="8"/><polyline fill="none" points="    10,20 7,23 4,20   " stroke="#403E3E" stroke-linecap="round" stroke-linejoin="round" stroke-miterlimit="10" stroke-width="2"/></g></g></svg>