<?xml version="1.0" ?><!DOCTYPE svg  PUBLIC '-//W3C//DTD SVG 1.1//EN'  'http://www.w3.org/Graphics/SVG/1.1/DTD/svg11.dtd'><svg enable-background="new 0 0 50 50" height="50px" id="Layer_1" version="1.1" viewBox="0 0 50 50" width="50px" xml:space="preserve" xmlns="http://www.w3.org/2000/svg" xmlns:xlink="http://www.w3.org/1999/xlink"><g><g><path d="    M46.08,40.33c-0.67,1.2-1.51,2.301-2.48,3.271" fill="none" stroke="#EF512A" stroke-linecap="round" stroke-linejoin="round" stroke-miterlimit="10" stroke-width="2"/><path d="    M36,18c6.85,1.39,12,7.75,12,15c0,2.66-0.7,5.16-1.92,7.33L48,48l-7.67-1.92C38.16,47.301,35.66,48,33,48    c-7.25,0-13.61-5.149-15-12" fill="none" stroke="#EF512A" stroke-linecap="round" stroke-linejoin="round" stroke-miterlimit="10" stroke-width="2"/></g><g><path d="    M19.12,22.121C18.59,22.66,17.83,23,17,23c-1.66,0-3-1.34-3-3v-6c0-1.66,1.34-3,3-3s3,1.34,3,3v4" fill="none" stroke="#403E3E" stroke-linecap="round" stroke-linejoin="round" stroke-miterlimit="10" stroke-width="2"/><line fill="none" stroke="#403E3E" stroke-linecap="round" stroke-linejoin="round" stroke-miterlimit="10" stroke-width="2" x1="17" x2="20" y1="20" y2="23"/></g><g><path d="    M6.4,27.601c-0.971-0.97-1.811-2.07-2.48-3.27" fill="none" stroke="#403E3E" stroke-linecap="round" stroke-linejoin="round" stroke-miterlimit="10" stroke-width="2"/><path d="    M3.918,24.328C2.701,22.16,2,19.664,2,17C2,8.716,8.716,2,17,2s15,6.716,15,15s-6.716,15-15,15c-2.663,0-5.159-0.701-7.327-1.918    L2,32L3.918,24.328z" fill="none" stroke="#403E3E" stroke-linecap="round" stroke-linejoin="round" stroke-miterlimit="10" stroke-width="2"/></g><g><path d="    M33,27L33,27c1.657,0,3,1.344,3,3v9" fill="none" stroke="#EF512A" stroke-linecap="round" stroke-linejoin="round" stroke-miterlimit="10" stroke-width="2"/><line fill="none" stroke="#EF512A" stroke-linecap="round" stroke-linejoin="round" stroke-miterlimit="10" stroke-width="2" x1="30" x2="30" y1="39" y2="30"/><line fill="none" stroke="#EF512A" stroke-linecap="square" stroke-linejoin="round" stroke-miterlimit="10" stroke-width="2" x1="30" x2="36" y1="34" y2="34"/></g></g></svg>