<svg width="98" height="100" viewBox="0 0 98 100" xmlns="http://www.w3.org/2000/svg" xmlns:xlink="http://www.w3.org/1999/xlink"><title>icon 3</title><defs><circle id="b" cx="31" cy="31" r="31"/><filter x="-40.3%" y="-38.7%" width="206.5%" height="206.5%" filterUnits="objectBoundingBox" id="a"><feOffset dx="8" dy="9" in="SourceAlpha" result="shadowOffsetOuter1"/><feGaussianBlur stdDeviation="9.5" in="shadowOffsetOuter1" result="shadowBlurOuter1"/><feColorMatrix values="0 0 0 0 0.180392157 0 0 0 0 0.239215686 0 0 0 0 0.28627451 0 0 0 0.12 0" in="shadowBlurOuter1"/></filter></defs><g fill="none" fill-rule="evenodd"><g transform="translate(10 10)"><use fill="#000" filter="url(#a)" xlink:href="#b"/><use fill="#FFF" xlink:href="#b"/></g><g fill="#02B3E4"><path d="M47.428 43.877h-6.476c-.555 0-.925.37-.925.926 0 .555.37.925.925.925h6.476c.556 0 .926-.37.926-.925s-.37-.926-.926-.926zM35.216 36.846l-1.48 1.11 2.22 2.683-2.22 2.59 1.388 1.203 2.775-3.146c.277-.37.277-.833 0-1.203l-2.684-3.238z"/><path d="M29.85 31.85h22.204v16.653H29.85V31.85zm-1.85 0v16.653c0 1.018.833 1.85 1.85 1.85h22.204c1.018 0 1.85-.832 1.85-1.85V31.85c0-1.017-.832-1.85-1.85-1.85H29.85c-1.017 0-1.85.833-1.85 1.85z"/></g></g></svg>