<?xml version="1.0" ?><!DOCTYPE svg  PUBLIC '-//W3C//DTD SVG 1.1//EN'  'http://www.w3.org/Graphics/SVG/1.1/DTD/svg11.dtd'><svg enable-background="new 0 0 50 50" height="50px" id="Layer_1" version="1.1" viewBox="0 0 50 50" width="50px" xml:space="preserve" xmlns="http://www.w3.org/2000/svg" xmlns:xlink="http://www.w3.org/1999/xlink"><g><g><line fill="none" stroke="#EF512A" stroke-linejoin="round" stroke-miterlimit="10" stroke-width="2" x1="29" x2="29" y1="37" y2="45"/><line fill="none" stroke="#EF512A" stroke-linejoin="round" stroke-miterlimit="10" stroke-width="2" x1="21" x2="21" y1="45" y2="37"/><line fill="none" stroke="#EF512A" stroke-linejoin="round" stroke-miterlimit="10" stroke-width="2" x1="25" x2="25" y1="45" y2="41"/><path d="M29,40h4V29    c0-2.761-2.238-5-5-5h-6c-2.762,0-5,2.239-5,5v11h4" fill="none" stroke="#EF512A" stroke-linejoin="round" stroke-miterlimit="10" stroke-width="2"/><circle cx="25" cy="16" fill="none" r="4" stroke="#EF512A" stroke-linejoin="round" stroke-miterlimit="10" stroke-width="2"/><line fill="none" stroke="#EF512A" stroke-linejoin="round" stroke-miterlimit="10" stroke-width="2" x1="25" x2="25" y1="27" y2="29"/></g><g><path d="M14,26h-4    c-2.762,0-5,2.239-5,5v11h4v3" fill="none" stroke="#403E3E" stroke-linejoin="round" stroke-miterlimit="10" stroke-width="2"/><circle cx="13" cy="18" fill="none" r="4" stroke="#403E3E" stroke-linejoin="round" stroke-miterlimit="10" stroke-width="2"/></g><g><path d="M36,26h4    c2.762,0,5,2.239,5,5v11h-4v3" fill="none" stroke="#403E3E" stroke-linejoin="round" stroke-miterlimit="10" stroke-width="2"/><circle cx="37" cy="18" fill="none" r="4" stroke="#403E3E" stroke-linejoin="round" stroke-miterlimit="10" stroke-width="2"/></g><line fill="none" stroke="#403E3E" stroke-linejoin="round" stroke-miterlimit="10" stroke-width="2" x1="1" x2="49" y1="48" y2="48"/><g><circle cx="18" cy="6" fill="none" r="4" stroke="#403E3E" stroke-linejoin="round" stroke-miterlimit="10" stroke-width="2"/><circle cx="32" cy="6" fill="none" r="4" stroke="#403E3E" stroke-linejoin="round" stroke-miterlimit="10" stroke-width="2"/></g></g></svg>