<?xml version="1.0" ?><!DOCTYPE svg  PUBLIC '-//W3C//DTD SVG 1.1//EN'  'http://www.w3.org/Graphics/SVG/1.1/DTD/svg11.dtd'><svg enable-background="new 0 0 50 50" height="50px" id="Layer_1" version="1.1" viewBox="0 0 50 50" width="50px" xml:space="preserve" xmlns="http://www.w3.org/2000/svg" xmlns:xlink="http://www.w3.org/1999/xlink"><g><g><g><path d="     M37.001,41c-1.656,0-3.118,0.792-4,2c0.882,1.208,2.344,2,4,2c1.657,0,3.118-0.792,4-2C40.119,41.792,38.658,41,37.001,41z" fill="none" stroke="#403E3E" stroke-linecap="round" stroke-linejoin="round" stroke-miterlimit="10" stroke-width="2"/><path d="     M37.001,10c0,1.657,0.792,3.118,2,4c1.208-0.882,2-2.343,2-4s-0.792-3.118-2-4C37.793,6.882,37.001,8.343,37.001,10z" fill="none" stroke="#403E3E" stroke-linecap="round" stroke-linejoin="round" stroke-miterlimit="10" stroke-width="2"/><path d="     M42.125,16.819c-0.466,1.59-0.116,3.215,0.796,4.4c1.407-0.507,2.577-1.688,3.043-3.277s0.115-3.216-0.796-4.4     C43.761,14.049,42.59,15.229,42.125,16.819z" fill="none" stroke="#403E3E" stroke-linecap="round" stroke-linejoin="round" stroke-miterlimit="10" stroke-width="2"/><path d="     M42.791,33.674c-1.516,0.671-2.531,1.986-2.85,3.447c1.295,0.748,2.952,0.882,4.468,0.211c1.515-0.67,2.531-1.985,2.849-3.447     C45.963,33.137,44.307,33.004,42.791,33.674z" fill="none" stroke="#403E3E" stroke-linecap="round" stroke-linejoin="round" stroke-miterlimit="10" stroke-width="2"/><path d="     M43.808,25.361c-0.958,1.352-1.157,3.002-0.682,4.42c1.495-0.021,2.986-0.756,3.944-2.107c0.959-1.352,1.157-3.002,0.682-4.42     C46.257,23.275,44.766,24.01,43.808,25.361z" fill="none" stroke="#403E3E" stroke-linecap="round" stroke-linejoin="round" stroke-miterlimit="10" stroke-width="2"/><path d="     M31.497,5.498C32.738,6.739,33.001,8,33.001,10c-2,0-3.263-0.261-4.504-1.502C27.256,7.256,27.001,6,27,4.001     C29.001,4,30.256,4.256,31.497,5.498z" fill="none" stroke="#403E3E" stroke-linecap="round" stroke-linejoin="round" stroke-miterlimit="10" stroke-width="2"/><path d="     M33.001,10c5.931,2.94,10,8.94,10,16c0,9.26-7,17-16,18" fill="none" stroke="#403E3E" stroke-linecap="round" stroke-linejoin="round" stroke-miterlimit="10" stroke-width="2"/></g><g><path d="     M13.001,41c1.657,0,3.118,0.792,4,2c-0.882,1.208-2.343,2-4,2c-1.656,0-3.118-0.792-4-2C9.883,41.792,11.345,41,13.001,41z" fill="none" stroke="#403E3E" stroke-linecap="round" stroke-linejoin="round" stroke-miterlimit="10" stroke-width="2"/><path d="     M13.001,10c0,1.657-0.792,3.118-2,4c-1.208-0.882-2-2.343-2-4s0.792-3.118,2-4C12.209,6.882,13.001,8.343,13.001,10z" fill="none" stroke="#403E3E" stroke-linecap="round" stroke-linejoin="round" stroke-miterlimit="10" stroke-width="2"/><path d="     M7.877,16.819c0.466,1.59,0.116,3.215-0.796,4.4c-1.407-0.507-2.577-1.688-3.043-3.277c-0.465-1.59-0.115-3.216,0.796-4.4     C6.241,14.049,7.412,15.229,7.877,16.819z" fill="none" stroke="#403E3E" stroke-linecap="round" stroke-linejoin="round" stroke-miterlimit="10" stroke-width="2"/><path d="     M7.211,33.674c1.516,0.671,2.532,1.986,2.85,3.447c-1.295,0.748-2.952,0.882-4.468,0.211c-1.515-0.67-2.531-1.985-2.849-3.447     C4.039,33.137,5.696,33.004,7.211,33.674z" fill="none" stroke="#403E3E" stroke-linecap="round" stroke-linejoin="round" stroke-miterlimit="10" stroke-width="2"/><path d="     M6.195,25.361c0.958,1.352,1.156,3.002,0.681,4.42c-1.495-0.021-2.986-0.756-3.944-2.107s-1.157-3.002-0.682-4.42     C3.746,23.275,5.237,24.01,6.195,25.361z" fill="none" stroke="#403E3E" stroke-linecap="round" stroke-linejoin="round" stroke-miterlimit="10" stroke-width="2"/><path d="     M18.505,5.498C17.264,6.739,17.001,8,17.001,10c2,0,3.263-0.261,4.504-1.502C22.746,7.256,23.001,6,23.002,4.001     C21.001,4,19.746,4.256,18.505,5.498z" fill="none" stroke="#403E3E" stroke-linecap="round" stroke-linejoin="round" stroke-miterlimit="10" stroke-width="2"/><path d="     M17.001,10c-5.93,2.94-10,8.94-10,16c0,9.26,7,17,16,18" fill="none" stroke="#403E3E" stroke-linecap="round" stroke-linejoin="round" stroke-miterlimit="10" stroke-width="2"/></g></g><g><g><path d="     M29.001,32l1,1c0.443,0.443,1,1,2,1c0.494,0,0.997-0.249,1.374-0.626s0.626-0.88,0.626-1.374c0-1-0.557-1.557-1-2l-1-1" fill="none" stroke="#EF512A" stroke-linecap="round" stroke-linejoin="round" stroke-miterlimit="10" stroke-width="2"/><path d="     M26.001,35l1,1c0.443,0.443,1,1,2,1c0.494,0,0.997-0.249,1.374-0.626s0.626-0.88,0.626-1.374c0-1-0.557-1.557-1-2l-1-1" fill="none" stroke="#EF512A" stroke-linecap="round" stroke-linejoin="round" stroke-miterlimit="10" stroke-width="2"/><path d="     M26.001,35l1,1c0.443,0.443,1,1,1,2c0,0.494-0.249,0.997-0.626,1.374S26.495,40,26.001,40c-1,0-1.557-0.557-2-1l-13-13" fill="none" stroke="#EF512A" stroke-linecap="round" stroke-linejoin="round" stroke-miterlimit="10" stroke-width="2"/><path d="     M32.001,29l1,1c0.443,0.443,1,1,2,1c0.494,0,0.997-0.249,1.374-0.626s0.626-0.88,0.626-1.374c0-1-0.557-1.557-1-2l-7-7" fill="none" stroke="#EF512A" stroke-linecap="round" stroke-linejoin="round" stroke-miterlimit="10" stroke-width="2"/><line fill="none" stroke="#EF512A" stroke-linecap="round" stroke-linejoin="round" stroke-miterlimit="10" stroke-width="2" x1="24.001" x2="22.001" y1="15" y2="13"/></g><g><path d="     M29.001,20h-3l-4,4c-0.443,0.443-1,1-2,1c-0.494,0-0.997-0.249-1.374-0.626s-0.626-0.88-0.626-1.374c0-1,0.557-1.557,1-2l8-8" fill="none" stroke="#EF512A" stroke-linecap="round" stroke-linejoin="round" stroke-miterlimit="10" stroke-width="2"/><line fill="none" stroke="#EF512A" stroke-linecap="round" stroke-linejoin="round" stroke-miterlimit="10" stroke-width="2" x1="37.001" x2="39.001" y1="27" y2="25"/></g></g></g></svg>