<?xml version="1.0" ?><!DOCTYPE svg  PUBLIC '-//W3C//DTD SVG 1.1//EN'  'http://www.w3.org/Graphics/SVG/1.1/DTD/svg11.dtd'><svg enable-background="new 0 0 50 50" height="50px" id="Layer_1" version="1.1" viewBox="0 0 50 50" width="50px" xml:space="preserve" xmlns="http://www.w3.org/2000/svg" xmlns:xlink="http://www.w3.org/1999/xlink"><g><g><line fill="none" stroke="#403E3E" stroke-linecap="round" stroke-linejoin="round" stroke-miterlimit="10" stroke-width="2" x1="31" x2="31" y1="28" y2="47"/><line fill="none" stroke="#403E3E" stroke-linecap="round" stroke-linejoin="round" stroke-miterlimit="10" stroke-width="2" x1="39" x2="39" y1="47" y2="38"/><line fill="none" stroke="#403E3E" stroke-linecap="round" stroke-linejoin="round" stroke-miterlimit="10" stroke-width="2" x1="35" x2="35" y1="47" y2="32"/><path d="M31,30h-4V19    c0-2.762,2.238-5,5-5h6c2.762,0,5,2.238,5,5v10h-4" fill="none" stroke="#403E3E" stroke-linejoin="round" stroke-miterlimit="10" stroke-width="2"/><circle cx="35" cy="6" fill="none" r="4" stroke="#403E3E" stroke-linejoin="round" stroke-miterlimit="10" stroke-width="2"/><line fill="none" stroke="#403E3E" stroke-linejoin="round" stroke-miterlimit="10" stroke-width="2" x1="35" x2="35" y1="17" y2="19"/><rect fill="none" height="6" stroke="#403E3E" stroke-linejoin="round" stroke-miterlimit="10" stroke-width="2" width="8" x="39" y="29"/></g><g><line fill="none" stroke="#EF512A" stroke-linecap="round" stroke-linejoin="round" stroke-miterlimit="10" stroke-width="2" x1="19" x2="18" y1="38" y2="47"/><line fill="none" stroke="#EF512A" stroke-linecap="round" stroke-linejoin="round" stroke-miterlimit="10" stroke-width="2" x1="12" x2="11" y1="47" y2="38"/><line fill="none" stroke="#EF512A" stroke-linecap="round" stroke-linejoin="round" stroke-miterlimit="10" stroke-width="2" x1="15" x2="15" y1="47" y2="38"/><circle cx="15" cy="6" fill="none" r="4" stroke="#EF512A" stroke-linejoin="round" stroke-miterlimit="10" stroke-width="2"/><path d="    M7,29v-9c0-4,2.239-6,5-6l3,3l3-3c2.761,0,5,2,5,6v10" fill="none" stroke="#EF512A" stroke-linecap="round" stroke-linejoin="round" stroke-miterlimit="10" stroke-width="2"/><polyline fill="none" points="    15,35 21,35 19,29 20,20   " stroke="#EF512A" stroke-linecap="round" stroke-linejoin="round" stroke-miterlimit="10" stroke-width="2"/><line fill="none" stroke="#EF512A" stroke-linecap="round" stroke-linejoin="round" stroke-miterlimit="10" stroke-width="2" x1="10" x2="11" y1="20" y2="26"/><rect fill="none" height="6" stroke="#EF512A" stroke-linejoin="round" stroke-miterlimit="10" stroke-width="2" width="8" x="3" y="29"/></g></g></svg>