<?xml version="1.0" ?><!DOCTYPE svg  PUBLIC '-//W3C//DTD SVG 1.1//EN'  'http://www.w3.org/Graphics/SVG/1.1/DTD/svg11.dtd'><svg enable-background="new 0 0 50 50" height="50px" id="Layer_1" version="1.1" viewBox="0 0 50 50" width="50px" xml:space="preserve" xmlns="http://www.w3.org/2000/svg" xmlns:xlink="http://www.w3.org/1999/xlink"><g><g><line fill="none" stroke="#403E3E" stroke-linejoin="round" stroke-miterlimit="10" stroke-width="2" x1="18" x2="18" y1="28" y2="48"/><line fill="none" stroke="#403E3E" stroke-linejoin="round" stroke-miterlimit="10" stroke-width="2" x1="10" x2="10" y1="48" y2="40"/><line fill="none" stroke="#403E3E" stroke-linejoin="round" stroke-miterlimit="10" stroke-width="2" x1="14" x2="14" y1="48" y2="32"/><path d="M18,31h4V20    c0-2.761-2.239-5-5-5h-6c-2.761,0-5,2.239-5,5v11h4" fill="none" stroke="#403E3E" stroke-linejoin="round" stroke-miterlimit="10" stroke-width="2"/><circle cx="14" cy="7" fill="none" r="4" stroke="#403E3E" stroke-linejoin="round" stroke-miterlimit="10" stroke-width="2"/><line fill="none" stroke="#403E3E" stroke-linejoin="round" stroke-miterlimit="10" stroke-width="2" x1="14" x2="14" y1="18" y2="20"/><rect fill="none" height="6" stroke="#EF512A" stroke-linejoin="round" stroke-miterlimit="10" stroke-width="2" width="8" x="2" y="31"/></g><g><circle cx="44" cy="7" fill="none" r="4" stroke="#EF512A" stroke-linejoin="round" stroke-miterlimit="10" stroke-width="2"/><circle cx="44" cy="43" fill="none" r="4" stroke="#EF512A" stroke-linejoin="round" stroke-miterlimit="10" stroke-width="2"/><circle cx="44" cy="25" fill="none" r="4" stroke="#EF512A" stroke-linejoin="round" stroke-miterlimit="10" stroke-width="2"/><g><path d="     M27,25c2.209,0,4-1.791,4-4V11c0-2.209,1.791-4,4-4h1" fill="none" stroke="#403E3E" stroke-linecap="round" stroke-linejoin="round" stroke-miterlimit="10" stroke-width="2"/><path d="     M27,25c2.209,0,4,1.791,4,4v10c0,2.209,1.791,4,4,4h1" fill="none" stroke="#403E3E" stroke-linecap="round" stroke-linejoin="round" stroke-miterlimit="10" stroke-width="2"/><line fill="none" stroke="#403E3E" stroke-linecap="round" stroke-linejoin="round" stroke-miterlimit="10" stroke-width="2" x1="36" x2="34" y1="25" y2="25"/></g></g></g></svg>