<?xml version="1.0" ?><!DOCTYPE svg  PUBLIC '-//W3C//DTD SVG 1.1//EN'  'http://www.w3.org/Graphics/SVG/1.1/DTD/svg11.dtd'><svg enable-background="new 0 0 50 50" height="50px" id="Layer_1" version="1.1" viewBox="0 0 50 50" width="50px" xml:space="preserve" xmlns="http://www.w3.org/2000/svg" xmlns:xlink="http://www.w3.org/1999/xlink"><g><g><path d="    M46.08,40.33c-0.67,1.2-1.51,2.301-2.48,3.271" fill="none" stroke="#403E3E" stroke-linecap="round" stroke-linejoin="round" stroke-miterlimit="10" stroke-width="2"/><path d="    M36,18c6.85,1.391,12,7.75,12,15c0,2.66-0.7,5.16-1.92,7.33L48,48l-7.67-1.92C38.16,47.301,35.66,48,33,48    c-7.25,0-13.61-5.149-15-12" fill="none" stroke="#403E3E" stroke-linecap="round" stroke-linejoin="round" stroke-miterlimit="10" stroke-width="2"/></g><g><path d="M35,31v1l5.555,3.703    C40.833,35.889,41,36.201,41,36.535V40c0,0-1.999,2-4.998,2c-1.65,0-4.354,0-6.004,0C26.999,42,25,40,25,40v-3.465    c0-0.334,0.167-0.646,0.445-0.832L31,32v-1" fill="none" stroke="#403E3E" stroke-linejoin="round" stroke-miterlimit="10" stroke-width="2"/><path d="    M31,22.561C31.59,22.21,32.27,22,33,22c2.2,0,4,1.801,4,4v2c0,2.2-1.8,4-4,4c-1.47,0-2.76-0.8-3.45-2" fill="none" stroke="#403E3E" stroke-linecap="round" stroke-linejoin="round" stroke-miterlimit="10" stroke-width="2"/></g><g><path d="    M6.4,27.601c-0.971-0.97-1.811-2.07-2.48-3.271" fill="none" stroke="#EF512A" stroke-linecap="round" stroke-linejoin="round" stroke-miterlimit="10" stroke-width="2"/><path d="    M31,11c0.8,1.841,1,3.87,1,6c0,8.28-6.72,15-15,15c-2.66,0-5.16-0.699-7.33-1.92L2,32l1.92-7.67C2.7,22.16,2,19.66,2,17    C2,8.721,8.72,2,17,2c4.44,0,8.26,1.931,11,5" fill="none" stroke="#EF512A" stroke-linecap="round" stroke-linejoin="round" stroke-miterlimit="10" stroke-width="2"/><polyline fill="none" points="    28,3 28,7 24,7   " stroke="#EF512A" stroke-linecap="round" stroke-linejoin="round" stroke-miterlimit="10" stroke-width="2"/></g><g><g><path d="     M9,14c0-1.656,1.343-3,3-3s3,1.344,3,3c0,1.657-1.343,3-3,3" fill="none" stroke="#EF512A" stroke-linecap="round" stroke-linejoin="round" stroke-miterlimit="10" stroke-width="2"/><path d="     M12,17c-1.657,0-3,1.344-3,3v2h6" fill="none" stroke="#EF512A" stroke-linecap="round" stroke-linejoin="round" stroke-miterlimit="10" stroke-width="2"/></g><g><path d="     M22,17c-1.657,0-3-1.343-3-3v-3" fill="none" stroke="#EF512A" stroke-linecap="round" stroke-linejoin="round" stroke-miterlimit="10" stroke-width="2"/><line fill="none" stroke="#EF512A" stroke-linecap="round" stroke-linejoin="round" stroke-miterlimit="10" stroke-width="2" x1="25" x2="25" y1="11" y2="22"/></g></g></g></svg>