<svg xmlns="http://www.w3.org/2000/svg" width="127" height="127" viewBox="0 0 127 127">
  <defs>
    <linearGradient id="a" x1="6.653%" x2="93.25%" y1="1.327%" y2="97.054%">
      <stop stop-color="#FF1679" offset="0%"/>
      <stop stop-color="#FF770B" offset="100%"/>
    </linearGradient>
  </defs>
  <g fill="none" transform="translate(1 1)">
    <rect width="125" height="124.8" y=".6" fill="url(#a)" rx="62.4"/>
    <path fill="#FFFFFF" d="M98.7391207,52.132 C95.8496293,42.408 89.3623793,34.3953333 80.4728621,29.5713333 C77.1598707,27.774 73.6942069,26.5333333 70.1827414,25.8026667 C70.1176897,25.7893333 70.0539655,25.7726667 69.9889138,25.76 C66.9759569,25.1493333 63.9304741,24.9213333 60.9161897,25.052 C60.2192069,25.082 59.5235517,25.1266667 58.8312155,25.1953333 C46.730931,26.3946667 35.4099397,33.4073333 29.2081207,44.9353333 C28.5954397,46.074 28.0504655,47.2393333 27.56125,48.4213333 C27.4822586,48.6126667 27.4065862,48.804 27.33025,48.996 C23.8625948,57.7753333 23.7524052,67.5853333 27.1390776,76.5246667 C27.3999483,77.2126667 28.1692845,77.5586667 28.8516638,77.296 C29.5366983,77.034 29.8812069,76.264 29.6203362,75.576 C26.4334655,67.1653333 26.5702069,57.9233333 29.9077586,49.6853333 C30.6166897,49.102 32.8682759,47.7166667 34.60675,46.996 C34.6897241,47.6286667 34.7262328,48.5766667 34.6890603,49.45 C34.4567328,50.3986667 33.1464052,52.0493333 32.6445776,52.6813333 C32.2960862,53.12 32.165319,53.284 32.069069,53.512 L32.0192845,53.6293333 C30.7693621,56.5713333 30.1991638,57.9146667 31.6973448,60.2506667 C31.8725862,60.524 32.107569,60.996 32.3564914,61.4953333 C32.9578879,62.702 33.640931,64.07 34.5031983,64.8473333 C35.6535517,65.882 36.8868793,66.6646667 37.9741724,67.3546667 C39.7066724,68.454 40.763431,69.1673333 40.6565603,69.9346667 C40.2138103,73.1026667 41.8586897,75.1426667 43.1803017,76.7806667 C43.6529224,77.3673333 44.0989914,77.9206667 44.3804397,78.4426667 C44.5351034,78.73 44.5443966,79.412 44.5563448,80.202 C44.5656379,80.8526667 44.5762586,81.662 44.6652069,82.616 C45.4976034,91.6033333 52.1249138,91.708 52.1919569,91.708 C52.756181,91.708 53.2580086,91.35 53.4451983,90.816 C53.6310603,90.2813333 53.4611293,89.6873333 53.0210345,89.3333333 C51.4319138,88.0566667 51.8620517,85.6686667 54.3001638,82.2346667 C54.4236293,82.0613333 54.8750086,81.7306667 55.1743793,81.512 C55.6191207,81.1866667 56.0791293,80.85 56.4096983,80.4533333 C58.4435603,78.0186667 59.7127328,75.4986667 59.7658362,75.3926667 C60.0174138,74.8906667 59.9278017,74.284 59.5421379,73.8766667 C59.4923534,73.824 58.3300517,72.6026667 56.5490948,71.4046667 L54.7376034,69.268 C54.6991034,69.2233333 54.6586121,69.1806667 54.6141379,69.1413333 C52.8789828,67.574 49.7219828,65.6986667 49.5885603,65.62 C49.3721638,65.492 49.1252328,65.4293333 48.8703362,65.436 C46.9154655,65.502 45.2652759,66.2966667 44.2417069,66.9373333 C43.4278966,65.9806667 42.0511897,64.4433333 40.3220086,62.8233333 C40.0186552,62.5386667 39.8732845,62.2266667 39.865319,61.8413333 C39.8507155,61.1093333 40.3386034,60.1653333 41.1723276,59.316 C41.4763448,59.0053333 42.926069,59.4906667 43.4717069,59.674 C44.3319828,59.962 44.9519655,60.17 45.5971724,59.8913333 C46.7369052,59.4006667 48.328681,56.824 50.330681,52.232 L54.7435776,49.334 C55.0794569,49.1133333 55.2978448,48.752 55.3383362,48.3513333 C55.3788276,47.9506667 55.2361121,47.5526667 54.9500172,47.2693333 C54.7900431,47.11 50.9825259,43.3593333 47.7903448,42.448 C47.31175,42.3113333 46.7959828,42.4546667 46.4561207,42.8213333 L43.7100086,45.778 L42.5994828,44.9506667 L48.3910776,40.8786667 C48.7063793,40.6573333 48.9095,40.3093333 48.9499914,39.9246667 C48.9904828,39.54 48.8617069,39.1573333 48.5988448,38.8753333 L45.4292328,35.4726667 C46.6313621,33.1253333 49.9045259,30.5 51.1803362,29.6126667 C51.2075517,29.594 51.2281293,29.57 51.2533534,29.55 C51.408681,29.4973333 51.5646724,29.448 51.7206638,29.3973333 C49.7087069,31.3113333 48.4136466,33.1613333 48.3034569,33.3206667 C48.0598448,33.674 48.0001034,34.1233333 48.1441466,34.528 C48.2875259,34.9326667 48.6167672,35.2433333 49.0276552,35.362 C49.9616121,35.632 50.6818276,36.0606667 50.9075172,36.4806667 C50.9772155,36.6113333 51.042931,36.81 50.9247759,37.1886667 C50.7774138,37.662 50.9041983,38.1786667 51.2533534,38.5293333 L53.62575,40.912 C53.8746724,41.162 54.2125431,41.302 54.5643534,41.302 L54.5756379,41.302 C54.9307672,41.2993333 55.2712931,41.1526667 55.5188879,40.8966667 C56.6340603,39.7413333 60.0758276,36.7046667 62.580319,36.534 C66.1123621,36.292 69.2487845,31.036 70.5139741,28.6086667 C73.4811293,29.306 76.4044741,30.3966667 79.2109914,31.9193333 C80.3938707,32.5613333 81.5249741,33.27 82.6135948,34.03 C80.1987155,34.5853333 78.5850345,36.0593333 78.4994052,36.1406667 L74.8379224,39.4426667 C74.3447241,39.8873333 74.2537845,40.6293333 74.6248448,41.1813333 L75.4207328,42.3646667 C75.6802759,42.7506667 76.1216983,42.9666667 76.5850259,42.95 L77.5156638,42.9046667 L76.1774569,43.896 C75.2733707,44.2693333 73.392181,44.0753333 72.3048879,43.8073333 C71.948431,43.7193333 71.570069,43.7826667 71.2614052,43.984 L67.8946466,46.184 C67.6629828,46.3353333 67.4850862,46.5546667 67.3835259,46.8126667 C66.911569,48.0146667 65.9769483,50.954 67.4757931,52.2966667 C68.3579741,53.088 69.6517069,53.0373333 71.3211466,52.144 C72.4037931,51.5646667 73.0476724,51.32 73.4014741,51.216 C73.4904224,51.298 73.591319,51.3686667 73.7035,51.4253333 L78.0599741,53.6253333 C78.1475948,53.6693333 78.2398621,53.704 78.3341207,53.728 C78.7562931,53.834 79.5833793,54.014 80.5193276,54.0746667 L80.3666552,54.3106667 C79.44,54.2153333 77.8834052,54.1033333 76.2896379,54.1993333 C75.6577069,54.238 73.7340345,54.354 73.321819,53.994 C72.9653621,53.6826667 72.4701724,53.5846667 72.0241034,53.738 C71.8156724,53.8086667 66.9016121,55.5213333 65.3934741,59.1 C65.3543103,59.1933333 65.3257672,59.29 65.3085086,59.39 C65.2627069,59.654 64.2278534,65.882 68.3068621,68.742 C68.6526983,68.984 69.0921293,69.0466667 69.4897414,68.912 C71.8687759,68.1093333 74.5226207,67.6193333 75.4837931,67.78 C75.3682931,69.1873333 75.6278362,71.24 75.901319,73.4046667 C76.1243534,75.1666667 76.4589052,77.814 76.2518017,78.4913333 C75.9769914,78.924 75.9404828,79.448 76.1562155,79.908 C76.4350086,80.5006667 77.0284397,80.8326667 77.9212414,80.894 C78.0128448,80.9006667 78.11175,80.904 78.2172931,80.904 C79.783181,80.904 82.7881724,80.158 84.69525,77.2213333 C85.1459655,76.5286667 85.5681379,75.8846667 85.9650862,75.2806667 C87.0968534,73.5573333 87.9909828,72.196 88.7477069,70.8826667 C88.9275948,70.5693333 88.9740603,70.1966667 88.8744914,69.8486667 C88.8632069,69.808 87.7699397,65.7793333 91.1685603,61.7253333 C94.0401293,58.3006667 94.7245,53.7346667 94.7523793,53.542 C94.8194224,53.0766667 94.6375431,52.6113333 94.2744483,52.316 C94.8891207,52.2766667 95.4281207,52.134 95.86025,51.864 C95.9737586,52.2073333 96.09125,52.5493333 96.1948017,52.8973333 C98.8811724,61.9393333 97.90075,71.4906667 93.43475,79.7926667 C84.214,96.93 62.8292414,103.337333 45.7671034,94.078 C39.6841034,90.7773333 34.7501293,85.812 31.4988707,79.718 C31.1530345,79.0686667 30.3498448,78.824 29.7019828,79.1726667 C29.0554483,79.52 28.8125,80.3286667 29.159,80.978 C32.6571897,87.5333333 37.9635517,92.8746667 44.504569,96.4246667 C50.2072155,99.5193333 56.3572586,100.986667 62.4256552,100.986667 C75.8847241,100.986667 88.9362241,93.7646667 95.7706379,81.0606667 C100.574509,72.1293333 101.628612,61.8566667 98.7391207,52.132 Z M43.2865086,70.3053333 C43.3064224,70.162 43.3183707,70.0226667 43.3230172,69.8873333 C43.4929483,69.99 43.6861121,70.0546667 43.888569,70.0726667 C44.2549828,70.106 44.61675,69.9853333 44.8902328,69.7406667 C44.9068276,69.7266667 46.5085603,68.3433333 48.5875603,68.126 C49.4159741,68.6333333 51.5354655,69.9666667 52.7760948,71.066 L54.6499828,73.2753333 C54.7316293,73.3726667 54.8278793,73.4566667 54.9334224,73.526 C55.7625,74.072 56.4508534,74.636 56.9228103,75.0546667 C56.4143448,75.9353333 55.5235345,77.366 54.3765,78.7386667 C54.2536983,78.8853333 53.8979052,79.146 53.6118103,79.3553333 C53.0714828,79.7513333 52.5112414,80.1606667 52.1381897,80.686 C49.9967931,83.7026667 49.31375,86.0013333 49.4173017,87.7433333 C48.4621034,86.8006667 47.5693017,85.174 47.3090948,82.368 C47.2307672,81.5193333 47.2201466,80.7986667 47.2115172,80.1633333 C47.1949224,78.976 47.1816466,78.0373333 46.7169914,77.1733333 C46.3180517,76.434 45.7724138,75.7566667 45.2446983,75.1026667 C44.0923534,73.6746667 43.0043966,72.3253333 43.2865086,70.3053333 Z M42.9035,36.6626667 L45.6150948,39.5733333 L39.5679397,43.8246667 C39.2187845,44.0706667 39.0076983,44.47 39.0017241,44.8986667 C38.99575,45.3273333 39.1955517,45.7326667 39.5387328,45.988 L43.0820603,48.6273333 C43.6243793,49.0306667 44.3830948,48.9613333 44.8437672,48.466 L47.7989741,45.2833333 C49.1663879,45.8906667 50.7276293,47.08 51.8540862,48.044 L48.5457414,50.2166667 C48.3280172,50.3593333 48.1574224,50.5633333 48.0538707,50.8033333 C46.9566207,53.352 45.4385259,56.332 44.6758276,57.2626667 C44.5550172,57.224 44.4235862,57.18 44.3114052,57.1426667 C42.9778448,56.696 40.7455086,55.9493333 39.2818448,57.4433333 C37.9157586,58.8346667 37.1809397,60.4153333 37.2114741,61.8953333 C37.2287328,62.74 37.4955776,63.52 37.9887759,64.1873333 C37.4026466,63.786 36.823819,63.3546667 36.2761897,62.862 C35.7896293,62.4233333 35.1776121,61.1973333 34.7315431,60.302 C34.4374828,59.712 34.18325,59.2026667 33.9303448,58.8073333 C33.2154397,57.6926667 33.2300431,57.5766667 34.4627069,54.6766667 L34.4660259,54.6686667 C34.5251034,54.5906667 34.6140517,54.4806667 34.7215862,54.3453333 C35.5241121,53.3346667 37.0176466,51.4546667 37.3156897,49.8706667 C37.3276379,49.8113333 37.3342759,49.7506667 37.336931,49.69 C37.5506724,45.4453333 36.5808707,44.678 36.26225,44.4253333 C35.8214914,44.0766667 35.2592586,43.968 34.7195948,44.128 C34.3186638,44.2466667 33.2645603,44.6846667 32.0757069,45.276 C35.0222845,40.1713333 39.0681034,36.0733333 43.753819,33.1206667 C43.2639397,33.84 42.8583621,34.586 42.6127586,35.3366667 C42.4600862,35.798 42.5716034,36.3066667 42.9035,36.6626667 Z M62.3997672,33.872 C59.3961034,34.0766667 56.1786983,36.6473333 54.5836034,38.1013333 L53.629069,37.1426667 C53.6914655,36.4613333 53.5620259,35.806 53.2453966,35.2153333 C52.8431379,34.4646667 52.1966034,33.916 51.5009483,33.5173333 C53.2062328,31.468 56.2006034,28.554 59.2354655,27.838 C62.0599052,27.57 64.9281552,27.6433333 67.7771552,28.076 C66.2544138,30.7886667 64.0074741,33.762 62.3997672,33.872 Z M94.3726897,49.632 C93.6843362,49.7966667 91.4546552,49.334 89.5190345,48.616 C88.9070172,48.388 88.2206552,48.6413333 87.9007069,49.2133333 C87.5814224,49.7846667 87.7214828,50.5053333 88.233931,50.912 L91.9797155,53.8893333 C91.6869828,55.1773333 90.897069,57.9073333 89.1380172,60.0053333 C85.6298707,64.19 85.930569,68.44 86.193431,69.9806667 C85.5256552,71.1033333 84.7277759,72.318 83.7480172,73.8093333 C83.3484138,74.4166667 82.92425,75.064 82.4708793,75.7613333 C81.4572672,77.322 79.9590862,77.956 78.955431,78.16 C79.013181,76.9786667 78.8213448,75.3393333 78.5339224,73.0666667 C78.2856638,71.1066667 78.0048793,68.8846667 78.1462672,67.822 C78.2557931,66.9973333 77.9836379,66.268 77.38025,65.7686667 C75.7871466,64.4493333 71.9192241,65.3406667 69.3450345,66.1526667 C67.4598621,64.292 67.8023793,60.7573333 67.9012845,59.9953333 C68.7097845,58.3 70.9952241,57.0406667 72.3121897,56.4806667 C73.2886293,56.9366667 74.5949741,56.9706667 76.4482845,56.8593333 C78.6208793,56.7253333 80.810069,57.0473333 80.8319741,57.0506667 C81.342431,57.1266667 81.8575345,56.896 82.1403103,56.4586667 L84.5127069,52.7926667 C84.8937241,52.204 84.7556552,51.418 84.1954138,50.9973333 C83.6351724,50.576 82.8479138,50.6626667 82.3932155,51.1966667 C82.1144224,51.4733333 80.5704397,51.5086667 79.1134138,51.172 L75.3769224,49.2853333 C75.2766897,49.1253333 75.1426034,48.974 74.9686897,48.8426667 C74.0360603,48.1393333 72.6626724,48.404 70.0712241,49.7893333 C69.7267155,49.9733333 69.4777931,50.0726667 69.3078621,50.126 C69.3145,49.6686667 69.4738103,48.8926667 69.7134397,48.1746667 L72.2451466,46.5206667 C73.372931,46.7366667 75.8024138,47.0586667 77.441319,46.2453333 C77.5110172,46.2106667 77.5787241,46.1693333 77.6417845,46.1226667 L81.4081466,43.332 C81.8084138,43.0353333 82.0095431,42.5393333 81.9305517,42.0466667 C81.8508966,41.5533333 81.5037328,41.146 81.0317759,40.9913333 L78.7928017,40.258 C78.6394655,40.2073333 78.4768362,40.1873333 78.3168621,40.194 L77.9550948,40.2113333 L80.2883276,38.1066667 C80.3128879,38.084 82.7636121,35.838 85.7871897,36.6706667 C85.8555603,36.6893333 85.923931,36.698 85.9916379,36.7053333 C89.8276983,40.1513333 92.8532672,44.4013333 94.8738534,49.2153333 C94.6786983,49.3093333 94.5047845,49.4493333 94.3726897,49.632 Z"/>
    <path fill="#FFFFFF" d="M88.1436552,83.292 L88.1449828,83.292 C88.9853448,83.292 89.8661983,82.83 90.7643103,81.918 C92.5758017,80.0793333 94.4311034,76.4273333 94.4012328,73.4966667 C94.3959224,73.0226667 94.1410259,72.5873333 93.7314655,72.352 C93.3212414,72.1173333 92.8180862,72.1186667 92.4105172,72.3553333 L87.6657241,75.1046667 C87.39025,75.264 87.181819,75.5173333 87.0762759,75.818 C85.1240603,81.402 86.3414569,82.436 86.7410603,82.776 C87.136681,83.114 87.6219138,83.292 88.1436552,83.292 Z M89.4254397,77.164 L91.2342759,76.116 C90.5884052,77.8793333 89.4679224,79.524 88.6819914,80.2493333 C88.7828879,79.4686667 89.0630086,78.2893333 89.4254397,77.164 Z"/>
  </g>
</svg>
