<?xml version="1.0" ?><!DOCTYPE svg  PUBLIC '-//W3C//DTD SVG 1.1//EN'  'http://www.w3.org/Graphics/SVG/1.1/DTD/svg11.dtd'><svg enable-background="new 0 0 128 128" id="Layer_1" version="1.1" viewBox="0 0 128 128" xml:space="preserve" xmlns="http://www.w3.org/2000/svg" xmlns:xlink="http://www.w3.org/1999/xlink"><path d="M97,112H31c-2.21,0-4-1.79-4-4V20c0-2.21,1.79-4,4-4h55.28c1.1,0,2.15,0.45,2.9,1.25L99.9,28.54  c0.71,0.74,1.1,1.73,1.1,2.75V108C101,110.21,99.21,112,97,112z" fill="#FFFFFF"/><polygon fill="#D8E3EA" points="101,29.7 88,16 86,16 86,32 101,32 "/><path d="  M101,77v31c0,2.21-1.79,4-4,4H31c-2.21,0-4-1.79-4-4V20c0-2.21,1.79-4.17,4-4.17" fill="none" stroke="#4A7DA7" stroke-linecap="round" stroke-linejoin="round" stroke-miterlimit="10" stroke-width="4"/><path d="  M38,16h48.28c1.1,0,2.15,0.45,2.9,1.25L99.9,28.54c0.71,0.74,1.1,1.73,1.1,2.75V67" fill="none" stroke="#4A7DA7" stroke-linecap="round" stroke-linejoin="round" stroke-miterlimit="10" stroke-width="4"/><polyline fill="none" points="96,32 86,32 86,21   " stroke="#4A7DA7" stroke-linecap="round" stroke-miterlimit="10" stroke-width="2"/><line fill="none" stroke="#D8E0E9" stroke-linecap="round" stroke-linejoin="round" stroke-miterlimit="10" stroke-width="2" x1="85" x2="44" y1="85" y2="85"/><line fill="none" stroke="#D8E0E9" stroke-linecap="round" stroke-linejoin="round" stroke-miterlimit="10" stroke-width="2" x1="85" x2="44" y1="75" y2="75"/><line fill="none" stroke="#D8E0E9" stroke-linecap="round" stroke-linejoin="round" stroke-miterlimit="10" stroke-width="2" x1="85" x2="44" y1="45" y2="45"/><line fill="none" stroke="#D8E0E9" stroke-linecap="round" stroke-linejoin="round" stroke-miterlimit="10" stroke-width="2" x1="85" x2="44" y1="55" y2="55"/><line fill="none" stroke="#D8E0E9" stroke-linecap="round" stroke-linejoin="round" stroke-miterlimit="10" stroke-width="2" x1="85" x2="44" y1="65" y2="65"/><polygon fill="#FEE789" points="58.2,75.98 87,96.59 115.85,76.03 "/><polygon fill="#FFF2BC" points="116.29,76.03 87.22,96.59 57.91,75.98 57,76.23 57,117 117,117 117,76.23 "/><rect fill="none" height="41" stroke="#4A7DA7" stroke-linecap="round" stroke-linejoin="round" stroke-miterlimit="10" stroke-width="4" width="60" x="57" y="76"/><line fill="none" stroke="#4A7DA7" stroke-linecap="round" stroke-miterlimit="10" stroke-width="2" x1="116.13" x2="65.96" y1="76.23" y2="109.91"/><line fill="none" stroke="#4A7DA7" stroke-linecap="round" stroke-miterlimit="10" stroke-width="2" x1="87" x2="57.87" y1="95.32" y2="76.23"/><path d="M32,12.67c-10,0-17.36,7.79-17.36,17.4c0,9.61,7.81,17.86,17.41,17.86c9.61,0,17.41-7.93,17.41-16.93H32  V12.67z" fill="#B2DDC9"/><path d="M32,12.67  c-10,0-17.36,7.79-17.36,17.4c0,9.61,7.81,17.86,17.41,17.86c9.61,0,17.41-7.93,17.41-16.93H32V12.67z" fill="none" stroke="#4A7DA7" stroke-linecap="round" stroke-miterlimit="10" stroke-width="2"/><path d="M37,8.32V27h16.81C53.81,17,45,8.32,37,8.32z" fill="#F3B0AE"/><path d="M37,8.32V27h16.81  C53.81,17,45,8.32,37,8.32z" fill="none" stroke="#4A7DA7" stroke-linecap="round" stroke-miterlimit="10" stroke-width="2"/></svg>