<?xml version="1.0" ?><!DOCTYPE svg  PUBLIC '-//W3C//DTD SVG 1.1//EN'  'http://www.w3.org/Graphics/SVG/1.1/DTD/svg11.dtd'><svg enable-background="new 0 0 128 128" id="Layer_1" version="1.1" viewBox="0 0 128 128" xml:space="preserve" xmlns="http://www.w3.org/2000/svg" xmlns:xlink="http://www.w3.org/1999/xlink"><rect fill="#D8E3EA" height="60" width="70" x="24" y="34"/><rect fill="none" height="60" stroke="#4A7DA7" stroke-linecap="round" stroke-miterlimit="10" stroke-width="2" width="70" x="24" y="34"/><rect fill="#D8E3EA" height="21" width="90" x="14" y="19"/><rect height="21" opacity="0.1" width="90" x="14" y="19"/><rect fill="none" height="21" stroke="#4A7DA7" stroke-linecap="round" stroke-linejoin="round" stroke-miterlimit="10" stroke-width="4" width="90" x="14" y="19"/><rect fill="#D8E3EA" height="21" width="90" x="14" y="53"/><rect height="21" opacity="0.1" width="90" x="14" y="53"/><rect fill="none" height="21" stroke="#4A7DA7" stroke-linecap="round" stroke-linejoin="round" stroke-miterlimit="10" stroke-width="4" width="90" x="14" y="53"/><rect fill="#D8E3EA" height="21" width="90" x="14" y="86"/><rect height="21" opacity="0.1" width="90" x="14" y="86"/><rect fill="none" height="21" stroke="#4A7DA7" stroke-linecap="round" stroke-linejoin="round" stroke-miterlimit="10" stroke-width="4" width="90" x="14" y="86"/><circle cx="84.71" cy="29" fill="#FFF2BC" r="6.13"/><path d="M84.71,22.87  c3.38,0,6.13,2.74,6.13,6.13s-2.74,6.13-6.13,6.13c-3.38,0-6.13-2.74-6.13-6.13" fill="none" stroke="#4A7DA7" stroke-linecap="round" stroke-miterlimit="10" stroke-width="2"/><line fill="none" stroke="#4A7DA7" stroke-linecap="round" stroke-miterlimit="10" stroke-width="2" x1="74" x2="68" y1="32" y2="32"/><line fill="none" stroke="#4A7DA7" stroke-linecap="round" stroke-miterlimit="10" stroke-width="2" x1="74" x2="68" y1="26" y2="26"/><line fill="none" stroke="#4A7DA7" stroke-linecap="round" stroke-miterlimit="10" stroke-width="2" x1="63" x2="57" y1="32" y2="32"/><line fill="none" stroke="#4A7DA7" stroke-linecap="round" stroke-miterlimit="10" stroke-width="2" x1="63" x2="57" y1="26" y2="26"/><rect fill="#4A7DA7" height="8.93" width="4.96" x="24" y="25.04"/><rect fill="#4A7DA7" height="8.93" width="4.96" x="33" y="25.04"/><rect fill="#4A7DA7" height="8.93" width="4.96" x="42" y="25.04"/><circle cx="84.71" cy="63" fill="#FFFFFF" r="6.13"/><path d="M84.71,56.87  c3.38,0,6.13,2.74,6.13,6.13c0,3.38-2.74,6.13-6.13,6.13c-3.38,0-6.13-2.74-6.13-6.13" fill="none" stroke="#4A7DA7" stroke-linecap="round" stroke-miterlimit="10" stroke-width="2"/><line fill="none" stroke="#4A7DA7" stroke-linecap="round" stroke-miterlimit="10" stroke-width="2" x1="74" x2="68" y1="66" y2="66"/><line fill="none" stroke="#4A7DA7" stroke-linecap="round" stroke-miterlimit="10" stroke-width="2" x1="74" x2="68" y1="60" y2="60"/><line fill="none" stroke="#4A7DA7" stroke-linecap="round" stroke-miterlimit="10" stroke-width="2" x1="63" x2="57" y1="66" y2="66"/><line fill="none" stroke="#4A7DA7" stroke-linecap="round" stroke-miterlimit="10" stroke-width="2" x1="63" x2="57" y1="60" y2="60"/><rect fill="#4A7DA7" height="8.93" width="4.96" x="24" y="59.04"/><rect fill="#4A7DA7" height="8.93" width="4.96" x="33" y="59.04"/><rect fill="#4A7DA7" height="8.93" width="4.96" x="42" y="59.04"/><circle cx="84.71" cy="96" fill="#D8E7C9" r="6.13"/><path d="M84.71,89.87  c3.38,0,6.13,2.74,6.13,6.13s-2.74,6.13-6.13,6.13c-3.38,0-6.13-2.74-6.13-6.13" fill="none" stroke="#4A7DA7" stroke-linecap="round" stroke-miterlimit="10" stroke-width="2"/><line fill="none" stroke="#4A7DA7" stroke-linecap="round" stroke-miterlimit="10" stroke-width="2" x1="74" x2="68" y1="99" y2="99"/><line fill="none" stroke="#4A7DA7" stroke-linecap="round" stroke-miterlimit="10" stroke-width="2" x1="74" x2="68" y1="93" y2="93"/><line fill="none" stroke="#4A7DA7" stroke-linecap="round" stroke-miterlimit="10" stroke-width="2" x1="63" x2="57" y1="99" y2="99"/><line fill="none" stroke="#4A7DA7" stroke-linecap="round" stroke-miterlimit="10" stroke-width="2" x1="63" x2="57" y1="93" y2="93"/><rect fill="#4A7DA7" height="8.93" width="4.96" x="24" y="92.04"/><rect fill="#4A7DA7" height="8.93" width="4.96" x="33" y="92.04"/><rect fill="#4A7DA7" height="8.93" width="4.96" x="42" y="92.04"/><path d="M107.6,85.64c0-0.03,0-0.05,0-0.08c0-10.79-8.75-19.54-19.54-19.54c-9.03,0-16.62,6.12-18.86,14.44  c-8.13,0.61-14.55,7.45-14.55,15.74c0,8.69,7.04,15.79,15.73,15.79h35.79c7.27,0,13.16-5.95,13.16-13.22  C119.34,91.99,114.2,86.35,107.6,85.64z" fill="#B0D6EC"/><path d="M107.6,85.64  c0-0.03,0-0.05,0-0.08c0-10.79-8.75-19.54-19.54-19.54c-9.03,0-16.62,6.12-18.86,14.44c-8.13,0.61-14.55,7.45-14.55,15.74  c0,8.69,7.04,15.79,15.73,15.79h35.79c7.27,0,13.16-5.95,13.16-13.22C119.34,91.99,114.2,86.35,107.6,85.64z" fill="none" stroke="#4A7DA7" stroke-linecap="round" stroke-miterlimit="10" stroke-width="4"/><path d="M107.08,90.45  c4.23,0.45,7.42,4.01,7.42,8.27" fill="none" stroke="#4A7DA7" stroke-linecap="round" stroke-miterlimit="10" stroke-width="2"/><path d="M73.88,81.73  c1.72-6.39,7.56-10.86,14.18-10.86" fill="none" stroke="#4A7DA7" stroke-linecap="round" stroke-miterlimit="10" stroke-width="2"/></svg>