<?xml version="1.0" ?><!DOCTYPE svg  PUBLIC '-//W3C//DTD SVG 1.1//EN'  'http://www.w3.org/Graphics/SVG/1.1/DTD/svg11.dtd'><svg enable-background="new 0 0 128 128" id="Layer_1" version="1.1" viewBox="0 0 128 128" xml:space="preserve" xmlns="http://www.w3.org/2000/svg" xmlns:xlink="http://www.w3.org/1999/xlink"><polygon fill="#FFFFFF" points="106.89,89.37 64.16,114.04 21.44,89.37 21.44,40.03 64.16,15.36 106.89,40.03 "/><g><g><line fill="none" stroke="#4A7DA7" stroke-linecap="round" stroke-miterlimit="10" stroke-width="2" x1="64.16" x2="64.19" y1="27.74" y2="30.74"/><line fill="none" stroke="#4A7DA7" stroke-dasharray="3.3878,2.8231" stroke-linecap="round" stroke-miterlimit="10" stroke-width="2" x1="64.21" x2="64.25" y1="33.57" y2="38.37"/><line fill="none" stroke="#4A7DA7" stroke-linecap="round" stroke-miterlimit="10" stroke-width="2" x1="64.27" x2="64.29" y1="39.78" y2="42.78"/></g></g><g><g><line fill="none" stroke="#4A7DA7" stroke-linecap="round" stroke-miterlimit="10" stroke-width="2" x1="32.04" x2="34.65" y1="46.59" y2="48.07"/><line fill="none" stroke="#4A7DA7" stroke-dasharray="5.7879,4.8233" stroke-linecap="round" stroke-miterlimit="10" stroke-width="2" x1="38.84" x2="92.1" y1="50.46" y2="80.71"/><line fill="none" stroke="#4A7DA7" stroke-linecap="round" stroke-miterlimit="10" stroke-width="2" x1="94.2" x2="96.81" y1="81.9" y2="83.39"/></g></g><g><g><line fill="none" stroke="#4A7DA7" stroke-linecap="round" stroke-miterlimit="10" stroke-width="2" x1="32.3" x2="34.89" y1="83.84" y2="82.32"/><line fill="none" stroke="#4A7DA7" stroke-dasharray="5.7879,4.8233" stroke-linecap="round" stroke-miterlimit="10" stroke-width="2" x1="39.05" x2="91.88" y1="79.88" y2="48.88"/><line fill="none" stroke="#4A7DA7" stroke-linecap="round" stroke-miterlimit="10" stroke-width="2" x1="93.96" x2="96.55" y1="47.66" y2="46.14"/></g></g><polygon fill="none" points="  106.89,89.37 64.16,114.04 21.44,89.37 21.44,40.03 64.16,15.36 106.89,40.03 " stroke="#4A7DA7" stroke-linecap="round" stroke-linejoin="round" stroke-miterlimit="10" stroke-width="4"/><circle cx="64.16" cy="15.74" fill="#FFFFFF" r="10"/><circle cx="64.16" cy="15.74" fill="#B2DDC9" r="5.08"/><circle cx="64.16" cy="15.74" fill="none" r="10" stroke="#4A7DA7" stroke-linecap="round" stroke-linejoin="round" stroke-miterlimit="10" stroke-width="4"/><circle cx="106.61" cy="40.7" fill="#FFFFFF" r="10"/><circle cx="106.61" cy="40.7" fill="#B2DDC9" r="5.08"/><circle cx="106.61" cy="40.7" fill="none" r="10" stroke="#4A7DA7" stroke-linecap="round" stroke-linejoin="round" stroke-miterlimit="10" stroke-width="4"/><circle cx="106.61" cy="89.63" fill="#FFFFFF" r="10"/><circle cx="106.61" cy="89.63" fill="#B2DDC9" r="5.08"/><circle cx="106.61" cy="89.63" fill="none" r="10" stroke="#4A7DA7" stroke-linecap="round" stroke-linejoin="round" stroke-miterlimit="10" stroke-width="4"/><circle cx="21.39" cy="40.7" fill="#FFFFFF" r="10"/><circle cx="21.39" cy="40.7" fill="#B2DDC9" r="5.08"/><circle cx="21.39" cy="40.7" fill="none" r="10" stroke="#4A7DA7" stroke-linecap="round" stroke-linejoin="round" stroke-miterlimit="10" stroke-width="4"/><circle cx="21.39" cy="89.63" fill="#FFFFFF" r="10"/><circle cx="21.39" cy="89.63" fill="#B2DDC9" r="5.08"/><circle cx="21.39" cy="89.63" fill="none" r="10" stroke="#4A7DA7" stroke-linecap="round" stroke-linejoin="round" stroke-miterlimit="10" stroke-width="4"/><path d="M63.53,32.8c-2.36,0-6.18,0.54-6.82,5.5c-0.49,3.84,1.29,8.77,2.57,10.43c1.46,1.84,2.75,2.77,4.57,2.77  c1.66,0,2.8-0.81,4.34-3.03c1.4-2.05,2.93-7.3,2.17-10.82C69.46,33.46,65.47,32.8,63.53,32.8L63.53,32.8z" fill="#B0D6EC"/><path d="M68.88,59.11L64,65.68l-4.88-6.51c0,0-6.42,2.28-8.26,2.99c-1.84,0.7,0.78,24.33,0.78,28.58  c0,0,0.48,1.41,4.55,2.28v25.3c0,2.58,1.81,4.7,4.03,4.7h7.57c2.22,0,4.03-2.11,4.03-4.7v-25.3c4.08-0.87,4.55-2.28,4.55-2.28  c0-4.24,2.62-27.87,0.78-28.58C75.3,61.45,68.88,59.11,68.88,59.11L68.88,59.11z" fill="#B0D6EC"/><path d="M63.53,32.8  c-2.36,0-6.18,0.54-6.82,5.5c-0.49,3.84,1.29,8.77,2.57,10.43c1.46,1.84,2.75,2.77,4.57,2.77c1.66,0,2.8-0.81,4.34-3.03  c1.4-2.05,2.93-7.3,2.17-10.82C69.46,33.46,65.47,32.8,63.53,32.8L63.53,32.8z" fill="none" stroke="#4A7DA7" stroke-linecap="round" stroke-miterlimit="10" stroke-width="4"/><path d="M68.88,59.11L64,65.68  l-4.88-6.51c0,0-6.42,2.28-8.26,2.99c-1.84,0.7,0.78,24.33,0.78,28.58c0,0,0.48,1.41,4.55,2.28v25.3c0,2.58,1.81,4.7,4.03,4.7h7.57  c2.22,0,4.03-2.11,4.03-4.7v-25.3c4.08-0.87,4.55-2.28,4.55-2.28c0-4.24,2.62-27.87,0.78-28.58C75.3,61.45,68.88,59.11,68.88,59.11  L68.88,59.11z" fill="none" stroke="#4A7DA7" stroke-linecap="round" stroke-miterlimit="10" stroke-width="4"/></svg>