<?xml version="1.0" ?><!DOCTYPE svg  PUBLIC '-//W3C//DTD SVG 1.1//EN'  'http://www.w3.org/Graphics/SVG/1.1/DTD/svg11.dtd'><svg enable-background="new 0 0 128 128" id="Layer_1" version="1.1" viewBox="0 0 128 128" xml:space="preserve" xmlns="http://www.w3.org/2000/svg" xmlns:xlink="http://www.w3.org/1999/xlink"><rect fill="#FFFFFF" height="72" width="90" x="18" y="28"/><polygon fill="none" points="108,100 18,100   13,63.66 18,28 108,28 115.67,64.27 " stroke="#D8E3EA" stroke-linecap="round" stroke-miterlimit="10" stroke-width="2"/><line fill="none" stroke="#4A7DA7" stroke-linecap="round" stroke-miterlimit="10" stroke-width="2" x1="33" x2="47" y1="42" y2="42"/><line fill="none" stroke="#D8E3EA" stroke-linecap="round" stroke-miterlimit="10" stroke-width="2" x1="33" x2="47" y1="55" y2="55"/><line fill="none" stroke="#D8E3EA" stroke-linecap="round" stroke-miterlimit="10" stroke-width="2" x1="37" x2="47" y1="46" y2="46"/><line fill="none" stroke="#B2DDC9" stroke-linecap="round" stroke-miterlimit="10" stroke-width="2" x1="75" x2="84" y1="46" y2="46"/><line fill="none" stroke="#F3B0AE" stroke-linecap="round" stroke-miterlimit="10" stroke-width="2" x1="50" x2="70" y1="46" y2="46"/><line fill="none" stroke="#D8E3EA" stroke-linecap="round" stroke-miterlimit="10" stroke-width="2" x1="37" x2="47" y1="50" y2="50"/><line fill="none" stroke="#D8E3EA" stroke-linecap="round" stroke-miterlimit="10" stroke-width="2" x1="88" x2="98" y1="46" y2="46"/><line fill="none" stroke="#D8E3EA" stroke-linecap="round" stroke-miterlimit="10" stroke-width="2" x1="48" x2="69" y1="50" y2="50"/><line fill="none" stroke="#4A7DA7" stroke-linecap="round" stroke-miterlimit="10" stroke-width="2" x1="33" x2="41" y1="81" y2="81"/><line fill="none" stroke="#D8E3EA" stroke-linecap="round" stroke-miterlimit="10" stroke-width="2" x1="37" x2="47" y1="85" y2="85"/><line fill="none" stroke="#B2DDC9" stroke-linecap="round" stroke-miterlimit="10" stroke-width="2" x1="75" x2="88" y1="85" y2="85"/><line fill="none" stroke="#F3B0AE" stroke-linecap="round" stroke-miterlimit="10" stroke-width="2" x1="50" x2="70" y1="85" y2="85"/><line fill="none" stroke="#4A7DA7" stroke-linecap="round" stroke-miterlimit="10" stroke-width="2" x1="33" x2="48" y1="61" y2="61"/><line fill="none" stroke="#D8E3EA" stroke-linecap="round" stroke-miterlimit="10" stroke-width="2" x1="33" x2="47" y1="75" y2="75"/><line fill="none" stroke="#D8E3EA" stroke-linecap="round" stroke-miterlimit="10" stroke-width="2" x1="37" x2="47" y1="66" y2="66"/><line fill="none" stroke="#D8E3EA" stroke-linecap="round" stroke-miterlimit="10" stroke-width="2" x1="80" x2="93" y1="66" y2="66"/><line fill="none" stroke="#F3B0AE" stroke-linecap="round" stroke-miterlimit="10" stroke-width="2" x1="50" x2="63" y1="66" y2="66"/><line fill="none" stroke="#D8E7C9" stroke-linecap="round" stroke-miterlimit="10" stroke-width="2" x1="67" x2="76" y1="66" y2="66"/><line fill="none" stroke="#B2DDC9" stroke-linecap="round" stroke-miterlimit="10" stroke-width="2" x1="37" x2="47" y1="70" y2="70"/><line fill="none" stroke="#D8E3EA" stroke-linecap="round" stroke-miterlimit="10" stroke-width="2" x1="52" x2="72" y1="70" y2="70"/><path d="M12.18,38.37c0-5.44,1.43-9.23,4.28-11.38c2.7-2.07,7.27-3.11,13.73-3.11v7.68c-3.4,0-5.71,0.47-6.92,1.41  s-1.82,2.85-1.82,5.75v15.72c0,1.88-0.49,3.7-1.47,5.46c-1.06,1.92-2.41,3.21-4.05,3.87c1.53,0.59,2.83,1.82,3.93,3.7  c1.06,1.72,1.58,3.6,1.58,5.63v15.78c0,2.93,0.61,4.85,1.82,5.75c1.21,0.9,3.52,1.35,6.92,1.35v7.68c-6.45,0-11.03-1.04-13.73-3.11  c-2.85-2.15-4.28-5.94-4.28-11.38V77.84c0-4.07-0.18-6.59-0.53-7.57c-0.82-2.23-2.58-3.44-5.28-3.64v-5.69  c2.7-0.23,4.46-1.47,5.28-3.7c0.35-0.94,0.53-3.44,0.53-7.51V38.37z" fill="#4A7DA7"/><path d="M117.17,59.37c0.7,1.21,2.19,1.92,4.46,2.11v5.69c-1.68,0.16-2.86,0.5-3.52,1.03  c-0.67,0.53-1.23,1.4-1.7,2.61c-0.23,0.63-0.39,1.56-0.47,2.82c-0.04,0.59-0.06,2.17-0.06,4.75v11.32c0,5.44-1.45,9.23-4.34,11.38  c-2.62,2.03-7.2,3.05-13.73,3.05V96.5c3.44,0,5.76-0.45,6.95-1.35c1.19-0.9,1.79-2.82,1.79-5.75V73.62c0-1.8,0.52-3.65,1.55-5.54  c1.04-1.9,2.36-3.16,3.96-3.78c-1.52-0.63-2.83-1.86-3.9-3.7c-1.08-1.84-1.61-3.71-1.61-5.63V39.19c0-2.93-0.6-4.85-1.79-5.75  c-1.19-0.9-3.51-1.35-6.95-1.35v-7.68c6.45,0,11.03,1.04,13.73,3.11c2.89,2.15,4.34,5.94,4.34,11.38v11.38  c0,2.54,0.02,4.11,0.06,4.69C116.05,56.69,116.46,58.16,117.17,59.37z" fill="#4A7DA7"/></svg>