<?xml version="1.0" ?><!DOCTYPE svg  PUBLIC '-//W3C//DTD SVG 1.1//EN'  'http://www.w3.org/Graphics/SVG/1.1/DTD/svg11.dtd'><svg enable-background="new 0 0 128 128" id="Layer_1" version="1.1" viewBox="0 0 128 128" xml:space="preserve" xmlns="http://www.w3.org/2000/svg" xmlns:xlink="http://www.w3.org/1999/xlink"><path d="M70.3,116H67v-14h-6v14h-3.3c-0.6,0-0.8,0.3-0.4,0.7l6.7,6.5l6.7-6.5C71.1,116.4,70.8,116,70.3,116z" fill="#4A7DA7"/><path d="M70.3,13H67v13h-6V13h-3.3c-0.6,0-0.8-0.9-0.4-1.3L64,4.9l6.7,6.9C71.1,12.2,70.8,13,70.3,13z" fill="#4A7DA7"/><path d="M31.4,105.5l-2.1-2.1l10-10l-4.6-4.6l-10,10l-2.1-2.1c-0.4-0.4-0.7-0.5-0.7,0l0.2,9.3l9.2,0.3  C31.9,106.3,31.8,105.9,31.4,105.5z" fill="#4A7DA7"/><path d="M104.8,32.2l-2.1-2.1l-9.3,9.3l-4.6-4.6l9.3-9.3l-2.1-2.1c-0.4-0.4-0.1-1.1,0.5-1.1l9.5,0l0,9.5  C105.9,32.3,105.2,32.6,104.8,32.2z" fill="#4A7DA7"/><path d="M22.6,31.5l2.1-2.1l10,10l4.6-4.6l-10-10l2.1-2.1c0.4-0.4,0.5-0.7,0-0.7l-9.3,0.2l-0.3,9.2  C21.8,32,22.2,31.9,22.6,31.5z" fill="#4A7DA7"/><path d="M95.9,104.9l2.1-2.1l-9.3-9.3l4.6-4.6l9.3,9.3l2.1-2.1c0.4-0.4,1.1-0.1,1.1,0.5l0,9.5l-9.5,0  C95.8,106,95.5,105.3,95.9,104.9z" fill="#4A7DA7"/><circle cx="64" cy="64.9" fill="#D8E3EA" r="38.8"/><g><circle cx="64" cy="64.9" fill="none" r="38.8" stroke="#4A7DA7" stroke-dasharray="6.0917,6.0917" stroke-linecap="round" stroke-miterlimit="10" stroke-width="2"/></g><polygon fill="#FFFFFF" points="64,87.4 43,76.1 43,51.9 64,63.2 "/><polygon fill="none" points="  64,87.4 43,76.1 43,51.9 64,63.2 " stroke="#4A7DA7" stroke-linecap="round" stroke-linejoin="round" stroke-miterlimit="10" stroke-width="4"/><polygon fill="#FFF2BC" points="43,51.9 64,40.6 85,51.9 64,63.2 "/><polygon fill="none" points="  43,51.9 64,40.6 85,51.9 64,63.2 " stroke="#4A7DA7" stroke-linecap="round" stroke-linejoin="round" stroke-miterlimit="10" stroke-width="4"/><polygon fill="#B0D6EC" points="64,87.4 85,76.1 85,51.9 64,63.2 "/><polygon fill="none" points="  64,87.4 85,76.1 85,51.9 64,63.2 " stroke="#4A7DA7" stroke-linecap="round" stroke-linejoin="round" stroke-miterlimit="10" stroke-width="4"/></svg>