<?xml version="1.0" ?><!DOCTYPE svg  PUBLIC '-//W3C//DTD SVG 1.1//EN'  'http://www.w3.org/Graphics/SVG/1.1/DTD/svg11.dtd'><svg enable-background="new 0 0 128 128" id="Layer_1" version="1.1" viewBox="0 0 128 128" xml:space="preserve" xmlns="http://www.w3.org/2000/svg" xmlns:xlink="http://www.w3.org/1999/xlink"><path d="M120,94c0,2.2-1.8,4-4,4H12c-2.2,0-4-1.8-4-4V14c0-2.2,1.8-4,4-4h104c2.2,0,4,1.8,4,4V94z" fill="#D8E3EA"/><path d="M116,98H12c-2.2,0-4-1.8-4-4V27h112v67C120,96.2,118.2,98,116,98z" fill="#FFFFFF"/><path d="M12,98h104c2.2,0,4-1.8,4-4V37l-18.2,21.9L86.3,47.8L64.5,82.2L34.6,58.9L8,85v9C8,96.2,9.8,98,12,98z" fill="#F4D9D9"/><g><g><line fill="none" stroke="#D8E3EA" stroke-linecap="round" stroke-miterlimit="10" stroke-width="2" x1="86" x2="86" y1="58" y2="52"/><line fill="none" stroke="#D8E3EA" stroke-dasharray="7,7" stroke-linecap="round" stroke-miterlimit="10" stroke-width="2" x1="86" x2="86" y1="46" y2="36"/><line fill="none" stroke="#D8E3EA" stroke-linecap="round" stroke-miterlimit="10" stroke-width="2" x1="86" x2="86" y1="33" y2="27"/></g></g><g><g><line fill="none" stroke="#D8E3EA" stroke-linecap="round" stroke-miterlimit="10" stroke-width="2" x1="101" x2="101" y1="58" y2="52"/><line fill="none" stroke="#D8E3EA" stroke-dasharray="7,7" stroke-linecap="round" stroke-miterlimit="10" stroke-width="2" x1="101" x2="101" y1="46" y2="36"/><line fill="none" stroke="#D8E3EA" stroke-linecap="round" stroke-miterlimit="10" stroke-width="2" x1="101" x2="101" y1="33" y2="27"/></g></g><path d="M116,98c2.2,0,4-1.8,4-4V37l-18.2,21.9L86,47.8L64,82.2V98H116z" fill="#D8E7C9"/><g><g><line fill="none" stroke="#D8E3EA" stroke-linecap="round" stroke-miterlimit="10" stroke-width="2" x1="35" x2="35" y1="59" y2="53"/><line fill="none" stroke="#D8E3EA" stroke-dasharray="7,7" stroke-linecap="round" stroke-miterlimit="10" stroke-width="2" x1="35" x2="35" y1="46" y2="36"/><line fill="none" stroke="#D8E3EA" stroke-linecap="round" stroke-miterlimit="10" stroke-width="2" x1="35" x2="35" y1="33" y2="27"/></g></g><g><g><line fill="none" stroke="#D8E3EA" stroke-linecap="round" stroke-miterlimit="10" stroke-width="2" x1="64" x2="64" y1="60" y2="56"/><line fill="none" stroke="#D8E3EA" stroke-dasharray="8,8" stroke-linecap="round" stroke-miterlimit="10" stroke-width="2" x1="64" x2="64" y1="48" y2="35"/><line fill="none" stroke="#D8E3EA" stroke-linecap="round" stroke-miterlimit="10" stroke-width="2" x1="64" x2="64" y1="31" y2="27"/></g></g><polyline fill="none" points="82.3,54 86.3,47.8   101.8,58.9 120,37 " stroke="#B2DDC9" stroke-linecap="round" stroke-miterlimit="10" stroke-width="4"/><polyline fill="none" points="8,85 34.6,58.9   39.3,62.5 " stroke="#F3B0AE" stroke-linecap="round" stroke-miterlimit="10" stroke-width="4"/><path d="M65,98H12c-2.2,0-4-1.8-4-4  V14c0-2.2,1.8-4,4-4h104c2.2,0,4,1.8,4,4v80c0,2.2-1.8,4-4,4H87" fill="none" stroke="#4A7DA7" stroke-linecap="round" stroke-miterlimit="10" stroke-width="4"/><line fill="none" stroke="#4A7DA7" stroke-linecap="round" stroke-miterlimit="10" stroke-width="2" x1="8" x2="112" y1="27" y2="27"/><circle cx="19.8" cy="19.7" fill="#4A7DA7" r="2.1"/><circle cx="28.3" cy="19.7" fill="#4A7DA7" r="2.1"/><circle cx="36.8" cy="19.7" fill="#4A7DA7" r="2.1"/><path d="M61.4,122.2c-1-1-1.4-2.3-1.4-3.7v-16.7c0-1.4,0.4-2.7,1.4-3.7c1-1,2.2-1.5,3.6-1.5c1.4,0,2.6,0.5,3.6,1.5  c1,1,1.4,2.3,1.4,3.7v16.7c0,1.4-0.4,2.7-1.4,3.7s-2.2,1.5-3.6,1.5C63.6,123.7,62.4,123.2,61.4,122.2z" fill="#DBC5B9"/><path d="M70,107v11.5  c0,1.4-0.4,2.7-1.4,3.7s-2.2,1.5-3.6,1.5c-1.4,0-2.6-0.5-3.6-1.5c-1-1-1.4-2.3-1.4-3.7v-16.7c0-1.4,0.4-2.7,1.4-3.7  c1-1,2.2-1.5,3.6-1.5c1.4,0,2.6,0.4,3.6,1.4" fill="none" stroke="#4A7DA7" stroke-linecap="round" stroke-miterlimit="10" stroke-width="4"/><path d="M70.2,112.7  c0,1.4-0.5,2.7-1.5,3.7c-1,1-2.3,1.5-3.7,1.5c-1.4,0-2.7-0.5-3.7-1.5c-1-1-1.5-2.3-1.5-3.7" fill="none" stroke="#4A7DA7" stroke-linecap="round" stroke-miterlimit="10" stroke-width="2"/><circle cx="65" cy="80.2" fill="#D8E3EA" r="21.3"/><polyline fill="none" points="  47.1,68.6 64.5,82.2 76.7,62.9 " stroke="#F3B0AE" stroke-linecap="round" stroke-linejoin="round" stroke-miterlimit="10" stroke-width="4"/><circle cx="65" cy="80.2" fill="none" r="21.3" stroke="#4A7DA7" stroke-miterlimit="10" stroke-width="4"/><path d="M53.3,68.5  c6.4-6.4,16.9-6.4,23.3,0" fill="none" stroke="#4A7DA7" stroke-linecap="round" stroke-miterlimit="10" stroke-width="2"/><circle cx="64.5" cy="82.2" fill="#F4D9D9" r="5.5"/><circle cx="64.5" cy="82.2" fill="none" r="5.5" stroke="#F3B0AE" stroke-linecap="round" stroke-linejoin="round" stroke-miterlimit="10" stroke-width="4"/></svg>