<?xml version="1.0" ?><!DOCTYPE svg  PUBLIC '-//W3C//DTD SVG 1.1//EN'  'http://www.w3.org/Graphics/SVG/1.1/DTD/svg11.dtd'><svg enable-background="new 0 0 128 128" id="Layer_1" version="1.1" viewBox="0 0 128 128" xml:space="preserve" xmlns="http://www.w3.org/2000/svg" xmlns:xlink="http://www.w3.org/1999/xlink"><path d="M114,110H30c-2.2,0-4-1.5-4-3.7v-21c0-2.2,1.8-4.3,4-4.3h84" fill="#FFFFFF"/><path d="M114,110H30c-2.2,0-4-1.5-4-3.7v-21c0-2.2,1.8-4.3,4-4.3h84" fill="#FFFFFF"/><path d="M114,110H30  c-2.2,0-4-1.5-4-3.7V85" fill="none" stroke="#4A7DA7" stroke-linecap="round" stroke-miterlimit="10" stroke-width="2"/><path d="M114,81H30c-2.2,0-4-1.5-4-3.7v-21c0-2.2,1.8-4.3,4-4.3h84" fill="#FFFFFF"/><path d="M114,81H30c-2.2,0-4-1.5-4-3.7v-21c0-2.2,1.8-4.3,4-4.3h84" fill="#D8E7C9"/><path d="M114,81H30  c-2.2,0-4-1.5-4-3.7V56" fill="none" stroke="#4A7DA7" stroke-linecap="round" stroke-miterlimit="10" stroke-width="2"/><path d="M116,51H17c-2.2,0-4-2-4-4.2v-25c0-2.2,1.8-3.8,4-3.8h99" fill="#FFFFFF"/><path d="M116,51H17c-2.2,0-4-2-4-4.2  v-25c0-2.2,1.8-3.8,4-3.8h99" fill="none" stroke="#4A7DA7" stroke-linecap="round" stroke-miterlimit="10" stroke-width="4"/><g><path d="M38.1,26.5h2.5l-2.5,16h-2.3l-1.4-8.8l-1.3,8.8h-2.3l-2.7-16h2.5l1.3,8.6l1.2-8.6h2.5l1.3,8.6L38.1,26.5z" fill="#4A7DA7"/><path d="M52.3,26.5h2.5l-2.5,16H50l-1.4-8.8l-1.3,8.8H45l-2.7-16h2.5l1.3,8.6l1.2-8.6h2.5l1.3,8.6L52.3,26.5z" fill="#4A7DA7"/><path d="M66.4,26.5h2.5l-2.5,16h-2.3l-1.4-8.8l-1.3,8.8h-2.3l-2.7-16H59l1.3,8.6l1.2-8.6H64l1.3,8.6L66.4,26.5z" fill="#4A7DA7"/><path d="M70.6,40.1H73v2.4h-2.4V40.1z" fill="#4A7DA7"/><path d="M74.7,40.1h2.4v2.4h-2.4V40.1z" fill="#4A7DA7"/><path d="M78.8,40.1h2.4v2.4h-2.4V40.1z" fill="#4A7DA7"/></g><g><path d="M75.5,71.5h1.9v1.9h-1.9V71.5z" fill="#4A7DA7"/><path d="M81.7,73.6c-0.8,0-1.5-0.3-2.1-0.9s-0.9-1.3-0.9-2.1v-6.8c0-0.8,0.3-1.5,0.9-2.1c0.6-0.6,1.3-0.9,2.1-0.9   c0.8,0,1.5,0.3,2.1,0.9c0.6,0.6,0.9,1.3,0.9,2.1v1.4h-1.9v-1.5c0-0.3-0.1-0.6-0.3-0.8c-0.2-0.2-0.5-0.3-0.8-0.3   c-0.3,0-0.6,0.1-0.8,0.3c-0.2,0.2-0.3,0.5-0.3,0.8v6.8c0,0.3,0.1,0.6,0.3,0.8c0.2,0.2,0.5,0.3,0.8,0.3c0.3,0,0.6-0.1,0.8-0.3   c0.2-0.2,0.3-0.5,0.3-0.8v-1.7h1.9v1.7c0,0.8-0.3,1.5-0.9,2.1C83.2,73.3,82.5,73.6,81.7,73.6z" fill="#4A7DA7"/><path d="M89.1,60.8c0.8,0,1.5,0.3,2.1,0.9c0.6,0.6,0.9,1.3,0.9,2.1v6.8c0,0.8-0.3,1.5-0.9,2.1   c-0.6,0.6-1.3,0.9-2.1,0.9c-0.8,0-1.5-0.3-2.1-0.9s-0.9-1.3-0.9-2.1v-6.8c0-0.8,0.3-1.5,0.9-2.1C87.6,61.1,88.3,60.8,89.1,60.8z    M90.2,63.7c0-0.3-0.1-0.6-0.3-0.8c-0.2-0.2-0.5-0.3-0.8-0.3c-0.3,0-0.6,0.1-0.8,0.3c-0.2,0.2-0.3,0.5-0.3,0.8v6.8   c0,0.3,0.1,0.6,0.3,0.8c0.2,0.2,0.5,0.3,0.8,0.3c0.3,0,0.6-0.1,0.8-0.3c0.2-0.2,0.3-0.5,0.3-0.8V63.7z" fill="#4A7DA7"/><path d="M95.6,73.4h-1.9V60.9h2.7l1.8,9l1.7-9h2.6v12.5h-1.9v-7.8L99,73.4h-1.5l-1.8-7.8V73.4z" fill="#4A7DA7"/></g><g><path d="M77.1,99.5H79v1.9h-1.9V99.5z" fill="#4A7DA7"/><path d="M82.4,88.9l2.5,8.4v-8.4h1.9v12.5h-2l-2.6-8v8h-1.9V88.9H82.4z" fill="#4A7DA7"/><path d="M88.4,101.4V88.9h5.3v1.9h-3.5v3.4h2.5v1.9h-2.5v3.4h3.5v1.9H88.4z" fill="#4A7DA7"/><path d="M97.1,90.8h-2v-1.9h5.9v1.9h-2v10.6h-1.9V90.8z" fill="#4A7DA7"/></g></svg>