<?xml version="1.0" ?><!DOCTYPE svg  PUBLIC '-//W3C//DTD SVG 1.1//EN'  'http://www.w3.org/Graphics/SVG/1.1/DTD/svg11.dtd'><svg enable-background="new 0 0 128 128" id="Layer_1" version="1.1" viewBox="0 0 128 128" xml:space="preserve" xmlns="http://www.w3.org/2000/svg" xmlns:xlink="http://www.w3.org/1999/xlink"><path d="M114,111c0,2.21-1.29,4-3.5,4h-91c-2.21,0-4.5-1.79-4.5-4V42c0-2.21,2.29-4,4.5-4h91c2.2,0,3.5,1.8,3.5,4  V111z" fill="#D8E3EA"/><path d="M70,38h40c2.21,0,4,1.79,4,4  v69c0,2.21-1.79,4-4,4H19c-2.21,0-4-1.79-4-4V42c0-2.21,1.79-4,4-4h37" fill="none" stroke="#4A7DA7" stroke-linecap="round" stroke-miterlimit="10" stroke-width="4"/><rect fill="#FFFFFF" height="57" width="83" x="23" y="46"/><polyline fill="#FFFFFF" points="35,93 35,36.66 42.98,15 48.65,15 57,36.66 57,93 "/><polyline fill="#FFFFFF" points="35,103 35,36.66 42.98,15 48.65,15 57,36.66 57,103 "/><polyline fill="none" points="23,102 23,46   106,46 106,93 " stroke="#4A7DA7" stroke-linecap="round" stroke-miterlimit="10" stroke-width="2"/><polyline fill="#B2DDC9" points="57,103 57,37 35,37 35,103 "/><rect fill="#DBC5B9" height="89" width="26" x="69" y="14"/><path d="M7,110c0,2.75,2.25,5,5,5h104c2.76,0,6-2.24,6-5v-7H7V110z" fill="#D8E3EA"/><path d="M7,110c0,2.75,2.25,5,5,5h104c2.76,0,6-2.24,6-5v-7  H7V110z" fill="none" stroke="#4A7DA7" stroke-miterlimit="10" stroke-width="4"/><path d="M77.5,107h-26c-2.21,0-4-1.79-4-4v0h34v0  C81.5,105.21,79.71,107,77.5,107z" fill="none" stroke="#4A7DA7" stroke-miterlimit="10" stroke-width="4"/><polyline fill="none" points="69,102 69,14   95,14 95,92 " stroke="#4A7DA7" stroke-linecap="round" stroke-miterlimit="10" stroke-width="4"/><line fill="none" stroke="#4A7DA7" stroke-linecap="round" stroke-miterlimit="10" stroke-width="2" x1="69" x2="82" y1="32" y2="32"/><line fill="none" stroke="#4A7DA7" stroke-linecap="round" stroke-miterlimit="10" stroke-width="2" x1="69" x2="76" y1="42" y2="42"/><line fill="none" stroke="#4A7DA7" stroke-linecap="round" stroke-miterlimit="10" stroke-width="2" x1="69" x2="82" y1="52" y2="52"/><line fill="none" stroke="#4A7DA7" stroke-linecap="round" stroke-miterlimit="10" stroke-width="2" x1="69" x2="76" y1="62" y2="62"/><line fill="none" stroke="#4A7DA7" stroke-linecap="round" stroke-miterlimit="10" stroke-width="2" x1="69" x2="82" y1="72" y2="72"/><line fill="none" stroke="#4A7DA7" stroke-linecap="round" stroke-miterlimit="10" stroke-width="2" x1="69" x2="76" y1="82" y2="82"/><line fill="none" stroke="#4A7DA7" stroke-linecap="round" stroke-miterlimit="10" stroke-width="2" x1="69" x2="82" y1="92" y2="92"/><polygon fill="#B2DDC9" points="51.6,23 48.65,15 42.98,15 39.9,23 "/><polyline fill="none" points="  35,103 35,36.66 42.98,15 48.65,15 57,36.66 57,103 " stroke="#4A7DA7" stroke-linecap="round" stroke-linejoin="round" stroke-miterlimit="10" stroke-width="4"/><line fill="none" stroke="#4A7DA7" stroke-linecap="round" stroke-miterlimit="10" stroke-width="2" x1="46" x2="46" y1="97" y2="37"/></svg>