<?xml version="1.0" ?><!DOCTYPE svg  PUBLIC '-//W3C//DTD SVG 1.1//EN'  'http://www.w3.org/Graphics/SVG/1.1/DTD/svg11.dtd'><svg enable-background="new 0 0 128 128" id="Layer_1" version="1.1" viewBox="0 0 128 128" xml:space="preserve" xmlns="http://www.w3.org/2000/svg" xmlns:xlink="http://www.w3.org/1999/xlink"><path d="M113,107c0,2.21-1.29,4-3.5,4h-91c-2.21,0-4.5-1.79-4.5-4V38c0-2.21,2.29-4,4.5-4h91c2.2,0,3.5,1.8,3.5,4  V107z" fill="#D8E3EA"/><path d="M113,107c0,2.21-1.79,4-4,4H18c-2.21,0-4-1.79-4-4  V38c0-2.21,1.79-4,4-4h91c2.21,0,4,1.79,4,4V107z" fill="none" stroke="#4A7DA7" stroke-miterlimit="10" stroke-width="4"/><rect fill="#FFFFFF" height="57" width="83" x="22" y="42"/><polyline fill="none" points="22,98 22,42   105,42 105,89 " stroke="#4A7DA7" stroke-linecap="round" stroke-miterlimit="10" stroke-width="2"/><path d="M6,106c0,2.75,2.25,5,5,5h104c2.76,0,6-2.24,6-5v-7H6V106z" fill="#D8E3EA"/><path d="M6,106c0,2.75,2.25,5,5,5h104c2.76,0,6-2.24,6-5v-7  H6V106z" fill="none" stroke="#4A7DA7" stroke-miterlimit="10" stroke-width="4"/><path d="M76.5,103h-26c-2.21,0-4-1.79-4-4v0h34v0  C80.5,101.21,78.71,103,76.5,103z" fill="none" stroke="#4A7DA7" stroke-miterlimit="10" stroke-width="4"/><path d="M116,56.11c0,1.6-1.3,2.89-2.89,2.89H89.89C88.3,59,87,57.7,87,56.11V18.89c0-1.6,1.3-2.89,2.89-2.89h23.21  c1.6,0,2.89,1.3,2.89,2.89V56.11z" fill="#D8E3EA"/><polyline fill="#FFFFFF" points="111,49 92,49 92,39.82 92,25 111,25 111,44 "/><polyline fill="none" points="111,49 92,49   92,25 111,25 111,44 " stroke="#4A7DA7" stroke-linecap="round" stroke-miterlimit="10" stroke-width="2"/><path d="M116,56.11c0,1.6-1.3,2.89-2.89,2.89H89.89  C88.3,59,87,57.7,87,56.11V18.89c0-1.6,1.3-2.89,2.89-2.89h23.21c1.6,0,2.89,1.3,2.89,2.89V56.11z" fill="none" stroke="#4A7DA7" stroke-miterlimit="10" stroke-width="4"/><circle cx="101.98" cy="53.55" fill="#4A7DA7" r="1.81"/><line fill="none" stroke="#4A7DA7" stroke-linecap="round" stroke-miterlimit="10" stroke-width="2" x1="95" x2="108" y1="21" y2="21"/></svg>