<?xml version="1.0" ?><!DOCTYPE svg  PUBLIC '-//W3C//DTD SVG 1.1//EN'  'http://www.w3.org/Graphics/SVG/1.1/DTD/svg11.dtd'><svg enable-background="new 0 0 128 128" id="Layer_1" version="1.1" viewBox="0 0 128 128" xml:space="preserve" xmlns="http://www.w3.org/2000/svg" xmlns:xlink="http://www.w3.org/1999/xlink"><g><circle cx="63.5" cy="36.7" fill="#FFFFFF" r="23.7"/><path d="M68,42.8L68,42.8l-5.1,4.9l-5.1-4.8c0,0-6.8,1.7-8.8,2.2c-2,0.5-2.4,5-2.4,8.1c0,0,4.8,6.6,16.9,6.6   c12.1,0,15.9-6.6,15.9-6.6c0-3.1-0.5-7.6-2.5-8.1C75,44.5,68,42.8,68,42.8L68,42.8z" fill="#F3B0AE"/><circle cx="63.5" cy="36.7" fill="none" r="23.7" stroke="#4A7DA7" stroke-miterlimit="10" stroke-width="4"/><path d="M62.7,20.5c-2.4,0-6.3,0.5-6.9,5.6c-0.5,3.9,1.3,8.9,2.6,10.6c1.5,1.9,2.8,2.8,4.6,2.8   c1.7,0,2.8-0.8,4.4-3.1c1.4-2.1,3-7.4,2.2-11C68.7,21.1,64.7,20.5,62.7,20.5L62.7,20.5z" fill="#F3B0AE"/><path d="   M79.4,53.2c0-3.1-0.5-7.6-2.5-8.1c-2-0.5-8.9-2.3-8.9-2.3l0,0v0l-5.1,4.8l-5.1-4.8c0,0-6.8,1.7-8.8,2.2c-2,0.5-2.4,5-2.4,8.1" fill="none" stroke="#4A7DA7" stroke-linecap="round" stroke-linejoin="round" stroke-miterlimit="10" stroke-width="4"/><path d="   M62.7,20.5c-2.4,0-6.3,0.5-6.9,5.6c-0.5,3.9,1.3,8.9,2.6,10.6c1.5,1.9,2.8,2.8,4.6,2.8c1.7,0,2.8-0.8,4.4-3.1c1.4-2.1,3-7.4,2.2-11   C68.7,21.1,64.7,20.5,62.7,20.5L62.7,20.5z" fill="none" stroke="#4A7DA7" stroke-linecap="round" stroke-linejoin="round" stroke-miterlimit="10" stroke-width="4"/></g><g><circle cx="97" cy="96.7" fill="#FFFFFF" r="23.7"/><path d="M102,102.8L102,102.8l-5.3,4.9l-5.3-4.8c0,0-6.9,1.7-8.8,2.2c-2,0.5-2.4,5-2.4,8.1c0,0,4.8,6.6,16.9,6.6   c12.1,0,15.9-6.6,15.9-6.6c0-3.1-0.3-7.6-2.3-8.1C108.7,104.5,102,102.8,102,102.8L102,102.8z" fill="#D8E3EA"/><circle cx="97" cy="96.7" fill="none" r="23.7" stroke="#4A7DA7" stroke-miterlimit="10" stroke-width="4"/><path d="M96.2,80.5c-2.4,0-6.3,0.5-6.9,5.6c-0.5,3.9,1.3,8.9,2.6,10.6c1.5,1.9,2.8,2.8,4.6,2.8   c1.7,0,2.8-0.8,4.4-3.1c1.4-2.1,3-7.4,2.2-11C102.2,81.1,98.2,80.5,96.2,80.5L96.2,80.5z" fill="#D8E3EA"/><path d="   M112.9,113.2c0-3.1-0.3-7.6-2.3-8.1c-2-0.5-8.7-2.3-8.7-2.3l0,0v0l-5.3,4.8l-5.3-4.8c0,0-6.9,1.7-8.8,2.2c-2,0.5-2.4,5-2.4,8.1" fill="none" stroke="#4A7DA7" stroke-linecap="round" stroke-linejoin="round" stroke-miterlimit="10" stroke-width="4"/><path d="   M96.2,80.5c-2.4,0-6.3,0.5-6.9,5.6c-0.5,3.9,1.3,8.9,2.6,10.6c1.5,1.9,2.8,2.8,4.6,2.8c1.7,0,2.8-0.8,4.4-3.1c1.4-2.1,3-7.4,2.2-11   C102.2,81.1,98.2,80.5,96.2,80.5L96.2,80.5z" fill="none" stroke="#4A7DA7" stroke-linecap="round" stroke-linejoin="round" stroke-miterlimit="10" stroke-width="4"/></g><g><circle cx="31" cy="96.7" fill="#FFFFFF" r="23.7"/><path d="M36,102.8L36,102.8l-5.3,4.9l-5.3-4.8c0,0-6.9,1.7-8.8,2.2c-2,0.5-2.4,5-2.4,8.1c0,0,4.8,6.6,16.9,6.6   c12.1,0,15.9-6.6,15.9-6.6c0-3.1-0.3-7.6-2.3-8.1C42.7,104.5,36,102.8,36,102.8L36,102.8z" fill="#B0D6EC"/><circle cx="31" cy="96.7" fill="none" r="23.7" stroke="#4A7DA7" stroke-miterlimit="10" stroke-width="4"/><path d="M30.2,80.5c-2.4,0-6.3,0.5-6.9,5.6c-0.5,3.9,1.3,8.9,2.6,10.6c1.5,1.9,2.8,2.8,4.6,2.8   c1.7,0,2.8-0.8,4.4-3.1c1.4-2.1,3-7.4,2.2-11C36.2,81.1,32.2,80.5,30.2,80.5L30.2,80.5z" fill="#B0D6EC"/><path d="   M46.9,113.2c0-3.1-0.3-7.6-2.3-8.1c-2-0.5-8.7-2.3-8.7-2.3l0,0v0l-5.3,4.8l-5.3-4.8c0,0-6.9,1.7-8.8,2.2c-2,0.5-2.4,5-2.4,8.1" fill="none" stroke="#4A7DA7" stroke-linecap="round" stroke-linejoin="round" stroke-miterlimit="10" stroke-width="4"/><path d="   M30.2,80.5c-2.4,0-6.3,0.5-6.9,5.6c-0.5,3.9,1.3,8.9,2.6,10.6c1.5,1.9,2.8,2.8,4.6,2.8c1.7,0,2.8-0.8,4.4-3.1c1.4-2.1,3-7.4,2.2-11   C36.2,81.1,32.2,80.5,30.2,80.5L30.2,80.5z" fill="none" stroke="#4A7DA7" stroke-linecap="round" stroke-linejoin="round" stroke-miterlimit="10" stroke-width="4"/></g><line fill="none" stroke="#4A7DA7" stroke-linecap="round" stroke-miterlimit="10" stroke-width="2" x1="64" x2="64" y1="75" y2="65.3"/><line fill="none" stroke="#4A7DA7" stroke-linecap="round" stroke-miterlimit="10" stroke-width="2" x1="64" x2="77.1" y1="75" y2="85.9"/><line fill="none" stroke="#4A7DA7" stroke-linecap="round" stroke-miterlimit="10" stroke-width="2" x1="64" x2="50.9" y1="75" y2="85.9"/></svg>