<?xml version="1.0" ?><!DOCTYPE svg  PUBLIC '-//W3C//DTD SVG 1.1//EN'  'http://www.w3.org/Graphics/SVG/1.1/DTD/svg11.dtd'><svg enable-background="new 0 0 128 128" id="Layer_1" version="1.1" viewBox="0 0 128 128" xml:space="preserve" xmlns="http://www.w3.org/2000/svg" xmlns:xlink="http://www.w3.org/1999/xlink"><path d="M106,118.1c-2.4,0-4.7-0.9-6.4-2.6L75.8,91.5c-1.7-1.7-2.6-4-2.6-6.4c0-2.4,0.9-4.7,2.6-6.4  c1.7-1.7,4-2.6,6.4-2.6s4.7,0.9,6.4,2.6l23.9,23.9c1.7,1.7,2.6,4,2.6,6.4c0,2.4-0.9,4.7-2.6,6.4C110.7,117.1,108.4,118.1,106,118.1z  " fill="#DBC5B9"/><path d="M93.5,83.8l18.9,18.9  c1.7,1.7,2.6,4,2.6,6.4c0,2.4-0.9,4.7-2.6,6.4c-1.7,1.7-4,2.6-6.4,2.6s-4.7-0.9-6.4-2.6L75.8,91.5c-1.7-1.7-2.6-4-2.6-6.4  c0-2.4,0.9-4.7,2.6-6.4c1.7-1.7,4-2.6,6.4-2.6" fill="none" stroke="#4A7DA7" stroke-linecap="round" stroke-miterlimit="10" stroke-width="4"/><path d="M105.3,95.6  c1.7,1.7,2.6,4,2.6,6.4c0,2.4-0.9,4.7-2.6,6.4c-1.7,1.7-4,2.6-6.4,2.6c-2.4,0-4.7-0.9-6.4-2.6" fill="none" stroke="#4A7DA7" stroke-linecap="round" stroke-miterlimit="10" stroke-width="2"/><circle cx="55.7" cy="58.7" fill="#FFFFFF" r="36.7"/><path d="M62,72.3L62,72.3L55,79l-7.1-6.6c0,0-9.3,2.3-12,3c-2.7,0.7-3.2,6.8-3.2,11.1c0,0,6.5,8.9,23,8.9  c16.5,0,21.6-8.9,21.6-8.9c0-4.3-0.6-10.4-3.3-11.1C71.4,74.7,62,72.3,62,72.3L62,72.3z" fill="#B0D6EC"/><circle cx="55.7" cy="58.7" fill="none" r="36.7" stroke="#4A7DA7" stroke-miterlimit="10" stroke-width="4"/><path d="M27.2,58.7  C27.2,43,40,30.2,55.7,30.2" fill="none" stroke="#4A7DA7" stroke-linecap="round" stroke-miterlimit="10" stroke-width="2"/><path d="M54.5,41.9c-3.3,0-8.5,0.7-9.4,7.6c-0.7,5.3,1.8,12.1,3.6,14.4c2,2.5,3.8,3.8,6.3,3.8c2.3,0,3.9-1.1,6-4.2  c1.9-2.8,4-10.1,3-14.9C62.7,42.8,57.2,41.9,54.5,41.9L54.5,41.9z" fill="#B0D6EC"/><path d="  M77.3,86.5c0-4.3-0.6-10.4-3.3-11.1c-2.7-0.7-12-3.1-12-3.1l0,0v0.1L55,79l-7.1-6.6c0,0-9.3,2.3-12,3c-2.7,0.7-3.2,6.8-3.2,11.1" fill="none" stroke="#4A7DA7" stroke-linecap="round" stroke-linejoin="round" stroke-miterlimit="10" stroke-width="4"/><path d="  M54.5,41.9c-3.3,0-8.5,0.7-9.4,7.6c-0.7,5.3,1.8,12.1,3.6,14.4c2,2.5,3.8,3.8,6.3,3.8c2.3,0,3.9-1.1,6-4.2c1.9-2.8,4-10.1,3-14.9  C62.7,42.8,57.2,41.9,54.5,41.9L54.5,41.9z" fill="none" stroke="#4A7DA7" stroke-linecap="round" stroke-linejoin="round" stroke-miterlimit="10" stroke-width="4"/></svg>