<?xml version="1.0" ?><!DOCTYPE svg  PUBLIC '-//W3C//DTD SVG 1.1//EN'  'http://www.w3.org/Graphics/SVG/1.1/DTD/svg11.dtd'><svg enable-background="new 0 0 128 128" id="Layer_1" version="1.1" viewBox="0 0 128 128" xml:space="preserve" xmlns="http://www.w3.org/2000/svg" xmlns:xlink="http://www.w3.org/1999/xlink"><circle cx="64" cy="64" fill="#FFFFFF" r="52"/><circle cx="64" cy="64" fill="#B0D6EC" r="44.15"/><path d="M92.01,107.82  c-14.32,9.13-32.82,11.08-49.44,3.56C16.41,99.55,4.79,68.74,16.62,42.57S59.26,4.79,85.43,16.62s37.79,42.64,25.95,68.81  c-2.14,4.73-4.9,8.99-8.14,12.72" fill="none" stroke="#4A7DA7" stroke-linecap="round" stroke-miterlimit="10" stroke-width="4"/><line fill="none" stroke="#4A7DA7" stroke-linecap="round" stroke-miterlimit="10" stroke-width="2" x1="64" x2="64" y1="17" y2="50"/><line fill="none" stroke="#4A7DA7" stroke-linecap="round" stroke-miterlimit="10" stroke-width="2" x1="21" x2="107" y1="46" y2="46"/><line fill="none" stroke="#4A7DA7" stroke-linecap="round" stroke-miterlimit="10" stroke-width="2" x1="81" x2="107" y1="83" y2="83"/><line fill="none" stroke="#4A7DA7" stroke-linecap="round" stroke-miterlimit="10" stroke-width="2" x1="21" x2="46" y1="83" y2="83"/><path d="M44.96,106.9  c-7.44-11.96-11.98-27.88-11.98-45.36c0-14.62,3.18-28.15,8.57-39.18" fill="none" stroke="#4A7DA7" stroke-linecap="round" stroke-miterlimit="10" stroke-width="2"/><path d="M83.44,107.05  c7.5-11.98,12.07-27.95,12.07-45.51c0-14.85-3.28-28.58-8.83-39.7" fill="none" stroke="#4A7DA7" stroke-linecap="round" stroke-miterlimit="10" stroke-width="2"/><path d="M73,96.76v0.07l-9.31,8.95l-9.47-8.95c0,0-12.57,3.13-16.2,4.1c-3.63,0.97-4.38,9.23-4.38,15.06  c0,0,7.94,4.67,30.37,4.67c22.43,0,30.31-4.67,30.31-4.67c0-5.83-1.1-14.09-4.73-15.06C85.96,99.96,73,96.76,73,96.76L73,96.76z" fill="#FFF2BC"/><path d="M63.33,55.34c-4.43,0-11.61,1.01-12.81,10.32c-0.91,7.21,2.42,16.47,4.83,19.57  c2.73,3.45,5.16,5.19,8.58,5.19c3.11,0,5.26-1.52,8.15-5.69c2.63-3.86,5.5-13.7,4.08-20.31C74.46,56.58,66.97,55.34,63.33,55.34  L63.33,55.34z" fill="#FFF2BC"/><path d="  M73,96.76v0.07l-9.31,8.95l-9.47-8.95c0,0-12.57,3.13-16.2,4.1c-3.63,0.97-4.38,9.23-4.38,15.06c0,0,7.94,4.67,30.37,4.67  c22.43,0,30.31-4.67,30.31-4.67c0-5.83-1.1-14.09-4.73-15.06C85.96,99.96,73,96.76,73,96.76L73,96.76z" fill="none" stroke="#4A7DA7" stroke-linecap="round" stroke-linejoin="round" stroke-miterlimit="10" stroke-width="4"/><path d="  M63.33,55.34c-4.43,0-11.61,1.01-12.81,10.32c-0.91,7.21,2.42,16.47,4.83,19.57c2.73,3.45,5.16,5.19,8.58,5.19  c3.11,0,5.26-1.52,8.15-5.69c2.63-3.86,5.5-13.7,4.08-20.31C74.46,56.58,66.97,55.34,63.33,55.34L63.33,55.34z" fill="none" stroke="#4A7DA7" stroke-linecap="round" stroke-linejoin="round" stroke-miterlimit="10" stroke-width="4"/></svg>