<?xml version="1.0" ?><!DOCTYPE svg  PUBLIC '-//W3C//DTD SVG 1.1//EN'  'http://www.w3.org/Graphics/SVG/1.1/DTD/svg11.dtd'><svg enable-background="new 0 0 128 128" id="Layer_1" version="1.1" viewBox="0 0 128 128" xml:space="preserve" xmlns="http://www.w3.org/2000/svg" xmlns:xlink="http://www.w3.org/1999/xlink"><circle cx="61" cy="64" fill="#FFFFFF" r="52"/><circle cx="61" cy="64" fill="#B0D6EC" r="44.2"/><path d="M104.6,35.6  C95.3,21.4,79.2,12,61,12C32.3,12,9,35.3,9,64s23.3,52,52,52s52-23.3,52-52c0-4.5-0.6-8.9-1.7-13.1" fill="none" stroke="#4A7DA7" stroke-linecap="round" stroke-miterlimit="10" stroke-width="4"/><line fill="none" stroke="#4A7DA7" stroke-linecap="round" stroke-miterlimit="10" stroke-width="2" x1="61" x2="61" y1="17" y2="111"/><line fill="none" stroke="#4A7DA7" stroke-linecap="round" stroke-miterlimit="10" stroke-width="2" x1="20" x2="102" y1="42" y2="42"/><line fill="none" stroke="#4A7DA7" stroke-linecap="round" stroke-miterlimit="10" stroke-width="2" x1="20" x2="102" y1="87" y2="87"/><path d="M42,106.9  c-7.4-12-12-27.9-12-45.4c0-14.6,3.2-28.1,8.6-39.2" fill="none" stroke="#4A7DA7" stroke-linecap="round" stroke-miterlimit="10" stroke-width="2"/><path d="M80.4,107.1  c7.5-12,12.1-28,12.1-45.5c0-14.9-3.3-28.6-8.8-39.7" fill="none" stroke="#4A7DA7" stroke-linecap="round" stroke-miterlimit="10" stroke-width="2"/><path d="M115,78H9c-2.2,0-4-1.8-4-4V55c0-2.2,1.8-4,4-4h106" fill="#FFFFFF"/><path d="M115,78H9c-2.2,0-4-1.8-4-4  V55c0-2.2,1.8-4,4-4h106" fill="none" stroke="#4A7DA7" stroke-linecap="round" stroke-miterlimit="10" stroke-width="4"/><g><path d="M29.1,56.7h2.5l-2.5,16h-2.3l-1.4-8.8l-1.3,8.8h-2.3l-2.7-16h2.5l1.3,8.6l1.2-8.6h2.5l1.3,8.6L29.1,56.7z" fill="#4A7DA7"/><path d="M43.3,56.7h2.5l-2.5,16H41l-1.4-8.8l-1.3,8.8H36l-2.7-16h2.5l1.3,8.6l1.2-8.6h2.5l1.3,8.6L43.3,56.7z" fill="#4A7DA7"/><path d="M57.4,56.7h2.5l-2.5,16h-2.3l-1.4-8.8l-1.3,8.8h-2.3l-2.7-16H50l1.3,8.6l1.2-8.6H55l1.3,8.6L57.4,56.7z" fill="#4A7DA7"/><path d="M61.6,70.3H64v2.4h-2.4V70.3z" fill="#4A7DA7"/><path d="M65.7,70.3h2.4v2.4h-2.4V70.3z" fill="#4A7DA7"/><path d="M69.8,70.3h2.4v2.4h-2.4V70.3z" fill="#4A7DA7"/></g><path d="M119.6,104.8c-1.4,0-2.7-0.5-3.7-1.5l-11.8-11.8c-1-1-1.5-2.3-1.5-3.7s0.5-2.7,1.5-3.7c1-1,2.3-1.5,3.7-1.5  s2.7,0.5,3.7,1.5l11.8,11.8c1,1,1.5,2.3,1.5,3.7c0,1.4-0.5,2.7-1.5,3.7C122.3,104.3,121,104.8,119.6,104.8z" fill="#DBC5B9"/><path d="M115.3,88l7.9,7.9  c1,1,1.5,2.3,1.5,3.7c0,1.4-0.5,2.7-1.5,3.7c-1,1-2.3,1.5-3.7,1.5c-1.4,0-2.7-0.5-3.7-1.5l-11.8-11.8c-1-1-1.5-2.3-1.5-3.7  s0.5-2.7,1.5-3.7c1-1,2.3-1.5,3.7-1.5" fill="none" stroke="#4A7DA7" stroke-linecap="round" stroke-miterlimit="10" stroke-width="4"/><path d="M119.2,91.8  c1,1,1.5,2.3,1.5,3.7c0,1.4-0.5,2.7-1.5,3.7c-1,1-2.3,1.5-3.7,1.5c-1.4,0-2.7-0.5-3.7-1.5" fill="none" stroke="#4A7DA7" stroke-linecap="round" stroke-miterlimit="10" stroke-width="2"/><circle cx="92.5" cy="72.5" fill="#D8E3EA" r="21.3"/><circle cx="92.5" cy="72.5" fill="none" r="21.3" stroke="#4A7DA7" stroke-miterlimit="10" stroke-width="4"/><path d="M76,72.5  C76,63.4,83.4,56,92.5,56" fill="none" stroke="#4A7DA7" stroke-linecap="round" stroke-miterlimit="10" stroke-width="2"/></svg>