<?xml version="1.0" ?><!DOCTYPE svg  PUBLIC '-//W3C//DTD SVG 1.1//EN'  'http://www.w3.org/Graphics/SVG/1.1/DTD/svg11.dtd'><svg enable-background="new 0 0 128 128" id="Layer_1" version="1.1" viewBox="0 0 128 128" xml:space="preserve" xmlns="http://www.w3.org/2000/svg" xmlns:xlink="http://www.w3.org/1999/xlink"><polygon fill="#FFFFFF" points="106.9,89.4 64.2,114 21.4,89.4 21.4,40 64.2,15.4 106.9,40 "/><line fill="none" stroke="#4A7DA7" stroke-dasharray="6,5" stroke-linecap="round" stroke-miterlimit="10" stroke-width="2" x1="64.2" x2="64.7" y1="27.7" y2="102.2"/><line fill="none" stroke="#4A7DA7" stroke-dasharray="6,5" stroke-linecap="round" stroke-miterlimit="10" stroke-width="2" x1="32" x2="96.8" y1="46.6" y2="83.4"/><line fill="none" stroke="#4A7DA7" stroke-dasharray="6,5" stroke-linecap="round" stroke-miterlimit="10" stroke-width="2" x1="32.3" x2="96.5" y1="83.8" y2="46.1"/><path d="M77.7,61.6C77.7,61.6,77.7,61.6,77.7,61.6c0-6.9-5.5-12.4-12.3-12.4c-5.7,0-10.5,3.9-11.9,9.1  c-5.1,0.4-9.2,4.7-9.2,9.9c0,5.5,4.5,9.9,9.9,9.9h22.6c4.6,0,8.3-3.7,8.3-8.3C85.1,65.6,81.9,62.1,77.7,61.6z" fill="#B0D6EC"/><path d="M77.7,61.6  C77.7,61.6,77.7,61.6,77.7,61.6c0-6.9-5.5-12.4-12.3-12.4c-5.7,0-10.5,3.9-11.9,9.1c-5.1,0.4-9.2,4.7-9.2,9.9c0,5.5,4.5,9.9,9.9,9.9  h22.6c4.6,0,8.3-3.7,8.3-8.3C85.1,65.6,81.9,62.1,77.7,61.6z" fill="none" stroke="#4A7DA7" stroke-linecap="round" stroke-miterlimit="10" stroke-width="4"/><polygon fill="none" points="  106.9,89.4 64.2,114 21.4,89.4 21.4,40 64.2,15.4 106.9,40 " stroke="#4A7DA7" stroke-linecap="round" stroke-linejoin="round" stroke-miterlimit="10" stroke-width="4"/><circle cx="64.2" cy="112.3" fill="#FFFFFF" r="10"/><circle cx="64.2" cy="112.3" fill="#B2DDC9" r="5.1"/><circle cx="64.2" cy="112.3" fill="none" r="10" stroke="#4A7DA7" stroke-linecap="round" stroke-linejoin="round" stroke-miterlimit="10" stroke-width="4"/><circle cx="64.2" cy="15.7" fill="#FFFFFF" r="10"/><circle cx="64.2" cy="15.7" fill="#B2DDC9" r="5.1"/><circle cx="64.2" cy="15.7" fill="none" r="10" stroke="#4A7DA7" stroke-linecap="round" stroke-linejoin="round" stroke-miterlimit="10" stroke-width="4"/><circle cx="106.6" cy="40.7" fill="#FFFFFF" r="10"/><circle cx="106.6" cy="40.7" fill="#B2DDC9" r="5.1"/><circle cx="106.6" cy="40.7" fill="none" r="10" stroke="#4A7DA7" stroke-linecap="round" stroke-linejoin="round" stroke-miterlimit="10" stroke-width="4"/><circle cx="106.6" cy="89.6" fill="#FFFFFF" r="10"/><circle cx="106.6" cy="89.6" fill="#B2DDC9" r="5.1"/><circle cx="106.6" cy="89.6" fill="none" r="10" stroke="#4A7DA7" stroke-linecap="round" stroke-linejoin="round" stroke-miterlimit="10" stroke-width="4"/><circle cx="21.4" cy="40.7" fill="#FFFFFF" r="10"/><circle cx="21.4" cy="40.7" fill="#B2DDC9" r="5.1"/><circle cx="21.4" cy="40.7" fill="none" r="10" stroke="#4A7DA7" stroke-linecap="round" stroke-linejoin="round" stroke-miterlimit="10" stroke-width="4"/><circle cx="21.4" cy="89.6" fill="#FFFFFF" r="10"/><circle cx="21.4" cy="89.6" fill="#B2DDC9" r="5.1"/><circle cx="21.4" cy="89.6" fill="none" r="10" stroke="#4A7DA7" stroke-linecap="round" stroke-linejoin="round" stroke-miterlimit="10" stroke-width="4"/></svg>