<?xml version="1.0" ?><!DOCTYPE svg  PUBLIC '-//W3C//DTD SVG 1.1//EN'  'http://www.w3.org/Graphics/SVG/1.1/DTD/svg11.dtd'><svg enable-background="new 0 0 128 128" id="Layer_1" version="1.1" viewBox="0 0 128 128" xml:space="preserve" xmlns="http://www.w3.org/2000/svg" xmlns:xlink="http://www.w3.org/1999/xlink"><path d="M120,104c0,2.21-1.79,4-4,4H12c-2.21,0-4-1.79-4-4V24c0-2.21,1.79-4,4-4h104c2.21,0,4,1.79,4,4V104z" fill="#D8E3EA"/><path d="M116,108H12c-2.2,0-4-1.8-4-4V37h112v67C120,106.21,118.21,108,116,108z" fill="#FFFFFF"/><path d="M120,104c0,2.21-1.79,4-4,4H12c-2.21,0-4-1.79-4-4  V24c0-2.21,1.79-4,4-4h104c2.21,0,4,1.79,4,4V104z" fill="none" stroke="#4A7DA7" stroke-miterlimit="10" stroke-width="4"/><line fill="none" stroke="#4A7DA7" stroke-linecap="round" stroke-miterlimit="10" stroke-width="2" x1="8" x2="112" y1="37" y2="37"/><circle cx="19.8" cy="29.68" fill="#4A7DA7" r="2.12"/><circle cx="28.28" cy="29.68" fill="#4A7DA7" r="2.12"/><circle cx="36.77" cy="29.68" fill="#4A7DA7" r="2.12"/><g><path d="M54.85,79.88c0.03,2.05-0.5,3.8-1.59,5.25c-0.72,0.98-1.73,1.68-3.05,2.09c-0.7,0.22-1.52,0.33-2.46,0.33   c-1.73,0-3.17-0.43-4.31-1.29c-0.95-0.7-1.71-1.66-2.26-2.87c-0.55-1.21-0.88-2.6-0.97-4.16l4.22-0.3   c0.19,1.71,0.64,2.95,1.36,3.72c0.53,0.58,1.14,0.86,1.83,0.82c0.97-0.03,1.74-0.51,2.32-1.43c0.3-0.45,0.45-1.1,0.45-1.95   c0-1.22-0.55-2.43-1.66-3.64c-0.88-0.83-2.19-2.07-3.94-3.73c-1.47-1.42-2.51-2.7-3.12-3.82c-0.66-1.27-0.98-2.64-0.98-4.13   c0-2.67,0.9-4.7,2.7-6.08c1.11-0.83,2.48-1.24,4.12-1.24c1.58,0,2.93,0.35,4.05,1.05c0.88,0.55,1.58,1.31,2.12,2.3   s0.86,2.12,0.97,3.4l-4.24,0.77c-0.12-1.2-0.47-2.14-1.03-2.81c-0.41-0.48-0.99-0.73-1.76-0.73c-0.81,0-1.43,0.36-1.85,1.08   c-0.34,0.58-0.52,1.3-0.52,2.16c0,1.34,0.58,2.71,1.73,4.1c0.44,0.53,1.09,1.16,1.97,1.88c1.03,0.86,1.71,1.46,2.04,1.8   c1.09,1.09,1.94,2.17,2.53,3.23c0.28,0.5,0.51,0.96,0.68,1.38C54.62,78.12,54.84,79.05,54.85,79.88z" fill="#4A7DA7"/><path d="M58.53,87.2V57.8h12.61v4.45h-8.18v8.02h5.98v4.45h-5.98v8.02h8.18v4.45H58.53z" fill="#4A7DA7"/><path d="M81.2,57.45c1.95,0,3.61,0.69,4.98,2.06c1.37,1.38,2.05,3.03,2.05,4.97v16.03c0,1.95-0.69,3.61-2.06,4.98   c-1.38,1.37-3.03,2.05-4.97,2.05c-1.95,0-3.61-0.69-4.97-2.06c-1.36-1.37-2.04-3.03-2.04-4.97V64.48c0-1.95,0.69-3.61,2.06-4.98   C77.63,58.14,79.27,57.45,81.2,57.45z M83.61,64.39c0-0.7-0.25-1.3-0.74-1.79s-1.09-0.74-1.79-0.74s-1.3,0.25-1.8,0.74   s-0.75,1.09-0.75,1.79v16.08c0,0.7,0.25,1.3,0.75,1.79s1.1,0.74,1.8,0.74s1.3-0.25,1.79-0.74s0.74-1.09,0.74-1.79V64.39z" fill="#4A7DA7"/></g></svg>