<?xml version="1.0" ?><!DOCTYPE svg  PUBLIC '-//W3C//DTD SVG 1.1//EN'  'http://www.w3.org/Graphics/SVG/1.1/DTD/svg11.dtd'><svg enable-background="new 0 0 128 128" id="Layer_1" version="1.1" viewBox="0 0 128 128" xml:space="preserve" xmlns="http://www.w3.org/2000/svg" xmlns:xlink="http://www.w3.org/1999/xlink"><path d="M18.8,116H53v-12.8c0,0,0.1,0,0,0c-4.8,0-8.5-3.9-8.5-8.7s3.7-8.7,8.5-8.7c0.1,0,0,0,0,0V74H40.9  c0-5-3.9-8.7-8.7-8.7S23.6,69,23.6,74H11v34.2C11,112.5,14.6,116,18.8,116z" fill="#B2DDC9"/><path d="M23.6,74c0-5,3.9-8.7,8.7-8.7s8.7,3.7,8.7,8.7H53V61.3c5-0.1,8.5-3.9,8.5-8.6c0-4.7-3.5-8.5-8.5-8.6V31H18.8  c-4.3,0-7.8,3.7-7.8,8v35H23.6z" fill="#F3B0AE"/><path d="M82.9,74c0,4-3.9,8.7-8.7,8.7c-4.8,0-8.7-4.7-8.7-8.7H53v11.9c0,0,0.1,0,0,0c-4.8,0-8.5,3.9-8.5,8.7  s3.7,8.7,8.5,8.7c0.1,0,0,0,0,0V116h35.1c4.3,0,7.9-3.5,7.9-7.8V74H82.9z" fill="#FFF2BC"/><path d="M71.3,39.1L68,51l11.7,3.2c-1.3,4.6,1.4,9.4,6,10.7c4.6,1.3,9.4-1.4,10.7-6l12.4,3.4l9.2-33.4  c1.1-4.1-1.3-8.3-5.4-9.5l-33.4-9.2l-3.4,12.2c4.5,1.4,7.1,6,5.9,10.6C80.5,37.6,75.8,40.2,71.3,39.1z" fill="#B0D6EC"/><path d="  M18.8,116H53v-12.8c0,0,0.1,0,0,0c-4.8,0-8.5-3.9-8.5-8.7s3.7-8.7,8.5-8.7c0.1,0,0,0,0,0V74H40.9c0-5-3.9-8.7-8.7-8.7  S23.6,69,23.6,74H11v34.2C11,112.5,14.6,116,18.8,116z" fill="none" stroke="#4A7DA7" stroke-linecap="round" stroke-linejoin="round" stroke-miterlimit="10" stroke-width="4"/><path d="  M23.6,74c0-5,3.9-8.7,8.7-8.7s8.7,3.7,8.7,8.7H53V61.3c5-0.1,8.5-3.9,8.5-8.6c0-4.7-3.5-8.5-8.5-8.6V31H18.8c-4.3,0-7.8,3.7-7.8,8  v35H23.6z" fill="none" stroke="#4A7DA7" stroke-linecap="round" stroke-linejoin="round" stroke-miterlimit="10" stroke-width="4"/><path d="  M82.9,74c0,4-3.9,8.7-8.7,8.7c-4.8,0-8.7-4.7-8.7-8.7H53v11.9c0,0,0.1,0,0,0c-4.8,0-8.5,3.9-8.5,8.7s3.7,8.7,8.5,8.7c0.1,0,0,0,0,0  V116h35.1c4.3,0,7.9-3.5,7.9-7.8V74H82.9z" fill="none" stroke="#4A7DA7" stroke-linecap="round" stroke-linejoin="round" stroke-miterlimit="10" stroke-width="4"/><path d="  M71.3,39.1L68,51l11.7,3.2c-1.3,4.6,1.4,9.4,6,10.7c4.6,1.3,9.4-1.4,10.7-6l12.4,3.4l9.2-33.4c1.1-4.1-1.3-8.3-5.4-9.5l-33.4-9.2  l-3.4,12.2c4.5,1.4,7.1,6,5.9,10.6C80.5,37.6,75.8,40.2,71.3,39.1z" fill="none" stroke="#4A7DA7" stroke-linecap="round" stroke-linejoin="round" stroke-miterlimit="10" stroke-width="4"/></svg>