<?xml version="1.0" ?><!DOCTYPE svg  PUBLIC '-//W3C//DTD SVG 1.1//EN'  'http://www.w3.org/Graphics/SVG/1.1/DTD/svg11.dtd'><svg enable-background="new 0 0 128 128" id="Layer_1" version="1.1" viewBox="0 0 128 128" xml:space="preserve" xmlns="http://www.w3.org/2000/svg" xmlns:xlink="http://www.w3.org/1999/xlink"><path d="M95,108c0,2.2-1.8,4-4,4H36c-2.2,0-4-1.8-4-4V21c0-2.2,1.8-4,4-4h55c2.2,0,4,1.8,4,4V108z" fill="#D8E3EA"/><polyline fill="#FFFFFF" points="87,97 40,97 40,81.1 40,32 87,32 87,89 "/><polyline fill="none" points="87,97 40,97 40,32   87,32 87,64 " stroke="#4A7DA7" stroke-linecap="round" stroke-miterlimit="10" stroke-width="2"/><path d="M95,96v12c0,2.2-1.8,4-4,4  H36c-2.2,0-4-1.8-4-4V21c0-2.2,1.8-4,4-4h55c2.2,0,4,1.8,4,4v42" fill="none" stroke="#4A7DA7" stroke-linecap="round" stroke-miterlimit="10" stroke-width="4"/><circle cx="64.6" cy="103.4" fill="#4A7DA7" r="2.9"/><line fill="none" stroke="#4A7DA7" stroke-linecap="round" stroke-miterlimit="10" stroke-width="2" x1="53" x2="73" y1="25" y2="25"/><rect fill="#DBC5B9" height="14" width="86" x="20" y="71"/><polyline fill="none" points="106,72 106,85   20,85 20,71 98,71 " stroke="#4A7DA7" stroke-linecap="round" stroke-miterlimit="10" stroke-width="4"/><line fill="none" stroke="#4A7DA7" stroke-linecap="round" stroke-miterlimit="10" stroke-width="2" x1="34" x2="34" y1="85" y2="79"/><line fill="none" stroke="#4A7DA7" stroke-linecap="round" stroke-miterlimit="10" stroke-width="2" x1="41" x2="41" y1="85" y2="81"/><line fill="none" stroke="#4A7DA7" stroke-linecap="round" stroke-miterlimit="10" stroke-width="2" x1="49" x2="49" y1="85" y2="79"/><line fill="none" stroke="#4A7DA7" stroke-linecap="round" stroke-miterlimit="10" stroke-width="2" x1="56" x2="56" y1="85" y2="81"/><line fill="none" stroke="#4A7DA7" stroke-linecap="round" stroke-miterlimit="10" stroke-width="2" x1="64" x2="64" y1="85" y2="79"/><line fill="none" stroke="#4A7DA7" stroke-linecap="round" stroke-miterlimit="10" stroke-width="2" x1="71" x2="71" y1="85" y2="81"/><line fill="none" stroke="#4A7DA7" stroke-linecap="round" stroke-miterlimit="10" stroke-width="2" x1="79" x2="79" y1="85" y2="79"/><line fill="none" stroke="#4A7DA7" stroke-linecap="round" stroke-miterlimit="10" stroke-width="2" x1="94" x2="94" y1="85" y2="79"/><line fill="none" stroke="#4A7DA7" stroke-linecap="round" stroke-miterlimit="10" stroke-width="2" x1="86" x2="86" y1="85" y2="81"/><path d="M31.5,92H102c2.2,0,4,1.8,4,4v6c0,2.2-1.8,4-4,4H31.5L18,100.5V98L31.5,92z" fill="#FFFFFF"/><path d="M31.5,92H102c2.2,0,4,1.8,4,4v6c0,2.2-1.8,4-4,4H31.5L18,100.5V98L31.5,92z" fill="#FFFFFF"/><path d="M31.5,106H102c2.2,0,4-1.8,4-4v-6c0-2.2-1.8-4-4-4H31.5" fill="#B2DDC9"/><path d="M31.5,106H102c2.2,0,4-1.8,4-4v-6c0-2.2-1.8-4-4-4H31.5" fill="#B2DDC9"/><polygon fill="#B2DDC9" points="23,96.2 18,98 18,100.5 23,102.4 "/><path d="M106,102v-6c0-2.2-1.8-4-4-4h-7v14h7C104.2,106,106,104.2,106,102z" fill="#F3B0AE"/><path d="M31.5,92H102  c2.2,0,4,1.8,4,4v6c0,2.2-1.8,4-4,4H31.5L18,100.5V98L31.5,92z" fill="none" stroke="#4A7DA7" stroke-linecap="round" stroke-miterlimit="10" stroke-width="2"/><line fill="none" stroke="#4A7DA7" stroke-linecap="round" stroke-miterlimit="10" stroke-width="2" x1="89" x2="32" y1="99" y2="99"/><line fill="none" stroke="#4A7DA7" stroke-linecap="round" stroke-miterlimit="10" stroke-width="4" x1="95" x2="95" y1="91" y2="105"/><rect fill="#D8E7C9" height="11" width="11" x="44" y="39"/><rect fill="none" height="9" stroke="#D8E3EA" stroke-linecap="round" stroke-miterlimit="10" stroke-width="2" width="9" x="59" y="40"/><rect fill="none" height="9" stroke="#D8E3EA" stroke-linecap="round" stroke-miterlimit="10" stroke-width="2" width="9" x="73" y="40"/><rect fill="none" height="9" stroke="#D8E3EA" stroke-linecap="round" stroke-miterlimit="10" stroke-width="2" width="9" x="45" y="54"/><rect fill="none" height="9" stroke="#D8E3EA" stroke-linecap="round" stroke-miterlimit="10" stroke-width="2" width="9" x="59" y="54"/><rect fill="#D8E7C9" height="11" width="11" x="72" y="53"/></svg>