<?xml version="1.0" ?><!DOCTYPE svg  PUBLIC '-//W3C//DTD SVG 1.1//EN'  'http://www.w3.org/Graphics/SVG/1.1/DTD/svg11.dtd'><svg enable-background="new 0 0 128 128" id="Layer_1" version="1.1" viewBox="0 0 128 128" xml:space="preserve" xmlns="http://www.w3.org/2000/svg" xmlns:xlink="http://www.w3.org/1999/xlink"><line fill="none" stroke="#D8E3EA" stroke-linecap="round" stroke-miterlimit="10" stroke-width="2" x1="26" x2="102" y1="69" y2="69"/><line fill="none" stroke="#D8E3EA" stroke-linecap="round" stroke-miterlimit="10" stroke-width="2" x1="64" x2="64" y1="62" y2="75"/><line fill="none" stroke="#D8E3EA" stroke-linecap="round" stroke-miterlimit="10" stroke-width="2" x1="102" x2="102" y1="69" y2="75"/><line fill="none" stroke="#D8E3EA" stroke-linecap="round" stroke-miterlimit="10" stroke-width="2" x1="26" x2="26" y1="69" y2="75"/><path d="M84.6,29.64c0-0.03,0-0.05,0-0.08c0-10.79-8.75-19.54-19.54-19.54c-9.03,0-16.62,6.12-18.86,14.44  c-8.13,0.61-14.55,7.45-14.55,15.74C31.66,48.9,38.7,56,47.39,56h35.79c7.27,0,13.16-5.95,13.16-13.22  C96.34,35.99,91.2,30.35,84.6,29.64z" fill="#B0D6EC"/><path d="M84.6,29.64  c0-0.03,0-0.05,0-0.08c0-10.79-8.75-19.54-19.54-19.54c-9.03,0-16.62,6.12-18.86,14.44c-8.13,0.61-14.55,7.45-14.55,15.74  C31.66,48.9,38.7,56,47.39,56h35.79c7.27,0,13.16-5.95,13.16-13.22C96.34,35.99,91.2,30.35,84.6,29.64z" fill="none" stroke="#4A7DA7" stroke-linecap="round" stroke-miterlimit="10" stroke-width="4"/><path d="M84.08,34.45  c4.23,0.45,7.42,4.01,7.42,8.27" fill="none" stroke="#4A7DA7" stroke-linecap="round" stroke-miterlimit="10" stroke-width="2"/><path d="M50.88,25.73  c1.72-6.39,7.56-10.86,14.18-10.86" fill="none" stroke="#4A7DA7" stroke-linecap="round" stroke-miterlimit="10" stroke-width="2"/><path d="M115,106H89c-1.1,0-2-0.9-2-2V87c0-1.1,0.9-2,2-2h26c1.1,0,2,0.9,2,2v17C117,105.1,116.1,106,115,106z" fill="#D8E3EA"/><path d="  M115,106H89c-1.1,0-2-0.9-2-2V87c0-1.1,0.9-2,2-2h26c1.1,0,2,0.9,2,2v17C117,105.1,116.1,106,115,106z" fill="none" stroke="#4A7DA7" stroke-linecap="round" stroke-linejoin="round" stroke-miterlimit="10" stroke-width="2"/><rect fill="#D8E3EA" height="6" width="6" x="99" y="106"/><rect fill="none" height="6" stroke="#4A7DA7" stroke-linecap="round" stroke-miterlimit="10" stroke-width="2" width="6" x="99" y="106"/><line fill="none" stroke="#4A7DA7" stroke-linecap="round" stroke-miterlimit="10" stroke-width="2" x1="108" x2="96" y1="112" y2="112"/><rect fill="#FFFFFF" height="12" width="20" x="92" y="89"/><path d="M38.36,92.02c0-6.59-5.34-11.93-11.93-11.93c-5.44,0-9.26,2.97-11.46,8.61s-2.85,9.96-2.85,9.96h2.38v6.5  c0,1.1,1.01,1.92,2.09,1.69l3.96-0.85v7.34l12.52-2.59v-8.82C36.26,99.79,38.36,96.15,38.36,92.02z" fill="#DBC5B9"/><path d="  M38.36,92.02c0-6.59-5.34-11.93-11.93-11.93c-5.44,0-9.26,2.97-11.46,8.61s-2.85,9.96-2.85,9.96h2.38v6.5c0,1.1,1.01,1.92,2.09,1.69  l3.96-0.85v7.34l12.52-2.59v-8.82C36.26,99.79,38.36,96.15,38.36,92.02z" fill="none" stroke="#4A7DA7" stroke-linecap="round" stroke-linejoin="round" stroke-miterlimit="10" stroke-width="2"/><path d="M73.07,110.61H53.98c-0.69,0-1.25-0.56-1.25-1.25V84.64c0-0.69,0.56-1.25,1.25-1.25h15.84  c0.34,0,0.67,0.14,0.91,0.39l3.3,3.53c0.22,0.23,0.29,0.54,0.29,0.86v21.18C74.32,110.05,73.76,110.61,73.07,110.61z" fill="#FFFFFF"/><polygon fill="#4A7DA7" points="74,87.68 70.36,83 70,83 70,89 74,89 "/><path d="  M73.07,110.61H53.98c-0.69,0-1.25-0.56-1.25-1.25V84.64c0-0.69,0.56-1.25,1.25-1.25h15.84c0.34,0,0.67,0.14,0.91,0.39l3.3,3.53  c0.22,0.23,0.29,0.54,0.29,0.86v21.18C74.32,110.05,73.76,110.61,73.07,110.61z" fill="none" stroke="#4A7DA7" stroke-linecap="round" stroke-linejoin="round" stroke-miterlimit="10" stroke-width="2"/><line fill="none" stroke="#D8E3EA" stroke-linecap="round" stroke-miterlimit="10" stroke-width="2" x1="69" x2="58" y1="95" y2="95"/><line fill="none" stroke="#D8E3EA" stroke-linecap="round" stroke-miterlimit="10" stroke-width="2" x1="69" x2="58" y1="99" y2="99"/><line fill="none" stroke="#D8E3EA" stroke-linecap="round" stroke-miterlimit="10" stroke-width="2" x1="69" x2="58" y1="102" y2="102"/></svg>