<?xml version="1.0" ?><!DOCTYPE svg  PUBLIC '-//W3C//DTD SVG 1.1//EN'  'http://www.w3.org/Graphics/SVG/1.1/DTD/svg11.dtd'><svg enable-background="new 0 0 128 128" id="Layer_1" version="1.1" viewBox="0 0 128 128" xml:space="preserve" xmlns="http://www.w3.org/2000/svg" xmlns:xlink="http://www.w3.org/1999/xlink"><path d="M104.53,50.18c0-20.36-16.5-36.86-36.86-36.86c-16.8,0-28.61,9.16-35.41,26.6s-8.8,30.78-8.8,30.78h7.34  v20.09c0,3.4,3.13,5.93,6.46,5.22l12.23-2.62v22.69l38.7-8.01V80.81C98.04,74.19,104.53,62.95,104.53,50.18z" fill="#D8E3EA"/><path d="  M103.53,41.62c-3.86-16.23-18.45-28.3-35.86-28.3c-16.8,0-28.61,9.16-35.41,26.6s-8.8,30.78-8.8,30.78h7.34v20.09  c0,3.4,3.13,5.93,6.46,5.22l12.23-2.62v22.69l38.7-8.01V80.81c9.48-6.36,15.85-17.01,16.32-29.18" fill="none" stroke="#4A7DA7" stroke-linecap="round" stroke-linejoin="round" stroke-miterlimit="10" stroke-width="4"/><path d="M80.47,53.9c1.82-1.82,4.53-2.64,7.1-2.55c4.57,0.17,9.42-1.27,12.9-4.76c6.63-6.63,6.66-17.36,0.09-24.06  c-6.49-6.63-17.25-6.86-23.97-0.51c-3.72,3.51-5.26,8.5-5.1,13.22c0.09,2.59-0.72,5.31-2.55,7.13l-2.24,2.24l11.53,11.53L80.47,53.9  z" fill="#FFF2BC"/><path d="M80.62,53.98  c1.82-1.82,4.45-2.68,7.03-2.59c4.57,0.17,9.38-1.29,12.86-4.78c6.63-6.63,6.64-17.37,0.07-24.07c-6.49-6.63-17.26-6.86-23.98-0.51  c-3.72,3.51-5.27,8.5-5.11,13.22c0.09,2.59-0.73,5.3-2.56,7.13l-2.24,2.24" fill="none" stroke="#4A7DA7" stroke-linecap="round" stroke-miterlimit="10" stroke-width="4"/><polyline fill="#B0D6EC" points="76.54,61.86 70.88,67.51 56.03,52.66 61.69,47.01 71.64,56.97 58.86,44.18 63.1,39.94 82.9,59.74   78.66,63.98 76.54,61.86 "/><polyline opacity="0.1" points="76.54,61.86 70.88,67.51 56.03,52.66 61.69,47.01 71.64,56.97 58.86,44.18 63.1,39.94 82.9,59.74   78.66,63.98 76.54,61.86 "/><polyline fill="none" points="  76.54,61.86 70.88,67.51 56.03,52.66 61.69,47.01 71.64,56.97 58.86,44.18 63.1,39.94 82.9,59.74 78.66,63.98 76.54,61.86 " stroke="#4A7DA7" stroke-linecap="round" stroke-linejoin="round" stroke-miterlimit="10" stroke-width="4"/><path d="M55.16,53.21l3.95,9.62c0.13,0.43,0.39,0.84,0.82,0.98l10.17,4.35L55.16,53.21z" fill="#4A7DA7"/><path d="  M55.28,53.33l3.95,9.62c0.13,0.43,0.39,0.84,0.82,0.98l10.17,4.35L55.28,53.33z" fill="none" stroke="#4A7DA7" stroke-linecap="round" stroke-linejoin="round" stroke-miterlimit="10" stroke-width="4"/><line fill="none" stroke="#4A7DA7" stroke-linecap="round" stroke-miterlimit="10" stroke-width="2" x1="73.71" x2="61.69" y1="64.69" y2="52.66"/><polygon fill="#4A7DA7" points="92.57,31.5 82.54,33.93 85.94,37.33 79.68,42.02 90.06,39.14 86.7,35.79 "/><polygon fill="none" points="  92.57,31.5 82.54,33.93 85.94,37.33 79.68,42.02 90.06,39.14 86.7,35.79 " stroke="#4A7DA7" stroke-linecap="round" stroke-linejoin="round" stroke-miterlimit="10" stroke-width="2"/></svg>