<?xml version="1.0" encoding="UTF-8" standalone="no"?>
<svg width="145px" height="145px" viewBox="0 0 145 145" version="1.1" xmlns="http://www.w3.org/2000/svg" xmlns:xlink="http://www.w3.org/1999/xlink">
    <!-- Generator: Sketch 40.3 (33839) - http://www.bohemiancoding.com/sketch -->
    <title>Artboard</title>
    <desc>Created with Sketch.</desc>
    <defs></defs>
    <g id="Page-1" stroke="none" stroke-width="1" fill="none" fill-rule="evenodd">
        <g id="Artboard" fill="#000000">
            <g id="ios" transform="translate(33.000000, 10.000000)">
                <g id="Artboard">
                    <g id="Page-1">
                        <path d="M0,2.5 L0,122.5 C0,123.9 1.1,125 2.5,125 L76.9,125 C78.3,125 79.4,123.9 79.4,122.5 L79.4,2.5 C79.4,1.1 78.3,0 76.9,0 L2.5,0 C1.1,0 0,1.1 0,2.5 Z M5,20 L74.4,20 L74.4,96 L5,96 L5,20 L5,20 L5,20 Z M74.4,5 L74.4,15 L5,15 L5,5 L74.4,5 L74.4,5 L74.4,5 Z M5,120 L5,101 L74.4,101 L74.4,120 L5,120 L5,120 L5,120 Z" id="Shape"></path>
                    </g>
                </g>
            </g>
            <polygon id="Triangle" transform="translate(73.000000, 126.500000) scale(-1, 1) translate(-73.000000, -126.500000) " points="73 123 82 130 64 130"></polygon>
        </g>
    </g>
</svg>