<?xml version="1.0" ?><svg id="ART" viewBox="0 0 48 48" xmlns="http://www.w3.org/2000/svg" xmlns:xlink="http://www.w3.org/1999/xlink"><defs><style>.cls-1{fill:url(#linear-gradient);}.cls-2{fill:url(#linear-gradient-2);}.cls-3{fill:url(#linear-gradient-3);}.cls-4{fill:url(#linear-gradient-4);}.cls-5{fill:url(#linear-gradient-5);}.cls-6{fill:url(#linear-gradient-6);}.cls-7{fill:url(#linear-gradient-7);}.cls-8{fill:url(#linear-gradient-8);}.cls-9{fill:url(#linear-gradient-9);}.cls-10{fill:url(#linear-gradient-10);}.cls-11{fill:url(#linear-gradient-11);}.cls-12{fill:url(#linear-gradient-12);}.cls-13{fill:url(#linear-gradient-13);}.cls-14{fill:url(#linear-gradient-14);}.cls-15{fill:url(#linear-gradient-15);}.cls-16{fill:url(#linear-gradient-16);}.cls-17{fill:url(#linear-gradient-17);}.cls-18{fill:url(#linear-gradient-18);}.cls-19{fill:url(#linear-gradient-19);}.cls-20{fill:url(#linear-gradient-20);}.cls-21{fill:url(#linear-gradient-21);}</style><linearGradient gradientUnits="userSpaceOnUse" id="linear-gradient" x1="28.5" x2="28.5" y1="39.33" y2="-23.18"><stop offset="0" stop-color="#fff"/><stop offset="0.52" stop-color="#cce2e6"/><stop offset="1" stop-color="#8fa1bb"/></linearGradient><linearGradient id="linear-gradient-2" x1="12" x2="12" xlink:href="#linear-gradient" y1="44.81" y2="39.44"/><linearGradient gradientUnits="userSpaceOnUse" id="linear-gradient-3" x1="12" x2="12" y1="62.83" y2="-20.7"><stop offset="0" stop-color="#273a9b"/><stop offset="0.56" stop-color="#202f65"/><stop offset="1" stop-color="#021e2f"/></linearGradient><linearGradient id="linear-gradient-4" x2="12" xlink:href="#linear-gradient-3" y1="62.83" y2="-20.7"/><linearGradient id="linear-gradient-5" x1="12.01" x2="12.01" xlink:href="#linear-gradient-3" y1="39.19" y2="11.5"/><linearGradient id="linear-gradient-6" x1="4.5" x2="4.5" xlink:href="#linear-gradient-3" y1="62.83" y2="-20.7"/><linearGradient id="linear-gradient-7" x1="19.5" x2="19.5" xlink:href="#linear-gradient-3" y1="58.33" y2="-25.2"/><linearGradient gradientUnits="userSpaceOnUse" id="linear-gradient-8" x1="33.69" x2="33.69" y1="53.17" y2="20.38"><stop offset="0" stop-color="#f3c57a"/><stop offset="0.49" stop-color="#f39369"/><stop offset="1" stop-color="#e94867"/></linearGradient><linearGradient id="linear-gradient-9" x1="33.69" x2="33.69" xlink:href="#linear-gradient-8" y1="71.75" y2="1.86"/><linearGradient id="linear-gradient-10" x1="33.7" x2="33.7" xlink:href="#linear-gradient-8" y1="51.97" y2="28.8"/><linearGradient id="linear-gradient-11" x1="26.16" x2="26.16" xlink:href="#linear-gradient-8" y1="50.61" y2="28.1"/><linearGradient id="linear-gradient-12" x1="26.16" x2="26.16" xlink:href="#linear-gradient-8" y1="74.35" y2="4.45"/><linearGradient id="linear-gradient-13" x1="26.17" x2="26.17" xlink:href="#linear-gradient-8" y1="54.56" y2="31.39"/><linearGradient id="linear-gradient-14" x1="41.23" x2="41.23" xlink:href="#linear-gradient-8" y1="50.61" y2="28.1"/><linearGradient id="linear-gradient-15" x1="41.23" x2="41.23" xlink:href="#linear-gradient-8" y1="74.35" y2="4.45"/><linearGradient id="linear-gradient-16" x1="41.24" x2="41.24" xlink:href="#linear-gradient-8" y1="54.56" y2="31.39"/><linearGradient id="linear-gradient-17" x1="29.66" x2="29.66" xlink:href="#linear-gradient" y1="44" y2="-14.91"/><linearGradient id="linear-gradient-18" x1="32.69" x2="32.69" xlink:href="#linear-gradient" y1="38.39" y2="11.09"/><linearGradient id="linear-gradient-19" x1="35.97" x2="35.97" xlink:href="#linear-gradient" y1="38.56" y2="15.59"/><linearGradient id="linear-gradient-20" x1="17.56" x2="40.61" xlink:href="#linear-gradient" y1="30.39" y2="7.34"/><linearGradient gradientTransform="translate(21.66 -16.41) rotate(45)" id="linear-gradient-21" x1="25" x2="25" xlink:href="#linear-gradient-3" y1="130.26" y2="-113.72"/></defs><title/><rect class="cls-1" height="22.5" rx="1.47" ry="1.47" width="33" x="12" y="3"/><path class="cls-2" d="M16.5,45V37.5a1.5,1.5,0,0,0-3,0V42a1.5,1.5,0,0,1-3,0V37.5a1.5,1.5,0,0,0-3,0V45Z"/><circle class="cls-3" cx="12" cy="15.75" r="3.75"/><path class="cls-4" d="M11.56,21A4.63,4.63,0,0,0,7.5,25.69V40.5A1.5,1.5,0,0,0,9,42H9a1.5,1.5,0,0,0,1.5-1.5V36A1.5,1.5,0,0,1,12,34.5h0A1.5,1.5,0,0,1,13.5,36v4.5A1.5,1.5,0,0,0,15,42h0a1.5,1.5,0,0,0,1.5-1.5v-15A4.5,4.5,0,0,0,11.56,21Z"/><path class="cls-5" d="M8.88,22.33a3.74,3.74,0,0,0,6.26,0A4.48,4.48,0,0,0,11.56,21,4.31,4.31,0,0,0,8.88,22.33Z"/><circle class="cls-6" cx="4.5" cy="25.5" r="1.5"/><circle class="cls-7" cx="19.5" cy="21" r="1.5"/><path class="cls-8" d="M37.46,45V40.52a3.77,3.77,0,0,0-4.14-3.75,3.87,3.87,0,0,0-3.4,3.91V45Z"/><circle class="cls-9" cx="33.69" cy="32.36" r="3.14"/><path class="cls-10" d="M31.09,37.87a3.13,3.13,0,0,0,5.23,0,3.75,3.75,0,0,0-3-1.06A3.61,3.61,0,0,0,31.09,37.87Z"/><path class="cls-11" d="M29.92,45V43.11a3.77,3.77,0,0,0-4.14-3.75,3.87,3.87,0,0,0-3.4,3.91V45Z"/><circle class="cls-12" cx="26.16" cy="34.95" r="3.14"/><path class="cls-13" d="M23.55,40.46a3.13,3.13,0,0,0,5.23,0,3.75,3.75,0,0,0-3-1.06A3.61,3.61,0,0,0,23.55,40.46Z"/><path class="cls-14" d="M45,45V43.11a3.77,3.77,0,0,0-4.14-3.75,3.87,3.87,0,0,0-3.4,3.91V45Z"/><circle class="cls-15" cx="41.23" cy="34.95" r="3.14"/><path class="cls-16" d="M38.62,40.46a3.13,3.13,0,0,0,5.23,0,3.75,3.75,0,0,0-3-1.06A3.61,3.61,0,0,0,38.62,40.46Z"/><path class="cls-17" d="M43.53,25.5A1.47,1.47,0,0,0,45,24V4.47A1.47,1.47,0,0,0,43.53,3H14.32l8.19,2.79a8.85,8.85,0,0,1,6,8.37V25.5Z"/><path class="cls-18" d="M31.21,8.81a6.57,6.57,0,0,0-5,6.47,6.65,6.65,0,0,0,6.47,6.47,6.56,6.56,0,0,0,6.47-5,1.26,1.26,0,0,0-1.23-1.55H32.76V10A1.26,1.26,0,0,0,31.21,8.81Z"/><path class="cls-19" d="M32.76,21.74a6.61,6.61,0,0,0,1-.07l.18,0a6.53,6.53,0,0,0,.94-.24l.16-.06a6.53,6.53,0,0,0,.91-.4h0a6.57,6.57,0,0,0,.81-.53l.12-.09a6.59,6.59,0,0,0,.69-.64l.12-.13a6.6,6.6,0,0,0,.58-.75l.07-.11a6.54,6.54,0,0,0,.45-.84l0-.07a6.52,6.52,0,0,0,.31-.93l0-.16a1.26,1.26,0,0,0-1.23-1.5H32.76Z"/><path class="cls-20" d="M34.64,8v5.34H40A1.12,1.12,0,0,0,41.06,12,6.57,6.57,0,0,0,36,6.89,1.12,1.12,0,0,0,34.64,8Z"/><path class="cls-21" d="M21.24,19.37h0a.8.8,0,0,1,0-1.15l5.56-5.06a.44.44,0,0,1,.6,0h0a.44.44,0,0,1,0,.6l-5.06,5.56A.8.8,0,0,1,21.24,19.37Z"/></svg>