<?xml version="1.0" ?><!DOCTYPE svg  PUBLIC '-//W3C//DTD SVG 1.1//EN'  'http://www.w3.org/Graphics/SVG/1.1/DTD/svg11.dtd'><svg enable-background="new 0 0 512 512" height="512px" id="Layer_1" version="1.1" viewBox="0 0 512 512" width="512px" xml:space="preserve" xmlns="http://www.w3.org/2000/svg" xmlns:xlink="http://www.w3.org/1999/xlink"><g><path d="M255.898,476.363l-15.933-18.123c-1.553-1.771-38.574-43.971-76.171-97.003c-52.978-74.702-78.74-129.94-78.74-168.863   C85.055,99.067,161.745,23.16,256,23.16c94.254,0,170.944,76.808,170.944,171.225c0,38.419-26.509,94.922-78.795,167.939   c-37.611,52.535-74.641,94.254-76.201,96.01L255.898,476.363z M256,65.967c-70.689,0-128.209,56.705-128.209,126.407   c0,16.476,9.17,57.062,70.642,143.784c21.609,30.507,43.451,57.783,57.66,74.951c14.209-16.981,35.98-43.893,57.535-74.027   c61.418-85.822,70.58-126.236,70.58-142.697C384.208,123.572,326.688,65.967,256,65.967z"/></g><g><path d="M256,123.044c-39.344,0-71.225,31.936-71.225,71.341c0,39.413,31.881,71.341,71.225,71.341   c39.343,0,71.224-31.928,71.224-71.341C327.224,154.979,295.343,123.044,256,123.044z"/></g></svg>