<svg xmlns="http://www.w3.org/2000/svg" width="127" height="127" viewBox="0 0 127 127">
  <defs>
    <linearGradient id="a" x1="6.653%" x2="93.25%" y1="1.327%" y2="97.054%">
      <stop stop-color="#FF1679" offset="0%"/>
      <stop stop-color="#FF770B" offset="100%"/>
    </linearGradient>
  </defs>
  <g fill="none" transform="translate(1 1)">
    <rect width="125" height="124.8" y=".6" fill="url(#a)" rx="62.4"/>
    <path fill="#FFFFFF" d="M61.9653021,25 L61.2481381,25.0469889 L59.9511433,25.1096408 L60.0833828,27.7149171 L61.3854662,27.6548756 L62.0517657,27.6131077 L63.8675625,27.6835911 L65.1696459,27.7331906 L65.2713646,25.1226933 L63.9692813,25.0730939 L62.0822787,25.0026105 L62.021237,25.0026105 L61.9653021,25 Z M57.1231797,25.4027997 L55.8567006,25.6834281 L53.7967631,26.1676754 L53.7408256,26.1937803 L53.6899662,26.2198853 L53.2220287,26.3739046 L51.9860677,26.7819254 L52.7998698,29.2598093 L54.0409167,28.8520497 L54.4478177,28.7189143 L56.4518073,28.244587 L57.7182865,27.9438577 L57.1231797,25.4027997 Z M68.0739037,25.5646505 L67.5144141,28.1140621 L68.7859818,28.3944295 L69.6557318,28.5823853 L71.181612,29.0616726 L72.4226589,29.4542914 L73.2059427,26.9662265 L71.9598099,26.5736077 L70.3779818,26.0739585 L70.3220443,26.0478535 L70.2661068,26.0478535 L69.3454922,25.8442348 L68.0739037,25.5646505 Z M49.3259375,27.7572071 L48.1815287,28.3740676 L46.3199584,29.378587 L46.269099,29.4046919 L46.2233177,29.4360179 L45.8113308,29.7062044 L44.7228698,30.4251353 L46.1521094,32.60725 L47.2405703,31.888319 L47.6169532,31.6481533 L49.4174922,30.6744378 L50.5619011,30.0573163 L49.3259375,27.7572071 Z M75.7948516,28.1091022 L74.5944922,30.42879 L75.7490756,31.0305096 L76.5425313,31.4434903 L77.8903907,32.3052154 L78.9890235,33.0035234 L80.3877474,30.8007859 L79.2891146,30.0972569 L77.8853047,29.2049889 L77.8395235,29.1736629 L77.7886641,29.142337 L76.9494297,28.7142154 L75.7948516,28.1091022 Z M42.4187943,32.0705317 L41.4676615,32.9578397 L39.977388,34.3547168 L39.9366849,34.3964848 L39.901086,34.4382527 L39.5247032,34.8561933 L38.6498646,35.8301698 L40.5877318,37.573982 L41.4574818,36.6052265 L41.803349,36.2175676 L43.2478464,34.8663743 L44.1989766,33.9741063 L42.4187943,32.0705317 Z M82.5951849,32.5803618 L80.8455104,34.502732 L81.8068151,35.379598 L82.3713881,35.8894281 L82.3867526,35.9155331 L83.5515078,37.174837 L84.4365157,38.1334116 L86.3437604,36.3590566 L85.45875,35.400482 L84.2838256,34.1257762 L84.2431224,34.0840082 L84.2024453,34.0370193 L83.5564896,33.4507016 L82.5951849,32.5803618 Z M62.2501328,33.0750511 C73.7813776,33.0750511 83.0834662,42.2760096 83.0834662,53.6428977 C83.0834662,59.7650359 80.0099818,63.8160055 76.6646016,68.7756892 C73.5094167,73.4534392 70.4185495,79.1205676 70.052461,87.3449392 L63.5522162,87.3449392 L63.5522162,66.7718715 C63.5618516,66.0821781 62.938112,65.4480884 62.2501328,65.4480884 C61.5621537,65.4480884 60.9383151,66.0821781 60.9480495,66.7718715 L60.9480495,87.3449392 L54.4478047,87.3449392 C54.0817162,79.1205676 50.990849,73.4534392 47.8356641,68.7756892 C44.4902839,63.8160055 41.4167995,59.7650359 41.4167995,53.6428977 C41.4167995,42.2760096 50.7188881,33.0750511 62.2501328,33.0750511 L62.2501328,33.0750511 Z M62.2501328,36.4809668 L62.2501328,36.4809668 C52.9445365,36.4809668 45.3621276,44.0495814 45.3230495,53.3776712 C45.3134141,54.0673646 45.9371615,54.7017154 46.6251328,54.7017154 C47.3131042,54.7017154 47.9369349,54.0673646 47.9272162,53.3776712 C47.9603933,45.4563784 54.3480677,39.0812831 62.2501328,39.0812831 C62.9380339,39.0812831 63.5707448,38.4657279 63.5707448,37.7760345 C63.5707448,37.0863411 62.9380339,36.461127 62.2501328,36.4707859 L62.2501328,36.4809668 Z M36.849336,38.0156781 L36.1576042,39.1220069 L35.0945756,40.8248342 L35.0640547,40.8666022 L35.0385339,40.9240331 L34.7638776,41.464406 L34.1738698,42.6268605 L36.4932058,43.8096767 L37.0832136,42.6472223 L37.3019115,42.2138798 L37.322224,42.1825538 L38.3649089,40.5102693 L39.0566407,39.4036795 L36.849336,38.0156781 Z M88.0171407,38.6223577 L85.8351354,40.0500386 L86.542125,41.1461864 L86.9337683,41.752866 L86.9389766,41.752866 L87.7629505,43.3079392 L88.3733021,44.4654337 L90.6722917,43.2416325 L90.0670287,42.0893591 L89.2379662,40.519145 L89.2124453,40.466935 L89.1819245,40.4199461 L88.7292474,39.7164171 L88.0171407,38.6223577 Z M32.988862,45.2096864 L32.6124792,46.4588093 L31.9919532,48.5036118 L31.9716407,48.5584323 L31.9614844,48.6158632 L31.8648438,49.0800096 L31.6003594,50.3594143 L34.1536641,50.8896063 L34.4181485,49.6099406 L34.4842683,49.2632665 L34.4944245,49.2319406 L35.1047761,47.212982 L35.4811589,45.9638591 L32.988862,45.2096864 Z M91.7046823,45.9032955 L89.222586,46.698453 L89.6193151,47.937656 L89.8939714,48.8043411 L90.2398386,50.3541933 L90.5195834,51.6239392 L93.0627136,51.0579834 L92.7829688,49.7832776 L92.4218464,48.1772997 L92.4116901,48.1224792 L92.3913776,48.0650483 L92.101461,47.1471975 L91.7046823,45.9032955 Z M31.0967709,53.1586505 L31.06625,54.4688591 L31.0052084,56.9007983 L31,56.9634502 L31.0049479,57.0130497 L31.0151042,57.1853425 L31.1015625,58.4905911 L33.7006433,58.3235193 L33.6141849,57.0232306 L33.6089766,56.9684102 L33.6089766,56.9423052 L33.6700183,54.5257679 L33.7005391,53.2205193 L31.0967709,53.1586505 Z M93.3984089,53.8825414 L90.7993282,53.9843508 L90.8501875,55.2895994 L90.8959688,56.4875566 L90.8349271,57.7826243 L90.7688073,59.0878729 L93.3678881,59.2157872 L93.4340078,57.9105386 L93.5001276,56.5643052 L93.505336,56.5094848 L93.5001276,56.4468328 L93.4492683,55.187529 L93.3984089,53.8825414 Z M33.8535287,60.7147348 L31.3256537,61.3368163 L31.6359193,62.6010801 L32.2259245,65.0230994 L32.2412891,65.0779198 L32.2566537,65.1301298 L32.2973568,65.2423812 L32.7144297,66.4813232 L35.1812683,65.6451809 L34.7641953,64.4059779 L34.7386745,64.3302734 L34.1639271,61.9850027 L33.8535287,60.7147348 Z M90.4432891,61.4386256 L90.1533724,62.7182914 L89.8736276,63.9418314 L89.4921589,65.1196878 L89.0954297,66.3635897 L91.5724401,67.1642292 L91.9691667,65.9252872 L92.3658959,64.6965262 L92.3862084,64.6390953 L92.3963646,64.5790538 L92.6913672,63.2944281 L92.9812839,62.0246823 L90.4432891,61.4386256 Z M35.9541537,67.908482 L33.665336,69.157866 L34.2909453,70.3049185 L35.450612,72.4361284 L35.4761328,72.4857279 L35.5066537,72.5327168 L35.6083724,72.6815151 L36.3255365,73.7724419 L38.4973698,72.3296201 L37.7751224,71.2436533 L37.7039245,71.1261809 L37.6784037,71.0896339 L36.5746849,69.0552734 L35.9541537,67.908482 Z M88.1697292,68.5561464 L87.5593776,69.7188618 L86.9998881,70.7795069 L86.3030703,71.8704337 L85.6011667,72.9718024 L87.7933464,74.3791215 L88.49525,73.2827127 L89.222586,72.1455801 L89.2531068,72.0933701 L89.2786276,72.0411602 L89.8635495,70.9246505 L90.4739011,69.772377 L88.1697292,68.5561464 Z M39.8298854,74.3177748 L37.9377995,76.1075317 L38.8278933,77.0559254 L40.4554974,78.7791146 L40.4910964,78.8208825 L40.5368776,78.8626505 L40.7148985,79.0218908 L41.686375,79.8885759 L43.4157032,77.941145 L42.4442266,77.0741988 L42.3018047,76.9410635 L42.2662058,76.9097375 L40.7250677,75.2679958 L39.8298854,74.3177748 Z M84.1363229,74.8377859 L83.2563985,75.8167223 L82.4578568,76.6836685 L82.4477006,76.6836685 L81.4914844,77.5605345 L80.5301797,78.4426215 L82.2900261,80.3699516 L83.2462448,79.4878646 L84.2889297,78.52929 L84.3296328,78.492743 L84.370336,78.4483646 L85.1739636,77.5712375 L86.058974,76.607703 L84.1363229,74.8377859 Z M45.2111511,79.5082265 L43.8480339,81.7313259 L44.9568386,82.414493 L47.021862,83.6839779 L47.0676433,83.7153038 L47.1235808,83.7414088 L47.2863412,83.8275552 L48.4510964,84.4089129 L49.6107631,82.0686022 L48.4460104,81.4872444 L48.3391875,81.437645 L46.3199427,80.193743 L45.2111511,79.5082265 Z M78.632987,79.8906643 L77.5343542,80.5840124 L76.5069271,81.2366367 L76.4764063,81.2627417 L75.3777735,81.8284364 L74.2181042,82.424935 L75.4133776,84.7448839 L76.5679584,84.1483853 L77.7734037,83.5263038 L77.8242631,83.4949779 L77.8751224,83.4636519 L78.9279792,82.7953646 L80.026612,82.0970566 L78.632987,79.8906643 Z M54.6970313,89.9554364 L62.0415964,89.9554364 C62.1810756,89.9815414 62.3242813,89.9815414 62.4637552,89.9554364 L69.8032344,89.9554364 L69.8032344,100.468431 L54.6970313,100.468431 L54.6970313,89.9554364 Z"/>
  </g>
</svg>
