<?xml version="1.0" ?><!DOCTYPE svg  PUBLIC '-//W3C//DTD SVG 1.1//EN'  'http://www.w3.org/Graphics/SVG/1.1/DTD/svg11.dtd'><svg enable-background="new 0 0 128 128" id="Layer_1" version="1.1" viewBox="0 0 128 128" xml:space="preserve" xmlns="http://www.w3.org/2000/svg" xmlns:xlink="http://www.w3.org/1999/xlink"><rect fill="#FFFFFF" height="88" width="103" x="13" y="28"/><rect fill="#B0D6EC" height="74" width="87" x="21" y="35"/><path d="M81.07,102.11l-20.03-5.25c0,0-1.49,4.47-4.07,3.78c-2.58-0.68-11.8-4.81-11.92-6.2  c-0.12-1.39,1.89-4.89,1.89-4.89l-14.92-1.01l-6.64-3.64c0,0-3.81,3.44-3.57,5.82c-0.53,0-0.81,0.04-0.81,0.19V109h63.06  L81.07,102.11z" fill="#B2DDC9"/><g><path d="M108,35H95.35c1.23,3,2.64,5.21,2.64,5.21s-10.22,1.9-10.34,2.24c-0.12,0.34-9.99,9.32-9.99,9.32   l-8.88,5.44L63.6,62.2l-9.47-1.71l-5.3,3.5l-11.58,3.03l-1.86,6.27l-4.8-1.37L27,78.1l7.99,4.35l3.09-3.54l5.05-2.03l6.52,0.01   l7.14-0.65l5.03,5.66l1.71,7.14l4.08-5.54c0,0,4.32,7.94,5.1,7.48c0.79-0.45,10.02-0.66,10.02-0.66l-1.99,10.3l7.99,8.36H108V35z" fill="#B2DDC9"/><polygon fill="#B2DDC9" points="55.04,84.96 49.65,76.91 55.04,84.96  "/><polygon fill="#B2DDC9" points="55.9,86.26 55.04,84.96 53.86,87.47  "/></g><polyline fill="#DBC5B9" points="72.73,80.35 76.1,82.55 81.27,81.46 87.05,83.78 89.52,79.37 83.5,74.37 87.94,72.59 79.57,73.69   74.4,71.86 72.74,79.33 "/><path d="M99.51,71.12l-4.69,4.75l4.17,6.01c0,0-0.26,4.3,0.48,4.42s7.14,0.02,7.14,0.02l0.98-3.94l-4.16-4.89  L99.51,71.12z" fill="#DBC5B9"/><path d="M21,41.77c3-0.27,7.69-0.72,8.33-0.82c0.8-0.12,4.78-2.96,7.6-4.96H21V41.77z" fill="#B2DDC9"/><polyline fill="none" points="  72.73,80.35 76.1,82.55 81.27,81.46 87.05,83.78 89.52,79.37 83.5,74.37 87.94,72.59 79.57,73.69 74.4,71.86 72.74,79.33 " stroke="#4A7DA7" stroke-linecap="round" stroke-linejoin="round" stroke-miterlimit="10" stroke-width="2"/><path d="M108,95.17l-4.87-1.16c0,0-4.74,2.37-4.75,2.71c-0.01,0.34,5.79,8.51,5.79,8.51l3.83-1.89V95.17z" fill="#DBC5B9"/><g><path d="M50.23,44.41c0.02,0.02,0.08-0.03,0.18-0.13C50.27,44.34,50.2,44.39,50.23,44.41z" fill="#B2DDC9"/><path d="M50.4,44.14c1.22-0.55,8.32-2.37,8.32-2.37s-2.36,10-2.49,10.61c-0.12,0.62,4.06,1.13,4.06,1.13l9.64-6.31   c1.87-1.23,0.67-5.05,2.9-4.84l5.4,3.47l2.99,0.48l6.43-2.46c0,0-4.79-3.86-9.54-7.86H56.35C54.28,39,51.18,43.32,50.4,44.14z" fill="#B2DDC9"/></g><path d="  M99.51,71.12l-4.69,4.75l4.17,6.01c0,0-0.26,4.3,0.48,4.42s7.14,0.02,7.14,0.02l0.67-4.1l-3.85-4.74L99.51,71.12z" fill="none" stroke="#4A7DA7" stroke-linecap="round" stroke-linejoin="round" stroke-miterlimit="10" stroke-width="2"/><g><path d="   M50.23,43.41c0.02,0.02,0.08-0.03,0.18-0.13C50.27,43.34,50.2,43.39,50.23,43.41z" fill="none" stroke="#4A7DA7" stroke-linecap="round" stroke-linejoin="round" stroke-miterlimit="10" stroke-width="2"/><path d="   M50.4,43.14c1.22-0.55,8.32-2.37,8.32-2.37s-2.36,10-2.49,10.61c-0.12,0.62,4.06,1.13,4.06,1.13l9.64-6.31   c1.87-1.23,0.67-5.05,2.9-4.84l5.4,3.47l2.99,0.48l6.43-2.46c0,0-4.79-3.86-9.54-7.86H56.35C54.28,38,51.18,42.32,50.4,43.14z" fill="none" stroke="#4A7DA7" stroke-linecap="round" stroke-linejoin="round" stroke-miterlimit="10" stroke-width="2"/></g><path d="  M108,95.17l-4.87-1.16c0,0-4.74,2.37-4.75,2.71c-0.01,0.34,5.79,8.51,5.79,8.51l3.83-1.89V95.17z" fill="none" stroke="#4A7DA7" stroke-linecap="round" stroke-linejoin="round" stroke-miterlimit="10" stroke-width="2"/><path d="  M82.07,102.11l-20.03-5.25c0,0-1.49,4.47-4.07,3.78c-2.58-0.68-11.8-4.81-11.92-6.2c-0.12-1.39,1.89-4.89,1.89-4.89l-14.92-1.01  l-6.64-3.64c0,0-3.81,3.44-3.57,5.82c-0.53,0-1.81,0.04-1.81,0.19V109h64.06L82.07,102.11z" fill="none" stroke="#4A7DA7" stroke-linecap="round" stroke-linejoin="round" stroke-miterlimit="10" stroke-width="2"/><g><polygon fill="none" points="   55.04,84.96 49.65,76.91 55.04,84.96  " stroke="#4A7DA7" stroke-linecap="round" stroke-linejoin="round" stroke-miterlimit="10" stroke-width="2"/><polygon fill="none" points="   55.9,86.26 55.04,84.96 53.86,87.47  " stroke="#4A7DA7" stroke-linecap="round" stroke-linejoin="round" stroke-miterlimit="10" stroke-width="2"/><path d="   M108,35H95.35c1.23,3,2.64,5.21,2.64,5.21s-10.22,1.9-10.34,2.24c-0.12,0.34-9.99,9.32-9.99,9.32l-8.88,5.44L63.6,62.2l-9.47-1.71   l-5.3,3.5l-11.58,3.03l-1.86,6.27l-4.8-1.37L27,78.1l7.99,4.35l3.09-3.54l5.05-2.03l6.52,0.01l7.14-0.65l5.03,5.66l1.71,7.14   l4.08-5.54c0,0,4.32,7.94,5.1,7.48c0.79-0.45,10.02-0.66,10.02-0.66l-1.99,10.3l7.99,8.36H108V35z" fill="none" stroke="#4A7DA7" stroke-linecap="round" stroke-linejoin="round" stroke-miterlimit="10" stroke-width="2"/></g><path d="  M21,40.77c3-0.27,7.69-0.72,8.33-0.82c0.8-0.12,4.78-2.96,7.6-4.96H21V40.77z" fill="none" stroke="#4A7DA7" stroke-linecap="round" stroke-linejoin="round" stroke-miterlimit="10" stroke-width="2"/><rect fill="none" height="88" stroke="#4A7DA7" stroke-linecap="round" stroke-linejoin="round" stroke-miterlimit="10" stroke-width="4" width="103" x="13" y="28"/><rect fill="none" height="74" stroke="#4A7DA7" stroke-linecap="round" stroke-linejoin="round" stroke-miterlimit="10" stroke-width="2" width="87" x="21" y="35"/><circle cx="84.06" cy="27.55" fill="#FFFFFF" r="10.02"/><path d="M84.06,10.19c-9.76,0-17.66,7.91-17.66,17.66c0,17.15,17.66,28.5,17.66,28.5s17.66-11.58,17.66-28.5  C101.73,18.1,93.82,10.19,84.06,10.19z M84.06,34.71c-3.97,0-7.19-3.22-7.19-7.19s3.22-7.19,7.19-7.19s7.19,3.22,7.19,7.19  S88.03,34.71,84.06,34.71z" fill="#F3B0AE"/><path d="M101.73,27.86  c0,16.92-17.66,28.5-17.66,28.5S66.4,45.01,66.4,27.86c0-9.76,7.91-17.66,17.66-17.66S101.73,18.1,101.73,27.86z" fill="none" stroke="#4A7DA7" stroke-linecap="round" stroke-miterlimit="10" stroke-width="4"/><path d="M84.06,20.36  c3.97,0,7.19,3.22,7.19,7.19s-3.22,7.19-7.19,7.19s-7.19-3.22-7.19-7.19c0-1.8,0.66-3.45,1.76-4.71" fill="none" stroke="#4A7DA7" stroke-linecap="round" stroke-miterlimit="10" stroke-width="2"/></svg>