<?xml version="1.0" encoding="UTF-8"?>
<svg width="566px" height="468px" viewBox="0 0 566 468" version="1.1" xmlns="http://www.w3.org/2000/svg" xmlns:xlink="http://www.w3.org/1999/xlink">
    <!-- Generator: Sketch 46.1 (44463) - http://www.bohemiancoding.com/sketch -->
    <title>Group</title>
    <desc>Created with Sketch.</desc>
    <defs>
        <polygon id="path-1" points="0 -0.0201386653 566 1.88380771 566 468.000708 0 468.000708"></polygon>
    </defs>
    <g id="Page-1" stroke="none" stroke-width="1" fill="none" fill-rule="evenodd">
        <g id="Popup-3" transform="translate(-437.000000, -227.000000)">
            <g id="Group" transform="translate(437.000000, 227.000000)">
                <g id="Pop-Up">
                    <mask id="mask-2" fill="white">
                        <use xlink:href="#path-1"></use>
                    </mask>
                    <use id="Mask" fill="#FFFFFF" xlink:href="#path-1"></use>
                    <g id="Group-4" mask="url(#mask-2)" fill="#DCEBEA" opacity="0.200000003">
                        <g transform="translate(99.000000, 61.500000) scale(-1, 1) translate(-99.000000, -61.500000) translate(-177.000000, -91.000000)" id="Path-2">
                            <path d="M0,8.62204192 C5.75413195,42.1694521 24.8122259,70.4768435 57.1742817,93.5442158 C105.717366,128.145274 144.521509,109.950774 188.651265,130.242912 C232.78102,150.53505 219.843218,187.107656 267.825636,221.291678 C299.813916,244.081025 369.012122,257.702915 475.420254,262.157347 L479.064514,0 L0,8.62204192 Z"></path>
                            <path d="M86.0004457,20 C92.6536315,85.3182912 113.856625,126.959016 149.609426,144.922174 C203.238628,171.866911 231.564254,158.920218 279.08641,185.62087 C326.608565,212.321522 301.856052,257.051675 357.824269,289.535305 C395.136414,311.191059 458.480124,309.191059 547.855399,283.535305 L551.499658,21.3779581 L86.0004457,20 Z"></path>
                        </g>
                    </g>
                    <g id="Group-9" opacity="0.300000012" mask="url(#mask-2)">
                        <g transform="translate(155.500000, 121.000000) scale(-1, 1) translate(-155.500000, -121.000000) translate(10.000000, 10.000000)">
                            <path d="M77.4533223,11.6192639 C77.4533223,11.6192639 79.0243556,14.1031315 80.0186856,15.1018833 C81.0436227,16.1313783 83.5111236,17.7040045 83.5111236,17.7040045 C83.5111236,17.7040045 81.0003073,19.367602 80.0186856,20.3535891 C78.9810402,21.3958489 77.4533223,23.7887451 77.4533223,23.7887451 C77.4533223,23.7887451 75.9146861,21.31962 74.9529321,20.3535891 C73.895419,19.2913731 71.395521,17.7040045 71.395521,17.7040045 C71.395521,17.7040045 73.9116175,16.1478287 74.9529321,15.1018833 C75.9308846,14.1195818 77.4533223,11.6192639 77.4533223,11.6192639 Z" id="Polygon-Copy-4" stroke="none" fill="#C8DDE7" fill-rule="evenodd" transform="translate(77.453322, 17.704005) rotate(-289.102213) translate(-77.453322, -17.704005) "></path>
                            <path d="M221.811232,113.372741 C221.811232,113.372741 223.382265,115.856608 224.376595,116.85536 C225.401532,117.884855 227.869033,119.457482 227.869033,119.457482 C227.869033,119.457482 225.358217,121.121079 224.376595,122.107066 C223.33895,123.149326 221.811232,125.542222 221.811232,125.542222 C221.811232,125.542222 220.272595,123.073097 219.310841,122.107066 C218.253328,121.04485 215.75343,119.457482 215.75343,119.457482 C215.75343,119.457482 218.269527,117.901306 219.310841,116.85536 C220.288794,115.873059 221.811232,113.372741 221.811232,113.372741 Z" id="Polygon-Copy-7" stroke="none" fill="#C8DDE7" fill-rule="evenodd" transform="translate(221.811232, 119.457482) rotate(-63.799576) translate(-221.811232, -119.457482) "></path>
                            <path d="M209.686094,2.59712836 C209.686094,2.59712836 211.257127,5.08099589 212.251457,6.07974769 C213.276394,7.10924275 215.743895,8.68186894 215.743895,8.68186894 C215.743895,8.68186894 213.233079,10.3454664 212.251457,11.3314535 C211.213812,12.3737133 209.686094,14.7666095 209.686094,14.7666095 C209.686094,14.7666095 208.147458,12.2974844 207.185704,11.3314535 C206.128191,10.2692375 203.628293,8.68186894 203.628293,8.68186894 C203.628293,8.68186894 206.144389,7.1256931 207.185704,6.07974769 C208.163656,5.09744624 209.686094,2.59712836 209.686094,2.59712836 Z" id="Polygon-Copy-5" stroke="none" fill="#C8DDE7" fill-rule="evenodd" transform="translate(209.686094, 8.681869) rotate(-324.245439) translate(-209.686094, -8.681869) "></path>
                            <path d="M32.9470533,60.9501156 C32.9470533,60.9501156 33.7786275,62.2648682 34.304943,62.7935242 C34.8474593,63.3384532 36.1535488,64.1708705 36.1535488,64.1708705 C36.1535488,64.1708705 34.8245318,65.0514405 34.304943,65.5733399 C33.7556999,66.1250254 32.9470533,67.3916254 32.9470533,67.3916254 C32.9470533,67.3916254 32.1326274,66.0846762 31.623555,65.5733399 C31.0637956,65.0110912 29.7405578,64.1708705 29.7405578,64.1708705 C29.7405578,64.1708705 31.0723698,63.3471606 31.623555,62.7935242 C32.1412016,62.2735757 32.9470533,60.9501156 32.9470533,60.9501156 Z" id="Polygon-Copy-2" stroke="none" fill="#C8DDE7" fill-rule="evenodd" transform="translate(32.947053, 64.170871) rotate(-170.460815) translate(-32.947053, -64.170871) "></path>
                            <path d="M163.978545,87.8580445 L170.942211,96.3082605 L163.978545,87.8580445 Z" id="Path-67" stroke="#C8DDE7" stroke-width="2.8" fill="none" stroke-linecap="round" stroke-linejoin="round" transform="translate(167.460378, 92.083153) rotate(-272.878022) translate(-167.460378, -92.083153) "></path>
                            <path d="M195.217598,161.256112 L193.103292,171.999878 L195.217598,161.256112 Z" id="Path-67-Copy" stroke="#C8DDE7" stroke-width="2.8" fill="none" stroke-linecap="round" stroke-linejoin="round" transform="translate(194.160445, 166.627995) rotate(-355.895705) translate(-194.160445, -166.627995) "></path>
                            <path d="M279.344015,210.780874 L277.22971,221.52464 L279.344015,210.780874 Z" id="Path-67-Copy" stroke="#C8DDE7" stroke-width="2.8" fill="none" stroke-linecap="round" stroke-linejoin="round" transform="translate(278.286863, 216.152757) rotate(-328.493659) translate(-278.286863, -216.152757) "></path>
                            <path d="M6.62492653,20.6428692 L4.51062061,31.3866352 L6.62492653,20.6428692 Z" id="Path-67-Copy" stroke="#C8DDE7" stroke-width="2.8" fill="none" stroke-linecap="round" stroke-linejoin="round" transform="translate(5.567774, 26.014752) rotate(-293.612600) translate(-5.567774, -26.014752) "></path>
                            <path d="M277.427887,62.2711833 C277.427887,65.362934 279.92315,67.8692932 283.001212,67.8692932 L283.001212,67.8692932 C286.079275,67.8692932 288.574538,65.362934 288.574538,62.2711833 C288.574538,59.1794325 286.079275,56.6730733 283.001212,56.6730733" id="Oval-22-Copy-4" stroke="#C8DDE7" stroke-width="2.8" fill="none" stroke-linecap="round" stroke-linejoin="round" transform="translate(283.001212, 62.271183) rotate(-325.231327) translate(-283.001212, -62.271183) "></path>
                            <ellipse id="Oval-22-Copy-9" stroke="#C8DDE7" stroke-width="2.8" fill="none" stroke-linecap="round" stroke-linejoin="round" transform="translate(257.842927, 169.930077) rotate(-199.197737) translate(-257.842927, -169.930077) " cx="257.842927" cy="169.930077" rx="3.87562242" ry="3.89285746"></ellipse>
                            <ellipse id="Oval-22-Copy-8" stroke="#C8DDE7" stroke-width="2.8" fill="none" stroke-linecap="round" stroke-linejoin="round" transform="translate(68.646698, 66.374707) rotate(-119.314497) translate(-68.646698, -66.374707) " cx="68.6466979" cy="66.3747067" rx="3.87562242" ry="3.89285746"></ellipse>
                            <ellipse id="Oval-22-Copy-8" stroke="#C8DDE7" stroke-width="2.8" fill="none" stroke-linecap="round" stroke-linejoin="round" transform="translate(163.886702, 127.243545) rotate(-138.500401) translate(-163.886702, -127.243545) " cx="163.886702" cy="127.243545" rx="1.875" ry="1.8833382"></ellipse>
                        </g>
                    </g>
                </g>
                <g id="Illustration" transform="translate(7.000000, 5.000000)">
                    <g id="coffee" transform="translate(24.624307, 162.977860) rotate(-285.000000) translate(-24.624307, -162.977860) translate(4.124307, 142.977860)">
                        <path d="M21.9098956,37.4652522 C32.2199457,37.4652522 40.5778927,29.1073052 40.5778927,18.7972551 C40.5778927,8.48720502 32.2199457,0.129258028 21.9098956,0.129258028 C11.5998455,0.129258028 3.24189853,8.48720502 3.24189853,18.7972551 C3.24189853,29.1073052 11.5998455,37.4652522 21.9098956,37.4652522 Z" id="Oval-Copy-3" stroke="#404F54" stroke-width="1.5" fill="#404F54" opacity="0.0500000007" stroke-linecap="round" stroke-linejoin="round"></path>
                        <circle id="Oval-Copy-4" stroke="#C8DDE7" stroke-width="1.5" fill="#FFFFFF" stroke-linecap="round" cx="18.6679971" cy="21.1821694" r="18.6679971"></circle>
                        <circle id="Oval-6" stroke="#404F54" stroke-width="1.5" fill="#404F54" opacity="0.0500000007" stroke-linecap="round" stroke-linejoin="round" cx="21.0102544" cy="19.9815702" r="10.5514766"></circle>
                        <path d="M17.044693,10.5944792 C11.9000937,11.376717 7.95807988,15.8190899 7.95807988,21.1821694 C7.95807988,27.0970933 12.7530731,31.8920866 18.6679971,31.8920866 C24.582921,31.8920866 29.3779143,27.0970933 29.3779143,21.1821694 C29.3779143,15.8190899 25.4359005,11.376717 20.2913012,10.5944792 L20.2913012,8.78359617 C20.2913012,7.87840262 19.5645232,7.15210157 18.6679971,7.15210157 C17.7652206,7.15210157 17.044693,7.88254659 17.044693,8.78359617 L17.044693,10.5944792 Z" id="Combined-Shape" stroke="#C8DDE7" stroke-width="1.5" fill="#FFFFFF" stroke-linecap="round"></path>
                        <circle id="Oval" fill="#EAF1F4" cx="18.6679971" cy="21.1821694" r="8.25217469"></circle>
                        <path d="M23.3454676,21.8892762 C23.3454676,20.191369 22.6285179,18.6609143 21.4808395,17.5841331 M17.4432522,15.9870608 C17.0263011,15.9870608 16.619448,16.0302954 16.2269314,16.112526" id="Oval-Copy-2" stroke="#FFFFFF" stroke-width="4" opacity="0.503962862" stroke-linecap="round" stroke-linejoin="round"></path>
                    </g>
                    <g id="Pen" transform="translate(60.721600, 22.384901) rotate(-100.000000) translate(-60.721600, -22.384901) translate(40.721600, 6.901030)">
                        <path d="M9.0534893,29.9693855 C8.62263725,30.2217875 8.13244306,30.369108 7.63023326,30.3705303 L2.20198144,30.3859032 C0.823574179,30.3898069 0.0537464817,29.3334124 0.484129613,28.0214831 L2.17617222,22.8636593 C2.3855763,22.2253365 2.84027382,21.6878281 3.40779627,21.3292516 C3.47606851,21.216554 3.5678838,21.1149216 3.68210871,21.0319323 L23.3419996,6.74818549 C25.7843592,4.97370733 29.2087054,5.52328546 30.982413,7.96458464 C32.7597372,10.4108615 32.2157171,13.8360213 29.7782598,15.6069377 L10.1183689,29.8906845 C9.79476677,30.1257952 9.38045979,30.1433361 9.0534893,29.9693855 Z" id="Combined-Shape" stroke="#404F54" stroke-width="1.5" fill="#404F54" opacity="0.0500000007" stroke-linecap="round" stroke-linejoin="round"></path>
                        <path d="M5.48800585,20.6120002 C5.48800585,19.2337601 6.61594328,18.1164758 7.98353029,18.1164758 L11.6203063,18.1164758 C12.9985464,18.1164758 14.2933919,19.2173654 14.5132453,20.5804694 L15.3775947,25.9394856 C15.5970807,27.3003117 14.6741197,28.2259181 13.3110157,28.0060646 L7.95199949,27.1417153 C6.59117338,26.9222292 5.48800585,25.6163632 5.48800585,24.2487762 L5.48800585,20.6120002 Z" id="Rectangle-7" stroke="#C8DDE7" stroke-width="1.5" fill="#FFFFFF" stroke-linecap="round" transform="translate(10.395459, 23.023900) rotate(-621.000000) translate(-10.395459, -23.023900) "></path>
                        <path d="M17.5936293,4.19085729 C17.5936293,1.17193473 20.0510275,-1.27538555 23.0686393,-1.27538555 L23.0686393,-1.27538555 C26.0924038,-1.27538555 28.5436492,1.17799436 28.5436492,4.19085729 L28.5436492,28.4918188 C28.5436492,29.0476365 28.1008334,29.4982157 27.5525953,29.4982157 L18.5846833,29.4982157 C18.0373393,29.4982157 17.5936293,29.0513279 17.5936293,28.4918188 L17.5936293,4.19085729 Z" id="Rectangle-Copy-2" stroke="#C8DDE7" stroke-width="1.5" fill="#FFFFFF" stroke-linecap="round" transform="translate(23.068639, 14.111415) rotate(-306.000000) translate(-23.068639, -14.111415) "></path>
                        <path d="M29.599813,7.85794394 C29.599813,6.13068852 31.0002755,4.73047133 32.7303699,4.73047133" id="Rectangle-Copy" stroke="#C8DDE7" stroke-width="1.5" fill="#FFFFFF" stroke-linecap="round" transform="translate(31.165091, 6.294208) rotate(-306.000000) translate(-31.165091, -6.294208) "></path>
                        <path d="M22.1011046,29.154472 L22.1011046,4.88588128" id="Path-40" stroke="#C8DDE7" stroke-width="1.5" fill="#FFFFFF" stroke-linecap="round" transform="translate(22.101105, 17.020177) rotate(-306.000000) translate(-22.101105, -17.020177) "></path>
                        <path d="M17.9364453,24.785852 L17.9364453,4.09473686" id="Path-40-Copy" stroke="#C8DDE7" stroke-width="1.5" fill="#FFFFFF" stroke-linecap="round" transform="translate(17.936445, 14.595858) rotate(-306.000000) translate(-17.936445, -14.595858) "></path>
                        <path d="" id="Path-41" stroke="#FF0000" stroke-width="2" transform="translate(14.290361, 29.726883) rotate(-306.000000) translate(-14.290361, -29.726883) "></path>
                    </g>
                    <g id="Paper" transform="translate(177.760961, 48.469377) rotate(-23.000000) translate(-177.760961, -48.469377) translate(148.760961, 12.469377)">
                        <g id="paper-copy" transform="translate(0.903903, 0.169826)">
                            <path d="M55.2923396,31.0900692 L55.2923396,68.5608722 C55.2923396,69.8370787 54.2623647,70.8716484 52.993474,70.8716484 L6.02898803,70.8716484 C4.75935962,70.8716484 3.73012243,69.8412143 3.73012243,68.573958 L3.73012243,5.85348023 L3.73012243,5.85348023 C3.73012243,4.58450085 4.76009726,3.55578981 6.02898803,3.55578981 L52.993474,3.55578981 C54.2631024,3.55578981 55.2923396,4.58547797 55.2923396,5.85723205 L55.2923396,24.3197528 M55.2923396,26.6753035 L55.2923396,27.8811501" id="Rectangle" stroke="#404F54" stroke-width="1.5" fill="#404F54" opacity="0.0500000007" stroke-linecap="round" stroke-linejoin="round"></path>
                            <path d="M52.2102432,27.8495935 L52.2102432,65.3203966 C52.2102432,66.5966031 51.1802684,67.6311728 49.9113776,67.6311728 L2.9468917,67.6311728 C1.67726329,67.6311728 0.648026096,66.6007386 0.648026096,65.3334824 L0.648026096,2.61300462 L0.648026096,2.61300462 C0.648026096,1.34402524 1.67800093,0.315314199 2.9468917,0.315314199 L49.9113776,0.315314199 C51.1810061,0.315314199 52.2102432,1.34500235 52.2102432,2.61675644 L52.2102432,21.0792772 M52.2102432,23.4348279 L52.2102432,24.6406745" id="Rectangle" stroke="#C8DDE7" stroke-width="1.5" fill="#FFFFFF" stroke-linecap="round"></path>
                            <path d="M7.60129369,15.3643862 L9.87894391,8.81951777 L11.5174117,8.81951777 L13.7860593,15.3643862 L11.9630389,15.3643862 L11.5669258,14.08152 L9.8204272,14.08152 L9.43331669,15.3643862 L7.60129369,15.3643862 Z M10.0905043,12.8841781 L11.2788435,12.8841781 L10.6981778,10.8585999 L10.0905043,12.8841781 Z" id="A" fill="#C8DDE7"></path>
                            <rect id="Rectangle-4" fill="#C8DDE7" x="7.68219309" y="35.3380882" width="16.1326055" height="9.98685102"></rect>
                            <rect id="Rectangle-4-Copy" fill="#C8DDE7" x="26.8876758" y="35.3380882" width="16.1326055" height="9.98685102"></rect>
                            <path d="M19.3521852,9.21863171 L37.7851509,9.21863171" id="Path-5" stroke="#C8DDE7" stroke-width="2" stroke-linecap="round" stroke-linejoin="round"></path>
                            <path d="M19.3521852,13.8279476 L30.1029578,13.8279476" id="Path-5-Copy" stroke="#E9F1F4" stroke-width="2" stroke-linecap="round" stroke-linejoin="round"></path>
                            <path d="M7.82889561,20.7419213 L24.5900241,20.7419213" id="Path-5-Copy-3" stroke="#C8DDE7" stroke-width="2" stroke-linecap="round" stroke-linejoin="round"></path>
                            <polyline id="Path" stroke="#C8DDE7" stroke-width="2" stroke-linecap="round" stroke-linejoin="round" points="29.7345636 20.7419213 35.750187 20.7419213 39.0243812 20.7419213 46.2355633 20.7419213"></polyline>
                            <path d="M7.82889561,25.3512372 L16.4546759,25.3512372 M18.7671029,25.3512372 L35.8940597,25.3512372 M39.1342477,25.3512372 L46.2355633,25.3512372" id="Path-5-Copy-2" stroke="#E9F1F4" stroke-width="2" stroke-linecap="round" stroke-linejoin="round"></path>
                            <path d="M7.82889561,29.9605531 L30.8711771,29.9605531" id="Path-5-Copy-4" stroke="#E9F1F4" stroke-width="2" stroke-linecap="round" stroke-linejoin="round"></path>
                            <path d="M7.82889561,50.7024744 L24.5900241,50.7024744 M29.7345636,50.7024744 L35.750187,50.7024744 L39.0243812,50.7024744" id="Path-5-Copy-6" stroke="#C8DDE7" stroke-width="2" stroke-linecap="round" stroke-linejoin="round"></path>
                            <path d="M7.82889561,55.3117903 L30.8711771,55.3117903" id="Path-5-Copy-5" stroke="#C8DDE7" stroke-width="2" stroke-linecap="round" stroke-linejoin="round"></path>
                        </g>
                    </g>
                    <g id="Task" transform="translate(82.500000, 89.500000) rotate(20.000000) translate(-82.500000, -89.500000) translate(20.000000, 27.000000)">
                        <g id="Group-3" transform="translate(12.805003, 0.131034)">
                            <rect id="Rectangle-2" stroke="#404F54" stroke-width="2" fill="#E1EBF0" stroke-linecap="round" transform="translate(50.428659, 68.749249) rotate(-349.000000) translate(-50.428659, -68.749249) " x="9" y="20.8610574" width="82.8573183" height="95.776384" rx="3"></rect>
                            <rect id="Rectangle-2-Copy" stroke="#404F54" stroke-width="2" fill="#FFFFFF" stroke-linecap="round" x="9" y="19.8610574" width="82.8573183" height="95.776384" rx="3"></rect>
                            <g id="Group-4" transform="translate(28.147298, 0.404390)">
                                <circle id="Oval-10-Copy-5" fill="#E0EAEF" cx="26.8828455" cy="27.1484338" r="22.2934089"></circle>
                                <circle id="Oval-10-Copy" fill="#FFFFFF" cx="22.5686314" cy="23.0265536" r="22.2934089"></circle>
                                <circle id="Oval-10-Copy-4" stroke="#404F54" stroke-width="2" stroke-linecap="round" cx="22.5686314" cy="23.0265536" r="22.2934089"></circle>
                                <g id="Group-6" transform="translate(11.080901, 6.014525)">
                                    <ellipse id="Oval-5" stroke="#404F54" stroke-width="1.3" fill="#F5F6F7" stroke-linecap="round" cx="2.42218906" cy="19.9713505" rx="2.15327904" ry="2.14206683"></ellipse>
                                    <ellipse id="Oval-5-Copy" stroke="#404F54" stroke-width="1.3" fill="#F5F6F7" stroke-linecap="round" cx="21.1767367" cy="19.9713505" rx="2.15327904" ry="2.14206683"></ellipse>
                                    <rect id="Rectangle-31-Copy-8" stroke="#404F54" stroke-width="1.3" fill="#FF8F5C" stroke-linecap="round" x="3.13281059" y="23.7909191" width="17.3118901" height="7.39617119" rx="3.6980856"></rect>
                                    <circle id="Oval-3" stroke="#404F54" stroke-width="1.3" fill="#FFA47B" cx="11.9946521" cy="4.8626968" r="4.33748468"></circle>
                                    <path d="M9.16584645,8.15089982 C9.92530809,8.80485129 10.9138129,9.20018148 11.9946521,9.20018148 C14.3901787,9.20018148 16.3321368,7.25822344 16.3321368,4.8626968 C16.3321368,4.39389996 16.2577652,3.94247355 16.1201769,3.5195725 C15.3607153,2.86562103 14.3722104,2.47029084 13.2913713,2.47029084 C10.8958446,2.47029084 8.95388657,4.41224888 8.95388657,6.80777552 C8.95388657,7.27657236 9.02825818,7.72799877 9.16584645,8.15089982 Z" id="Combined-Shape" fill="#FF8F5C"></path>
                                    <circle id="Oval-3-Copy" stroke="#404F54" stroke-width="1.3" cx="11.9946521" cy="4.8626968" r="4.33748468"></circle>
                                    <rect id="Rectangle-31-Copy-10" stroke="#404F54" stroke-width="1.3" fill="#F5F6F7" stroke-linecap="round" x="9.71555337" y="26.3225908" width="4.14640456" height="7.39617119" rx="2.07320228"></rect>
                                    <rect id="Rectangle-31" stroke="#404F54" stroke-width="1.3" fill="#FFFFFF" stroke-linecap="round" x="3.13281059" y="6.87999006" width="17.3118901" height="23.0103811" rx="8.65594506"></rect>
                                    <polyline id="Path-35" stroke="#404F54" stroke-width="0.975" stroke-linecap="round" stroke-linejoin="round" points="11.0124551 20.8466303 11.0124551 23.3016989 11.72966 23.3016989"></polyline>
                                    <path d="M10.1931401,25.1168917 C10.1931401,25.9107311 10.8366741,26.5542651 11.6305135,26.5542651 C12.4243529,26.5542651 13.0678869,25.9107311 13.0678869,25.1168917" id="Oval-5-Copy-2" stroke="#FF8F5C" stroke-width="1.3" fill="#F5F6F7" stroke-linecap="round"></path>
                                    <path d="M9.09033977,7.3098024 C5.63560215,8.44404546 3.13281059,11.6957004 3.13281059,15.5300539 L3.13281059,18.3516163 C3.81573288,18.2011518 6.72964445,17.5597866 10.5321966,16.7320164 C14.8921615,15.7829041 16.612942,14.3328802 16.612942,14.3328802 C16.612942,14.3328802 17.4258562,16.4466723 18.0261632,17.5171393 C18.5406632,18.4345951 19.8135842,19.7898011 19.8135842,19.7898011 L19.8135842,17.1206997 C19.8135842,17.1206997 20.088902,17.2196036 20.4447007,17.2500429 L20.4447007,15.5300539 C20.4447007,11.8518708 18.1429554,8.70544546 14.8990437,7.4557662 C13.323742,7.24510708 11.501646,7.30515945 9.40279097,7.30515945 C9.29748765,7.30515945 9.19334194,7.30671838 9.09033977,7.3098024 Z" id="Combined-Shape" fill="#DAE2E6"></path>
                                    <path d="M14.4769847,20.0684336 C14.4769847,20.6205035 14.9268684,21.0680446 15.481828,21.0680446 C16.0367876,21.0680446 16.4866712,20.6205035 16.4866712,20.0684336" id="Oval-5-Copy-7" stroke="#404F54" stroke-width="0.975" fill="#F5F6F7" stroke-linecap="round" transform="translate(15.481828, 20.568434) rotate(-180.000000) translate(-15.481828, -20.568434) "></path>
                                    <path d="M7.10849428,20.0684336 C7.10849428,20.6205035 7.55837794,21.0680446 8.11333754,21.0680446 C8.66829715,21.0680446 9.1181808,20.6205035 9.1181808,20.0684336" id="Oval-5-Copy-8" stroke="#404F54" stroke-width="0.975" fill="#F5F6F7" stroke-linecap="round" transform="translate(8.113338, 20.568434) rotate(-180.000000) translate(-8.113338, -20.568434) "></path>
                                    <path d="M6.46013471,16.8304008 C6.46013471,17.7386853 7.20029883,18.4749953 8.11333754,18.4749953 C9.02637626,18.4749953 9.76654038,17.7386853 9.76654038,16.8304008" id="Oval-5-Copy-12" stroke="#404F54" stroke-width="0.975" stroke-linecap="round" transform="translate(8.113338, 17.652698) rotate(-180.000000) translate(-8.113338, -17.652698) "></path>
                                    <path d="M13.59209,16.8304008 C13.59209,17.7386853 14.3322541,18.4749953 15.2452929,18.4749953 C16.1583316,18.4749953 16.8984957,17.7386853 16.8984957,16.8304008" id="Oval-5-Copy-13" stroke="#404F54" stroke-width="0.975" stroke-linecap="round" transform="translate(15.245293, 17.652698) rotate(-180.000000) translate(-15.245293, -17.652698) "></path>
                                    <path d="M17.0859152,12.2080621 C17.0859152,12.2080621 14.9432895,13.9891515 10.5833246,14.9382638 C6.22335972,15.8873761 3.23767655,16.3575001 3.23767655,16.3575001 L3.03284811,18.3689196 L1.17028735,18.3689196 C1.17028735,18.3689196 0.331455415,12.5645333 1.77158613,10.0217481 C3.21171684,7.47896287 5.52054807,5.36008073 9.40279097,5.36008073 C13.2850339,5.36008073 16.2203805,5.15461913 18.3984635,6.83693494 C20.5765464,8.51925074 22.0125616,11.5695166 22.0125616,13.7675442 C22.0125616,15.9655718 22.0125616,18.1718305 22.0125616,18.1718305 L20.4303361,18.1718305 C20.4303361,18.1718305 18.9129634,16.5281394 18.3984635,15.6106836 C17.7981564,14.5402166 17.0859152,12.2080621 17.0859152,12.2080621 Z" id="Path-54" stroke="#404F54" stroke-width="1.3" fill="#FFA47B"></path>
                                    <path d="M3.36480539,16.3370236 C3.97684817,16.2373009 6.74850516,15.7730582 10.5833246,14.9382638 C14.9432895,13.9891515 17.0859152,12.2080621 17.0859152,12.2080621 C17.0859152,12.2080621 17.7981564,14.5402166 18.3984635,15.6106836 C18.6495831,16.0584799 19.139614,16.6792849 19.5755147,17.1975357 C19.5755147,15.9544174 19.5755147,14.6811986 19.5755147,13.9750765 C19.5755147,12.2851501 18.4714522,9.9399909 16.79686,8.64656318 C15.1222679,7.35313546 12.8654629,7.51110208 9.88064841,7.51110208 C6.89583395,7.51110208 5.12071759,9.14017842 4.01349089,11.0951674 C3.48703411,12.0247125 3.35669498,14.2540616 3.36480539,16.3370236 Z" id="Combined-Shape" fill="#FF8F5C"></path>
                                    <path d="M17.0859152,12.2080621 C17.0859152,12.2080621 14.9432895,13.9891515 10.5833246,14.9382638 C6.22335972,15.8873761 3.23767655,16.3575001 3.23767655,16.3575001 L3.08176,18.3689196 L1.17028735,18.3689196 C1.17028735,18.3689196 0.331455415,12.5645333 1.77158613,10.0217481 C3.21171684,7.47896287 5.52054807,5.36008073 9.40279097,5.36008073 C13.2850339,5.36008073 16.2203805,5.15461913 18.3984635,6.83693494 C20.5765464,8.51925074 22.0125616,11.5695166 22.0125616,13.7675442 C22.0125616,15.9655718 22.0125616,18.1718305 22.0125616,18.1718305 L20.4303361,18.1718305 C20.4303361,18.1718305 18.9129634,16.5281394 18.3984635,15.6106836 C17.7981564,14.5402166 17.0859152,12.2080621 17.0859152,12.2080621 Z" id="Path-54-Copy-3" stroke="#404F54" stroke-width="1.3"></path>
                                    <path d="M17.0859152,14.1531409 C17.0859152,14.1531409 14.9432895,15.9342302 10.5833246,16.8833425 C6.22335972,17.8324548 3.23767655,18.3025788 3.23767655,18.3025788 L3.08176,20.3139983 L1.17028735,20.3139983 C1.17028735,20.3139983 0.331455415,14.509612 1.77158613,11.9668268 C3.21171684,9.42404159 5.52054807,7.30515945 9.40279097,7.30515945 C13.2850339,7.30515945 16.2203805,7.09969785 18.3984635,8.78201366 C20.5765464,10.4643295 22.0125616,13.5145953 22.0125616,15.7126229 C22.0125616,17.9106505 22.0125616,20.1169092 22.0125616,20.1169092 L20.4303361,20.1169092 C20.4303361,20.1169092 18.9129634,18.4732181 18.3984635,17.5557623 C17.7981564,16.4852953 17.0859152,14.1531409 17.0859152,14.1531409 Z" id="Path-54-Copy-6"></path>
                                </g>
                            </g>
                            <path d="M36.584802,55.169604 L65.8596625,55.169604" id="Path-93" stroke="#1EA69A" stroke-width="2" fill="#F5F6F7" stroke-linecap="round" stroke-linejoin="round"></path>
                            <path d="M31.0678416,61.7899564 L71.3766229,61.7899564" id="Path-93-Copy" stroke="#C3D2DA" stroke-width="2" fill="#F5F6F7" stroke-linecap="round" stroke-linejoin="round"></path>
                            <rect id="Rectangle-7" fill="#E1FFFC" x="17.8271366" y="73.9272693" width="63.9967406" height="33.1017624"></rect>
                            <path d="M17.8271366,104.290562 C17.8271366,104.290562 22.6309296,104.149339 24.7762078,103.131511 C27.5769457,101.802699 33.0943692,88.4917128 36.5150502,86.7909594 C42.3278649,83.9008438 50.4935098,95.2912291 56.4483153,93.487412 C61.8243997,91.8588998 69.9835953,80.8589281 73.9850007,77.602202 C80.8111761,72.0464081 82.32258,77.7082759 82.32258,77.7082759 L81.8238772,107.029032 L17.8271366,107.029032 L17.8271366,104.290562 Z" id="Rectangle-7-Copy" fill="#9BE8E2"></path>
                            <path d="M20.0822116,103.696675 C30.212317,103.696675 31.4935791,86.7457864 38.6117018,86.7457864 C45.7298244,86.7457864 51.0175727,96.3711302 58.7824276,92.8210583 C66.5472826,89.2709863 70.2609088,75.9018663 80.3666093,75.9018663" id="Path-94" stroke="#1EA69A" stroke-width="2" stroke-linecap="round" stroke-linejoin="round"></path>
                        </g>
                        <g id="pen" transform="translate(21.805003, 86.725376) rotate(-45.000000) translate(-21.805003, -86.725376) translate(13.305003, 65.225376)">
                            <path d="M2.63291183,31.4313068 C2.63291183,30.0556825 3.75763308,28.9405187 5.12369997,28.9405187 L9.62223687,28.9405187 C10.9978612,28.9405187 12.2911488,30.0448966 12.5108545,31.4070846 L13.5382739,37.7771442 C13.757989,39.139391 12.8317254,40.0655864 11.4695374,39.8458807 L5.09947779,38.8184614 C3.73723102,38.5987462 2.63291183,37.2959106 2.63291183,35.9298437 L2.63291183,31.4313068 Z" id="Rectangle-7" stroke="#404F54" stroke-width="1.5" fill="#FFFFFF" stroke-linecap="round" transform="translate(8.101717, 34.409324) rotate(-315.000000) translate(-8.101717, -34.409324) "></path>
                            <path d="M2.34823043,6.37871183 C2.34823043,3.06156899 5.04837947,0.372493396 8.36408201,0.372493396 L8.36408201,0.372493396 C11.6865451,0.372493396 14.3799336,3.06822721 14.3799336,6.37871183 L14.3799336,33.1923618 C14.3799336,33.7411464 13.9229685,34.1860243 13.3748118,34.1860243 L3.35335219,34.1860243 C2.79823877,34.1860243 2.34823043,33.733595 2.34823043,33.1923618 L2.34823043,6.37871183 Z" id="Rectangle-Copy-2" stroke="#404F54" stroke-width="1.5" fill="#FF8F5C" stroke-linecap="round"></path>
                            <path d="M4.92427712,6.75151532 C4.92427712,4.85363525 6.46308253,3.31509946 8.36408201,3.31509946" id="Rectangle-Copy" stroke="#FFFFFF" stroke-width="1.5" stroke-linecap="round"></path>
                            <path d="M10.3248999,33.3509199 L10.3248999,6.68498849" id="Path-40" stroke="#FFFFFF" stroke-width="1.5" stroke-linecap="round"></path>
                            <path d="M5.48009879,33.3509199 L5.48009879,10.6158603" id="Path-40-Copy" stroke="#FFFFFF" stroke-width="1.5" stroke-linecap="round"></path>
                            <path d="" id="Path-41" stroke="#FF0000" stroke-width="2"></path>
                        </g>
                        <g id="Group-3" transform="translate(85.805003, 56.012172)">
                            <circle id="Oval-10" fill="#FFFFFF" cx="18.7789571" cy="18.2590318" r="18.1767491"></circle>
                            <circle id="Oval-10-Copy-2" fill="#71D5CA" cx="20.3218892" cy="19.8019639" r="18.1767491"></circle>
                            <circle id="Oval-10-Copy-7" fill="#1CC1B6" cx="21.6010292" cy="21.7389131" r="15.5819906"></circle>
                            <circle id="Oval-10-Copy-3" stroke="#404F54" stroke-width="1.5" stroke-linecap="round" cx="18.7789571" cy="18.2590318" r="18.1767491"></circle>
                            <path d="M19.8493549,25.0274709 C16.6811494,25.0274709 16.5521858,23.1446025 16.5521858,21.4078929 L16.5521858,15.7979767 L15.0734033,15.7979767 L15.3098366,14.1257488 C16.7886191,13.8893156 17.3216686,12.754436 17.7085594,11.4905928 L19.1013661,11.4905928 L19.1013661,13.9323034 L22.3985352,13.9323034 L21.7537173,15.7936779 L19.0970673,15.7936779 L19.0970673,21.2961244 C19.0970673,22.6029555 19.5914277,22.9898462 20.489874,22.9898462 C21.1088993,22.9898462 21.6462476,22.7749068 21.9901505,22.5814615 L22.484511,24.3353663 C21.8826808,24.7265558 20.8767649,25.0274709 19.8493549,25.0274709 L19.8493549,25.0274709 L19.8493549,25.0274709 Z" id="Shape-path" fill="#FFFFFF"></path>
                        </g>
                    </g>
                </g>
            </g>
        </g>
    </g>
</svg>