<?xml version="1.0" ?><!DOCTYPE svg  PUBLIC '-//W3C//DTD SVG 1.1//EN'  'http://www.w3.org/Graphics/SVG/1.1/DTD/svg11.dtd'><svg enable-background="new 0 0 128 128" id="Слой_1" version="1.1" viewBox="0 0 128 128" xml:space="preserve" xmlns="http://www.w3.org/2000/svg" xmlns:xlink="http://www.w3.org/1999/xlink"><g><path d="M64,1.5C29.5,1.5,1.5,29.5,1.5,64s28,62.5,62.5,62.5c34.5,0,62.5-28,62.5-62.5S98.5,1.5,64,1.5z M64,6.5   c31.7,0,57.5,25.8,57.5,57.5c0,11.3-3.3,21.8-8.9,30.7C100.6,80,83,71.5,64,71.5c-18.8,0-36.8,8.6-48.6,23.2   C9.8,85.8,6.5,75.3,6.5,64C6.5,32.3,32.3,6.5,64,6.5z M64,121.5c-18.5,0-35.1-8.8-45.6-22.5C29.3,84.9,46.2,76.5,64,76.5   c17.9,0,34.5,8.1,45.5,22.3c0,0,0.1,0.1,0.1,0.1C99.1,112.6,82.6,121.5,64,121.5z" fill="#4A374F"/><path d="M64,64c11,0,20-9,20-20s-9-20-20-20c-11,0-20,9-20,20S53,64,64,64z M64,29c8.3,0,15,6.7,15,15   s-6.7,15-15,15c-8.3,0-15-6.7-15-15S55.7,29,64,29z" fill="#4A374F"/></g></svg>