<?xml version="1.0" encoding="UTF-8" standalone="no"?>
<svg width="145px" height="145px" viewBox="0 0 145 145" version="1.1" xmlns="http://www.w3.org/2000/svg" xmlns:xlink="http://www.w3.org/1999/xlink">
    <!-- Generator: Sketch 40.3 (33839) - http://www.bohemiancoding.com/sketch -->
    <title>Artboard</title>
    <desc>Created with Sketch.</desc>
    <defs></defs>
    <g id="Page-1" stroke="none" stroke-width="1" fill="none" fill-rule="evenodd">
        <g id="Artboard">
            <g id="copy" transform="translate(22.000000, 29.000000)" fill="#000000">
                <g id="Слой_1">
                    <g id="Group">
                        <path d="M2.5,88.8700027 C1.1,88.8700027 0,87.9389837 0,86.7540503 L0,2.11595245 C0,0.931019076 1.1,0 2.5,0 L102.5,0 C103.9,0 105,0.931019076 105,2.11595245 L105,86.7540503 C105,87.9389837 103.9,88.8700027 102.5,88.8700027 L2.5,88.8700027 Z M102,85.6400032 L102,3.22999954 L3,3.22999954 L3,85.6400032 L102,85.6400032 Z" id="Shape"></path>
                    </g>
                </g>
            </g>
            <polygon id="Triangle" fill="#000000" transform="translate(75.000000, 114.500000) scale(-1, 1) translate(-75.000000, -114.500000) " points="75 111 84 118 66 118"></polygon>
            <path d="M47.5,74 L101.509258,74" id="Line" stroke="#000000" stroke-width="4" stroke-linecap="square"></path>
        </g>
    </g>
</svg>