<svg xmlns="http://www.w3.org/2000/svg" xmlns:xlink="http://www.w3.org/1999/xlink" viewBox="0 0 430.37 390.39"><defs><style>.cls-1,.cls-17{fill:none;}.cls-2,.cls-21{fill:#ebebf3;}.cls-3{clip-path:url(#clip-path);}.cls-4{fill:#d1d1f3;}.cls-5{fill:#e0e0f3;}.cls-6{fill:#bcbcd6;}.cls-7{fill:#bebede;}.cls-8{fill:#353647;}.cls-9{fill:#445a8c;}.cls-10{fill:#5570b0;}.cls-11{fill:#4e5069;}.cls-12,.cls-27{opacity:0.2;}.cls-13{fill:#ffe80f;}.cls-14{fill:#3b3b3b;}.cls-15{fill:#6257a8;}.cls-16{fill:#ff455a;}.cls-17{stroke:#ba8354;stroke-miterlimit:10;stroke-width:1.57px;}.cls-18{fill:#88abcf;}.cls-19{fill:#344c63;}.cls-20{opacity:0.3;fill:url(#linear-gradient);}.cls-21{opacity:0.1;}.cls-22,.cls-34{fill:#f5f6f8;}.cls-22,.cls-36{opacity:0.7;}.cls-23{fill:#636173;}.cls-24,.cls-27{fill:#fff;}.cls-25{fill:#cfc5fa;}.cls-26{fill:#b0cdeb;}.cls-28{fill:#ffd730;}.cls-29{fill:#20e691;}.cls-30{fill:#7aa4cc;}.cls-31{fill:#ccc;}.cls-32{clip-path:url(#clip-path-2);}.cls-33{opacity:0.15;}.cls-35{fill:#8eb3db;}.cls-37{clip-path:url(#clip-path-3);}.cls-38{fill:#6b8ede;}.cls-39{fill:aqua;}.cls-40{fill:#edac90;}.cls-41{fill:#4f4f4f;}.cls-42{fill:#4c4e66;}.cls-43{fill:#45465c;}.cls-44{fill:#575773;}.cls-45{fill:#fdd691;}.cls-46{fill:#f55c2f;}.cls-47{fill:#91343f;}</style><clipPath id="clip-path"><path class="cls-1" d="M390,379.1H37.79a25.76,25.76,0,0,1-.56-2.75c-1.9-13.65-29.81-41.53-8.81-57.77,32.14-24.84,47.3-51,25.77-78-37-46.47-48.7-77.78-10.6-109.14,51.13-42.08,0-99.09,47.82-121,48-22,44.05,3.93,122.62,4.28,21.89.09,50.57-30,96.32-4.28,53.42,30,0,72.22,44.25,111.64,52.28,46.57-2.65,85.65,8.81,120.38,6.31,19.14,37.51,40.83,37.51,77.54C400.92,348.83,400.92,372.8,390,379.1Z"/></clipPath><linearGradient id="linear-gradient" x1="220.91" y1="158.94" x2="220.91" y2="298.89" gradientUnits="userSpaceOnUse"><stop offset="0" stop-color="#fff"/><stop offset="1" stop-color="#fff" stop-opacity="0"/></linearGradient><clipPath id="clip-path-2"><rect class="cls-1" x="227.97" y="141.91" width="59.19" height="69.82"/></clipPath><clipPath id="clip-path-3"><rect class="cls-1" x="232.81" y="270.05" width="62.13" height="23.25" rx="5.46" ry="5.46"/></clipPath></defs><title>Asset 3</title><g id="Layer_2" data-name="Layer 2"><g id="OBJECTS"><path class="cls-2" d="M376.59,379.1H37.79a25.76,25.76,0,0,1-.56-2.75c-1.9-13.65-29.81-41.53-8.81-57.77,32.14-24.84,47.3-51,25.77-78-37-46.47-48.7-77.78-10.6-109.14,51.13-42.08,0-99.09,47.82-121,48-22,44.05,3.93,122.62,4.28,21.89.09,50.57-30,96.32-4.28,53.42,30,0,72.22,44.25,111.64,52.28,46.57-2.65,85.65,8.81,120.38,6.31,19.14,37.51,40.83,37.51,77.54C400.92,348.83,390.7,376.81,376.59,379.1Z"/><g class="cls-3"><path class="cls-4" d="M16.22,177.1s23.85,2.76,26.72-5.75S48.56,144,65.8,141s15.5,39.57,47.12,55.15S217.75,217.3,221.5,256.72s83.64,12.11,76.54-44.8,31.62-61.54,56.35-48.86,41.46,29.59,43,61.92-63.79,116.88-63.79,116.88L112.92,357.68,0,293.4Z"/><path class="cls-5" d="M8.59,194.24s46.39-19,78.16,21.08S234,348,267.82,340.85s43.1-47.28,72.32-72.09,62.62-6.44,72.17,31.62,9.51,90,9.51,90L8.59,384.25Z"/></g><rect class="cls-6" x="14.69" y="377.24" width="390.92" height="1.86"/><path class="cls-7" d="M87.45,250.11h4.14l.06-.32-2-11.19Zm-6.86,36.7h4.14L87.3,273H83.17ZM84,268.46h4.14l2.57-13.77H86.6ZM65.61,367h4.13l.56-3-2-11.2Zm8.12-43.44h4.14l2.57-13.77H76.3Zm3.43-18.35H81.3l2.57-13.77H79.73ZM66.28,341.85h-34l2.57-13.76H63.77l-.84-4.58H35.71l2.58-13.77H60.42l-.83-4.58H39.14l2.58-13.77H57.08l-.84-4.58H42.57L45.15,273h8.58l-.83-4.58H46l2.57-13.77h1.81l-.84-4.58h-.11l.05-.32-2-11.19-21.31,114,3,5.87,2.24-12H67.11Zm6.12,10.89,1.18-6.3H71.25Zm-2-11.2,0,.31h4L77,328.09H72.87Z"/><polygon class="cls-4" points="99.69 236.34 46.57 236.34 45.56 230.84 98.69 230.84 99.69 236.34"/><polygon class="cls-4" points="99.54 254.69 53.41 254.69 52.57 250.11 98.7 250.11 99.54 254.69"/><polygon class="cls-4" points="102.89 273.04 56.76 273.04 55.92 268.46 102.05 268.46 102.89 273.04"/><polygon class="cls-4" points="106.23 291.39 60.1 291.39 59.27 286.81 105.39 286.81 106.23 291.39"/><polygon class="cls-4" points="109.58 309.74 63.45 309.74 62.61 305.16 108.74 305.16 109.58 309.74"/><polygon class="cls-4" points="112.92 328.09 66.79 328.09 65.96 323.51 112.09 323.51 112.92 328.09"/><polygon class="cls-4" points="116.27 346.44 70.14 346.44 69.3 341.86 115.43 341.86 116.27 346.44"/><polygon class="cls-4" points="77.85 366.95 73.72 366.95 49.91 236.34 54.04 236.34 77.85 366.95"/><polygon class="cls-4" points="120.01 366.95 115.87 366.95 92.06 236.34 96.19 236.34 120.01 366.95"/><path class="cls-8" d="M284.14,364.73H100.81A1.82,1.82,0,0,0,99,366.56h0a1.82,1.82,0,0,0,1.82,1.82H284.14a1.83,1.83,0,0,0,1.83-1.82h0A1.83,1.83,0,0,0,284.14,364.73Z"/><path class="cls-9" d="M122.77,301.43v50.29a13.54,13.54,0,0,0,13.54,13.53h25.78c0-.09,0-.18,0-.27,0-16.69,10.6-32.12,23.69-32.12s23.69,15.43,23.69,32.12c0,.09,0,.18,0,.27h25.78a13.54,13.54,0,0,0,13.54-13.53V301.43Z"/><path class="cls-10" d="M130.65,301.43v50.29a13.53,13.53,0,0,0,13.53,13.53H170c0-.09,0-.18,0-.27,0-16.69,10.61-30.21,23.7-30.21s23.69,13.52,23.69,30.21c0,.09,0,.18,0,.27h25.78a13.53,13.53,0,0,0,13.53-13.53V301.43Z"/><path class="cls-11" d="M99.9,147.61h0a0,0,0,0,1,0,0V301.43a0,0,0,0,1,0,0h0a20.48,20.48,0,0,1-20.48-20.48V168.09A20.48,20.48,0,0,1,99.9,147.61Z"/><ellipse class="cls-12" cx="89.65" cy="252.52" rx="4.72" ry="6.45"/><ellipse class="cls-12" cx="89.65" cy="266.58" rx="4.72" ry="6.45"/><ellipse class="cls-12" cx="89.65" cy="280.82" rx="4.72" ry="6.45"/><path class="cls-13" d="M62.39,285.49h25.7a4.67,4.67,0,0,0,4.67-4.67h0a4.67,4.67,0,0,0-4.67-4.67H62.39a4.67,4.67,0,0,0-4.67,4.67h0A4.67,4.67,0,0,0,62.39,285.49Z"/><path class="cls-14" d="M60.87,279.78H57.19a10.37,10.37,0,0,0-10.35,10.36v60.34a8.28,8.28,0,0,1-8.28,8.27H29.17c.37.72.75,1.42,1.12,2.08h8.27a10.37,10.37,0,0,0,10.36-10.35V290.14a8.28,8.28,0,0,1,8.27-8.28h3.68a1,1,0,0,0,0-2.08Z"/><rect class="cls-15" x="57.72" y="247.85" width="35.04" height="9.34" rx="4.67" ry="4.67"/><path class="cls-14" d="M60.87,251.48A8.93,8.93,0,0,0,52,260.4v80.43a6.85,6.85,0,0,1-6.84,6.84H24c.25.59.56,1.29.91,2.07H45.12A8.91,8.91,0,0,0,54,340.83V260.4a6.85,6.85,0,0,1,6.84-6.84,1,1,0,0,0,0-2.08Z"/><path class="cls-16" d="M62.39,271.25h25.7a4.67,4.67,0,0,0,4.67-4.67h0a4.67,4.67,0,0,0-4.67-4.67H62.39a4.67,4.67,0,0,0-4.67,4.67h0A4.67,4.67,0,0,0,62.39,271.25Z"/><path class="cls-14" d="M60.87,265.54A8.92,8.92,0,0,0,52,274.45v72.13a6.85,6.85,0,0,1-6.84,6.84H26.55c.32.68.65,1.38,1,2.08H45.12A8.92,8.92,0,0,0,54,346.58V274.45a6.84,6.84,0,0,1,6.84-6.83,1,1,0,0,0,0-2.08Z"/><path class="cls-17" d="M224.8,315.11a9.87,9.87,0,0,1-6.49-2.44,4.38,4.38,0,0,0-5.51-.24l-1.28.93a2.72,2.72,0,1,1-3.21-4.39l1.28-.94a9.79,9.79,0,0,1,12.3.54,4.44,4.44,0,0,0,5.14.5l1.69-1a2.72,2.72,0,1,1,2.74,4.7l-1.69,1A9.78,9.78,0,0,1,224.8,315.11Z"/><path class="cls-10" d="M113.75,133.82h193a14.23,14.23,0,0,1,14.23,14.23V306.75A14.23,14.23,0,0,1,306.71,321h-193a14.24,14.24,0,0,1-14.24-14.24V148.06a14.23,14.23,0,0,1,14.23-14.23Z"/><path class="cls-18" d="M124.42,133.82h193a14.23,14.23,0,0,1,14.23,14.23V306.75A14.24,14.24,0,0,1,317.39,321h-193a14.23,14.23,0,0,1-14.23-14.23V148.06A14.23,14.23,0,0,1,124.42,133.82Z"/><rect class="cls-19" x="113.62" y="153.86" width="214.58" height="148.68"/><rect class="cls-20" x="118.52" y="157.26" width="204.77" height="141.88"/><path class="cls-21" d="M227.36,157.26s-11.78,8.6-4,36.63S208.74,238.07,188.64,249s-34.5,53.67-34.5,53.67H267.6s-1.7-19,20.95-31,17.89-43.47,9.49-59.78,11-55.43,11-55.43Z"/><path class="cls-12" d="M224.54,317.31a10.94,10.94,0,0,1-7.2-2.71,3.37,3.37,0,0,0-4.24-.18l-1.29.94a3.77,3.77,0,0,1-5.26-.82,3.77,3.77,0,0,1,.82-5.27l1.28-.94a10.89,10.89,0,0,1,13.66.6,3.41,3.41,0,0,0,3.95.38l1.69-1a3.77,3.77,0,0,1,3.8,6.51l-1.7,1A11,11,0,0,1,224.54,317.31Zm-9.43-5.63a5.46,5.46,0,0,1,3.6,1.36,8.88,8.88,0,0,0,10.3,1l1.69-1a1.73,1.73,0,0,0,.79-1,1.71,1.71,0,0,0-.18-1.29,1.66,1.66,0,0,0-1-.78,1.64,1.64,0,0,0-1.28.17l-1.7,1a5.48,5.48,0,0,1-6.36-.61,8.8,8.8,0,0,0-11.06-.48l-1.29.94a1.69,1.69,0,1,0,2,2.73l1.29-.94A5.45,5.45,0,0,1,215.11,311.68Z"/><path class="cls-16" d="M224.54,316.27a9.87,9.87,0,0,1-6.51-2.45,4.41,4.41,0,0,0-5.54-.24l-1.29.94a2.73,2.73,0,1,1-3.22-4.41l1.29-.94a9.82,9.82,0,0,1,12.35.54,4.43,4.43,0,0,0,5.16.49l1.69-1a2.73,2.73,0,1,1,2.76,4.71l-1.7,1A9.82,9.82,0,0,1,224.54,316.27Z"/><polygon class="cls-12" points="116.4 156.49 328.19 156.49 328.19 153.86 113.62 153.86 113.62 302.53 116.4 302.53 116.4 156.49"/><path class="cls-22" d="M195,142.34H122.61a1.74,1.74,0,0,1-1.73-1.73h0a1.73,1.73,0,0,1,1.73-1.73H195a1.72,1.72,0,0,1,1.73,1.73h0A1.73,1.73,0,0,1,195,142.34Z"/><path class="cls-22" d="M317.48,304.77H244.81a1,1,0,0,1-1-1h0a1,1,0,0,1,1-1h72.67a1,1,0,0,1,1,1h0A1,1,0,0,1,317.48,304.77Z"/><path class="cls-22" d="M204.36,304.77H131.68a1,1,0,0,1-1-1h0a1,1,0,0,1,1-1h72.68a1,1,0,0,1,1,1h0A1,1,0,0,1,204.36,304.77Z"/><path class="cls-22" d="M317.69,142.34H245.34a1.73,1.73,0,0,1-1.73-1.73h0a1.72,1.72,0,0,1,1.73-1.73h72.35a1.72,1.72,0,0,1,1.73,1.73h0A1.73,1.73,0,0,1,317.69,142.34Z"/><path class="cls-12" d="M90,177.83H79.41V175.4H90a1.21,1.21,0,0,1,1.22,1.21h0A1.21,1.21,0,0,1,90,177.83Z"/><path class="cls-12" d="M90,182.48H79.41V180H90a1.22,1.22,0,0,1,1.22,1.22h0A1.21,1.21,0,0,1,90,182.48Z"/><path class="cls-12" d="M90,187.13H79.41v-2.44H90a1.22,1.22,0,0,1,1.22,1.22h0A1.22,1.22,0,0,1,90,187.13Z"/><path class="cls-12" d="M90,191.78H79.41v-2.44H90a1.22,1.22,0,0,1,1.22,1.22h0A1.22,1.22,0,0,1,90,191.78Z"/><path class="cls-12" d="M90,196.43H79.41V194H90a1.22,1.22,0,0,1,1.22,1.22h0A1.22,1.22,0,0,1,90,196.43Z"/><polygon class="cls-12" points="94.09 201.22 79.41 201.22 79.41 200.19 93.05 200.19 93.05 171.76 79.41 171.76 79.41 170.73 94.09 170.73 94.09 201.22"/><path class="cls-23" d="M66.09,99.47a11.26,11.26,0,0,0-11.26,11.27H77.36A11.26,11.26,0,0,0,66.09,99.47Z"/><path class="cls-12" d="M65.5,99.5s9.26,2.1,9.26,11.24h2.6S78.9,99.77,65.5,99.5Z"/><path class="cls-24" d="M121.13,99.47H77.36v13.86h0a13.67,13.67,0,0,0,27.34,0h16.42Z"/><path class="cls-25" d="M65.5,99.5c.2,0,.39,0,.59,0H65.5Z"/><path class="cls-25" d="M77.36,111.33v-.59c0,.2,0,.4,0,.59Z"/><path class="cls-24" d="M66.09,99.47a11.26,11.26,0,0,1,11.27,11.27V99.47Z"/><path class="cls-12" d="M91.22,126.82s9.91-2.66,9.91-13.49S108,99.5,108,99.5h9.86v27.32Z"/><path class="cls-23" d="M91.22,126.81h13.5V113.33h0A13.67,13.67,0,0,1,91.22,126.81Z"/><path class="cls-23" d="M121.13,96.9h0a16.41,16.41,0,0,1,16.41,16.41v13.51H104.72V113.31A16.4,16.4,0,0,1,121.13,96.9Z"/><polygon class="cls-12" points="137.54 302.49 128.57 133.93 137.54 133.93 137.54 302.49"/><path class="cls-12" d="M137.54,126.82h-9s.47-21.52-7.44-29.92c0,0,14.32-.17,16.41,15Z"/><path class="cls-24" d="M286,96.9H121.13a16.41,16.41,0,0,1,16.41,16.41V302.49H302.38V113.31A16.4,16.4,0,0,0,286,96.9Z"/><path class="cls-26" d="M167.85,302.49s-9.72-19,13.25-28.81,52.9-5.23,56.31-21.25,6.45-27.29,20.15-30.85,36-1.58,44.82,6.89v74Z"/><path class="cls-26" d="M137.54,159.7a52,52,0,0,0,15.92-1.22c11.06-2.86,13.51-12,16.26-24.88s26.89-9.2,45.42-17.14c12.83-5.5,13-14.53,11.92-19.56H121.13a16.41,16.41,0,0,1,16.41,16.41V159.7Z"/><rect class="cls-12" x="146.45" y="117.76" width="147.26" height="11.02" rx="3.11" ry="3.11"/><path class="cls-27" d="M293.71,125.74H183.57a2.47,2.47,0,0,1-2.47-2.47h0a2.47,2.47,0,0,1,2.47-2.46H293.71Z"/><path class="cls-16" d="M156.92,126.53a.8.8,0,0,1-.57-.24l-4.71-4.79a.79.79,0,0,1,1.13-1.11l4.71,4.8a.79.79,0,0,1,0,1.11A.82.82,0,0,1,156.92,126.53Z"/><path class="cls-16" d="M152.2,126.53a.82.82,0,0,1-.55-.23.79.79,0,0,1,0-1.11l4.71-4.8a.79.79,0,0,1,1.13,1.11l-4.71,4.79A.8.8,0,0,1,152.2,126.53Z"/><path class="cls-28" d="M165.76,126.53h-4.93a.79.79,0,0,1-.79-.79v-4.93a.79.79,0,0,1,.79-.79h4.93a.79.79,0,0,1,.79.79v4.93A.8.8,0,0,1,165.76,126.53ZM161.62,125H165V121.6h-3.35Z"/><path class="cls-29" d="M174.86,126.53h-4.93a.79.79,0,0,1-.79-.79v-4.93a.78.78,0,0,1,.49-.73.81.81,0,0,1,.86.17l4.93,4.93a.81.81,0,0,1,.17.86A.79.79,0,0,1,174.86,126.53ZM170.72,125H173l-2.24-2.24Z"/><polygon class="cls-12" points="210.37 211.73 144.54 211.73 144.54 140 210.19 140 210.37 211.73"/><rect class="cls-30" x="146.45" y="141.91" width="63.92" height="69.82"/><rect class="cls-31" x="160.7" y="221.7" width="49.67" height="7.87"/><path class="cls-31" d="M154.56,225.64a4.06,4.06,0,1,1-4.05-4.06A4,4,0,0,1,154.56,225.64Z"/><rect class="cls-31" x="160.7" y="235.1" width="49.67" height="7.87"/><path class="cls-31" d="M154.56,239a4.06,4.06,0,1,1-4.05-4.05A4.05,4.05,0,0,1,154.56,239Z"/><rect class="cls-31" x="160.7" y="248.49" width="49.67" height="7.87"/><path class="cls-31" d="M154.56,252.43a4.06,4.06,0,1,1-4.05-4.05A4,4,0,0,1,154.56,252.43Z"/><rect class="cls-31" x="146.45" y="263.84" width="63.92" height="9.84"/><polygon class="cls-12" points="212.28 302.49 146.45 302.49 146.45 277.55 212.28 277.44 212.28 302.49"/><rect class="cls-26" x="146.45" y="279.46" width="63.92" height="23.03"/><rect class="cls-12" x="152.1" y="284.31" width="52.63" height="18.18"/><g class="cls-12"><rect class="cls-24" x="149.62" y="141.86" width="0.63" height="69.59" transform="matrix(1, 0, 0, 1, -0.53, 0.45)"/><rect class="cls-24" x="153.82" y="141.85" width="0.63" height="69.59" transform="translate(-0.56 0.49) rotate(-0.18)"/><rect class="cls-24" x="158.02" y="141.84" width="0.63" height="69.59" transform="matrix(1, 0, 0, 1, -0.53, 0.48)"/><rect class="cls-24" x="162.22" y="141.82" width="0.63" height="69.59" transform="translate(-0.53 0.49) rotate(-0.17)"/><rect class="cls-24" x="166.42" y="141.81" width="0.63" height="69.59" transform="translate(-0.53 0.5) rotate(-0.17)"/><rect class="cls-24" x="170.62" y="141.8" width="0.63" height="69.59" transform="matrix(1, 0, 0, 1, -0.53, 0.52)"/><rect class="cls-24" x="174.82" y="141.79" width="0.63" height="69.59" transform="translate(-0.53 0.53) rotate(-0.17)"/><rect class="cls-24" x="179.02" y="141.78" width="0.63" height="69.59" transform="translate(-0.53 0.54) rotate(-0.17)"/><rect class="cls-24" x="183.22" y="141.76" width="0.63" height="69.59" transform="matrix(1, 0, 0, 1, -0.53, 0.55)"/><rect class="cls-24" x="187.42" y="141.75" width="0.63" height="69.59" transform="translate(-0.56 0.6) rotate(-0.18)"/><rect class="cls-24" x="191.62" y="141.74" width="0.63" height="69.59" transform="matrix(1, 0, 0, 1, -0.53, 0.58)"/><rect class="cls-24" x="195.82" y="141.73" width="0.63" height="69.59" transform="translate(-0.53 0.59) rotate(-0.17)"/><rect class="cls-24" x="200.02" y="141.71" width="0.63" height="69.59" transform="translate(-0.53 0.6) rotate(-0.17)"/><rect class="cls-24" x="204.22" y="141.7" width="0.63" height="69.59" transform="matrix(1, 0, 0, 1, -0.53, 0.62)"/><rect class="cls-24" x="144.36" y="142.74" width="65.56" height="0.63" transform="translate(-0.42 0.52) rotate(-0.17)"/><rect class="cls-24" x="144.37" y="146.94" width="65.56" height="0.63" transform="translate(-0.43 0.52) rotate(-0.17)"/><rect class="cls-24" x="144.38" y="151.14" width="65.56" height="0.63" transform="translate(-0.44 0.52) rotate(-0.17)"/><rect class="cls-24" x="144.39" y="155.34" width="65.56" height="0.63" transform="translate(-0.46 0.52) rotate(-0.17)"/><rect class="cls-24" x="144.4" y="159.54" width="65.56" height="0.63" transform="translate(-0.47 0.52) rotate(-0.17)"/><rect class="cls-24" x="144.42" y="163.74" width="65.56" height="0.63" transform="translate(-0.48 0.52) rotate(-0.17)"/><rect class="cls-24" x="144.43" y="167.94" width="65.56" height="0.63" transform="translate(-0.49 0.52) rotate(-0.17)"/><rect class="cls-24" x="144.44" y="172.15" width="65.56" height="0.63" transform="translate(-0.5 0.52) rotate(-0.17)"/><rect class="cls-24" x="144.45" y="176.34" width="65.56" height="0.63" transform="translate(-0.52 0.52) rotate(-0.17)"/><rect class="cls-24" x="144.47" y="180.55" width="65.56" height="0.63" transform="translate(-0.53 0.52) rotate(-0.17)"/><rect class="cls-24" x="144.48" y="184.75" width="65.56" height="0.63" transform="translate(-0.54 0.52) rotate(-0.17)"/><rect class="cls-24" x="144.49" y="188.95" width="65.56" height="0.63" transform="translate(-0.55 0.52) rotate(-0.17)"/><rect class="cls-24" x="144.5" y="193.15" width="65.56" height="0.63" transform="translate(-0.57 0.52) rotate(-0.17)"/><rect class="cls-24" x="144.52" y="197.35" width="65.56" height="0.63" transform="translate(-0.58 0.52) rotate(-0.17)"/><rect class="cls-24" x="144.53" y="201.55" width="65.56" height="0.63" transform="translate(-0.59 0.52) rotate(-0.17)"/><rect class="cls-24" x="144.54" y="205.75" width="65.56" height="0.63" transform="translate(-0.6 0.52) rotate(-0.17)"/><rect class="cls-24" x="144.54" y="209.53" width="65.56" height="0.63" transform="translate(-0.61 0.52) rotate(-0.17)"/><rect class="cls-24" x="145.42" y="141.87" width="0.63" height="69.59" transform="matrix(1, 0, 0, 1, -0.53, 0.44)"/><rect class="cls-24" x="208.42" y="141.69" width="0.63" height="69.59" transform="translate(-0.53 0.63) rotate(-0.17)"/></g><path class="cls-27" d="M210.37,187.45a5.87,5.87,0,0,1-4-1.56c-.86-1-.95-2.5-.29-4.47,1.93-5.74,2.94-13.08,0-16.48-1.39-1.62-3.51-2.2-6.28-1.71-8.77,1.53-15.05,7-19.21,16.63-3.55,8.25-7.8,8.27-20.4,8.33h-1.47a17.24,17.24,0,0,0-12.34,4.69v1.35a16.27,16.27,0,0,1,12.35-5.09h1.47c12.71-.07,17.47-.09,21.27-8.92,4-9.34,10.07-14.59,18.49-16.06,2.42-.43,4.24,0,5.4,1.4,2.66,3.09,1.64,10.05-.21,15.54-.77,2.32-.61,4.14.48,5.41a6.81,6.81,0,0,0,4.67,1.88Z"/><path class="cls-27" d="M210.37,191.9c-4.36,0-12.14-1.09-9-8.83,4.3-10.54,2.39-16.66-4.68-15s-11.54,16.5-15.12,20.76-14.56,4.09-22.79,4c-4.43,0-9,3.18-12.34,6.13v12.75h63.92Z"/><path class="cls-12" d="M193.27,165.71a7.55,7.55,0,0,0-5.45.95,10.09,10.09,0,1,0-20.11-1.1,7.59,7.59,0,0,0-7.59,8,7.74,7.74,0,0,0,7.8,7.24h4.93a1.76,1.76,0,0,0,1.76-1.77v-2.61a.86.86,0,0,0-.86-.86h-.48a1.29,1.29,0,0,1-1.12-1.93l5.21-9a1.29,1.29,0,0,1,2.23,0l5.21,9a1.29,1.29,0,0,1-1.12,1.93h-.48a.86.86,0,0,0-.86.86V179a1.76,1.76,0,0,0,1.76,1.77h8.55v-.06a7.6,7.6,0,0,0,.62-15Z"/><path class="cls-24" d="M196.13,163.8a7.56,7.56,0,0,0-5.44.95,10.09,10.09,0,1,0-20.12-1.1,7.59,7.59,0,0,0-7.59,8,7.74,7.74,0,0,0,7.8,7.24h4.93a1.76,1.76,0,0,0,1.76-1.77v-2.61a.86.86,0,0,0-.86-.86h-.48a1.28,1.28,0,0,1-1.11-1.93l5.2-9a1.29,1.29,0,0,1,2.23,0l5.21,9a1.28,1.28,0,0,1-1.12,1.93h-.47a.87.87,0,0,0-.87.86v2.61a1.77,1.77,0,0,0,1.77,1.77h8.55v-.06a7.6,7.6,0,0,0,.61-15Z"/><rect class="cls-12" x="227.97" y="141.91" width="59.19" height="69.82"/><g class="cls-32"><g class="cls-33"><path d="M252.09,202.54l-.69-.18a.88.88,0,0,1-.62-.82,13.53,13.53,0,0,0-.21-2.39.89.89,0,0,1,.47-.92l.64-.3a.73.73,0,0,0,.37-.89l-.64-1.74a.73.73,0,0,0-.86-.44l-.68.19a.89.89,0,0,1-1-.41,14,14,0,0,0-1.37-1.95.87.87,0,0,1-.06-1l.41-.58a.72.72,0,0,0-.13-1l-1.42-1.19a.72.72,0,0,0-1,0l-.5.5a.86.86,0,0,1-1,.12,13.79,13.79,0,0,0-2.17-1,.9.9,0,0,1-.57-.87l.06-.7a.72.72,0,0,0-.58-.77l-1.82-.32a.74.74,0,0,0-.82.53l-.18.68a.88.88,0,0,1-.82.62,13.53,13.53,0,0,0-2.39.21.9.9,0,0,1-.92-.47l-.29-.63a.75.75,0,0,0-.9-.38l-1.73.64a.72.72,0,0,0-.44.86l.18.68a.88.88,0,0,1-.4.95,13.31,13.31,0,0,0-2,1.38.89.89,0,0,1-1,.05l-.58-.4a.72.72,0,0,0-1,.12l-1.18,1.42a.71.71,0,0,0,0,1l.5.5a.88.88,0,0,1,.13,1,13.94,13.94,0,0,0-1,2.18.88.88,0,0,1-.86.56l-.71-.06a.72.72,0,0,0-.76.59l-.32,1.81a.73.73,0,0,0,.52.82l.68.18a.88.88,0,0,1,.62.82,14.55,14.55,0,0,0,.21,2.39.87.87,0,0,1-.46.92l-.64.3a.72.72,0,0,0-.37.89l.63,1.73a.74.74,0,0,0,.86.45l.68-.19a.89.89,0,0,1,.95.41,14.9,14.9,0,0,0,1.38,2,.91.91,0,0,1,.06,1l-.41.58a.72.72,0,0,0,.13,1l1.41,1.18a.72.72,0,0,0,1,0l.49-.5a.87.87,0,0,1,1-.12,13.38,13.38,0,0,0,2.17,1,.89.89,0,0,1,.56.87l-.06.7a.74.74,0,0,0,.59.77l1.82.31a.71.71,0,0,0,.81-.52l.18-.68a.89.89,0,0,1,.83-.62,13.42,13.42,0,0,0,2.38-.21.87.87,0,0,1,.92.46l.3.64a.72.72,0,0,0,.89.37l1.74-.63a.72.72,0,0,0,.44-.86l-.18-.68a.87.87,0,0,1,.4-.95,13.31,13.31,0,0,0,2-1.38.89.89,0,0,1,1-.05l.58.4a.71.71,0,0,0,1-.12l1.19-1.42a.72.72,0,0,0-.05-1l-.5-.5a.91.91,0,0,1-.12-1,14.33,14.33,0,0,0,1-2.17.88.88,0,0,1,.86-.56l.7.06a.72.72,0,0,0,.77-.59l.32-1.82A.73.73,0,0,0,252.09,202.54Zm-7,.44a8.29,8.29,0,1,1-6.74-9.59A8.29,8.29,0,0,1,245.13,203Z"/><path d="M236.34,205.14a3.64,3.64,0,1,1,4.21-3A3.64,3.64,0,0,1,236.34,205.14Z"/><path d="M276.85,174.54l-.32-.09a.43.43,0,0,1-.3-.41,6.75,6.75,0,0,0-.1-1.19.46.46,0,0,1,.22-.46l.31-.15a.37.37,0,0,0,.18-.45l-.31-.86a.36.36,0,0,0-.41-.23l-.32.1a.43.43,0,0,1-.46-.2,6.66,6.66,0,0,0-.65-1,.47.47,0,0,1,0-.52l.19-.29a.37.37,0,0,0-.06-.48l-.67-.59a.33.33,0,0,0-.46,0l-.24.25a.41.41,0,0,1-.49.07,6.27,6.27,0,0,0-1-.51.45.45,0,0,1-.27-.43l0-.35a.35.35,0,0,0-.28-.38l-.87-.16a.32.32,0,0,0-.38.26l-.09.34a.43.43,0,0,1-.39.31,6.12,6.12,0,0,0-1.14.1.4.4,0,0,1-.44-.23l-.14-.32a.34.34,0,0,0-.43-.18l-.83.31a.37.37,0,0,0-.21.43l.09.35a.45.45,0,0,1-.19.47,6.31,6.31,0,0,0-.94.69.42.42,0,0,1-.49,0l-.28-.21a.35.35,0,0,0-.46.07l-.56.7a.39.39,0,0,0,0,.49l.24.24a.47.47,0,0,1,.06.52,6.56,6.56,0,0,0-.48,1.08.44.44,0,0,1-.41.29l-.34,0a.36.36,0,0,0-.37.3l-.15.91a.35.35,0,0,0,.25.4l.33.09a.45.45,0,0,1,.29.42,7.85,7.85,0,0,0,.1,1.19.44.44,0,0,1-.22.46l-.3.15a.36.36,0,0,0-.18.44l.3.87a.34.34,0,0,0,.41.22l.33-.09a.4.4,0,0,1,.45.2,6,6,0,0,0,.66,1,.49.49,0,0,1,0,.52l-.2.28a.39.39,0,0,0,.06.49l.68.59a.34.34,0,0,0,.46,0l.24-.25a.41.41,0,0,1,.48-.06,6.68,6.68,0,0,0,1,.51.44.44,0,0,1,.27.43l0,.35a.36.36,0,0,0,.28.38l.87.16a.34.34,0,0,0,.39-.26l.09-.34a.41.41,0,0,1,.39-.31,6.12,6.12,0,0,0,1.14-.11.42.42,0,0,1,.44.24l.14.32a.35.35,0,0,0,.43.18l.82-.32a.37.37,0,0,0,.22-.43l-.09-.34A.44.44,0,0,1,273,180a6.87,6.87,0,0,0,.94-.69.41.41,0,0,1,.49,0l.27.21a.34.34,0,0,0,.46-.07l.57-.71a.38.38,0,0,0,0-.48l-.24-.25a.44.44,0,0,1-.06-.51,6.56,6.56,0,0,0,.48-1.08.44.44,0,0,1,.41-.29l.34,0a.35.35,0,0,0,.36-.3l.15-.91A.37.37,0,0,0,276.85,174.54Zm-3.32.22a4,4,0,0,1-4.58,3.37,4.13,4.13,0,0,1-3.22-4.79,4,4,0,0,1,4.59-3.37A4.12,4.12,0,0,1,273.53,174.76Z"/><path d="M259.53,155.19l-.32-.09a.44.44,0,0,1-.3-.41,6.67,6.67,0,0,0-.1-1.19A.45.45,0,0,1,259,153l.31-.15a.37.37,0,0,0,.18-.45l-.31-.87a.34.34,0,0,0-.41-.22l-.32.09a.42.42,0,0,1-.46-.2,7.92,7.92,0,0,0-.65-1,.45.45,0,0,1,0-.51l.19-.29a.37.37,0,0,0-.06-.48l-.67-.59a.33.33,0,0,0-.46,0l-.24.25a.41.41,0,0,1-.49.06,7.12,7.12,0,0,0-1-.5.45.45,0,0,1-.27-.43l0-.35a.36.36,0,0,0-.28-.39l-.87-.16a.34.34,0,0,0-.38.26l-.09.35a.43.43,0,0,1-.39.31,6.12,6.12,0,0,0-1.14.1.42.42,0,0,1-.44-.23l-.14-.32a.35.35,0,0,0-.43-.19l-.83.32a.36.36,0,0,0-.21.43l.09.34a.48.48,0,0,1-.19.48,7,7,0,0,0-.94.68.39.39,0,0,1-.49,0l-.28-.2a.34.34,0,0,0-.46.06l-.56.71a.38.38,0,0,0,0,.48l.24.25a.48.48,0,0,1,.06.51,7.07,7.07,0,0,0-.48,1.09.42.42,0,0,1-.41.28l-.34,0a.36.36,0,0,0-.37.29l-.15.91a.37.37,0,0,0,.25.41l.33.09a.45.45,0,0,1,.29.41,7.64,7.64,0,0,0,.1,1.19.44.44,0,0,1-.22.46l-.3.15a.37.37,0,0,0-.18.45l.3.87a.34.34,0,0,0,.41.22l.33-.09a.41.41,0,0,1,.45.2,7,7,0,0,0,.66,1,.47.47,0,0,1,0,.51l-.2.29a.38.38,0,0,0,.06.48l.68.59a.33.33,0,0,0,.46,0l.24-.25a.39.39,0,0,1,.48-.06,5.85,5.85,0,0,0,1,.5.44.44,0,0,1,.27.43l0,.35a.37.37,0,0,0,.28.39l.87.16a.35.35,0,0,0,.39-.26l.09-.34a.41.41,0,0,1,.39-.31,6.12,6.12,0,0,0,1.14-.11.43.43,0,0,1,.44.23l.14.32a.34.34,0,0,0,.43.19l.82-.32a.37.37,0,0,0,.22-.43l-.09-.34a.44.44,0,0,1,.19-.47,6.87,6.87,0,0,0,.94-.69.41.41,0,0,1,.49,0l.27.2a.33.33,0,0,0,.46-.06l.57-.71a.38.38,0,0,0,0-.48l-.24-.25a.44.44,0,0,1-.06-.51,6.67,6.67,0,0,0,.48-1.09.43.43,0,0,1,.41-.28l.34,0a.34.34,0,0,0,.36-.29l.15-.91A.37.37,0,0,0,259.53,155.19Zm-3.32.22a4,4,0,0,1-4.58,3.37,4.14,4.14,0,0,1-3.22-4.8,4,4,0,0,1,4.59-3.37A4.14,4.14,0,0,1,256.21,155.41Z"/><path d="M233.51,179.76l-.29-.07a.38.38,0,0,1-.25-.36,6,6,0,0,0-.09-1,.4.4,0,0,1,.19-.4l.27-.13a.33.33,0,0,0,.15-.39l-.26-.75a.3.3,0,0,0-.36-.2l-.28.09a.37.37,0,0,1-.4-.18,5.26,5.26,0,0,0-.57-.85.41.41,0,0,1,0-.45l.17-.25a.35.35,0,0,0-.05-.42l-.59-.51a.28.28,0,0,0-.4,0l-.21.21a.35.35,0,0,1-.43.06,5.36,5.36,0,0,0-.9-.44.38.38,0,0,1-.23-.38l0-.3a.31.31,0,0,0-.24-.34l-.76-.13a.29.29,0,0,0-.33.22l-.08.3a.37.37,0,0,1-.34.27,5.36,5.36,0,0,0-1,.09.36.36,0,0,1-.38-.2l-.13-.28a.3.3,0,0,0-.37-.16l-.72.28a.31.31,0,0,0-.18.37l.07.3a.39.39,0,0,1-.16.41,5.22,5.22,0,0,0-.82.6.35.35,0,0,1-.42,0l-.25-.17a.28.28,0,0,0-.39.05l-.5.62a.35.35,0,0,0,0,.42l.21.21a.39.39,0,0,1,.05.45,7.26,7.26,0,0,0-.42.94.36.36,0,0,1-.35.25l-.3,0a.31.31,0,0,0-.32.26l-.13.79a.32.32,0,0,0,.22.35l.28.08a.38.38,0,0,1,.26.36,6,6,0,0,0,.09,1,.41.41,0,0,1-.2.4l-.26.13a.3.3,0,0,0-.15.38l.26.76a.3.3,0,0,0,.36.19l.28-.08a.36.36,0,0,1,.39.18,6.07,6.07,0,0,0,.58.85.43.43,0,0,1,0,.45l-.17.25a.33.33,0,0,0,0,.42l.59.51a.29.29,0,0,0,.4,0l.21-.22a.35.35,0,0,1,.42-.05,6.24,6.24,0,0,0,.9.44.38.38,0,0,1,.24.37l0,.31a.32.32,0,0,0,.25.33l.75.14a.3.3,0,0,0,.34-.23l.08-.29a.35.35,0,0,1,.34-.27,5.45,5.45,0,0,0,1-.1.36.36,0,0,1,.38.21l.12.28a.31.31,0,0,0,.38.16l.72-.28a.31.31,0,0,0,.18-.37l-.08-.3a.39.39,0,0,1,.17-.41,6.06,6.06,0,0,0,.81-.6.36.36,0,0,1,.43,0l.24.18a.3.3,0,0,0,.4-.05l.49-.62a.32.32,0,0,0,0-.42l-.2-.22a.39.39,0,0,1-.06-.44,5.38,5.38,0,0,0,.42-1,.39.39,0,0,1,.36-.24l.29,0a.3.3,0,0,0,.32-.26l.13-.79A.32.32,0,0,0,233.51,179.76Zm-2.89.2a3.47,3.47,0,0,1-4,2.93,3.61,3.61,0,0,1-2.8-4.18,3.47,3.47,0,0,1,4-2.93A3.61,3.61,0,0,1,230.62,180Z"/><path d="M261.16,175.35l-.21-1.49a.59.59,0,0,0-.61-.5l-.58,0a.71.71,0,0,1-.69-.48,11,11,0,0,0-.76-1.8.71.71,0,0,1,.13-.83l.42-.4a.59.59,0,0,0,.06-.78l-.93-1.19a.59.59,0,0,0-.78-.13l-.48.32a.72.72,0,0,1-.84-.08,12.69,12.69,0,0,0-1.56-1.17.71.71,0,0,1-.31-.79l.17-.55a.58.58,0,0,0-.34-.71l-1.4-.56a.6.6,0,0,0-.74.28l-.26.51a.71.71,0,0,1-.76.35,11.3,11.3,0,0,0-1.94-.23.74.74,0,0,1-.66-.53l-.12-.56a.6.6,0,0,0-.66-.45l-1.49.21a.61.61,0,0,0-.5.61l0,.58a.71.71,0,0,1-.48.69,11.08,11.08,0,0,0-1.8.77.73.73,0,0,1-.83-.13l-.39-.43a.61.61,0,0,0-.79-.06l-1.19.93a.59.59,0,0,0-.12.78l.31.49a.69.69,0,0,1-.07.83,10.5,10.5,0,0,0-1.17,1.57.73.73,0,0,1-.79.3l-.55-.17a.6.6,0,0,0-.72.34l-.56,1.4a.61.61,0,0,0,.28.74l.52.26a.72.72,0,0,1,.35.76,12.39,12.39,0,0,0-.24,1.94.72.72,0,0,1-.52.66l-.57.13a.59.59,0,0,0-.44.65l.21,1.49a.59.59,0,0,0,.61.5l.58,0a.73.73,0,0,1,.69.48,11,11,0,0,0,.76,1.8.71.71,0,0,1-.13.83l-.42.39a.59.59,0,0,0-.06.79l.93,1.19a.59.59,0,0,0,.78.12l.48-.31a.72.72,0,0,1,.84.07,11.21,11.21,0,0,0,1.56,1.18.73.73,0,0,1,.31.78l-.17.55a.6.6,0,0,0,.34.72l1.39.56a.59.59,0,0,0,.74-.28l.26-.51a.72.72,0,0,1,.77-.36,10.4,10.4,0,0,0,1.94.24.72.72,0,0,1,.65.53l.13.56a.6.6,0,0,0,.65.44l1.49-.21a.58.58,0,0,0,.5-.61l0-.57a.73.73,0,0,1,.49-.69,11.36,11.36,0,0,0,1.79-.77.73.73,0,0,1,.84.13l.39.42a.57.57,0,0,0,.78.06l1.19-.93a.59.59,0,0,0,.13-.78l-.32-.48a.72.72,0,0,1,.08-.84,10.58,10.58,0,0,0,1.17-1.56.73.73,0,0,1,.79-.3l.55.17a.6.6,0,0,0,.71-.34l.56-1.4a.59.59,0,0,0-.27-.74l-.52-.26a.72.72,0,0,1-.35-.76,11.42,11.42,0,0,0,.23-1.94.73.73,0,0,1,.53-.66l.56-.13A.6.6,0,0,0,261.16,175.35Zm-11.59,9.49a8.52,8.52,0,1,1,7.24-9.63A8.52,8.52,0,0,1,249.57,184.84Z"/><path d="M248.78,179.31a2.93,2.93,0,1,1,2.49-3.32A2.94,2.94,0,0,1,248.78,179.31Z"/><path d="M245.49,146.2l-.14-1a.39.39,0,0,0-.4-.32l-.38,0a.47.47,0,0,1-.45-.32,6.75,6.75,0,0,0-.5-1.17.49.49,0,0,1,.09-.55l.27-.25a.4.4,0,0,0,0-.52l-.6-.77a.4.4,0,0,0-.51-.09l-.32.21a.47.47,0,0,1-.55-.05,6.93,6.93,0,0,0-1-.76.48.48,0,0,1-.19-.52l.11-.36a.39.39,0,0,0-.23-.46l-.91-.37a.39.39,0,0,0-.48.18l-.17.34a.48.48,0,0,1-.5.23,6.68,6.68,0,0,0-1.27-.15.49.49,0,0,1-.43-.35l-.08-.37a.39.39,0,0,0-.43-.29l-1,.14a.4.4,0,0,0-.33.4l0,.38a.48.48,0,0,1-.31.45,6.85,6.85,0,0,0-1.18.5.47.47,0,0,1-.54-.09l-.26-.27a.37.37,0,0,0-.51,0l-.78.6a.39.39,0,0,0-.08.51l.21.32a.49.49,0,0,1-.05.55,6.49,6.49,0,0,0-.77,1,.49.49,0,0,1-.51.2l-.36-.12a.4.4,0,0,0-.47.23l-.37.91a.38.38,0,0,0,.19.48l.33.17a.48.48,0,0,1,.23.5,7.6,7.6,0,0,0-.15,1.27.5.5,0,0,1-.34.43l-.37.08a.38.38,0,0,0-.29.43l.13,1a.4.4,0,0,0,.4.33l.38,0a.48.48,0,0,1,.45.31,6.85,6.85,0,0,0,.5,1.18.47.47,0,0,1-.08.54l-.28.26a.38.38,0,0,0,0,.51l.61.78a.39.39,0,0,0,.51.08l.31-.21a.48.48,0,0,1,.55.05,7.58,7.58,0,0,0,1,.77.47.47,0,0,1,.2.51l-.11.36a.38.38,0,0,0,.22.47l.91.37a.4.4,0,0,0,.49-.19l.16-.33a.48.48,0,0,1,.5-.23,7.72,7.72,0,0,0,1.27.15.47.47,0,0,1,.43.34l.08.37a.39.39,0,0,0,.43.29l1-.13a.39.39,0,0,0,.33-.4l0-.38a.47.47,0,0,1,.32-.45,6.75,6.75,0,0,0,1.17-.5.47.47,0,0,1,.54.08l.26.28a.38.38,0,0,0,.51,0l.78-.61a.39.39,0,0,0,.08-.51l-.2-.31a.47.47,0,0,1,.05-.55,7.5,7.5,0,0,0,.76-1,.49.49,0,0,1,.52-.2l.36.11a.38.38,0,0,0,.46-.22l.37-.91a.4.4,0,0,0-.18-.49l-.34-.17a.46.46,0,0,1-.23-.49,6.78,6.78,0,0,0,.15-1.27.47.47,0,0,1,.35-.43l.37-.08A.4.4,0,0,0,245.49,146.2Zm-7.58,6.2a5.57,5.57,0,1,1,4.74-6.29A5.56,5.56,0,0,1,237.91,152.4Z"/><path d="M237.4,148.79a1.92,1.92,0,1,1,1.63-2.17A1.93,1.93,0,0,1,237.4,148.79Z"/><path d="M266.67,205.07a.8.8,0,0,1-.77-.61l-.11-.48a.31.31,0,0,0-.3-.23,9.87,9.87,0,0,1-1.71-.21.34.34,0,0,0-.35.16l-.22.44a.79.79,0,0,1-1,.37L261,204a.79.79,0,0,1-.46-1l.15-.47a.36.36,0,0,0-.14-.36,8.85,8.85,0,0,1-1.38-1,.34.34,0,0,0-.38,0l-.42.27a.78.78,0,0,1-1-.17l-.8-1a.8.8,0,0,1,.08-1.06l.36-.33a.35.35,0,0,0,.06-.38,9.63,9.63,0,0,1-.68-1.59.36.36,0,0,0-.31-.22l-.49,0a.79.79,0,0,1-.82-.67l-.18-1.29a.78.78,0,0,1,.6-.87l.48-.11a.33.33,0,0,0,.23-.3,10.22,10.22,0,0,1,.21-1.72.34.34,0,0,0-.15-.34l-.45-.22a.8.8,0,0,1-.37-1l.48-1.2a.79.79,0,0,1,1-.45l.48.14a.34.34,0,0,0,.35-.14,10.17,10.17,0,0,1,1-1.38.35.35,0,0,0,0-.38l-.27-.41a.8.8,0,0,1,.17-1.05l1-.8a.79.79,0,0,1,1.06.09l.34.36a.33.33,0,0,0,.37,0,9.71,9.71,0,0,1,1.59-.67A.33.33,0,0,0,263,184l0-.5a.78.78,0,0,1,.67-.82l1.28-.18a.78.78,0,0,1,.87.6l.11.49a.35.35,0,0,0,.3.23,9.86,9.86,0,0,1,1.72.21.34.34,0,0,0,.34-.16l.23-.44a.78.78,0,0,1,1-.37l1.2.48a.8.8,0,0,1,.46,1L271,185a.33.33,0,0,0,.14.35,9.78,9.78,0,0,1,1.38,1,.35.35,0,0,0,.38,0l.41-.27a.79.79,0,0,1,1.05.17l.8,1a.78.78,0,0,1-.08,1.05l-.37.34a.35.35,0,0,0-.05.38,9.39,9.39,0,0,1,.68,1.59.36.36,0,0,0,.3.22l.5,0a.79.79,0,0,1,.82.67l.18,1.28a.79.79,0,0,1-.6.88l-.48.11a.36.36,0,0,0-.24.3,9.63,9.63,0,0,1-.21,1.71.36.36,0,0,0,.16.35l.44.22a.8.8,0,0,1,.38,1l-.49,1.2a.78.78,0,0,1-.95.46l-.48-.14a.34.34,0,0,0-.35.14,10.83,10.83,0,0,1-1,1.38.34.34,0,0,0,0,.37l.28.42a.78.78,0,0,1-.18,1l-1,.8a.77.77,0,0,1-1-.08l-.34-.36a.33.33,0,0,0-.37-.06,9.38,9.38,0,0,1-1.6.68.36.36,0,0,0-.22.31l0,.49a.78.78,0,0,1-.67.82l-1.28.19Zm-2.95-2.1.18,0a8.64,8.64,0,0,0,1.61.19.91.91,0,0,1,.83.68l.11.48a.25.25,0,0,0,.25.17l1.28-.19a.23.23,0,0,0,.19-.23l0-.49a.89.89,0,0,1,.61-.87,10,10,0,0,0,1.5-.64.89.89,0,0,1,1.05.16l.34.37a.22.22,0,0,0,.29,0l1-.8a.23.23,0,0,0,0-.29l-.27-.42a.89.89,0,0,1,.09-1.06,9.62,9.62,0,0,0,1-1.3.89.89,0,0,1,1-.38l.47.14a.23.23,0,0,0,.27-.13l.48-1.2a.22.22,0,0,0-.1-.27l-.44-.23a.89.89,0,0,1-.46-1,9.69,9.69,0,0,0,.2-1.62.89.89,0,0,1,.67-.83l.48-.11a.23.23,0,0,0,.17-.25l-.18-1.28a.26.26,0,0,0-.23-.19l-.49,0a.89.89,0,0,1-.88-.61,9.53,9.53,0,0,0-.64-1.5.9.9,0,0,1,.17-1l.36-.34a.22.22,0,0,0,0-.29l-.79-1a.24.24,0,0,0-.3,0l-.41.27a.9.9,0,0,1-1.07-.09,9.62,9.62,0,0,0-1.3-1,.9.9,0,0,1-.38-1l.15-.47a.24.24,0,0,0-.13-.27l-1.2-.48a.24.24,0,0,0-.28.1l-.22.45a.9.9,0,0,1-1,.45,9.57,9.57,0,0,0-1.62-.2.9.9,0,0,1-.83-.67l-.11-.48a.21.21,0,0,0-.24-.17l-1.28.18a.23.23,0,0,0-.19.23l0,.5a.89.89,0,0,1-.61.87,9.53,9.53,0,0,0-1.5.64.91.91,0,0,1-1.06-.17L260,185a.23.23,0,0,0-.3,0l-1,.8a.23.23,0,0,0,0,.29l.28.41a.94.94,0,0,1-.09,1.07,9.62,9.62,0,0,0-1,1.3.9.9,0,0,1-1,.38l-.47-.14a.23.23,0,0,0-.27.12l-.49,1.21a.22.22,0,0,0,.11.27l.44.23a.87.87,0,0,1,.45,1,9.94,9.94,0,0,0-.19,1.62.9.9,0,0,1-.67.83l-.49.11a.24.24,0,0,0-.17.24l.19,1.29a.21.21,0,0,0,.23.18l.49,0a.9.9,0,0,1,.88.6,8.66,8.66,0,0,0,.64,1.51.9.9,0,0,1-.17,1.05l-.36.34a.23.23,0,0,0,0,.29l.8,1a.22.22,0,0,0,.29.05l.42-.27a.89.89,0,0,1,1.06.09,9.62,9.62,0,0,0,1.3,1,.89.89,0,0,1,.39,1l-.15.48a.24.24,0,0,0,.13.27l1.2.48a.23.23,0,0,0,.28-.11l.22-.44A.89.89,0,0,1,263.72,203Zm2.11-1.57a7.52,7.52,0,1,1,1.07-.07h0A7.79,7.79,0,0,1,265.83,201.4Zm0-14.64a6.82,6.82,0,0,0-1,.07,7,7,0,0,0,2,13.94h0a7,7,0,0,0-1-14Z"/><path d="M265.83,196.6a2.81,2.81,0,0,1-2.77-2.41,2.77,2.77,0,0,1,.53-2.08,2.85,2.85,0,0,1,1.85-1.09,2.8,2.8,0,0,1,2.63,4.46,2.75,2.75,0,0,1-1.84,1.09h0Zm0-5-.31,0a2.3,2.3,0,0,0-1.48.87,2.2,2.2,0,0,0-.42,1.66,2.24,2.24,0,0,0,2.53,1.91h0a2.25,2.25,0,0,0,1.47-.88,2.22,2.22,0,0,0,.43-1.66A2.25,2.25,0,0,0,265.83,191.56Z"/></g><path class="cls-34" d="M254,202.54l-.68-.18a.88.88,0,0,1-.62-.82,13.53,13.53,0,0,0-.21-2.39.89.89,0,0,1,.47-.92l.64-.3A.74.74,0,0,0,254,197l-.64-1.74a.73.73,0,0,0-.86-.44l-.68.19a.89.89,0,0,1-.95-.41,14,14,0,0,0-1.37-1.95.87.87,0,0,1-.06-1l.41-.58a.74.74,0,0,0-.13-1l-1.42-1.19a.72.72,0,0,0-1,0l-.5.5a.86.86,0,0,1-1,.12,13.79,13.79,0,0,0-2.17-1,.9.9,0,0,1-.57-.87l.06-.7a.72.72,0,0,0-.58-.77l-1.82-.32a.73.73,0,0,0-.82.53l-.18.68a.88.88,0,0,1-.82.62,13.53,13.53,0,0,0-2.39.21.89.89,0,0,1-.92-.47l-.29-.63a.75.75,0,0,0-.9-.38l-1.73.64a.72.72,0,0,0-.44.86l.18.68a.88.88,0,0,1-.4.95,13.31,13.31,0,0,0-2,1.38.89.89,0,0,1-1,.05l-.58-.4a.72.72,0,0,0-1,.12l-1.18,1.42a.71.71,0,0,0,0,1l.5.5a.88.88,0,0,1,.13,1,13.08,13.08,0,0,0-1,2.18.88.88,0,0,1-.86.56l-.71-.06a.74.74,0,0,0-.77.59l-.31,1.81a.72.72,0,0,0,.52.82l.68.18a.88.88,0,0,1,.62.82,13.53,13.53,0,0,0,.21,2.39.87.87,0,0,1-.46.92l-.64.3a.72.72,0,0,0-.37.89l.63,1.73a.74.74,0,0,0,.86.45l.68-.19a.89.89,0,0,1,.95.41,14,14,0,0,0,1.38,2,.91.91,0,0,1,.06,1L228,212a.73.73,0,0,0,.12,1l1.42,1.18a.72.72,0,0,0,1,0l.49-.5a.87.87,0,0,1,1-.12,13.38,13.38,0,0,0,2.17,1,.89.89,0,0,1,.56.87l-.06.7a.74.74,0,0,0,.59.77l1.82.31a.72.72,0,0,0,.81-.52l.18-.68a.88.88,0,0,1,.83-.62,13.42,13.42,0,0,0,2.38-.21.87.87,0,0,1,.92.46l.3.64a.72.72,0,0,0,.89.37l1.74-.63a.73.73,0,0,0,.44-.86l-.19-.68a.89.89,0,0,1,.41-.95,13.86,13.86,0,0,0,2-1.38.89.89,0,0,1,1-.05l.57.4a.72.72,0,0,0,1-.12l1.19-1.42a.72.72,0,0,0-.05-1l-.5-.5a.91.91,0,0,1-.12-1,14.33,14.33,0,0,0,1-2.17.88.88,0,0,1,.86-.56l.7.06a.73.73,0,0,0,.77-.59l.32-1.82A.73.73,0,0,0,254,202.54Zm-7,.44a8.29,8.29,0,1,1-6.74-9.59A8.3,8.3,0,0,1,247,203Z"/><path class="cls-34" d="M238.25,205.14a3.64,3.64,0,1,1,4.21-3A3.63,3.63,0,0,1,238.25,205.14Z"/><path class="cls-34" d="M278.76,174.54l-.32-.09a.43.43,0,0,1-.3-.41,6.75,6.75,0,0,0-.1-1.19.46.46,0,0,1,.22-.46l.31-.15a.39.39,0,0,0,.18-.45l-.31-.86a.36.36,0,0,0-.41-.23l-.32.1a.43.43,0,0,1-.46-.2,6.66,6.66,0,0,0-.65-1,.47.47,0,0,1,0-.52l.19-.29a.37.37,0,0,0-.06-.48l-.67-.59a.33.33,0,0,0-.46,0l-.24.25a.41.41,0,0,1-.49.07,6.27,6.27,0,0,0-1-.51.45.45,0,0,1-.27-.43l0-.35a.35.35,0,0,0-.28-.38l-.87-.16a.34.34,0,0,0-.39.26l-.08.34a.44.44,0,0,1-.39.31,6.12,6.12,0,0,0-1.14.1A.4.4,0,0,1,270,167l-.14-.32a.34.34,0,0,0-.43-.18l-.83.31a.37.37,0,0,0-.21.43l.09.35a.47.47,0,0,1-.19.47,5.83,5.83,0,0,0-.94.69.42.42,0,0,1-.49,0l-.28-.21a.34.34,0,0,0-.46.07l-.56.7a.39.39,0,0,0,0,.49l.24.24a.49.49,0,0,1,.06.52,6.56,6.56,0,0,0-.48,1.08.44.44,0,0,1-.42.29l-.33,0a.36.36,0,0,0-.37.3l-.15.91a.35.35,0,0,0,.25.4l.32.09a.45.45,0,0,1,.3.42,7.85,7.85,0,0,0,.1,1.19.44.44,0,0,1-.22.46l-.31.15a.36.36,0,0,0-.17.44l.3.87a.34.34,0,0,0,.41.22l.33-.09a.41.41,0,0,1,.45.2,6,6,0,0,0,.66,1,.47.47,0,0,1,0,.52l-.19.28a.39.39,0,0,0,.06.49l.68.59a.34.34,0,0,0,.46,0l.23-.25a.42.42,0,0,1,.49-.06,6.68,6.68,0,0,0,1,.51.44.44,0,0,1,.27.43l0,.35a.35.35,0,0,0,.28.38l.87.16a.35.35,0,0,0,.39-.26l.08-.34a.44.44,0,0,1,.4-.31,6.29,6.29,0,0,0,1.14-.11.42.42,0,0,1,.44.24l.14.32a.34.34,0,0,0,.42.18l.83-.32a.35.35,0,0,0,.21-.43l-.08-.34a.44.44,0,0,1,.19-.47,6.22,6.22,0,0,0,.93-.69.42.42,0,0,1,.5,0l.27.21a.34.34,0,0,0,.46-.07l.57-.71a.37.37,0,0,0,0-.48l-.24-.25a.45.45,0,0,1-.05-.51,7.53,7.53,0,0,0,.48-1.08.44.44,0,0,1,.41-.29l.33,0a.36.36,0,0,0,.37-.3L279,175A.37.37,0,0,0,278.76,174.54Zm-3.32.22a4,4,0,0,1-4.58,3.37,4.13,4.13,0,0,1-3.22-4.79,4,4,0,0,1,4.58-3.37A4.12,4.12,0,0,1,275.44,174.76Z"/><path class="cls-34" d="M261.44,155.19l-.32-.09a.44.44,0,0,1-.3-.41,6.67,6.67,0,0,0-.1-1.19.45.45,0,0,1,.22-.46l.31-.15a.38.38,0,0,0,.17-.45l-.3-.87a.34.34,0,0,0-.41-.22l-.32.09a.42.42,0,0,1-.46-.2,7.92,7.92,0,0,0-.65-1,.44.44,0,0,1,0-.51l.19-.29a.37.37,0,0,0-.06-.48l-.67-.59a.33.33,0,0,0-.46,0l-.24.25a.41.41,0,0,1-.49.06,7.12,7.12,0,0,0-1-.5.45.45,0,0,1-.27-.43l0-.35a.36.36,0,0,0-.28-.39l-.87-.16a.36.36,0,0,0-.39.26l-.08.35a.44.44,0,0,1-.4.31,6.09,6.09,0,0,0-1.13.1.42.42,0,0,1-.44-.23l-.15-.32a.33.33,0,0,0-.42-.19l-.83.32a.36.36,0,0,0-.21.43l.09.34a.47.47,0,0,1-.2.48,6.93,6.93,0,0,0-.93.68.39.39,0,0,1-.49,0l-.28-.2a.34.34,0,0,0-.46.06l-.56.71a.38.38,0,0,0,0,.48l.24.25a.48.48,0,0,1,.06.51,7.07,7.07,0,0,0-.48,1.09.42.42,0,0,1-.42.28l-.33,0a.36.36,0,0,0-.37.29l-.15.91a.37.37,0,0,0,.25.41l.32.09a.44.44,0,0,1,.3.41,7.64,7.64,0,0,0,.1,1.19.44.44,0,0,1-.22.46l-.31.15a.38.38,0,0,0-.17.45l.3.87a.34.34,0,0,0,.41.22l.33-.09a.41.41,0,0,1,.45.2,7,7,0,0,0,.66,1,.45.45,0,0,1,0,.51l-.19.29a.38.38,0,0,0,.06.48l.68.59a.33.33,0,0,0,.46,0l.23-.25a.41.41,0,0,1,.49-.06,5.85,5.85,0,0,0,1,.5.44.44,0,0,1,.27.43l0,.35a.36.36,0,0,0,.28.39l.87.16a.36.36,0,0,0,.39-.26l.08-.34a.43.43,0,0,1,.4-.31,6.29,6.29,0,0,0,1.14-.11.43.43,0,0,1,.44.23l.14.32a.33.33,0,0,0,.42.19l.83-.32a.36.36,0,0,0,.21-.43l-.08-.34a.44.44,0,0,1,.19-.47,6.22,6.22,0,0,0,.93-.69.42.42,0,0,1,.5,0l.27.2a.33.33,0,0,0,.46-.06l.57-.71a.37.37,0,0,0,0-.48l-.24-.25a.47.47,0,0,1-.06-.51,7.69,7.69,0,0,0,.49-1.09.43.43,0,0,1,.41-.28l.33,0a.34.34,0,0,0,.37-.29l.15-.91A.37.37,0,0,0,261.44,155.19Zm-3.32.22a4,4,0,0,1-4.58,3.37,4.14,4.14,0,0,1-3.22-4.8,4,4,0,0,1,4.58-3.37A4.13,4.13,0,0,1,258.12,155.41Z"/><path class="cls-34" d="M235.42,179.76l-.29-.07a.38.38,0,0,1-.25-.36,6,6,0,0,0-.09-1,.4.4,0,0,1,.19-.4l.27-.13a.33.33,0,0,0,.15-.39l-.26-.75a.3.3,0,0,0-.36-.2l-.28.09a.37.37,0,0,1-.4-.18,6,6,0,0,0-.57-.85.39.39,0,0,1,0-.45l.17-.25a.33.33,0,0,0-.06-.42l-.58-.51a.3.3,0,0,0-.41,0l-.2.21a.35.35,0,0,1-.43.06,5.36,5.36,0,0,0-.9-.44.38.38,0,0,1-.23-.38l0-.3a.31.31,0,0,0-.24-.34l-.76-.13a.3.3,0,0,0-.34.22l-.07.3a.37.37,0,0,1-.34.27,5.36,5.36,0,0,0-1,.09.38.38,0,0,1-.39-.2l-.12-.28a.3.3,0,0,0-.37-.16l-.72.28a.31.31,0,0,0-.18.37l.07.3a.39.39,0,0,1-.16.41,5.22,5.22,0,0,0-.82.6.36.36,0,0,1-.43,0l-.24-.17a.3.3,0,0,0-.4.05l-.49.62a.33.33,0,0,0,0,.42l.21.21a.39.39,0,0,1,.05.45,7.26,7.26,0,0,0-.42.94.38.38,0,0,1-.36.25l-.29,0a.31.31,0,0,0-.32.26l-.13.79a.31.31,0,0,0,.22.35l.28.08a.38.38,0,0,1,.26.36,6,6,0,0,0,.09,1,.41.41,0,0,1-.2.4l-.26.13a.31.31,0,0,0-.16.38l.27.76a.29.29,0,0,0,.35.19l.29-.08a.36.36,0,0,1,.39.18,7,7,0,0,0,.57.85.41.41,0,0,1,0,.45l-.17.25a.33.33,0,0,0,0,.42l.59.51a.29.29,0,0,0,.4,0l.21-.22a.35.35,0,0,1,.42-.05,6.24,6.24,0,0,0,.9.44.38.38,0,0,1,.24.37l0,.31a.32.32,0,0,0,.25.33l.75.14a.3.3,0,0,0,.34-.23l.08-.29a.35.35,0,0,1,.34-.27,5.54,5.54,0,0,0,1-.1.36.36,0,0,1,.38.21l.12.28a.31.31,0,0,0,.37.16l.72-.28a.31.31,0,0,0,.19-.37l-.08-.3a.39.39,0,0,1,.17-.41,6.06,6.06,0,0,0,.81-.6.36.36,0,0,1,.43,0l.24.18a.3.3,0,0,0,.4-.05l.49-.62a.32.32,0,0,0,0-.42l-.2-.22a.39.39,0,0,1-.06-.44,5.38,5.38,0,0,0,.42-1,.38.38,0,0,1,.36-.24l.29,0a.3.3,0,0,0,.32-.26l.13-.79A.32.32,0,0,0,235.42,179.76Zm-2.89.2a3.47,3.47,0,0,1-4,2.93,3.61,3.61,0,0,1-2.8-4.18,3.47,3.47,0,0,1,4-2.93A3.62,3.62,0,0,1,232.53,180Z"/><path class="cls-34" d="M263.07,175.35l-.21-1.49a.59.59,0,0,0-.61-.5l-.58,0a.71.71,0,0,1-.69-.48,10.27,10.27,0,0,0-.77-1.8.75.75,0,0,1,.13-.83l.43-.4a.59.59,0,0,0,.06-.78l-.93-1.19a.59.59,0,0,0-.78-.13l-.48.32a.72.72,0,0,1-.84-.08,12.08,12.08,0,0,0-1.57-1.17.72.72,0,0,1-.3-.79l.17-.55a.58.58,0,0,0-.34-.71l-1.4-.56a.6.6,0,0,0-.74.28l-.26.51a.71.71,0,0,1-.76.35,11.3,11.3,0,0,0-1.94-.23.74.74,0,0,1-.66-.53l-.12-.56a.6.6,0,0,0-.66-.45l-1.49.21a.6.6,0,0,0-.5.61l0,.58a.71.71,0,0,1-.48.69,11.08,11.08,0,0,0-1.8.77.73.73,0,0,1-.83-.13l-.39-.43a.61.61,0,0,0-.79-.06l-1.19.93a.59.59,0,0,0-.12.78l.31.49a.71.71,0,0,1-.07.83,11.3,11.3,0,0,0-1.18,1.57.71.71,0,0,1-.78.3l-.55-.17a.59.59,0,0,0-.72.34l-.56,1.4a.6.6,0,0,0,.28.74l.51.26a.71.71,0,0,1,.36.76A11.31,11.31,0,0,0,239,176a.73.73,0,0,1-.52.66l-.57.13a.57.57,0,0,0-.44.65l.21,1.49a.59.59,0,0,0,.61.5l.57,0a.71.71,0,0,1,.69.48,12,12,0,0,0,.77,1.8.71.71,0,0,1-.13.83l-.42.39a.59.59,0,0,0-.06.79l.93,1.19a.59.59,0,0,0,.78.12l.48-.31a.72.72,0,0,1,.84.07,11.21,11.21,0,0,0,1.56,1.18.71.71,0,0,1,.3.78l-.17.55a.62.62,0,0,0,.34.72l1.4.56a.59.59,0,0,0,.74-.28l.26-.51a.71.71,0,0,1,.76-.36,10.4,10.4,0,0,0,2,.24.73.73,0,0,1,.65.53l.13.56a.6.6,0,0,0,.65.44l1.49-.21a.58.58,0,0,0,.5-.61l0-.57a.71.71,0,0,1,.48-.69,11.08,11.08,0,0,0,1.8-.77.71.71,0,0,1,.83.13l.4.42a.57.57,0,0,0,.78.06l1.19-.93a.6.6,0,0,0,.13-.78l-.32-.48a.72.72,0,0,1,.08-.84,10.58,10.58,0,0,0,1.17-1.56.72.72,0,0,1,.79-.3l.55.17a.6.6,0,0,0,.71-.34l.56-1.4a.59.59,0,0,0-.27-.74l-.52-.26a.72.72,0,0,1-.35-.76,11.42,11.42,0,0,0,.23-1.94.73.73,0,0,1,.53-.66l.56-.13A.6.6,0,0,0,263.07,175.35Zm-11.6,9.49a8.52,8.52,0,1,1,7.25-9.63A8.52,8.52,0,0,1,251.47,184.84Z"/><path class="cls-34" d="M250.69,179.31a2.93,2.93,0,1,1,2.49-3.32A2.93,2.93,0,0,1,250.69,179.31Z"/><path class="cls-34" d="M247.4,146.2l-.14-1a.39.39,0,0,0-.4-.32l-.38,0a.47.47,0,0,1-.45-.32,6.75,6.75,0,0,0-.5-1.17.49.49,0,0,1,.09-.55l.27-.25a.4.4,0,0,0,0-.52l-.6-.77a.4.4,0,0,0-.51-.09l-.32.21a.47.47,0,0,1-.55-.05,7.5,7.5,0,0,0-1-.76.5.5,0,0,1-.2-.52l.12-.36a.39.39,0,0,0-.23-.46l-.91-.37a.39.39,0,0,0-.48.18l-.17.34a.48.48,0,0,1-.5.23,6.68,6.68,0,0,0-1.27-.15.49.49,0,0,1-.43-.35l-.08-.37a.4.4,0,0,0-.43-.29l-1,.14a.4.4,0,0,0-.33.4l0,.38a.48.48,0,0,1-.31.45,6.85,6.85,0,0,0-1.18.5.47.47,0,0,1-.54-.09l-.26-.27a.37.37,0,0,0-.51,0l-.78.6a.39.39,0,0,0-.08.51l.21.32a.49.49,0,0,1-.05.55,6.49,6.49,0,0,0-.77,1,.49.49,0,0,1-.51.2l-.36-.12a.4.4,0,0,0-.47.23l-.37.91a.39.39,0,0,0,.18.48l.34.17a.48.48,0,0,1,.23.5,7.6,7.6,0,0,0-.15,1.27.49.49,0,0,1-.35.43l-.36.08a.4.4,0,0,0-.3.43l.14,1a.4.4,0,0,0,.4.33l.38,0a.48.48,0,0,1,.45.31,6.85,6.85,0,0,0,.5,1.18.46.46,0,0,1-.09.54l-.27.26a.38.38,0,0,0,0,.51l.6.78a.39.39,0,0,0,.51.08l.32-.21a.49.49,0,0,1,.55.05,7.58,7.58,0,0,0,1,.77.49.49,0,0,1,.2.51l-.11.36a.38.38,0,0,0,.22.47l.91.37a.38.38,0,0,0,.48-.19l.17-.33a.48.48,0,0,1,.5-.23,7.6,7.6,0,0,0,1.27.15.48.48,0,0,1,.43.34l.08.37a.39.39,0,0,0,.43.29l1-.13a.39.39,0,0,0,.33-.4l0-.38a.47.47,0,0,1,.32-.45,6.75,6.75,0,0,0,1.17-.5.47.47,0,0,1,.54.08l.26.28a.38.38,0,0,0,.51,0l.78-.61a.39.39,0,0,0,.08-.51l-.2-.31a.48.48,0,0,1,0-.55,6.82,6.82,0,0,0,.77-1,.48.48,0,0,1,.52-.2l.36.11a.38.38,0,0,0,.46-.22l.37-.91a.4.4,0,0,0-.18-.49l-.34-.17a.46.46,0,0,1-.23-.49,6.78,6.78,0,0,0,.15-1.27.47.47,0,0,1,.35-.43l.36-.08A.41.41,0,0,0,247.4,146.2Zm-7.58,6.2a5.57,5.57,0,1,1,4.73-6.29A5.56,5.56,0,0,1,239.82,152.4Z"/><path class="cls-34" d="M239.31,148.79a1.92,1.92,0,1,1,1.63-2.17A1.93,1.93,0,0,1,239.31,148.79Z"/><path class="cls-34" d="M268.58,205.07a.79.79,0,0,1-.77-.61l-.11-.48a.32.32,0,0,0-.3-.23,9.87,9.87,0,0,1-1.71-.21.34.34,0,0,0-.35.16l-.22.44a.79.79,0,0,1-1,.37l-1.2-.48a.79.79,0,0,1-.46-1l.15-.47a.35.35,0,0,0-.15-.36,9.9,9.9,0,0,1-1.38-1,.32.32,0,0,0-.37,0l-.42.27a.79.79,0,0,1-1.05-.17l-.79-1a.79.79,0,0,1,.08-1.06l.36-.33a.35.35,0,0,0,.06-.38,8.85,8.85,0,0,1-.68-1.59.36.36,0,0,0-.31-.22l-.49,0a.79.79,0,0,1-.82-.67l-.19-1.29a.79.79,0,0,1,.61-.87l.48-.11a.33.33,0,0,0,.23-.3,10.22,10.22,0,0,1,.21-1.72.33.33,0,0,0-.16-.34l-.44-.22a.8.8,0,0,1-.37-1l.48-1.2a.79.79,0,0,1,1-.45l.47.14a.34.34,0,0,0,.36-.14,9.35,9.35,0,0,1,1-1.38.33.33,0,0,0,0-.38l-.27-.41a.79.79,0,0,1,.17-1.05l1-.8a.79.79,0,0,1,1.06.09l.33.36a.35.35,0,0,0,.38,0,9.71,9.71,0,0,1,1.59-.67.33.33,0,0,0,.22-.31l0-.5a.8.8,0,0,1,.68-.82l1.28-.18a.78.78,0,0,1,.87.6l.11.49a.35.35,0,0,0,.3.23,9.86,9.86,0,0,1,1.72.21.35.35,0,0,0,.34-.16l.22-.44a.8.8,0,0,1,1-.37l1.2.48a.79.79,0,0,1,.45,1l-.14.47a.33.33,0,0,0,.14.35,9.78,9.78,0,0,1,1.38,1,.35.35,0,0,0,.38,0l.41-.27a.79.79,0,0,1,1.05.17l.8,1a.79.79,0,0,1-.09,1.05l-.36.34a.35.35,0,0,0-.05.38,9.36,9.36,0,0,1,.67,1.59.39.39,0,0,0,.31.22l.5,0a.79.79,0,0,1,.82.67l.18,1.28a.79.79,0,0,1-.6.88l-.48.11a.36.36,0,0,0-.24.3,9.63,9.63,0,0,1-.21,1.71.36.36,0,0,0,.16.35l.44.22a.79.79,0,0,1,.37,1l-.48,1.2a.78.78,0,0,1-1,.46l-.48-.14a.34.34,0,0,0-.35.14,10.83,10.83,0,0,1-1,1.38.34.34,0,0,0,0,.37l.28.42a.78.78,0,0,1-.18,1l-1,.8a.77.77,0,0,1-1.05-.08l-.34-.36a.33.33,0,0,0-.37-.06,9.38,9.38,0,0,1-1.6.68.36.36,0,0,0-.22.31l0,.49a.78.78,0,0,1-.67.82l-1.28.19Zm-2.95-2.1.17,0a8.84,8.84,0,0,0,1.62.19.91.91,0,0,1,.83.68l.11.48a.25.25,0,0,0,.25.17l1.28-.19a.23.23,0,0,0,.19-.23l0-.49a.89.89,0,0,1,.61-.87,10,10,0,0,0,1.5-.64.89.89,0,0,1,1,.16l.34.37a.22.22,0,0,0,.29,0l1-.8a.22.22,0,0,0,.05-.29l-.27-.42a.89.89,0,0,1,.09-1.06,9.62,9.62,0,0,0,1-1.3.88.88,0,0,1,1-.38l.47.14a.24.24,0,0,0,.27-.13l.48-1.2a.22.22,0,0,0-.1-.27l-.44-.23a.89.89,0,0,1-.46-1,9.69,9.69,0,0,0,.2-1.62.89.89,0,0,1,.67-.83l.48-.11a.23.23,0,0,0,.17-.25l-.18-1.28a.26.26,0,0,0-.23-.19l-.49,0a.89.89,0,0,1-.88-.61,9.53,9.53,0,0,0-.64-1.5.9.9,0,0,1,.17-1l.36-.34a.22.22,0,0,0,0-.29l-.8-1a.23.23,0,0,0-.29,0l-.41.27a.9.9,0,0,1-1.07-.09,10.29,10.29,0,0,0-1.3-1,.9.9,0,0,1-.38-1l.15-.47a.24.24,0,0,0-.13-.27l-1.2-.48a.24.24,0,0,0-.28.1l-.22.45a.91.91,0,0,1-1,.45,9.69,9.69,0,0,0-1.62-.2.9.9,0,0,1-.83-.67l-.11-.48a.22.22,0,0,0-.24-.17l-1.28.18a.23.23,0,0,0-.19.23l0,.5a.88.88,0,0,1-.6.87,9.14,9.14,0,0,0-1.5.64.91.91,0,0,1-1.06-.17l-.34-.36a.22.22,0,0,0-.29,0l-1,.8a.23.23,0,0,0-.05.29l.27.41a.9.9,0,0,1-.09,1.07,10.46,10.46,0,0,0-1,1.3.91.91,0,0,1-1,.38l-.48-.14a.24.24,0,0,0-.27.12l-.48,1.21a.22.22,0,0,0,.11.27l.44.23a.89.89,0,0,1,.45,1,9,9,0,0,0-.19,1.62.91.91,0,0,1-.67.83l-.49.11a.24.24,0,0,0-.17.24l.18,1.29a.23.23,0,0,0,.24.18l.49,0a.9.9,0,0,1,.88.6,9.45,9.45,0,0,0,.63,1.51.89.89,0,0,1-.16,1.05l-.37.34a.23.23,0,0,0,0,.29l.8,1a.22.22,0,0,0,.29.05l.42-.27a.89.89,0,0,1,1.06.09,9.62,9.62,0,0,0,1.3,1,.89.89,0,0,1,.39,1l-.15.48a.24.24,0,0,0,.13.27l1.2.48a.23.23,0,0,0,.28-.11l.22-.44A.89.89,0,0,1,265.63,203Zm2.11-1.57a7.52,7.52,0,1,1,1.07-.07h0A7.79,7.79,0,0,1,267.74,201.4Zm0-14.64a6.82,6.82,0,0,0-1,.07,7,7,0,1,0,2,13.94h0a7,7,0,0,0-1-14Z"/><path class="cls-34" d="M267.74,196.6a2.8,2.8,0,0,1-2.77-2.41,2.77,2.77,0,0,1,.53-2.08,2.85,2.85,0,0,1,1.85-1.09,2.8,2.8,0,0,1,2.63,4.46,2.75,2.75,0,0,1-1.84,1.09h0Zm0-5-.31,0a2.3,2.3,0,0,0-1.48.87,2.2,2.2,0,0,0-.42,1.66,2.24,2.24,0,0,0,2.53,1.91h0a2.25,2.25,0,0,0,1.47-.88,2.22,2.22,0,0,0,.43-1.66A2.25,2.25,0,0,0,267.74,191.56Z"/></g><g class="cls-12"><rect x="227.87" y="140.64" width="2.36" height="1.58" transform="translate(-37.69 105.13) rotate(-23.94)"/><path d="M231.93,141l-.64-1.44,4.47-2,.63,1.44Zm5.95-2.64-.64-1.44,4.46-2,.64,1.44Zm6-2.63-.64-1.44,4.46-2,.64,1.44Zm5.94-2.64-.63-1.44,4.46-2,.64,1.44Z"/><rect x="255.3" y="128.48" width="2.36" height="1.58" transform="translate(-30.39 115.21) rotate(-23.94)"/></g><path class="cls-12" d="M228.29,212.45l-.64-1.44.8-.35.64,1.44Zm2.24-1-.64-1.44,4.32-1.92.64,1.44Zm5.76-2.56-.64-1.43,4.32-1.92.64,1.44Zm5.76-2.55-.64-1.44,4.32-1.91.64,1.44Zm5.76-2.55-.64-1.44,4.32-1.92.63,1.44Zm5.75-2.56-.63-1.44,4.31-1.91.64,1.44Z"/><path class="cls-12" d="M287.48,212.45l-.64-1.44.8-.35.64,1.44Zm2.24-1-.64-1.44,4.32-1.92.64,1.44Zm5.76-2.56-.64-1.43,4.32-1.92.64,1.44Zm5.76-2.55-.64-1.44,4.32-1.91.64,1.44ZM307,203.8l-.64-1.44,4.32-1.92.64,1.44Zm5.76-2.56-.64-1.44,4.32-1.91.64,1.44Z"/><rect class="cls-35" x="257.56" y="128.78" width="59.19" height="69.82"/><rect class="cls-22" x="261.58" y="131.67" width="51.17" height="64.05"/><g class="cls-12"><path d="M282,173.84a7.27,7.27,0,0,1-3.57-1.7,4.2,4.2,0,0,1-1.2-3.13v-2c0-1.68-.95-2.51-2.85-2.51V163c1.9,0,2.85-.84,2.85-2.5V158.3a4.2,4.2,0,0,1,1.2-3.05,7.1,7.1,0,0,1,3.57-1.69l.51,1.19a3.35,3.35,0,0,0-2.8,3.6v2.09a3.28,3.28,0,0,1-2.24,3.26,3.32,3.32,0,0,1,2.24,3.3v2.12a3.36,3.36,0,0,0,2.8,3.53Z"/><path d="M295.67,153.56a7.1,7.1,0,0,1,3.58,1.7,4.19,4.19,0,0,1,1.2,3.12v2.06c0,1.67.95,2.51,2.84,2.51v1.5c-1.89,0-2.84.83-2.84,2.5v2.14a4.24,4.24,0,0,1-1.2,3.06,7.35,7.35,0,0,1-3.58,1.69l-.51-1.19A3.37,3.37,0,0,0,298,169V167a3.28,3.28,0,0,1,2.24-3.27A3.31,3.31,0,0,1,298,160.4v-2.13a3.34,3.34,0,0,0-2.81-3.52Z"/><path d="M285.22,171.35h-2.14L291.24,155h2.12Z"/></g><g class="cls-36"><path class="cls-14" d="M292.87,239H253.22a2,2,0,0,1-2-2h0a2,2,0,0,1,2-2h39.65a2,2,0,0,1,2,2h0A2,2,0,0,1,292.87,239Z"/><path class="cls-14" d="M292.87,247.14H253.22a2,2,0,0,1-2-2h0a2,2,0,0,1,2-2h39.65a2,2,0,0,1,2,2h0A2,2,0,0,1,292.87,247.14Z"/><path class="cls-14" d="M270.82,255.25h-17.6a2,2,0,0,1-2-2h0a2,2,0,0,1,2-2h17.6a2,2,0,0,1,2,2h0A2,2,0,0,1,270.82,255.25Z"/></g><rect class="cls-12" x="232.81" y="270.05" width="62.13" height="23.25" rx="5.46" ry="5.46"/><g class="cls-37"><g class="cls-12"><path d="M252.48,288.11l-.22-1.49a.59.59,0,0,0-.61-.5l-.57,0a.71.71,0,0,1-.69-.48,10.27,10.27,0,0,0-.77-1.8.75.75,0,0,1,.13-.83l.42-.39a.6.6,0,0,0,.07-.79l-.93-1.19a.6.6,0,0,0-.78-.13l-.48.32a.72.72,0,0,1-.84-.07,11.3,11.3,0,0,0-1.57-1.18.71.71,0,0,1-.3-.78l.17-.55a.6.6,0,0,0-.34-.72l-1.4-.56a.61.61,0,0,0-.74.28l-.26.51a.71.71,0,0,1-.76.36,12.39,12.39,0,0,0-1.94-.24.72.72,0,0,1-.66-.52l-.13-.57a.58.58,0,0,0-.65-.44l-1.49.21a.59.59,0,0,0-.5.61l0,.58a.71.71,0,0,1-.48.68,12,12,0,0,0-1.8.77.71.71,0,0,1-.83-.13l-.39-.42a.59.59,0,0,0-.79-.06l-1.19.93a.6.6,0,0,0-.13.78l.32.48a.72.72,0,0,1-.07.84,11.21,11.21,0,0,0-1.18,1.56.73.73,0,0,1-.78.31l-.55-.17a.6.6,0,0,0-.72.33l-.56,1.4a.59.59,0,0,0,.28.74l.51.26a.71.71,0,0,1,.36.76,11.56,11.56,0,0,0-.24,1.94.73.73,0,0,1-.52.66l-.57.13a.6.6,0,0,0-.45.65l.22,1.49a.58.58,0,0,0,.61.5l.57,0a.72.72,0,0,1,.69.49,12.38,12.38,0,0,0,.77,1.79.73.73,0,0,1-.13.84l-.42.39a.58.58,0,0,0-.07.78l.93,1.19a.59.59,0,0,0,.78.13l.49-.32a.72.72,0,0,1,.84.08,11.14,11.14,0,0,0,1.56,1.17.72.72,0,0,1,.3.79l-.17.55a.6.6,0,0,0,.34.71l1.4.56a.58.58,0,0,0,.74-.27l.26-.52a.71.71,0,0,1,.76-.35,11.3,11.3,0,0,0,1.94.23.73.73,0,0,1,.66.53l.13.56a.6.6,0,0,0,.65.45l1.49-.21a.6.6,0,0,0,.5-.62l0-.57a.71.71,0,0,1,.48-.69,11,11,0,0,0,1.8-.76.73.73,0,0,1,.83.12l.4.43a.59.59,0,0,0,.78.06l1.19-.93a.6.6,0,0,0,.13-.78l-.32-.48a.74.74,0,0,1,.07-.84,11.83,11.83,0,0,0,1.18-1.56.71.71,0,0,1,.79-.31l.55.17a.58.58,0,0,0,.71-.34l.56-1.4a.6.6,0,0,0-.28-.74l-.51-.26a.73.73,0,0,1-.36-.76,10.4,10.4,0,0,0,.24-1.94.73.73,0,0,1,.53-.66l.56-.12A.6.6,0,0,0,252.48,288.11Zm-11.6,9.5a8.52,8.52,0,1,1,7.25-9.64A8.52,8.52,0,0,1,240.88,297.61Z"/><path d="M240.1,292.07a2.93,2.93,0,1,1,2.49-3.31A2.93,2.93,0,0,1,240.1,292.07Z"/></g><g class="cls-12"><path d="M296.52,277.35l-.21-1.5a.6.6,0,0,0-.61-.5l-.57,0a.73.73,0,0,1-.69-.49,11.08,11.08,0,0,0-.77-1.8.71.71,0,0,1,.13-.83l.42-.39a.6.6,0,0,0,.06-.79l-.93-1.19a.59.59,0,0,0-.78-.12l-.48.31a.71.71,0,0,1-.84-.07,11.14,11.14,0,0,0-1.56-1.17.73.73,0,0,1-.3-.79l.17-.55a.6.6,0,0,0-.34-.71l-1.4-.57a.6.6,0,0,0-.74.28l-.26.52a.72.72,0,0,1-.76.35,11.42,11.42,0,0,0-1.94-.23.73.73,0,0,1-.66-.53l-.13-.56a.6.6,0,0,0-.65-.45l-1.49.21a.59.59,0,0,0-.5.61l0,.58a.72.72,0,0,1-.48.69,11,11,0,0,0-1.8.76.73.73,0,0,1-.84-.13l-.39-.42a.6.6,0,0,0-.79-.06l-1.18.93a.6.6,0,0,0-.13.78l.32.48a.72.72,0,0,1-.08.84,12.69,12.69,0,0,0-1.17,1.56.74.74,0,0,1-.79.31l-.55-.17a.58.58,0,0,0-.71.34l-.56,1.39a.58.58,0,0,0,.27.74l.52.26a.73.73,0,0,1,.35.77,11.3,11.3,0,0,0-.23,1.94.72.72,0,0,1-.53.65l-.56.13a.6.6,0,0,0-.45.65l.21,1.5a.6.6,0,0,0,.61.5l.58,0a.74.74,0,0,1,.69.49,11,11,0,0,0,.76,1.8.73.73,0,0,1-.12.83l-.43.39a.61.61,0,0,0-.06.79l.93,1.18a.59.59,0,0,0,.78.13l.48-.31a.71.71,0,0,1,.84.07,10.5,10.5,0,0,0,1.57,1.17.72.72,0,0,1,.3.79l-.17.55a.58.58,0,0,0,.34.71l1.4.57a.61.61,0,0,0,.74-.28l.25-.52a.74.74,0,0,1,.77-.35,11.3,11.3,0,0,0,1.94.23.73.73,0,0,1,.66.53l.13.56a.59.59,0,0,0,.65.45l1.49-.21a.6.6,0,0,0,.5-.61l0-.58a.73.73,0,0,1,.48-.69,11,11,0,0,0,1.8-.76.71.71,0,0,1,.83.13l.39.42a.6.6,0,0,0,.79.06l1.19-.93a.6.6,0,0,0,.13-.78l-.32-.48a.71.71,0,0,1,.07-.84,11.83,11.83,0,0,0,1.18-1.56.73.73,0,0,1,.78-.31l.55.17a.59.59,0,0,0,.72-.34l.56-1.4a.59.59,0,0,0-.28-.73l-.51-.26a.73.73,0,0,1-.36-.77,11.31,11.31,0,0,0,.24-1.94.72.72,0,0,1,.52-.65l.57-.13A.59.59,0,0,0,296.52,277.35Zm-11.59,9.49a8.52,8.52,0,1,1,7.24-9.64A8.53,8.53,0,0,1,284.93,286.84Z"/><path d="M284.14,281.3a2.93,2.93,0,0,1-.82-5.81,2.93,2.93,0,1,1,.82,5.81Z"/></g><path class="cls-34" d="M254.39,287.16l-.22-1.49a.58.58,0,0,0-.61-.5l-.57,0a.71.71,0,0,1-.69-.48,11.08,11.08,0,0,0-.77-1.8.73.73,0,0,1,.13-.83l.42-.4a.57.57,0,0,0,.06-.78l-.92-1.19a.59.59,0,0,0-.78-.13l-.49.32a.71.71,0,0,1-.83-.08,12.08,12.08,0,0,0-1.57-1.17.72.72,0,0,1-.3-.79l.17-.55a.59.59,0,0,0-.34-.71l-1.4-.56a.59.59,0,0,0-.74.28l-.26.51a.71.71,0,0,1-.76.35A11.3,11.3,0,0,0,242,277a.73.73,0,0,1-.66-.53l-.13-.56a.59.59,0,0,0-.65-.45l-1.49.21a.61.61,0,0,0-.5.62l0,.57a.71.71,0,0,1-.48.69,11.08,11.08,0,0,0-1.8.77.73.73,0,0,1-.83-.13l-.4-.43a.59.59,0,0,0-.78-.06l-1.19.93a.6.6,0,0,0-.13.78l.32.49a.73.73,0,0,1-.07.83,11.3,11.3,0,0,0-1.18,1.57.71.71,0,0,1-.78.3l-.56-.17a.59.59,0,0,0-.71.34l-.56,1.4a.6.6,0,0,0,.28.74l.51.26a.71.71,0,0,1,.36.76,10.4,10.4,0,0,0-.24,1.94.73.73,0,0,1-.53.66l-.56.13a.59.59,0,0,0-.45.65l.22,1.49a.59.59,0,0,0,.61.5l.57,0a.71.71,0,0,1,.69.48,11.08,11.08,0,0,0,.77,1.8.73.73,0,0,1-.13.83l-.42.39a.6.6,0,0,0-.07.79l.93,1.19a.6.6,0,0,0,.78.13l.49-.32a.72.72,0,0,1,.84.07,10.65,10.65,0,0,0,1.56,1.18.71.71,0,0,1,.3.78l-.17.55a.62.62,0,0,0,.34.72l1.4.56a.59.59,0,0,0,.74-.28l.26-.51a.71.71,0,0,1,.76-.36,10.4,10.4,0,0,0,1.94.24.73.73,0,0,1,.66.53l.13.56a.6.6,0,0,0,.65.44l1.49-.21a.59.59,0,0,0,.5-.61l0-.57a.71.71,0,0,1,.48-.69,11.08,11.08,0,0,0,1.8-.77.71.71,0,0,1,.83.13l.39.42a.59.59,0,0,0,.79.06l1.19-.93a.6.6,0,0,0,.13-.78l-.32-.48a.74.74,0,0,1,.07-.84,10.65,10.65,0,0,0,1.18-1.56.72.72,0,0,1,.79-.3l.55.17a.6.6,0,0,0,.71-.34l.56-1.4a.59.59,0,0,0-.28-.74l-.51-.26a.71.71,0,0,1-.36-.76,10.5,10.5,0,0,0,.24-1.94.73.73,0,0,1,.53-.66l.56-.13A.6.6,0,0,0,254.39,287.16Zm-11.6,9.49A8.52,8.52,0,1,1,250,287,8.53,8.53,0,0,1,242.79,296.65Z"/><path class="cls-34" d="M242,291.12a2.93,2.93,0,1,1,2.49-3.32A2.93,2.93,0,0,1,242,291.12Z"/><path class="cls-34" d="M298.43,276.39l-.21-1.49a.6.6,0,0,0-.61-.5l-.58,0a.73.73,0,0,1-.69-.48,11,11,0,0,0-.76-1.8.71.71,0,0,1,.13-.83l.42-.4a.58.58,0,0,0,.06-.78l-.93-1.19a.6.6,0,0,0-.78-.13l-.48.32a.74.74,0,0,1-.84-.07,11.83,11.83,0,0,0-1.56-1.18.71.71,0,0,1-.3-.78l.16-.56a.58.58,0,0,0-.34-.71l-1.39-.56a.59.59,0,0,0-.74.28l-.26.51a.73.73,0,0,1-.76.36,10.61,10.61,0,0,0-2-.24.72.72,0,0,1-.65-.53l-.13-.56a.6.6,0,0,0-.65-.45l-1.49.22a.58.58,0,0,0-.5.61l0,.57a.72.72,0,0,1-.49.69,11,11,0,0,0-1.79.77.73.73,0,0,1-.84-.13l-.39-.42a.6.6,0,0,0-.79-.07l-1.18.93a.59.59,0,0,0-.13.78l.32.49a.72.72,0,0,1-.08.84,10.58,10.58,0,0,0-1.17,1.56.72.72,0,0,1-.79.3l-.55-.17a.6.6,0,0,0-.71.34l-.57,1.4a.61.61,0,0,0,.28.74l.52.26a.72.72,0,0,1,.35.76,11.3,11.3,0,0,0-.23,1.94.73.73,0,0,1-.53.66l-.56.13a.59.59,0,0,0-.45.65l.21,1.49a.6.6,0,0,0,.61.5l.58,0a.72.72,0,0,1,.69.48,11,11,0,0,0,.76,1.8.73.73,0,0,1-.12.83l-.43.4a.59.59,0,0,0-.06.78l.93,1.19a.6.6,0,0,0,.78.13l.48-.32a.72.72,0,0,1,.84.08,12.69,12.69,0,0,0,1.56,1.17.73.73,0,0,1,.31.78l-.17.56a.58.58,0,0,0,.34.71l1.4.56a.58.58,0,0,0,.73-.28l.26-.51a.73.73,0,0,1,.77-.36,10.4,10.4,0,0,0,1.94.24.71.71,0,0,1,.65.53l.13.56a.6.6,0,0,0,.65.45l1.5-.22a.6.6,0,0,0,.5-.61l0-.57a.73.73,0,0,1,.49-.69,11.08,11.08,0,0,0,1.8-.77.73.73,0,0,1,.83.13l.39.42a.6.6,0,0,0,.79.07l1.19-.93a.59.59,0,0,0,.12-.78l-.31-.49A.69.69,0,0,1,294,285a11.3,11.3,0,0,0,1.18-1.57.71.71,0,0,1,.78-.3l.55.17a.6.6,0,0,0,.71-.34l.57-1.4a.6.6,0,0,0-.28-.74l-.51-.26a.71.71,0,0,1-.36-.76,12.39,12.39,0,0,0,.24-1.94.72.72,0,0,1,.52-.66L298,277A.59.59,0,0,0,298.43,276.39Zm-11.59,9.5a8.53,8.53,0,1,1,7.24-9.64A8.53,8.53,0,0,1,286.84,285.89Z"/><path class="cls-34" d="M286.05,280.35a2.93,2.93,0,1,1,2.5-3.32A2.92,2.92,0,0,1,286.05,280.35Z"/></g><path class="cls-12" d="M234.48,272.65l-.69-1.42,4.26-2,.68,1.42Zm5.67-2.72-.68-1.43,4.26-2,.68,1.42Zm5.68-2.73-.68-1.42,4.26-2,.68,1.42Zm5.74-2.76-.74-1.39.06,0Z"/><path class="cls-12" d="M234.44,292.12l-.61-1.45,3.33-1.42.61,1.45Zm4.78-2-.61-1.45,4.34-1.85.62,1.45Zm5.8-2.47-.62-1.45,4.35-1.85.61,1.45Z"/><path class="cls-12" d="M289.81,294l-.68-1.42,3-1.45.68,1.42Zm4.45-2.13-.68-1.42,4.26-2,.68,1.42Zm5.68-2.72-.68-1.42,4.26-2.05.68,1.42Z"/><rect class="cls-12" x="247.19" y="263.15" width="62.13" height="23.25" rx="5.46" ry="5.46"/><rect class="cls-38" x="249.1" y="262.19" width="62.13" height="23.25" rx="5.46" ry="5.46"/><g class="cls-12"><path d="M303.77,284H256.56a5.24,5.24,0,0,1-5.23-5.23v-9.74a5.23,5.23,0,0,1,5.23-5.23h47.21a5.23,5.23,0,0,1,5.23,5.23v9.74A5.23,5.23,0,0,1,303.77,284Zm-47.21-19.25a4.28,4.28,0,0,0-4.27,4.28v9.74a4.27,4.27,0,0,0,4.27,4.27h47.21a4.28,4.28,0,0,0,4.28-4.27v-9.74a4.28,4.28,0,0,0-4.28-4.28Z"/><path d="M272,273.93a3.1,3.1,0,1,1-3.1-3.1A3.1,3.1,0,0,1,272,273.93Z"/><path d="M283.27,273.93a3.11,3.11,0,1,1-3.1-3.1A3.1,3.1,0,0,1,283.27,273.93Z"/><path d="M294.56,273.93a3.11,3.11,0,1,1-3.11-3.1A3.1,3.1,0,0,1,294.56,273.93Z"/></g><path class="cls-24" d="M306.64,283.07H259.42a5.22,5.22,0,0,1-5.22-5.22V268.1a5.22,5.22,0,0,1,5.22-5.22h47.22a5.22,5.22,0,0,1,5.22,5.22v9.75A5.22,5.22,0,0,1,306.64,283.07Zm-47.22-19.24a4.28,4.28,0,0,0-4.27,4.27v9.75a4.28,4.28,0,0,0,4.27,4.27h47.22a4.28,4.28,0,0,0,4.27-4.27V268.1a4.28,4.28,0,0,0-4.27-4.27Z"/><path class="cls-24" d="M274.85,273a3.11,3.11,0,1,1-3.11-3.1A3.11,3.11,0,0,1,274.85,273Z"/><path class="cls-24" d="M286.13,273a3.1,3.1,0,1,1-3.1-3.1A3.1,3.1,0,0,1,286.13,273Z"/><path class="cls-24" d="M297.42,273a3.11,3.11,0,1,1-3.1-3.1A3.1,3.1,0,0,1,297.42,273Z"/><rect class="cls-39" x="257.53" y="92.2" width="0.72" height="125"/><rect class="cls-39" x="210.16" y="133.24" width="0.72" height="169.25"/><rect class="cls-39" x="160.34" y="216.27" width="0.72" height="44.92"/><rect class="cls-39" x="146.1" y="133.24" width="0.72" height="169.25"/><rect class="cls-39" x="154.2" y="216.27" width="0.72" height="44.92"/><rect class="cls-39" x="316.4" y="92.2" width="0.72" height="125"/><rect class="cls-39" x="239.04" y="128.43" width="98.28" height="0.72"/><rect class="cls-39" x="137.54" y="221.34" width="79.59" height="0.72"/><rect class="cls-39" x="137.54" y="141.55" width="83.96" height="0.72"/><rect class="cls-39" x="137.54" y="211.37" width="83.96" height="0.72"/><rect class="cls-39" x="137.54" y="229.22" width="83.96" height="0.72"/><rect class="cls-39" x="137.54" y="234.74" width="90.11" height="0.72"/><rect class="cls-39" x="137.54" y="242.61" width="96.56" height="0.72"/><rect class="cls-39" x="137.54" y="248.13" width="90.11" height="0.72"/><rect class="cls-39" x="137.54" y="263.48" width="79.59" height="0.72"/><rect class="cls-39" x="137.54" y="256.01" width="83.96" height="0.72"/><rect class="cls-39" x="137.54" y="273.32" width="83.96" height="0.72"/><rect class="cls-39" x="137.54" y="279.1" width="90.11" height="0.72"/><rect class="cls-39" x="239.04" y="197.53" width="98.28" height="0.72"/><polygon class="cls-14" points="215.53 200.05 206.41 193.21 209.57 190.74 193.93 184.78 197.65 200.05 201.22 197.26 207.36 206.66 215.53 200.05"/><path class="cls-24" d="M283.93,172.88a7.1,7.1,0,0,1-3.57-1.7,4.19,4.19,0,0,1-1.2-3.12V166c0-1.67-1-2.51-2.85-2.51V162c1.9,0,2.85-.83,2.85-2.5v-2.15a4.18,4.18,0,0,1,1.2-3.05,7.18,7.18,0,0,1,3.57-1.69l.51,1.19a3.36,3.36,0,0,0-2.8,3.61v2.08a3.3,3.3,0,0,1-2.24,3.27,3.32,3.32,0,0,1,2.24,3.29v2.13a3.35,3.35,0,0,0,2.8,3.52Z"/><path class="cls-24" d="M297.58,152.6a7.22,7.22,0,0,1,3.58,1.7,4.2,4.2,0,0,1,1.2,3.13v2c0,1.68.95,2.51,2.84,2.51v1.5c-1.89,0-2.84.83-2.84,2.5v2.15a4.2,4.2,0,0,1-1.2,3.05,7.18,7.18,0,0,1-3.58,1.69l-.51-1.19a3.35,3.35,0,0,0,2.8-3.6V166a3.28,3.28,0,0,1,2.25-3.26,3.32,3.32,0,0,1-2.25-3.3v-2.13a3.35,3.35,0,0,0-2.8-3.52Z"/><path class="cls-24" d="M287.13,170.39H285l8.16-16.33h2.12Z"/><rect class="cls-12" x="137.54" y="296.15" width="164.85" height="6.34"/><path class="cls-8" d="M394.71,365.15H305.35a1.82,1.82,0,0,0-1.83,1.82h0a1.83,1.83,0,0,0,1.83,1.83h89.36a1.83,1.83,0,0,0,1.83-1.83h0A1.82,1.82,0,0,0,394.71,365.15Z"/><path class="cls-40" d="M373.07,295.85s-.15,6.18-.26,7.88,8.11,44,9.38,47.07c1.78,4.24,6.71,4.39,6.68-.75-.06-7.66-6.21-46.72-6.21-46.72s2-10.59,1.42-12.19S376.33,289.4,373.07,295.85Z"/><path class="cls-14" d="M381.3,347.6s-3.54,4.44-7,8.29S361.62,359,360,361.7s-1.12,4.48.74,4.59c1.32.07,18,0,27.43,0a5.18,5.18,0,0,0,5-6.58c-.92-3.32-2.32-7.16-4.29-9.68C388.87,350.05,385.36,356.53,381.3,347.6Z"/><path class="cls-40" d="M352.61,296.74s-1.14,6.08-1.52,7.74,1,44.78,1.74,48c1.08,4.46,5.92,5.4,6.71.32,1.17-7.57,1.34-47.11,1.34-47.11s3.62-10.14,3.35-11.81S356.86,290.9,352.61,296.74Z"/><path class="cls-41" d="M352.46,349.14s-4.21,3.82-8.24,7.06-13.12,2.84-15.14,5.27-1.82,4.23,0,4.64c1.4.31,20.8.14,29.71.05a3.88,3.88,0,0,0,3.75-4.66,30.94,30.94,0,0,0-3-8.73S355,358.61,352.46,349.14Z"/><path class="cls-8" d="M377.57,254.35s5.72,1.68,9.47,9.91c1.79,3.94,1.4,8.2.51,11.57a33.85,33.85,0,0,0-.32,16.13l.3,1.32s-10.13,3.35-18.79,2.23l-3.21-25.4S367.33,255.21,377.57,254.35Z"/><path class="cls-42" d="M365.79,296.26a2.08,2.08,0,0,0,.57,2.76,3.44,3.44,0,0,0,1.42.37,44.71,44.71,0,0,0,21.7-3.12,4.63,4.63,0,0,0,1.92-1.21,1.71,1.71,0,0,0,.15-2.11c-.68-.81-2-.48-3-.11a44.83,44.83,0,0,1-12.32,2.65,31.4,31.4,0,0,1-6.43,0C368.33,295.26,366.79,294.58,365.79,296.26Z"/><path class="cls-43" d="M354.52,260.71s-1.65,4.5-2.36,14.1-1.42,19.56-2.13,21.7c0,0,7.6,4.07,20.6,0a92.84,92.84,0,0,1-1.05-11c0-4.27,9.61-11.89,10.32-19.63s-8.18-13.44-14.94-13.44S354.52,260.71,354.52,260.71Z"/><path class="cls-44" d="M347,297.06a2.08,2.08,0,0,0,.24,2.81,3.34,3.34,0,0,0,1.37.54,44.94,44.94,0,0,0,21.92-.54,4.71,4.71,0,0,0,2.05-1,1.73,1.73,0,0,0,.4-2.08c-.58-.89-1.91-.71-2.94-.46a44.54,44.54,0,0,1-12.55,1.18,31.1,31.1,0,0,1-6.39-.77C349.67,296.37,348.22,295.52,347,297.06Z"/><path class="cls-15" d="M388.1,216.11s1.9-33-8.74-38.75-7.17,26.23-1.72,32.89S388.1,216.11,388.1,216.11Z"/><polygon class="cls-45" points="299.48 197.38 327.74 205.28 324.79 182.53 299.48 197.38"/><path class="cls-28" d="M430.28,180.23h0a11.49,11.49,0,0,1-9.91,12.86l-92.63,12.19c-4.54-3.5-6.46-18.21-3-22.75l92.64-12.2A11.48,11.48,0,0,1,430.28,180.23Z"/><path class="cls-14" d="M308.1,199.79a8,8,0,0,0-.88-6.95l-7.75,4.55Z"/><path class="cls-46" d="M325.69,199.78a1,1,0,0,1-.92-.83,1,1,0,0,1,.82-1.07L422,185.2a1,1,0,1,1,.25,1.89l-96.37,12.69Z"/><path class="cls-46" d="M324.47,190.38a1,1,0,0,1-.92-.83.94.94,0,0,1,.82-1.07l44.84-5.83a1,1,0,1,1,.24,1.9l-44.83,5.82Z"/><path class="cls-46" d="M373.91,184a1,1,0,0,1-.92-.83,1,1,0,0,1,.82-1.07l46.93-6.27a1,1,0,1,1,.25,1.89L374.06,184Z"/><path class="cls-15" d="M358.73,192.85h-4.55a2.22,2.22,0,0,1-2.2-1.95l-.43-3.68a2.2,2.2,0,0,1,2.19-2.47h5Zm-5-6.76a.86.86,0,0,0-.65.29.9.9,0,0,0-.22.69l.44,3.67a.88.88,0,0,0,.87.77h3.21v-5.42Z"/><path class="cls-40" d="M355.07,180.13a14.86,14.86,0,0,0,0,5.36c.3,2.15,1.34,4.25,1.15,6.42-.39,4.41.22,5.74,4.42,7.14a26.12,26.12,0,0,0,4.42.72c1.49.23,3.09,1,3.51,2.41.24.78.09,1.68.5,2.38a2.88,2.88,0,0,0,2.05,1.12,6.63,6.63,0,0,0,4.19-.52,4.13,4.13,0,0,0,2.26-3.41c0-1.34-.74-2.55-1-3.85-.53-2.32.44-4.69,1.1-7a27.08,27.08,0,0,0,.87-10.25,11.58,11.58,0,0,0-2.15-6.09c-2.19-2.69-6.09-3.47-9.49-2.8C362.68,172.6,356.14,175.48,355.07,180.13Z"/><path class="cls-47" d="M354.83,178.81c.43.95,3.11,1.22,3.29,2.24a15,15,0,0,0,2.38,5.83,7.17,7.17,0,0,1,2.64-2.94,2.87,2.87,0,0,1,3.61.58,3.52,3.52,0,0,1,.51,1.8,9.32,9.32,0,0,1-2.23,6.57,5.79,5.79,0,0,0,3.87,4.59,13.07,13.07,0,0,0,6.25.44c1.8-.22,3.73-.65,4.88-2s.88-4-.86-4.5c1.2-4.56,4.34-10.11,1.7-14a2.7,2.7,0,0,1,3,1.4c.68-1.17.08-3.92-1.17-4.34-.69-.24-2.3-.56-3.27.39a3.13,3.13,0,0,0-1.6-5.65,2.65,2.65,0,0,1-.21,3.08c-1.94-3.4-6.41-4.68-10.28-4a23.52,23.52,0,0,0-9.65,3.81C355,174,353.64,176.21,354.83,178.81Z"/><polygon class="cls-15" points="360.99 186.09 353.74 186.09 353.74 184.75 362.05 184.75 360.99 186.09"/><path class="cls-15" d="M340.1,202.38c-.59.15-8.53,14.12-6,28.66,0,0,10.21.8,11.83-4.44s0-24.22,0-24.22S345.55,201,340.1,202.38Z"/><path class="cls-40" d="M340.69,202.46s0-5.26.77-7.13a6.91,6.91,0,0,1,2.74-3s2-2.68,2.85-2.66,1.64-.79,1.86,0-1.1,2.11-1.2,2.66-.22,1.78-.22,1.78l1.45,1.76s1.28-.25,1.61.63-2.52,1.5-3.17,2.07a29.78,29.78,0,0,0-2.53,3.44Z"/><path class="cls-15" d="M375.32,205.16c-1.65.86-4.39-.37-6.24-.6-3.83-.5-8.19,1.16-11.47,3.21a23.58,23.58,0,0,0-5.64,5.72c-2.18,2.73-20.22,11.86-17.59,18.5,2.89,7.32,7.58,6.54,12.78,4.09,3.15-1.47,6.58-1.85,10.59-4.91A152.28,152.28,0,0,1,350,264.54a2.11,2.11,0,0,0,2.56-.34,9.24,9.24,0,0,0,1.57-2.31,12.21,12.21,0,0,1,19.19-2.38c1.2,1.22,2.13,2.68,3.3,3.92a13.85,13.85,0,0,0,8.17,4.19,7.18,7.18,0,0,0,4.91-.82,3.74,3.74,0,0,0,1.58-4.41,10.16,10.16,0,0,0-1.28-1.8c-1.74-2.29-1.95-5.37-1.93-8.25.08-12.13,3.19-24.52,0-36.23a64.61,64.61,0,0,0-5.19-12.32c-.93-1.82-2.67-4.07-4.93-2.54C376.35,202.34,377.26,204.14,375.32,205.16Z"/><path class="cls-12" d="M346.57,212.82s-5,6-5.88,10.45l6-5.22Z"/><path class="cls-12" d="M357.75,231.17s4.93-3.71,9.94-7.28c0,0-4.43,14.59-12.24,21.38C355.45,245.27,357.36,235.57,357.75,231.17Z"/></g></g></svg>