<?xml version="1.0" encoding="utf-8"?>
<!-- Generator: Adobe Illustrator 22.1.0, SVG Export Plug-In . SVG Version: 6.00 Build 0)  -->
<svg version="1.1" id="Layer_1" xmlns="http://www.w3.org/2000/svg" xmlns:xlink="http://www.w3.org/1999/xlink" x="0px" y="0px"
	 viewBox="0 0 56.7 56.7" style="enable-background:new 0 0 56.7 56.7;" xml:space="preserve">
<style type="text/css">
	.st0{fill:#525C65;}
</style>
<g>
	<path class="st0" d="M38.3,20.6c-4.6,0.2-8.5,1.6-11.8,4.8c-3.3,3.2-4.7,7-4.3,11.8c-1.8-0.2-3.4-0.5-5.1-0.6c-0.6,0-1.2,0-1.7,0.3
		c-1.6,0.9-3.1,1.9-4.9,3c0.3-1.5,0.5-2.8,0.9-4.1c0.3-0.9,0.1-1.4-0.7-2c-5.5-3.9-7.8-9.7-6.1-15.6c1.6-5.5,5.5-8.9,10.9-10.6
		c7.3-2.4,15.5,0,19.9,5.8C37.1,15.4,38,17.8,38.3,20.6z M17.3,18.7c0-1.1-0.9-2.1-2-2.1c-1.2,0-2.1,0.8-2.1,2c0,1.1,0.8,2.1,2,2.1
		C16.2,20.7,17.2,19.8,17.3,18.7z M28.2,16.6c-1.1,0-2.1,1-2.1,2.1c0,1.1,1,2,2.1,2c1.2,0,2-0.9,2-2.1
		C30.3,17.5,29.4,16.6,28.2,16.6z"/>
	<path class="st0" d="M48.6,49.1c-1.4-0.6-2.8-1.6-4.2-1.8C43,47.2,41.5,48,40,48.1c-4.5,0.5-8.5-0.8-11.8-3.9
		c-6.3-5.8-5.4-14.8,1.9-19.6c6.5-4.2,16-2.8,20.6,3.1c4,5.1,3.5,12-1.3,16.3c-1.4,1.3-1.9,2.3-1,3.9C48.4,48.3,48.5,48.7,48.6,49.1
		z M32.1,33.1c0.9,0,1.7-0.7,1.7-1.6c0-1-0.7-1.8-1.7-1.8c-1,0-1.8,0.8-1.7,1.8C30.4,32.4,31.2,33.1,32.1,33.1z M42.7,29.7
		c-0.9,0-1.7,0.7-1.7,1.6c0,1,0.7,1.8,1.7,1.8c0.9,0,1.7-0.7,1.7-1.6C44.4,30.5,43.7,29.7,42.7,29.7z"/>
</g>
</svg>
