<?xml version="1.0" encoding="utf-8"?>
<!-- Generator: Adobe Illustrator 22.1.0, SVG Export Plug-In . SVG Version: 6.00 Build 0)  -->
<svg version="1.1" id="Layer_7" xmlns="http://www.w3.org/2000/svg" xmlns:xlink="http://www.w3.org/1999/xlink" x="0px" y="0px"
	 viewBox="0 0 512 512" style="enable-background:new 0 0 512 512;" xml:space="preserve">
<style type="text/css">
	.st0{fill:#525C65;}
</style>
<path class="st0" d="M423.4,160.3L423.4,160.3c0,0-0.1-0.1-0.3-0.4c-0.1-0.1-0.1-0.2-0.2-0.3l0,0c-1.7-2.2-7.9-9.8-12.4-13.1l0,0
	c-17.6-16-47.8-13.8-53.4-12.6c-5.5,1.2-14.5,6.6-12.1,19.5s13.9,11.5,24.6,10.7c9.4-0.7,18.6,5.7,20.8,7.3c0,0,3,2.7,5,5.6l0,0
	c0,0,0.3,0.4,0.7,1.1c0,0,0,0,0,0c0,0,0,0,0,0c1.8,3.1,6.7,12.1,5.4,20.8c-1.7,10.6-4,22.1,8.7,25.4c12.7,3.3,18.7-5.2,20.4-10.6
	C432.2,208.5,437.3,179.1,423.4,160.3z"/>
<path class="st0" d="M470.7,115.6c0,0-7.7-10.6-12.3-14.7c-0.5-0.5-1.6-1.3-1.6-1.3c-56.3-48-113.7-29.7-118.5-29
	c-5.2,0.8-13,5.5-12.5,20.7c0.5,15.3,18.7,16.1,18.7,16.1c40.6-11.9,71.4,6.3,87.1,19.4c0,0,45.8,41.6,24.3,100.6
	c0,0-0.4,18.2,14.8,19.6s20.4-5.9,21.5-11.1C493.2,231,515.1,174.9,470.7,115.6z"/>
<path class="st0" d="M394.1,263.4c0,0-23.2-8.2-24.8-10.8s-0.6-8.4,2-13.6s4.4-20.6,3.8-26.5c-0.6-5.9-1-19.5-21.7-29.6
	s-65.1,0.8-70.7,3.2c-5.7,2.4-28.4,9.8-28.4,9.8s-8.2,4.4-5.4-8.9s15.8-66.3-32.7-65.5c-48.5,0.8-108.3,47.3-129.4,67.9
	c-21,20.6-91.4,91-74.4,168.2c0,0,7.7,22.6,20.6,36c12.9,13.3,30.7,33.5,71.5,48.5S183.5,462,225.9,462s103.9-13.3,147.5-44.9
	c43.7-31.5,61.8-64.3,63.5-86.9C438.5,307.6,429.2,277.8,394.1,263.4z M216.3,432.7C135.5,444,64.1,410.3,56.7,357.4
	c-7.4-52.9,52.1-104.9,132.9-116.2c80.8-11.3,152.2,22.5,159.6,75.4C356.5,369.5,297.1,421.5,216.3,432.7z"/>
<path class="st0" d="M272.1,328.6c-7.6-36.1-47.8-58.2-89.9-49.3c-42.1,8.8-70.1,45.2-62.6,81.3c7.6,36.1,47.8,58.2,89.9,49.3
	C251.7,401.1,279.7,364.7,272.1,328.6z M170.4,363.8c-14.7,0-26.7-11.9-26.7-26.7c0-14.7,11.9-26.7,26.7-26.7
	c14.7,0,26.7,11.9,26.7,26.7C197,351.8,185.1,363.8,170.4,363.8z M233.2,366c-7.1,0-12.8-5.7-12.8-12.8c0-7.1,5.7-12.8,12.8-12.8
	s12.8,5.7,12.8,12.8S240.2,366,233.2,366z"/>
</svg>
