<?xml version="1.0" encoding="UTF-8" standalone="no"?>
<svg width="114px" height="114px" viewBox="0 0 114 114" version="1.1" xmlns="http://www.w3.org/2000/svg" xmlns:xlink="http://www.w3.org/1999/xlink">
    <!-- Generator: Sketch 40.3 (33839) - http://www.bohemiancoding.com/sketch -->
    <title>1475949304_python</title>
    <desc>Created with Sketch.</desc>
    <defs></defs>
    <g id="Page-1" stroke="none" stroke-width="1" fill="none" fill-rule="evenodd">
        <g id="Desktop-HD" transform="translate(-469.000000, -4226.000000)">
            <g id="Group-14" transform="translate(0.000000, 3957.000000)">
                <g id="Group-8" transform="translate(45.000000, 210.000000)">
                    <g id="1475949304_python" transform="translate(424.000000, 59.000000)">
                        <g id="Layer_1">
                            <polyline id="Shape" fill="#B7B7B7" points="0 114 114 114 114 0 0 0 0 114"></polyline>
                            <g id="1476213964_alipay_payment_methods" transform="translate(10.000000, 34.000000)" fill="#FFFFFF">
                                <g id="Layer_1">
                                    <g id="Group" transform="translate(0.732283, 0.352941)">
                                        <path d="M5.81417323,28.4282353 C4.86179528,28.3071765 4.0216063,27.8789412 3.21417323,27.4078824 C0.167874016,25.6290588 -0.631370079,21.3697647 1.52233071,18.592 C2.59099213,17.2175294 3.98066142,16.3594118 5.6176378,15.8447059 C7.88844094,15.1298824 10.1305827,15.3892941 12.3776378,15.9723529 C15.0185827,16.6591765 17.5350551,17.6861176 20.0605354,18.6982353 C20.3021102,18.7954118 20.5567874,18.8678824 20.8032756,18.9502353 C22.1249764,19.4797647 23.4687874,19.9475294 24.8314331,20.3551765 C28.3371339,21.5344706 31.8436535,22.7154118 35.5114961,23.3034118 C35.6015748,23.3182353 35.695748,23.3124706 35.7882835,23.3149412 C37.4187087,23.6377647 39.0687874,23.8024706 40.7221417,23.9449412 C43.5866457,24.2397647 46.4593386,24.3772941 49.336126,24.4530588 C49.8143622,24.4662353 50.2950551,24.4769412 50.7732913,24.4892941 C52.4250079,24.5518824 54.0775433,24.5395294 55.7292598,24.5156471 C58.6355276,24.57 61.5377008,24.4456471 64.4390551,24.2875294 C66.0899528,24.1985882 67.7367559,24.0775294 69.3876535,23.968 C69.616126,23.9531765 69.8462362,23.9103529 70.0747087,23.8807059 C70.5988031,23.8477647 71.1245354,23.8312941 71.6461732,23.7802353 C72.7672441,23.6649412 73.8973228,23.6188235 75.0093858,23.4244706 C76.6324409,23.3355294 78.2382992,23.0950588 79.8490709,22.8965882 C83.8870551,22.3983529 87.896378,21.7172941 91.8885039,20.93 C92.0842205,20.8904706 92.3274331,20.7570588 92.4903937,20.9711765 C92.6623622,21.1976471 92.5657323,21.4578824 92.4576378,21.6794118 C92.0105197,22.5951765 91.2857953,23.2762353 90.5512441,23.9465882 C89.5661102,24.8458824 88.5719685,25.7385882 87.6679055,26.7202353 C87.3632756,27.0488235 87.1110551,27.4276471 86.8129764,27.762 C86.4845984,28.1342353 86.1316535,28.4455294 85.6051024,28.5690588 C83.6667717,29.0261176 81.6850394,29.1010588 79.7155906,29.2707059 C76.0788661,29.5885882 72.4347717,29.8018824 68.7882205,29.9410588 C65.4634961,30.0662353 62.1371339,30.1230588 58.8091339,30.086 C53.920315,30.0324706 49.0380472,29.8084706 44.1746142,29.2789412 C40.0997795,28.8342353 36.0331339,28.2964706 32.0852283,27.1435294 C29.1249134,26.2788235 26.3324724,24.9694118 23.559685,23.6270588 C23.1846299,23.4450588 22.8087559,23.2622353 22.4328819,23.0777647 C21.2389291,22.4625882 20.0605354,21.8128235 18.8354646,21.2594118 C17.9207559,20.7792941 17.0191496,20.272 16.0905197,19.824 C14.2995906,18.9634118 12.5250394,18.0344706 10.4794331,17.9356471 C9.44188976,17.8845882 8.41581102,17.5222353 7.36680315,17.8203529 C7.03433071,17.7371765 6.71987402,17.8392941 6.40459843,17.9043529 C3.67111811,18.4767059 2.27080315,19.9952941 1.91867717,22.7615294 C1.64434646,24.9109412 3.09952756,27.2036471 5.3392126,28.1622353 C5.50708661,28.2330588 5.71262992,28.2388235 5.81417323,28.4282353 L5.81417323,28.4282353 Z" id="Shape"></path>
                                        <path d="M75.0102047,23.4244706 C73.8981417,23.618 72.768063,23.6649412 71.6469921,23.7802353 C71.1253543,23.8312941 70.599622,23.8477647 70.0755276,23.8807059 C70.0738898,21.3129412 70.0763465,18.7443529 70.0706142,16.1765882 C70.0681575,15.2847059 70.1770709,15.3942353 69.2689134,15.3934118 C67.4730709,15.3868235 65.6772283,15.3810588 63.8813858,15.3991765 C63.4940472,15.4024706 63.3851339,15.2847059 63.3884094,14.8984706 C63.4015118,13.6804706 63.3859528,13.6804706 64.5995591,13.6804706 C66.239811,13.6804706 67.8808819,13.6648235 69.5211339,13.692 C69.9797165,13.6994118 70.0927244,13.5478824 70.0820787,13.1089412 C70.0525984,12.0358824 70.0525984,10.9611765 70.0820787,9.88729412 C70.0935433,9.45741176 69.9584252,9.33223529 69.5350551,9.33388235 C66.7016693,9.352 63.8699213,9.34294118 61.0365354,9.34294118 C60.3896063,9.34294118 60.3887874,9.34211765 60.3879685,8.71211765 C60.3871496,6.95305882 60.4051654,5.19317647 60.3773228,3.43494118 C60.368315,2.90705882 60.5591181,2.63529412 61.0414488,2.47388235 C62.2616063,2.06376471 63.5177953,2.17494118 64.7690709,2.17823529 C65.0491339,2.17988235 65.0286614,2.41870588 65.008189,2.59329412 C64.9574173,3.04376471 65.1531339,3.13270588 65.5699528,3.10882353 C66.9448819,3.03388235 68.319811,2.99270588 69.6971969,2.95564706 C69.9739843,2.94988235 70.0894488,2.86670588 70.0771654,2.58094118 C70.0599685,2.20788235 70.0927244,1.83152941 70.0681575,1.46094118 C70.040315,1.05576471 70.2327559,0.831764706 70.5709606,0.659647059 C71.1622047,0.359882353 71.8034016,0.376352941 72.4306772,0.344235294 C73.1578583,0.307176471 73.8858583,0.346705882 74.6130394,0.328588235 C74.9078425,0.322 75.0290394,0.407647059 75.0151181,0.721411765 C74.9954646,1.26658824 75.0216693,1.81258824 75.0052913,2.35611765 C74.9971024,2.64352941 75.0609764,2.77694118 75.3877165,2.76376471 C77.736315,2.66988235 80.0873701,2.61552941 82.4343307,2.49858824 C84.152378,2.41376471 85.1620787,3.49094118 84.895937,5.20058824 C84.8066772,5.768 84.7403465,6.34035294 84.6699213,6.91188235 C84.5790236,7.64729412 84.3546457,8.28388235 83.5308346,8.47988235 C83.3089134,8.53258824 83.3449449,8.71870588 83.3613228,8.85788235 C83.408,9.26635294 83.2131024,9.352 82.8486929,9.34952941 C80.4354016,9.33717647 78.0204724,9.34294118 75.6047244,9.34294118 C75.0102047,9.34294118 75.0102047,9.34376471 75.0093858,9.95894118 L75.0093858,13.0422353 C75.0093858,13.6812941 75.0102047,13.6812941 75.671874,13.6812941 C77.6372283,13.6812941 79.6025827,13.6928235 81.567937,13.6722353 C81.9724724,13.6689412 82.0994016,13.7784706 82.0944882,14.1951765 C82.0772913,15.3917647 82.0953071,15.3917647 80.9021732,15.3917647 C79.0924094,15.3917647 77.280189,15.4016471 75.4696063,15.3843529 C75.0986457,15.3794118 75.000378,15.5012941 75.0028346,15.8628235 C75.015937,18.382 75.0102047,20.9028235 75.0102047,23.4244706 L75.0102047,23.4244706 Z M72.7066457,7.63494118 C75.1191181,7.63494118 77.5315906,7.62917647 79.9448819,7.64317647 C80.2708031,7.64482353 80.4108346,7.55670588 80.4419528,7.21576471 C80.5000945,6.56764706 80.6122835,5.92282353 80.6827087,5.27470588 C80.7588661,4.57388235 80.536126,4.326 79.8302362,4.34164706 C78.3627717,4.37458824 76.8944882,4.41576471 75.4270236,4.47423529 C73.6827717,4.54094118 71.9377008,4.66117647 70.191811,4.69741176 C68.6015118,4.72952941 67.0112126,4.73364706 65.4200945,4.79211765 C65.0884409,4.80447059 64.9991811,4.92964706 65.0090079,5.23847059 C65.0262047,5.87588235 65.0352126,6.51494118 65.0049134,7.15070588 C64.9885354,7.54929412 65.1383937,7.64564706 65.5142677,7.644 C67.912,7.62835294 70.3080945,7.63576471 72.7066457,7.63494118 L72.7066457,7.63494118 Z" id="Shape"></path>
                                        <path d="M24.832252,20.3543529 C23.4696063,19.9467059 22.1257953,19.4789412 20.8040945,18.9494118 C22.2740157,16.9301176 23.5261102,14.7930588 24.3073386,12.3982353 C24.567748,11.5985882 24.5751181,11.6010588 23.7267402,11.6010588 C19.2834016,11.6010588 14.840063,11.6010588 10.3967244,11.6002353 C9.79483465,11.6002353 9.79483465,11.5985882 9.79483465,10.9916471 C9.79319685,9.90129412 9.79319685,9.90129412 10.8929764,9.90129412 C12.6585197,9.90129412 14.4248819,9.89058824 16.1896063,9.912 C16.6170709,9.91447059 16.7931339,9.82305882 16.7734803,9.35035294 C16.7349921,8.43211765 16.7423622,7.51223529 16.7710236,6.594 C16.784126,6.19129412 16.64,6.10317647 16.2657638,6.10482353 C13.4020787,6.11882353 10.5375748,6.09988235 7.67307087,6.12458824 C7.19155906,6.12788235 7.07609449,5.98705882 7.09001575,5.52258824 C7.12031496,4.39023529 7.09738583,4.39023529 8.20371654,4.39023529 C10.8651339,4.39023529 13.528189,4.38117647 16.1912441,4.39929412 C16.6277165,4.40176471 16.7964094,4.29964706 16.7710236,3.83435294 C16.7333543,3.11952941 16.7833071,2.40223529 16.7538268,1.68658824 C16.7341732,1.204 16.9511811,0.938823529 17.3589921,0.748588235 C17.943685,0.477647059 18.5701417,0.508117647 19.1834961,0.476823529 C19.8795591,0.440588235 20.5772598,0.480941176 21.2733228,0.462823529 C21.6008819,0.452941176 21.6983307,0.572352941 21.6917795,0.893529412 C21.6754016,1.87435294 21.7106142,2.856 21.6754016,3.83517647 C21.6582047,4.30294118 21.8244409,4.40176471 22.2568189,4.39929412 C25.1835591,4.38282353 28.1094803,4.39023529 31.0345827,4.39023529 C31.7044409,4.39023529 31.7044409,4.39105882 31.7052598,5.03588235 C31.7060787,6.11305882 31.7060787,6.11305882 30.6325039,6.11305882 C27.8302362,6.11305882 25.0296063,6.12047059 22.2257008,6.10482353 C21.816252,6.10317647 21.6565669,6.19705882 21.6754016,6.64341176 C21.7114331,7.51305882 21.6852283,8.38517647 21.6860472,9.25976471 C21.6860472,9.89964706 21.6860472,9.90211765 22.3067717,9.90211765 C24.5349921,9.90294118 26.7656693,9.90211765 28.9947087,9.90294118 C29.616252,9.90294118 29.616252,9.90458824 29.5024252,10.5123529 C28.808,14.2058824 27.1399055,17.4332941 24.832252,20.3543529 L24.832252,20.3543529 Z" id="Shape"></path>
                                        <path d="M55.7300787,24.5156471 C54.0783622,24.5387059 52.4258268,24.5518824 50.7741102,24.4892941 C50.7749291,19.1034118 50.7724724,13.7183529 50.7855748,8.33247059 C50.7880315,7.91082353 50.6553701,7.812 50.2573858,7.81447059 C47.5468346,7.83258824 44.8387402,7.82352941 42.1306457,7.82352941 C41.4886299,7.82352941 41.4886299,7.82270588 41.4869921,7.20423529 C41.4845354,6.11388235 41.4845354,6.11388235 42.591685,6.11388235 L50.159937,6.11388235 C50.7749291,6.11388235 50.775748,6.11223529 50.7773858,5.51435294 L50.7773858,1.82576471 C50.7773858,0.918235294 51.0754646,0.555058824 51.9664252,0.438941176 C53.1055118,0.289058824 54.2536063,0.345882353 55.3984252,0.334352941 C55.7734803,0.330235294 55.7227087,0.581411765 55.7227087,0.809529412 C55.7243465,2.38247059 55.7407244,3.95458824 55.7137008,5.52670588 C55.703874,5.99611765 55.8348976,6.16329412 56.312315,6.12458824 C56.8192126,6.08258824 57.3334803,6.13035294 57.8428346,6.10894118 C58.1720315,6.09576471 58.3063307,6.17976471 58.3087874,6.54705882 C58.3194331,7.82517647 58.3333543,7.81447059 57.0616063,7.83258824 C56.6357795,7.83752941 56.1018583,7.63329412 55.8136063,7.93552941 C55.5474646,8.21305882 55.7284409,8.73929412 55.7284409,9.156 C55.7243465,14.2742353 55.7292598,19.3941176 55.7300787,24.5156471 L55.7300787,24.5156471 Z" id="Shape"></path>
                                        <path d="M40.7229606,23.9441176 C39.0696063,23.8016471 37.4195276,23.6361176 35.7891024,23.3141176 C35.7891024,18.7385882 35.7874646,14.1647059 35.7972913,9.59 C35.7972913,9.20952941 35.7530709,9.08929412 35.3501732,9.28858824 C34.4903307,9.71435294 33.6010079,10.0783529 32.7346142,10.4884706 C32.4291654,10.6350588 32.2752126,10.5601176 32.1089764,10.2784706 C31.7093543,9.59823529 31.6946142,9.60729412 32.3423622,9.11729412 C34.3486614,7.59952941 36.1469606,5.88247059 37.4645669,3.70752941 C37.9092283,2.97458824 38.2695433,2.20705882 38.3547087,1.32835294 C38.4005669,0.856470588 38.8501417,0.524588235 39.5183622,0.437294118 C40.5337953,0.304705882 41.5557795,0.335176471 42.5769449,0.331882353 C42.9536378,0.331058824 42.8651969,0.576470588 42.831622,0.777411765 C42.5654803,2.42776471 42.0495748,3.97847059 40.9981102,5.30270588 C40.7876535,5.56788235 40.7254173,5.83388235 40.7262362,6.15835294 C40.7286929,12.0877647 40.7254173,18.0155294 40.7229606,23.9441176 L40.7229606,23.9441176 Z" id="Shape"></path>
                                        <path d="M18.8371024,21.2594118 C20.0621732,21.8136471 21.2405669,22.4625882 22.4345197,23.0777647 C19.5896693,25.8431765 16.2248189,27.6475294 12.3882835,28.5863529 C11.040378,28.9157647 9.68346457,29.0475294 8.30198425,28.8663529 C7.80409449,28.8877647 7.32995276,28.7362353 6.84598425,28.658 C6.47338583,28.7049412 6.19086614,28.3549412 5.81417323,28.4274118 C5.71181102,28.2388235 5.50708661,28.2330588 5.34166929,28.1622353 C3.10280315,27.2036471 1.64680315,24.9109412 1.92113386,22.7615294 C2.27244094,19.9952941 3.67275591,18.4767059 6.40705512,17.9043529 C6.72233071,17.8392941 7.0367874,17.7371765 7.36925984,17.8203529 C6.68384252,18.1365882 5.97140157,18.3918824 5.34085039,18.8267059 C2.73429921,20.6335294 2.77606299,24.4061176 5.5136378,25.8341176 C7.49455118,26.8684706 9.6367874,27.1814118 11.7847559,26.2524706 C14.4789291,25.0863529 16.7505512,23.3025882 18.8371024,21.2594118 L18.8371024,21.2594118 Z" id="Shape"></path>
                                        <path d="M20.7721575,37.2342353 C20.7721575,38.7602353 20.7713386,40.2845882 20.7729764,41.8122353 C20.7737953,42.5171765 20.9171024,42.7 21.615622,42.8523529 C21.8113386,42.8951765 21.975937,42.9182353 21.9513701,43.1850588 C21.9227087,43.4683529 21.7155276,43.3843529 21.5664882,43.3843529 C18.9378268,43.3892941 16.3083465,43.3892941 13.679685,43.3868235 C13.5093543,43.386 13.3005354,43.4592941 13.2735118,43.1521176 C13.248126,42.854 13.4291024,42.8301176 13.6371024,42.7988235 C13.895874,42.7576471 14.1538268,42.7098824 14.4117795,42.6621176 C14.687748,42.6102353 14.7770079,42.4430588 14.6771024,42.1861176 C14.3855748,41.4317647 14.0817638,40.684 13.7935118,39.9288235 C13.7181732,39.7336471 13.5724094,39.7435294 13.4176378,39.7435294 C12.2875591,39.7435294 11.1574803,39.7492941 10.0274016,39.7394118 C9.8095748,39.7377647 9.68674016,39.7987059 9.61549606,40.0103529 C9.41732283,40.6008235 9.19294488,41.1797647 8.99559055,41.7685882 C8.81625197,42.3055294 8.95792126,42.5501176 9.51149606,42.6835294 C9.78255118,42.7485882 10.0585197,42.7971765 10.3344882,42.8227059 C10.5383937,42.8408235 10.5899843,42.9371765 10.5891654,43.1224706 C10.5850709,43.3250588 10.5023622,43.3901176 10.3074646,43.3892941 C9.05209449,43.3835294 7.7991811,43.3835294 6.54462992,43.3884706 C6.34154331,43.3892941 6.27275591,43.3044706 6.27930709,43.1084706 C6.28340157,42.9495294 6.3087874,42.854 6.50122835,42.8383529 C7.39218898,42.7592941 7.89581102,42.1943529 8.22910236,41.4161176 C9.3960315,38.6918824 10.567874,35.9692941 11.7331654,33.2425882 C11.8330709,33.0070588 11.9051339,32.8184706 12.2408819,32.8127059 C12.5872756,32.8077647 12.6445984,33.0202353 12.7387717,33.2450588 C13.9253543,36.0656471 15.1127559,38.8829412 16.2936063,41.7035294 C16.7710236,42.8408235 17.8863622,43.0244706 18.8018898,42.7872941 C19.2457323,42.6711765 19.2711181,42.2585882 19.2711181,41.8756471 C19.271937,40.1174118 19.271937,38.3575294 19.271937,36.5984706 L19.271937,34.2168235 C19.2711181,33.1841176 19.0426457,32.9008235 18.0517795,32.6825882 C17.8970079,32.6496471 17.6554331,32.7361176 17.6734488,32.4157647 C17.6914646,32.1077647 17.9125669,32.1851765 18.0788031,32.1728235 C18.8182677,32.116 19.560189,32.0863529 20.2971969,32.0114118 C20.6738898,31.9751765 20.7828031,32.1011765 20.7803465,32.4709412 C20.7631496,34.0587059 20.7721575,35.6464706 20.7721575,37.2342353 L20.7721575,37.2342353 Z M11.6840315,35.1490588 C11.1320945,36.4724706 10.5924409,37.7695294 10.0314961,39.1201176 C11.1091654,39.1201176 12.112315,39.1168235 13.1154646,39.1209412 C13.4168189,39.1234118 13.3455748,38.9694118 13.2710551,38.7931765 C12.8763465,37.8494118 12.4922835,36.9007059 12.0893858,35.9602353 C11.976378,35.6958824 11.9206929,35.3961176 11.6840315,35.1490588 L11.6840315,35.1490588 Z" id="Shape"></path>
                                        <path d="M75.6767874,37.1881176 C76.0420157,36.9097647 76.3220787,36.6931765 76.6070551,36.4831765 C77.592189,35.756 78.6346457,35.9676471 79.6566299,36.3481176 C79.9047559,36.4411765 80.0824567,36.7467059 80.2658898,36.9764706 C80.4435906,37.1922353 80.5647874,37.2004706 80.7801575,36.9978824 C81.6408189,36.1858824 82.6497008,35.7905882 83.8354646,36.0664706 C84.8066772,36.2929412 85.352063,37.0102353 85.3913701,38.1722353 C85.4339528,39.3704706 85.4093858,40.5678824 85.4134803,41.7677647 C85.4175748,42.6011765 85.5158425,42.7271765 86.3298268,42.8605882 C86.5271811,42.8927059 86.6377323,42.9396471 86.6254488,43.1735294 C86.6139843,43.4222353 86.4526614,43.3868235 86.3028031,43.3868235 C85.2185827,43.3892941 84.136,43.3876471 83.0517795,43.3876471 C82.8953701,43.3876471 82.7414173,43.4041176 82.7315906,43.1652941 C82.7209449,42.9272941 82.8511496,42.8852941 83.0386772,42.8548235 C83.7912441,42.7304706 83.8469291,42.6604706 83.847748,41.8929412 C83.8510236,40.7564706 83.8518425,39.6191765 83.847748,38.4835294 C83.8428346,37.5372941 83.5365669,37.0415294 82.8748976,36.8817647 C82.1288819,36.7022353 81.0069921,37.1494118 80.6581417,37.7514118 C80.5631496,37.9128235 80.568063,38.0767059 80.568063,38.2447059 C80.5664252,39.4602353 80.5656063,40.6749412 80.568063,41.8888235 C80.5688819,42.5723529 80.7056378,42.7370588 81.3714016,42.854 C81.5654803,42.8885882 81.735811,42.9009412 81.7153386,43.176 C81.6924094,43.4592941 81.4934173,43.3851765 81.3411024,43.3851765 C80.3346772,43.3909412 79.328252,43.3901176 78.3210079,43.3876471 C78.1449449,43.3876471 77.9336693,43.4477647 77.9320315,43.1397647 C77.9312126,42.8935294 78.0835276,42.8778824 78.2620472,42.8482353 C78.872126,42.7551765 78.9957795,42.6201176 78.999874,42.0008235 C79.0064252,40.8338824 79.016252,39.6661176 78.9949606,38.4967059 C78.9834961,37.8831765 78.9319055,37.2350588 78.2456693,36.9715294 C77.5430551,36.7005882 76.8682835,36.8735294 76.2786772,37.3141176 C75.8569449,37.6303529 75.6170079,38.0157647 75.6538583,38.6177647 C75.7210079,39.6718824 75.6694173,40.7334118 75.6743307,41.7924706 C75.6767874,42.4850588 75.847937,42.7 76.5153386,42.8515294 C76.7102362,42.8943529 76.8764724,42.9116471 76.8510866,43.1817647 C76.8224252,43.4634118 76.6177008,43.3818824 76.4678425,43.3835294 C75.4458583,43.3892941 74.4230551,43.3892941 73.4018898,43.3851765 C73.2454803,43.3835294 73.0497638,43.4461176 73.0382992,43.1644706 C73.0227402,42.8877647 73.1897953,42.8762353 73.3879685,42.8515294 C74.0520945,42.7658824 74.1798425,42.6316471 74.1831181,41.9604706 C74.1904882,40.6065882 74.1904882,39.2535294 74.183937,37.8971765 C74.1798425,37.212 73.9308976,36.9188235 73.2462992,36.7821176 C73.0309291,36.7392941 72.8532283,36.7170588 72.8835276,36.4247059 C72.9113701,36.1471765 73.1210079,36.2262353 73.2684094,36.2138824 C73.9161575,36.1677647 74.5688189,36.1603529 75.2132913,36.0887059 C75.6112756,36.0425882 75.7079055,36.1957647 75.6751496,36.5507059 C75.6612283,36.7318824 75.6767874,36.9155294 75.6767874,37.1881176 L75.6767874,37.1881176 Z" id="Shape"></path>
                                        <path d="M50.3900472,13.2061176 C50.3867717,13.3625882 50.2582047,13.5347059 50.1181732,13.7035294 C49.1248504,14.9190588 48.0512756,16.0563529 46.855685,17.0750588 C46.3668031,17.4917647 46.1055748,17.4876471 45.6044094,17.0676471 C44.4342047,16.0925882 43.3639055,15.0211765 42.4098898,13.8303529 C41.9627717,13.2711765 41.9693228,12.95 42.4369134,12.4023529 C43.4138583,11.2518824 44.4833386,10.2010588 45.639622,9.23505882 C46.1211339,8.83152941 46.360252,8.84223529 46.8515906,9.25235294 C48.0209764,10.2290588 49.0904567,11.3029412 50.0600315,12.4797647 C50.3089764,12.782 50.3884094,12.9269412 50.3900472,13.2061176 L50.3900472,13.2061176 Z" id="Shape"></path>
                                        <path d="M30.232063,37.0127059 C30.8691654,36.6248235 31.3400315,36.1661176 32.0221732,36.0681176 C33.7885354,35.8128235 35.2232441,36.6767059 35.7497953,38.3814118 C35.9749921,39.1151765 36.0167559,39.8835294 35.8341417,40.6757647 C35.5401575,41.9398824 34.3904252,43.1496471 33.1383307,43.4485882 C32.2702992,43.6569412 31.4473071,43.5663529 30.6456063,43.2344706 C30.2738268,43.0804706 30.2074961,43.1776471 30.2263307,43.5424706 C30.2525354,44.0398824 30.2279685,44.5372941 30.2345197,45.0355294 C30.2418898,45.6605882 30.4924724,45.9422353 31.0992756,46.0270588 C31.2827087,46.0517647 31.4661417,46.0896471 31.6487559,46.1094118 C31.8772283,46.1324706 31.8510236,46.298 31.8583937,46.4536471 C31.8682205,46.6545882 31.7478425,46.6751765 31.5914331,46.6735294 C30.2902047,46.6718824 28.9914331,46.6710588 27.6893858,46.6751765 C27.5182362,46.6751765 27.4314331,46.6282353 27.4445354,46.4396471 C27.4551811,46.2815294 27.4273386,46.1135294 27.6713701,46.1283529 C27.7770079,46.1332941 27.888378,46.1291765 27.9948346,46.1176471 C28.559874,46.0624706 28.7580472,45.8384706 28.759685,45.2191765 C28.7670551,43.6783529 28.7637795,42.1383529 28.7637795,40.5967059 C28.7637795,39.7097647 28.7662362,38.8228235 28.7613228,37.9350588 C28.7588661,37.2095294 28.5181102,36.9105882 27.8195906,36.7829412 C27.6115906,36.7442353 27.4224252,36.7475294 27.4437165,36.4444706 C27.4650079,36.1265882 27.695937,36.2287059 27.8531654,36.2163529 C28.4853543,36.1669412 29.1216378,36.1628235 29.7497323,36.0911765 C30.1526299,36.0450588 30.2910236,36.1735294 30.2377953,36.5630588 C30.2181417,36.6791765 30.232063,36.8027059 30.232063,37.0127059 L30.232063,37.0127059 Z M30.232063,39.7188235 L30.232063,40.8857647 C30.232063,41.9769412 30.232063,41.9769412 31.2917165,42.2841176 C32.6486299,42.6769412 33.7860787,42.1136471 34.2782362,40.8116471 C34.7507402,39.5508235 34.4371024,38.1697647 33.528126,37.5109412 C32.751811,36.9492941 31.1222047,36.9641176 30.3540787,37.5265882 C30.208315,37.6328235 30.2353386,37.7662353 30.2337008,37.8988235 C30.2312441,38.5065882 30.232063,39.1127059 30.232063,39.7188235 L30.232063,39.7188235 Z" id="Shape"></path>
                                        <path d="M63.7610079,40.9705882 C63.7176063,36.6701176 66.9792756,35.6267059 69.3205039,36.3267059 C71.2735748,36.9097647 72.2914646,38.6350588 71.9851969,40.6872941 C71.8115906,41.8558824 71.2768504,42.7658824 70.3539528,43.4345882 C69.4908346,44.058 68.463937,44.1485882 67.4362205,44.0769412 C66.9186772,44.0398824 66.3814803,43.9921176 65.9057008,43.7368235 C64.5004724,42.9874118 63.7929449,41.8015294 63.7610079,40.9705882 L63.7610079,40.9705882 Z M65.5273701,40.0194118 C65.4422047,40.8223529 65.6502047,41.5981176 65.9965984,42.3376471 C66.184126,42.7370588 66.4781102,43.1043529 66.8515276,43.2863529 C68.3001575,43.9978824 69.5244094,43.2352941 69.9395906,42.0658824 C70.3154646,41.006 70.3613228,39.9238824 70.127937,38.8516471 C69.8937323,37.7695294 69.3811024,36.9031765 68.1101732,36.7549412 C67.1823622,36.6454118 66.264378,37.128 65.8950551,37.9976471 C65.6215433,38.6391765 65.4905197,39.298 65.5273701,40.0194118 L65.5273701,40.0194118 Z" id="Shape"></path>
                                        <path d="M43.2590866,40.0869412 C43.2590866,40.5991765 43.2746457,41.1105882 43.255811,41.6228235 C43.2271496,42.3590588 43.5579843,42.7543529 44.2892598,42.8284706 C44.4202835,42.8416471 44.6127244,42.7411765 44.6340157,43.0071765 C44.6544882,43.2361176 44.520189,43.2896471 44.3449449,43.3497647 C43.8847244,43.5078824 43.4171339,43.5828235 42.9339843,43.4996471 C42.6023307,43.4411765 42.2592126,43.3052941 42.1224567,43.0129412 C41.8505827,42.4438824 41.5705197,42.6349412 41.2470551,42.9182353 C40.6910236,43.4074118 40.0015118,43.5177647 39.3070866,43.5803529 C38.3661732,43.666 37.4547402,43.0664706 37.2754016,42.1655294 C37.0616693,41.1023529 37.4154331,40.4723529 38.3989291,39.9732941 C39.3390236,39.4964706 40.375748,39.2691765 41.3674331,38.9265882 C41.7351181,38.8005882 41.8825197,38.6432941 41.8530394,38.2447059 C41.7547717,36.8990588 40.9964724,36.3316471 39.7099843,36.5885882 C39.2309291,36.6841176 39.1645984,36.834 39.2759685,37.4096471 C39.3873386,37.9918824 39.2423937,38.22 38.679811,38.3970588 C38.3268661,38.5065882 38.0017638,38.5312941 37.7831181,38.1664706 C37.5177953,37.7267059 37.5620157,37.2490588 37.9075906,36.9385882 C38.671622,36.2591765 39.5896063,35.9701176 40.5878425,35.9585882 C40.9653543,35.9544706 41.3608819,35.9585882 41.7310236,36.0895294 C43.0297953,36.5474118 43.2844724,37.2432941 43.3385197,38.5477647 C43.359811,39.06 43.3426142,39.5747059 43.3426142,40.0869412 L43.2590866,40.0869412 L43.2590866,40.0869412 Z M41.8268346,40.6765882 L41.8292913,40.6765882 C41.8292913,40.5209412 41.8268346,40.3661176 41.8301102,40.2121176 C41.848126,39.3507059 41.8464882,39.3449412 41.0300472,39.6175294 C40.3569134,39.8423529 39.704252,40.1042353 39.1908031,40.6354118 C38.6691654,41.1781176 38.7445039,42.2314118 39.3594961,42.5929412 C40.3085984,43.1521176 41.7736063,42.3747059 41.8260157,41.2810588 C41.8358425,41.0801176 41.8268346,40.8791765 41.8268346,40.6765882 L41.8268346,40.6765882 Z" id="Shape"></path>
                                        <path d="M49.4196535,41.4103529 C50.0379213,40.0317647 50.6226142,38.7149412 51.2154961,37.3997647 C51.3555276,37.0892941 51.1188661,36.9756471 50.9337953,36.8595294 C50.7937638,36.7722353 50.6185197,36.7269412 50.4547402,36.6948235 C50.2532913,36.6569412 50.2139843,36.5391765 50.2205354,36.3629412 C50.2303622,36.1504706 50.3777638,36.1652941 50.5169764,36.1652941 C51.3063937,36.162 52.0966299,36.162 52.8860472,36.1652941 C53.008063,36.1652941 53.1513701,36.1521176 53.1571024,36.3357647 C53.1620157,36.4708235 53.1988661,36.6363529 53.008063,36.6783529 C52.191622,36.8545882 51.9189291,37.5224706 51.632315,38.1878824 C50.6283465,40.5127059 49.5015433,42.7823529 48.3067717,45.01 C47.8940472,45.7783529 47.3478425,46.5137647 46.3537008,46.6438824 C45.984378,46.6924706 45.6420787,46.6208235 45.3259843,46.4404706 C44.8518425,46.1695294 44.7396535,45.7215294 45.0107087,45.2447059 C45.1908661,44.9342353 45.7649134,44.8477647 46.1416063,45.0882353 C46.2709921,45.1705882 46.3823622,45.2842353 46.4830866,45.4003529 C46.8499528,45.8285882 46.8343937,45.8187059 47.264315,45.4184706 C47.6917795,45.0182353 48.0365354,44.5768235 48.2248819,44.0127059 C48.4353386,43.3843529 48.447622,42.7889412 48.1487244,42.1638824 C47.4526614,40.7070588 46.7950866,39.2321176 46.1334173,37.7596471 C45.9090394,37.2614118 45.5560945,36.9278824 45.0434646,36.7598824 C44.8567559,36.6972941 44.6348346,36.6651765 44.6774173,36.3736471 C44.7249134,36.0425882 44.9812283,36.1694118 45.1531969,36.1677647 C46.0646299,36.1537647 46.9793386,36.1587059 47.8915906,36.1644706 C48.0635591,36.1652941 48.2756535,36.0928235 48.304315,36.3958824 C48.3297008,36.6709412 48.1569134,36.6865882 47.9693858,36.7261176 C47.3273701,36.8652941 47.328189,36.8677647 47.6008819,37.464 C48.1307087,38.6202353 48.6580787,39.7797647 49.1879055,40.9368235 C49.2525984,41.0751765 49.3213858,41.2110588 49.4196535,41.4103529 L49.4196535,41.4103529 Z" id="Shape"></path>
                                        <path d="M83.6864252,18.9807059 C83.679874,19.1338824 83.6151811,19.2985882 83.4898898,19.4509412 C82.7127559,20.3848235 81.8365354,21.2149412 80.912,21.9964706 C80.6548661,22.2122353 80.3928189,22.1867059 80.1504252,21.9907059 C79.1964094,21.2165882 78.3267402,20.3568235 77.5618898,19.3924706 C77.3399685,19.11 77.3416063,18.8110588 77.5610709,18.5368235 C78.3251024,17.5732941 79.1865827,16.7052941 80.1479685,15.9394118 C80.4198425,15.7203529 80.687622,15.7516471 80.9488504,15.9665882 C81.8701102,16.7291765 82.7250394,17.5601176 83.4964409,18.4758824 C83.6102677,18.6125882 83.6765984,18.7649412 83.6864252,18.9807059 L83.6864252,18.9807059 Z" id="Shape"></path>
                                        <path d="M57.4227402,39.928 C57.4620472,40.9714118 57.6102677,41.986 58.4774803,42.7032941 C59.0654488,43.1867059 59.704189,43.372 60.5017953,43.1710588 C61.2191496,42.9907059 61.7727244,42.6472941 62.2214803,42.0938824 C62.4212913,41.8451765 62.6022677,41.8418824 62.8315591,42.0461176 C63.0985197,42.2816471 62.8282835,42.4092941 62.7251024,42.5361176 C61.4058583,44.1782353 59.1530709,44.5858824 57.3351181,43.5218824 C55.6350866,42.5287059 55.0897008,39.8785882 56.2034016,38.0264706 C57.2442205,36.2954118 59.7017323,35.5863529 61.5106772,36.4971765 C62.2632441,36.8751765 62.6342047,37.7291765 62.4245669,38.4744706 C62.3369449,38.7890588 62.1232126,38.8837647 61.8759055,38.9685882 C61.0938583,39.2337647 60.4780472,38.7042353 60.6336378,37.9029412 C60.6393701,37.8724706 60.6500157,37.8444706 60.6541102,37.8131765 C60.8375433,36.9361176 60.7482835,36.8216471 59.8245669,36.7450588 C59.0122205,36.6783529 58.3693858,37.0654118 57.9722205,37.7876471 C57.6053543,38.4588235 57.4071811,39.1612941 57.4227402,39.928 L57.4227402,39.928 Z" id="Shape"></path>
                                        <path d="M25.5880945,39.2131765 C25.5880945,40.0836471 25.5848189,40.9541176 25.5897323,41.8254118 C25.592189,42.4685882 25.7264882,42.6324706 26.352126,42.7947059 C26.4266457,42.8136471 26.5011654,42.84 26.5781417,42.8465882 C26.7967874,42.8671765 26.7959685,43.0178824 26.7976063,43.1834118 C26.7992441,43.3975294 26.6583937,43.3876471 26.5159055,43.3876471 C25.4341417,43.3876471 24.3499213,43.3868235 23.2681575,43.3892941 C23.096189,43.3892941 22.9708976,43.372 22.9692598,43.1447059 C22.967622,42.9371765 23.0724409,42.8885882 23.2452283,42.8556471 C24.0608504,42.7008235 24.1165354,42.6275294 24.1181732,41.7867059 L24.1181732,38.1005882 C24.1165354,37.1732941 23.9355591,36.9402353 23.0462362,36.7755294 C22.8488819,36.7392941 22.6941102,36.7236471 22.7031181,36.4518824 C22.7113071,36.1685882 22.9053858,36.2270588 23.0585197,36.2155294 C23.7529449,36.1727059 24.448189,36.1562353 25.1409764,36.0903529 C25.4857323,36.0582353 25.6061102,36.1422353 25.5954646,36.5062353 C25.5725354,37.408 25.5880945,38.3114118 25.5880945,39.2131765 L25.5880945,39.2131765 Z" id="Shape"></path>
                                        <path d="M24.1795906,35.1037647 C23.6612283,35.1004706 23.1788976,34.6376471 23.1780787,34.1394118 C23.1764409,33.6172941 23.6743307,33.1231765 24.1959685,33.1272941 C24.7249764,33.1330588 25.1958425,33.5967059 25.1851969,34.1048235 C25.1704567,34.7027059 24.7651024,35.1054118 24.1795906,35.1037647 L24.1795906,35.1037647 Z" id="Shape"></path>
                                        <path d="M53.9219528,42.9042353 C53.9268661,43.3011765 53.6517165,43.5918824 53.271748,43.5885882 C52.887685,43.5844706 52.6117165,43.3028235 52.6084409,42.9124706 C52.6035276,42.5163529 52.8688504,42.2651765 53.2848504,42.2684706 C53.6713701,42.2725882 53.9162205,42.5163529 53.9219528,42.9042353 L53.9219528,42.9042353 Z" id="Shape"></path>
                                        <path d="M6.84598425,28.6588235 C7.33077165,28.7370588 7.80409449,28.8885882 8.30198425,28.8671765 C7.80573228,28.8852941 7.31029921,28.8745882 6.84598425,28.6588235 L6.84598425,28.6588235 Z" id="Shape"></path>
                                    </g>
                                </g>
                            </g>
                        </g>
                    </g>
                </g>
            </g>
        </g>
    </g>
</svg>