<?xml version="1.0" encoding="UTF-8" standalone="no"?>
<svg width="115px" height="116px" viewBox="0 0 115 116" version="1.1" xmlns="http://www.w3.org/2000/svg" xmlns:xlink="http://www.w3.org/1999/xlink">
    <!-- Generator: Sketch 40.3 (33839) - http://www.bohemiancoding.com/sketch -->
    <title>1475948999_angular</title>
    <desc>Created with Sketch.</desc>
    <defs></defs>
    <g id="Page-1" stroke="none" stroke-width="1" fill="none" fill-rule="evenodd">
        <g id="Desktop-HD" transform="translate(-107.000000, -1662.000000)">
            <g id="Group-14" transform="translate(0.000000, 1393.000000)">
                <g id="Group-8" transform="translate(45.000000, 210.000000)">
                    <g id="Group-11" transform="translate(62.000000, 59.000000)">
                        <g id="1475948999_angular">
                            <g id="Layer_1">
                                <g id="Group">
                                    <polyline id="Shape" fill="#B7B7B7" points="0.0609882583 115.477477 114.892202 115.477477 114.892202 0.169487491 0.0609882583 0.169487491 0.0609882583 115.477477"></polyline>
                                    <path d="M21.0927104,28.8838323 L20.1439041,25.9401736 L19.2439335,28.8838323 L21.0927104,28.8838323 L21.0927104,28.8838323 Z M21.6607339,30.5730576 L18.7256458,30.5730576 L18.312681,31.9242119 L15.4777397,31.9242119 L18.4621135,23.8166083 L21.7838356,23.8166083 L24.9311448,31.9242119 L22.0923777,31.9242119 L21.6607339,30.5730576 L21.6607339,30.5730576 Z" id="Shape" fill="#FFFFFF"></path>
                                    <polyline id="Shape" fill="#FFFFFF" points="25.7795793 23.8166083 28.3077789 23.8166083 31.5970939 28.3665565 31.5970939 23.8166083 34.1426223 23.8166083 34.1426223 31.9242119 31.5970939 31.9242119 28.3246575 27.4007038 28.3246575 31.9242119 25.7795793 31.9242119 25.7795793 23.8166083"></polyline>
                                    <path d="M40.2025147,29.2216774 L40.2025147,27.3073726 L44.3233855,27.3073726 L44.3233855,30.6288755 C43.5404403,31.1734953 42.8481898,31.544108 42.2459589,31.7411654 C41.643728,31.9382229 40.9298728,32.0369776 40.1041683,32.0369776 C39.0867221,32.0369776 38.2574168,31.8738176 37.6164775,31.5477237 C36.9759883,31.2218558 36.4793053,30.7359916 36.1264286,30.0910352 C35.7731018,29.4460788 35.5966634,28.7057574 35.5966634,27.8707491 C35.5966634,26.99077 35.7897554,26.2258165 36.1752642,25.5754365 C36.560998,24.9250565 37.1256458,24.4315089 37.8694325,24.0947937 C38.4500587,23.834461 39.2307534,23.7040686 40.2119667,23.7040686 C41.1587476,23.7040686 41.8665264,23.7867785 42.3359785,23.9521983 C42.8047554,24.1176181 43.1945401,24.3745611 43.5042074,24.7228014 C43.8143249,25.0712677 44.0465753,25.5128391 44.2023092,26.0477416 L41.5357045,26.4066031 C41.4346575,26.1521459 41.2633953,25.9571223 41.0216928,25.8215323 C40.7799902,25.6859423 40.4714481,25.6183733 40.0965166,25.6183733 C39.5386204,25.6183733 39.0934736,25.7964482 38.7615264,26.1523719 C38.4293542,26.5082956 38.2632681,27.071672 38.2632681,27.8425012 C38.2632681,28.6612387 38.4379061,29.2458576 38.7869569,29.5968097 C39.1360078,29.9475358 39.6230137,30.1226729 40.2481996,30.1226729 C40.5436888,30.1226729 40.8259002,30.0946509 41.0957339,30.0383811 C41.3651174,29.9821112 41.6732094,29.8865203 42.0204599,29.7513823 L42.0204599,29.2216774 L40.2025147,29.2216774" id="Shape" fill="#FFFFFF"></path>
                                    <path d="M51.5953914,23.8166083 L54.2619961,23.8166083 L54.2619961,28.6325388 C54.2619961,29.1098156 54.1814286,29.5604264 54.0200685,29.9845971 C53.8596086,30.4085418 53.6077789,30.7793804 53.2645793,31.0973389 C52.9220548,31.4152975 52.5615264,31.638795 52.1841194,31.7678315 C51.6602055,31.9472622 51.0316438,32.0369776 50.2982094,32.0369776 C49.8724168,32.0369776 49.408816,32.0094076 48.9069569,31.9542677 C48.4053229,31.8991278 47.9860568,31.7897518 47.6487084,31.6261399 C47.3115851,31.462528 47.0034932,31.2302171 46.7237573,30.9294333 C46.4437965,30.6286495 46.2525049,30.3179225 46.1489824,29.9977041 C45.9824462,29.484044 45.898953,29.0289136 45.898953,28.6325388 L45.898953,23.8166083 L48.5653327,23.8166083 L48.5653327,28.7238361 C48.5653327,29.1624697 48.6994618,29.5052864 48.9677202,29.7522862 C49.2359785,29.999286 49.6082094,30.1226729 50.0839628,30.1226729 C50.5549902,30.1226729 50.9245205,30.0013198 51.1927789,29.7586137 C51.4610372,29.5159077 51.5956164,29.1708311 51.5956164,28.7240621 L51.5956164,23.8166083" id="Shape" fill="#FFFFFF"></path>
                                    <polyline id="Shape" fill="#FFFFFF" points="55.9586399 23.8166083 58.6252446 23.8166083 58.6252446 29.8973675 62.8669667 29.8973675 62.8669667 31.9242119 55.9586399 31.9242119 55.9586399 23.8166083"></polyline>
                                    <path d="M68.8458415,28.8838323 L67.8968102,25.9401736 L66.9970646,28.8838323 L68.8458415,28.8838323 L68.8458415,28.8838323 Z M69.4136399,30.5730576 L66.4785519,30.5730576 L66.0655871,31.9242119 L63.2306458,31.9242119 L66.2152446,23.8166083 L69.5367417,23.8166083 L72.6842759,31.9242119 L69.8450587,31.9242119 L69.4136399,30.5730576 L69.4136399,30.5730576 Z" id="Shape" fill="#FFFFFF"></path>
                                    <path d="M76.3203914,26.9697536 L77.4415851,26.9697536 C77.5624364,26.9697536 77.7973875,26.9345002 78.1459883,26.8639934 C78.3213014,26.8323557 78.4648826,26.7512277 78.577182,26.6203834 C78.6885812,26.489539 78.7441683,26.3397121 78.7441683,26.1709025 C78.7441683,25.921191 78.6563992,25.7288791 78.4799609,25.5946451 C78.3041977,25.460185 77.9736008,25.3930679 77.4890705,25.3930679 L76.3203914,25.3930679 L76.3203914,26.9697536 L76.3203914,26.9697536 Z M73.6537867,31.9242119 L73.6537867,23.8166083 L78.0793738,23.8166083 C78.9017025,23.8166083 79.5289139,23.8816915 79.9630333,24.0118579 C80.3969276,24.1420243 80.7462035,24.3833744 81.0119863,24.7350045 C81.2777691,25.0870865 81.410773,25.5150989 81.410773,26.0194937 C81.410773,26.4606131 81.3074755,26.8407171 81.0999804,27.1598055 C80.8931605,27.478668 80.6080235,27.7380969 80.2461448,27.9371882 C80.0147945,28.0628349 79.6988258,28.1672392 79.2968885,28.250627 C79.6065558,28.3561612 79.8313796,28.4616955 79.9733855,28.5672297 C80.0692564,28.6386404 80.2081115,28.7895973 80.3899511,29.0212302 C80.5715656,29.2521851 80.693092,29.4307119 80.75318,29.5559067 L82.1379061,31.9239859 L79.1742368,31.9239859 L77.6873386,29.3798657 C77.5068493,29.050156 77.3468395,28.8368278 77.2066341,28.739429 C77.0144423,28.6103925 76.7972701,28.5459872 76.5548924,28.5459872 L76.3201663,28.5459872 L76.3201663,31.9239859 L73.6537867,31.9239859 L73.6537867,31.9242119 Z" id="Shape" fill="#FFFFFF"></path>
                                    <path d="M86.7433072,23.8166083 L89.410362,23.8166083 L89.410362,28.2083682 C89.410362,29.1303801 89.3214677,29.8318323 89.1450294,30.3129508 C88.9681409,30.7938433 88.6125636,31.2015173 88.0773973,31.5357466 C87.5431311,31.8699759 86.8585323,32.0372036 86.0238258,32.0372036 C85.141409,32.0372036 84.4579354,31.9278276 83.9734051,31.7090758 C83.4886497,31.4903239 83.1137182,31.1705575 82.8490607,30.7502286 C82.5844031,30.3296736 82.4284442,29.809686 82.3807339,29.1904917 L85.0468885,28.8845103 C85.0504892,29.2198695 85.0837965,29.4689031 85.1454599,29.6313851 C85.2073483,29.7938671 85.3119961,29.9249375 85.4596282,30.0245961 C85.5606751,30.0903573 85.7038063,30.1231248 85.8894716,30.1231248 C86.1840607,30.1231248 86.3994325,30.0200764 86.5371624,29.8135277 C86.6748924,29.6072049 86.7433072,29.2594166 86.7433072,28.7703887 L86.7433072,23.8166083" id="Shape" fill="#FFFFFF"></path>
                                    <path d="M90.6218004,29.2551229 L93.2886301,29.1091377 C93.3403914,29.4892416 93.4457143,29.7785003 93.6045988,29.9766876 C93.8638552,30.2991658 94.2336106,30.4605179 94.7149902,30.4605179 C95.0734932,30.4605179 95.3491781,30.3764521 95.5431703,30.2080946 C95.7371624,30.039737 95.8341585,29.8449394 95.8341585,29.6230237 C95.8341585,29.4130852 95.7481898,29.2248411 95.5764775,29.0582914 C95.4034149,28.8917417 94.9596184,28.7344573 94.244638,28.5866642 C93.0748337,28.3392125 92.2403523,28.0126666 91.7414188,27.6068006 C91.2375342,27.2009345 90.9857045,26.6841106 90.9857045,26.0567809 C90.9857045,25.6425535 91.1153327,25.2520543 91.3741389,24.8848314 C91.6329452,24.5176085 92.0225049,24.2292538 92.5416928,24.0190893 C93.0611057,23.8091508 93.7736106,23.7040686 94.6787573,23.7040686 C95.7884736,23.7040686 96.6346575,23.8984142 97.2175342,24.2873315 C97.7999609,24.6762488 98.1467613,25.2952172 98.2577104,26.1444625 L95.5915558,26.2940634 C95.5337182,25.9010784 95.4115166,25.6152095 95.2269765,25.4362307 C95.0419863,25.2574779 94.7867808,25.1679885 94.46091,25.1679885 C94.1933268,25.1679885 93.9912329,25.229682 93.8557534,25.3535208 C93.720274,25.4771337 93.6527593,25.6276386 93.6527593,25.8048095 C93.6527593,25.93362 93.6842661,26.0504534 93.7472798,26.1548577 C93.807593,26.2617478 94.0738258,26.3614065 94.5464286,26.4540596 C95.7128571,26.6897602 96.5484638,26.9281726 97.0539237,27.1690709 C97.5589335,27.4101951 97.9264384,27.709397 98.1557632,28.0664506 C98.3855382,28.4237303 98.5003131,28.8234948 98.5003131,29.2657441 C98.5003131,29.7841499 98.3461546,30.2623306 98.0382877,30.7007382 C97.7299706,31.1386939 97.2994521,31.4708894 96.7469569,31.6973247 C96.1940117,31.9237599 95.4970352,32.0369776 94.6560274,32.0369776 C93.1790313,32.0369776 92.1557339,31.7750629 91.5872603,31.2512336 C91.0183366,30.7276302 90.6965166,30.0621093 90.6218004,29.2551229" id="Shape" fill="#FFFFFF"></path>
                                    <polyline id="Shape" fill="#E15855" points="79.5032583 47.9428137 75.8635421 77.0368105 57.0264971 87.5050359 57.0264971 40.2462737 57.026272 87.5050359 38.4802153 77.1757902 35.1317123 48.0817934 57.026272 40.2453698 57.0264971 40.2462737 79.5032583 47.9428137"></polyline>
                                    <path d="M52.5169667,63.751929 L57.0264971,63.751929 L57.2720254,63.7602903 L62.2314286,63.7602903 L57.067456,52.9130909 L52.5169667,63.751929 L52.5169667,63.751929 Z M57.0264971,68.3095606 L50.5052544,68.3095606 L47.4400881,76.0085864 L41.7380235,76.1147985 L57.026047,41.9626171 L57.026047,41.9621651 L57.026272,41.9623911 L57.026272,41.9621651 L57.0267221,41.963521 L73.0186986,76.217395 L67.5628376,76.1159285 L64.206683,68.3095606 L57.0404501,68.3027811 L57.0264971,68.3095606 L57.0264971,68.3095606 Z" id="Shape" fill="#FFFFFF"></path>
                                    <polyline id="Shape" fill="#FFFFFF" points="56.9497554 37.8754827 32.5130431 46.5103054 36.3748826 78.6586928 56.975636 90.0288177 77.6823875 78.5052501 81.5431018 46.3577667 56.9497554 37.8754827"></polyline>
                                    <polyline id="Shape" fill="#B7B7B7" points="79.1051468 48.2155756 56.892593 40.6092029 56.892593 87.3120462 75.5077397 76.9669816 79.1051468 48.2155756"></polyline>
                                    <polyline id="Shape" fill="#B7B7B7" points="35.2552642 48.3527474 38.5641585 77.1043795 56.8921429 87.3120462 56.8921429 40.608299 35.2552642 48.3527474"></polyline>
                                    <path d="M62.4159687,64.0260467 L56.9328767,53.1268711 L52.4361742,63.8384806 L56.8921429,63.8384806 L62.4159687,64.0260467 L62.4159687,64.0260467 Z M63.0071722,65.471662 L56.892593,68.3427801 L50.448317,68.3427801 L47.4187084,75.9511866 L41.7837084,76.0560429 L56.8923679,42.3052078 L63.0071722,65.471662 L63.0071722,65.471662 Z" id="Shape" fill="#FFFFFF"></path>
                                    <polyline id="Shape" fill="#FFFFFF" points="56.8921429 42.3052078 56.9328767 53.1268711 62.035636 63.846616 56.9036204 63.846616 56.8921429 68.3357747 63.9883855 68.3427801 67.3053816 76.0571728 72.6966536 76.1572834 56.8921429 42.3052078"></polyline>
                                </g>
                            </g>
                        </g>
                    </g>
                </g>
            </g>
        </g>
    </g>
</svg>