<?xml version="1.0" encoding="UTF-8" standalone="no"?>
<svg width="114px" height="114px" viewBox="0 0 114 114" version="1.1" xmlns="http://www.w3.org/2000/svg" xmlns:xlink="http://www.w3.org/1999/xlink">
    <!-- Generator: Sketch 40.3 (33839) - http://www.bohemiancoding.com/sketch -->
    <title>1475949431_react</title>
    <desc>Created with Sketch.</desc>
    <defs></defs>
    <g id="Page-1" stroke="none" stroke-width="1" fill="none" fill-rule="evenodd">
        <g id="Desktop-HD" transform="translate(-987.000000, -4226.000000)">
            <g id="Group-14" transform="translate(0.000000, 3957.000000)">
                <g id="Group-8" transform="translate(45.000000, 210.000000)">
                    <g id="1475949431_react" transform="translate(942.000000, 59.000000)">
                        <rect id="Rectangle-9" fill="#B7B7B7" x="0" y="0" width="114" height="114"></rect>
                        <g id="1475949688_android" transform="translate(20.000000, 31.000000)">
                            <g id="1476213881_Non-Service_Specific_copy__AWS_Cloud">
                                <g id="Layer_1">
                                    <g id="Group">
                                        <g id="Shape" fill="#FFFFFF">
                                            <path d="M27.88,0.882 C35.198,0.882 41.497,5.234 44.323,11.46 C45.788,10.462 47.569,9.868 49.493,9.868 C54.438,9.868 58.456,13.764 58.606,18.643 C65.719,19.237 71.245,26.082 71.245,31.528 L71.245,32.712 C71.245,38.575 64.85,44.505 56.989,44.505 L15.009,44.505 C7.134,44.505 0.755,38.575 0.755,32.712 L0.755,31.528 C0.755,27.026 4.556,20.811 9.892,19.29 C9.876,19.116 9.865,18.94 9.865,18.765 C9.864,8.886 17.929,0.882 27.88,0.882 L27.88,0.882 Z"></path>
                                        </g>
                                        <g transform="translate(13.000000, 21.000000)" id="Shape" fill="#B7B7B7">
                                            <path d="M5.419,0.812 L0.712,17.259 L3.472,17.259 L4.536,13.23 L9.384,13.23 L10.407,17.259 L13.165,17.259 L8.806,0.812 L5.419,0.812 L5.419,0.812 Z M5.026,11.134 L6.999,3.023 L7.042,3.023 L8.944,11.134 L5.026,11.134 L5.026,11.134 Z"></path>
                                            <polygon points="24.995 13.663 24.948 13.663 22.722 0.812 19.938 0.812 17.761 13.595 17.712 13.595 15.536 0.812 12.868 0.812 16.065 17.259 19.128 17.259 21.239 4.868 21.288 4.868 23.421 17.259 26.479 17.259 29.771 0.812 27.149 0.812"></polygon>
                                            <path d="M38.282,8.276 L36.497,7.628 C34.735,6.962 34.017,6.247 34.017,4.845 C34.017,3.091 35.107,2.47 36.24,2.47 C37.886,2.47 38.56,3.345 38.56,4.845 L38.56,5.191 L41.206,5.191 L41.206,4.818 C41.206,3.117 40.765,0.49 36.522,0.49 C33.415,0.49 31.374,2.15 31.374,5.148 C31.374,7.494 32.415,8.738 34.827,9.656 L36.636,10.283 C38.124,10.717 39.003,11.48 39.003,13.205 C39.003,14.426 38.165,15.603 36.497,15.603 C34.669,15.603 33.786,14.587 33.786,12.585 L33.786,12.167 L31.14,12.167 L31.14,12.56 C31.14,14.865 32.07,17.58 36.171,17.58 C39.511,17.58 41.648,16.131 41.648,12.633 C41.647,10.372 40.624,9.103 38.282,8.276 L38.282,8.276 Z"></path>
                                        </g>
                                    </g>
                                </g>
                            </g>
                        </g>
                    </g>
                </g>
            </g>
        </g>
    </g>
</svg>