<svg xmlns="http://www.w3.org/2000/svg" width="114" height="114" viewBox="0 0 114 114">
  <g fill="none" fill-rule="evenodd">
    <rect width="114" height="114" fill="#B7B7B7" fill-rule="nonzero"/>
    <g transform="translate(30 19)">
      <polygon fill="#FFFFFF" points="49.209 70.349 54.3 15.201 0 15.201 5.09 70.349 27.15 76.289"/>
      <polygon fill="#FFFFFF" points="45.051 66.759 49.172 19.668 27.15 19.668 27.15 71.552 27.199 71.565"/>
      <path fill="#FFFFFF" d="M11.0384161,10.3765001 L19.4192141,10.3765001 L19.4192141,7.09879205 L14.6303058,7.09879205 L14.6303058,3.81645118 L19.4192141,3.81645118 L19.4192141,0.224726816 L11.0384161,0.224726816 L11.0384161,10.3765001 Z M23.0008509,3.81661655 C24.1221377,4.93790337 24.7068411,5.4744868 26.3286634,7.09647689 C25.3808364,7.09647689 23.0008509,7.09995704 23.0008509,7.0996115 L23.0008509,10.3764927 L31.3823103,10.3764927 L31.3823103,7.09879205 L28.0344882,3.81645118 L31.3823103,3.81645118 L31.3823103,0.224726816 L23.0008509,0.224726816 L23.0008509,3.81661655 Z M43.2619001,0.224726816 L34.8799446,0.224726816 L34.8799446,3.81661655 C36.0012339,4.93790337 36.5862655,5.4744868 38.2080902,7.09647689 C37.2605941,7.09647689 34.8799446,7.09995704 34.8799446,7.0996115 L34.8799446,10.3764927 L43.2619001,10.3764927 L43.2619001,7.09879205 L39.9139151,3.81645118 L43.2619001,3.81645118 L43.2619001,0.224726816 L43.2619001,0.224726816 Z"/>
      <polygon fill="#B7B7B7" fill-rule="nonzero" points="9.898 26.334 10.885 33.06 28.039 32.937 11.502 39.909 11.934 46.573 35.382 46.573 34.827 55.335 27.299 57.618 19.647 55.521 19.215 50.276 12.49 50.276 13.353 60.58 27.114 64.591 41.121 60.704 42.848 39.909 26.99 39.909 43.465 32.937 43.959 26.272"/>
    </g>
  </g>
</svg>
