<svg xmlns="http://www.w3.org/2000/svg" width="114" height="114" viewBox="0 0 114 114">
  <g fill="none">
    <rect width="114" height="114" fill="#B7B7B7"/>
    <g fill="#FFFFFF" transform="translate(33 22)">
      <polygon points="7.828 6.719 10.642 6.719 10.642 9.825 13.719 9.825 13.719 .547 10.642 .547 10.642 3.613 7.828 3.613 7.828 .547 4.751 .547 4.751 9.825 7.828 9.825"/>
      <polygon points="17.764 9.825 20.84 9.825 20.84 3.626 23.547 3.626 23.547 .547 15.057 .547 15.057 3.626 17.764 3.626"/>
      <polygon points="27.906 5.229 30.025 8.526 30.076 8.526 32.192 5.229 32.192 9.825 35.257 9.825 35.257 .547 32.049 .547 30.076 3.812 28.104 .547 24.897 .547 24.897 9.825 27.906 9.825"/>
      <polygon points="44.19 6.761 39.864 6.761 39.864 .547 36.788 .547 36.788 9.825 44.19 9.825"/>
      <path d="M0.318055556,13.8964 L4.71805556,63.6412 L24.4694444,69.167 L44.2361111,63.644 L48.6444444,13.8964 L0.318055556,13.8964 L0.318055556,13.8964 Z M39.0986111,30.1644 L24.4805556,30.1644 L15.9361111,30.1644 L16.4888889,36.4126 L24.4805556,36.4126 L38.5486111,36.4126 L36.8888889,55.1488 L24.4805556,58.6138 L24.4722222,58.6166 L12.0722222,55.1488 L11.2069444,45.3488 L17.2819444,45.3488 L17.7319444,50.4322 L24.4736111,52.269 L24.4819444,52.2662 L24.4819444,52.2662 L31.2305556,50.4294 L31.9333333,42.5166 L24.4819444,42.5166 L24.4819444,42.5166 L10.9555556,42.5166 L9.32083333,24.066 L24.4805556,24.066 L39.6388889,24.066 L39.0986111,30.1644 Z"/>
    </g>
  </g>
</svg>
