<?xml version="1.0" encoding="UTF-8" standalone="no"?>
<svg width="114px" height="114px" viewBox="0 0 114 114" version="1.1" xmlns="http://www.w3.org/2000/svg" xmlns:xlink="http://www.w3.org/1999/xlink">
    <!-- Generator: Sketch 40.3 (33839) - http://www.bohemiancoding.com/sketch -->
    <title>1475949431_react</title>
    <desc>Created with Sketch.</desc>
    <defs></defs>
    <g id="Page-1" stroke="none" stroke-width="1" fill="none" fill-rule="evenodd">
        <g id="Desktop-HD" transform="translate(-818.000000, -1662.000000)">
            <g id="Group-14" transform="translate(0.000000, 1393.000000)">
                <g id="Group-8" transform="translate(45.000000, 210.000000)">
                    <g id="Group-11" transform="translate(62.000000, 59.000000)">
                        <g id="1475949431_react" transform="translate(711.000000, 0.000000)">
                            <g id="Lager_1">
                                <circle id="Oval" fill="#292929" cx="57" cy="57" r="57"></circle>
                                <rect id="Rectangle-9" fill="#B7B7B7" x="0" y="0" width="114" height="114"></rect>
                                <g id="Group" transform="translate(16.000000, 31.000000)" fill="#FFFFFF">
                                    <g id="Layer_1">
                                        <path d="M2.994408,4.52725 C2.994408,5.41645 2.454624,6.07425 1.528632,6.07425 C0.757512,6.07425 0.178848,5.41645 0.178848,4.52725 C0.178848,3.67575 0.795744,2.9796 1.605744,2.9796 C2.454624,2.9796 2.994408,3.67575 2.994408,4.52725 L2.994408,4.52725 Z M0.859896,51.025 L0.859896,15.457 L2.31336,15.457 L2.31336,51.025 L0.859896,51.025 L0.859896,51.025 Z" id="Shape"></path>
                                        <path d="M50.656752,25.6828 C50.656752,43.615 40.732632,51.76665 29.86956,51.76665 C18.77256,51.76665 9.786096,42.9494 9.786096,26.42445 C9.786096,9.45685 19.085544,0.3419 30.651048,0.3419 C41.981976,0.3406 50.656752,9.3067 50.656752,25.6828 L50.656752,25.6828 Z M11.259,26.0533 C11.259,39.65 17.828424,50.2125 29.938248,50.2125 C42.132312,50.2125 49.126176,39.325 49.126176,25.8986 C49.126176,13.44785 43.522272,2.0852 30.73464,2.0852 C17.947008,2.0852 11.259,12.78355 11.259,26.0533 L11.259,26.0533 Z" id="Shape"></path>
                                        <path d="M55.991088,47.17115 C58.429512,48.80135 62.638272,50.37565 66.258,50.37565 C73.128096,50.37565 79.238088,45.5546 79.238088,38.45855 C79.238088,31.8734 75.168,28.4375 68.257728,25.48585 C62.073216,22.84425 56.512728,19.9771 56.512728,12.9376 C56.512728,5.60235 62.274096,0.41405 70.104528,0.41405 C74.315232,0.41405 77.491728,1.59965 78.969168,2.63705 L78.38208,3.91625 C77.126256,3.0277 73.732032,1.8954 70.039728,1.8954 C61.76412,1.8954 58.159296,8.1679 58.159296,12.7855 C58.159296,19.1633 63.087984,21.29595 69.440976,24.33405 C76.827528,27.9643 80.742096,31.16555 80.742096,38.1316 C80.742096,45.6157 75.42396,51.6906 65.968344,51.6906 C62.05248,51.6906 57.546936,50.35745 55.330776,48.6525 L55.991088,47.17115 L55.991088,47.17115 Z" id="Shape"></path>
                                    </g>
                                </g>
                            </g>
                        </g>
                    </g>
                </g>
            </g>
        </g>
    </g>
</svg>