<svg xmlns="http://www.w3.org/2000/svg" width="114" height="114" viewBox="0 0 114 114">
  <g fill="none">
    <rect width="114" height="114" fill="#B7B7B7"/>
    <g fill="#FFFFFF" transform="translate(31 22)">
      <path d="M16.5628553 53.5791369C16.5628553 53.5791369 13.9187126 55.1167978 18.4446016 55.6371222 23.9275889 56.2626303 26.7298804 56.1729256 32.7721697 55.0293311 32.7721697 55.0293311 34.3607441 56.0254072 36.5793025 56.8881385 23.0340858 62.6933912 5.92380834 56.5518859 16.5628553 53.5791369M14.9077018 46.0036626C14.9077018 46.0036626 11.9420397 48.198909 16.4712856 48.6673874 22.3283843 49.2716349 26.9538623 49.3210564 34.9577183 47.7798521 34.9577183 47.7798521 36.0647596 48.902186 37.8055148 49.5159449 21.4285403 54.3047935 3.18753656 49.8935997 14.9077018 46.0036626M28.8611586 33.1531441C32.198694 36.9957112 27.9842536 40.4535366 27.9842536 40.4535366 27.9842536 40.4535366 36.458826 36.0787095 32.5668374 30.6003845 28.9318406 25.4915085 26.1442824 22.9531092 41.2349929 14.2010305 41.2349929 14.2010305 17.547555 20.1170619 28.8611586 33.1531441"/>
      <path d="M46.775794 59.1824143C46.775794 59.1824143 48.7325118 60.7946737 44.6208308 62.0419601 36.8023519 64.4104614 12.0794874 65.1256742 5.21157948 62.1363271 2.7427432 61.0622957 7.37251058 59.5718183 8.82885916 59.2590642 10.347684 58.929712 11.2156371 58.9910692 11.2156371 58.9910692 8.47004053 57.0569175-6.53077877 62.7888772 3.59596317 64.4304165 31.2130618 68.909122 53.9392983 62.4136469 46.775794 59.1824143M17.8343861 38.1545983C17.8343861 38.1545983 5.25876301 41.141521 13.3810441 42.2261827 16.8105222 42.6853363 23.6470987 42.5814579 30.0151969 42.0478924 35.2195589 41.6088804 40.4453681 40.675467 40.4453681 40.675467 40.4453681 40.675467 38.6102458 41.4613619 37.2825796 42.3679198 24.5122544 45.7265293-.157645211 44.1640644 6.94450187 40.7286185 12.9507975 37.8252461 17.8343861 38.1545983 17.8343861 38.1545983M40.3935221 50.7643503C53.3751474 44.0185974 47.3729547 37.5359906 43.1835048 38.4093521 42.1566569 38.6230767 41.6988088 38.8082674 41.6988088 38.8082674 41.6988088 38.8082674 42.080007 38.2111067 42.808088 37.952623 51.0961643 35.0388069 57.4702303 46.5465529 40.132614 51.1043328 40.132614 51.1043328 40.3334704 50.9249235 40.3935221 50.7643503M32.5668374.068723838C32.5668374.068723838 39.7562647 7.26057558 25.747978 18.3196119 14.5147543 27.1908616 23.1864532 32.2490107 25.7433156 38.0281539 19.1862969 32.1121225 14.3743227 26.904217 17.6025714 22.0571816 22.3408795 14.9421663 35.4675988 11.4925466 32.5668374.068723838"/>
      <path d="M19.1100199,69.0437722 C31.5707614,69.8414163 50.7056413,68.6012168 51.158827,62.7051404 C51.158827,62.7051404 50.2877034,64.940297 40.860695,66.7153675 C30.2251916,68.7168444 17.1077971,68.4831647 9.32773641,67.2004441 C9.32773641,67.2002576 10.9204137,68.518599 19.1100199,69.0437722"/>
    </g>
  </g>
</svg>
