<?xml version="1.0" encoding="UTF-8"?>
<svg width="114px" height="114px" viewBox="0 0 114 114" version="1.1" xmlns="http://www.w3.org/2000/svg" xmlns:xlink="http://www.w3.org/1999/xlink">
    <!-- Generator: Sketch 46 (44423) - http://www.bohemiancoding.com/sketch -->
    <title>js</title>
    <desc>Created with Sketch.</desc>
    <defs></defs>
    <g id="Page-1" stroke="none" stroke-width="1" fill="none" fill-rule="evenodd">
        <g id="js" fill-rule="nonzero">
            <rect id="Rectangle-path" fill="#B7B7B7" x="0" y="0" width="114" height="114"></rect>
            <g id="Group" transform="translate(19.000000, 26.000000)" fill="#FFFFFF">
                <path d="M15.754252,1.07816537 L27.689811,1.07816537 L27.689811,34.6209173 C27.689811,49.7388113 20.4658583,55.0145478 8.92247244,55.0145478 C6.09576378,55.0145478 2.48371654,54.5421447 0.127700787,53.7548062 L1.46267717,44.0699741 C3.11173228,44.6211111 5.23190551,45.0147803 7.58749606,45.0147803 C12.6130394,45.0147803 15.754252,42.7312144 15.754252,34.5424677 L15.754252,1.07816537 L15.754252,1.07816537 Z M41.561811,41.7309302 C44.7027401,43.3844832 49.7284252,45.0380362 54.8324882,45.0380362 C60.3292913,45.0380362 63.2346614,42.7547545 63.2346614,39.211447 C63.2346614,35.9832171 60.7218897,34.0148708 54.36137,31.8100388 C45.5664567,28.6604005 39.7558582,23.7786176 39.7558582,15.9836822 C39.7558582,6.92857881 47.3726929,0.0781653747 59.7795118,0.0781653747 C65.8260945,0.0781653747 70.1446771,1.25959948 73.2858897,2.75540052 L70.6157952,12.3614987 C68.5742834,11.3381008 64.7263937,9.84187339 59.6227559,9.84187339 C54.4400315,9.84187339 51.9271181,12.2827649 51.9271181,14.96 C51.9271181,18.3458398 54.8324882,19.8416408 61.7429291,22.5190181 C71.0870551,25.9835917 75.4059212,30.8653747 75.4059212,38.4242506 C75.4059212,47.3217442 68.6528031,54.8807623 54.125811,54.8807623 C48.0792283,54.8807623 42.1111653,53.2270672 39.1277008,51.5736563 L41.561811,41.7309302 Z" id="Shape"></path>
            </g>
        </g>
    </g>
</svg>