<svg xmlns="http://www.w3.org/2000/svg" width="114" height="114" viewBox="0 0 114 114">
  <g fill="none">
    <rect width="114" height="114" fill="#B7B7B7"/>
    <path fill="#FFFFFF" d="M97,0.0424175258 L70.5739667,0.0424175258 L70.5739667,3.939 L81.47515,3.939 L81.47515,37.550366 L86.0998271,37.550366 L86.0998271,3.939 L97,3.939 L97,0.0424175258 Z M66.1141896,3.939 L66.1141896,0.0424175258 L45.9179812,0.0424175258 L45.9179812,37.550366 L66.1141896,37.550366 L66.1141896,33.6521753 L50.5420521,33.6521753 L50.5420521,20.5554124 L64.4158812,20.5554124 L64.4158812,16.6588299 L50.5420521,16.6588299 L50.5420521,3.939 L66.1141896,3.939 Z M6.51253958,35.7191753 C6.51253958,37.5079485 5.05511458,38.9575825 3.25717917,38.9575825 C1.45823333,38.9575825 0.000202083333,37.5079485 0.000202083333,35.7191753 C0.000202083333,33.9287938 1.45823333,32.480768 3.25717917,32.480768 C5.0549125,32.480567 6.51253958,33.9285928 6.51253958,35.7191753 Z M40.6656333,0.0424175258 L36.04035,0.0424175258 L36.04035,29.6536701 L14.7726958,0.0424175258 L10.1480187,0.0424175258 L10.1480187,37.550366 L14.7726958,37.550366 L14.7726958,7.96745876 L36.0557083,37.550366 L40.6656333,37.550366 L40.6656333,0.0424175258 Z" transform="translate(9 38)"/>
  </g>
</svg>
