<?xml version="1.0" encoding="UTF-8" standalone="no"?>
<svg width="114px" height="114px" viewBox="0 0 114 114" version="1.1" xmlns="http://www.w3.org/2000/svg" xmlns:xlink="http://www.w3.org/1999/xlink">
    <!-- Generator: Sketch 40.3 (33839) - http://www.bohemiancoding.com/sketch -->
    <title>1475949049_nodejs</title>
    <desc>Created with Sketch.</desc>
    <defs></defs>
    <g id="Page-1" stroke="none" stroke-width="1" fill="none" fill-rule="evenodd">
        <g id="Desktop-HD" transform="translate(-288.000000, -1662.000000)">
            <g id="Group-14" transform="translate(0.000000, 1393.000000)">
                <g id="Group-8" transform="translate(45.000000, 210.000000)">
                    <g id="Group-11" transform="translate(62.000000, 59.000000)">
                        <g id="1475949049_nodejs" transform="translate(181.000000, 0.000000)">
                            <g id="Layer_1">
                                <g id="Group">
                                    <polyline id="Shape" fill="#B7B7B7" points="0 114 114 114 114 0 0 0 0 114"></polyline>
                                    <path d="M33.2966836,54.5173828 C33.2966836,54.1693711 33.1136602,53.8498594 32.8137422,53.6777461 L24.8130352,49.0725469 C24.6776602,48.9932813 24.5258086,48.9516445 24.3723984,48.9458555 L24.2895703,48.9458555 C24.1366055,48.9516445 23.9851992,48.9932813 23.8478203,49.0725469 L15.8468906,53.6777461 C15.5485312,53.8496367 15.3632812,54.1691484 15.3632812,54.5173828 L15.3808711,66.9153281 C15.3808711,67.0878867 15.4703789,67.2488672 15.6220078,67.3328086 C15.7705195,67.4218711 15.9542109,67.4218711 16.1020547,67.3328086 L20.8568789,64.6099453 C21.1576875,64.431375 21.3404883,64.1163164 21.3404883,63.7711992 L21.3404883,57.9796875 C21.3404883,57.6343477 21.5232891,57.314168 21.8229844,57.1429453 L23.8478203,55.9771172 C23.9987812,55.8889453 24.1637695,55.846418 24.3323203,55.846418 C24.4970859,55.846418 24.6663047,55.8887227 24.8130352,55.9771172 L26.8367578,57.1429453 C27.1364531,57.314168 27.3199219,57.6343477 27.3199219,57.9796875 L27.3199219,63.7711992 C27.3199219,64.1163164 27.5053945,64.4338242 27.8041992,64.6099453 L32.5576875,67.3328086 C32.7070898,67.4218711 32.8932305,67.4218711 33.0410742,67.3328086 C33.18825,67.2488672 33.2810977,67.0878867 33.2810977,66.9153281 L33.2966836,54.5173828" id="Shape" fill="#FFFFFF"></path>
                                    <path d="M70.7663906,60.9730781 C70.7663906,61.0594687 70.7198555,61.138957 70.645043,61.182375 L67.8970195,62.7654609 C67.822207,62.8086562 67.730918,62.8086562 67.6561055,62.7654609 L64.9076367,61.182375 C64.8326016,61.138957 64.786957,61.0592461 64.786957,60.9730781 L64.786957,57.7995586 C64.786957,57.713168 64.8326016,57.633457 64.9071914,57.590707 L67.6554375,56.0033906 C67.730918,55.9601953 67.822207,55.9601953 67.8976875,56.0033906 L70.645043,57.590707 C70.7198555,57.633457 70.7663906,57.7133906 70.7663906,57.7995586 L70.7663906,60.9730781 L70.7663906,60.9730781 Z M71.5089492,37.4737148 C71.3588789,37.3899961 71.1765234,37.392 71.0282344,37.4788359 C70.8810586,37.5656719 70.7904375,37.7239805 70.7904375,37.8954258 L70.7904375,50.1740273 C70.7904375,50.2944844 70.7251992,50.4064805 70.6214414,50.4668203 C70.5170156,50.5276055 70.387875,50.5276055 70.2825586,50.4668203 L68.2793203,49.3125703 C67.9798477,49.1395664 67.6120195,49.1402344 67.3136602,49.3125703 L59.3096133,53.9317969 C59.0103633,54.1045781 58.8260039,54.4229766 58.8260039,54.7685391 L58.8260039,64.0087734 C58.8260039,64.3541133 59.0103633,64.6727344 59.3093906,64.8461836 L67.3121016,69.46875 C67.6117969,69.6417539 67.980293,69.6417539 68.2790977,69.46875 L76.2842578,64.8461836 C76.5832852,64.672957 76.7674219,64.3541133 76.7674219,64.0087734 L76.7674219,40.9749844 C76.7674219,40.6251914 76.5781641,40.3021172 76.2717891,40.1313398 L71.5089492,37.4737148 L71.5089492,37.4737148 Z" id="Shape" fill="#FFFFFF"></path>
                                    <path d="M97.8888164,57.7171758 C98.1873984,57.5439492 98.3699766,57.2257734 98.3699766,56.8811016 L98.3699766,54.6418477 C98.3699766,54.2971758 98.1873984,53.9787773 97.8888164,53.8059961 L89.9366484,49.1885508 C89.6378438,49.0144336 89.2677891,49.0144336 88.9680938,49.1872148 L80.9667188,53.8064414 C80.6674688,53.9792227 80.4837773,54.2978437 80.4837773,54.6436289 L80.4837773,63.8807461 C80.4837773,64.2283125 80.6703633,64.5487148 80.9716172,64.7206055 L88.9231172,69.2512148 C89.2159102,69.4190977 89.576168,69.4202109 89.8702969,69.2565586 L94.6798945,66.5835703 C94.833082,66.4985156 94.9279336,66.3384258 94.9286016,66.1645312 C94.9297148,65.9901914 94.8373125,65.8292109 94.6861289,65.7419297 L86.6346563,61.1206992 C86.4836953,61.0347539 86.391293,60.8744414 86.391293,60.7014375 L86.391293,57.8062383 C86.391293,57.6343477 86.48325,57.4740352 86.6333203,57.3878672 L89.1393164,55.9428281 C89.2882734,55.8568828 89.4724102,55.8568828 89.6215898,55.9428281 L92.1289219,57.3878672 C92.2785469,57.4740352 92.3709492,57.634125 92.3709492,57.8062383 L92.3709492,60.0837891 C92.3709492,60.2570156 92.4633516,60.4164375 92.6131992,60.5034961 C92.7630469,60.5892187 92.9474063,60.5885508 93.0970313,60.5019375 L97.8888164,57.7171758" id="Shape" fill="#FFFFFF"></path>
                                    <path d="M45.5955469,49.1384531 C45.8943516,48.9663398 46.2630703,48.9663398 46.561875,49.1384531 L54.5648086,53.7567891 C54.8642813,53.9295703 55.048418,54.2484141 55.048418,54.5941992 L55.048418,63.8379961 C55.048418,64.1831133 54.8642813,64.5017344 54.5654766,64.6754063 L46.5623203,69.2973047 C46.2630703,69.4700859 45.8945742,69.4700859 45.5955469,69.2973047 L37.5943945,64.6754063 C37.2955898,64.501957 37.1114531,64.1831133 37.1114531,63.8379961 L37.1114531,54.5937539 C37.1114531,54.2484141 37.2955898,53.929793 37.5948398,53.7567891 L45.5955469,49.1384531" id="Shape" fill="#FFFFFF"></path>
                                </g>
                            </g>
                        </g>
                    </g>
                </g>
            </g>
        </g>
    </g>
</svg>