<?xml version="1.0" encoding="UTF-8" standalone="no"?>
<svg width="114px" height="114px" viewBox="0 0 114 114" version="1.1" xmlns="http://www.w3.org/2000/svg" xmlns:xlink="http://www.w3.org/1999/xlink">
    <!-- Generator: Sketch 40.3 (33839) - http://www.bohemiancoding.com/sketch -->
    <title>1475949431_react</title>
    <desc>Created with Sketch.</desc>
    <defs></defs>
    <g id="Page-1" stroke="none" stroke-width="1" fill="none" fill-rule="evenodd">
        <g id="Desktop-HD" transform="translate(-818.000000, -4226.000000)">
            <g id="Group-14" transform="translate(0.000000, 3957.000000)">
                <g id="Group-8" transform="translate(45.000000, 210.000000)">
                    <g id="1475949431_react" transform="translate(773.000000, 59.000000)">
                        <g id="Lager_1">
                            <circle id="Oval" fill="#292929" cx="57" cy="57" r="57"></circle>
                            <rect id="Rectangle-9" fill="#B7B7B7" x="0" y="0" width="114" height="114"></rect>
                            <g id="Group" transform="translate(14.000000, 45.000000)" fill="#FFFFFF">
                                <g id="1476213785_paypal">
                                    <g id="Layer_1">
                                        <g id="Group">
                                            <path d="M71.7232452,3.78654545 C69.4298955,3.78654545 67.6162516,4.38309091 66.2296311,4.65454545 L65.8018657,8.07127273 C66.4956397,7.74563636 68.6823262,7.14945455 70.4970832,7.09490909 C72.3105416,7.04054545 73.3771727,7.42 73.0046866,8.93909091 C67.6166226,8.93909091 63.9887783,10.0234545 63.2417655,13.4410909 C62.1740213,19.2989091 68.7372345,19.092 71.3507591,16.5430909 L71.0302132,17.9090909 L75.8315373,17.9090909 L77.9128593,8.62381818 C78.7652367,4.664 75.0841535,3.73236364 71.7232452,3.78654545 L71.7232452,3.78654545 Z M72.0432345,13.3356364 C71.776484,14.5825455 70.7638337,15.1243636 69.5363731,15.1789091 C68.4699275,15.2325455 67.5084755,14.3121818 68.2026205,13.228 C68.737049,12.3061818 70.2305181,12.0909091 71.1368763,12.0909091 L72.3103561,12.0909091 C72.203693,12.4545455 72.1489701,12.902 72.0432345,13.3356364 L72.0432345,13.3356364 Z" id="Shape"></path>
                                            <polygon id="Shape" points="82.0194819 0.0909090909 78.0473475 17.9090909 82.9243561 17.9090909 86.9458337 0.0909090909"></polygon>
                                            <path d="M59.6120661,0.0909090909 L50.6831578,0.0909090909 L46.7262345,17.9090909 L51.9122878,17.9090909 L53.2497505,12.0909091 L56.9393667,12.0909091 C60.5746311,12.0909091 63.5688038,9.88781818 64.371467,6.19909091 C65.2796802,2.02309091 62.1786588,0.0909090909 59.6120661,0.0909090909 L59.6120661,0.0909090909 Z M59.4527207,6.18163636 C59.1312473,7.53781818 57.7409168,8.63636364 56.4034542,8.63636364 L53.9978763,8.63636364 L55.0678465,3.72727273 L57.6342537,3.72727273 C58.9715309,3.72727273 59.7732665,4.826 59.4527207,6.18163636 L59.4527207,6.18163636 Z" id="Shape"></path>
                                            <path d="M24.963064,3.78654545 C22.6969829,3.78654545 20.9048571,4.38309091 19.5874286,4.65454545 L19.1661557,8.07127273 C19.7985288,7.74563636 21.9598017,7.14945455 23.750629,7.09490909 C25.5429403,7.04054545 26.5969574,7.42 26.280307,8.93909091 C20.9580959,8.93909091 17.3745864,10.0234545 16.6366631,13.4410909 C15.5822751,19.2989091 22.0642388,19.092 24.5933603,16.5430909 L24.277823,17.9090909 L29.0733966,17.9090909 L31.1285629,8.62381818 C31.9716652,4.664 28.2826055,3.73236364 24.963064,3.78654545 L24.963064,3.78654545 Z M25.3314691,13.3356364 C25.0680576,14.5825455 24.013855,15.1243636 22.8019765,15.1789091 C21.7479595,15.2325455 20.8521748,14.3121818 21.5372303,13.228 C22.0640533,12.3061818 23.5395288,12.0909091 24.3830021,12.0909091 L25.5950661,12.0909091 C25.489887,12.4545455 25.3845224,12.902 25.3314691,13.3356364 L25.3314691,13.3356364 Z" id="Shape"></path>
                                            <polygon id="Shape" points="33.2178614 4.09090909 38.0132495 4.09090909 38.7866034 12.4014545 43.4786674 4.09090909 48.4270938 4.09090909 37.0332473 23.9090909 31.670968 23.9090909 35.1763817 18.0972727"></polygon>
                                            <path d="M13.0355309,0.0909090909 L4.08343497,0.0909090909 L0.116680171,17.9090909 L5.37044136,17.9090909 L6.65670576,12.0909091 L10.4086503,12.0909091 C14.000322,12.0909091 17.0026567,9.88781818 17.8064328,6.19909091 C18.7176141,2.02309091 15.662226,0.0909090909 13.0355309,0.0909090909 L13.0355309,0.0909090909 Z M12.8747015,6.18163636 C12.5532281,7.53781818 11.2131684,8.63636364 9.87292324,8.63636364 L7.40705757,8.63636364 L8.53286354,3.72727273 L11.1057633,3.72727273 C12.3925842,3.72727273 13.2501557,4.826 12.8747015,6.18163636 L12.8747015,6.18163636 Z" id="Shape"></path>
                                        </g>
                                    </g>
                                </g>
                            </g>
                        </g>
                    </g>
                </g>
            </g>
        </g>
    </g>
</svg>