<svg xmlns="http://www.w3.org/2000/svg" width="114" height="114" viewBox="0 0 114 114">
  <g fill="none">
    <rect width="114" height="114" fill="#B7B7B7"/>
    <g fill="#FFFFFF" transform="translate(16 38)">
      <path d="M16.4100276 13.0097901C18.9688481 13.0097901 20.6741893 13.4784321 21.52686 14.4158765 22.3787219 15.353321 22.5817002 16.9624321 22.1359566 19.2425679 21.6703195 21.6170741 20.7736568 23.3118889 19.4445128 24.3273333 18.1153688 25.3429383 16.0927022 25.8500988 13.3773215 25.8500988L9.28055621 25.8500988 11.7953846 13.0097901 16.4100276 13.0097901 16.4100276 13.0097901zM0 38.8486543L6.73515976 38.8486543 8.33262327 30.6918765 14.101574 30.6918765C16.6471321 30.6918765 18.7411243 30.4270617 20.3850059 29.8958272 22.0290493 29.3653951 23.523002 28.4757778 24.8678343 27.2268148 25.996426 26.1972469 26.9095858 25.0617531 27.608931 23.8200123 28.3074675 22.5792346 28.8038343 21.2092593 29.0972229 19.7112099 29.8098304 16.0744198 29.2720592 13.2417037 27.4855266 11.2122593 25.6989941 9.18281481 22.8568126 8.16817284 18.9605996 8.16817284L6.00912821 8.16817284 0 38.8486543zM34.0437475.0113950617L40.7256963.0113950617 39.128071 8.16817284 45.0809152 8.16817284C48.8262288 8.16817284 51.4099566 8.81688889 52.8319369 10.1128765 54.2537554 11.4096667 54.6797673 13.5105309 54.1112663 16.4148272L51.315503 30.6918765 44.5274556 30.6918765 47.1857436 17.1169877C47.4881893 15.572716 47.3772387 14.5193951 46.8519211 13.9578272 46.3266036 13.3960988 45.2088481 13.1150741 43.4993018 13.1150741L38.158789 13.1150741 34.716568 30.691716 28.0344576 30.691716 34.0437475.0113950617zM68.9786588 13.0097901C71.5374793 13.0097901 73.2428205 13.4784321 74.0954911 14.4158765 74.9476765 15.353321 75.1504931 16.9624321 74.7045878 19.2425679 74.2389507 21.6170741 73.3426114 23.3118889 72.013144 24.3273333 70.684 25.3429383 68.6613333 25.8500988 65.9459527 25.8500988L61.8493491 25.8500988 64.3641775 13.0097901 68.9786588 13.0097901 68.9786588 13.0097901zM52.5687929 38.8486543L59.3039527 38.8486543 60.9012544 30.6918765 66.6702051 30.6918765C69.2157633 30.6918765 71.3097554 30.4270617 72.9537988 29.8958272 74.5976805 29.3653951 76.0916331 28.4757778 77.4366272 27.2268148 78.5653807 26.1972469 79.4783787 25.0617531 80.1777239 23.8200123 80.8760986 22.5792346 81.3726272 21.2092593 81.665854 19.7112099 82.3784615 16.0744198 81.8408521 13.2417037 80.0541578 11.2122593 78.2676252 9.18281481 75.4254438 8.16817284 71.5292308 8.16817284L58.5780828 8.16817284 52.5687929 38.8486543z"/>
    </g>
  </g>
</svg>
