<?xml version="1.0" encoding="UTF-8" standalone="no"?>
<svg width="114px" height="114px" viewBox="0 0 114 114" version="1.1" xmlns="http://www.w3.org/2000/svg" xmlns:xlink="http://www.w3.org/1999/xlink">
    <!-- Generator: Sketch 40.3 (33839) - http://www.bohemiancoding.com/sketch -->
    <title>1475949304_python</title>
    <desc>Created with Sketch.</desc>
    <defs></defs>
    <g id="Page-1" stroke="none" stroke-width="1" fill="none" fill-rule="evenodd">
        <g id="Desktop-HD" transform="translate(-469.000000, -1662.000000)">
            <g id="Group-14" transform="translate(0.000000, 1393.000000)">
                <g id="Group-8" transform="translate(45.000000, 210.000000)">
                    <g id="Group-11" transform="translate(62.000000, 59.000000)">
                        <g id="1475949304_python" transform="translate(362.000000, 0.000000)">
                            <g id="Layer_1">
                                <g id="Group">
                                    <polyline id="Shape" fill="#B7B7B7" points="0 114 114 114 114 0 0 0 0 114"></polyline>
                                    <path d="M49.6002422,40.4219062 C50.8934297,40.4219062 51.9497109,41.4951094 51.9497109,42.814793 C51.9497109,44.1300234 50.893207,45.1936523 49.6002422,45.1936523 C48.3021563,45.1936523 47.2507734,44.1302461 47.2507734,42.814793 C47.2505508,41.4951094 48.3021563,40.4219062 49.6002422,40.4219062 L49.6002422,40.4219062 Z M56.3709961,36.5839805 C54.2303789,36.594 52.1866172,36.7765781 50.3882227,37.0949766 C45.0898945,38.0308008 44.1282422,39.9901758 44.1282422,43.6029961 L44.1282422,48.3747422 L56.6482031,48.3747422 L56.6482031,49.9658437 L44.1282422,49.9658437 L39.4293047,49.9658437 C35.7906563,49.9658437 32.6048906,52.1527734 31.6080586,56.3135508 C30.4582617,61.0824023 30.4072734,64.0582031 31.6080586,69.0374648 C32.497793,72.7444687 34.6232695,75.3849492 38.261918,75.3849492 L42.5665313,75.3849492 L42.5665313,69.6646875 C42.5665313,65.5326328 46.1423906,61.887082 50.3882227,61.887082 L62.8934883,61.887082 C66.3749414,61.887082 69.1541367,59.0210508 69.1541367,55.5249023 L69.1541367,43.6027734 C69.1541367,40.2103828 66.2912227,37.6614141 62.8934883,37.0947539 C60.7430742,36.7367227 58.5109453,36.5741836 56.3709961,36.5839805 L56.3709961,36.5839805 Z" id="Shape" fill="#FFFFFF"></path>
                                    <path d="M63.6816914,80.1564727 C64.9795547,80.1564727 66.0309375,81.2196563 66.0309375,82.5355547 C66.0309375,83.8550156 64.9795547,84.9284414 63.6816914,84.9284414 C62.3885039,84.9284414 61.3322227,83.8550156 61.3322227,82.5355547 C61.3322227,81.2196563 62.3885039,80.1564727 63.6816914,80.1564727 L63.6816914,80.1564727 Z M70.7151797,49.9653984 L70.7151797,55.5249023 C70.7151797,59.8353047 67.0605,63.4628203 62.8934883,63.4628203 L50.3882227,63.4628203 C46.9628789,63.4628203 44.1282422,66.3945352 44.1282422,69.8252227 L44.1282422,81.7473516 C44.1282422,85.1399648 47.0784375,87.1363008 50.3882227,88.1090859 C54.3512812,89.2744688 58.1515781,89.4855469 62.8934883,88.1090859 C66.0454102,87.1966406 69.1541367,85.3601719 69.1541367,81.7473516 L69.1541367,76.9753828 L56.6482031,76.9753828 L56.6482031,75.3842813 L69.1541367,75.3842813 L75.4136719,75.3842813 C79.0527656,75.3842813 80.4085195,72.846668 81.673875,69.0367969 C82.9808672,65.1151523 82.9254258,61.3433555 81.673875,56.3128828 C80.7743437,52.6904883 79.0572187,49.9651758 75.4136719,49.9651758 L70.7151797,49.9651758 L70.7151797,49.9653984 Z" id="Shape" fill="#FFFFFF"></path>
                                    <path d="M34.8436992,24.8379727 C34.8436992,25.6682578 35.0164805,26.2823438 35.362043,26.6795625 C35.7071602,27.0772266 36.1275352,27.2753906 36.623168,27.2753906 C37.0985391,27.2753906 37.4946445,27.0934805 37.8108164,26.7287695 C38.1263203,26.3636133 38.2848516,25.7657813 38.2848516,24.9350508 C38.2848516,24.160207 38.1220898,23.5850859 37.7958984,23.2081289 C37.4701523,22.8322852 37.0666992,22.6443633 36.586207,22.6443633 C36.0856758,22.6443633 35.6706445,22.8289453 35.3397773,23.1981094 C35.0089102,23.5672734 34.8436992,24.1143398 34.8436992,24.8379727 L34.8436992,24.8379727 Z M32.653875,21.1970977 L34.8436992,21.1970977 L34.8436992,22.3003594 C35.0915156,21.9234023 35.426168,21.6210352 35.8481016,21.3934805 C36.2700352,21.1659258 36.7380586,21.0521484 37.2512812,21.0521484 C38.1485859,21.0521484 38.910293,21.3925898 39.5361797,22.0730273 C40.1618437,22.7541328 40.4746758,23.7015352 40.4746758,24.9165703 C40.4746758,26.1667852 40.1518242,27.1375664 39.5056758,27.829582 C38.8595273,28.5215977 38.076,28.8671602 37.1555391,28.8671602 C36.7171289,28.8671602 36.3205781,28.7847773 35.9652187,28.6197891 C35.6103047,28.4550234 35.2360195,28.1726953 34.8434766,27.7730273 L34.8434766,31.6171875 L32.6536523,31.6171875 L32.6536523,21.1970977 L32.653875,21.1970977 Z" id="Shape" fill="#FFFFFF"></path>
                                    <path d="M41.2568672,21.1970977 L43.4464687,21.1970977 L45.2455312,26.5245937 L47.0443711,21.1970977 L49.2341953,21.1970977 L46.4848359,28.3741992 L45.964043,29.7290625 C45.7897031,30.1690312 45.6238242,30.5052422 45.4668516,30.7374727 C45.3094336,30.9694805 45.1284141,31.158293 44.9240156,31.3027969 C44.7193945,31.4475234 44.4682383,31.5601875 44.1701016,31.6407891 C43.8719648,31.7213906 43.5346406,31.7614687 43.1583516,31.7614687 C42.7785,31.7614687 42.4053281,31.7218359 42.0388359,31.6419023 L41.8823086,30.0770742 C42.1822266,30.1391953 42.4525312,30.1696992 42.6938906,30.1696992 C43.1387578,30.1696992 43.4673984,30.0341016 43.6802578,29.7615703 C43.8928945,29.4894844 44.0561016,29.1434766 44.1703242,28.7226562 L41.2568672,21.1970977" id="Shape" fill="#FFFFFF"></path>
                                    <path d="M54.5525625,21.1970977 L54.5525625,22.7890898 L52.9888477,22.7890898 L52.9888477,25.8414844 C52.9888477,26.4598008 53.0044336,26.8200586 53.0362734,26.9227031 C53.0678906,27.0249023 53.1398086,27.1092891 53.2513594,27.1756406 C53.3629102,27.2422148 53.4982852,27.2749453 53.6581523,27.2749453 C53.8830352,27.2749453 54.2072227,27.211043 54.6307148,27.0834609 L54.7090898,28.5799336 C54.1956445,28.7716406 53.6133984,28.8669375 52.9614609,28.8669375 C52.5642422,28.8669375 52.2053203,28.8074883 51.8853633,28.6874766 C51.5647383,28.5676875 51.3298359,28.4122734 51.1797656,28.221457 C51.029918,28.0308633 50.9266055,27.77325 50.8693828,27.4492852 C50.8224023,27.2190586 50.7988008,26.7534844 50.7988008,26.0538984 L50.7988008,22.7888672 L49.7037773,22.7888672 L49.7037773,21.196875 L50.7988008,21.196875 L50.7988008,19.7496094 L52.988625,18.5920195 L52.988625,21.1970977 L54.5525625,21.1970977" id="Shape" fill="#FFFFFF"></path>
                                    <path d="M57.8376328,18.3025664 L57.8376328,22.2035039 C58.5202969,21.4362305 59.3358867,21.0521484 60.2844023,21.0521484 C60.7700156,21.0521484 61.2077578,21.1369805 61.5989648,21.3068672 C61.9899492,21.4765312 62.2849687,21.6927305 62.4833555,21.9568008 C62.6824102,22.2206484 62.8180078,22.5125508 62.8905937,22.8320625 C62.9631797,23.1517969 62.99925,23.6483203 62.99925,24.3223008 L62.99925,28.7226562 L60.8096484,28.7226562 L60.8096484,24.8081367 C60.8096484,24.0301758 60.7702383,23.5372148 60.6923086,23.3281406 C60.6139336,23.1195117 60.4758867,22.9531875 60.278168,22.8300586 C60.0802266,22.7058164 59.8319648,22.6443633 59.5340508,22.6443633 C59.1900469,22.6443633 58.8836719,22.7236289 58.6149258,22.8819375 C58.3461797,23.0400234 58.1491289,23.2787109 58.0246641,23.5977773 C57.8997539,23.9166211 57.8376328,24.3870937 57.8376328,25.0098633 L57.8376328,28.7226562 L55.6480312,28.7226562 L55.6480312,18.3025664 L57.8376328,18.3025664" id="Shape" fill="#FFFFFF"></path>
                                    <path d="M66.9099844,24.9597656 C66.9099844,25.7074453 67.0981289,26.2805625 67.4746406,26.6786719 C67.850707,27.0765586 68.3158359,27.2753906 68.8700273,27.2753906 C69.4224375,27.2753906 69.8857852,27.0765586 70.2598477,26.6786719 C70.6334648,26.2805625 70.8204961,25.7029922 70.8204961,24.9464063 C70.8204961,24.2078555 70.6334648,23.6396367 70.2598477,23.2415273 C69.8855625,22.843418 69.4224375,22.6443633 68.8700273,22.6443633 C68.3160586,22.6443633 67.8509297,22.843418 67.4746406,23.2415273 C67.0981289,23.6394141 66.9099844,24.2120859 66.9099844,24.9597656 L66.9099844,24.9597656 Z M64.7199375,24.8533359 C64.7199375,24.1962773 64.8940547,23.5603711 65.2418438,22.9462852 C65.5898555,22.3319766 66.0825938,21.8628398 66.7209492,21.5384297 C67.3581914,21.2142422 68.0709141,21.0521484 68.8577813,21.0521484 C70.0734844,21.0521484 71.0694258,21.4197539 71.8460508,22.1547422 C72.6222305,22.8897305 73.0103203,23.8179844 73.0103203,24.9392813 C73.0103203,26.0699297 72.6182227,27.0077578 71.833582,27.7516523 C71.0496094,28.4953242 70.0623516,28.8671602 68.8729219,28.8671602 C68.136375,28.8671602 67.4336719,28.7126367 66.7659258,28.4026992 C66.0977344,28.0929844 65.5903008,27.6389883 65.2420664,27.0404883 C64.8940547,26.441543 64.7199375,25.7127891 64.7199375,24.8533359 L64.7199375,24.8533359 Z" id="Shape" fill="#FFFFFF"></path>
                                    <path d="M82.0824492,28.7226563 L79.8930703,28.7226563 L79.8930703,24.9392813 C79.8930703,24.140168 79.8485391,23.6233828 79.7608125,23.3884805 C79.6726406,23.1529102 79.529918,22.9701094 79.3326445,22.8398555 C79.1355938,22.7093789 78.8980195,22.6441406 78.6192539,22.6441406 C78.2621133,22.6441406 77.9426016,22.7374336 77.6600508,22.9233516 C77.3770547,23.1097148 77.1833438,23.35575 77.0784727,23.6630156 C76.9736016,23.9698359 76.9206094,24.5373867 76.9206094,25.3663359 L76.9206094,28.7226563 L74.7307852,28.7226563 L74.7307852,21.1970977 L76.9206094,21.1970977 L76.9206094,22.3003594 C77.5968164,21.468293 78.4491445,21.0521484 79.4769258,21.0521484 C79.9280273,21.0521484 80.3417227,21.1309688 80.7160078,21.2886094 C81.0909609,21.4460273 81.373957,21.6475313 81.5665547,21.8924531 C81.7591523,22.1378203 81.8931914,22.41525 81.9684492,22.7256328 C82.0448203,23.0362383 82.0822266,23.4817734 82.0822266,24.0622383 L82.0822266,28.7226563" id="Shape" fill="#FFFFFF"></path>
                                </g>
                            </g>
                        </g>
                    </g>
                </g>
            </g>
        </g>
    </g>
</svg>