<?xml version="1.0" encoding="UTF-8" standalone="no"?>
<svg width="114px" height="114px" viewBox="0 0 114 114" version="1.1" xmlns="http://www.w3.org/2000/svg" xmlns:xlink="http://www.w3.org/1999/xlink">
    <!-- Generator: Sketch 40.3 (33839) - http://www.bohemiancoding.com/sketch -->
    <title>1475949431_react</title>
    <desc>Created with Sketch.</desc>
    <defs></defs>
    <g id="Page-1" stroke="none" stroke-width="1" fill="none" fill-rule="evenodd">
        <g id="Desktop-HD" transform="translate(-651.000000, -1662.000000)">
            <g id="Group-14" transform="translate(0.000000, 1393.000000)">
                <g id="Group-8" transform="translate(45.000000, 210.000000)">
                    <g id="Group-11" transform="translate(62.000000, 59.000000)">
                        <g id="1475949431_react" transform="translate(544.000000, 0.000000)">
                            <g id="Lager_1">
                                <circle id="Oval" fill="#292929" cx="57" cy="57" r="57"></circle>
                                <rect id="Rectangle-9" fill="#B7B7B7" x="0" y="0" width="114" height="114"></rect>
                                <g id="Group" transform="translate(29.000000, 12.000000)" fill="#FFFFFF">
                                    <text id="react" font-family="AvenirNext-DemiBold, Avenir Next" font-size="18" font-weight="500">
                                        <tspan x="6.156" y="18">react</tspan>
                                    </text>
                                    <circle id="Oval" cx="27.704569" cy="51.9341121" r="4.91532676"></circle>
                                    <path d="M52.3705724,47.1081549 C50.6725504,45.6782417 48.2595718,44.4270676 45.3997454,43.4440023 C44.8635279,43.2652631 44.2379408,43.0865239 43.6123538,42.9077848 C43.7017234,42.4609369 43.791093,42.1034586 43.8804625,41.6566107 C45.2210062,35.043262 44.2379408,29.8598265 41.3781144,28.1618045 C39.9482011,27.3574783 37.9820704,27.3574783 35.747831,28.1618045 C33.6923307,28.9661307 31.3687217,30.3960439 29.1344823,32.3621746 C28.6876344,32.719653 28.2407865,33.1665008 27.7939386,33.6133487 C27.5258299,33.34524 27.1683515,33.0771313 26.9002428,32.8090225 C21.8955465,28.3405437 16.8908501,26.5531521 13.9416541,28.2511741 C12.5117408,29.0555003 11.5286755,30.7535223 11.0818276,33.1665008 C10.7243493,35.3113707 10.8137189,38.0818276 11.4393059,41.0310237 C11.5286755,41.6566107 11.7074146,42.1928282 11.8861538,42.8184152 C11.1711972,42.9971544 10.4562406,43.2652631 9.83065352,43.4440023 C3.84289183,45.4995025 0.268108732,48.7168073 0.268108732,51.9341121 C0.268108732,53.6321341 1.25117408,55.4195256 3.12793521,56.9388085 C4.91532676,58.4580913 7.41767493,59.7986349 10.2775014,60.7817003 C10.7243493,60.9604394 11.2605668,61.1391786 11.7967842,61.2285482 C11.6180451,61.8541352 11.5286755,62.5690918 11.3499363,63.1946789 C10.1881318,69.3611797 11.1711972,74.0977673 13.9416541,75.7064197 C14.6566107,76.1532676 15.5503065,76.3320068 16.5333718,76.3320068 C17.5164372,76.3320068 18.5888721,76.1532676 19.7506766,75.7064197 C21.9849161,74.9020935 24.3085251,73.4721803 26.6321341,71.41668 C26.9896124,71.0592017 27.4364603,70.7017234 27.7939386,70.3442451 C28.3301561,70.791093 28.7770039,71.2379408 29.3132214,71.6847887 C32.7986349,74.7233544 36.1946789,76.3320068 38.8757662,76.3320068 C39.8588315,76.3320068 40.7525273,76.1532676 41.4674839,75.7064197 C42.8973972,74.8127239 43.9698321,73.114702 44.41668,70.7017234 C44.8635279,68.3781144 44.7741583,65.6076575 44.1485713,62.5690918 C44.0592017,62.1222439 43.9698321,61.5860265 43.791093,61.1391786 C44.1485713,61.049809 44.5060496,60.9604394 44.7741583,60.7817003 C51.2087679,58.6368304 55.1410293,55.2407865 55.1410293,51.8447425 C55.1410293,50.3254597 54.1579639,48.6274377 52.3705724,47.1081549 L52.3705724,47.1081549 Z M36.5521572,30.3960439 C38.1608096,29.8598265 39.4119837,29.7704569 40.2163099,30.2173048 C41.8249623,31.1110006 42.8973972,34.9538924 41.6462231,41.2097628 C41.5568535,41.5672411 41.4674839,41.9247194 41.3781144,42.2821977 C39.0545054,41.7459803 36.6415268,41.388502 34.049809,41.1203932 C32.5305262,38.9755234 31.0112434,37.0093927 29.402591,35.3113707 C29.8494389,34.8645228 30.2069172,34.5070445 30.6537651,34.1495662 C32.7092654,32.3621746 34.7647656,31.1110006 36.5521572,30.3960439 L36.5521572,30.3960439 Z M35.3903527,56.4919606 C34.4966569,58.0112434 33.6923307,59.4411566 32.7986349,60.6923307 C31.1899825,60.7817003 29.4919606,60.8710699 27.7939386,60.8710699 C26.0959166,60.8710699 24.3978946,60.7817003 22.7892423,60.6923307 C21.8955465,59.351787 20.9124811,57.9218738 20.1081549,56.402591 C19.2144592,54.9726777 18.4995025,53.4533949 17.7845459,51.9341121 C18.4995025,50.4148293 19.3038287,48.9849161 20.1081549,47.5550028 L20.1081549,47.5550028 C21.0018507,46.1250896 21.8955465,44.6951763 22.7892423,43.2652631 C24.3978946,43.1758935 26.0959166,43.0865239 27.7939386,43.0865239 C29.4919606,43.0865239 31.1899825,43.1758935 32.7986349,43.2652631 C33.6923307,44.6058068 34.5860265,46.03572 35.4797223,47.4656332 C36.373418,48.9849161 37.1777442,50.4148293 37.8927008,51.8447425 C36.9990051,53.4533949 36.2840485,54.9726777 35.3903527,56.4919606 L35.3903527,56.4919606 Z M38.9651358,54.704569 C39.6800924,56.402591 40.3056794,58.0112434 40.8418969,59.5305262 C39.2332445,59.8880045 37.5352225,60.1561132 35.747831,60.424222 C36.2840485,59.5305262 36.9096355,58.5474608 37.445853,57.6537651 C37.9820704,56.6706997 38.5182879,55.6876344 38.9651358,54.704569 L38.9651358,54.704569 Z M27.7939386,67.1269403 C26.7215037,65.9651358 25.5596992,64.6245921 24.4872642,63.1946789 C25.5596992,63.1946789 26.6321341,63.2840485 27.704569,63.2840485 C28.8663735,63.2840485 29.9388085,63.2840485 31.0112434,63.1946789 C29.9388085,64.6245921 28.8663735,65.9651358 27.7939386,67.1269403 L27.7939386,67.1269403 Z M19.7506766,60.424222 C17.9632851,60.2454828 16.2652631,59.9773741 14.6566107,59.6198958 C15.1034586,58.0112434 15.7290456,56.402591 16.4440023,54.7939386 C16.9802197,55.7770039 17.4270676,56.6706997 17.9632851,57.6537651 C18.5888721,58.6368304 19.1250896,59.5305262 19.7506766,60.424222 L19.7506766,60.424222 Z M18.0526546,46.3931983 C17.5164372,47.3762637 16.9802197,48.2699594 16.5333718,49.2530248 C15.8184152,47.6443724 15.2821977,46.03572 14.7459803,44.5164372 C16.3546327,44.1589589 17.9632851,43.8908501 19.7506766,43.6227414 C19.1250896,44.5164372 18.5888721,45.4995025 18.0526546,46.3931983 L18.0526546,46.3931983 Z M27.704569,37.0093927 C28.7770039,38.1711972 29.8494389,39.5117408 30.9218738,40.9416541 C29.8494389,40.8522845 28.7770039,40.8522845 27.6151994,40.8522845 C26.5427645,40.8522845 25.4703296,40.8522845 24.3978946,40.9416541 C25.5596992,39.5117408 26.6321341,38.1711972 27.704569,37.0093927 L27.704569,37.0093927 Z M37.3564834,46.3931983 C36.8202659,45.410133 36.2840485,44.5164372 35.6584614,43.6227414 C37.445853,43.8014806 39.0545054,44.1589589 40.6631577,44.5164372 C40.2163099,46.03572 39.5907228,47.6443724 38.8757662,49.2530248 C38.5182879,48.359329 37.9820704,47.3762637 37.3564834,46.3931983 L37.3564834,46.3931983 Z M13.6735454,40.5841758 C13.1373279,37.9030885 13.0479583,35.4901099 13.4054366,33.6133487 C13.6735454,32.0046963 14.2991324,30.8428918 15.1034586,30.3066744 C16.712111,29.4129786 20.5550028,30.3066744 25.2915904,34.5964141 C25.5596992,34.8645228 25.8278079,35.1326315 26.0959166,35.4007403 C24.4872642,37.0987623 22.9679814,39.064893 21.4486986,41.2097628 C18.8569808,41.4778715 16.3546327,41.8353499 14.1203932,42.3715673 C13.9416541,41.6566107 13.8522845,41.1203932 13.6735454,40.5841758 L13.6735454,40.5841758 Z M11.0818276,58.6368304 C5.27280507,56.6706997 2.59171775,53.8108732 2.59171775,51.9341121 C2.59171775,50.1467206 5.09406592,47.5550028 10.5456101,45.6782417 C11.1711972,45.4995025 11.7967842,45.2313938 12.4223713,45.0526546 C13.1373279,47.2868941 14.0310237,49.6105031 15.1034586,52.0234817 C14.0310237,54.4364603 13.0479583,56.7600693 12.4223713,59.0836783 C11.9755234,58.9049392 11.5286755,58.8155696 11.0818276,58.6368304 L11.0818276,58.6368304 Z M16.5333718,74.0977673 C15.9077848,74.0977673 15.4609369,74.0083977 15.1034586,73.740289 C13.5841758,72.8465932 12.5117408,69.4505493 13.6735454,63.7308963 C13.7629149,63.1053093 13.9416541,62.5690918 14.0310237,61.9435048 C16.2652631,62.4797223 18.7676113,62.8372006 21.4486986,63.0159397 C22.9679814,65.1608096 24.5766338,67.1269403 26.1852862,68.8249623 C25.8278079,69.1824406 25.4703296,69.4505493 25.1128513,69.8080276 C21.6274377,72.8465932 18.4995025,74.0977673 16.5333718,74.0977673 L16.5333718,74.0977673 Z M41.8249623,63.1053093 C42.9867668,69.093071 41.8249623,72.8465932 40.3056794,73.740289 C38.7863966,74.6339848 35.3009831,73.8296586 30.9218738,69.9867668 C30.4750259,69.6292885 30.028178,69.1824406 29.5813301,68.7355927 C31.100613,67.0375707 32.7092654,65.07144 34.2285482,62.9265701 C36.9096355,62.6584614 39.4119837,62.3009831 41.6462231,61.7647656 C41.6462231,62.2116135 41.7355927,62.6584614 41.8249623,63.1053093 L41.8249623,63.1053093 Z M44.0592017,58.6368304 C43.791093,58.7262 43.4336146,58.8155696 43.1655059,58.9049392 C42.4505493,56.7600693 41.5568535,54.3470907 40.395049,51.9341121 C41.4674839,49.6105031 42.3611797,47.2868941 43.0761363,45.0526546 C43.6123538,45.2313938 44.1485713,45.410133 44.6847887,45.5888721 C47.2765065,46.4825679 49.4213763,47.6443724 50.8512896,48.8061769 C52.1024637,49.8786118 52.8174203,50.9510468 52.8174203,51.9341121 C52.8174203,53.8108732 50.0469634,56.6706997 44.0592017,58.6368304 L44.0592017,58.6368304 Z" id="Shape"></path>
                                </g>
                            </g>
                        </g>
                    </g>
                </g>
            </g>
        </g>
    </g>
</svg>