<?xml version="1.0" encoding="UTF-8" standalone="no"?>
<svg width="114px" height="114px" viewBox="0 0 114 114" version="1.1" xmlns="http://www.w3.org/2000/svg" xmlns:xlink="http://www.w3.org/1999/xlink">
    <!-- Generator: Sketch 40.3 (33839) - http://www.bohemiancoding.com/sketch -->
    <title>1475949431_react</title>
    <desc>Created with Sketch.</desc>
    <defs></defs>
    <g id="Page-1" stroke="none" stroke-width="1" fill="none" fill-rule="evenodd">
        <g id="Desktop-HD" transform="translate(-651.000000, -4226.000000)">
            <g id="Group-14" transform="translate(0.000000, 3957.000000)">
                <g id="Group-8" transform="translate(45.000000, 210.000000)">
                    <g id="1475949431_react" transform="translate(606.000000, 59.000000)">
                        <g id="Lager_1">
                            <circle id="Oval" fill="#292929" cx="57" cy="57" r="57"></circle>
                            <rect id="Rectangle-9" fill="#B7B7B7" x="0" y="0" width="114" height="114"></rect>
                            <g id="Group" transform="translate(14.000000, 40.000000)" fill="#FFFFFF">
                                <g>
                                    <path d="M73.5128172,19.9694844 C73.5134368,19.9851224 73.5140487,20.0006788 73.5146516,20.0161519 C73.7433257,25.8851068 81.7728971,22.6344361 82.4606309,22.1952855 L83.0942065,26.4683718 C82.2477274,27.126883 79.9136363,28.0703115 76.2075776,28.0703115 C70.0828287,28.0703115 67.413192,24.1803245 67.413192,18.0541713 C67.413192,11.9280181 70.8132899,8.03803103 75.5190493,8.03803103 C81.718739,8.03803103 83.6875,12.5767172 83.6875,17.2936148 L83.6875,19.9694834 L73.5128172,19.9694834 L73.5128172,19.9694844 Z M73.4698427,16.2644534 C73.5880861,14.1514516 74.0948892,12.2136714 75.7660613,12.2136714 C77.7107995,12.2136714 77.9702813,15.118406 77.8814647,16.234772 L77.9276077,16.2644534 L73.4698427,16.2644534 L73.4698427,16.2644534 Z" id="e"></path>
                                    <path d="M54.952335,10.2855451 C56.4742537,8.75032283 58.1094385,8.03803103 59.7141921,8.03803103 C65.0425855,8.03803103 66.1613219,13.0021923 66.1613219,18.148367 C66.1613219,23.5327292 63.5552771,28.0703115 58.0241681,28.0703115 C56.8905005,28.0703115 56.0070627,27.8870029 55.3952411,27.5926711 L55.3952411,33.7848491 L49.3236724,34.7896032 L49.3236724,8.35201665 L54.6441194,8.35201665 L54.9523347,10.2855445 L54.952335,10.2855451 Z M55.3681022,13.9041238 C57.0130068,12.5150218 60.0051542,11.0784246 60.0051542,17.7439879 C60.0051542,24.1209406 57.0435057,23.8633776 55.3952411,23.0726377 L55.3952411,15.3210249 C55.3952411,14.8064201 55.3851384,14.3343467 55.3681022,13.9041238 L55.3681022,13.9041238 Z" id="p"></path>
                                    <path d="M43.8154449,6.53090024 C45.6130556,6.53090024 47.0703067,5.06890842 47.0703067,3.2654501 C47.0703067,1.46199181 45.6130556,0 43.8154449,0 C42.0178345,0 40.5605834,1.46199181 40.5605834,3.2654501 C40.5605834,5.06890842 42.0178345,6.53090024 43.8154449,6.53090024 L43.8154449,6.53090024 Z M40.6857702,8.35201665 L46.9451195,8.35201665 L46.9451195,27.6935289 L40.6857702,27.6935289 L40.6857702,8.35201665 L40.6857702,8.35201665 Z" id="i"></path>
                                    <path d="M28.7304132,8.35201665 L34.0508601,8.35201665 L34.3913997,10.6767134 C34.3913997,10.6767134 35.3791381,7.40846542 39.2461199,8.28408963 L39.2461199,13.9409601 C35.7356733,13.6050119 34.8019822,15.0889546 34.8019822,15.3210249 L34.8019822,27.6935289 L28.7304132,27.6935289 L28.7304132,8.35201665 L28.7304132,8.35201665 Z" id="r"></path>
                                    <path d="M15.0007964,27.6192026 L15.0007964,22.7953537 C17.5888906,23.4106918 18.506032,23.0145303 18.506032,20.8361327 L18.506032,12.9651518 L15.3416375,12.9651518 L14.6260912,8.41334195 L18.506032,8.41334195 L18.506032,2.82587029 L23.7638854,3.70502993 L24.5150073,8.41334195 L26.3936068,8.70163222 L27.03953,12.9651518 L24.5150073,12.9651518 L24.5150073,22.1045854 C24.5803515,26.7296176 21.708386,29.0949348 15.0007964,27.6192026 L15.0007964,27.6192026 Z" id="r" transform="translate(20.832811, 15.441119) scale(-1, 1) translate(-20.832811, -15.441119) "></path>
                                    <path d="M5.93647959,22.7877491 C5.27619143,20.9608682 7.82389221,20.4278041 9.28645433,19.8425399 C13.6896376,18.0805458 13.8288315,16.6940314 14.0341463,13.9674525 C14.2394611,11.2408736 12.6609483,9.6641689 10.7697489,8.75578251 C7.83414728,7.34574576 2.14162691,8.41125691 0.992571671,9.39736793 L1.63391047,13.9674526 C7.51342005,11.4303019 8.17523615,12.9422746 8.31234238,13.471208 C8.8608919,15.5874218 2.34566706,15.6316987 0.688528662,19.0650575 C-0.188171249,20.881457 -0.32641906,23.9809811 1.47632642,25.9035664 C5.36723052,30.0531234 13.234367,27.1461399 14.2820749,26.3963097 L13.530953,21.7426999 C12.6716376,22.5919988 6.59676775,24.61463 5.93647959,22.7877491 L5.93647959,22.7877491 Z" id="s" transform="translate(7.172334, 18.080546) scale(-1, 1) translate(-7.172334, -18.080546) "></path>
                                </g>
                            </g>
                        </g>
                    </g>
                </g>
            </g>
        </g>
    </g>
</svg>