<?xml version="1.0" encoding="UTF-8" standalone="no"?>
<svg width="115px" height="116px" viewBox="0 0 115 116" version="1.1" xmlns="http://www.w3.org/2000/svg" xmlns:xlink="http://www.w3.org/1999/xlink">
    <!-- Generator: Sketch 40.3 (33839) - http://www.bohemiancoding.com/sketch -->
    <title>1475948999_angular</title>
    <desc>Created with Sketch.</desc>
    <defs></defs>
    <g id="Page-1" stroke="none" stroke-width="1" fill="none" fill-rule="evenodd">
        <g id="Desktop-HD" transform="translate(-107.000000, -4226.000000)">
            <g id="Group-14" transform="translate(0.000000, 3957.000000)">
                <g id="Group-8" transform="translate(45.000000, 210.000000)">
                    <g id="1475948999_angular" transform="translate(62.000000, 59.000000)">
                        <g id="Layer_1">
                            <polyline id="Shape" fill="#B7B7B7" points="0.0609882583 115.477477 114.892202 115.477477 114.892202 0.169487491 0.0609882583 0.169487491 0.0609882583 115.477477"></polyline>
                            <g id="1476214274_visa_payment_methods" transform="translate(14.000000, 43.000000)" fill="#FFFFFF">
                                <g id="Layer_1">
                                    <g id="Group" transform="translate(0.921260, 0.482353)">
                                        <path d="M55.0530945,0.768741176 C55.894126,0.927035294 56.7375906,1.0764 57.577,1.24443529 C58.2266299,1.37431765 59.0473858,1.39136471 59.4261339,1.84270588 C59.8308346,2.32489412 59.362063,3.0912 59.2744724,3.73087059 C59.1463307,4.67170588 58.9378976,5.6028 58.812189,6.54525882 C58.7513622,6.99254118 58.6653937,7.08264706 58.2104094,6.88782353 C56.236378,6.0444 54.1755669,5.70427059 52.0328425,5.98108235 C51.328063,6.072 50.6557244,6.26844706 50.0823307,6.70842353 C49.1537087,7.42034118 49.1042362,8.39689412 49.9639213,9.19161176 C50.7019528,9.87430588 51.6119213,10.2883059 52.4999921,10.7266588 C53.7051732,11.3192471 54.9257638,11.8826118 55.997126,12.7114235 C59.0360315,15.0614824 59.5510315,18.8532353 57.2388031,21.9403765 C55.7749055,23.8926706 53.7230157,24.8935765 51.4229528,25.4691176 C50.6200394,25.6704353 49.8025276,25.7922 48.9785276,25.8709412 C48.8438976,25.8855529 48.6800709,25.8311647 48.5949134,26.0000118 L48.3459291,26.0000118 C47.9736693,25.9034118 47.6005984,25.9034118 47.2291496,26.0000118 L46.8560787,26.0000118 C46.5251811,25.8985412 46.1934724,25.8985412 45.8617638,26.0000118 L45.6127795,26.0000118 C44.6460394,25.7142706 43.6282047,25.7345647 42.6484882,25.5121412 C41.8009685,25.3205647 40.9566929,25.1241176 40.136748,24.8343176 C39.8318031,24.7279765 39.7133937,24.5607529 39.7701654,24.2344235 C40.0378031,22.7050588 40.2965197,21.1748824 40.547126,19.6447059 C40.6298504,19.1397882 40.9096535,19.3232471 41.1699921,19.4450118 C43.0288583,20.3200941 44.976126,20.8144588 47.0320709,20.8769647 C48.1383071,20.9110588 49.2275118,20.8388118 50.2510236,20.3720471 C52.0109449,19.5692118 52.1918031,17.9497412 50.6541024,16.7937882 C49.8033386,16.1549294 48.8268661,15.7441765 47.8779685,15.2863412 C46.8504016,14.7911647 45.8739291,14.2164353 44.9647717,13.5215647 C41.4952126,10.8760235 42.0637402,7.02907059 43.9534252,4.63923529 C45.319189,2.9118 47.1804882,1.96447059 49.2534646,1.37837647 C50.0717874,1.14702353 50.9071417,1.00983529 51.7497953,0.905929412 C51.9014567,0.886447059 52.0912362,0.955447059 52.1958583,0.768741176 L52.3191339,0.768741176 C52.7327559,0.870211765 53.147189,0.870211765 53.56,0.768741176 L53.8089843,0.768741176 C54.1812441,0.866152941 54.554315,0.866152941 54.9265748,0.768741176 L55.0530945,0.768741176 L55.0530945,0.768741176 Z" id="Shape"></path>
                                        <path d="M0.0389291339,1.26554118 C3.71367717,1.26472941 7.3884252,1.23469412 11.0623622,1.27203529 C12.6908976,1.28827059 13.5651811,2.04727059 13.8928346,3.59449412 C14.6154567,7.00552941 15.3161811,10.4198118 16.0233937,13.8340941 C16.0436693,13.9331294 16.033126,14.0394706 16.0379921,14.1417529 C15.6122047,14.1320118 15.5254252,13.7667176 15.3891732,13.4842235 C14.7468425,12.1626706 13.9901575,10.9133647 13.0574803,9.77770588 C11.6341339,8.04458824 9.96666929,6.58422353 8.06076378,5.40472941 C7.65200787,5.15064706 7.29677953,4.85597647 7.02914173,4.45821176 C4.83937795,3.19429412 2.49308661,2.34275294 0.0397401575,1.76315294 C0.0389291339,1.59674118 0.0389291339,1.43195294 0.0389291339,1.26554118 L0.0389291339,1.26554118 Z" id="Shape"></path>
                                        <path d="M53.561622,0.768741176 C53.148811,0.959505882 52.7335669,0.959505882 52.3207559,0.768741176 L53.561622,0.768741176 L53.561622,0.768741176 Z" id="Shape"></path>
                                        <path d="M54.9281969,0.768741176 C54.555937,0.960317647 54.1828661,0.960317647 53.8106063,0.768741176 L54.9281969,0.768741176 L54.9281969,0.768741176 Z" id="Shape"></path>
                                        <path d="M47.2291496,26.0008235 C47.6005984,25.8084353 47.9736693,25.8084353 48.3459291,26.0008235 L47.2291496,26.0008235 L47.2291496,26.0008235 Z" id="Shape"></path>
                                        <path d="M45.8625748,26.0008235 C46.1934724,25.8149294 46.5251811,25.8149294 46.8568898,26.0008235 L45.8625748,26.0008235 L45.8625748,26.0008235 Z" id="Shape"></path>
                                        <path d="M7.02833071,4.4574 C10.9358425,6.60857647 13.9479843,9.61210588 15.8190157,13.7034 C15.8863307,13.8519529 15.965,13.9956353 16.0379921,14.1409412 C16.3015748,15.3074471 16.5643465,16.4739529 16.8384724,17.6859176 C17.0558268,17.4967765 17.0890787,17.2467529 17.1726142,17.0348824 C19.1652992,11.9499882 21.1571732,6.86590588 23.1320157,1.77532941 C23.2828661,1.38811765 23.4621024,1.23144706 23.8911339,1.23712941 C25.8562441,1.25985882 27.8221654,1.25742353 29.7864646,1.23875294 C30.2544252,1.23469412 30.3549921,1.32561176 30.1579134,1.78263529 C26.8091969,9.55203529 23.4702126,17.3263059 20.1393386,25.1038235 C19.9949764,25.4415176 19.8019528,25.5640941 19.4402362,25.5608471 C17.4329528,25.5470471 15.4264803,25.5438 13.4200079,25.5640941 C13.0031417,25.5689647 12.8498583,25.3944353 12.7468583,25.0226471 C10.8458189,18.1672941 8.93585827,11.3127529 7.02833071,4.4574 L7.02833071,4.4574 Z" id="Shape"></path>
                                        <path d="M32.2665748,25.6079294 C31.3557953,25.6079294 30.4442047,25.5884471 29.5350472,25.6160471 C29.0662756,25.6314706 28.9138031,25.5072706 28.9997717,25.0145294 C29.7150945,20.8980706 30.4093307,16.7767412 31.1116772,12.6554118 C31.7207559,9.08608235 32.3444331,5.51837647 32.9299921,1.9458 C33.0167717,1.41652941 33.1814094,1.22008235 33.7434488,1.23307059 C35.5220236,1.27122353 37.3022205,1.25823529 39.0816063,1.23875294 C39.5349685,1.23388235 39.6931181,1.31749412 39.6055276,1.82809412 C38.2786929,9.53742353 36.9688898,17.2483765 35.6704409,24.9617647 C35.5860945,25.4634353 35.4036142,25.6533882 34.8732047,25.6225412 C34.0070315,25.5714 33.1359921,25.6079294 32.2665748,25.6079294 L32.2665748,25.6079294 Z" id="Shape"></path>
                                        <path d="M81.541126,22.1384471 C80.4162362,17.0470588 79.2816142,11.9564824 78.1705118,6.86184706 C77.8128504,5.22370588 77.457622,3.58556471 77.0723858,1.95391765 C76.871252,1.10481176 76.7431102,1.01714118 75.8923465,1.01714118 C74.3408583,1.01714118 72.7885591,1.03824706 71.2378819,1.01064706 C69.559874,0.980611765 68.3798346,1.70876471 67.7131732,3.24056471 C66.607748,5.78301176 65.4698819,8.31328235 64.3571575,10.8516706 C62.8535197,14.2813765 61.3312283,17.7013412 59.8275906,21.1318588 C59.2696063,22.4006471 58.6507953,23.6442706 58.1795906,24.9479647 C57.9598031,25.5559765 58.1544488,25.8100588 58.7943465,25.8116824 C60.7602677,25.8165529 62.725378,25.8019412 64.6912992,25.8214235 C65.1584488,25.8271059 65.4131102,25.6339059 65.5874803,25.2239647 C65.9070236,24.4812 66.1925039,23.7262588 66.4544646,22.9640118 C66.6434331,22.4095765 66.9767638,22.1806588 67.5574567,22.1830941 C69.6880157,22.1960824 71.8185748,22.1814706 73.9491339,22.1912118 C74.6977087,22.1952706 74.8242283,22.3113529 74.9872441,23.0565529 C75.1413386,23.7652235 75.294622,24.4730824 75.465748,25.1760706 C75.5752362,25.6274118 75.7990787,25.8287294 76.2856929,25.8214235 C77.9823543,25.8011294 79.6790157,25.8133059 81.3748661,25.8141176 C81.6035748,25.8141176 81.8347165,25.8360353 82.0001654,25.6274118 L82.0001654,25.3790118 C81.7974094,24.3058588 81.7771339,23.2116 81.541126,22.1384471 L81.541126,22.1384471 Z M73.3984488,16.9553294 C71.9304961,16.9317882 70.4641654,16.9317882 68.9970236,16.9553294 C68.530685,16.9618235 68.4909449,16.8189529 68.6458504,16.4260588 C69.4074016,14.5054235 70.1502992,12.5782941 70.898063,10.6519765 C71.2224724,9.81261176 71.5412047,8.97162353 71.8623701,8.13144706 C71.9183307,8.14037647 71.9751024,8.14849412 72.031063,8.15661176 C72.4941575,10.2736941 72.959685,12.3899647 73.4203465,14.5070471 C73.5574094,15.1329176 73.6620315,15.7669059 73.8323465,16.3830353 C73.954,16.8189529 73.8737087,16.9626353 73.3984488,16.9553294 L73.3984488,16.9553294 Z" id="Shape"></path>
                                    </g>
                                </g>
                            </g>
                        </g>
                    </g>
                </g>
            </g>
        </g>
    </g>
</svg>