<?xml version="1.0" encoding="UTF-8" standalone="no"?>
<svg width="114px" height="114px" viewBox="0 0 114 114" version="1.1" xmlns="http://www.w3.org/2000/svg" xmlns:xlink="http://www.w3.org/1999/xlink">
    <!-- Generator: Sketch 40.3 (33839) - http://www.bohemiancoding.com/sketch -->
    <title>1475949049_nodejs</title>
    <desc>Created with Sketch.</desc>
    <defs></defs>
    <g id="Page-1" stroke="none" stroke-width="1" fill="none" fill-rule="evenodd">
        <g id="Desktop-HD" transform="translate(-288.000000, -4226.000000)">
            <g id="Group-14" transform="translate(0.000000, 3957.000000)">
                <g id="Group-8" transform="translate(45.000000, 210.000000)">
                    <g id="1475949049_nodejs" transform="translate(243.000000, 59.000000)">
                        <g id="Layer_1">
                            <polyline id="Shape" fill="#B7B7B7" points="0 114 114 114 114 0 0 0 0 114"></polyline>
                            <g id="1476214029_66-wechat" transform="translate(22.000000, 27.000000)" fill="#FFFFFF">
                                <g id="Layer_1">
                                    <g id="Group">
                                        <path d="M48.01202,20.5376409 C41.6115,20.8741318 36.0458,22.8271318 31.52716,27.2391364 C26.96176,31.6966545 24.87772,37.1588545 25.44738,43.9299591 C22.94572,43.6181273 20.66708,43.2748727 18.37542,43.0807 C17.584,43.0136273 16.64474,43.1088818 15.97442,43.4896182 C13.74926,44.7534318 11.61594,46.1802773 9.08754,47.771 C9.5515,45.6590545 9.8518,43.8096227 10.38338,42.0307864 C10.7744,40.7234318 10.59324,39.9957773 9.39666,39.1442636 C1.71332,33.6844591 -1.5253,25.5135636 0.89838,17.1014318 C3.14076,9.31930455 8.64752,4.59969545 16.12996,2.13942273 C26.34282,-1.21815909 37.82016,2.20677727 44.03028,10.3678091 C46.27322,13.3157682 47.64858,16.6244545 48.01202,20.5376409 L48.01202,20.5376409 Z M18.55476,17.91645 C18.6137,16.3778636 17.28916,14.9917409 15.7157,14.9453818 C14.10486,14.8977545 12.7799,16.1367682 12.73286,17.7343955 C12.68526,19.3535818 13.91572,20.6512136 15.53832,20.6926409 C17.14692,20.7337864 18.49526,19.4930818 18.55476,17.91645 L18.55476,17.91645 Z M33.92382,14.9443955 C32.34462,14.9737045 31.01028,16.3274182 31.03828,17.8720636 C31.06712,19.4732136 32.37612,20.7257545 33.99998,20.7061682 C35.62804,20.6864409 36.86284,19.4205136 36.84744,17.7856864 C36.83386,16.1807318 35.53074,14.9148045 33.92382,14.9443955 L33.92382,14.9443955 Z" id="Shape"></path>
                                        <path d="M62.3917,60.6989864 C60.36506,59.7906864 58.50586,58.4279545 56.52654,58.2198318 C54.55478,58.0125545 52.48208,59.1574409 50.41918,59.3697909 C44.13556,60.0168455 38.50616,58.2542136 33.86432,53.9336591 C25.03606,45.7151364 26.2976,33.1136364 36.51144,26.3786045 C45.58918,20.3927864 58.9022,22.3883409 65.3023,30.6938045 C70.8876,37.9411818 70.23114,47.5618909 63.41272,53.6502909 C61.4397,55.4123591 60.72962,56.8624545 61.99564,59.1853409 C62.2293,59.6142682 62.25604,60.1573318 62.3917,60.6989864 L62.3917,60.6989864 Z M39.32166,38.2173636 C40.6119,38.2186318 41.67436,37.2023955 41.72322,35.9197 C41.77474,34.5617591 40.6896,33.4227909 39.3386,33.4171545 C38.00104,33.4110955 36.88048,34.5659864 36.92696,35.9037773 C36.97078,37.1819636 38.04066,38.2158136 39.32166,38.2173636 L39.32166,38.2173636 Z M54.19372,33.4225091 C52.94184,33.4137727 51.87812,34.4452273 51.82702,35.7183409 C51.77284,37.0798045 52.8241,38.1977773 54.16278,38.2011591 C55.4575,38.2053864 56.48048,37.2198682 56.52752,35.9232227 C56.57778,34.5586591 55.52596,33.4318091 54.19372,33.4225091 L54.19372,33.4225091 Z" id="Shape"></path>
                                    </g>
                                </g>
                            </g>
                        </g>
                    </g>
                </g>
            </g>
        </g>
    </g>
</svg>