<?xml version="1.0" encoding="UTF-8" standalone="no"?>
<svg width="114px" height="114px" viewBox="0 0 114 114" version="1.1" xmlns="http://www.w3.org/2000/svg" xmlns:xlink="http://www.w3.org/1999/xlink">
    <!-- Generator: Sketch 40.3 (33839) - http://www.bohemiancoding.com/sketch -->
    <title>1475949431_react</title>
    <desc>Created with Sketch.</desc>
    <defs></defs>
    <g id="Page-1" stroke="none" stroke-width="1" fill="none" fill-rule="evenodd">
        <g id="Desktop-HD" transform="translate(-1147.000000, -1662.000000)">
            <g id="Group-14" transform="translate(0.000000, 1393.000000)">
                <g id="Group-8" transform="translate(45.000000, 210.000000)">
                    <g id="Group-11" transform="translate(62.000000, 59.000000)">
                        <g id="1475949431_react" transform="translate(1040.000000, 0.000000)">
                            <rect id="Rectangle-9" fill="#B7B7B7" x="0" y="0" width="114" height="114"></rect>
                            <g id="1475949960_wordpress-logo-notext-cmyk" transform="translate(30.000000, 41.000000)" fill="#FFFFFF">
                                <g id="Fixed">
                                    <g id="Group">
                                        <path d="M3.8239598,27.0434171 C3.8239598,36.161005 9.11541709,44.0574874 16.8219497,47.8022111 L5.832,17.6544724 C4.55662312,20.5308543 3.8239598,23.7057286 3.8239598,27.0434171 L3.8239598,27.0434171 Z" id="Shape"></path>
                                        <path d="M40.5656683,19.5268342 C39.3988342,17.6273367 38.313407,16.0263317 38.313407,14.1268342 C38.313407,12.0102513 39.9144121,10.0293467 42.193809,10.0293467 C42.3023518,10.0293467 42.3837588,10.0293467 42.4923015,10.0564824 C38.3948141,6.31175879 32.913407,4.00522613 26.9164221,4.00522613 C18.8571256,4.00522613 11.7747136,8.12984925 7.65009045,14.398191 C8.19280402,14.4253266 8.70838191,14.4253266 9.14255276,14.4253266 C11.5304925,14.398191 15.2480804,14.1268342 15.2480804,14.1268342 C16.4963216,14.0454271 16.632,15.8906533 15.3837588,16.0263317 C15.3837588,16.0263317 14.1355176,16.1620101 12.751598,16.2434171 L21.1365226,41.2082412 L26.1837588,26.0665327 L22.6018492,16.2162814 C21.353608,16.1348744 20.1867739,15.999196 20.1867739,15.999196 C18.9385327,15.9177889 19.1013467,14.0182915 20.3224523,14.0996985 C20.3224523,14.0996985 24.1214472,14.398191 26.4008442,14.398191 C28.8159196,14.398191 32.5335075,14.0996985 32.5335075,14.0996985 C33.7817487,14.0182915 33.9174271,15.8635176 32.6691859,15.999196 C32.6691859,15.999196 31.4209447,16.1348744 30.0370251,16.2162814 L38.3676784,40.9911558 L40.6742111,33.3117588 C41.7053668,30.1368844 42.4651658,27.8574874 42.4651658,25.8765829 C42.4651658,23.0273367 41.4340101,21.0464322 40.5656683,19.5268342 Z" id="Shape"></path>
                                        <path d="M27.2963216,29.0514573 L20.3767236,49.158995 C22.4390352,49.7559799 24.6370251,50.1087437 26.8892864,50.1087437 C29.5757186,50.1087437 32.153608,49.6474372 34.5415477,48.8062312 C34.4872764,48.6976884 34.433005,48.5891457 34.3787337,48.480603 L27.2963216,29.0514573 L27.2963216,29.0514573 Z" id="Shape"></path>
                                        <path d="M47.1325025,15.9720603 C47.2410452,16.7047236 47.2953166,17.4916583 47.2953166,18.3328643 C47.2953166,20.6665327 46.8611457,23.2986935 45.5314975,26.5821106 L38.4762211,46.9338693 C45.3415477,42.9449246 49.9274774,35.5097487 49.9274774,27.0162814 C49.9546131,23.0273367 48.9234573,19.2554774 47.1325025,15.9720603 L47.1325025,15.9720603 Z" id="Shape"></path>
                                        <path d="M26.8892864,0.179095477 C12.073206,0.179095477 0.0249648241,12.2273367 0.0249648241,27.0434171 C0.0249648241,41.8594975 12.073206,53.9077387 26.8892864,53.9077387 C41.7053668,53.9077387 53.753608,41.8594975 53.753608,27.0434171 C53.7807437,12.2273367 41.7053668,0.179095477 26.8892864,0.179095477 L26.8892864,0.179095477 Z M1.24607035,27.0434171 C1.24607035,12.9057286 12.751598,1.40020101 26.8892864,1.40020101 C41.0269749,1.40020101 52.5325025,12.9057286 52.5325025,27.0434171 C52.5325025,41.1811055 41.0269749,52.6866332 26.8892864,52.6866332 C12.751598,52.6866332 1.24607035,41.1811055 1.24607035,27.0434171 Z" id="Shape"></path>
                                    </g>
                                </g>
                            </g>
                            <text id="wordpress" font-family="AvenirNext-DemiBold, Avenir Next" font-size="18" font-weight="500" fill="#FFFFFF">
                                <tspan x="11.161" y="30">wordpress</tspan>
                            </text>
                        </g>
                    </g>
                </g>
            </g>
        </g>
    </g>
</svg>