<svg width="346" height="283" viewBox="0 0 380 300" xmlns="http://www.w3.org/2000/svg" xmlns:xlink="http://www.w3.org/1999/xlink">
  <title>Cross-platforms-illustration-ecommerce</title>
  <defs>
    <linearGradient x1="100%" y1="0%" x2="0%" y2="100%" id="c">
      <stop stop-color="#00AEFF" offset="0%" />
      <stop stop-color="#3369E6" offset="100%" />
    </linearGradient>
    <rect id="b" x=".226" y=".165" width="148.774" height="153.232" rx="9" />
    <filter x="-50%" y="-50%" width="200%" height="200%" filterUnits="objectBoundingBox" id="a">
      <feOffset dy="4" in="SourceAlpha" result="shadowOffsetOuter1" />
      <feGaussianBlur stdDeviation="5.5" in="shadowOffsetOuter1" result="shadowBlurOuter1" />
      <feComposite in="shadowBlurOuter1" in2="SourceAlpha" operator="out" result="shadowBlurOuter1" />
      <feColorMatrix values="0 0 0 0 0.02 0 0 0 0 0.111764706 0 0 0 0 0.901960784 0 0 0 0.5 0" in="shadowBlurOuter1" />
    </filter>
    <linearGradient x1="100%" y1="0%" x2="0%" y2="100%" id="f">
      <stop stop-color="#FE6C5F" offset="0%" />
      <stop stop-color="#FFC168" offset="100%" />
    </linearGradient>
    <rect id="e" x="203.406" y="47.082" width="148.774" height="153.232" rx="9" />
    <filter x="-50%" y="-50%" width="200%" height="200%" filterUnits="objectBoundingBox" id="d">
      <feOffset dy="4" in="SourceAlpha" result="shadowOffsetOuter1" />
      <feGaussianBlur stdDeviation="5.5" in="shadowOffsetOuter1" result="shadowBlurOuter1" />
      <feComposite in="shadowBlurOuter1" in2="SourceAlpha" operator="out" result="shadowBlurOuter1" />
      <feColorMatrix values="0 0 0 0 0.996078431 0 0 0 0 0.223529412 0 0 0 0 0.157254902 0 0 0 0.5 0" in="shadowBlurOuter1" />
    </filter>
    <rect id="h" x="92.239" y="130.291" width="148.774" height="153.232" rx="9" />
    <filter x="-50%" y="-50%" width="200%" height="200%" filterUnits="objectBoundingBox" id="g">
      <feOffset dy="4" in="SourceAlpha" result="shadowOffsetOuter1" />
      <feGaussianBlur stdDeviation="5.5" in="shadowOffsetOuter1" result="shadowBlurOuter1" />
      <feComposite in="shadowBlurOuter1" in2="SourceAlpha" operator="out" result="shadowBlurOuter1" />
      <feColorMatrix values="0 0 0 0 0.996078431 0 0 0 0 0.223529412 0 0 0 0 0.157254902 0 0 0 0.5 0" in="shadowBlurOuter1" />
    </filter>
  </defs>
  <g fill="none" fill-rule="evenodd">
    <g transform="translate(11 7)">
      <use fill="#000" filter="url(#a)" xlink:href="#b" />
      <use fill-opacity=".95" fill="url(#c)" xlink:href="#b" />
    </g>
    <g transform="translate(11 7)">
      <use fill="#000" filter="url(#d)" xlink:href="#e" />
      <use fill-opacity=".9" fill="url(#f)" xlink:href="#e" />
    </g>
    <g transform="translate(11 7)">
      <use fill="#000" filter="url(#g)" xlink:href="#h" />
      <use fill-opacity=".9" fill="url(#f)" xlink:href="#h" />
    </g>
    <path d="M299.528 101.527h.396c.32 4.052-1.183 7.08-3.007 9.272-1.79 2.176-4.243 4.287-8.21 3.967-.264-3.994 1.24-6.797 3.063-8.984 1.69-2.038 4.788-3.853 7.758-4.256zm12.005 42.174v.114c-1.115 3.478-2.704 6.457-4.645 9.223-1.77 2.51-3.94 5.887-7.816 5.887-3.35 0-5.573-2.217-9.005-2.278-3.63-.06-5.627 1.854-8.945 2.337h-1.132c-2.438-.363-4.405-2.352-5.838-4.143-4.225-5.294-7.49-12.13-8.1-20.88v-2.57c.26-6.263 3.213-11.355 7.14-13.82 2.072-1.314 4.92-2.43 8.094-1.933 1.36.218 2.748.696 3.965 1.17 1.155.457 2.598 1.268 3.965 1.226.925-.03 1.847-.525 2.78-.875 2.734-1.018 5.414-2.183 8.946-1.636 4.246.66 7.26 2.604 9.12 5.6-3.59 2.356-6.43 5.902-5.944 11.96.43 5.502 3.536 8.722 7.417 10.62zM85.937 61.305c-15.345 0-27.794 12.414-27.794 27.746 0 15.332 12.45 27.716 27.794 27.716 15.345 0 27.794-12.414 27.794-27.745 0-15.33-12.42-27.715-27.793-27.715zm0 47.275c-10.807 0-19.584-8.753-19.584-19.53 0-10.776 8.777-19.53 19.584-19.53s19.584 8.754 19.584 19.53c0 10.777-8.746 19.53-19.583 19.53zm0-35.07V88.07c0 .417.448.715.836.506l12.956-6.698c.298-.15.387-.506.238-.804-2.687-4.703-7.672-7.92-13.434-8.127-.3 0-.597.238-.597.566zm-18.15-10.687l-1.703-1.697c-1.672-1.667-4.36-1.667-6.03 0l-2.03 2.025c-1.672 1.668-1.672 4.347 0 6.014l1.67 1.667c.27.27.658.21.897-.058.986-1.34 2.06-2.62 3.255-3.81 1.224-1.22 2.478-2.293 3.85-3.275.3-.18.33-.596.09-.864zm27.255-4.406v-3.364c0-2.352-1.91-4.257-4.27-4.257h-9.94c-2.36 0-4.27 1.905-4.27 4.257v3.454c0 .387.36.654.747.565 2.775-.804 5.7-1.22 8.657-1.22 2.836 0 5.642.387 8.36 1.13.357.09.715-.178.715-.565z" fill="#FFF" />
    <path d="M260.38 57.243c1.317 0 2.383-1.067 2.383-2.382 0-1.314-1.066-2.38-2.382-2.38-1.314 0-2.38 1.066-2.38 2.38 0 1.316 1.066 2.383 2.38 2.383zm8.62-.362c1.315 0 2.38-1.065 2.38-2.38s-1.065-2.38-2.38-2.38-2.38 1.065-2.38 2.38 1.065 2.38 2.38 2.38zm-109-27.5c1.315 0 2.38-1.065 2.38-2.38s-1.065-2.38-2.38-2.38-2.38 1.065-2.38 2.38 1.065 2.38 2.38 2.38zm0-6.212c1.315 0 2.38-1.066 2.38-2.38 0-1.317-1.065-2.383-2.38-2.383s-2.38 1.066-2.38 2.382c0 1.315 1.065 2.38 2.38 2.38zm43.5 117.35c1.315 0 2.38-1.067 2.38-2.382 0-1.315-1.065-2.382-2.38-2.382s-2.38 1.067-2.38 2.382c0 1.315 1.065 2.38 2.38 2.38zm-9.88 0c1.314 0 2.38-1.067 2.38-2.382 0-1.315-1.066-2.382-2.38-2.382-1.317 0-2.383 1.067-2.383 2.382 0 1.315 1.066 2.38 2.382 2.38zM160 120.18c1.315 0 2.38-1.066 2.38-2.38 0-1.316-1.065-2.382-2.38-2.382s-2.38 1.066-2.38 2.38c0 1.316 1.065 2.383 2.38 2.383zm0-7.917c1.315 0 2.38-1.067 2.38-2.382 0-1.314-1.065-2.38-2.38-2.38s-2.38 1.066-2.38 2.38c0 1.316 1.065 2.383 2.38 2.383zm0-7.918c1.315 0 2.38-1.067 2.38-2.382 0-1.315-1.065-2.38-2.38-2.38s-2.38 1.065-2.38 2.38 1.065 2.382 2.38 2.382zm54.267-11.2c1.316 0 2.382-1.065 2.382-2.38 0-1.316-1.067-2.382-2.383-2.382-1.315 0-2.38 1.066-2.38 2.382 0 1.315 1.065 2.38 2.38 2.38zm0-11.89c1.316 0 2.382-1.065 2.382-2.38s-1.067-2.38-2.383-2.38c-1.315 0-2.38 1.065-2.38 2.38s1.065 2.38 2.38 2.38zM160 127.97c1.315 0 2.38-1.067 2.38-2.382 0-1.315-1.065-2.38-2.38-2.38s-2.38 1.065-2.38 2.38 1.065 2.382 2.38 2.382zM54.436 163.06c1.315 0 2.38-1.066 2.38-2.38 0-1.316-1.065-2.383-2.38-2.383-1.316 0-2.382 1.067-2.382 2.382 0 1.314 1.066 2.38 2.382 2.38zm8.154 0c1.315 0 2.38-1.066 2.38-2.38 0-1.316-1.065-2.383-2.38-2.383s-2.382 1.067-2.382 2.382c0 1.314 1.067 2.38 2.382 2.38zm8.154 0c1.315 0 2.382-1.066 2.382-2.38 0-1.316-1.067-2.383-2.382-2.383-1.315 0-2.38 1.067-2.38 2.382 0 1.314 1.065 2.38 2.38 2.38zm32.925 53.817c1.314 0 2.38-1.066 2.38-2.382 0-1.315-1.066-2.38-2.38-2.38-1.316 0-2.383 1.065-2.383 2.38 0 1.316 1.067 2.382 2.382 2.382zm0 10.038c1.314 0 2.38-1.066 2.38-2.38 0-1.316-1.066-2.382-2.38-2.382-1.316 0-2.383 1.066-2.383 2.38 0 1.316 1.067 2.382 2.382 2.382zm0 12.47c1.314 0 2.38-1.067 2.38-2.383 0-1.315-1.066-2.38-2.38-2.38-1.316 0-2.383 1.065-2.383 2.38 0 1.316 1.067 2.382 2.382 2.382zM242.33 57.242c1.316 0 2.382-1.067 2.382-2.382 0-1.314-1.066-2.38-2.38-2.38-1.317 0-2.383 1.066-2.383 2.38 0 1.316 1.065 2.383 2.38 2.383zm8.62-.362c1.314 0 2.38-1.065 2.38-2.38s-1.066-2.38-2.38-2.38c-1.316 0-2.382 1.065-2.382 2.38s1.066 2.38 2.38 2.38z" fill-opacity=".1" fill="#FFF" />
    <path d="M161.18 102.5c-.205.447-.656.758-1.18.758-.715 0-1.295-.58-1.295-1.295s.58-1.295 1.295-1.295c.552 0 1.023.346 1.21.832h29.6l22.225-22.226c-.04-.126-.063-.26-.063-.4 0-.714.58-1.294 1.295-1.294.716 0 1.296.58 1.296 1.295s-.58 1.295-1.296 1.295c-.207 0-.404-.05-.578-.136L191.222 102.5H161.18zM63 161.908c.514-.172.885-.657.885-1.23 0-.714-.58-1.294-1.295-1.294s-1.295.58-1.295 1.295c0 .502.286.937.705 1.152v21.962l40.415 40.415c-.027.103-.04.212-.04.324 0 .715.58 1.295 1.294 1.295.714 0 1.294-.58 1.294-1.296 0-.715-.58-1.295-1.295-1.295-.234 0-.453.06-.642.168L63 183.38v-21.472zM223.244 27.5h-7.586l26.145 26.146-.06.06c.176-.09.376-.14.588-.14.716 0 1.296.58 1.296 1.295 0 .716-.58 1.296-1.295 1.296s-1.294-.58-1.294-1.295c0-.21.05-.41.14-.588l-.08.082L214.244 27.5h-53.05c-.196.467-.657.795-1.195.795-.715 0-1.295-.58-1.295-1.295s.58-1.295 1.295-1.295c.538 0 1 .328 1.195.795h61.05l-5-5H161.08c-.23.35-.628.582-1.08.582-.715 0-1.295-.58-1.295-1.295 0-.716.58-1.295 1.295-1.295.54 0 1.002.33 1.196.798l74.513.21 32.8 32.8c.15-.06.316-.095.49-.095.715 0 1.295.58 1.295 1.295s-.58 1.295-1.295 1.295-1.295-.58-1.295-1.295c0-.174.034-.34.096-.49L235.295 21.5l-16.684-.048 5.048 5.048h9.05l27.146 27.146-.06.06c.175-.09.375-.14.587-.14.717 0 1.297.58 1.297 1.295 0 .716-.58 1.296-1.296 1.296-.714 0-1.294-.58-1.294-1.295 0-.21.05-.41.142-.588l-.082.082-26.85-26.854h-7.638l25.8 25.8c.15-.06.317-.095.49-.095.716 0 1.296.58 1.296 1.295s-.58 1.295-1.295 1.295c-.716 0-1.296-.58-1.296-1.295 0-.174.034-.34.097-.49L223.245 27.5zm-62.106 83c-.22.403-.647.676-1.138.676-.715 0-1.295-.58-1.295-1.295 0-.714.58-1.294 1.295-1.294.583 0 1.075.385 1.238.914h33.587l18.244-18.244c-.063-.15-.098-.317-.098-.49 0-.717.58-1.296 1.295-1.296.716 0 1.296.58 1.296 1.295s-.58 1.295-1.296 1.295c-.173 0-.34-.035-.49-.097L195.238 110.5h-34.102zM55 161.845c.432-.21.73-.653.73-1.166 0-.716-.58-1.296-1.294-1.296-.716 0-1.295.58-1.295 1.295 0 .56.36 1.04.86 1.22v26.312l48.426 48.426c-.034.115-.052.238-.052.364 0 .716.58 1.295 1.295 1.295.714 0 1.294-.58 1.294-1.295s-.58-1.295-1.295-1.295c-.22 0-.428.055-.61.15L55 187.798v-25.952zm16.244.03c.467-.197.795-.658.795-1.196 0-.716-.58-1.296-1.296-1.296-.715 0-1.295.58-1.295 1.295 0 .537.327.998.794 1.194v20.187l32.16 32.16c-.02.09-.03.18-.03.275 0 .716.58 1.295 1.295 1.295.714 0 1.294-.58 1.294-1.295s-.58-1.295-1.295-1.295c-.25 0-.483.07-.68.193l-31.746-31.746v-19.773zm121.8-24.9c.174-.086.37-.134.575-.134.714 0 1.294.58 1.294 1.296 0 .715-.58 1.295-1.295 1.295-.717 0-1.297-.58-1.297-1.294 0-.14.023-.278.065-.405l-11.596-11.595-19.598-.046c-.196.464-.657.79-1.194.79-.715 0-1.295-.58-1.295-1.294 0-.715.58-1.295 1.295-1.295.54 0 1 .33 1.196.8l20.012.046 11.837 11.838zm9.965-.038c.15-.062.316-.096.49-.096.715 0 1.295.58 1.295 1.296 0 .715-.58 1.295-1.295 1.295s-1.295-.58-1.295-1.294c0-.174.034-.34.096-.492l-19.008-19.01-22.104-.318c-.2.458-.657.778-1.188.778-.715 0-1.295-.58-1.295-1.295 0-.716.58-1.296 1.295-1.296.545 0 1.01.336 1.202.812l22.51.323 19.297 19.297z" fill="#FFF" opacity=".3" />
    <path d="M160.323 205.922h34.62c.604 0 .604 0 .604.63v26.202c0 2.07-1.397 3.78-3.402 4.016-1.113.13-2.25.098-3.373.092-.438-.003-.543.143-.54.575.015 2.892-.015 5.782.013 8.673.027 2.532-1.963 4.403-4.456 4.164-1.708-.164-3.32-1.766-3.396-3.51-.093-2.18-.076-4.364-.1-6.548-.012-.95-.016-1.897.005-2.846.006-.368-.09-.51-.472-.504-1.47.02-2.94.02-4.412 0-.386-.006-.465.148-.464.51.012 2.92.028 5.844-.002 8.765-.017 1.674-.742 2.98-2.22 3.718-1.487.744-2.932.567-4.246-.484-.973-.778-1.454-1.836-1.464-3.084-.025-2.952-.017-5.905 0-8.857.003-.44-.11-.586-.546-.57-.89.034-1.782.012-2.674.01-2.324-.003-4.097-1.832-4.097-4.23V206.58c0-.658 0-.658.62-.658zm8.313-16.252l-1.268-2.4c-.473-.895-.956-1.786-1.415-2.69-.22-.432-.09-.837.276-1.018.31-.155.668-.008.877.384.87 1.626 1.73 3.256 2.593 4.884.043.08.09.158.124.22 1.028-.33 2.023-.723 3.052-.96 1.104-.253 2.235-.376 3.358-.527 2.05-.272 4.07.016 6.063.476.916.21 1.81.556 2.694.89.327.12.493.064.646-.228.427-.816.866-1.626 1.296-2.44.41-.778.812-1.555 1.218-2.333.204-.395.554-.524.928-.344.302.145.43.524.252.905-.3.644-.636 1.273-.965 1.903-.498.95-.993 1.904-1.512 2.842-.188.34-.08.51.2.696.89.597 1.797 1.17 2.643 1.826 1.664 1.288 2.953 2.923 3.98 4.783.903 1.63 1.485 3.378 1.75 5.227.113.78.098 1.58.107 2.37 0 .11-.184.244-.307.32-.076.048-.202.01-.306.01h-34.486c-.643 0-.635 0-.644-.636-.047-3.49 1.112-6.548 3.15-9.29 1.48-1.994 3.36-3.492 5.463-4.72.064-.036.124-.08.233-.15zm-10.345 28.174v8.72c0 1.828-1.366 3.442-3.115 3.807-2.22.46-4.276-.983-4.688-3.116-.08-.417-.136-.844-.137-1.266-.01-5.446-.017-10.894 0-16.34.006-1.607.516-2.968 1.927-3.873 1.277-.82 3.186-.776 4.39.16 1.09.847 1.636 1.953 1.628 3.37-.015 2.846-.004 5.692-.004 8.54zm46.617-.018c0 2.768.01 5.538-.005 8.308-.007 1.246-.378 2.342-1.287 3.24-1.297 1.28-3.584 1.452-5.028.33-1.09-.846-1.63-1.968-1.628-3.374v-17.163c0-1.66.97-3.068 2.572-3.748 1.307-.553 3.07-.16 4.12.887.86.858 1.238 1.923 1.247 3.12.022 2.8.007 5.6.007 8.4zM169.5 198c.828 0 1.5-.672 1.5-1.5s-.672-1.5-1.5-1.5-1.5.672-1.5 1.5.672 1.5 1.5 1.5zm16 0c.828 0 1.5-.672 1.5-1.5s-.672-1.5-1.5-1.5-1.5.672-1.5 1.5.672 1.5 1.5 1.5z" fill="#F8FAFF" />
  </g>
</svg>
