<svg xmlns="http://www.w3.org/2000/svg" width="374" height="306" viewBox="0 0 374 306" xmlns:xlink="http://www.w3.org/1999/xlink">
  <defs>
    <linearGradient id="caa" x1="100%" x2="0%" y1="0%" y2="100%">
      <stop stop-color="#00AEFF" offset="0%"/>
      <stop stop-color="#3369E6" offset="100%"/>
    </linearGradient>
    <rect id="baa" width="148.774" height="153.232" x=".226" y=".165" rx="9"/>
    <filter id="aaa" width="200%" height="200%" x="-50%" y="-50%" filterUnits="objectBoundingBox">
      <feOffset dy="4" in="SourceAlpha" result="shadowOffsetOuter1"/>
      <feGaussianBlur stdDeviation="5.5" in="shadowOffsetOuter1" result="shadowBlurOuter1"/>
      <feComposite in="shadowBlurOuter1" in2="SourceAlpha" operator="out" result="shadowBlurOuter1"/>
      <feColorMatrix values="0 0 0 0 0.2 0 0 0 0 0.411764706 0 0 0 0 0.901960784 0 0 0 0.5 0" in="shadowBlurOuter1"/>
    </filter>
    <linearGradient id="faa" x1="100%" x2="0%" y1="0%" y2="100%">
      <stop stop-color="#2CDD97" offset="0%"/>
      <stop stop-color="#1DC5CE" offset="100%"/>
    </linearGradient>
    <rect id="eaa" width="148.774" height="153.232" x="203.406" y="47.082" rx="9"/>
    <filter id="daa" width="200%" height="200%" x="-50%" y="-50%" filterUnits="objectBoundingBox">
      <feOffset dy="4" in="SourceAlpha" result="shadowOffsetOuter1"/>
      <feGaussianBlur stdDeviation="5.5" in="shadowOffsetOuter1" result="shadowBlurOuter1"/>
      <feComposite in="shadowBlurOuter1" in2="SourceAlpha" operator="out" result="shadowBlurOuter1"/>
      <feColorMatrix values="0 0 0 0 0 0 0 0 0 0.698039216 0 0 0 0 0.670588235 0 0 0 0.5 0" in="shadowBlurOuter1"/>
    </filter>
    <rect id="haa" width="148.774" height="153.232" x="92.239" y="130.291" rx="9"/>
    <filter id="gaa" width="200%" height="200%" x="-50%" y="-50%" filterUnits="objectBoundingBox">
      <feOffset dy="4" in="SourceAlpha" result="shadowOffsetOuter1"/>
      <feGaussianBlur stdDeviation="5.5" in="shadowOffsetOuter1" result="shadowBlurOuter1"/>
      <feComposite in="shadowBlurOuter1" in2="SourceAlpha" operator="out" result="shadowBlurOuter1"/>
      <feColorMatrix values="0 0 0 0 0 0 0 0 0 0.698039216 0 0 0 0 0.670588235 0 0 0 0.5 0" in="shadowBlurOuter1"/>
    </filter>
  </defs>
  <g fill="none" fill-rule="evenodd" transform="translate(11 7)">
    <use fill="black" filter="url(#aaa)" xlink:href="#baa"/>
    <use fill="url(#caa)" fill-opacity=".95" xlink:href="#baa"/>
    <use fill="black" filter="url(#daa)" xlink:href="#eaa"/>
    <use fill="url(#faa)" fill-opacity=".9" xlink:href="#eaa"/>
    <use fill="black" filter="url(#gaa)" xlink:href="#haa"/>
    <use fill="url(#faa)" fill-opacity=".9" xlink:href="#haa"/>
    <path fill="#FFFFFF" d="M288.528095 94.5271818L288.923909 94.5271818C289.243698 98.5790671 287.741295 101.605552 285.916689 103.799287 284.125873 105.975622 281.673758 108.087326 277.707172 107.766655 277.442893 103.773186 278.94771 100.970425 280.769902 98.7829043 282.460558 96.7445325 285.558285 94.9298845 288.528095 94.5271818zM300.533082 136.701093L300.533082 136.814198C299.418045 140.291859 297.828756 143.271114 295.888303 146.036588 294.118001 148.546022 291.947058 151.92425 288.072185 151.92425 284.723455 151.92425 282.499416 149.7069 279.06742 149.645997 275.437517 149.585095 273.440346 151.500418 270.121785 151.982667L268.989854 151.982667C266.552219 151.619738 264.585218 149.631082 263.151599 147.840049 258.926769 142.546497 255.661304 135.709252 255.053102 126.959168L255.053102 124.388831C255.311347 118.127052 258.26547 113.034852 262.192233 110.568919 264.264222 109.256406 267.113358 108.139031 270.285903 108.637437 271.64591 108.854947 273.033672 109.333467 274.251282 109.808258 275.404935 110.264406 276.848207 111.074783 278.215454 111.032524 279.139825 111.003937 280.061781 110.508016 280.995806 110.157516 283.729093 109.139573 286.409284 107.974967 289.94144 108.521847 294.185579 109.181832 297.198833 111.125742 299.060847 114.122398 295.46956 116.477711 292.630079 120.023732 293.116399 126.081674 293.547208 131.584035 296.652175 134.804413 300.533082 136.701093zM149.323366 195.921787L183.943942 195.921787C184.546902 195.921787 184.546902 195.921787 184.546902 196.550675L184.546902 222.754361C184.546902 224.823142 183.150172 226.532932 181.145395 226.770075 180.032336 226.901094 178.89638 226.868339 177.771873 226.861788 177.334282 226.859168 177.2287 227.004598 177.231244 227.436959 177.246509 230.328536 177.217252 233.218802 177.245237 236.110379 177.271951 238.641655 175.282438 240.512598 172.789186 240.274145 171.082072 240.110372 169.469091 238.508016 169.394039 236.765471 169.301178 234.585325 169.317715 232.399937 169.293546 230.21586 169.282097 229.267287 169.278281 228.318713 169.298634 227.37014 169.306267 227.001978 169.20959 226.860478 168.82797 226.865719 167.358732 226.886682 165.888223 226.886682 164.416441 226.865719 164.029733 226.860478 163.950864 227.01377 163.952137 227.375381 163.963585 230.297091 163.980122 233.220113 163.949592 236.140513 163.933056 237.813619 163.207977 239.118562 161.729835 239.857506 160.242789 240.601691 158.797721 240.424816 157.483676 239.374048 156.510544 238.595799 156.029703 237.53848 156.019526 236.289874 155.995357 233.338029 156.00299 230.384874 156.020799 227.433029 156.023343 226.994117 155.908857 226.847376 155.47381 226.864409 154.583363 226.897163 153.691644 226.87489 152.799925 226.87358 150.475858 226.869649 148.702597 225.040632 148.702597 222.644305L148.702597 196.579499C148.702597 195.921787 148.702597 195.921787 149.323366 195.921787zM157.636069 179.67013C157.19975 178.843404 156.783784 178.057294 156.367818 177.271183 155.894609 176.375017 155.412496 175.484092 154.95328 174.581375 154.733212 174.147704 154.861691 173.742857 155.229318 173.562051 155.539703 173.40745 155.898426 173.55419 156.107045 173.945935 156.975866 175.571874 157.837056 177.201743 158.699517 178.830302 158.742768 178.910223 158.788562 178.987524 158.82418 179.049103 159.85201 178.720247 160.846766 178.327191 161.875869 178.091358 162.980023 177.837183 164.110891 177.714025 165.234126 177.563354 167.284698 177.290836 169.303468 177.579076 171.296797 178.038951 172.212686 178.251201 173.105677 178.595779 173.991035 178.928566 174.316684 179.050413 174.483325 178.994075 174.635973 178.701904 175.063388 177.885659 175.502251 177.075966 175.93221 176.261031 176.341815 175.484092 176.743788 174.707152 177.149578 173.928903 177.354381 173.534537 177.704199 173.406139 178.078187 173.585635 178.379667 173.731065 178.509417 174.109708 178.330056 174.490972 178.028576 175.134272 177.694022 175.763161 177.364557 176.393359 176.867179 177.343243 176.372345 178.297057 175.853341 179.235149 175.665075 179.574487 175.774473 179.744811 176.053056 179.930857 176.942231 180.526991 177.850487 181.099541 178.696411 181.755944 180.360275 183.043855 181.648879 184.678965 182.676709 186.539426 183.578605 188.170606 184.161211 189.918392 184.427073 191.767062 184.539015 192.546621 184.52375 193.347144 184.532655 194.138495 184.533927 194.24724 184.349477 194.380879 184.226087 194.45818 184.149763 194.505347 184.023828 194.467351 183.919519 194.467351L149.433781 194.467351C148.791387 194.467351 148.799019 194.467351 148.790115 193.830602 148.743049 190.338961 149.901902 187.282301 151.939753 184.540085 153.420439 182.545985 155.300554 181.048444 157.403281 179.820802 157.466884 179.784116 157.526671 179.74088 157.636069 179.67013zM147.291111 207.84394L147.291111 216.563216C147.289839 218.392233 145.923639 220.00638 144.174547 220.370611 141.95479 220.829176 139.89913 219.386663 139.48698 217.253683 139.40684 216.837044 139.350869 216.409924 139.349597 215.988045 139.340692 210.541609 139.33306 205.093863 139.350869 199.647427 139.355957 198.041141 139.866056 196.67986 141.276778 195.774522 142.553934 194.955657 144.463306 194.998893 145.667954 195.934365 146.756843 196.782054 147.30256 197.887849 147.294927 199.305469 147.279663 202.151189 147.291111 204.996909 147.291111 207.84394zM193.906644 207.82599C193.906644 210.594409 193.918093 213.364139 193.901556 216.133869 193.895196 217.379854 193.523752 218.476478 192.615496 219.372644 191.317988 220.654004 189.030811 220.825638 187.587015 219.704121 186.496854 218.857742 185.957497 217.736224 185.958769 216.330396 185.961313 210.610132 185.958769 204.888557 185.960041 199.166982 185.960041 197.505669 186.929356 196.098531 188.532161 195.418545 189.838574 194.866958 191.601659 195.260013 192.652386 196.30685 193.512303 197.165021 193.890107 198.230201 193.899012 199.427709 193.921909 202.227573 193.906644 205.026126 193.906644 207.82599zM74.9367355 54.3049077C59.5919347 54.3049077 47.1429426 66.7190041 47.1429426 82.0505621 47.1429426 97.38212 59.5919347 109.766446 74.9367355 109.766446 90.2815363 109.766446 102.730528 97.35235 102.730528 82.0207921 102.730528 66.6892341 90.31139 54.3049077 74.9367355 54.3049077zM74.9367355 101.579692C64.1296968 101.579692 55.3527096 92.8273077 55.3527096 82.0505621 55.3527096 71.2738165 64.1296968 62.5214319 74.9367355 62.5214319 85.7437742 62.5214319 94.5207614 71.2738165 94.5207614 82.0505621 94.5207614 92.8273077 85.7736279 101.579692 74.9367355 101.579692zM74.9367355 66.510614L74.9367355 81.0681516C74.9367355 81.4849318 75.3845409 81.7826319 75.772639 81.5742418L88.729144 74.8759884C89.0276809 74.7271383 89.117242 74.3698981 88.9679736 74.0721979 86.2811407 69.3685355 81.2955732 66.1533738 75.5338094 65.9449837 75.2352725 65.9449837 74.9367355 66.1831438 74.9367355 66.510614zM56.7856871 55.8231785L55.0840263 54.1262876C53.4122192 52.4591667 50.7253864 52.4591667 49.0535793 54.1262876L47.0235278 56.1506486C45.3517207 57.8177695 45.3517207 60.4970709 47.0235278 62.1641918L48.6953349 63.8313126C48.9640182 64.0992428 49.3521163 64.0397027 49.5909459 63.7717726 50.5761179 62.4321219 51.650851 61.1520112 52.8449989 59.9612106 54.0690006 58.74064 55.3228559 57.6689194 56.696126 56.6865089 56.994663 56.5078888 57.0245167 56.0911086 56.7856871 55.8231785zM84.0421134 51.4172162L84.0421134 48.0532044C84.0421134 45.7013732 82.1314767 43.7960922 79.7730346 43.7960922L69.8317531 43.7960922C67.473311 43.7960922 65.5626743 45.7013732 65.5626743 48.0532044L65.5626743 51.5065262C65.5626743 51.8935364 65.9209187 52.1614666 66.3090167 52.0721565 69.0854107 51.2683661 72.0110731 50.8515859 74.9665892 50.8515859 77.8026905 50.8515859 80.6089381 51.2385961 83.3256246 51.9828465 83.683869 52.0721565 84.0421134 51.8042264 84.0421134 51.4172162z"/>
    <path fill="#F8FAFF" fill-opacity=".5" d="M249.38147,50.2425537 C250.696719,50.2425537 251.762939,49.1763334 251.762939,47.861084 C251.762939,46.5458346 250.696719,45.4796143 249.38147,45.4796143 C248.06622,45.4796143 247,46.5458346 247,47.861084 C247,49.1763334 248.06622,50.2425537 249.38147,50.2425537 Z M258,49.8814697 C259.315249,49.8814697 260.38147,48.8152494 260.38147,47.5 C260.38147,46.1847506 259.315249,45.1185303 258,45.1185303 C256.684751,45.1185303 255.61853,46.1847506 255.61853,47.5 C255.61853,48.8152494 256.684751,49.8814697 258,49.8814697 Z M149,22.3814697 C150.315249,22.3814697 151.38147,21.3152494 151.38147,20 C151.38147,18.6847506 150.315249,17.6185303 149,17.6185303 C147.684751,17.6185303 146.61853,18.6847506 146.61853,20 C146.61853,21.3152494 147.684751,22.3814697 149,22.3814697 Z M149,16.1680908 C150.315249,16.1680908 151.38147,15.1018705 151.38147,13.7866211 C151.38147,12.4713717 150.315249,11.4051514 149,11.4051514 C147.684751,11.4051514 146.61853,12.4713717 146.61853,13.7866211 C146.61853,15.1018705 147.684751,16.1680908 149,16.1680908 Z M192.5,133.517416 C193.815249,133.517416 194.88147,132.451196 194.88147,131.135946 C194.88147,129.820697 193.815249,128.754477 192.5,128.754477 C191.184751,128.754477 190.11853,129.820697 190.11853,131.135946 C190.11853,132.451196 191.184751,133.517416 192.5,133.517416 Z M182.61853,133.517416 C183.93378,133.517416 185,132.451196 185,131.135946 C185,129.820697 183.93378,128.754477 182.61853,128.754477 C181.303281,128.754477 180.237061,129.820697 180.237061,131.135946 C180.237061,132.451196 181.303281,133.517416 182.61853,133.517416 Z M149,113.180544 C150.315249,113.180544 151.38147,112.114324 151.38147,110.799075 C151.38147,109.483825 150.315249,108.417605 149,108.417605 C147.684751,108.417605 146.61853,109.483825 146.61853,110.799075 C146.61853,112.114324 147.684751,113.180544 149,113.180544 Z M149,105.262576 C150.315249,105.262576 151.38147,104.196355 151.38147,102.881106 C151.38147,101.565856 150.315249,100.499636 149,100.499636 C147.684751,100.499636 146.61853,101.565856 146.61853,102.881106 C146.61853,104.196355 147.684751,105.262576 149,105.262576 Z M149,97.3446068 C150.315249,97.3446068 151.38147,96.2783865 151.38147,94.9631371 C151.38147,93.6478877 150.315249,92.5816673 149,92.5816673 C147.684751,92.5816673 146.61853,93.6478877 146.61853,94.9631371 C146.61853,96.2783865 147.684751,97.3446068 149,97.3446068 Z M203.267487,86.1461112 C204.582736,86.1461112 205.648956,85.0798909 205.648956,83.7646415 C205.648956,82.4493921 204.582736,81.3831717 203.267487,81.3831717 C201.952237,81.3831717 200.886017,82.4493921 200.886017,83.7646415 C200.886017,85.0798909 201.952237,86.1461112 203.267487,86.1461112 Z M203.267487,74.2564628 C204.582736,74.2564628 205.648956,73.1902424 205.648956,71.874993 C205.648956,70.5597436 204.582736,69.4935233 203.267487,69.4935233 C201.952237,69.4935233 200.886017,70.5597436 200.886017,71.874993 C200.886017,73.1902424 201.952237,74.2564628 203.267487,74.2564628 Z M149,120.96751 C150.315249,120.96751 151.38147,119.90129 151.38147,118.586041 C151.38147,117.270791 150.315249,116.204571 149,116.204571 C147.684751,116.204571 146.61853,117.270791 146.61853,118.586041 C146.61853,119.90129 147.684751,120.96751 149,120.96751 Z M43.4355469,156.060284 C44.7507963,156.060284 45.8170166,154.994064 45.8170166,153.678814 C45.8170166,152.363565 44.7507963,151.297344 43.4355469,151.297344 C42.1202975,151.297344 41.0540771,152.363565 41.0540771,153.678814 C41.0540771,154.994064 42.1202975,156.060284 43.4355469,156.060284 Z M51.5898438,156.060284 C52.9050932,156.060284 53.9713135,154.994064 53.9713135,153.678814 C53.9713135,152.363565 52.9050932,151.297344 51.5898438,151.297344 C50.2745943,151.297344 49.208374,152.363565 49.208374,153.678814 C49.208374,154.994064 50.2745943,156.060284 51.5898438,156.060284 Z M59.7441406,156.060284 C61.05939,156.060284 62.1256104,154.994064 62.1256104,153.678814 C62.1256104,152.363565 61.05939,151.297344 59.7441406,151.297344 C58.4288912,151.297344 57.3626709,152.363565 57.3626709,153.678814 C57.3626709,154.994064 58.4288912,156.060284 59.7441406,156.060284 Z M92.6689453,209.876895 C93.9841947,209.876895 95.050415,208.810674 95.050415,207.495425 C95.050415,206.180175 93.9841947,205.113955 92.6689453,205.113955 C91.3536959,205.113955 90.2874756,206.180175 90.2874756,207.495425 C90.2874756,208.810674 91.3536959,209.876895 92.6689453,209.876895 Z M92.6689453,219.915469 C93.9841947,219.915469 95.050415,218.849248 95.050415,217.533999 C95.050415,216.21875 93.9841947,215.152529 92.6689453,215.152529 C91.3536959,215.152529 90.2874756,216.21875 90.2874756,217.533999 C90.2874756,218.849248 91.3536959,219.915469 92.6689453,219.915469 Z M92.6689453,232.383742 C93.9841947,232.383742 95.050415,231.317522 95.050415,230.002273 C95.050415,228.687023 93.9841947,227.620803 92.6689453,227.620803 C91.3536959,227.620803 90.2874756,228.687023 90.2874756,230.002273 C90.2874756,231.317522 91.3536959,232.383742 92.6689453,232.383742 Z M231.330688,50.2425537 C232.645938,50.2425537 233.712158,49.1763334 233.712158,47.861084 C233.712158,46.5458346 232.645938,45.4796143 231.330688,45.4796143 C230.015439,45.4796143 228.949219,46.5458346 228.949219,47.861084 C228.949219,49.1763334 230.015439,50.2425537 231.330688,50.2425537 Z M239.949219,49.8814697 C241.264468,49.8814697 242.330688,48.8152494 242.330688,47.5 C242.330688,46.1847506 241.264468,45.1185303 239.949219,45.1185303 C238.633969,45.1185303 237.567749,46.1847506 237.567749,47.5 C237.567749,48.8152494 238.633969,49.8814697 239.949219,49.8814697 Z"/>
    <path fill="#C4C8D8" d="M150.178871,95.5 C149.974842,95.9472955 149.523727,96.258181 149,96.258181 C148.284767,96.258181 147.704956,95.6783701 147.704956,94.9631371 C147.704956,94.2479041 148.284767,93.6680931 149,93.6680931 C149.552045,93.6680931 150.023414,94.0135072 150.209772,94.5 L179.809282,94.5 L202.035126,72.2741562 C201.994431,72.1484254 201.972443,72.0142771 201.972443,71.874993 C201.972443,71.15976 202.552254,70.5799491 203.267487,70.5799491 C203.98272,70.5799491 204.562531,71.15976 204.562531,71.874993 C204.562531,72.590226 203.98272,73.170037 203.267487,73.170037 C203.059716,73.170037 202.863372,73.1211085 202.689351,73.0341453 L180.223496,95.5 L150.178871,95.5 Z M52,154.907562 C52.5142039,154.736 52.8848877,154.250696 52.8848877,153.678814 C52.8848877,152.963581 52.3050768,152.38377 51.5898438,152.38377 C50.8746107,152.38377 50.2947998,152.963581 50.2947998,153.678814 C50.2947998,154.181603 50.581325,154.617471 51,154.832041 L51,176.7939 L91.4150367,217.208936 C91.388186,217.312809 91.3739014,217.421736 91.3739014,217.533999 C91.3739014,218.249232 91.9537123,218.829043 92.6689453,218.829043 C93.3841783,218.829043 93.9639893,218.249232 93.9639893,217.533999 C93.9639893,216.818766 93.3841783,216.238955 92.6689453,216.238955 C92.435966,216.238955 92.2173558,216.300477 92.0284739,216.40816 L52,176.379686 L52,154.907562 Z M212.24353,20.5 L204.658007,20.5 L230.802784,46.646458 L230.741943,46.7072949 C230.918577,46.6169828 231.118684,46.56604 231.330688,46.56604 C232.045921,46.56604 232.625732,47.145851 232.625732,47.861084 C232.625732,48.576317 232.045921,49.1561279 231.330688,49.1561279 C230.615455,49.1561279 230.035645,48.576317 230.035645,47.861084 C230.035645,47.6490495 230.086602,47.4489168 230.176937,47.2722638 L230.095654,47.353542 L203.243839,20.5 L176.719417,20.5 L150.194994,20.5 C149.999371,20.9669862 149.537997,21.2950439 149,21.2950439 C148.284767,21.2950439 147.704956,20.715233 147.704956,20 C147.704956,19.284767 148.284767,18.7049561 149,18.7049561 C149.537997,18.7049561 149.999371,19.0330138 150.194994,19.5 L211.243581,19.5 L206.24384,14.5 L150.081018,14.5 C149.849263,14.8504821 149.451629,15.081665 149,15.081665 C148.284767,15.081665 147.704956,14.5018541 147.704956,13.7866211 C147.704956,13.0713881 148.284767,12.4915771 149,12.4915771 C149.539293,12.4915771 150.001595,12.8212183 150.196404,13.2900003 L224.709435,13.500585 L257.508593,46.3014424 C257.660124,46.2392488 257.826057,46.2049561 258,46.2049561 C258.715233,46.2049561 259.295044,46.784767 259.295044,47.5 C259.295044,48.215233 258.715233,48.7950439 258,48.7950439 C257.284767,48.7950439 256.704956,48.215233 256.704956,47.5 C256.704956,47.3260337 256.739258,47.1600791 256.801468,47.0085309 L224.294037,14.499415 L207.610284,14.4522643 L212.657758,19.5 L221.708852,19.5 L248.853565,46.646458 L248.792724,46.7072946 C248.969359,46.6169828 249.169465,46.56604 249.38147,46.56604 C250.096703,46.56604 250.676514,47.145851 250.676514,47.861084 C250.676514,48.576317 250.096703,49.1561279 249.38147,49.1561279 C248.666237,49.1561279 248.086426,48.576317 248.086426,47.861084 C248.086426,47.6490495 248.137383,47.4489168 248.227719,47.2722638 L248.146435,47.353542 L221.29462,20.5 L213.657706,20.5 L239.457812,46.3014424 C239.609343,46.2392488 239.775276,46.2049561 239.949219,46.2049561 C240.664452,46.2049561 241.244263,46.784767 241.244263,47.5 C241.244263,48.215233 240.664452,48.7950439 239.949219,48.7950439 C239.233986,48.7950439 238.654175,48.215233 238.654175,47.5 C238.654175,47.3260337 238.688477,47.1600791 238.750687,47.0085309 L212.24353,20.5 Z M150.137869,103.5 C149.918307,103.902822 149.491073,104.17615 149,104.17615 C148.284767,104.17615 147.704956,103.596339 147.704956,102.881106 C147.704956,102.165873 148.284767,101.586062 149,101.586062 C149.582596,101.586062 150.075339,101.970765 150.238059,102.5 L183.825021,102.5 L202.068942,84.2560795 C202.00674,84.1045397 201.972443,83.9385959 201.972443,83.7646415 C201.972443,83.0494084 202.552254,82.4695975 203.267487,82.4695975 C203.98272,82.4695975 204.562531,83.0494084 204.562531,83.7646415 C204.562531,84.4798745 203.98272,85.0596854 203.267487,85.0596854 C203.093532,85.0596854 202.927588,85.0253879 202.776049,84.9631863 L184.239235,103.5 L150.137869,103.5 Z M44,154.844703 C44.4324382,154.634956 44.7305908,154.191704 44.7305908,153.678814 C44.7305908,152.963581 44.1507799,152.38377 43.4355469,152.38377 C42.7203139,152.38377 42.1405029,152.963581 42.1405029,153.678814 C42.1405029,154.241239 42.4990285,154.719926 43,154.898794 L43,181.211652 L91.4259527,229.637605 C91.3920737,229.753272 91.3739014,229.87565 91.3739014,230.002273 C91.3739014,230.717506 91.9537123,231.297317 92.6689453,231.297317 C93.3841783,231.297317 93.9639893,230.717506 93.9639893,230.002273 C93.9639893,229.28704 93.3841783,228.707229 92.6689453,228.707229 C92.4492391,228.707229 92.2423113,228.76194 92.061043,228.858481 L44,180.797438 L44,154.844703 Z M60.2441406,154.873809 C60.7111268,154.678185 61.0391846,154.216811 61.0391846,153.678814 C61.0391846,152.963581 60.4593736,152.38377 59.7441406,152.38377 C59.0289076,152.38377 58.4490967,152.963581 58.4490967,153.678814 C58.4490967,154.216811 58.7771545,154.678185 59.2441406,154.873809 L59.2441406,175.061403 L91.4031595,207.220421 C91.3839943,207.309051 91.3739014,207.40106 91.3739014,207.495425 C91.3739014,208.210658 91.9537123,208.790469 92.6689453,208.790469 C93.3841783,208.790469 93.9639893,208.210658 93.9639893,207.495425 C93.9639893,206.780192 93.3841783,206.200381 92.6689453,206.200381 C92.4198064,206.200381 92.1870991,206.270733 91.9896054,206.392654 L60.2441406,174.647189 L60.2441406,154.873809 Z M182.045445,129.974284 C182.218211,129.88889 182.412767,129.840902 182.61853,129.840902 C183.333763,129.840902 183.913574,130.420713 183.913574,131.135946 C183.913574,131.851179 183.333763,132.43099 182.61853,132.43099 C181.903297,132.43099 181.323486,131.851179 181.323486,131.135946 C181.323486,130.994555 181.346145,130.858456 181.388029,130.731083 L169.792401,119.135454 L150.193801,119.088879 C149.9975,119.554356 149.536906,119.881085 149,119.881085 C148.284767,119.881085 147.704956,119.301274 147.704956,118.586041 C147.704956,117.870808 148.284767,117.290997 149,117.290997 C149.539087,117.290997 150.001241,117.620386 150.196181,118.088882 L170.207599,118.136438 L182.045445,129.974284 Z M192.008614,129.93738 C192.16014,129.875192 192.326065,129.840902 192.5,129.840902 C193.215233,129.840902 193.795044,130.420713 193.795044,131.135946 C193.795044,131.851179 193.215233,132.43099 192.5,132.43099 C191.784767,132.43099 191.204956,131.851179 191.204956,131.135946 C191.204956,130.961972 191.239261,130.79601 191.301476,130.644456 L172.291657,111.632987 L150.187696,111.31615 C149.988071,111.774038 149.531415,112.094119 149,112.094119 C148.284767,112.094119 147.704956,111.514308 147.704956,110.799075 C147.704956,110.083842 148.284767,109.504031 149,109.504031 C149.54457,109.504031 150.010634,109.840154 150.202045,110.316253 L172.711815,110.638906 L192.008614,129.93738 Z"/>
  </g>
</svg>
