<?xml version="1.0" encoding="UTF-8"?>
<svg width="1126px" height="352px" viewBox="0 0 1126 352" version="1.1" xmlns="http://www.w3.org/2000/svg" xmlns:xlink="http://www.w3.org/1999/xlink">
    <!-- Generator: Sketch 43.2 (39069) - http://www.bohemiancoding.com/sketch -->
    <title>Customer-background</title>
    <desc>Created with Sketch.</desc>
    <defs>
        <linearGradient x1="100%" y1="100%" x2="0%" y2="100%" id="linearGradient-1">
            <stop stop-color="#00AEFF" offset="0%"></stop>
            <stop stop-color="#3369E6" offset="100%"></stop>
        </linearGradient>
        <linearGradient x1="97.7513136%" y1="100%" x2="0%" y2="100%" id="linearGradient-2">
            <stop stop-color="#00AEFF" offset="0%"></stop>
            <stop stop-color="#3369E6" offset="100%"></stop>
        </linearGradient>
        <linearGradient x1="99.0805138%" y1="100%" x2="0%" y2="100%" id="linearGradient-3">
            <stop stop-color="#8E43E6" offset="0%"></stop>
            <stop stop-color="#3369E6" offset="100%"></stop>
        </linearGradient>
        <linearGradient x1="100%" y1="92.8237855%" x2="1.73611111%" y2="96.7453862%" id="linearGradient-4">
            <stop stop-color="#00AEFF" offset="0%"></stop>
            <stop stop-color="#3369E6" offset="34.640067%"></stop>
            <stop stop-color="#913FE6" offset="100%"></stop>
        </linearGradient>
        <linearGradient x1="-1.11022302e-14%" y1="50%" x2="100%" y2="50%" id="linearGradient-5">
            <stop stop-color="#FFFFFF" stop-opacity="0" offset="0%"></stop>
            <stop stop-color="#FFFFFF" offset="100%"></stop>
        </linearGradient>
        <linearGradient x1="100%" y1="96.7392027%" x2="1.73611111%" y2="96.7453862%" id="linearGradient-6">
            <stop stop-color="#00AEFF" offset="0%"></stop>
            <stop stop-color="#3369E6" offset="34.640067%"></stop>
            <stop stop-color="#913FE6" offset="100%"></stop>
        </linearGradient>
        <linearGradient x1="99.2849392%" y1="96.1407065%" x2="1.73611111%" y2="96.7453862%" id="linearGradient-7">
            <stop stop-color="#00AEFF" offset="0%"></stop>
            <stop stop-color="#3369E6" offset="34.640067%"></stop>
            <stop stop-color="#913FE6" offset="100%"></stop>
        </linearGradient>
        <linearGradient x1="100%" y1="2.4472032%" x2="1.73611111%" y2="96.7453862%" id="linearGradient-8">
            <stop stop-color="#00AEFF" offset="0%"></stop>
            <stop stop-color="#3369E6" offset="34.640067%"></stop>
            <stop stop-color="#913FE6" offset="100%"></stop>
        </linearGradient>
        <linearGradient x1="100%" y1="96.7453837%" x2="1.73611111%" y2="96.7453862%" id="linearGradient-9">
            <stop stop-color="#00AEFF" offset="0%"></stop>
            <stop stop-color="#3369E6" offset="34.640067%"></stop>
            <stop stop-color="#913FE6" offset="100%"></stop>
        </linearGradient>
    </defs>
    <g id="Work-space" stroke="none" stroke-width="1" fill="none" fill-rule="evenodd">
        <g id="Customer-page-V1" transform="translate(-220.000000, -498.000000)">
            <g id="Customer-background" transform="translate(220.000000, 498.000000)">
                <g id="Background" transform="translate(0.000000, -0.000000)">
                    <path d="M0,64 L310.000275,64 C318.836679,64 326,71.1615011 326,80 L326,80 C326,88.836556 318.830316,96 310.000275,96 L0,96 L0,64 Z" id="Rectangle-13-Copy-40" fill="url(#linearGradient-1)" opacity="0.9"></path>
                    <path d="M0,320 L131.006138,320 C139.839304,320 147,327.161501 147,336 L147,336 C147,344.836556 139.835309,352 131.006138,352 L0,352 L0,320 Z" id="Rectangle-13-Copy-41" fill="url(#linearGradient-1)" opacity="0.9"></path>
                    <path d="M0,32 L209.99553,32 C218.834555,32 226,39.1615011 226,48 L226,48 C226,56.836556 218.831483,64 209.99553,64 L0,64 L0,32 Z" id="Rectangle-13-Copy-42" fill="url(#linearGradient-2)" opacity="0.4"></path>
                    <path d="M0,-1.42108547e-14 L84.0025891,-1.42108547e-14 C92.8377152,-1.42108547e-14 100,7.16150109 100,16 L100,16 C100,24.836556 92.8283243,32 84.0025891,32 L0,32 L0,-1.42108547e-14 Z" id="Rectangle-13-Copy-43" fill="url(#linearGradient-1)" opacity="0.2"></path>
                    <path d="M0,224 L1049.79777,224 C1058.63332,224 1065.79594,231.161501 1065.79594,240 L1065.79594,240 C1065.79594,248.836556 1058.6369,256 1049.79777,256 L0,256 L0,224 Z" id="Rectangle-13-Copy" fill="url(#linearGradient-3)"></path>
                    <path d="M0,192 L1109.79318,192 C1118.62722,192 1125.78862,199.161501 1125.78862,208 L1125.78862,208 C1125.78862,216.836556 1118.61797,224 1109.79318,224 L0,224 L0,192 Z" id="Rectangle-13-Copy-10" fill="url(#linearGradient-1)" opacity="0.9"></path>
                    <path d="M0,192 L918.992556,192 C927.833223,192 935,199.161501 935,208 L935,208 C935,216.836556 927.845539,224 918.992556,224 L0,224 L0,192 Z" id="Rectangle-13-Copy-11" fill="url(#linearGradient-1)" opacity="0.9"></path>
                    <path d="M0,160 L1076.99492,160 C1085.83428,160 1093,167.161501 1093,176 L1093,176 C1093,184.836556 1085.84038,192 1076.99492,192 L0,192 L0,160 Z" id="Rectangle-13-Copy-14" fill="url(#linearGradient-1)" opacity="0.9"></path>
                    <path d="M0,128 L1049.79777,128 C1058.63332,128 1065.79594,135.161501 1065.79594,144 L1065.79594,144 C1065.79594,152.836556 1058.6369,160 1049.79777,160 L0,160 L0,128 Z" id="Rectangle-13-Copy-15" fill="url(#linearGradient-4)" opacity="0.2"></path>
                    <path d="M-1.13686838e-13,96 L933.000663,96 C941.836853,96 949,103.161501 949,112 L949,112 C949,120.836556 941.839726,128 933.000663,128 L-1.13686838e-13,128 L-1.13686838e-13,96 Z" id="Rectangle-13-Copy-5" fill="url(#linearGradient-4)" opacity="0.4"></path>
                    <path d="M0,160 L703.994956,160 C712.834298,160 720,167.161501 720,176 L720,176 C720,184.836556 712.84479,192 703.994956,192 L0,192 L0,160 Z" id="Rectangle-13-Copy-38" fill="url(#linearGradient-5)" opacity="0.2" style="mix-blend-mode: overlay;"></path>
                    <path d="M-2.84217094e-14,160 L464.996269,160 C473.834886,160 481,167.161501 481,176 L481,176 C481,184.836556 473.827245,192 464.996269,192 L-2.84217094e-14,192 L-2.84217094e-14,160 Z" id="Rectangle-13-Copy-4" fill="url(#linearGradient-6)" opacity="0.75"></path>
                    <path d="M5.68434189e-14,96 L537.009193,96 C545.840672,96 553,103.161501 553,112 L553,112 C553,120.836556 545.831214,128 537.009193,128 L5.68434189e-14,128 L5.68434189e-14,96 Z" id="Rectangle-13-Copy-5" fill="url(#linearGradient-6)" opacity="0.9"></path>
                    <path d="M0,128 L803.007392,128 C811.839866,128 819,135.161501 819,144 L819,144 C819,152.836556 811.841968,160 803.007392,160 L0,160 L0,128 Z" id="Rectangle-13-Copy-8" fill="url(#linearGradient-3)" opacity="0.9"></path>
                    <path d="M0,256 L703.994956,256 C712.834298,256 720,263.161501 720,272 L720,272 C720,280.836556 712.84479,288 703.994956,288 L0,288 L0,256 Z" id="Rectangle-13-Copy-34" fill="url(#linearGradient-7)" opacity="0.9"></path>
                    <path d="M0,128 L277.997581,128 C286.835473,128 294,135.161501 294,144 L294,144 C294,152.836556 286.841928,160 277.997581,160 L0,160 L0,128 Z" id="Rectangle-13-Copy-39" fill="url(#linearGradient-5)" opacity="0.2" style="mix-blend-mode: overlay;"></path>
                    <path d="M0,256 L223.997121,256 C232.835267,256 240,263.161501 240,272 L240,272 C240,280.836556 232.833581,288 223.997121,288 L0,288 L0,256 Z" id="Rectangle-13-Copy-35" fill="url(#linearGradient-6)" opacity="0.3" style="mix-blend-mode: overlay;"></path>
                    <path d="M0,288 L628.000568,288 C636.83681,288 644,295.161501 644,304 L644,304 C644,312.836556 636.836514,320 628.000568,320 L0,320 L0,288 Z" id="Rectangle-13-Copy-36" fill="url(#linearGradient-8)" opacity="0.4"></path>
                    <path d="M0,288 L783.997151,288 C792.83528,288 800,295.161501 800,304 L800,304 C800,312.836556 792.839588,320 783.997151,320 L0,320 L0,288 Z" id="Rectangle-13-Copy-36" fill="url(#linearGradient-9)" opacity="0.4"></path>
                    <path d="M0,288 L277.997581,288 C286.835473,288 294,295.161501 294,304 L294,304 C294,312.836556 286.841928,320 277.997581,320 L0,320 L0,288 Z" id="Rectangle-13-Copy-36" fill="url(#linearGradient-1)" opacity="0.9"></path>
                </g>
            </g>
        </g>
    </g>
</svg>