<svg xmlns="http://www.w3.org/2000/svg" width="945" height="620" viewBox="0 0 945 620" xmlns:xlink="http://www.w3.org/1999/xlink"><defs><linearGradient id="b" x1="0%" y1="0%" y2="100%"><stop stop-color="#FE6C5F" offset="0%"/><stop stop-color="#FFC168" offset="100%"/></linearGradient><path id="a" d="M0 619.334C71.634 616.114 82.106 567 159 567c79.5 0 71.5 52 152.5 52s83-52 160.5-52 79.5 52 160 52 74-52 152-52c76.344 0 85.63 48.857 161 50.932V0H0v619.334z"/><linearGradient id="c" x1="100%" x2="0%" y1="0%" y2="100%"><stop stop-color="#FE6C5F" offset="0%"/><stop stop-color="#FFC168" offset="100%"/></linearGradient></defs><g fill="none" fill-rule="evenodd"><mask id="d" fill="#fff"><use xlink:href="#a"/></mask><use fill="url(#b)" xlink:href="#a"/><path fill="url(#c)" d="M51.71-.36h52.454L0 325V144.5L51.71-.36zm104.908 0h52.454L71 619H-9L156.618-.36zm104.91 0h52.453L231 619h-80L261.527-.36zm104.908 0h52.454L391 619h-80L366.436-.36zm104.908 0H523.8L551 619h-80l.344-619.36zm104.91 0h52.453L711 619h-80L576.253-.36zm104.908 0h52.454L871 619h-80L681.162-.36zm104.91 0h52.453L946 362v235.5L786.07-.36zm104.907 0h52.454V152L890.98-.36z" opacity=".49" mask="url(#d)"/></g></svg>