<svg xmlns="http://www.w3.org/2000/svg" width="430" height="317" viewBox="0 0 430 317" xmlns:xlink="http://www.w3.org/1999/xlink"><defs><rect id="b" width="400" height="48" rx="6"/><filter id="a" width="200%" height="200%" x="-50%" y="-50%" filterUnits="objectBoundingBox"><feOffset dy="5" in="SourceAlpha" result="shadowOffsetOuter1"/><feGaussianBlur stdDeviation="7.5" in="shadowOffsetOuter1" result="shadowBlurOuter1"/><feColorMatrix values="0 0 0 0 0.440703533 0 0 0 0 0.503310129 0 0 0 0 0.68486926 0 0 0 0.2 0" in="shadowBlurOuter1"/></filter><rect id="d" width="400" height="72" rx="6"/><filter id="c" width="200%" height="200%" x="-50%" y="-50%" filterUnits="objectBoundingBox"><feOffset dy="5" in="SourceAlpha" result="shadowOffsetOuter1"/><feGaussianBlur stdDeviation="7.5" in="shadowOffsetOuter1" result="shadowBlurOuter1"/><feColorMatrix values="0 0 0 0 0.440703533 0 0 0 0 0.503310129 0 0 0 0 0.68486926 0 0 0 0.2 0" in="shadowBlurOuter1"/></filter><rect id="f" width="400" height="72" rx="6"/><filter id="e" width="200%" height="200%" x="-50%" y="-50%" filterUnits="objectBoundingBox"><feOffset dy="5" in="SourceAlpha" result="shadowOffsetOuter1"/><feGaussianBlur stdDeviation="7.5" in="shadowOffsetOuter1" result="shadowBlurOuter1"/><feColorMatrix values="0 0 0 0 0.440703533 0 0 0 0 0.503310129 0 0 0 0 0.68486926 0 0 0 0.2 0" in="shadowBlurOuter1"/></filter><rect id="h" width="400" height="72" rx="6"/><filter id="g" width="200%" height="200%" x="-50%" y="-50%" filterUnits="objectBoundingBox"><feOffset dy="5" in="SourceAlpha" result="shadowOffsetOuter1"/><feGaussianBlur stdDeviation="7.5" in="shadowOffsetOuter1" result="shadowBlurOuter1"/><feColorMatrix values="0 0 0 0 0.440703533 0 0 0 0 0.503310129 0 0 0 0 0.68486926 0 0 0 0.2 0" in="shadowBlurOuter1"/></filter><linearGradient id="i" x1="-.08%" x2="100.051%" y1="101.621%" y2="-1.657%"><stop stop-color="#FE6C5F" offset="0%"/><stop stop-color="#FFC168" offset="100%"/></linearGradient><linearGradient id="j" x1="-41.98%" x2="118.176%" y1="136.94%" y2="-4.079%"><stop stop-color="#FE6C5F" offset="0%"/><stop stop-color="#FFC168" offset="100%"/></linearGradient><linearGradient id="k" x1="22.196%" x2="77.124%" y1="-136.041%" y2="280.726%"><stop stop-color="#FE6C5F" offset="0%"/><stop stop-color="#FFC168" offset="100%"/></linearGradient><linearGradient id="l" x1="24.135%" x2="87.221%" y1="-837.673%" y2="1385.08%"><stop stop-color="#FE6C5F" offset="0%"/><stop stop-color="#FFC168" offset="100%"/></linearGradient><linearGradient id="m" x1="-14.038%" x2="97.693%" y1="91.043%" y2="8.929%"><stop stop-color="#FFF" stop-opacity="0" offset="0%"/><stop stop-color="#FFF" offset="100%"/></linearGradient><linearGradient id="n" x1="-.068%" x2="100.063%" y1="101.621%" y2="-1.657%"><stop stop-color="#FF0844" offset="0%"/><stop stop-color="#FFB199" offset="100%"/></linearGradient><linearGradient id="o" x1="-65.708%" x2="98.338%" y1="349.487%" y2="-68.24%"><stop stop-color="#FF0844" offset="0%"/><stop stop-color="#FFB199" offset="100%"/></linearGradient><linearGradient id="p" x1="-78.92%" x2="129.585%" y1="571.097%" y2="-261.497%"><stop stop-color="#FF0844" offset="0%"/><stop stop-color="#FFB199" offset="100%"/></linearGradient><linearGradient id="q" x1="-60.396%" x2="148.109%" y1="497.12%" y2="-335.473%"><stop stop-color="#FF0844" offset="0%"/><stop stop-color="#FFB199" offset="100%"/></linearGradient><linearGradient id="r" x1="22.426%" x2="89.604%" y1="-101.431%" y2="327.804%"><stop stop-color="#FF0844" offset="0%"/><stop stop-color="#FFB199" offset="100%"/></linearGradient><linearGradient id="s" x1="-14.022%" x2="97.71%" y1="91.043%" y2="8.929%"><stop stop-color="#FFF" stop-opacity="0" offset="0%"/><stop stop-color="#FFF" offset="100%"/></linearGradient><linearGradient id="t" x1="-.056%" x2="100.075%" y1="101.623%" y2="-1.743%"><stop stop-color="#96E6A1" offset="0%"/><stop stop-color="#D4FC79" offset="100%"/></linearGradient><linearGradient id="u" x1="-50.681%" x2="127.036%" y1="200.585%" y2="-28.339%"><stop stop-color="#96E6A1" offset="0%"/><stop stop-color="#D4FC79" offset="100%"/></linearGradient><linearGradient id="v" x1="-245.754%" x2="115.221%" y1="1646.719%" y2="-282.783%"><stop stop-color="#96E6A1" offset="0%"/><stop stop-color="#D4FC79" offset="100%"/></linearGradient><linearGradient id="w" x1="22.438%" x2="89.616%" y1="-101.431%" y2="327.804%"><stop stop-color="#96E6A1" offset="0%"/><stop stop-color="#D4FC79" offset="100%"/></linearGradient><linearGradient id="x" x1="-14.021%" x2="97.839%" y1="91.043%" y2="8.929%"><stop stop-color="#FFF" stop-opacity="0" offset="0%"/><stop stop-color="#FFF" offset="100%"/></linearGradient></defs><g fill="none" fill-rule="evenodd" transform="translate(15 9.47)"><use fill="#000" filter="url(#a)" xlink:href="#b"/><use fill="#FFF" xlink:href="#b"/><g transform="translate(0 56)"><use fill="#000" filter="url(#c)" xlink:href="#d"/><use fill="#FFF" xlink:href="#d"/><path fill="#A6B0D8" d="M78.86 19h1.34v5.79h3.02V26h-4.36v-7zm10.973 7l-.62-1.48h-3.42l-.62 1.48h-1.39l3.07-7h1.39l3.03 7h-1.44zm-3.56-2.63h2.46l-1.22-2.94-1.24 2.94zm9.43-3.08c-.378-.12-.71-.18-.996-.18-.32 0-.574.06-.76.18-.187.12-.28.287-.28.5 0 .193.065.355.195.485s.293.237.49.32c.196.083.465.175.805.275.473.14.86.28 1.165.42.303.14.56.347.775.62.213.273.32.633.32 1.08 0 .427-.115.798-.345 1.115-.23.317-.547.558-.95.725-.404.167-.865.25-1.385.25-.547 0-1.08-.102-1.6-.305s-.974-.475-1.36-.815l.56-1.14c.353.327.75.583 1.19.77.44.187.85.28 1.23.28.373 0 .666-.072.88-.215.213-.143.32-.338.32-.585 0-.2-.065-.365-.195-.495s-.295-.235-.495-.315c-.2-.08-.474-.17-.82-.27-.474-.14-.86-.277-1.16-.41-.3-.133-.557-.335-.77-.605-.214-.27-.32-.625-.32-1.065 0-.407.108-.762.325-1.065.216-.303.523-.538.92-.705.396-.167.855-.25 1.375-.25.453 0 .9.067 1.345.2.443.133.838.313 1.185.54l-.54 1.17c-.36-.22-.73-.39-1.105-.51zM98.24 19h5.71v1.19h-2.18V26h-1.35v-5.81h-2.18V19zm14.852.38c.57.313 1.018.743 1.345 1.29.326.547.49 1.153.49 1.82s-.164 1.275-.49 1.825c-.327.55-.775.985-1.345 1.305-.57.32-1.202.48-1.895.48-.694 0-1.325-.16-1.895-.48-.57-.32-1.02-.755-1.345-1.305-.327-.55-.49-1.158-.49-1.825s.163-1.273.49-1.82c.326-.547.775-.977 1.345-1.29.57-.313 1.2-.47 1.895-.47.693 0 1.325.157 1.895.47zm-3.065 1.045c-.367.21-.657.497-.87.86-.214.363-.32.765-.32 1.205 0 .44.108.843.325 1.21.216.367.506.657.87.87.363.213.758.32 1.185.32.42 0 .81-.107 1.17-.32.36-.213.645-.503.855-.87.21-.367.315-.77.315-1.21 0-.44-.105-.842-.315-1.205-.21-.363-.495-.65-.855-.86-.36-.21-.75-.315-1.17-.315-.427 0-.824.105-1.19.315zM120.82 26l-1.21-2.07c-.053.007-.137.01-.25.01h-1.58V26h-1.34v-7h2.92c.907 0 1.607.21 2.1.63.493.42.74 1.013.74 1.78 0 .547-.118 1.013-.355 1.4s-.582.677-1.035.87l1.54 2.32h-1.53zm-3.04-3.24h1.58c.507 0 .893-.11 1.16-.33.267-.22.4-.547.4-.98 0-.427-.133-.747-.4-.96-.267-.213-.653-.32-1.16-.32h-1.58v2.59zm11.013-3.315c.554.297.987.712 1.3 1.245.314.533.47 1.137.47 1.81s-.158 1.275-.475 1.805c-.316.53-.755.945-1.315 1.245-.56.3-1.196.45-1.91.45h-2.86v-7h2.91c.7 0 1.327.148 1.88.445zm-.695 5.08c.344-.197.612-.47.805-.82.194-.35.29-.748.29-1.195 0-.447-.1-.848-.3-1.205-.2-.357-.475-.633-.825-.83-.35-.197-.74-.295-1.175-.295h-1.55v4.64h1.6c.427 0 .812-.098 1.155-.295zm3.97-5.525h5.13v1.17h-3.79v1.73h3.4v1.17h-3.4v1.76h3.91V26h-5.25v-7zm11.322 7l-1.21-2.07c-.053.007-.137.01-.25.01h-1.58V26h-1.34v-7h2.92c.907 0 1.607.21 2.1.63.493.42.74 1.013.74 1.78 0 .547-.118 1.013-.355 1.4s-.582.677-1.035.87l1.54 2.32h-1.53zm-3.04-3.24h1.58c.507 0 .893-.11 1.16-.33.267-.22.4-.547.4-.98 0-.427-.133-.747-.4-.96-.267-.213-.653-.32-1.16-.32h-1.58v2.59zm9.518-2.47c-.376-.12-.708-.18-.995-.18-.32 0-.573.06-.76.18-.186.12-.28.287-.28.5 0 .193.065.355.195.485s.294.237.49.32c.197.083.465.175.805.275.474.14.862.28 1.165.42.304.14.562.347.775.62.214.273.32.633.32 1.08 0 .427-.115.798-.345 1.115-.23.317-.546.558-.95.725-.403.167-.865.25-1.385.25-.546 0-1.08-.102-1.6-.305s-.973-.475-1.36-.815l.56-1.14c.354.327.75.583 1.19.77.44.187.85.28 1.23.28.374 0 .667-.072.88-.215.214-.143.32-.338.32-.585 0-.2-.065-.365-.195-.495s-.295-.235-.495-.315c-.2-.08-.473-.17-.82-.27-.473-.14-.86-.277-1.16-.41-.3-.133-.556-.335-.77-.605-.213-.27-.32-.625-.32-1.065 0-.407.11-.762.325-1.065.217-.303.524-.538.92-.705.397-.167.855-.25 1.375-.25.454 0 .902.067 1.345.2.444.133.84.313 1.185.54l-.54 1.17c-.36-.22-.728-.39-1.105-.51z"/><path fill="#201C38" d="M88.683 37.084c1.026.564 1.833 1.338 2.42 2.322.59.984.883 2.076.883 3.276 0 1.2-.294 2.295-.882 3.285-.588.99-1.395 1.773-2.42 2.35-1.027.575-2.164.863-3.412.863-1.248 0-2.385-.288-3.41-.864-1.027-.576-1.834-1.36-2.422-2.35-.588-.99-.882-2.084-.882-3.284 0-1.2.294-2.292.882-3.276.588-.984 1.395-1.758 2.42-2.322 1.027-.564 2.164-.846 3.412-.846 1.248 0 2.385.282 3.41.846zm-5.517 1.88c-.66.38-1.182.895-1.566 1.55-.384.653-.576 1.376-.576 2.168 0 .792.195 1.518.585 2.178.39.66.91 1.182 1.565 1.566.654.384 1.365.576 2.133.576.756 0 1.458-.192 2.106-.576.648-.384 1.16-.906 1.54-1.566.377-.66.566-1.386.566-2.178s-.19-1.515-.567-2.17c-.378-.653-.89-1.17-1.54-1.547-.647-.378-1.35-.567-2.105-.567-.768 0-1.482.19-2.142.567zm15.117.83c.558-.33 1.21-.502 1.953-.514v2.268c-.996-.06-1.79.17-2.385.693-.593.523-.89 1.228-.89 2.116V49h-2.34v-9.63h2.34v1.854c.324-.624.765-1.1 1.323-1.43zM107.82 49v-1.17c-.336.42-.768.738-1.296.954-.528.216-1.134.324-1.818.324-.672 0-1.263-.13-1.773-.387s-.903-.614-1.18-1.07c-.275-.456-.413-.966-.413-1.53 0-.9.318-1.605.954-2.115.636-.51 1.536-.77 2.7-.783h2.808v-.252c0-.564-.186-1.002-.558-1.314-.372-.312-.912-.468-1.62-.468-.912 0-1.866.3-2.862.9l-.846-1.62c.756-.42 1.443-.723 2.06-.91.62-.185 1.342-.278 2.17-.278 1.248 0 2.217.3 2.907.9.69.6 1.04 1.44 1.053 2.52l.018 6.3h-2.304zm-.828-2.17c.48-.317.75-.71.81-1.178v-.864h-2.43c-.624 0-1.083.093-1.377.28-.294.185-.44.488-.44.908 0 .408.152.732.458.972.306.24.723.36 1.25.36.673 0 1.25-.16 1.73-.477zm14.766-6.55c.636.665.954 1.568.954 2.708V49h-2.358v-5.328c0-.672-.192-1.203-.576-1.593-.384-.39-.906-.586-1.566-.586-.78.012-1.395.276-1.845.792-.45.516-.675 1.176-.675 1.98V49h-2.34v-9.63h2.34v1.8c.66-1.236 1.812-1.866 3.456-1.89 1.104 0 1.974.333 2.61 1zm12.984-.91v8.712c0 .912-.207 1.707-.62 2.385-.415.678-1.003 1.2-1.765 1.566-.762.366-1.647.55-2.655.55-1.464 0-2.82-.427-4.068-1.28l.936-1.69c.912.67 1.914 1.007 3.006 1.007.864 0 1.55-.222 2.06-.666.51-.444.766-1.05.766-1.818v-1.134c-.324.492-.744.867-1.26 1.125s-1.116.387-1.8.387c-.84 0-1.584-.195-2.232-.585-.648-.39-1.152-.937-1.512-1.64-.36-.7-.54-1.508-.54-2.42 0-.9.18-1.695.54-2.385.36-.69.864-1.227 1.512-1.61.648-.385 1.392-.577 2.232-.577.672 0 1.27.132 1.79.396.523.264.946.636 1.27 1.116v-1.44h2.34zm-3.05 6.543c.473-.51.71-1.173.71-1.99 0-.815-.237-1.478-.71-1.988-.475-.51-1.09-.765-1.846-.765s-1.37.258-1.845.774c-.473.516-.716 1.176-.728 1.98.012.816.255 1.48.73 1.99.473.51 1.088.764 1.844.764s1.37-.255 1.845-.765zm13.883-5.3c.774.875 1.16 2.105 1.16 3.69 0 .31-.005.545-.017.7h-7.11c.156.685.477 1.222.963 1.612.487.39 1.084.585 1.792.585.492 0 .963-.093 1.413-.28.45-.185.843-.452 1.18-.8l1.26 1.314c-.48.528-1.066.936-1.756 1.224-.69.288-1.456.432-2.296.432-.984 0-1.85-.204-2.6-.612-.75-.408-1.33-.98-1.738-1.72-.408-.737-.612-1.586-.612-2.546 0-.96.207-1.812.62-2.556.415-.744.994-1.323 1.738-1.737.744-.415 1.59-.622 2.538-.622 1.536 0 2.69.438 3.465 1.314zm-.98 2.825c-.025-.708-.26-1.272-.703-1.692-.444-.42-1.032-.63-1.764-.63-.684 0-1.257.207-1.72.62-.46.415-.746.982-.854 1.702h5.04zm15.788-4.716c-.678-.216-1.275-.324-1.79-.324-.577 0-1.033.108-1.37.324-.335.216-.503.516-.503.9 0 .348.117.64.35.873.235.234.53.426.883.576.354.15.837.316 1.45.496.85.252 1.55.504 2.096.756.545.252 1.01.624 1.394 1.116.384.492.576 1.14.576 1.944 0 .768-.207 1.437-.62 2.007-.415.57-.985 1.004-1.71 1.304-.727.3-1.558.45-2.494.45-.984 0-1.944-.183-2.88-.55-.936-.365-1.752-.854-2.448-1.466l1.008-2.052c.636.588 1.35 1.05 2.142 1.386.792.336 1.53.504 2.214.504.672 0 1.2-.13 1.584-.387.384-.26.576-.61.576-1.054 0-.36-.117-.657-.35-.89-.235-.235-.532-.424-.892-.568-.36-.144-.852-.306-1.476-.486-.852-.252-1.548-.498-2.088-.738s-1.002-.603-1.386-1.09c-.384-.485-.576-1.124-.576-1.916 0-.732.195-1.37.585-1.917.39-.545.94-.968 1.655-1.268.714-.3 1.54-.45 2.475-.45.816 0 1.623.12 2.42.36.8.24 1.51.564 2.134.972l-.972 2.106c-.648-.396-1.31-.702-1.99-.918zm12.732 1.188c.762.408 1.356.98 1.782 1.72.426.737.64 1.586.64 2.546 0 .972-.214 1.83-.64 2.574-.426.744-1.02 1.32-1.782 1.728-.762.408-1.64.612-2.637.612-1.008 0-1.896-.204-2.664-.612-.768-.408-1.365-.984-1.79-1.728-.427-.744-.64-1.602-.64-2.574 0-.96.213-1.81.64-2.547.425-.74 1.022-1.312 1.79-1.72.768-.408 1.656-.612 2.664-.612.996 0 1.875.204 2.637.612zm-4.617 2.196c-.504.54-.756 1.242-.756 2.106 0 .864.252 1.566.756 2.106.504.54 1.164.81 1.98.81.792 0 1.44-.27 1.944-.81s.756-1.242.756-2.106c0-.864-.252-1.566-.756-2.106-.504-.54-1.152-.81-1.944-.81-.816 0-1.476.27-1.98.81zm18.96-6.462V49h-2.34v-1.548c-.348.54-.795.95-1.34 1.233-.547.282-1.18.423-1.9.423-.912 0-1.713-.207-2.403-.62-.69-.415-1.227-.997-1.61-1.747-.385-.75-.577-1.61-.577-2.582 0-.96.19-1.81.567-2.547.378-.737.912-1.31 1.602-1.718.69-.408 1.48-.612 2.367-.612.732 0 1.374.144 1.926.432.552.288 1.008.702 1.368 1.242v-5.31h2.34zm-3.105 10.683c.51-.546.765-1.25.765-2.115 0-.864-.255-1.57-.765-2.115-.51-.546-1.167-.82-1.97-.82-.805 0-1.46.274-1.963.82-.504.546-.762 1.25-.774 2.115.012.864.27 1.57.774 2.115.504.546 1.158.82 1.962.82s1.46-.274 1.97-.82zm12.4 2.673v-1.17c-.337.42-.77.738-1.297.954-.528.216-1.134.324-1.818.324-.672 0-1.263-.13-1.773-.387s-.903-.614-1.18-1.07c-.275-.456-.413-.966-.413-1.53 0-.9.318-1.605.954-2.115.636-.51 1.536-.77 2.7-.783h2.808v-.252c0-.564-.186-1.002-.558-1.314-.372-.312-.912-.468-1.62-.468-.912 0-1.866.3-2.862.9l-.846-1.62c.756-.42 1.443-.723 2.06-.91.62-.185 1.342-.278 2.17-.278 1.248 0 2.217.3 2.907.9.69.6 1.04 1.44 1.053 2.52l.018 6.3h-2.304zm-.83-2.17c.48-.317.75-.71.81-1.178v-.864h-2.43c-.623 0-1.082.093-1.376.28-.294.185-.44.488-.44.908 0 .408.152.732.458.972.306.24.723.36 1.25.36.673 0 1.25-.16 1.73-.477z"/><path fill="#A6B0D8" d="M341.405 34.495c.234.234.528.426.882.576.354.15.837.316 1.45.496.85.252 1.55.504 2.096.756s1.01.624 1.395 1.116c.384.492.576 1.14.576 1.944 0 1.02-.354 1.857-1.062 2.51-.708.655-1.644 1.054-2.808 1.198v2.52h-1.782v-2.502c-.84-.096-1.653-.318-2.44-.666-.785-.348-1.472-.786-2.06-1.314l1.008-2.052c.636.588 1.35 1.05 2.142 1.386.792.336 1.53.504 2.214.504.672 0 1.2-.13 1.584-.387.384-.26.576-.61.576-1.054 0-.36-.117-.657-.35-.89-.235-.235-.532-.424-.892-.568-.36-.144-.852-.306-1.476-.486-.852-.252-1.548-.498-2.088-.738s-1.002-.603-1.386-1.09c-.384-.485-.576-1.124-.576-1.916 0-.96.336-1.758 1.008-2.394.672-.636 1.584-1.032 2.736-1.188v-2.34l1.782-.018v2.34c.684.072 1.35.222 1.998.45.648.228 1.23.51 1.746.846l-.972 2.106c-.648-.396-1.31-.702-1.99-.918-.677-.216-1.274-.324-1.79-.324-.576 0-1.032.108-1.368.324-.336.216-.504.516-.504.9 0 .348.117.64.35.873zm7.755-4.095h5.058V43h-2.412V32.524h-2.646V30.4zm10.365 10.53c.234.24.35.546.35.918 0 .384-.116.7-.35.945-.234.246-.53.37-.89.37-.35 0-.64-.127-.874-.38-.233-.25-.35-.563-.35-.935 0-.372.117-.678.35-.918.235-.24.526-.36.874-.36.36 0 .657.12.89.36zm11.75-.036V43h-9.323v-1.746l4.752-4.896c.456-.456.822-.906 1.098-1.35.276-.444.414-.828.414-1.152 0-.456-.18-.813-.54-1.07-.36-.26-.858-.388-1.494-.388-.552 0-1.14.138-1.764.414-.624.276-1.212.66-1.764 1.152l-.954-1.854c.744-.576 1.527-1.023 2.35-1.34.82-.32 1.646-.478 2.474-.478.828 0 1.56.132 2.196.396.636.264 1.13.64 1.485 1.125.354.486.53 1.047.53 1.683 0 .612-.21 1.26-.63 1.944-.42.684-1.007 1.422-1.763 2.214l-3.204 3.24h6.138zm10.042-4.176c.69.6 1.035 1.386 1.035 2.358 0 .792-.204 1.49-.612 2.097-.408.606-.99 1.08-1.746 1.422-.756.342-1.638.513-2.646.513-.852 0-1.695-.13-2.53-.387-.833-.257-1.544-.602-2.132-1.034l.954-1.872c.504.42 1.062.74 1.674.963.612.222 1.236.333 1.872.333.876 0 1.563-.18 2.06-.54.5-.36.748-.846.748-1.458 0-.624-.246-1.1-.738-1.43-.492-.33-1.194-.496-2.106-.496h-1.908v-1.458l3.384-3.276h-5.31l-.018-2.052h8.424v1.494l-3.852 3.69.666.072c1.164.108 2.09.462 2.78 1.062z"/></g><g transform="translate(0 136)"><use fill="#000" filter="url(#e)" xlink:href="#f"/><use fill="#FFF" xlink:href="#f"/><path fill="#A6B0D8" d="M83.735 19.47c.43.313.645.74.645 1.28 0 .387-.108.718-.325.995-.217.277-.515.462-.895.555.467.087.832.287 1.095.6s.395.703.395 1.17c0 .6-.232 1.072-.695 1.415-.463.343-1.095.515-1.895.515h-3.2v-7h3.11c.747 0 1.335.157 1.765.47zm-1.02 2.16c.197-.153.295-.367.295-.64 0-.267-.098-.473-.295-.62-.197-.147-.468-.217-.815-.21h-1.7v1.7h1.7c.347 0 .618-.077.815-.23zm.185 2.97c.24-.167.36-.4.36-.7 0-.287-.12-.512-.36-.675-.24-.163-.573-.242-1-.235h-1.7v1.85h1.7c.427.007.76-.073 1-.24zm3.383-5.6h5.13v1.17h-3.79v1.73h3.4v1.17h-3.4v1.76h3.91V26h-5.25v-7zm10.24 1.29c-.378-.12-.71-.18-.996-.18-.32 0-.574.06-.76.18-.187.12-.28.287-.28.5 0 .193.065.355.195.485s.293.237.49.32c.196.083.465.175.805.275.473.14.86.28 1.165.42.303.14.56.347.775.62.213.273.32.633.32 1.08 0 .427-.115.798-.345 1.115-.23.317-.547.558-.95.725-.404.167-.865.25-1.385.25-.547 0-1.08-.102-1.6-.305s-.974-.475-1.36-.815l.56-1.14c.353.327.75.583 1.19.77.44.187.85.28 1.23.28.373 0 .666-.072.88-.215.213-.143.32-.338.32-.585 0-.2-.065-.365-.195-.495s-.295-.235-.495-.315c-.2-.08-.474-.17-.82-.27-.474-.14-.86-.277-1.16-.41-.3-.133-.557-.335-.77-.605-.214-.27-.32-.625-.32-1.065 0-.407.108-.762.325-1.065.216-.303.523-.538.92-.705.396-.167.855-.25 1.375-.25.453 0 .9.067 1.345.2.443.133.838.313 1.185.54l-.54 1.17c-.36-.22-.73-.39-1.105-.51zM99.06 19h5.71v1.19h-2.18V26h-1.35v-5.81h-2.18V19zm14.692.63c.483.42.725 1.013.725 1.78 0 .8-.242 1.422-.725 1.865-.484.443-1.165.665-2.045.665h-1.53V26h-1.34v-7h2.87c.88 0 1.56.21 2.045.63zm-.95 2.8c.27-.22.405-.547.405-.98 0-.427-.135-.747-.405-.96-.27-.213-.66-.32-1.165-.32h-1.46v2.59h1.46c.506 0 .895-.11 1.165-.33zM120.3 26l-1.21-2.07c-.053.007-.137.01-.25.01h-1.58V26h-1.34v-7h2.92c.907 0 1.607.21 2.1.63.493.42.74 1.013.74 1.78 0 .547-.118 1.013-.355 1.4s-.582.677-1.035.87l1.54 2.32h-1.53zm-3.04-3.24h1.58c.507 0 .893-.11 1.16-.33.267-.22.4-.547.4-.98 0-.427-.133-.747-.4-.96-.267-.213-.653-.32-1.16-.32h-1.58v2.59zm6.223-3.76h1.34v7h-1.34v-7zm7.59 1.35c-.338-.16-.68-.24-1.026-.24-.434 0-.83.103-1.19.31-.36.207-.644.492-.85.855-.207.363-.31.762-.31 1.195 0 .433.103.832.31 1.195.206.363.49.65.85.86.36.21.756.315 1.19.315.333 0 .668-.073 1.005-.22.336-.147.635-.35.895-.61l.79.88c-.367.373-.794.668-1.28.885-.487.217-.98.325-1.48.325-.674 0-1.29-.16-1.85-.48-.56-.32-1-.755-1.32-1.305-.32-.55-.48-1.158-.48-1.825s.163-1.273.49-1.82c.326-.547.77-.977 1.335-1.29.563-.313 1.188-.47 1.875-.47.5 0 .99.1 1.47.3.48.2.89.477 1.23.83l-.78.98c-.247-.287-.54-.51-.875-.67zM134.17 19h5.13v1.17h-3.79v1.73h3.4v1.17h-3.4v1.76h3.91V26h-5.25v-7z"/><path fill="#201C38" d="M87.1 38.83c-.607-.288-1.222-.432-1.846-.432-.78 0-1.494.186-2.142.558-.648.372-1.158.885-1.53 1.54-.372.653-.558 1.37-.558 2.15 0 .78.186 1.497.558 2.15.372.655.882 1.17 1.53 1.55.648.377 1.362.566 2.142.566.6 0 1.203-.132 1.81-.396.605-.264 1.142-.63 1.61-1.098l1.422 1.584c-.66.672-1.428 1.203-2.304 1.593-.876.39-1.764.585-2.664.585-1.212 0-2.322-.288-3.33-.864-1.008-.576-1.8-1.36-2.376-2.35-.576-.99-.864-2.084-.864-3.284 0-1.2.294-2.292.882-3.276.588-.984 1.39-1.758 2.403-2.322 1.014-.564 2.14-.846 3.375-.846.9 0 1.782.18 2.646.54.864.36 1.602.858 2.214 1.494l-1.404 1.764c-.444-.516-.97-.918-1.575-1.206zm12.083 1.08c.762.408 1.356.98 1.782 1.72.426.737.64 1.586.64 2.546 0 .972-.214 1.83-.64 2.574-.426.744-1.02 1.32-1.782 1.728-.762.408-1.64.612-2.637.612-1.008 0-1.896-.204-2.664-.612-.768-.408-1.365-.984-1.79-1.728-.427-.744-.64-1.602-.64-2.574 0-.96.213-1.81.64-2.547.425-.74 1.022-1.312 1.79-1.72.768-.408 1.656-.612 2.664-.612.996 0 1.875.204 2.637.612zm-4.617 2.196c-.504.54-.756 1.242-.756 2.106 0 .864.252 1.566.756 2.106.504.54 1.164.81 1.98.81.792 0 1.44-.27 1.944-.81s.756-1.242.756-2.106c0-.864-.252-1.566-.756-2.106-.504-.54-1.152-.81-1.944-.81-.816 0-1.476.27-1.98.81zm9.762-6.462h2.34V49h-2.34V35.644zM115.962 49v-1.17c-.336.42-.768.738-1.296.954-.528.216-1.134.324-1.818.324-.672 0-1.263-.13-1.773-.387s-.903-.614-1.18-1.07c-.275-.456-.413-.966-.413-1.53 0-.9.318-1.605.954-2.115.636-.51 1.536-.77 2.7-.783h2.808v-.252c0-.564-.186-1.002-.558-1.314-.372-.312-.912-.468-1.62-.468-.912 0-1.866.3-2.862.9l-.846-1.62c.756-.42 1.443-.723 2.06-.91.62-.185 1.342-.278 2.17-.278 1.248 0 2.217.3 2.907.9.69.6 1.04 1.44 1.053 2.52l.018 6.3h-2.304zm-.828-2.17c.48-.317.75-.71.81-1.178v-.864h-2.43c-.624 0-1.083.093-1.377.28-.294.185-.44.488-.44.908 0 .408.152.732.458.972.306.24.723.36 1.25.36.673 0 1.25-.16 1.73-.477zm17.39-8.108c-.677-.216-1.274-.324-1.79-.324-.576 0-1.032.108-1.368.324-.336.216-.504.516-.504.9 0 .348.117.64.35.873.235.234.53.426.883.576.354.15.837.316 1.45.496.85.252 1.55.504 2.096.756.547.252 1.012.624 1.396 1.116.384.492.576 1.14.576 1.944 0 .768-.207 1.437-.62 2.007-.415.57-.985 1.004-1.71 1.304-.727.3-1.558.45-2.494.45-.984 0-1.944-.183-2.88-.55-.936-.365-1.752-.854-2.448-1.466l1.008-2.052c.636.588 1.35 1.05 2.142 1.386.792.336 1.53.504 2.214.504.672 0 1.2-.13 1.584-.387.384-.26.576-.61.576-1.054 0-.36-.117-.657-.35-.89-.235-.235-.532-.424-.892-.568-.36-.144-.852-.306-1.476-.486-.852-.252-1.548-.498-2.088-.738s-1.002-.603-1.386-1.09c-.384-.485-.576-1.124-.576-1.916 0-.732.195-1.37.585-1.917.39-.545.943-.968 1.657-1.268.714-.3 1.54-.45 2.475-.45.816 0 1.623.12 2.42.36.8.24 1.51.564 2.134.972l-.972 2.106c-.648-.396-1.31-.702-1.99-.918zm12.733 1.188c.762.408 1.356.98 1.782 1.72.425.737.638 1.586.638 2.546 0 .972-.213 1.83-.64 2.574-.425.744-1.02 1.32-1.78 1.728-.763.408-1.642.612-2.638.612-1.008 0-1.896-.204-2.664-.612-.768-.408-1.365-.984-1.79-1.728-.427-.744-.64-1.602-.64-2.574 0-.96.213-1.81.64-2.547.425-.74 1.022-1.312 1.79-1.72.768-.408 1.656-.612 2.664-.612.996 0 1.875.204 2.637.612zm-4.617 2.196c-.504.54-.756 1.242-.756 2.106 0 .864.252 1.566.756 2.106.504.54 1.164.81 1.98.81.792 0 1.44-.27 1.944-.81s.756-1.242.756-2.106c0-.864-.252-1.566-.756-2.106-.504-.54-1.152-.81-1.944-.81-.816 0-1.476.27-1.98.81zm18.96-6.462V49h-2.34v-1.548c-.348.54-.795.95-1.34 1.233-.547.282-1.18.423-1.9.423-.912 0-1.713-.207-2.403-.62-.69-.415-1.227-.997-1.61-1.747-.385-.75-.577-1.61-.577-2.582 0-.96.19-1.81.567-2.547.378-.737.912-1.31 1.602-1.718.69-.408 1.478-.612 2.366-.612.732 0 1.374.144 1.926.432.552.288 1.008.702 1.368 1.242v-5.31h2.34zm-3.105 10.683c.51-.546.765-1.25.765-2.115 0-.864-.255-1.57-.765-2.115-.51-.546-1.167-.82-1.97-.82-.805 0-1.46.274-1.963.82-.504.546-.762 1.25-.774 2.115.012.864.27 1.57.774 2.115.504.546 1.158.82 1.962.82s1.46-.274 1.97-.82zm12.4 2.673v-1.17c-.337.42-.77.738-1.297.954-.528.216-1.134.324-1.818.324-.672 0-1.263-.13-1.773-.387s-.903-.614-1.18-1.07c-.275-.456-.413-.966-.413-1.53 0-.9.318-1.605.954-2.115.636-.51 1.536-.77 2.7-.783h2.808v-.252c0-.564-.186-1.002-.558-1.314-.372-.312-.912-.468-1.62-.468-.912 0-1.866.3-2.862.9l-.846-1.62c.756-.42 1.443-.723 2.06-.91.62-.185 1.342-.278 2.17-.278 1.248 0 2.217.3 2.907.9.69.6 1.04 1.44 1.053 2.52l.018 6.3h-2.304zm-.83-2.17c.48-.317.75-.71.81-1.178v-.864h-2.43c-.623 0-1.082.093-1.376.28-.295.185-.442.488-.442.908 0 .408.153.732.46.972.305.24.722.36 1.25.36.672 0 1.248-.16 1.728-.477z"/><path fill="#A6B0D8" d="M337.86 34.495c.233.234.527.426.88.576.355.15.838.316 1.45.496.852.252 1.55.504 2.097.756.546.252 1.01.624 1.395 1.116.384.492.576 1.14.576 1.944 0 1.02-.354 1.857-1.062 2.51-.708.655-1.644 1.054-2.808 1.198v2.52h-1.782v-2.502c-.84-.096-1.653-.318-2.44-.666-.785-.348-1.472-.786-2.06-1.314l1.008-2.052c.636.588 1.35 1.05 2.142 1.386.792.336 1.53.504 2.214.504.672 0 1.2-.13 1.584-.387.384-.26.576-.61.576-1.054 0-.36-.117-.657-.35-.89-.235-.235-.532-.424-.892-.568-.36-.144-.852-.306-1.476-.486-.852-.252-1.548-.498-2.088-.738s-1.002-.603-1.386-1.09c-.384-.485-.576-1.124-.576-1.916 0-.96.336-1.758 1.008-2.394.672-.636 1.584-1.032 2.736-1.188v-2.34l1.782-.018v2.34c.684.072 1.35.222 1.998.45.648.228 1.23.51 1.746.846l-.972 2.106c-.648-.396-1.31-.702-1.99-.918-.677-.216-1.274-.324-1.79-.324-.576 0-1.032.108-1.368.324-.336.216-.504.516-.504.9 0 .348.117.64.35.873zm18.122-2.547c.936 1.104 1.404 2.688 1.404 4.752 0 2.052-.468 3.63-1.404 4.734-.936 1.104-2.274 1.656-4.014 1.656-1.74 0-3.078-.552-4.014-1.656-.936-1.104-1.404-2.682-1.404-4.734 0-2.064.468-3.648 1.404-4.752.936-1.104 2.274-1.656 4.014-1.656 1.74 0 3.078.552 4.014 1.656zm-6.228 1.34c-.48.727-.72 1.864-.72 3.412 0 1.536.24 2.67.72 3.402.48.732 1.218 1.098 2.214 1.098s1.734-.366 2.214-1.098c.48-.732.72-1.866.72-3.402 0-1.548-.24-2.685-.72-3.41-.48-.727-1.218-1.09-2.214-1.09s-1.734.363-2.214 1.09zm12.057 7.642c.235.24.352.546.352.918 0 .384-.117.7-.35.945-.235.246-.532.37-.892.37-.348 0-.64-.127-.873-.38-.234-.25-.35-.563-.35-.935 0-.372.116-.678.35-.918.234-.24.525-.36.873-.36.36 0 .657.12.89.36zm9.727-8.47c-.486-.137-.975-.206-1.467-.206-1.128 0-1.977.378-2.547 1.134-.57.756-.837 1.788-.8 3.096.323-.552.764-.97 1.322-1.25.558-.283 1.22-.424 1.99-.424 1.247 0 2.237.366 2.97 1.098.73.732 1.097 1.71 1.097 2.934 0 .864-.186 1.617-.558 2.26-.372.64-.897 1.136-1.575 1.484-.68.348-1.468.522-2.368.522-1.068 0-1.992-.246-2.772-.738-.78-.492-1.377-1.2-1.79-2.124-.415-.924-.622-2.028-.622-3.312 0-1.332.225-2.5.675-3.5.45-1.003 1.09-1.777 1.917-2.323.828-.545 1.8-.818 2.916-.818.648 0 1.317.087 2.007.26.69.175 1.293.412 1.81.712l-.92 1.8c-.37-.264-.8-.465-1.286-.603zm-3.807 4.852c-.456.432-.678.966-.666 1.602-.012.36.072.705.252 1.035.18.33.453.6.82.81.365.21.818.314 1.358.314.72 0 1.296-.198 1.728-.594.432-.396.648-.948.648-1.656 0-.66-.207-1.185-.62-1.575-.415-.39-.976-.586-1.684-.586-.768 0-1.38.216-1.836.648zm16.008-1.818c.72.324 1.275.777 1.665 1.36.39.58.585 1.238.585 1.97 0 .852-.204 1.602-.612 2.25-.408.648-.984 1.15-1.728 1.503-.744.354-1.608.53-2.592.53-.792 0-1.617-.134-2.475-.404-.857-.27-1.616-.633-2.276-1.09l.954-1.89c.54.42 1.116.748 1.728.982.612.234 1.224.35 1.836.35.792 0 1.42-.182 1.88-.548.463-.366.694-.867.694-1.503 0-.612-.228-1.086-.684-1.422-.456-.336-1.134-.504-2.034-.504-.432 0-1.002.015-1.71.045s-1.254.063-1.638.1V30.4h8.1v2.106h-5.868v2.502h1.674c.948 0 1.782.162 2.502.486z"/></g><g transform="translate(0 216)"><use fill="#000" filter="url(#g)" xlink:href="#h"/><use fill="#FFF" xlink:href="#h"/><path fill="#A6B0D8" d="M83.24 26l-1.21-2.07c-.053.007-.137.01-.25.01H80.2V26h-1.34v-7h2.92c.907 0 1.607.21 2.1.63.493.42.74 1.013.74 1.78 0 .547-.118 1.013-.355 1.4s-.582.677-1.035.87L84.77 26h-1.53zm-3.04-3.24h1.58c.507 0 .893-.11 1.16-.33.267-.22.4-.547.4-.98 0-.427-.133-.747-.4-.96-.267-.213-.653-.32-1.16-.32H80.2v2.59zM86.423 19h5.13v1.17h-3.79v1.73h3.4v1.17h-3.4v1.76h3.91V26h-5.25v-7zm11.14 1.35c-.338-.16-.68-.24-1.026-.24-.434 0-.83.103-1.19.31-.36.207-.644.492-.85.855-.207.363-.31.762-.31 1.195 0 .433.103.832.31 1.195.206.363.49.65.85.86.36.21.756.315 1.19.315.333 0 .668-.073 1.005-.22.336-.147.635-.35.895-.61l.79.88c-.367.373-.794.668-1.28.885-.487.217-.98.325-1.48.325-.674 0-1.29-.16-1.85-.48-.56-.32-1-.755-1.32-1.305-.32-.55-.48-1.158-.48-1.825s.163-1.273.49-1.82c.326-.547.77-.977 1.335-1.29.563-.313 1.188-.47 1.875-.47.5 0 .99.1 1.47.3.48.2.89.477 1.23.83l-.78.98c-.247-.287-.54-.51-.875-.67zm8.032-.97c.57.313 1.018.743 1.345 1.29.327.547.49 1.153.49 1.82s-.163 1.275-.49 1.825c-.327.55-.775.985-1.345 1.305-.57.32-1.202.48-1.895.48-.693 0-1.325-.16-1.895-.48-.57-.32-1.018-.755-1.345-1.305-.327-.55-.49-1.158-.49-1.825s.163-1.273.49-1.82c.327-.547.775-.977 1.345-1.29.57-.313 1.202-.47 1.895-.47.693 0 1.325.157 1.895.47zm-3.065 1.045c-.367.21-.657.497-.87.86-.213.363-.32.765-.32 1.205 0 .44.108.843.325 1.21.217.367.507.657.87.87.363.213.758.32 1.185.32.42 0 .81-.107 1.17-.32.36-.213.645-.503.855-.87.21-.367.315-.77.315-1.21 0-.44-.105-.842-.315-1.205-.21-.363-.495-.65-.855-.86-.36-.21-.75-.315-1.17-.315-.427 0-.823.105-1.19.315zM108.943 19h1.53l2.32 4.51 2.3-4.51h1.53v7h-1.23v-5.02l-2.18 4.3h-.86l-2.19-4.3V26h-1.22v-7zm9.734 0h1.53l2.32 4.51 2.3-4.51h1.53v7h-1.23v-5.02l-2.18 4.3h-.86l-2.19-4.3V26h-1.22v-7zm9.733 0h5.13v1.17h-3.79v1.73h3.4v1.17h-3.4v1.76h3.91V26h-5.25v-7zm11.823 0h1.3v7h-1.27l-3.6-4.82V26h-1.31v-7h1.27l3.61 4.83V19zm8.144.445c.553.297.986.712 1.3 1.245.313.533.47 1.137.47 1.81s-.16 1.275-.475 1.805c-.317.53-.755.945-1.315 1.245-.56.3-1.197.45-1.91.45h-2.86v-7h2.91c.7 0 1.326.148 1.88.445zm-.695 5.08c.343-.197.61-.47.805-.82.193-.35.29-.748.29-1.195 0-.447-.1-.848-.3-1.205-.2-.357-.475-.633-.825-.83-.35-.197-.742-.295-1.175-.295h-1.55v4.64h1.6c.426 0 .81-.098 1.155-.295zM151.65 19h5.13v1.17h-3.79v1.73h3.4v1.17h-3.4v1.76h3.91V26h-5.25v-7zm11.733.445c.554.297.987.712 1.3 1.245.314.533.47 1.137.47 1.81s-.158 1.275-.475 1.805c-.316.53-.755.945-1.315 1.245-.56.3-1.196.45-1.91.45h-2.86v-7h2.91c.7 0 1.327.148 1.88.445zm-.695 5.08c.344-.197.612-.47.805-.82.194-.35.29-.748.29-1.195 0-.447-.1-.848-.3-1.205-.2-.357-.475-.633-.825-.83-.35-.197-.74-.295-1.175-.295h-1.55v4.64h1.6c.427 0 .812-.098 1.155-.295zM169.44 19h4.83l-.01 1.17h-3.48v1.89h3.17v1.17h-3.17V26h-1.34v-7zm11.238.38c.57.313 1.02.743 1.345 1.29.327.547.49 1.153.49 1.82s-.163 1.275-.49 1.825c-.326.55-.775.985-1.345 1.305-.57.32-1.2.48-1.895.48-.693 0-1.325-.16-1.895-.48-.57-.32-1.018-.755-1.345-1.305-.326-.55-.49-1.158-.49-1.825s.164-1.273.49-1.82c.327-.547.775-.977 1.345-1.29.57-.313 1.202-.47 1.895-.47.694 0 1.325.157 1.895.47zm-3.065 1.045c-.366.21-.656.497-.87.86-.213.363-.32.765-.32 1.205 0 .44.11.843.325 1.21.217.367.507.657.87.87.364.213.76.32 1.185.32.42 0 .81-.107 1.17-.32.36-.213.645-.503.855-.87.21-.367.315-.77.315-1.21 0-.44-.105-.842-.315-1.205-.21-.363-.495-.65-.855-.86-.36-.21-.75-.315-1.17-.315-.426 0-.823.105-1.19.315zM188.407 26l-1.21-2.07c-.054.007-.137.01-.25.01h-1.58V26h-1.34v-7h2.92c.906 0 1.606.21 2.1.63.493.42.74 1.013.74 1.78 0 .547-.12 1.013-.355 1.4-.237.387-.582.677-1.035.87l1.54 2.32h-1.53zm-3.04-3.24h1.58c.506 0 .893-.11 1.16-.33.266-.22.4-.547.4-.98 0-.427-.134-.747-.4-.96-.267-.213-.654-.32-1.16-.32h-1.58v2.59zM200.003 19l-2.55 4.71V26h-1.34v-2.24l-2.61-4.76h1.36l1.91 3.29 1.88-3.29h1.35zm6.01.38c.57.313 1.017.743 1.344 1.29.326.547.49 1.153.49 1.82s-.164 1.275-.49 1.825c-.327.55-.775.985-1.345 1.305-.57.32-1.202.48-1.895.48-.694 0-1.325-.16-1.895-.48-.57-.32-1.02-.755-1.345-1.305-.327-.55-.49-1.158-.49-1.825s.163-1.273.49-1.82c.326-.547.775-.977 1.345-1.29.57-.313 1.2-.47 1.895-.47.693 0 1.325.157 1.895.47zm-3.066 1.045c-.367.21-.657.497-.87.86-.214.363-.32.765-.32 1.205 0 .44.108.843.325 1.21.216.367.506.657.87.87.363.213.758.32 1.185.32.42 0 .81-.107 1.17-.32.36-.213.645-.503.855-.87.21-.367.315-.77.315-1.21 0-.44-.105-.842-.315-1.205-.21-.363-.495-.65-.855-.86-.36-.21-.75-.315-1.17-.315-.427 0-.824.105-1.19.315zm8.093 3.995c.313.313.733.47 1.26.47s.942-.157 1.245-.47c.303-.313.455-.747.455-1.3V19h1.34v4.12c0 .607-.123 1.135-.37 1.585-.247.45-.598.795-1.055 1.035-.457.24-.995.36-1.615.36-.627 0-1.172-.12-1.635-.36-.463-.24-.818-.585-1.065-1.035-.247-.45-.37-.978-.37-1.585V19h1.34v4.12c0 .553.157.987.47 1.3z"/><path fill="#201C38" d="M79.548 36.4h2.412v10.422h5.436V49h-7.848V36.4zm17.727 4.212c.774.876 1.16 2.106 1.16 3.69 0 .312-.005.546-.017.702h-7.11c.156.684.477 1.22.963 1.61.487.39 1.084.586 1.792.586.492 0 .963-.093 1.413-.28.45-.185.843-.452 1.18-.8l1.26 1.314c-.48.528-1.066.936-1.756 1.224-.69.288-1.456.432-2.296.432-.984 0-1.85-.204-2.6-.612-.75-.408-1.33-.98-1.738-1.72-.408-.737-.612-1.586-.612-2.546 0-.96.207-1.812.62-2.556.415-.744.994-1.323 1.738-1.737.744-.415 1.59-.622 2.538-.622 1.536 0 2.69.438 3.465 1.314zm-.98 2.826c-.025-.708-.26-1.272-.703-1.692-.444-.42-1.032-.63-1.764-.63-.684 0-1.257.207-1.72.62-.46.415-.746.982-.854 1.702h5.04zm19.95-3.16c.623.667.935 1.57.935 2.71V49h-2.358v-5.328c0-.684-.19-1.22-.567-1.61-.378-.39-.89-.586-1.54-.586-.743.024-1.334.294-1.772.81-.438.516-.657 1.17-.657 1.962V49h-2.358v-5.328c0-.684-.186-1.22-.558-1.61-.372-.39-.882-.586-1.53-.586-.756.024-1.353.294-1.79.81-.44.516-.658 1.17-.658 1.962V49h-2.34v-9.63h2.34v1.782c.636-1.224 1.764-1.848 3.384-1.872.84 0 1.545.2 2.115.603.57.402.97.97 1.198 1.7.612-1.51 1.806-2.28 3.582-2.303 1.092 0 1.95.333 2.574 1zm10.994-.368c.76.408 1.355.98 1.78 1.72.427.737.64 1.586.64 2.546 0 .972-.213 1.83-.64 2.574-.425.744-1.02 1.32-1.78 1.728-.763.408-1.642.612-2.638.612-1.008 0-1.896-.204-2.664-.612-.768-.408-1.365-.984-1.79-1.728-.427-.744-.64-1.602-.64-2.574 0-.96.213-1.81.64-2.547.425-.74 1.022-1.312 1.79-1.72.768-.408 1.656-.612 2.664-.612.996 0 1.875.204 2.637.612zm-4.618 2.196c-.504.54-.756 1.242-.756 2.106 0 .864.252 1.566.756 2.106.504.54 1.164.81 1.98.81.792 0 1.44-.27 1.944-.81s.756-1.242.756-2.106c0-.864-.252-1.566-.756-2.106-.504-.54-1.152-.81-1.944-.81-.816 0-1.476.27-1.98.81zM140.7 40.28c.636.665.954 1.568.954 2.708V49h-2.358v-5.328c0-.672-.192-1.203-.576-1.593-.384-.39-.906-.586-1.566-.586-.78.012-1.395.276-1.845.792-.45.516-.676 1.176-.676 1.98V49h-2.34v-9.63h2.34v1.8c.66-1.236 1.812-1.866 3.456-1.89 1.104 0 1.974.333 2.61 1zm15.213-1.558c-.678-.216-1.275-.324-1.79-.324-.577 0-1.033.108-1.37.324-.335.216-.503.516-.503.9 0 .348.117.64.35.873.235.234.53.426.883.576.354.15.837.316 1.45.496.85.252 1.55.504 2.096.756.545.252 1.01.624 1.394 1.116.384.492.576 1.14.576 1.944 0 .768-.207 1.437-.62 2.007-.415.57-.985 1.004-1.71 1.304-.727.3-1.558.45-2.494.45-.984 0-1.944-.183-2.88-.55-.936-.365-1.752-.854-2.448-1.466l1.008-2.052c.636.588 1.35 1.05 2.142 1.386.792.336 1.53.504 2.214.504.672 0 1.2-.13 1.584-.387.384-.26.576-.61.576-1.054 0-.36-.117-.657-.35-.89-.235-.235-.532-.424-.892-.568-.36-.144-.852-.306-1.476-.486-.852-.252-1.548-.498-2.088-.738s-1.002-.603-1.386-1.09c-.384-.485-.576-1.124-.576-1.916 0-.732.195-1.37.585-1.917.39-.545.94-.968 1.655-1.268.714-.3 1.54-.45 2.475-.45.816 0 1.623.12 2.42.36.8.24 1.51.564 2.134.972l-.972 2.106c-.648-.396-1.31-.702-1.99-.918zm12.732 1.188c.762.408 1.356.98 1.782 1.72.426.737.64 1.586.64 2.546 0 .972-.214 1.83-.64 2.574-.426.744-1.02 1.32-1.782 1.728-.762.408-1.64.612-2.637.612-1.008 0-1.896-.204-2.664-.612-.768-.408-1.365-.984-1.79-1.728-.427-.744-.64-1.602-.64-2.574 0-.96.213-1.81.64-2.547.425-.74 1.022-1.312 1.79-1.72.768-.408 1.656-.612 2.664-.612.996 0 1.875.204 2.637.612zm-4.617 2.196c-.504.54-.756 1.242-.756 2.106 0 .864.252 1.566.756 2.106.504.54 1.164.81 1.98.81.792 0 1.44-.27 1.944-.81s.756-1.242.756-2.106c0-.864-.252-1.566-.756-2.106-.504-.54-1.152-.81-1.944-.81-.816 0-1.476.27-1.98.81zm18.96-6.462V49h-2.34v-1.548c-.348.54-.795.95-1.34 1.233-.547.282-1.18.423-1.9.423-.912 0-1.713-.207-2.403-.62-.69-.415-1.227-.997-1.61-1.747-.385-.75-.577-1.61-.577-2.582 0-.96.19-1.81.567-2.547.378-.737.912-1.31 1.602-1.718.69-.408 1.48-.612 2.367-.612.732 0 1.374.144 1.926.432.552.288 1.008.702 1.368 1.242v-5.31h2.34zm-3.105 10.683c.51-.546.765-1.25.765-2.115 0-.864-.255-1.57-.765-2.115-.51-.546-1.167-.82-1.97-.82-.805 0-1.46.274-1.963.82-.504.546-.762 1.25-.774 2.115.012.864.27 1.57.774 2.115.504.546 1.158.82 1.962.82s1.46-.274 1.97-.82zm12.4 2.673v-1.17c-.337.42-.77.738-1.297.954-.528.216-1.134.324-1.818.324-.672 0-1.263-.13-1.773-.387s-.903-.614-1.18-1.07c-.275-.456-.413-.966-.413-1.53 0-.9.318-1.605.954-2.115.636-.51 1.536-.77 2.7-.783h2.808v-.252c0-.564-.186-1.002-.558-1.314-.372-.312-.912-.468-1.62-.468-.912 0-1.866.3-2.862.9l-.846-1.62c.756-.42 1.443-.723 2.06-.91.62-.185 1.342-.278 2.17-.278 1.248 0 2.217.3 2.907.9.69.6 1.04 1.44 1.053 2.52l.018 6.3h-2.304zm-.83-2.17c.48-.317.75-.71.81-1.178v-.864h-2.43c-.623 0-1.082.093-1.376.28-.294.185-.44.488-.44.908 0 .408.152.732.458.972.306.24.723.36 1.25.36.673 0 1.25-.16 1.73-.477z"/><path fill="#A6B0D8" d="M340.298 34.495c.234.234.528.426.882.576.354.15.837.316 1.45.496.85.252 1.55.504 2.096.756s1.01.624 1.395 1.116c.385.492.577 1.14.577 1.944 0 1.02-.354 1.857-1.062 2.51-.708.655-1.644 1.054-2.808 1.198v2.52h-1.782v-2.502c-.84-.096-1.653-.318-2.44-.666-.785-.348-1.472-.786-2.06-1.314l1.008-2.052c.636.588 1.35 1.05 2.142 1.386.792.336 1.53.504 2.214.504.67 0 1.2-.13 1.583-.387.384-.26.576-.61.576-1.054 0-.36-.118-.657-.352-.89-.234-.235-.53-.424-.89-.568-.36-.144-.853-.306-1.477-.486-.85-.252-1.547-.498-2.087-.738-.54-.24-1.002-.603-1.386-1.09-.384-.485-.576-1.124-.576-1.916 0-.96.337-1.758 1.01-2.394.67-.636 1.583-1.032 2.735-1.188v-2.34l1.782-.018v2.34c.684.072 1.35.222 1.998.45.648.228 1.23.51 1.746.846l-.97 2.106c-.65-.396-1.312-.702-1.99-.918-.678-.216-1.275-.324-1.79-.324-.577 0-1.033.108-1.37.324-.335.216-.503.516-.503.9 0 .348.117.64.35.873zm7.755-4.095h5.058V43h-2.41V32.524h-2.647V30.4zm10.365 10.53c.234.24.35.546.35.918 0 .384-.116.7-.35.945-.234.246-.53.37-.89.37-.35 0-.64-.127-.874-.38-.234-.25-.35-.563-.35-.935 0-.372.116-.678.35-.918.234-.24.525-.36.873-.36.36 0 .657.12.89.36zm12.13-8.982c.935 1.104 1.403 2.688 1.403 4.752 0 2.052-.467 3.63-1.403 4.734-.936 1.104-2.274 1.656-4.014 1.656-1.74 0-3.078-.552-4.014-1.656-.937-1.104-1.405-2.682-1.405-4.734 0-2.064.468-3.648 1.404-4.752.935-1.104 2.273-1.656 4.013-1.656 1.74 0 3.078.552 4.014 1.656zm-6.23 1.34c-.48.727-.72 1.864-.72 3.412 0 1.536.24 2.67.72 3.402.48.732 1.22 1.098 2.215 1.098.996 0 1.734-.366 2.214-1.098.48-.732.72-1.866.72-3.402 0-1.548-.24-2.685-.72-3.41-.48-.727-1.218-1.09-2.214-1.09s-1.734.363-2.214 1.09zm19.375 4.672v2.07h-1.818V43h-2.232v-2.97h-6.03v-1.782l4.104-7.848h2.322l-3.853 7.56h3.456v-2.916h2.232v2.916h1.818z"/></g><path fill="#C3CCE5" d="M35.088 68.898h11.795v-.937h-8.195"/><path fill="#E8ECF9" d="M45.127 66.293l-6.44 1.668h8.196v-.38c0-.878-.878-1.52-1.756-1.287z"/><path fill="url(#i)" d="M26.166 29.795c-6.966 0-12.615-5.648-12.615-12.614 0-6.965 5.65-12.614 12.616-12.614 3.834 0 7.288 1.727 9.6 4.45V.087H.234v34.45h35.532v-9.162c-2.312 2.693-5.766 4.42-9.6 4.42z" transform="translate(23 77.122)"/><path fill="url(#j)" d="M26.166 4.566c-6.966 0-12.615 5.65-12.615 12.615 0 6.967 5.65 12.615 12.616 12.615 3.834 0 7.288-1.726 9.6-4.448V9.015c-2.312-2.722-5.766-4.45-9.6-4.45z" transform="translate(23 77.122)"/><path fill="#FFF" d="M49.166 81.688c-6.966 0-12.615 5.65-12.615 12.615 0 6.966 5.65 12.614 12.616 12.614 3.834 0 7.288-1.726 9.6-4.448V86.136c-2.312-2.722-5.766-4.45-9.6-4.45z" opacity=".4"/><path fill="url(#k)" d="M2.517.937L.234 5.62h35.532L33.454.937" transform="translate(23 71.56)"/><path fill="url(#l)" d="M33.015.06H2.955l-.438.877h30.937" transform="translate(23 71.56)"/><path fill="#1F3C7C" opacity=".1" d="M56.015 71.62h-30.06l-.438.877h30.937"/><path fill="url(#m)" d="M18.498 45.66H.234V11.21h18.293c3.893 0 7.024 3.16 7.024 7.024v20.37c0 3.894-3.16 7.055-7.052 7.055z" opacity=".3" transform="translate(23 66)"/><path fill="#E8ECF9" d="M23.234 111.63l1.903 3.863c.146.264.322.527.497.732.556.615 1.376.966 2.225.966H54.14c.85 0 1.668-.35 2.224-.965.205-.205.38-.468.498-.732l1.902-3.863H23.234zm32.664-42.732H26.073c-.732 0-1.317.614-1.317 1.346 0 .732.615 1.346 1.346 1.346h29.796c.732 0 1.346-.614 1.346-1.346 0-.732-.614-1.346-1.346-1.346z"/><path fill="#C3CCE5" d="M48.112 111.63l-1.902 3.863c-.146.264-.322.527-.498.732-.556.615-1.375.966-2.224.966h10.654c.85 0 1.668-.35 2.224-.965.205-.205.38-.468.498-.732l1.902-3.863H48.112zm7.786-42.732h-8.4c.732 0 1.346.614 1.346 1.346 0 .732-.614 1.346-1.346 1.346h8.4c.732 0 1.346-.614 1.346-1.346 0-.732-.614-1.346-1.346-1.346z"/><path fill="#FFF" d="M27.654 96.088c-1.054 0-1.932-.878-1.932-1.932v-13.14c0-1.055.878-1.933 1.932-1.933 1.053 0 1.93.878 1.93 1.932v13.14c-.028 1.084-.877 1.933-1.93 1.933zm0 11.327c-1.054 0-1.932-.878-1.932-1.932v-5.414c0-1.055.878-1.933 1.932-1.933 1.053 0 1.93.878 1.93 1.932v5.413c-.028 1.054-.877 1.932-1.93 1.932z"/><g><path fill="url(#n)" d="M19.64 19.99c-.528 0-.967-.44-.967-.965v-2.342c0-.527.44-.966.966-.966h16.097v-2.224H15.425c-.76 0-1.376-.615-1.376-1.376V6.293c0-.76.614-1.376 1.375-1.376h20.312V.087H.205v34.45h35.532v-8.225H19.64c-.528 0-.967-.44-.967-.965v-2.342c0-.527.44-.966.966-.966h16.097v-2.05H19.64z" transform="translate(24 158.122)"/><path fill="url(#o)" d="M14.05 6.293v5.795c0 .76.614 1.376 1.375 1.376h20.312V4.946H15.425c-.76 0-1.376.615-1.376 1.347z" transform="translate(24 158.122)"/><path fill="#FFF" d="M38.05 164.415v5.795c0 .76.614 1.376 1.375 1.376h20.312v-8.518H39.425c-.76 0-1.376.615-1.376 1.347z" opacity=".4"/><path fill="url(#p)" d="M18.673 16.683v2.342c0 .526.44.965.966.965h16.097v-4.273H19.64c-.528 0-.967.41-.967.966z" transform="translate(24 158.122)"/><path fill="#FFF" d="M42.673 174.805v2.342c0 .526.44.965.966.965h16.097v-4.273H43.64c-.528 0-.967.41-.967.965z" opacity=".4"/><path fill="url(#q)" d="M18.673 23.005v2.342c0 .526.44.965.966.965h16.097V22.04H19.64c-.528 0-.967.41-.967.965z" transform="translate(24 158.122)"/><path fill="#FFF" d="M42.673 181.127v2.342c0 .525.44.964.966.964h16.097v-4.273H43.64c-.528 0-.967.41-.967.967z" opacity=".4"/><g><path fill="#C3CCE5" d="M36.06 149.898h11.823v-.937H39.66"/><path fill="#E8ECF9" d="M46.098 147.293l-6.44 1.668h8.196v-.38c.03-.878-.85-1.52-1.756-1.287z"/></g><g><path fill="url(#r)" d="M33.425.937l-.44-.878H2.928l-.44.877L.206 5.62h35.532" transform="translate(24 152.56)"/><path fill="#1F3C7C" opacity=".1" d="M56.986 152.62h-30.06l-.438.877h30.937"/></g><path fill="url(#s)" d="M18.468 45.66H.205V11.21h18.293c3.892 0 7.024 3.16 7.024 7.024v20.37c0 3.894-3.16 7.055-7.054 7.055z" opacity=".3" transform="translate(24 147)"/><path fill="#E8ECF9" d="M24.205 192.63l1.902 3.863c.147.264.322.527.498.732.556.615 1.376.966 2.224.966H55.11c.85 0 1.67-.35 2.225-.965.205-.205.38-.468.497-.732l1.903-3.863H24.205zm32.664-42.732H27.072c-.732 0-1.346.614-1.346 1.346 0 .732.614 1.346 1.346 1.346H56.87c.73 0 1.345-.614 1.345-1.346 0-.732-.615-1.346-1.346-1.346z"/><path fill="#C3CCE5" d="M49.083 192.63l-1.902 3.863c-.146.264-.32.527-.497.732-.556.615-1.375.966-2.224.966H55.11c.85 0 1.67-.35 2.225-.965.205-.205.38-.468.497-.732l1.903-3.863H49.083zm7.786-42.732h-8.4c.73 0 1.345.614 1.345 1.346 0 .732-.615 1.346-1.346 1.346h8.4c.73 0 1.345-.614 1.345-1.346 0-.732-.615-1.346-1.346-1.346z"/><path fill="#FFF" d="M28.624 177.088c-1.053 0-1.93-.878-1.93-1.932v-13.14c0-1.055.877-1.933 1.93-1.933 1.054 0 1.932.878 1.932 1.932v13.14c0 1.084-.878 1.933-1.932 1.933zm0 11.327c-1.053 0-1.93-.878-1.93-1.932v-5.414c0-1.055.877-1.933 1.93-1.933 1.054 0 1.932.878 1.932 1.932v5.413c0 1.054-.878 1.932-1.932 1.932z"/></g><g><path fill="url(#t)" d="M21.925 24.227l-5.135-4.78c-1.298-1.21-1.298-3.247 0-4.457l5.135-4.78c.56-.53 1.298-.826 2.065-.826H36v-1.24H26.882c-1.092-.118-1.092-1.71 0-1.83H36V.12H.177V34.82H36v-9.767H23.99c-.767 0-1.504-.295-2.065-.826z" transform="translate(23 237.213)"/><path fill="url(#u)" d="M23.99 9.384c-.767 0-1.504.295-2.065.826l-5.135 4.78c-1.298 1.21-1.298 3.246 0 4.456l5.135 4.78c.56.532 1.298.827 2.065.827H36V9.383H23.99z" transform="translate(23 237.213)"/><path fill="#FFF" d="M46.99 246.597c-.767 0-1.504.295-2.065.826l-5.135 4.78c-1.298 1.21-1.298 3.246 0 4.456l5.135 4.78c.56.53 1.298.826 2.065.826H59v-15.67H46.99z" opacity=".4"/><path fill="url(#v)" d="M26.882 6.285c-1.092.118-1.092 1.712 0 1.83H36v-1.86h-9.03c-.03.03-.058.03-.088.03z" transform="translate(23 237.213)"/><path fill="#FFF" d="M49.882 243.498c-1.092.118-1.092 1.712 0 1.83H59v-1.86h-9.03c-.03.03-.058.03-.088.03z" opacity=".4"/><path fill="#C3CCE5" d="M35.13 228.92h11.92v-.943h-8.292"/><path fill="#E8ECF9" d="M45.25 226.295l-6.492 1.682h8.262v-.384c.03-.885-.855-1.534-1.77-1.298z"/><g><path fill="url(#w)" d="M33.67.944L33.255.06H2.92l-.44.884L.176 5.666H36" transform="translate(23 231.607)"/><path fill="#1F3C7C" opacity=".1" d="M56.256 231.666H25.92l-.44.885h31.19"/></g><path fill="url(#x)" d="M18.59 46.033H.177v-34.73H18.59c3.925 0 7.082 3.186 7.082 7.08v20.54c.03 3.923-3.157 7.11-7.082 7.11z" opacity=".3" transform="translate(23 226)"/><path fill="#E8ECF9" d="M23.177 272.004l1.918 3.895c.148.265.325.53.502.737.56.62 1.387.973 2.242.973h26.498c.856 0 1.682-.354 2.243-.973.207-.207.384-.472.502-.738L59 272.003H23.177zM56.11 228.92H26.07c-.74 0-1.36.62-1.36 1.36 0 .736.62 1.356 1.36 1.356h30.04c.736 0 1.356-.62 1.356-1.357 0-.74-.62-1.36-1.357-1.36z"/><path fill="#C3CCE5" d="M48.26 272.004l-1.92 3.895c-.146.265-.323.53-.5.737-.56.62-1.387.973-2.243.973h10.74c.857 0 1.683-.354 2.244-.973.207-.207.384-.472.502-.738L59 272.003H48.26zm7.85-43.083h-8.47c.737 0 1.357.62 1.357 1.36 0 .736-.62 1.356-1.357 1.356h8.47c.736 0 1.356-.62 1.356-1.357 0-.74-.62-1.36-1.357-1.36z"/><path fill="#FFF" d="M27.633 256.335c-1.062 0-1.948-.885-1.948-1.948v-13.25c0-1.06.886-1.947 1.948-1.947 1.062 0 1.947.886 1.947 1.948v13.25c0 1.09-.885 1.947-1.947 1.947zm0 11.42c-1.062 0-1.948-.886-1.948-1.948v-5.46c0-1.06.886-1.947 1.948-1.947 1.062 0 1.947.886 1.947 1.948v5.46c0 1.06-.885 1.947-1.947 1.947z"/></g><path fill="#A6B0D8" d="M17.08 18.08c2.35-2.35 6.17-2.35 8.52 0 2.35 2.352 2.358 6.164 0 8.522-2.35 2.352-6.17 2.352-8.52 0-2.35-2.35-2.35-6.17 0-8.52zm11.2 9.4c2.44-3.31 2.162-7.998-.84-11-3.31-3.307-8.655-3.307-11.964 0-3.302 3.303-3.302 8.66.007 11.968 3.002 3.002 7.685 3.274 10.995.833l3.346 3.347c.498.497 1.305.497 1.803 0 .497-.498.497-1.305 0-1.802L28.28 27.48z"/><path fill="#00AEFF" d="M153 109h46.693v2H153zM125 189h46.693v2H125zM149 269h46.693v2H149z"/><path fill="#00AEFF" fill-opacity=".1" opacity=".15" d="M153 87h46.693v22H153zM125 167h46.693v22H125zM149 247h46.693v22H149z"/><path fill="#A6B0D8" d="M53.423 18.99c-.7-.207-1.343-.31-1.93-.31-.813 0-1.463.157-1.95.47-.486.313-.73.743-.73 1.29 0 .493.147.897.44 1.21.294.313.654.56 1.08.74.427.18 1.02.39 1.78.63.947.293 1.714.573 2.3.84.587.267 1.087.663 1.5 1.19.414.527.62 1.223.62 2.09 0 .8-.216 1.5-.65 2.1-.433.6-1.04 1.063-1.82 1.39-.78.327-1.676.49-2.69.49-1.026 0-2.026-.2-3-.6-.973-.4-1.813-.933-2.52-1.6l.86-1.66c.667.653 1.417 1.157 2.25 1.51.834.353 1.644.53 2.43.53.934 0 1.67-.183 2.21-.55.54-.367.81-.863.81-1.49 0-.493-.146-.9-.44-1.22-.293-.32-.663-.573-1.11-.76-.446-.187-1.05-.393-1.81-.62-.933-.28-1.693-.553-2.28-.82-.586-.267-1.083-.66-1.49-1.18-.406-.52-.61-1.207-.61-2.06 0-.747.207-1.407.62-1.98.414-.573.994-1.013 1.74-1.32.747-.307 1.614-.46 2.6-.46.84 0 1.664.123 2.47.37.807.247 1.524.577 2.15.99l-.8 1.72c-.653-.413-1.33-.723-2.03-.93zm13.867 2.05c.82.453 1.46 1.083 1.92 1.89.46.807.69 1.73.69 2.77s-.23 1.967-.69 2.78c-.46.813-1.1 1.447-1.92 1.9-.82.453-1.757.68-2.81.68-1.067 0-2.01-.227-2.83-.68-.82-.453-1.46-1.083-1.92-1.89-.46-.807-.69-1.737-.69-2.79 0-1.04.23-1.963.69-2.77.46-.807 1.1-1.437 1.92-1.89.82-.453 1.763-.68 2.83-.68 1.053 0 1.99.227 2.81.68zm-4.66 1.42c-.54.32-.96.763-1.26 1.33-.3.567-.45 1.21-.45 1.93 0 .733.15 1.387.45 1.96.3.573.72 1.017 1.26 1.33.54.313 1.157.47 1.85.47.68 0 1.29-.157 1.83-.47.54-.313.96-.757 1.26-1.33.3-.573.45-1.227.45-1.96 0-.72-.15-1.363-.45-1.93-.3-.567-.72-1.01-1.26-1.33-.54-.32-1.15-.48-1.83-.48-.693 0-1.31.16-1.85.48zm20.397-6.3V31h-1.86v-2.1c-.4.707-.937 1.25-1.61 1.63-.674.38-1.457.57-2.35.57-1 0-1.884-.23-2.65-.69-.767-.46-1.364-1.1-1.79-1.92-.427-.82-.64-1.757-.64-2.81 0-1.04.213-1.963.64-2.77.426-.807 1.023-1.437 1.79-1.89.766-.453 1.643-.68 2.63-.68.906 0 1.7.187 2.38.56.68.373 1.213.913 1.6 1.62v-6.36h1.86zm-3.59 12.86c.54-.32.963-.767 1.27-1.34.306-.573.46-1.22.46-1.94 0-.733-.154-1.387-.46-1.96-.307-.573-.73-1.02-1.27-1.34-.54-.32-1.157-.48-1.85-.48-.694 0-1.31.163-1.85.49-.54.327-.964.777-1.27 1.35-.307.573-.46 1.22-.46 1.94s.153 1.367.46 1.94c.306.573.73 1.02 1.27 1.34.54.32 1.156.48 1.85.48.693 0 1.31-.16 1.85-.48zM93.893 31v-1.48c-.786 1.04-2.02 1.56-3.7 1.56-.733 0-1.376-.14-1.93-.42-.553-.28-.98-.667-1.28-1.16-.3-.493-.45-1.047-.45-1.66 0-.947.35-1.697 1.05-2.25.7-.553 1.677-.837 2.93-.85h3.36v-.5c0-.747-.23-1.323-.69-1.73-.46-.407-1.13-.61-2.01-.61-1.066 0-2.153.38-3.26 1.14l-.78-1.28c.76-.493 1.464-.85 2.11-1.07.647-.22 1.417-.33 2.31-.33 1.32 0 2.34.323 3.06.97.72.647 1.087 1.55 1.1 2.71l.02 6.96h-1.84zm-1.11-2.09c.607-.42.97-.977 1.09-1.67v-1.06h-3.1c-.84 0-1.463.127-1.87.38-.406.253-.61.653-.61 1.2 0 .547.207.98.62 1.3.414.32.967.48 1.66.48.867 0 1.604-.21 2.21-.63zm6.977-14.17h1.44v18.64h-1.44V14.74z"/><g fill="#A6B0D8"><path d="M372.364 17.95l11.314 11.314-1.415 1.414-11.313-11.314z"/><path d="M383.678 19.364l-11.314 11.314-1.414-1.414 11.313-11.314z"/></g></g></svg>