
<svg width="765px" height="697px" viewBox="0 0 765 697" version="1.1" xmlns="http://www.w3.org/2000/svg" xmlns:xlink="http://www.w3.org/1999/xlink">
    <!-- Generator: Sketch 44.1 (41455) - http://www.bohemiancoding.com/sketch -->
    <desc>Created with Sketch.</desc>
    <defs>
        <linearGradient x1="92.9793899%" y1="7.16654406%" x2="31.281329%" y2="81.3954718%" id="linearGradient-1">
            <stop stop-color="#F4A772" offset="0%"></stop>
            <stop stop-color="#FA709A" offset="100%"></stop>
        </linearGradient>
        <linearGradient x1="49.9981717%" y1="99.9973366%" x2="49.9981717%" y2="0.0136658847%" id="linearGradient-2">
            <stop stop-color="#808080" stop-opacity="0.25" offset="0%"></stop>
            <stop stop-color="#808080" stop-opacity="0.12" offset="54%"></stop>
            <stop stop-color="#808080" stop-opacity="0.1" offset="100%"></stop>
        </linearGradient>
        <linearGradient x1="43837%" y1="49520%" x2="43837%" y2="0%" id="linearGradient-3">
            <stop stop-color="#808080" stop-opacity="0.25" offset="0%"></stop>
            <stop stop-color="#808080" stop-opacity="0.12" offset="54%"></stop>
            <stop stop-color="#808080" stop-opacity="0.1" offset="100%"></stop>
        </linearGradient>
        <linearGradient x1="97620%" y1="70903%" x2="97620%" y2="30516%" id="linearGradient-4">
            <stop stop-color="#808080" stop-opacity="0.25" offset="0%"></stop>
            <stop stop-color="#808080" stop-opacity="0.12" offset="54%"></stop>
            <stop stop-color="#808080" stop-opacity="0.1" offset="100%"></stop>
        </linearGradient>
        <linearGradient x1="68777%" y1="47759%" x2="68777%" y2="42225%" id="linearGradient-5">
            <stop stop-color="#808080" stop-opacity="0.25" offset="0%"></stop>
            <stop stop-color="#808080" stop-opacity="0.12" offset="54%"></stop>
            <stop stop-color="#808080" stop-opacity="0.1" offset="100%"></stop>
        </linearGradient>
    </defs>
    <g id="Page-1" stroke="none" stroke-width="1" fill="none" fill-rule="evenodd">
        <g id="Desktop-HD" transform="translate(-675.000000, -122.000000)">
            <g id="Group-17" transform="translate(675.000000, 122.000000)">
                <path d="M418.569635,41.0424846 C312.799336,81.8201138 285.627879,155.520237 277.339411,207.510719 C269.050943,259.5012 298.640666,372.930688 382.586013,518.128291 C469.001082,667.597694 600.336594,692.684716 776.592549,593.389359 C778.259162,211.997328 778.259162,20.0487606 776.592549,17.5436577 C774.092629,13.7860034 607.638338,-31.8491833 418.569635,41.0424846 Z" id="Path-3" fill-opacity="0.680000007" fill="url(#linearGradient-1)"></path>
                <g id="undraw_website_setup_5hr2" transform="translate(0.000000, 264.000000)">
                    <path d="M634.088761,370.105155 C632.869223,365.073568 628.863183,361.28216 625.913603,357.023028 C618.694245,346.328933 617.860465,332.558183 623.73687,321.07198 C626.573004,315.678969 631.018645,310.101702 629.409139,304.212619 C628.331408,300.251129 624.750788,297.536907 621.233981,295.410884 C607.874023,287.369189 592.4537,283.405832 576.869748,284.008314 C557.768382,284.787856 538.73083,292.413191 519.998162,288.635957 C501.754727,284.943764 486.297794,275.801866 467.210609,274.717594 C452.951943,273.909705 438.849265,274.816809 424.562237,273.257725 C389.261227,269.43023 353.70038,268.581545 318.256828,270.720671 C282.815631,268.581944 247.257172,269.430628 211.958508,273.257725 C197.706933,274.816809 183.597164,273.909705 169.310137,274.717594 C150.166229,275.794779 134.744748,284.950851 116.494223,288.635957 C97.7544643,292.420278 78.7240021,284.787856 59.6226366,284.008314 C44.0386845,283.405832 28.618361,287.369189 15.2584034,295.410884 C11.7132353,297.536907 8.16806723,300.251129 7.0832458,304.212619 C5.48082983,310.094615 9.91938025,315.671882 12.7555147,321.07198 C18.6361104,332.555641 17.8077685,346.326293 10.5929622,357.023028 C7.64338235,361.275074 3.63734244,365.073568 2.41780462,370.105155 C-0.0354516807,380.225025 9.80593487,389.140147 19.4346113,393.158331 C45.7043067,404.135696 77.6533613,398.827725 101.682511,414.11383 C112.452731,420.973797 121.875788,431.986596 134.638393,432.397627 C143.267332,432.67401 151.116334,427.883372 158.653361,423.666759 C169.932053,417.35583 181.722391,412.005335 193.899422,407.67198 C204.534926,403.88766 215.801471,400.854534 227.025473,402.108887 C244.162815,404.001047 318.242647,439.774926 351.63813,418.635172 C374.511555,404.142782 392.35084,404.022308 409.530725,402.1018 C420.754727,400.847447 432.014181,403.880573 442.656775,407.664894 C454.833807,411.998248 466.624145,417.348743 477.902836,423.659673 C485.432773,427.876285 493.288866,432.666923 501.917805,432.39054 C514.68041,431.979509 524.103466,420.96671 534.873687,414.106743 C558.888655,398.813552 590.83062,404.128609 617.121586,393.151244 C626.70063,389.118887 636.549107,380.232111 634.088761,370.105155 Z" id="Shape" fill="url(#linearGradient-2)" fill-rule="nonzero" opacity="0.5"></path>
                    <path d="M630.614496,369.89964 C629.409139,364.93892 625.445641,361.168773 622.531513,356.959247 C615.406332,346.376318 614.591782,332.761233 620.404412,321.405057 C623.240546,316.06874 627.608193,310.555254 626.019958,304.737038 C624.949317,300.818069 621.411239,298.132193 617.936975,296.034517 C604.724844,288.079824 589.474582,284.158344 574.061975,284.752422 C555.173319,285.517791 536.348477,293.065172 517.814338,289.323372 C499.762342,285.680786 484.489758,276.623928 465.579832,275.55383 C451.477153,274.760115 437.502101,275.653044 423.406513,274.136481 C388.49398,270.351298 353.324488,269.512096 318.271008,271.627774 C283.217528,269.512096 248.048037,270.351298 213.135504,274.136481 C199.039916,275.681391 185.064863,274.781375 170.962185,275.55383 C152.059349,276.616841 136.779674,285.673699 118.727679,289.323372 C100.20063,293.065172 81.3686975,285.517791 62.480042,284.752422 C47.067435,284.158344 31.8171733,288.079824 18.605042,296.034517 C15.1307773,298.16054 11.5926996,300.818069 10.5220588,304.737038 C8.93382353,310.555254 13.3581933,316.075827 16.137605,321.405057 C21.9502348,332.761233 21.135685,346.376318 14.0105042,356.959247 C11.0892857,361.168773 7.13287815,364.91766 5.92752101,369.89964 C3.43881303,379.906121 13.1738445,388.722029 22.6819853,392.662259 C48.6680672,403.512062 80.262605,398.260786 104.008141,413.383895 C114.643645,420.165908 123.981618,431.065319 136.623687,431.469264 C145.13209,431.745646 152.93146,427.004615 160.376313,422.830524 C171.532297,416.586764 183.194571,411.293158 195.239496,407.005827 C205.768645,403.256939 216.900473,400.259247 228.003939,401.499427 C245.020746,403.398674 318.263918,438.754435 351.262342,417.848543 C373.887605,403.519149 391.528361,403.398674 408.516807,401.499427 C419.620273,400.259247 430.759191,403.256939 441.28125,407.005827 C453.326175,411.293158 464.988448,416.586764 476.144433,422.830524 C483.596376,426.997529 491.360294,431.73856 499.897059,431.469264 C512.517857,431.065319 521.841649,420.172995 532.512605,413.383895 C556.265231,398.260786 587.859769,403.512062 613.838761,392.662259 C623.31145,388.722029 633.046481,379.906121 630.614496,369.89964 Z" id="Shape" fill="#FA709A" fill-rule="nonzero"></path>
                    <path d="M24.7736345,155.355581 C26.8014706,154.646907 28.9569328,153.973666 31.0769433,154.342177 C34.6221113,154.958723 37.1108193,158.31784 38.1672794,161.769083 C39.2237395,165.220327 39.1882878,168.855827 39.8618697,172.399198 C40.5354517,175.94257 42.144958,179.606416 45.3214286,181.300147 C48.4978992,182.993879 52.248687,182.327725 55.772584,181.916694 C60.3945588,181.383938 65.0599418,181.341179 69.6909139,181.789133 C73.5764181,182.16473 78.1425945,183.475777 79.2841387,187.210491 C80.220063,190.257791 78.362395,193.368871 77.1570378,196.309869 C74.8455882,201.809182 74.6612395,208.307725 77.3059349,213.651129 C79.9506303,218.994534 85.3109244,222.977283 87.5514706,228.618331 C88.2006592,230.029263 88.3891844,231.608601 88.0903361,233.132586 C87.7589554,234.199737 87.2137532,235.188319 86.4879202,236.038151 C84.7295168,238.298822 82.6307773,240.290196 81.0283613,242.671342 C77.688813,247.632062 76.7741597,253.797529 76.3912815,259.75748 C76.0093748,265.617947 76.0425457,271.498072 76.4905462,277.353863 C72.1370798,275.936514 67.3298319,277.197954 62.8416492,276.269591 C53.2909664,274.299476 47.3279937,263.003208 37.6000525,262.315794 C32.9984244,261.989804 28.0493697,264.158347 23.9440651,262.053584 C21.9827917,260.924093 20.4479516,259.18084 19.5764181,257.092864 C17.841274,253.397093 17.4452553,249.213447 18.456145,245.258003 C19.1651786,242.52252 20.5832458,239.843732 20.3067227,237.030295 C20.0727416,234.620802 18.626313,232.494779 16.9671744,230.73018 C12.2379202,225.712766 5.37447479,222.644206 1.97820378,216.641735 C-1.18372393,210.805332 -0.425670512,203.625781 3.8855042,198.577627 C5.09767212,197.394986 6.24558767,196.148296 7.32431723,194.842913 C8.95509454,192.546809 9.45141807,189.648331 9.67121849,186.834894 C10.1391807,180.095401 8.96218487,172.959051 11.1672794,166.4109 C13.1454832,160.486383 19.1864496,157.339869 24.7736345,155.355581 Z" id="Shape" fill="#FA709A" fill-rule="nonzero" opacity="0.6"></path>
                    <path d="M24.8728992,155.55401 C24.8728992,155.55401 44.2366071,263.038642 69.3789391,275.85856" id="Shape" stroke="#535461" opacity="0.6"></path>
                    <path d="M78.7452731,185.304157 C78.7452731,185.304157 58.0060399,188.138854 37.2880777,209.434517" id="Shape" stroke="#535461" opacity="0.6"></path>
                    <path d="M40.9325105,221.921358 C40.9325105,221.921358 24.9721639,206.330524 0.0354516807,208.973879" id="Shape" stroke="#535461" opacity="0.6"></path>
                    <path d="M87.8776261,228.703372 C87.8776261,228.703372 58.7505252,231.176645 47.9661239,242.352439" id="Shape" stroke="#535461" opacity="0.6"></path>
                    <path d="M52.3266807,252.762864 C52.3266807,252.762864 36.0189076,249.928167 20.9661239,259.530704" id="Shape" stroke="#535461" opacity="0.6"></path>
                    <path d="M624.254464,70.9241244 C621,69.7689853 617.547006,68.7130606 614.150735,69.3012602 C608.478466,70.2934043 604.479517,75.679329 602.806197,81.1999018 C601.132878,86.7204746 601.16833,92.6095581 600.090599,98.2789525 C599.012868,103.948347 596.431985,109.823257 591.341124,112.544566 C586.250263,115.265876 580.237658,114.188691 574.58666,113.53671 C567.184965,112.674286 559.712819,112.595897 552.294643,113.302848 C546.062237,113.905221 538.752101,116.009984 536.922794,121.991195 C535.426733,126.881047 538.397584,131.855941 540.382878,136.568625 C544.091124,145.377447 544.388918,155.802046 540.141807,164.369918 C535.823792,173.086612 527.308298,179.322946 523.720588,188.358543 C522.813025,190.654648 522.238708,193.198789 522.855567,195.587021 C523.387681,197.299985 524.263426,198.886618 525.429359,200.250098 C528.265494,203.878511 531.612132,207.074632 534.178834,210.880213 C539.532038,218.817365 540.985557,228.710458 541.609506,238.263388 C542.222345,247.654703 542.17022,257.077571 541.453519,266.461538 C548.43041,264.165434 556.144695,266.213502 563.334296,264.732373 C578.642332,261.578773 588.200105,243.472144 603.791754,242.366612 C611.165704,241.84928 619.09979,245.314697 625.679622,241.941408 C628.884454,240.297283 631.160452,237.228723 632.684874,233.961735 C635.420671,228.03983 636.019486,221.35353 634.379464,215.040131 C633.223739,210.653437 630.976103,206.365957 631.415704,201.851702 C631.791492,197.989427 634.102941,194.580704 636.768908,191.76018 C644.348477,183.716727 655.352679,178.798527 660.798057,169.181817 C665.903099,160.16748 664.612658,147.971195 657.742122,140.225385 C655.941176,138.191489 653.799895,136.448151 652.22584,134.237087 C649.609506,130.559067 648.772847,125.910164 648.460872,121.402995 C647.716387,110.595712 649.552784,99.1647954 646.057248,88.669329 C642.866597,79.1163993 633.188288,74.0635516 624.254464,70.9241244 Z" id="Shape" fill="#FA709A" fill-rule="nonzero" opacity="0.6"></path>
                    <path d="M624.070116,71.2075941 C624.070116,71.2075941 593.035714,243.493404 552.727153,264.037872" id="Shape" stroke="#535461" opacity="0.6"></path>
                    <path d="M537.716912,118.894288 C537.716912,118.894288 570.956408,123.458151 604.167542,157.580818" id="Shape" stroke="#535461" opacity="0.6"></path>
                    <path d="M598.325105,177.586694 C598.325105,177.586694 623.914128,152.577578 663.875263,156.829624" id="Shape" stroke="#535461" opacity="0.6"></path>
                    <path d="M523.11791,188.457758 C523.11791,188.457758 569.800683,192.419247 587.086922,210.34162" id="Shape" stroke="#535461" opacity="0.6"></path>
                    <path d="M580.067489,227.023813 C580.067489,227.023813 606.223739,222.445777 630.337973,237.86653" id="Shape" stroke="#535461" opacity="0.6"></path>
                    <polygon id="Shape" fill="url(#linearGradient-3)" fill-rule="nonzero" points="53.113708 0 53.113708 17.7097709 53.113708 350.935516 568.531513 350.935516 568.531513 17.7097709 568.531513 0"></polygon>
                    <rect id="Rectangle-path" fill="#FFFFFF" fill-rule="nonzero" x="60.7570903" y="15.9239116" width="502.314863" height="328.661882"></rect>
                    <rect id="Rectangle-path" fill="#EEEEEE" fill-rule="nonzero" x="60.7570903" y="0.290556465" width="502.314863" height="24.1799673"></rect>
                    <ellipse id="Oval" fill="#FF5252" fill-rule="nonzero" cx="79.8726366" cy="12.0120295" rx="5.86370798" ry="5.8607365"></ellipse>
                    <ellipse id="Oval" fill="#FFFF00" fill-rule="nonzero" cx="96.0031513" cy="12.0120295" rx="5.86370798" ry="5.8607365"></ellipse>
                    <ellipse id="Oval" fill="#69F0AE" fill-rule="nonzero" cx="112.133666" cy="12.0120295" rx="5.86370798" ry="5.8607365"></ellipse>
                    <rect id="Rectangle-path" fill="#FA709A" fill-rule="nonzero" opacity="0.5" x="80.0073529" y="63.1995745" width="187.184874" height="7.79541735"></rect>
                    <rect id="Rectangle-path" fill="#FA709A" fill-rule="nonzero" opacity="0.5" x="80.0073529" y="78.7904092" width="187.184874" height="7.79541735"></rect>
                    <rect id="Rectangle-path" fill="#FA709A" fill-rule="nonzero" opacity="0.5" x="80.0073529" y="94.3812439" width="187.184874" height="7.79541735"></rect>
                    <rect id="Rectangle-path" fill="#FA709A" fill-rule="nonzero" opacity="0.5" x="144.529412" y="109.972079" width="122.662815" height="7.79541735"></rect>
                    <rect id="Rectangle-path" fill="#FA709A" fill-rule="nonzero" opacity="0.5" x="80.0073529" y="125.562913" width="98.5556723" height="7.79541735"></rect>
                    <rect id="Rectangle-path" fill="#FA709A" fill-rule="nonzero" opacity="0.5" x="133.184874" y="141.153748" width="75.8665966" height="7.79541735"></rect>
                    <rect id="Rectangle-path" fill="#FA709A" fill-rule="nonzero" opacity="0.5" x="292.008403" y="117.767496" width="220.509454" height="126.8527"></rect>
                    <rect id="Rectangle-path" fill="#EEEEEE" fill-rule="nonzero" x="318.242647" y="129.814959" width="220.509454" height="126.8527"></rect>
                    <path d="M671.327206,246.845434 C671.784885,246.26057 672.034387,245.539875 672.036239,244.797365 C672.036239,244.797365 672.036239,244.754845 672.036239,244.740671 C672.036239,244.726498 672.078782,244.591849 672.100053,244.520982 L672.100053,244.428854 C672.103506,244.360393 672.103506,244.291801 672.100053,244.223339 C672.100053,244.223339 672.100053,244.166645 672.100053,244.138298 C672.107726,244.05343 672.107726,243.968043 672.100053,243.883175 C671.681723,241.048478 654.827994,222.580426 650.616334,200.051669 C650.150449,197.598932 649.454899,195.195401 648.538866,192.872799 C648.668509,191.710976 648.591698,190.535396 648.311975,189.400295 C647.602941,186.51599 646.184874,183.589165 646.893908,180.711948 C646.99319,180.335622 647.123629,179.968206 647.283876,179.613502 C648.167714,178.314852 648.979596,176.96871 649.715861,175.581146 C649.99034,175.128734 650.22747,174.654716 650.424895,174.163797 C653.012868,167.34635 645.000788,160.309214 646.475578,153.194124 C647.113708,150.111391 649.503151,147.418429 649.439338,144.279002 C649.361345,140.686023 646.057248,137.900933 642.625525,136.568625 C639.193803,135.236318 635.414653,134.853633 632.046744,133.365417 C624.665704,130.098429 620.624212,122.210884 613.888393,117.82419 C605.330357,112.261097 594.163078,113.253241 583.903361,114.691849 C583.217539,114.792526 582.627138,115.228457 582.329307,115.854075 L582.329307,115.854075 L582.230042,115.854075 C582.152048,116.080851 582.059874,116.30054 581.960609,116.520229 C580.542542,118.936809 578.153099,120.772275 575.792017,122.466007 C572.91334,124.492815 569.829044,126.491277 568.070641,129.496056 C567.808298,129.94252 567.588498,130.367725 567.397059,130.778756 C563.568277,137.60329 568.169905,140.551375 573.778361,142.188412 C573.610449,143.164564 573.525063,144.153113 573.523109,145.143584 C573.523109,155.065025 581.825893,163.165172 592.057248,163.165172 C592.865664,163.164146 593.673207,163.112073 594.475053,163.009264 L595.070641,163.399034 L595.205357,163.399034 C597.105567,164.766776 598.750525,166.481768 599.459559,168.52275 L593.517857,173.058265 C593.517857,173.058265 593.758929,173.681899 594.113445,174.674043 L570.757878,185.431718 C561.909139,185.84275 547.58666,157.984763 547.58666,157.984763 C547.58666,157.984763 545.459559,142.011244 537.89417,139.141113 C535.611082,138.27653 534.703519,140.08365 534.547532,143.031735 C531.165441,146.575106 536.8448,166.474681 536.8448,166.474681 L554.960609,198.428805 C556.648109,201.702881 557.08771,203.750949 565.071429,204.984043 C571.64417,205.99036 592.121061,198.719362 599.246849,196.083093 L599.580095,198.917791 C598.751955,201.078704 598.384862,203.38877 598.502363,205.699804 C598.502363,210.922733 600.835084,218.519722 612.222164,224.5718 C612.222164,224.5718 623.977941,239.758691 622.673319,254.095172 C622.673319,254.095172 623.240546,254.690458 624.148109,255.47 C624.020483,259.509444 623.439076,264.491424 621.404149,266.433191 C621.130571,266.690744 621.009856,267.071475 621.085084,267.439509 C620.995761,267.874374 621.19594,268.317403 621.581408,268.537954 L606.741334,294.510867 C606.188288,295.219542 605.628151,295.928216 605.053834,296.63689 C602.299237,300.146655 599.240959,303.407323 595.914391,306.381162 C593.439863,308.585139 590.866071,310.994632 590.355567,311.894648 C589.56854,313.311997 587.590336,317.882946 588.426996,321.66018 C589.509954,326.240156 589.953762,330.94786 589.745798,335.649411 L587.824317,369.24766 C587.1799,372.998358 586.291727,376.703119 585.165441,380.338412 L584.874737,380.338412 C584.874737,380.338412 577.713498,388.941718 566.340599,390.968527 C554.9677,392.995336 555.386029,398.763944 558.753939,399.571833 C562.121849,400.379722 602.990546,398.749771 602.990546,398.749771 C602.990546,398.749771 604.536239,395.737905 604.110819,392.988249 C617.157038,391.733895 635.230305,389.607872 635.230305,389.607872 C635.230305,389.607872 637.704832,383.662095 634.110032,381.068347 C632.757023,380.029387 631.752873,378.603029 631.231355,376.979296 C631.018645,376.072193 630.784664,375.037529 630.557773,373.953257 C630.50105,373.421751 630.50105,373.095761 630.50105,373.095761 L630.380515,373.095761 C629.749475,369.927987 629.246061,366.533437 629.536765,364.754664 C630.593225,360.04198 633.330095,332.80054 626.587185,325.019296 C623.52416,321.475925 623.942489,317.450655 625.303834,314.091538 C633.393908,308.797741 644.710084,297.409345 651.254464,290.521031 C651.623162,290.825761 651.963498,291.130491 652.282563,291.435221 L652.495273,291.640736 C652.495273,291.640736 674.766019,280.620851 674.858193,261.167741 C674.892804,256.174242 673.679081,251.251171 671.327206,246.845434 Z M599.991334,384.073126 C599.951193,383.363569 599.977303,382.651817 600.069328,381.947103 L599.360294,381.869149 C599.771534,378.779329 600.778361,375.320998 603.033088,372.932766 C606.904685,365.923613 609.642314,358.346328 611.144433,350.481964 L615.235557,365.952324 C615.235557,365.952324 615.646796,369.155532 615.760242,372.542995 L615.689338,372.542995 C615.689338,372.542995 609.981618,380.685663 599.991334,384.073126 Z" id="Shape" fill="url(#linearGradient-4)" fill-rule="nonzero" opacity="0.5"></path>
                    <path d="M618.482931,183.702553 C618.482931,183.702553 608.478466,187.302619 602.884191,193.30509 C602.884191,193.30509 575.664391,204.105286 568.05646,202.907627 C560.448529,201.709967 560.051471,199.704419 558.449055,196.529558 L541.233718,165.347889 C541.233718,165.347889 534.029937,139.339542 541.233718,142.138805 C548.4375,144.938069 550.451155,160.564337 550.451155,160.564337 C550.451155,160.564337 564.064601,187.770344 572.466649,187.373486 L595.26208,176.516596 C595.26208,176.516596 600.466387,168.91252 602.870011,169.316465 C605.273634,169.720409 618.482931,183.702553 618.482931,183.702553 Z" id="Shape" fill="#FDB797" fill-rule="nonzero"></path>
                    <g id="Group" opacity="0.05" transform="translate(537.447479, 141.734861)" fill-rule="nonzero" fill="#000000">
                        <path d="M81.0354517,41.9676923 C81.0354517,41.9676923 71.0309874,45.5677578 65.4367122,51.5702291 C65.4367122,51.5702291 38.2169118,62.3704255 30.6089811,61.172766 C23.0010504,59.9751064 22.6039916,57.9695581 21.0015756,54.7946972 L3.7862395,23.6130278 C3.7862395,23.6130278 -3.41754202,-2.39531915 3.7862395,0.403944354 C10.990021,3.20320786 13.0036765,18.8294763 13.0036765,18.8294763 C13.0036765,18.8294763 26.6171218,46.0354828 35.0191702,45.6386252 L57.8146008,34.7817349 C57.8146008,34.7817349 63.0189076,27.1776596 65.4225315,27.5816039 C67.8261555,27.9855483 81.0354517,41.9676923 81.0354517,41.9676923 Z" id="Shape"></path>
                    </g>
                    <path d="M602.047532,168.955041 L594.063813,175.219722 C594.063813,175.219722 598.055672,185.658494 597.055935,189.315254 C596.056197,192.972013 613.023372,183.574992 613.023372,183.574992 L606.039391,167.91329 L602.047532,168.955041 Z" id="Shape" fill="#F9CE43" fill-rule="nonzero"></path>
                    <g id="Group" opacity="0.05" transform="translate(593.461134, 167.247136)" fill-rule="nonzero" fill="#000000">
                        <path d="M8.58639706,1.70790507 L0.602678571,7.97258592 C0.602678571,7.97258592 4.59453782,18.4113584 3.59480042,22.0681178 C2.59506303,25.7248773 19.5622374,16.327856 19.5622374,16.327856 L12.5782563,0.666153846 L8.58639706,1.70790507 Z" id="Shape"></path>
                    </g>
                    <path d="M588.263918,161.981686 C588.263918,161.981686 606.074842,167.785728 597.871324,177.983552 L623.488708,165.581751 C623.488708,165.581751 612.683036,166.382553 605.876313,149.990917 L588.263918,161.981686 Z" id="Shape" fill="#FDB797" fill-rule="nonzero"></path>
                    <path d="M621.886292,266.411931 L599.870798,306.019738 L614.689601,363.606612 C614.689601,363.606612 616.292017,376.412357 613.888393,377.610016 L630.69958,377.610016 C630.69958,377.610016 627.459296,366.271227 628.295956,362.408953 C629.295693,357.809656 631.897847,331.227283 625.459821,323.601948 C619.021796,315.976612 628.664653,305.998478 628.664653,305.998478 L647.879464,275.589264 L621.886292,266.411931 Z" id="Shape" fill="#FDB797" fill-rule="nonzero"></path>
                    <g id="Group" opacity="0.05" transform="translate(599.842437, 265.752864)" fill-rule="nonzero" fill="#000000">
                        <path d="M22.043855,0.659067103 L0.0283613445,40.266874 L14.8471639,97.853748 C14.8471639,97.853748 16.4495798,110.659493 14.0459559,111.857152 L30.8571429,111.857152 C30.8571429,111.857152 27.8579307,100.454583 28.4535189,96.6560884 C29.0491071,92.8575941 32.0554097,65.474419 25.6173845,57.8490835 C19.1793592,50.223748 28.8222164,40.2456137 28.8222164,40.2456137 L48.0370273,9.83639935 L22.043855,0.659067103 Z" id="Shape"></path>
                    </g>
                    <path d="M615.115021,370.069722 C615.115021,370.069722 609.017332,379.048625 598.381828,381.897496 C587.746324,384.746367 588.611345,390.302373 591.865809,390.840966 C595.120273,391.379558 633.698792,386.709394 633.698792,386.709394 C633.698792,386.709394 636.045693,380.905352 632.635242,378.368298 C629.22479,375.831244 629.203519,370.572881 629.203519,370.572881 L615.115021,370.069722 Z" id="Shape" fill="#0D134D" fill-rule="nonzero"></path>
                    <g id="Group" opacity="0.1" transform="translate(619.695378, 250.162029)" fill-rule="nonzero" fill="#000000">
                        <path d="M3.39627101,0.240949264 C3.39627101,0.240949264 4.34637605,13.2522095 0.879201681,16.6680196 C0.63307932,16.8977987 0.512257101,17.2316874 0.554376453,17.565665 C0.596495806,17.8996425 0.796437816,18.1931193 1.09191176,18.3546645 L11.4012605,23.8468903 L20.6186975,6.24342062 L3.39627101,0.240949264 Z" id="Shape"></path>
                    </g>
                    <path d="M623.091649,250.006121 C623.091649,250.006121 624.041754,263.017381 620.57458,266.433191 C620.328457,266.662971 620.207635,266.996859 620.249755,267.330837 C620.291874,267.664814 620.491816,267.958291 620.78729,268.119836 L631.096639,273.612062 L640.314076,256.008592 L623.091649,250.006121 Z" id="Shape" fill="#E23553" fill-rule="nonzero"></path>
                    <g id="Group" opacity="0.1" transform="translate(619.695378, 250.162029)" fill-rule="nonzero" fill="#000000">
                        <path d="M3.39627101,0.552765957 C3.39627101,0.552765957 4.34637605,13.5640262 0.879201681,16.9798363 C0.63307932,17.2096154 0.512257101,17.5435041 0.554376453,17.8774817 C0.596495806,18.2114592 0.796437816,18.504936 1.09191176,18.6664812 L11.4012605,24.158707 L20.6186975,6.55523732 L3.39627101,0.552765957 Z" id="Shape"></path>
                    </g>
                    <path d="M623.488708,275.610524 C623.488708,275.610524 617.539916,279.5791 605.053834,295.914043 C602.442955,299.334562 599.53657,302.519295 596.368172,305.431538 C594.021271,307.557561 591.575105,309.938707 591.085872,310.817463 C590.334296,312.171031 588.455357,316.671113 589.256565,320.356219 C590.286221,324.833744 590.708338,329.429399 590.511555,334.01946 L588.689338,366.838167 C588.689338,366.838167 586.285714,381.642373 583.087973,383.243977 L599.502101,386.078674 C599.502101,386.078674 598.303834,375.675336 603.103992,370.48784 C603.103992,370.48784 614.313813,351.282766 611.51313,329.675286 C611.51313,329.675286 610.314863,320.07275 621.120536,314.87108 C631.926208,309.669411 653.948792,284.461866 653.948792,284.461866 L623.488708,275.610524 Z" id="Shape" fill="#FDB797" fill-rule="nonzero"></path>
                    <path d="M585.860294,377.638363 C585.860294,377.638363 579.053571,386.043241 568.247899,388.041702 C557.442227,390.040164 557.839286,395.645777 561.044118,396.446579 C564.24895,397.247381 603.07563,395.645777 603.07563,395.645777 C603.07563,395.645777 605.911765,390.04725 602.678571,387.2409 C599.445378,384.43455 600.274947,379.239967 600.274947,379.239967 L585.860294,377.638363 Z" id="Shape" fill="#0D134D" fill-rule="nonzero"></path>
                    <g id="Group" opacity="0.1" transform="translate(621.822479, 243.783961)" fill-rule="nonzero" fill="#000000">
                        <path d="M11.6777836,10.6230278 C11.6777836,10.6230278 6.79254202,27.0217512 0.602678571,31.798216 C0.368935038,31.9730108 0.249989145,32.261894 0.292931364,32.550497 C0.335873584,32.8391001 0.53377943,33.0808856 0.808298319,33.1801309 C5.92752101,35.0439444 22.3771008,41.3227987 28.0919118,47.0347136 L28.2904412,47.2331424 C28.2904412,47.2331424 62.5154937,29.8281015 44.1018908,0.219689034 L11.6777836,10.6230278 Z" id="Shape"></path>
                    </g>
                    <path d="M633.500263,254.010131 C633.500263,254.010131 628.615021,270.408854 622.425158,275.185319 C622.191414,275.360114 622.072468,275.648997 622.11541,275.9376 C622.158353,276.226203 622.356258,276.467989 622.630777,276.567234 C627.75,278.431047 644.19958,284.709902 649.914391,290.421817 L650.11292,290.620245 C650.11292,290.620245 684.337973,273.215205 665.92437,243.606792 L633.500263,254.010131 Z" id="Shape" fill="#E23553" fill-rule="nonzero"></path>
                    <g id="Group" opacity="0.1" transform="translate(597.006303, 164.412439)" fill-rule="nonzero" fill="#000000">
                        <path d="M8.38786765,8.28440262 C5.84456098,9.99441381 3.0638634,11.3219777 0.134716387,12.2246318 L2.88576681,36.6951555 C2.88576681,36.6951555 -3.54516807,51.0812439 14.8471639,61.1302455 C14.8471639,61.1302455 26.0144433,75.9627987 24.7736345,89.9662029 C24.7736345,89.9662029 30.7649685,96.3867921 34.7710084,94.792275 C38.7770483,93.1977578 35.1680672,95.5930769 35.9692752,95.1962193 C36.7704832,94.7993617 38.3658088,98.4065139 50.7809874,95.231653 C63.196166,92.0567921 72.0519958,83.6873486 71.633666,80.8809984 C71.2153361,78.0746481 55.2762605,60.0318003 51.3269433,38.0132897 C47.3776261,15.9947791 23.8022584,0.333076923 23.8022584,0.333076923 C23.8022584,0.333076923 23.0223214,0.765368249 21.6751576,1.33939444 C17.0666589,3.29402043 12.6231906,5.61653498 8.38786765,8.28440262 L8.38786765,8.28440262 Z" id="Shape"></path>
                    </g>
                    <g id="Group" opacity="0.1" transform="translate(621.822479, 243.075286)" fill-rule="nonzero" fill="#000000">
                        <path d="M0.290703782,32.6557119 C0.260784848,33.0092751 0.473529863,33.3384259 0.808298319,33.4565139 C5.21848739,35.0652046 18.0378151,39.9479705 25.1565126,44.9228642 C18.9950105,39.9479705 5.88497899,34.7817349 0.290703782,32.6557119 Z" id="Shape"></path>
                        <path d="M44.1018908,0.531505728 L43.3928571,0.772454992 C59.126313,28.2619313 29.4957983,44.8661702 26.9078256,46.2480851 C27.3545168,46.6165957 27.758666,46.9567594 28.1273634,47.3465303 L28.3258929,47.5449591 C28.3258929,47.5449591 62.5154937,30.1399182 44.1018908,0.531505728 Z" id="Shape"></path>
                    </g>
                    <path d="M647.907826,258.807856 C635.499737,262.011064 633.897321,258.410998 633.096113,258.807856 C632.294905,259.204714 635.932248,256.809394 631.897847,258.410998 C627.863445,260.012602 621.893382,253.606187 621.893382,253.606187 C621.950105,252.897512 621.978466,252.238445 621.978466,251.551031 C622.021008,238.17126 611.853466,224.798576 611.853466,224.798576 C593.418592,214.799182 599.842437,200.391833 599.842437,200.391833 L599.090861,193.829509 L597.027574,175.928396 C599.95278,175.02052 602.728724,173.688169 605.266544,171.973993 C609.495189,169.299273 613.931379,166.967365 618.532563,165.000638 C619.886817,164.419525 620.659664,163.987234 620.659664,163.987234 C620.659664,163.987234 644.277574,179.578069 648.311975,201.596579 C652.346376,223.61509 668.327994,241.608331 668.725053,244.407594 C669.122111,247.206858 660.315914,255.604648 647.907826,258.807856 Z" id="Shape" fill="#F9CE43" fill-rule="nonzero"></path>
                    <g id="Group" opacity="0.1" transform="translate(588.497899, 150.238953)" fill-rule="nonzero" fill="#000000">
                        <path d="M17.7754727,0.141734861 L0.163077731,12.1466776 C2.5906203,12.9884865 4.89974525,14.1388912 7.03361345,15.5695745 C13.0320378,14.726252 16.7048319,10.4316858 19.1793592,5.14497545 C18.2150735,3.60006547 18.6404937,2.21815057 17.7754727,0.141734861 Z" id="Shape"></path>
                    </g>
                    <ellipse id="Oval" fill="#FDB797" fill-rule="nonzero" cx="592.667017" cy="147.985368" rx="17.612395" ry="17.6034697"></ellipse>
                    <g id="Group" opacity="0.1" transform="translate(597.006303, 174.333879)" fill-rule="nonzero" fill="#000000">
                        <path d="M53.7022059,82.4755155 C41.2941176,85.6787234 39.6917017,82.0786579 38.8904937,82.4755155 C38.0892857,82.8723732 41.7266282,80.477054 37.6922269,82.0786579 C33.6578256,83.6802619 27.6877626,77.2738462 27.6877626,77.2738462 C27.7444853,76.5651718 27.7728466,75.9061047 27.7728466,75.2186907 C27.822479,61.86018 17.676208,48.4662357 17.676208,48.4662357 C-0.758665966,38.4668412 5.66517857,24.0594926 5.66517857,24.0594926 L4.92069328,17.4900818 L2.97085084,0.545679214 C2.0288058,0.970001854 1.05432483,1.31836222 0.0567226891,1.58743044 L2.08455882,19.4956301 L2.84322479,26.0579542 C2.84322479,26.0579542 -3.53807773,40.4653028 14.8542542,50.4646972 C14.8542542,50.4646972 25.0005252,63.8586416 24.9508929,77.2171522 C24.9508929,77.9258265 24.9508929,78.5848936 24.8658088,79.2723077 C24.8658088,79.2723077 30.8713235,85.6503764 34.8702731,84.0771195 C38.8692227,82.5038625 35.2673319,84.8779214 36.0685399,84.4739771 C36.8697479,84.0700327 38.4721639,87.6771849 50.8802521,84.4739771 C56.5094755,83.0182132 61.7847149,80.4361747 66.3868172,76.8840753 C62.4837043,79.4115174 58.2014811,81.2991429 53.7022059,82.4755155 L53.7022059,82.4755155 Z" id="Shape"></path>
                    </g>
                    <path d="M617.483193,187.189231 C617.483193,187.189231 607.478729,190.789296 601.884454,196.791768 C601.884454,196.791768 574.664653,207.591964 567.056723,206.394304 C559.448792,205.196645 559.051733,203.191097 557.449317,200.016236 L540.233981,168.834566 C540.233981,168.834566 533.0302,142.826219 540.233981,145.625483 C547.437763,148.424746 549.451418,164.051015 549.451418,164.051015 C549.451418,164.051015 563.064863,191.257021 571.466912,190.860164 L594.269433,179.9891 C594.269433,179.9891 599.473739,172.385025 601.877363,172.788969 C604.280987,173.192913 617.483193,187.189231 617.483193,187.189231 Z" id="Shape" fill="#FDB797" fill-rule="nonzero"></path>
                    <g id="Group" opacity="0.1" transform="translate(592.752101, 172.207856)" fill-rule="nonzero" fill="#000000">
                        <path d="M11.2169118,0.333076923 C11.2169118,0.333076923 2.91412815,-0.425204583 0.510504202,9.97813421 C-1.89311975,20.381473 18.9453782,26.780802 18.9453782,26.780802 L30.1551996,11.1899673 L11.2169118,0.333076923 Z" id="Shape"></path>
                    </g>
                    <path d="M604.373162,172.540933 C604.373162,172.540933 596.070378,171.782651 593.666754,182.18599 C591.26313,192.589329 612.101628,198.988658 612.101628,198.988658 L623.31145,183.397823 L604.373162,172.540933 Z" id="Shape" fill="#F9CE43" fill-rule="nonzero"></path>
                    <g id="Group" opacity="0.1" transform="translate(597.006303, 163.703764)" fill-rule="nonzero" fill="#000000">
                        <path d="M3.97767857,10.6868085 C2.72115744,11.319632 1.40549469,11.8275907 0.0496323529,12.2033715 L0.120535714,12.8057447 C1.44294307,12.1683131 2.7304776,11.4610011 3.97767857,10.6868085 L3.97767857,10.6868085 Z" id="Shape"></path>
                        <path d="M71.71875,80.7038298 C71.3216912,77.8691326 55.3046218,59.8971522 51.3056723,37.8928151 C47.3067227,15.8884779 23.6533613,0.283469722 23.6533613,0.283469722 C23.6533613,0.283469722 22.8734244,0.715761047 21.5262605,1.29687398 C17.9286519,2.8415376 14.4289445,4.60470451 11.0467437,6.57649755 C13.2920168,5.3953737 15.5845588,4.30401528 17.9243697,3.30242226 C19.2786239,2.72130933 20.0514706,2.289018 20.0514706,2.289018 C20.0514706,2.289018 43.6693803,17.8798527 47.7037815,39.8983633 C51.7381828,61.916874 67.7198004,79.9101146 68.1168592,82.7093781 C68.3721113,84.4739771 64.9616597,88.4638134 59.2964811,91.978838 C67.0745798,88.116563 72.0236345,82.8156792 71.71875,80.7038298 Z" id="Shape"></path>
                    </g>
                    <path d="M609.130777,172.703928 C609.130777,172.703928 619.482668,177.827643 621.432511,187.678216" id="Shape" stroke="#000000" opacity="0.1"></path>
                    <g id="Group" opacity="0.1" transform="translate(567.226891, 117.639935)" fill-rule="nonzero" fill="#000000">
                        <path d="M16.5913866,29.3532897 C18.2434349,29.7218003 20.0869223,30.2391326 20.9023109,31.7202619 C21.4908088,32.7974468 21.3844538,34.1510147 21.958771,35.2636334 C23.4335609,38.0416367 27.758666,37.0849264 30.4671744,38.7148773 C35.4304097,41.7054828 32.1901261,51.0316367 37.1320903,54.0364157 C38.0609244,54.6033552 39.1599265,54.8301309 40.1171218,55.3474632 C44.2933298,57.6293944 43.7048319,63.6672995 42.9532563,68.3658101 C42.2016807,73.0643208 43.095063,79.4919967 47.8101366,80.1581506 C50.4051996,80.5195745 53.3193277,78.8045827 55.5031513,80.2431915 C56.6446954,80.9943863 57.1622899,82.3692144 58.1194853,83.3684452 C59.4632032,84.7080276 61.4741844,85.1228258 63.238708,84.4243699 C64.8411239,83.758216 65.9968487,82.2345663 67.6630777,81.745581 C70.3432248,80.9589525 73.3353466,83.1274959 75.916229,82.1282651 C78.4971113,81.1290344 79.0856092,77.4014075 78.4191176,74.5879705 C77.7526261,71.7745336 76.3912815,68.9185761 77.1003151,66.0838789 C77.688813,63.7452537 79.6032038,61.9593944 80.4398634,59.7058101 C82.8931197,53.0513584 75.2851891,46.1772177 76.6890756,39.2251227 C77.2988445,36.213257 79.5677521,33.5557283 79.5252101,30.5155155 C79.4543067,26.972144 76.3132878,24.2862684 73.0446429,22.9823077 C69.7759979,21.678347 66.1882878,21.3098363 62.9905462,19.857054 C55.9782038,16.6680196 52.1423319,8.95764321 45.7326681,4.67725041 C42.8618722,2.80464517 39.6257737,1.56303825 36.238708,1.03466448 C27.3963352,-0.388025776 18.3693148,2.06512921 11.4650735,7.76707038 C10.8340336,8.27731588 10.188813,8.7592144 9.5365021,9.22693944 C6.79963235,11.2041408 3.86423319,13.1529951 2.1980042,16.0869067 C-3.8855042,26.6745008 10.0895483,27.8863339 16.5913866,29.3532897 Z" id="Shape"></path>
                    </g>
                    <path d="M584.314601,145.993993 C585.966649,146.362504 587.810137,146.879836 588.625525,148.360966 C589.214023,149.438151 589.107668,150.791718 589.681985,151.904337 C591.156775,154.68234 595.48188,153.72563 598.190389,155.355581 C603.153624,158.346187 599.91334,167.67234 604.855305,170.677119 C605.784139,171.244059 606.883141,171.470835 607.840336,171.988167 C612.016544,174.270098 611.428046,180.308003 610.676471,185.006514 C609.924895,189.705025 610.818277,196.1327 615.533351,196.798854 C618.128414,197.160278 621.042542,195.445286 623.226366,196.883895 C624.36791,197.63509 624.885504,199.009918 625.8427,200.009149 C627.186418,201.348731 629.197399,201.76353 630.961922,201.065074 C632.564338,200.39892 633.720063,198.87527 635.386292,198.386285 C638.066439,197.599656 641.058561,199.7682 643.639443,198.768969 C646.220326,197.769738 646.808824,194.042111 646.142332,191.228674 C645.47584,188.415237 644.114496,185.55928 644.823529,182.724583 C645.412027,180.385957 647.326418,178.600098 648.163078,176.346514 C650.616334,169.692062 643.008403,162.817921 644.41229,155.865827 C645.022059,152.853961 647.290966,150.196432 647.248424,147.156219 C647.177521,143.612848 644.036502,140.926972 640.767857,139.623011 C637.499212,138.319051 633.911502,137.95054 630.713761,136.497758 C623.701418,133.308723 619.865546,125.598347 613.455882,121.317954 C610.851612,119.609339 607.936504,118.429439 604.876576,117.84545 C595.754324,116.096492 586.327104,118.507972 579.167017,124.421948 C578.543067,124.925106 577.897847,125.407005 577.259716,125.839296 C574.522847,127.816498 571.587447,129.765352 569.921218,132.699264 C563.83771,143.315205 577.819853,144.534124 584.314601,145.993993 Z" id="Shape" fill="#FA709A" fill-rule="nonzero"></path>
                    <path d="M441.614496,256.66766 L318.242647,256.66766 L318.242647,233.430229 C348.383666,219.348871 394.761555,211.440065 441.614496,256.66766 Z" id="Shape" fill="#FA709A" fill-rule="nonzero"></path>
                    <g id="Group" opacity="0.1" transform="translate(382.878151, 221.815057)" fill-rule="nonzero" fill="#000000">
                        <path d="M154.455882,31.5289198 L154.455882,34.8526023 L0.595588235,34.8526023 L0.595588235,34.143928 C0.595588235,34.143928 76.3061975,-39.5369394 154.455882,31.5289198 Z" id="Shape"></path>
                    </g>
                    <path d="M538.752101,253.343977 L538.752101,256.66766 L384.891807,256.66766 L384.891807,255.958985 C384.891807,255.958985 460.602416,182.278118 538.752101,253.343977 Z" id="Shape" fill="#FA709A" fill-rule="nonzero"></path>
                    <ellipse id="Oval" fill="#FA709A" fill-rule="nonzero" cx="343.767857" cy="152.492537" rx="11.3445378" ry="11.3387889"></ellipse>
                    <path d="M440.352416,143.917578 C439.054884,143.917578 437.608456,143.917578 436.622899,143.995532 C436.182284,144.019757 435.747561,144.10809 435.332458,144.257741 L428.660452,146.653061 C434.049107,146.787709 439.671744,146.745188 445.195116,146.702668 L476.165704,146.461718 C479.327994,146.461718 482.646271,146.405025 485.276786,146.220769 C487.042279,146.093208 488.339811,145.908953 489.970588,145.767218 C495.834296,145.242799 504.378151,145.342013 512.014443,145.37036 C519.650735,145.398707 528.868172,145.200278 531.55541,144.43491 L515.162553,144.43491 C513.397059,144.43491 511.539391,144.43491 509.979517,144.349869 C508.1573,144.243568 507.044118,144.045139 505.441702,143.903404 C502.789916,143.676628 499.131303,143.648282 495.727941,143.634108 C477.044905,143.556154 458.595851,143.995532 440.352416,143.917578 Z" id="Shape" fill="#F4F4F4" fill-rule="nonzero"></path>
                    <path d="M458.702206,157.651686 C458.418592,157.651686 458.106618,157.651686 457.893908,157.651686 C457.797095,157.656541 457.701528,157.675644 457.610294,157.70838 L456.192227,158.225712 C457.362132,158.225712 458.57458,158.225712 459.772847,158.225712 L466.480305,158.176105 C467.189338,158.176105 467.898372,158.176105 468.451418,158.126498 C468.834296,158.126498 469.11791,158.05563 469.465336,158.027283 C470.734506,157.913895 472.585084,157.935155 474.244223,157.942242 C475.665526,157.989978 477.088353,157.921243 478.498424,157.736727 L474.953256,157.736727 C474.570378,157.736727 474.166229,157.736727 473.832983,157.736727 C473.499737,157.736727 473.194853,157.672946 472.847426,157.637512 C472.273109,157.587905 471.478992,157.580818 470.720326,157.580818 C466.678834,157.580818 462.679884,157.672946 458.702206,157.651686 Z" id="Shape" fill="#F4F4F4" fill-rule="nonzero"></path>
                    <path d="M411.196954,177.494566 C410.91334,177.494566 410.601366,177.494566 410.388655,177.494566 C410.291843,177.499421 410.196276,177.518525 410.105042,177.55126 L408.686975,178.068592 C409.85688,178.068592 411.069328,178.068592 412.267595,178.068592 L418.975053,178.018985 C419.684086,178.018985 420.39312,178.018985 420.946166,177.969378 C421.329044,177.969378 421.612658,177.898511 421.960084,177.870164 C423.229254,177.756776 425.079832,177.778036 426.738971,177.785123 C428.160274,177.832859 429.5831,177.764124 430.993172,177.579607 L427.448004,177.579607 C427.065126,177.579607 426.660977,177.579607 426.327731,177.579607 C425.994485,177.579607 425.689601,177.515827 425.342174,177.480393 C424.767857,177.430786 423.973739,177.423699 423.215074,177.423699 C419.173582,177.423699 415.174632,177.515827 411.196954,177.494566 Z" id="Shape" fill="#F4F4F4" fill-rule="nonzero"></path>
                    <path d="M384.54438,250.381718 L379.212447,250.381718 C379.212447,250.381718 377.546218,192.100344 384.54438,174.11419 L385.877363,174.11419 C385.877363,174.11419 381.211922,240.056334 384.54438,250.381718 Z" id="Shape" fill="#FA709A" fill-rule="nonzero"></path>
                    <path d="M380.878676,171.116498 C380.878676,171.116498 376.546481,183.107267 378.545956,188.436498 C378.545956,188.436498 381.545168,177.444959 385.040704,175.779574 C388.536239,174.11419 392.201943,188.436498 392.201943,188.436498 C392.201943,188.436498 394.201418,179.443421 390.535714,172.136989 C390.535714,172.136989 397.867122,176.133912 401.532826,183.794681 C401.532826,183.794681 402.199317,178.833961 393.534926,168.473142 C393.534926,168.473142 401.19958,170.471604 406.198267,175.134681 C406.198267,175.134681 407.864496,171.470835 397.533876,165.47545 C397.533876,165.47545 398.866859,161.14545 406.864758,163.143912 C406.864758,163.143912 406.864758,157.474517 394.201418,158.480835 C394.201418,158.480835 394.201418,154.816989 402.532563,155.483142 C402.532563,155.483142 402.532563,150.820065 392.868435,152.48545 C392.868435,152.48545 394.86791,149.487758 396.200893,148.821604 C394.533827,148.667545 392.869454,149.142839 391.535452,150.153912 C391.535452,150.153912 391.868697,144.158527 386.870011,141.826989 L386.203519,150.153912 C386.203519,150.153912 380.602153,143.556154 381.871324,144.824681 C382.204569,145.157758 383.204307,149.154681 382.871061,151.153142 C382.871061,151.153142 377.198792,146.490065 370.207721,151.486219 C370.207721,151.486219 378.872111,152.152373 380.205095,155.150065 C380.205095,155.150065 372.873687,153.817758 371.207458,154.816989 C371.207458,154.816989 376.879727,156.81545 376.539391,158.147758 C376.539391,158.147758 366.542017,158.147758 365.194853,161.811604 C365.194853,161.811604 375.525473,163.143912 376.191964,164.143142 C376.191964,164.143142 364.195116,172.803142 363.528624,175.134681 C363.528624,175.134681 375.858718,167.806989 377.858193,167.806989 C379.857668,167.806989 368.860557,178.437103 369.527048,181.130065 C369.55541,181.108805 378.581408,170.450344 380.878676,171.116498 Z" id="Shape" fill="#FA709A" fill-rule="nonzero"></path>
                    <path d="M450.307248,248.199002 L454.377101,248.199002 C454.377101,248.199002 455.653361,203.672995 450.307248,189.9318 L449.286239,189.9318 C449.286239,189.9318 452.859769,240.297283 450.307248,248.199002 Z" id="Shape" fill="#FA709A" fill-rule="nonzero"></path>
                    <path d="M453.107931,187.642782 C453.107931,187.642782 456.419118,196.805941 454.887605,200.873732 C454.887605,200.873732 452.597426,192.475941 449.92437,191.207414 C447.251313,189.938887 444.45063,200.873732 444.45063,200.873732 C444.45063,200.873732 442.926208,194.006678 445.726891,188.408151 C442.143419,190.528209 439.231164,193.615845 437.324842,197.316187 C437.324842,197.316187 436.814338,193.496432 443.436712,185.608887 C443.436712,185.608887 437.580095,187.132537 433.765494,190.697169 C433.765494,190.697169 432.489233,187.897905 440.387868,183.319869 C440.387868,183.319869 439.366859,180.01036 433.26208,181.541097 C433.26208,181.541097 433.26208,177.218183 442.933298,177.997725 C442.933298,177.997725 442.933298,175.198462 436.551996,175.708707 C436.551996,175.708707 436.551996,172.165336 443.933036,173.419689 C443.933036,173.419689 442.408613,171.130671 441.387605,170.620426 C442.655153,170.508375 443.919019,170.872184 444.932773,171.640917 C444.932773,171.640917 444.677521,167.062881 448.477941,165.262848 L448.988445,171.640917 C448.988445,171.640917 453.242647,166.602242 452.299632,167.573126 C451.689842,169.107733 451.428305,170.758452 451.533876,172.406285 C451.533876,172.406285 455.858981,168.862913 461.205095,172.661408 C461.205095,172.661408 454.582721,173.171653 453.568803,175.460671 C453.568803,175.460671 459.170168,174.44018 460.439338,175.205548 C460.439338,175.205548 456.114233,176.729198 456.369485,177.749689 C456.369485,177.749689 464.005777,177.749689 465.026786,180.548953 C465.026786,180.548953 457.135242,181.569444 456.624737,182.327725 C456.624737,182.327725 465.792542,188.946743 466.295956,190.725516 C466.295956,190.725516 456.879989,185.126989 455.348477,185.126989 C453.816964,185.126989 462.219013,193.269656 461.729779,195.303552 C461.765231,195.275205 454.894695,187.14671 453.107931,187.642782 Z" id="Shape" fill="#FA709A" fill-rule="nonzero"></path>
                    <path d="M499.039128,239.496481 L501.563288,239.496481 C501.563288,239.496481 502.350315,211.921964 499.039128,203.410786 L498.408088,203.410786 C498.408088,203.410786 500.613183,234.627889 499.039128,239.496481 Z" id="Shape" fill="#FA709A" fill-rule="nonzero"></path>
                    <path d="M500.776261,201.993437 C500.776261,201.993437 502.825368,207.662831 501.882353,210.185712 C501.882353,210.185712 500.464286,204.984043 498.805147,204.197414 C497.146008,203.410786 495.415966,210.185712 495.415966,210.185712 C495.415966,210.185712 494.472952,205.933666 496.202994,202.461162 C493.983904,203.773147 492.180072,205.684142 490.998687,207.974648 C490.998687,207.974648 490.686712,205.607676 494.784926,200.72491 C492.585537,201.336729 490.542659,202.412018 488.793592,203.878511 C488.793592,203.878511 488.006565,202.142259 492.891807,199.307561 C492.891807,199.307561 492.260767,197.259493 488.474527,198.202029 C488.474527,198.202029 488.474527,195.523241 494.465861,195.998052 C494.465861,195.998052 494.465861,194.2618 490.523634,194.580704 C490.523634,194.580704 490.523634,192.376727 495.096901,193.163355 C494.674713,192.49943 494.142408,191.912274 493.522847,191.427103 C494.310883,191.35482 495.097466,191.579805 495.727941,192.057823 C495.727941,192.057823 495.571954,189.223126 497.933036,188.117594 L498.245011,192.057823 C498.245011,192.057823 500.896796,188.939656 500.294118,189.534943 C499.916481,190.484442 499.754235,191.505835 499.819065,192.525548 C501.62037,191.213207 504.079858,191.277208 505.810399,192.681457 C505.810399,192.681457 501.712185,192.993273 501.081145,194.417709 C501.081145,194.417709 504.548319,193.786989 505.335347,194.2618 C505.335347,194.2618 502.6552,195.204337 502.811187,195.835057 C502.811187,195.835057 507.540441,195.835057 508.171481,197.571309 C508.171481,197.571309 503.286239,198.202029 502.967174,198.676841 C502.967174,198.676841 508.639443,202.772979 508.958508,203.878511 C508.958508,203.878511 503.123162,200.413093 502.180147,200.413093 C501.237132,200.413093 506.434349,205.458854 506.122374,206.713208 C506.136555,206.720295 501.875263,201.674534 500.776261,201.993437 Z" id="Shape" fill="#FA709A" fill-rule="nonzero"></path>
                    <path d="M406.864758,208.314812 L406.864758,208.314812 L406.332983,205.480115 C406.331506,205.058895 406.157227,204.656719 405.85084,204.367496 L403.390494,203.16275 L403.390494,203.16275 C403.20921,202.949912 403.061016,202.71101 402.950893,202.454075 L402.993435,202.390295 C403.128906,202.22203 403.225727,202.026067 403.277048,201.816268 C403.281586,201.762031 403.281586,201.70751 403.277048,201.653273 L403.3125,201.653273 C403.783304,201.716005 404.223807,201.408117 404.326418,200.944599 L404.326418,200.880818 C404.236618,201.274108 403.899521,201.562079 403.496849,201.589493 C404.192265,201.123944 404.609746,200.342561 404.610032,199.50599 C404.610032,199.50599 404.610032,199.435123 404.610032,199.399689 C404.829712,199.265101 404.9818,199.043525 405.028361,198.790229 L405.028361,198.726448 C404.967651,198.966508 404.811396,199.17133 404.595851,199.293388 C404.578691,199.050827 404.52614,198.812077 404.439863,198.584714 L404.503676,198.584714 C405.008826,198.584714 405.41833,198.175417 405.41833,197.670524 C405.41833,197.670524 405.41833,197.628003 405.41833,197.606743 C405.384952,198.083854 404.989279,198.45461 404.510767,198.457152 L404.397321,198.457152 L404.397321,198.414632 C404.95245,198.247974 405.36131,197.775815 405.446691,197.202799 C405.446691,197.202799 405.446691,197.160278 405.446691,197.139018 C405.43456,197.316558 405.37045,197.48661 405.262342,197.628003 C405.287363,197.157507 404.950521,196.745065 404.48431,196.675352 C404.0181,196.60564 403.575238,196.901492 403.461397,197.358707 L403.298319,197.266579 C403.402995,196.892401 403.732864,196.625228 404.120798,196.600426 L404.056985,196.600426 C403.663936,196.597297 403.312835,196.84551 403.184874,197.216972 C402.051819,196.690458 400.703834,197.077127 400.022584,198.124075 C399.831145,198.26581 399.582983,198.471326 399.590074,198.648494 C399.50798,198.730686 399.434344,198.820904 399.370273,198.917791 C399.100326,199.509522 399.002058,200.16513 399.08666,200.809951 C399.166098,201.460463 398.922542,202.108734 398.434349,202.546203 C398.647594,202.635181 398.887595,202.635181 399.10084,202.546203 C399.311616,202.457189 399.509536,202.340404 399.689338,202.198953 C399.857123,202.097101 400.000042,201.959097 400.107668,201.795008 L400.107668,201.759574 C400.225789,201.838427 400.351715,201.90492 400.483456,201.958003 C400.533088,202.383208 400.547269,202.872193 400.35583,203.035188 L400.35583,203.035188 L400.35583,203.035188 L400.391282,202.957234 C399.934262,203.301089 399.365622,203.462753 398.795956,203.410786 C398.096603,203.450228 397.469346,203.853836 397.143908,204.473797 L396.371061,207.698265 L396.371061,207.698265 L396.371061,207.754959 L396.371061,207.754959 L396.371061,207.811653 L396.371061,207.811653 C396.39499,207.900246 396.465901,207.968396 396.55541,207.988822 L396.796481,208.052602 C396.832868,208.603537 396.777764,209.156692 396.633403,209.68964 C396.471579,210.483283 396.379057,211.289479 396.35688,212.099133 C396.413603,212.503077 396.512868,214.60784 396.5625,215.60707 C396.476475,215.948256 396.407846,216.293589 396.35688,216.641735 L395.215336,223.487529 C395.215336,223.487529 394.364496,228.965581 394.407038,230.623879 L394.258141,231.580589 C394.258141,231.580589 391.939601,234.486154 392.620273,234.897185 C393.300945,235.308216 394.350315,235.485385 395.350053,233.940475 C395.485557,233.576375 395.704037,233.24882 395.988183,232.983764 C396.218577,232.784627 396.337605,232.485886 396.307248,232.182962 L396.236345,231.474288 L396.35688,231.516809 L396.35688,231.516809 L396.427784,231.516809 C396.427784,231.516809 397.569328,227.767921 397.441702,225.13874 C397.441702,225.13874 399.568803,217.612619 401.164128,216.429133 L401.164128,216.379525 L401.313025,216.308658 L401.653361,223.600917 L401.305935,231.637283 L401.227941,232.119182 C401.227941,232.119182 398.909401,235.024746 399.590074,235.435777 C400.270746,235.846809 401.320116,236.023977 402.319853,234.479067 C402.455357,234.114967 402.673838,233.787412 402.957983,233.522357 C403.188377,233.323219 403.307405,233.024479 403.277048,232.721555 L403.170693,231.658543 C403.567752,230.304975 404.588761,226.407267 404.170431,224.146596 L404.879464,219.341784 C405.588498,218.540982 405.496324,216.507087 405.496324,216.507087 C406.05646,215.337774 406.205357,210.752651 406.205357,210.752651 L406.347164,208.484894 C406.453328,208.475886 406.560065,208.475886 406.666229,208.484894 L406.737132,208.484894 L406.779674,208.484894 L406.779674,208.442373 C406.800146,208.42448 406.816994,208.402828 406.829307,208.378592 L406.871849,208.378592 L406.871849,208.321899 L406.871849,208.321899 L406.864758,208.314812 Z M404.879464,212.921195 C404.815651,212.765286 404.744748,212.609378 404.666754,212.45347 L404.610032,212.45347 L404.610032,212.396776 C404.608087,212.377928 404.608087,212.35893 404.610032,212.340082 L404.610032,212.283388 C404.643331,212.207318 404.671749,212.129206 404.695116,212.049525 C404.786744,211.903137 404.833569,211.733175 404.829832,211.56054 C404.913304,212.009176 404.930028,212.467674 404.879464,212.921195 Z M404.666754,210.979427 L404.524947,209.462864 L404.567489,209.34239 L404.758929,211.269984 L404.666754,210.979427 Z M397.945116,211.184943 C397.846496,211.297841 397.800149,211.447107 397.817489,211.595974 C397.817489,211.595974 397.817489,211.595974 397.817489,211.645581 C397.818461,211.79893 397.839922,211.951463 397.881303,212.099133 L397.661502,213.048756 L397.661502,211.23455 C397.807141,211.043273 397.935282,210.839299 398.04438,210.62509 C398.066647,210.81739 398.032141,211.012001 397.945116,211.184943 L397.945116,211.184943 Z" id="Shape" fill="url(#linearGradient-5)" fill-rule="nonzero"></path>
                    <path d="M399.377363,199.477643 C399.116452,200.046906 399.020644,200.677936 399.10084,201.298936 C399.176207,201.925954 398.940646,202.550272 398.4698,202.971408 C398.676224,203.05763 398.908598,203.05763 399.115021,202.971408 C399.318086,202.88611 399.508847,202.774094 399.682248,202.638331 C399.844395,202.540202 399.982492,202.407018 400.086397,202.24856 C400.184442,202.003629 400.216232,201.737213 400.178571,201.476105 C400.179589,201.012889 400.219912,200.550594 400.299107,200.09419 C400.341649,199.81072 400.611082,199.038265 400.299107,198.889444 C399.987132,198.740622 399.51208,199.265041 399.377363,199.477643 Z" id="Shape" fill="#72351C" fill-rule="nonzero"></path>
                    <path d="M394.690651,229.603388 L394.470851,231.020736 C394.470851,231.020736 392.237395,233.855434 392.896796,234.216858 C393.556197,234.578282 394.563025,234.783797 395.527311,233.295581 C395.656446,232.945437 395.865187,232.630057 396.13708,232.374304 L396.13708,232.374304 C396.35858,232.181864 396.472353,231.893608 396.441964,231.601849 L396.222164,229.440393 L394.690651,229.603388 Z" id="Shape" fill="#333333" fill-rule="nonzero"></path>
                    <path d="M401.41229,230.163241 L401.192489,231.580589 C401.192489,231.580589 398.959034,234.415286 399.618435,234.77671 C400.277836,235.138134 401.284664,235.34365 402.24895,233.855434 C402.378085,233.505289 402.586826,233.18991 402.858718,232.934157 L402.858718,232.934157 C403.080218,232.741717 403.193991,232.453461 403.163603,232.161702 L402.943803,230.000245 L401.41229,230.163241 Z" id="Shape" fill="#333333" fill-rule="nonzero"></path>
                    <path d="M397.930935,213.218838 C397.930935,213.218838 396.881565,213.977119 396.512868,216.613388 L395.413866,223.211146 C395.413866,223.211146 394.485032,229.192357 394.6552,230.340409 L396.512868,230.978216 C396.512868,230.978216 397.61187,227.363977 397.491334,224.848183 C397.491334,224.848183 399.72479,216.896858 401.291754,216.344092 L401.625,223.367054 L401.270483,231.268773 L402.858718,231.587676 C402.858718,231.587676 404.468225,226.556088 403.957721,223.891473 L404.78729,218.222079 C404.78729,218.222079 405.737395,215.196039 404.418592,212.552684 L397.930935,213.218838 Z" id="Shape" fill="#4D8AF0" fill-rule="nonzero"></path>
                    <g id="Group" opacity="0.1" transform="translate(396.349790, 211.893617)" fill-rule="nonzero" fill="#000000">
                        <path d="M4.77888655,4.55677578 L4.77888655,4.43630115 C3.21192227,4.99615385 0.978466387,12.9403928 0.978466387,12.9403928 C0.940446817,14.9968879 0.618336284,17.0382723 0.0212710084,19.0066448 L0.21980042,19.0775123 C0.21980042,19.0775123 1.31880252,15.4632733 1.19826681,12.9474795 C1.19117647,12.9545663 3.23319328,5.72608838 4.77888655,4.55677578 Z" id="Shape"></path>
                        <path d="M8.13261555,0.694500818 L7.91990546,0.694500818 C8.68221021,2.47102416 8.80743822,4.45613393 8.27442227,6.31428805 L7.44485294,11.9836825 C7.93408613,14.506563 6.50892857,19.1483797 6.36003151,19.637365 L6.56565126,19.6798854 C6.56565126,19.6798854 8.17515756,14.6482979 7.66465336,11.9836825 L8.49422269,6.31428805 C8.49422269,6.31428805 9.45141807,3.30242226 8.13261555,0.694500818 Z" id="Shape"></path>
                    </g>
                    <path d="M396.505777,208.052602 C396.503232,208.164633 396.580554,208.262723 396.690126,208.286465 C397.208798,208.416684 397.692762,208.658543 398.108193,208.995139 C398.88813,209.604599 397.278624,207.776219 397.278624,207.776219 L396.739758,207.896694 L396.519958,208.095123 L396.505777,208.052602 Z" id="Shape" fill="#F55F44" fill-rule="nonzero"></path>
                    <path d="M396.505777,208.052602 C396.503232,208.164633 396.580554,208.262723 396.690126,208.286465 C397.208798,208.416684 397.692762,208.658543 398.108193,208.995139 C398.88813,209.604599 397.278624,207.776219 397.278624,207.776219 L396.739758,207.896694 L396.519958,208.095123 L396.505777,208.052602 Z" id="Shape" fill="#000000" fill-rule="nonzero" opacity="0.1"></path>
                    <path d="M404.177521,209.66838 C404.833356,209.202954 405.592538,208.903813 406.389706,208.79671 C406.503267,208.79671 406.595326,208.704698 406.595326,208.591195 L406.595326,208.591195 C406.595326,208.591195 404.737658,207.86126 404.177521,209.66838 Z" id="Shape" fill="#F55F44" fill-rule="nonzero"></path>
                    <path d="M406.595326,208.584108 C406.595326,208.584108 404.737658,207.875434 404.177521,209.661293 C404.177521,209.661293 405.545956,208.612455 406.496061,208.782537" id="Shape" fill="#000000" fill-rule="nonzero" opacity="0.1"></path>
                    <ellipse id="Oval" fill="#72351C" fill-rule="nonzero" cx="402.022059" cy="200.044583" rx="2.41780462" ry="2.41657938"></ellipse>
                    <path d="M400.35583,201.738314 C400.35583,201.738314 400.696166,203.155663 400.35583,203.446219 C400.015494,203.736776 399.327731,204.275368 399.845326,204.693486 C400.36292,205.111604 402.213498,205.820278 402.830357,205.473028 C403.447216,205.125777 404.14916,205.232079 403.978992,204.523404 C403.808824,203.81473 402.46166,203.963552 402.440389,200.44144 L400.35583,201.738314 Z" id="Shape" fill="#FDB797" fill-rule="nonzero"></path>
                    <path d="M396.931197,207.627398 C396.981811,208.395981 396.931756,209.16788 396.7823,209.923502 C396.62558,210.686711 396.53543,211.462076 396.512868,212.240867 C396.583771,212.751113 396.732668,216.124403 396.732668,216.124403 C396.732668,216.124403 396.463235,219.079574 397.902574,218.810278 C399.341912,218.540982 397.682773,215.436989 397.682773,215.436989 L397.753676,211.404632 C398.144069,210.874598 398.388548,210.251495 398.46271,209.597512 C398.569065,208.626628 396.931197,207.627398 396.931197,207.627398 Z" id="Shape" fill="#000000" fill-rule="nonzero" opacity="0.1"></path>
                    <path d="M396.909926,207.627398 C396.96054,208.395981 396.910485,209.16788 396.761029,209.923502 C396.604309,210.686711 396.514159,211.462076 396.491597,212.240867 C396.5625,212.751113 396.711397,216.124403 396.711397,216.124403 C396.711397,216.124403 396.441964,219.079574 397.881303,218.810278 C399.320641,218.540982 397.661502,215.436989 397.661502,215.436989 L397.732405,211.404632 C398.122798,210.874598 398.367277,210.251495 398.441439,209.597512 C398.540704,208.626628 396.909926,207.627398 396.909926,207.627398 Z" id="Shape" fill="#FDB797" fill-rule="nonzero"></path>
                    <path d="M406.120273,207.847087 L405.921744,211.000687 C405.921744,211.000687 405.801208,215.422815 405.262342,216.54252 C405.262342,216.54252 405.411239,219.646514 403.964811,219.56856 C402.518382,219.490606 404.205882,216.17401 404.205882,216.17401 C404.205882,216.17401 404.978729,212.722766 404.58167,211.631408 L404.205882,207.847087 L406.120273,207.847087 Z" id="Shape" fill="#000000" fill-rule="nonzero" opacity="0.1"></path>
                    <path d="M406.141544,207.847087 L405.943015,211.000687 C405.943015,211.000687 405.822479,215.422815 405.283613,216.54252 C405.283613,216.54252 405.432511,219.646514 403.986082,219.56856 C402.539653,219.490606 404.227153,216.17401 404.227153,216.17401 C404.227153,216.17401 405,212.722766 404.602941,211.631408 L404.227153,207.847087 L406.141544,207.847087 Z" id="Shape" fill="#FDB797" fill-rule="nonzero"></path>
                    <path d="M401.454832,204.7927 C401.454832,204.7927 402.624737,205.331293 403.262868,203.729689 L405.63813,204.891915 C405.933341,205.172411 406.100022,205.561991 406.099002,205.9691 L406.609506,208.704583 C406.609506,208.704583 404.872374,208.116383 404.333508,209.73216 L404.482405,211.269984 L404.482405,211.269984 C404.594339,211.649706 404.566674,212.056923 404.404412,212.418036 C404.375585,212.483512 404.375585,212.558076 404.404412,212.623552 C404.476358,212.850599 404.436321,213.098295 404.296502,213.291147 C404.156683,213.483999 403.93365,213.599157 403.695378,213.601522 C403.057016,213.60886 402.419846,213.658577 401.788078,213.750344 C401.277574,213.899165 399.73188,213.459787 399.221376,213.750344 C398.710872,214.0409 397.633141,213.530655 397.633141,213.530655 L397.923845,212.283388 C397.923845,212.283388 397.725315,211.673928 397.973477,211.454239 C398.221639,211.23455 398.072742,209.328216 397.852941,208.789624 C397.852941,208.789624 396.973739,207.960475 396.434874,208.080949 L397.143908,204.927349 C397.455155,204.329016 398.058549,203.938624 398.732143,203.899771 C399.281767,203.948953 399.83008,203.792372 400.270746,203.460393 C400.270746,203.460393 399.738971,204.622619 401.454832,204.7927 Z" id="Shape" fill="#000000" fill-rule="nonzero" opacity="0.1"></path>
                    <path d="M401.575368,204.736007 C401.894433,204.821047 402.745273,204.913175 403.255777,203.630475 L405.63104,204.7927 C405.92625,205.073196 406.092932,205.462776 406.091912,205.869885 L406.602416,208.605368 C406.602416,208.605368 404.865284,208.017169 404.326418,209.632946 L404.475315,211.170769 L404.57458,211.475499 C404.661059,211.739692 404.616284,212.029267 404.454044,212.255041 C404.385705,212.332791 404.366552,212.442185 404.404412,212.538511 C404.476358,212.765558 404.436321,213.013254 404.296502,213.206106 C404.156683,213.398958 403.93365,213.514116 403.695378,213.516481 C403.057016,213.523819 402.419846,213.573536 401.788078,213.665303 C401.277574,213.814124 399.73188,213.374746 399.221376,213.665303 C398.710872,213.955859 397.633141,213.445614 397.633141,213.445614 L397.923845,212.198347 C397.923845,212.198347 397.725315,211.588887 397.973477,211.369198 C398.221639,211.149509 398.072742,209.243175 397.852941,208.704583 C397.852941,208.704583 396.973739,207.875434 396.434874,207.995908 L397.143908,204.842308 C397.455155,204.243975 398.058549,203.853583 398.732143,203.81473 C399.281767,203.863913 399.83008,203.707331 400.270746,203.375352 C400.270746,203.375352 399.696429,204.42419 401.20667,204.650966 L401.575368,204.736007 Z" id="Shape" fill="#000000" fill-rule="nonzero" opacity="0.1"></path>
                    <path d="M401.575368,204.785614 C401.894433,204.870655 402.745273,204.962782 403.255777,203.680082 L405.63104,204.842308 C405.92625,205.122804 406.092932,205.512383 406.091912,205.919493 L406.602416,208.654975 C406.602416,208.654975 404.865284,208.066776 404.326418,209.682553 L404.475315,211.220376 L404.475315,211.220376 C404.587249,211.600098 404.559584,212.007316 404.397321,212.368429 C404.368494,212.433904 404.368494,212.508469 404.397321,212.573944 C404.469268,212.800991 404.42923,213.048688 404.289411,213.24154 C404.149593,213.434392 403.926559,213.549549 403.688288,213.551915 C403.049925,213.559253 402.412756,213.60897 401.780987,213.700736 C401.270483,213.849558 399.72479,213.41018 399.214286,213.700736 C398.703782,213.991293 397.62605,213.481047 397.62605,213.481047 L397.916754,212.233781 C397.916754,212.233781 397.718225,211.624321 397.966387,211.404632 C398.214548,211.184943 398.065651,209.278609 397.845851,208.740016 C397.845851,208.740016 396.966649,207.910867 396.427784,208.031342 L397.136817,204.877741 C397.448065,204.279408 398.051458,203.889017 398.725053,203.850164 C399.274677,203.899346 399.82299,203.742765 400.263655,203.410786 C400.263655,203.410786 399.689338,204.459624 401.19958,204.686399 L401.575368,204.785614 Z" id="Shape" fill="#F55F44" fill-rule="nonzero"></path>
                    <path d="M402.47584,200.569002 L400.398372,201.865876 C400.451122,202.099792 400.491358,202.336352 400.518908,202.57455 C400.75576,202.6688 401.00846,202.716909 401.263393,202.716285 C401.770921,202.6807 402.248878,202.464471 402.610557,202.106825 C402.5166,201.599696 402.471488,201.084734 402.47584,200.569002 Z" id="Shape" fill="#000000" fill-rule="nonzero" opacity="0.1"></path>
                    <ellipse id="Oval" fill="#FDB797" fill-rule="nonzero" cx="401.220851" cy="200.554828" rx="2.00656513" ry="2.00554828"></ellipse>
                    <ellipse id="Oval" fill="#72351C" fill-rule="nonzero" cx="404.177521" cy="198.138249" rx="1" ry="1"></ellipse>
                    <path d="M404.347689,199.066612 C403.885986,199.067829 403.501997,198.71189 403.468487,198.251637 C403.468487,198.251637 403.468487,198.294157 403.468487,198.315417 C403.468487,198.800741 403.862119,199.194173 404.347689,199.194173 C404.833259,199.194173 405.226891,198.800741 405.226891,198.315417 C405.226891,198.315417 405.226891,198.272897 405.226891,198.251637 C405.193382,198.71189 404.809392,199.067829 404.347689,199.066612 L404.347689,199.066612 Z" id="Shape" fill="#72351C" fill-rule="nonzero"></path>
                    <path d="M403.844275,199.902848 C403.391852,199.816778 403.08255,199.396341 403.135242,198.939051 L403.135242,198.995745 C403.047134,199.47324 403.362992,199.931716 403.84073,200.019779 C404.318468,200.107842 404.777176,199.792144 404.865284,199.314648 L404.865284,199.250867 C404.752998,199.7053 404.304026,199.991999 403.844275,199.902848 L403.844275,199.902848 Z" id="Shape" fill="#72351C" fill-rule="nonzero"></path>
                    <path d="M403.163603,202.028871 C402.711179,201.942801 402.401878,201.522364 402.454569,201.065074 L402.454569,201.121768 C402.366462,201.599263 402.68232,202.057739 403.160058,202.145802 C403.637796,202.233865 404.096504,201.918167 404.184611,201.440671 L404.184611,201.37689 C404.072326,201.831323 403.623354,202.118021 403.163603,202.028871 L403.163603,202.028871 Z" id="Shape" fill="#72351C" fill-rule="nonzero"></path>
                    <path d="M404.347689,198.598887 C403.883435,198.599854 403.498438,198.239878 403.468487,197.776825 C403.468487,197.776825 403.468487,197.819345 403.468487,197.840606 C403.468487,198.325929 403.862119,198.719362 404.347689,198.719362 C404.833259,198.719362 405.226891,198.325929 405.226891,197.840606 C405.226891,197.840606 405.226891,197.798085 405.226891,197.776825 C405.19694,198.239878 404.811943,198.599854 404.347689,198.598887 L404.347689,198.598887 Z" id="Shape" fill="#72351C" fill-rule="nonzero"></path>
                    <path d="M403.121061,198.124075 C403.124064,197.66022 403.48727,197.278582 403.95063,197.252406 L403.886817,197.252406 C403.401248,197.252406 403.007616,197.645838 403.007616,198.131162 C403.007616,198.616486 403.401248,199.009918 403.886817,199.009918 L403.95063,199.009918 C403.481793,198.983445 403.116526,198.593401 403.121061,198.124075 L403.121061,198.124075 Z" id="Shape" fill="#72351C" fill-rule="nonzero"></path>
                    <path d="M404.007353,206.415565 C404.099825,206.850082 404.099825,207.299181 404.007353,207.733699 C404.007353,207.733699 403.886817,208.881751 404.078256,209.08018" id="Shape" fill="#000000" fill-rule="nonzero" opacity="0.1"></path>
                    <path d="M398.065651,206.684861 C398.158124,207.119378 398.158124,207.568478 398.065651,208.002995 C398.065651,208.002995 397.945116,209.151047 398.136555,209.349476" id="Shape" fill="#000000" fill-rule="nonzero" opacity="0.1"></path>
                    <path d="M398.016019,211.397545 C398.20626,211.465696 398.414276,211.465696 398.604517,211.397545 C398.835645,211.32736 399.082422,211.32736 399.31355,211.397545" id="Shape" fill="#000000" fill-rule="nonzero" opacity="0.1"></path>
                    <path d="M398.313813,209.66838 C399.004444,209.701405 399.694534,209.592879 400.341649,209.349476 C400.341649,209.349476 402.837447,209.958936 403.546481,209.519558" id="Shape" fill="#000000" fill-rule="nonzero" opacity="0.1"></path>
                    <rect id="Rectangle-path" fill="#FDB797" fill-rule="nonzero" x="396.498687" y="220.19928" width="1.53860294" height="1" rx="0.5"></rect>
                    <polygon id="Shape" fill="#F0E4E4" fill-rule="nonzero" points="396.505777 220.454403 397.328256 220.418969 398.03729 220.532357 397.789128 220.532357"></polygon>
                    <polygon id="Shape" fill="#F0E4E4" fill-rule="nonzero" points="402.05042 216.47874 402.872899 216.47874 403.581933 216.549607 403.333771 216.549607"></polygon>
                    <polygon id="Shape" fill="#F0E4E4" fill-rule="nonzero" points="402.05042 216.648822 402.872899 216.648822 403.581933 216.719689 403.333771 216.719689"></polygon>
                    <polygon id="Shape" fill="#F0E4E4" fill-rule="nonzero" points="402.05042 216.82599 402.872899 216.82599 403.581933 216.896858 403.333771 216.896858"></polygon>
                    <polygon id="Shape" fill="#F0E4E4" fill-rule="nonzero" points="402.05042 216.996072 402.872899 216.996072 403.581933 217.066939 403.333771 217.066939"></polygon>
                    <polygon id="Shape" fill="#F0E4E4" fill-rule="nonzero" points="396.505777 221.11347 397.328256 221.11347 398.03729 221.198511 397.789128 221.198511"></polygon>
                    <polygon id="Shape" fill="#F0E4E4" fill-rule="nonzero" points="396.505777 221.028429 397.328256 221.028429 398.03729 221.11347 397.789128 221.11347"></polygon>
                    <polygon id="Shape" fill="#F0E4E4" fill-rule="nonzero" points="396.505777 220.943388 397.328256 220.943388 398.03729 221.028429 397.789128 221.028429"></polygon>
                    <polygon id="Shape" fill="#F0E4E4" fill-rule="nonzero" points="396.505777 220.858347 397.328256 220.858347 398.03729 220.943388 397.789128 220.943388"></polygon>
                    <polygon id="Shape" fill="#F0E4E4" fill-rule="nonzero" points="396.505777 220.326841 397.328256 220.291408 398.03729 220.404795 397.789128 220.404795"></polygon>
                    <polygon id="Shape" fill="#F0E4E4" fill-rule="nonzero" points="396.505777 220.17802 397.328256 220.142586 398.03729 220.255974 397.789128 220.255974"></polygon>
                    <path d="M401.561187,199.272128 C401.482584,200.021163 401.57969,200.7782 401.8448,201.483191 C402.110798,202.175163 402.072176,202.947214 401.738445,203.609214 C401.959406,203.659937 402.191311,203.60199 402.362395,203.453306 C402.538618,203.299045 402.691476,203.120005 402.816176,202.9218 C402.947909,202.760118 403.042328,202.571376 403.0927,202.369034 C403.114197,202.050615 403.065798,201.731347 402.950893,201.433584 C402.813356,200.890766 402.71385,200.339025 402.653099,199.782373 C402.610557,199.442209 402.653099,198.464239 402.270221,198.365025 C401.887342,198.26581 401.63209,198.988658 401.561187,199.272128 Z" id="Shape" fill="#000000" fill-rule="nonzero" opacity="0.1"></path>
                    <path d="M401.610819,199.250867 C401.532217,199.999902 401.629322,200.75694 401.894433,201.461931 C402.16043,202.153903 402.121808,202.925954 401.788078,203.587954 C402.009038,203.638677 402.240944,203.58073 402.412027,203.432046 C402.58825,203.277784 402.741108,203.098745 402.865809,202.90054 C402.997541,202.738858 403.09196,202.550116 403.142332,202.347774 C403.163829,202.029355 403.115431,201.710087 403.000525,201.412324 C402.862988,200.869506 402.763482,200.317765 402.702731,199.761113 C402.660189,199.420949 402.702731,198.442979 402.319853,198.343764 C401.936975,198.24455 401.681723,198.960311 401.610819,199.250867 Z" id="Shape" fill="#72351C" fill-rule="nonzero"></path>
                    <path d="M400.745798,199.775286 C400.915966,199.952455 400.951418,200.214664 401.093225,200.413093 C401.348366,200.686675 401.712342,200.832191 402.085872,200.809951 C402.186755,200.80462 402.287202,200.826659 402.376576,200.873732 C402.532563,200.972946 402.539653,201.199722 402.638918,201.35563 C402.746201,201.470584 402.896422,201.535855 403.053703,201.535855 C403.210984,201.535855 403.361204,201.470584 403.468487,201.35563 C403.673245,201.111127 403.786102,200.802807 403.787553,200.483961 C403.821705,200.132813 403.821705,199.779183 403.787553,199.428036 C403.77799,199.025919 403.618713,198.641825 403.340861,198.350851 C403.108129,198.178571 402.838827,198.062176 402.553834,198.010687 C402.16494,197.873388 401.746578,197.841598 401.341387,197.91856 C401.144856,197.984004 400.958641,198.077064 400.78834,198.194943 C400.547269,198.350851 400.310924,198.509122 400.079307,198.669755 C399.816964,198.85401 399.320641,199.22252 399.802784,199.420949 C400.107668,199.562684 400.490546,199.498903 400.745798,199.775286 Z" id="Shape" fill="#000000" fill-rule="nonzero" opacity="0.1"></path>
                    <path d="M400.795431,199.746939 C400.965599,199.924108 401.00105,200.186318 401.142857,200.384746 C401.397999,200.658328 401.761974,200.803844 402.135504,200.781604 C402.236387,200.776273 402.336834,200.798312 402.426208,200.845385 C402.582195,200.944599 402.589286,201.171375 402.68855,201.327283 C402.795833,201.442237 402.946054,201.507508 403.103335,201.507508 C403.260616,201.507508 403.410837,201.442237 403.51812,201.327283 C403.722877,201.08278 403.835735,200.77446 403.837185,200.455614 C403.871337,200.104466 403.871337,199.750836 403.837185,199.399689 C403.827623,198.997572 403.668345,198.613478 403.390494,198.322504 C403.157761,198.150224 402.88846,198.033829 402.603466,197.98234 C402.214572,197.845041 401.79621,197.813251 401.391019,197.890213 C401.194488,197.955657 401.008273,198.048717 400.837973,198.166596 C400.596901,198.322504 400.360557,198.480775 400.128939,198.641408 C399.866597,198.825663 399.370273,199.194173 399.852416,199.392602 C400.1573,199.534337 400.56145,199.477643 400.795431,199.746939 Z" id="Shape" fill="#72351C" fill-rule="nonzero"></path>
                    <polygon id="Shape" fill="#F0E4E4" fill-rule="nonzero" points="402.100053 216.47874 402.922532 216.47874 403.631565 216.549607 403.397584 216.549607"></polygon>
                    <polygon id="Shape" fill="#F0E4E4" fill-rule="nonzero" points="402.100053 216.648822 402.922532 216.648822 403.631565 216.719689 403.397584 216.719689"></polygon>
                    <polygon id="Shape" fill="#F0E4E4" fill-rule="nonzero" points="402.100053 216.82599 402.922532 216.82599 403.631565 216.896858 403.397584 216.896858"></polygon>
                    <polygon id="Shape" fill="#F0E4E4" fill-rule="nonzero" points="402.100053 216.996072 402.922532 216.996072 403.631565 217.066939 403.397584 217.066939"></polygon>
                    <polygon id="Shape" fill="#F0E4E4" fill-rule="nonzero" points="401.745536 226.40018 402.568015 226.40018 403.277048 226.471047 403.028887 226.471047"></polygon>
                    <polygon id="Shape" fill="#F0E4E4" fill-rule="nonzero" points="401.745536 226.577349 402.568015 226.577349 403.277048 226.648216 403.028887 226.648216"></polygon>
                    <polygon id="Shape" fill="#F0E4E4" fill-rule="nonzero" points="401.745536 226.74743 402.568015 226.74743 403.277048 226.818298 403.028887 226.818298"></polygon>
                    <polygon id="Shape" fill="#F0E4E4" fill-rule="nonzero" points="401.745536 226.917512 402.568015 226.917512 403.277048 226.98838 403.028887 226.98838"></polygon>
                </g>
            </g>
        </g>
    </g>
</svg>
