<?xml version="1.0" ?><svg data-name="002" id="_002" viewBox="0 0 128 128" xmlns="http://www.w3.org/2000/svg"><defs><style>.cls-1{opacity:0.3;}.cls-2{fill:#c9c1f5;}.cls-3{fill:#6d6daa;}.cls-4{fill:#c7e9ff;}.cls-5{fill:#96d7ff;}.cls-6{opacity:0.5;}.cls-7{fill:#fff;}.cls-8{fill:#1c64ba;}.cls-9{fill:#ff99b1;}.cls-10{fill:#db4962;}.cls-11{fill:#fff9e0;}</style></defs><title/><g class="cls-1"><path class="cls-2" d="M97.19,120.79a30,30,0,0,0,17.56-29.52A19.69,19.69,0,0,1,118,79a37,37,0,0,0-32.55-57.5,21,21,0,0,1-16.15-6.68C58.34,3.21,38,1.67,24.37,19a16.6,16.6,0,0,0-3,7.46,20.58,20.58,0,0,1-7.68,12.64,28.49,28.49,0,0,0-.35,44.46A20.06,20.06,0,0,1,20.8,98.75,29,29,0,0,0,63.24,124a20.08,20.08,0,0,1,14.27-1.5A29.83,29.83,0,0,0,97.19,120.79Z"/><path class="cls-3" d="M100,115a1,1,0,0,1-.64-1.77l12-10a1,1,0,0,1,1.28,1.54l-12,10A1,1,0,0,1,100,115Z"/><path class="cls-3" d="M105,119a1,1,0,0,1-.8-1.6l9-12a1,1,0,1,1,1.6,1.2l-9,12A1,1,0,0,1,105,119Z"/><circle class="cls-4" cx="114" cy="104" r="5"/><path class="cls-3" d="M114,110a6,6,0,1,1,6-6A6,6,0,0,1,114,110Zm0-10a4,4,0,1,0,4,4A4,4,0,0,0,114,100Z"/><path class="cls-3" d="M93,113a1,1,0,0,1-.55-1.83L110,99.56a1,1,0,1,1,1.1,1.67l-17.54,11.6A1,1,0,0,1,93,113Z"/><path class="cls-3" d="M107,125a1,1,0,0,1-.84-1.54L116.73,107a1,1,0,1,1,1.68,1.08l-10.58,16.51A1,1,0,0,1,107,125Z"/><circle class="cls-5" cx="111" cy="16" r="7"/><g class="cls-6"><path class="cls-7" d="M111,13.2a7,7,0,0,1,6.66,4.95A6.91,6.91,0,0,0,118,16a7,7,0,0,0-14,0,6.91,6.91,0,0,0,.34,2.15A7,7,0,0,1,111,13.2Z"/></g><path class="cls-3" d="M111,24a8,8,0,1,1,8-8A8,8,0,0,1,111,24Zm0-14a6,6,0,1,0,6,6A6,6,0,0,0,111,10Z"/><circle class="cls-5" cx="16.5" cy="105.5" r="6.5"/><g class="cls-6"><path class="cls-7" d="M16.5,102.9a6.48,6.48,0,0,1,6.18,4.59,6.42,6.42,0,0,0,.32-2,6.5,6.5,0,0,0-13,0,6.42,6.42,0,0,0,.32,2A6.48,6.48,0,0,1,16.5,102.9Z"/></g><path class="cls-3" d="M16.5,113a7.5,7.5,0,1,1,7.5-7.5A7.51,7.51,0,0,1,16.5,113Zm0-13a5.5,5.5,0,1,0,5.5,5.5A5.51,5.51,0,0,0,16.5,100Z"/><polygon class="cls-4" points="29.49 26.98 26.19 30.28 24.36 25.99 25.2 25.15 29.49 26.98"/><path class="cls-4" d="M26.36,23.91,23,27.17a1,1,0,0,1-1.39,0l-2.88-2.88a1,1,0,0,1,0-1.41L22.1,19.6a1,1,0,0,1,1.39,0l2.88,2.88A1,1,0,0,1,26.36,23.91Z"/><rect class="cls-2" height="15.56" transform="translate(-2.21 26.06) rotate(-45)" width="6.06" x="27.32" y="7.92"/><rect class="cls-2" height="15.56" transform="translate(-17.87 19.58) rotate(-45)" width="6.06" x="11.67" y="23.58"/><path class="cls-3" d="M22.31,28.45a2,2,0,0,1-1.41-.58L18,25a2,2,0,0,1,0-2.84l3.36-3.27a2,2,0,0,1,2.8,0l2.88,2.88a2,2,0,0,1,0,2.84h0L23.7,27.89A2,2,0,0,1,22.31,28.45Zm.47-8.13-3.35,3.27,2.88,2.87,3.35-3.26Zm3.58,3.59h0Zm-.7-.72Z"/><path class="cls-3" d="M33.71,24.35a1,1,0,0,1-.71-.29l-11-11a1,1,0,0,1,0-1.41l4.29-4.29a1,1,0,0,1,1.41,0l11,11a1,1,0,0,1,0,1.41l-4.29,4.29A1,1,0,0,1,33.71,24.35Zm-9.59-12,9.59,9.59,2.87-2.87L27,9.47Z"/><path class="cls-3" d="M26.19,31.28l-.19,0a1,1,0,0,1-.73-.59l-1.84-4.29a1,1,0,0,1,.21-1.1l.84-.84a1,1,0,0,1,1.1-.21l4.29,1.84a1,1,0,0,1,.31,1.63L26.9,31A1,1,0,0,1,26.19,31.28Zm-.57-4.86.9,2.11,1.21-1.21Z"/><path class="cls-3" d="M12.56,34.5a1,1,0,0,1-.71-1.71l7.69-7.69A1,1,0,0,1,21,26.51l-7.69,7.69A1,1,0,0,1,12.56,34.5Z"/><path class="cls-3" d="M25,22.1a1,1,0,0,1-.71-1.71l7.07-7.1a1,1,0,0,1,1.42,1.41l-7.07,7.1A1,1,0,0,1,25,22.1Z"/><path class="cls-3" d="M18.06,40a1,1,0,0,1-.71-.29l-11-11a1,1,0,0,1,0-1.41L10.64,23a1,1,0,0,1,1.41,0l11,11a1,1,0,0,1,0,1.41l-4.29,4.29A1,1,0,0,1,18.06,40ZM8.47,28l9.59,9.59,2.87-2.87-9.59-9.59Z"/><path class="cls-3" d="M30.71,32.71a1,1,0,0,1-.71-.29l-.71-.71a1,1,0,0,1,1.41-1.41l.71.71a1,1,0,0,1-.71,1.71Z"/><path class="cls-3" d="M34,36a1,1,0,0,1-.71-.29L32.59,35A1,1,0,0,1,34,33.59l.71.71A1,1,0,0,1,34,36Z"/></g><path class="cls-2" d="M68.85,4.77a5.55,5.55,0,0,0,3.69,3.69q2.77.92,0,1.85A5.55,5.55,0,0,0,68.85,14q-.92,2.77-1.85,0a5.55,5.55,0,0,0-3.69-3.69q-2.77-.92,0-1.85A5.55,5.55,0,0,0,67,4.77Q67.92,2,68.85,4.77Z"/><path class="cls-2" d="M114.62,42.92a3.7,3.7,0,0,0,2.46,2.46q1.85.62,0,1.23a3.7,3.7,0,0,0-2.46,2.46q-.62,1.85-1.23,0a3.7,3.7,0,0,0-2.46-2.46q-1.85-.62,0-1.23a3.7,3.7,0,0,0,2.46-2.46Q114,41.08,114.62,42.92Z"/><path class="cls-5" d="M118.62,76.92a3.7,3.7,0,0,0,2.46,2.46q1.85.62,0,1.23a3.7,3.7,0,0,0-2.46,2.46q-.62,1.85-1.23,0a3.7,3.7,0,0,0-2.46-2.46q-1.85-.62,0-1.23a3.7,3.7,0,0,0,2.46-2.46Q118,75.08,118.62,76.92Z"/><path class="cls-2" d="M84.62,116.92a3.7,3.7,0,0,0,2.46,2.46q1.85.62,0,1.23a3.7,3.7,0,0,0-2.46,2.46q-.62,1.85-1.23,0a3.7,3.7,0,0,0-2.46-2.46q-1.85-.62,0-1.23a3.7,3.7,0,0,0,2.46-2.46Q84,115.08,84.62,116.92Z"/><path class="cls-5" d="M32.77,115.15a4.62,4.62,0,0,0,3.08,3.08q2.31.77,0,1.54a4.62,4.62,0,0,0-3.08,3.08q-.77,2.31-1.54,0a4.62,4.62,0,0,0-3.08-3.08q-2.31-.77,0-1.54a4.62,4.62,0,0,0,3.08-3.08Q32,112.85,32.77,115.15Z"/><path class="cls-2" d="M13.62,45.92a3.7,3.7,0,0,0,2.46,2.46q1.85.62,0,1.23a3.7,3.7,0,0,0-2.46,2.46q-.62,1.85-1.23,0a3.7,3.7,0,0,0-2.46-2.46q-1.85-.62,0-1.23a3.7,3.7,0,0,0,2.46-2.46Q13,44.08,13.62,45.92Z"/><path class="cls-2" d="M9.62,73.92a3.7,3.7,0,0,0,2.46,2.46q1.85.62,0,1.23a3.7,3.7,0,0,0-2.46,2.46q-.62,1.85-1.23,0a3.7,3.7,0,0,0-2.46-2.46q-1.85-.62,0-1.23a3.7,3.7,0,0,0,2.46-2.46Q9,72.08,9.62,73.92Z"/><circle class="cls-4" cx="62" cy="70" r="42"/><g class="cls-1"><path class="cls-3" d="M62,113c-8.88,0-15.84-18.89-15.84-43s7-43,15.84-43S77.84,45.89,77.84,70,70.88,113,62,113Zm0-84c-7.5,0-13.84,18.78-13.84,41S54.5,111,62,111,75.84,92.22,75.84,70,69.5,29,62,29Z"/><path class="cls-3" d="M62,113c-16.54,0-30-19.29-30-43S45.46,27,62,27,92,46.29,92,70,78.54,113,62,113Zm0-84C46.56,29,34,47.39,34,70s12.56,41,28,41S90,92.61,90,70,77.44,29,62,29Z"/><path class="cls-3" d="M62,113a1,1,0,0,1-1-1V28a1,1,0,0,1,2,0v84A1,1,0,0,1,62,113Z"/><path class="cls-3" d="M104,71H20a1,1,0,0,1,0-2h84a1,1,0,0,1,0,2Z"/><path class="cls-3" d="M88.72,103.32a1,1,0,0,1-.52-.15C81.8,99.25,72.25,97,62,97s-19.8,2.25-26.2,6.17a1,1,0,0,1-1-1.71C41.46,97.36,51.39,95,62,95s20.54,2.36,27.24,6.47a1,1,0,0,1-.52,1.85Z"/><path class="cls-3" d="M98.72,90.32a1,1,0,0,1-.41-.09C89.43,86.27,76.19,84,62,84s-27.43,2.27-36.31,6.23a1,1,0,0,1-.81-1.83C34,84.33,47.54,82,62,82s28,2.33,37.13,6.41a1,1,0,0,1-.41,1.91Z"/><path class="cls-3" d="M62,45.32c-10.61,0-20.54-2.36-27.24-6.47a1,1,0,1,1,1-1.71c6.4,3.92,16,6.17,26.2,6.17s19.8-2.25,26.2-6.17a1,1,0,1,1,1,1.71C82.54,43,72.61,45.32,62,45.32Z"/><path class="cls-3" d="M62,58.32c-14.46,0-28-2.33-37.13-6.41a1,1,0,0,1,.81-1.83c8.88,4,22.12,6.23,36.31,6.23S89.43,54,98.31,50.09a1,1,0,0,1,.81,1.83C90,56,76.46,58.32,62,58.32Z"/></g><g class="cls-6"><path class="cls-7" d="M62,32a42,42,0,0,1,41.95,40c0-.66.05-1.33.05-2a42,42,0,0,0-84,0c0,.67,0,1.34.05,2A42,42,0,0,1,62,32Z"/></g><g class="cls-1"><path class="cls-8" d="M89,38c-.45,2.1-6,6-6,6V60h19C100,48,91.62,40.28,89,38Z"/></g><g class="cls-1"><path class="cls-8" d="M62,108A42,42,0,0,1,20.05,68c0,.66-.05,1.33-.05,2a42,42,0,0,0,84,0c0-.67,0-1.34-.05-2A42,42,0,0,1,62,108Z"/></g><path class="cls-3" d="M62,113a43,43,0,1,1,43-43A43,43,0,0,1,62,113Zm0-84a41,41,0,1,0,41,41A41,41,0,0,0,62,29Z"/><circle class="cls-7" cx="83" cy="35" r="8"/><path class="cls-9" d="M83,20.33a14,14,0,0,0-14,14C69,44.33,83,59,83,59S97,44.33,97,34.33A14,14,0,0,0,83,20.33ZM83,39a4.67,4.67,0,1,1,4.67-4.67A4.67,4.67,0,0,1,83,39Z"/><g class="cls-1"><path class="cls-10" d="M83,20.33v9.33A4.67,4.67,0,1,1,83,39V59S97,44.33,97,34.33A14,14,0,0,0,83,20.33Z"/></g><g class="cls-1"><path class="cls-10" d="M83,55S70.73,42.14,69.16,32.3a14,14,0,0,0-.16,2C69,44.33,83,59,83,59S97,44.33,97,34.33a14,14,0,0,0-.16-2C95.27,42.14,83,55,83,55Z"/></g><g class="cls-1"><path class="cls-11" d="M83,23.33A14,14,0,0,1,96.9,35.75a12.08,12.08,0,0,0,.1-1.41,14,14,0,0,0-28,0,12.08,12.08,0,0,0,.1,1.41A14,14,0,0,1,83,23.33Z"/></g><path class="cls-3" d="M83,60a1,1,0,0,1-.72-.31C81.69,59.08,68,44.62,68,34.33a15,15,0,0,1,30,0c0,10.28-13.69,24.75-14.28,25.36A1,1,0,0,1,83,60Zm0-38.67a13,13,0,0,0-13,13c0,8.21,10.17,20.05,13,23.19,2.83-3.14,13-15,13-23.19A13,13,0,0,0,83,21.33ZM83,40a5.67,5.67,0,1,1,5.67-5.67A5.67,5.67,0,0,1,83,40Zm0-9.33a3.67,3.67,0,1,0,3.67,3.67A3.67,3.67,0,0,0,83,30.67Z"/></svg>