<?xml version="1.0" ?><svg data-name="001" id="_001" viewBox="0 0 128 128" xmlns="http://www.w3.org/2000/svg"><defs><style>.cls-1{opacity:0.3;}.cls-2{fill:#97c1ff;}.cls-3{fill:#eef6ff;}.cls-4{fill:#5cbeff;}.cls-5{fill:#fff;}.cls-6{fill:#6d6daa;}.cls-7{fill:#b1f1a8;}.cls-8{fill:#48bc33;}.cls-9{opacity:0.5;}.cls-10{fill:#939fc6;}.cls-11{fill:#ced8ee;}.cls-12{fill:#e0f3ff;}.cls-13{fill:#c7e9ff;}.cls-14{fill:#0070b8;}.cls-15{fill:#7690a8;}</style></defs><title/><g class="cls-1"><path class="cls-2" d="M126.18,49.69a30,30,0,0,0-23.51-25,19.69,19.69,0,0,1-10.93-6.55A37,37,0,0,0,27.41,33.78,19.57,19.57,0,0,1,17,46.94,28,28,0,1,0,54.65,84.29,9.41,9.41,0,0,1,63.17,79H64a12.39,12.39,0,0,1,12,9.74,20,20,0,0,0,26.06,14.14A20,20,0,0,0,115.47,85,21.38,21.38,0,0,1,120,72.65,29.91,29.91,0,0,0,126.18,49.69Z"/><path class="cls-3" d="M118.75,23.49A11.29,11.29,0,0,0,97,18.3,6,6,0,0,0,87.19,23c0,.17,0,.34,0,.51A9,9,0,0,0,90.2,41h25.61a9,9,0,0,0,2.94-17.5Z"/><g class="cls-1"><path class="cls-4" d="M115.81,38H90.2a9,9,0,0,1-8.91-7.52A9,9,0,0,0,90.2,41h25.61a9,9,0,0,0,8.91-10.52A9,9,0,0,1,115.81,38Z"/></g><path class="cls-5" d="M87.22,26.51c0-.17,0-.34,0-.51A6,6,0,0,1,97,21.3a11.28,11.28,0,0,1,21.79,5.19,9,9,0,0,1,6,7,8.91,8.91,0,0,0-6-10A11.29,11.29,0,0,0,97,18.3,6,6,0,0,0,87.19,23c0,.17,0,.34,0,.51a8.9,8.9,0,0,0-5.92,10A9,9,0,0,1,87.22,26.51Z"/><path class="cls-6" d="M115.81,42H90.2a10,10,0,0,1-4-19.16,7,7,0,0,1,10.32-6,12.3,12.3,0,0,1,23.31,5.43c0,.19,0,.39,0,.58a10,10,0,0,1-4,19.17ZM93.22,18a5,5,0,0,0-5,5c0,.14,0,.29,0,.43a1,1,0,0,1-.67,1A8,8,0,0,0,90.2,40h25.61a8,8,0,0,0,2.61-15.56,1,1,0,0,1-.67-1.06A10.22,10.22,0,0,0,107.52,12a10.34,10.34,0,0,0-9.63,6.65,1,1,0,0,1-1.56.43A5,5,0,0,0,93.22,18Z"/><path class="cls-3" d="M115.81,23a9.06,9.06,0,0,1,3,.5"/><path class="cls-6" d="M118.77,24.49a1,1,0,0,1-.33-.06,8,8,0,0,0-2.64-.44,1,1,0,0,1,0-2,10.06,10.06,0,0,1,3.29.55,1,1,0,0,1-.33,1.95Z"/><path class="cls-3" d="M87.21,23.5a9.06,9.06,0,0,1,3-.5"/><path class="cls-6" d="M87.21,24.5a1,1,0,0,1-.33-1.94A10,10,0,0,1,90.2,22a1,1,0,0,1,0,2,8,8,0,0,0-2.66.45A1,1,0,0,1,87.21,24.5Z"/><path class="cls-3" d="M96.92,18.26a6,6,0,0,1,1.64,2"/><path class="cls-6" d="M98.56,21.22a1,1,0,0,1-.89-.53,5.08,5.08,0,0,0-1.37-1.63,1,1,0,1,1,1.23-1.58,7.08,7.08,0,0,1,1.91,2.28,1,1,0,0,1-.88,1.47Z"/><path class="cls-3" d="M20.6,15.66a6,6,0,0,1,11.62-2.77,3.21,3.21,0,0,1,5.21,2.51c0,.09,0,.18,0,.27A4.79,4.79,0,0,1,35.83,25H22.17a4.8,4.8,0,0,1-1.57-9.34Z"/><path class="cls-5" d="M20.6,17.66a6,6,0,0,1,11.62-2.77,3.21,3.21,0,0,1,5.21,2.51c0,.09,0,.18,0,.27a4.81,4.81,0,0,1,3.11,3.54,4.76,4.76,0,0,0-3.11-5.54c0-.09,0-.18,0-.27a3.21,3.21,0,0,0-5.21-2.51A6,6,0,0,0,20.6,15.66a4.76,4.76,0,0,0-3.14,5.55A4.81,4.81,0,0,1,20.6,17.66Z"/><g class="cls-1"><path class="cls-4" d="M35.83,23H22.17a4.81,4.81,0,0,1-4.71-3.78,4.75,4.75,0,0,0-.11,1A4.81,4.81,0,0,0,22.17,25H35.83a4.81,4.81,0,0,0,4.82-4.8,4.75,4.75,0,0,0-.11-1A4.81,4.81,0,0,1,35.83,23Z"/></g><path class="cls-6" d="M35.83,26H22.17a5.79,5.79,0,0,1-2.61-11v0a7,7,0,0,1,13.1-3.5A4.22,4.22,0,0,1,38.42,15a5.79,5.79,0,0,1-2.59,11ZM26.59,10a5,5,0,0,0-5,5.55,1,1,0,0,1-.67,1.06A3.8,3.8,0,0,0,22.17,24H35.83a3.79,3.79,0,0,0,1.26-7.38,1,1,0,0,1-.67-1c0-.06,0-.12,0-.19a2.21,2.21,0,0,0-3.59-1.72,1,1,0,0,1-1.56-.43A5,5,0,0,0,26.59,10Z"/><path class="cls-3" d="M22.17,15.4a4.83,4.83,0,0,0-1.58.26"/><path class="cls-6" d="M20.59,16.66a1,1,0,0,1-.33-1.95,5.82,5.82,0,0,1,1.91-.32,1,1,0,0,1,0,2,3.83,3.83,0,0,0-1.25.21A1,1,0,0,1,20.59,16.66Z"/><path class="cls-3" d="M37.42,15.66a4.83,4.83,0,0,0-1.59-.27"/><path class="cls-6" d="M37.42,16.67a1,1,0,0,1-.33-.06,3.84,3.84,0,0,0-1.26-.21,1,1,0,0,1,0-2,5.83,5.83,0,0,1,1.92.32,1,1,0,0,1-.33,1.94Z"/><path class="cls-3" d="M32.25,12.87a3.22,3.22,0,0,0-.87,1"/><path class="cls-6" d="M31.37,14.91a1,1,0,0,1-.88-1.47,4.25,4.25,0,0,1,1.15-1.37,1,1,0,0,1,1.23,1.58,2.23,2.23,0,0,0-.6.72A1,1,0,0,1,31.37,14.91Z"/><path class="cls-3" d="M10.76,46a8,8,0,0,1,11.88-8.85,10.49,10.49,0,0,1,18.8,5.25A7.5,7.5,0,0,1,39,57H11a5.5,5.5,0,0,1-.23-11Z"/><path class="cls-5" d="M10.76,49a7.62,7.62,0,0,1-.2-3,5.47,5.47,0,0,0-4.84,7A5.48,5.48,0,0,1,10.76,49Z"/><path class="cls-5" d="M18.5,39a8,8,0,0,1,4.14,1.16,10.49,10.49,0,0,1,18.8,5.25A7.5,7.5,0,0,1,46.34,51a7.49,7.49,0,0,0-4.9-8.62,10.49,10.49,0,0,0-18.8-5.25A8,8,0,0,0,10.5,44a7.72,7.72,0,0,0,.15,1.45A8,8,0,0,1,18.5,39Z"/><path class="cls-4" d="M10.76,43c0-.18-.08-.38-.11-.57,0,.2-.07.39-.09.59Z"/><g class="cls-1"><path class="cls-4" d="M39,54H11a5.5,5.5,0,0,1-5.28-4A5.44,5.44,0,0,0,5.5,51.5,5.5,5.5,0,0,0,11,57H39a7.43,7.43,0,0,0,7.34-9A7.5,7.5,0,0,1,39,54Z"/></g><path class="cls-6" d="M39,58H11A6.5,6.5,0,0,1,9.58,45.16,8.7,8.7,0,0,1,9.5,44a9,9,0,0,1,12.89-8.11,11.49,11.49,0,0,1,20,5.81A8.5,8.5,0,0,1,39,58ZM18.5,37a7,7,0,0,0-6.77,8.76A1,1,0,0,1,10.8,47,4.5,4.5,0,0,0,11,56H39a6.5,6.5,0,0,0,2.12-12.64,1,1,0,0,1-.67-.84,9.49,9.49,0,0,0-17-4.75,1,1,0,0,1-1.32.25A7,7,0,0,0,18.5,37Z"/><path class="cls-6" d="M41,47.75a1,1,0,0,1-1-1.31A9.51,9.51,0,0,0,31,34a1,1,0,0,1,0-2A11.51,11.51,0,0,1,41.93,47.06,1,1,0,0,1,41,47.75Z"/><path class="cls-6" d="M14.62,48.36a1,1,0,0,1-.66-.25A4.49,4.49,0,0,0,11,47a1,1,0,0,1,0-2,6.49,6.49,0,0,1,4.28,1.61,1,1,0,0,1-.66,1.75Z"/><path class="cls-6" d="M25,40.34a1,1,0,0,1-.81-.42A7,7,0,0,0,18.5,37a1,1,0,0,1,0-2,9,9,0,0,1,7.32,3.76A1,1,0,0,1,25,40.34Z"/><path class="cls-5" d="M122,86a1,1,0,0,1-.7-1.71,1,1,0,0,1,1.41,0A1,1,0,0,1,122,86Z"/><path class="cls-5" d="M120,90h-6a1,1,0,0,1,0-2h6a1,1,0,0,1,0,2Z"/><path class="cls-5" d="M118,86h-7a1,1,0,1,1,0-2h7a1,1,0,0,1,0,2Z"/><path class="cls-5" d="M110,90h-2a1,1,0,0,1,0-2h2a1,1,0,1,1,0,2Z"/><path class="cls-5" d="M118,94h-8a1,1,0,0,1,0-2h8a1,1,0,0,1,0,2Z"/><path class="cls-5" d="M16,78a1,1,0,0,1-.38-.08.87.87,0,0,1-.32-.22.92.92,0,0,1-.13-.15l-.09-.17L15,77.22A1.25,1.25,0,0,1,15,77a1.05,1.05,0,0,1,.08-.39.87.87,0,0,1,.22-.32,1,1,0,0,1,.32-.22,1.15,1.15,0,0,1,.58-.06l.19.06.17.09.15.13a1,1,0,0,1,.22.32A1,1,0,0,1,17,77a1.24,1.24,0,0,1,0,.19l-.06.19-.09.17a.62.62,0,0,1-.13.15l-.15.13-.17.09-.19.06Z"/><path class="cls-5" d="M17,74H15a1,1,0,0,1,0-2h2a1,1,0,0,1,0,2Z"/><path class="cls-5" d="M20,70H10a1,1,0,0,1,0-2H20a1,1,0,0,1,0,2Z"/><path class="cls-5" d="M11,74H7a1,1,0,0,1,0-2h4a1,1,0,1,1,0,2Z"/><path class="cls-5" d="M12,78H4a1,1,0,1,1,0-2h8a1,1,0,1,1,0,2Z"/><path class="cls-6" d="M118,124H11a1,1,0,1,1,0-2H118a1,1,0,0,1,0,2Z"/><path class="cls-6" d="M125,124h-4a1,1,0,1,1,0-2h4a1,1,0,1,1,0,2Z"/><path class="cls-6" d="M5,124H3a1,1,0,0,1,0-2H5a1,1,0,0,1,0,2Z"/></g><path class="cls-5" d="M95,31.71a16.12,16.12,0,0,1-.62,4.39,11,11,0,0,1,10.47,8.44A10.9,10.9,0,0,0,95,31.14C95,31.33,95,31.52,95,31.71Z"/><path class="cls-3" d="M94.47,31a16,16,0,0,0-23.75-17.7,21,21,0,0,0-37.61,10.5A15,15,0,0,0,38,53H94a11,11,0,0,0,.47-22Z"/><g class="cls-1"><path class="cls-4" d="M94,49H38A15,15,0,0,1,23.14,36,14.94,14.94,0,0,0,38,53H94a11,11,0,0,0,10.81-13A11,11,0,0,1,94,49Z"/><path class="cls-4" d="M95,27.07s0,0,0-.07a16.07,16.07,0,0,0-.14-2,16.84,16.84,0,0,1-.39,2Z"/></g><path class="cls-5" d="M33.11,27.83C34.2,17.25,43.14,8.63,54,9c7.33.25,12.42,2.67,15.25,5.76,2.42-1.47,9.83-.59,14.12,1.17S93.89,21.12,94.87,29A15.26,15.26,0,0,0,95,27,16,16,0,0,0,70.72,13.33a21,21,0,0,0-37.61,10.5A14.85,14.85,0,0,0,23.14,40,15,15,0,0,1,33.11,27.83Z"/><path class="cls-5" d="M88,32.8C95.23,32,103.9,39,104.81,44A10.93,10.93,0,0,0,95,31.07C93.16,31.07,89.54,31.67,88,32.8Z"/><path class="cls-6" d="M94,54H38a16,16,0,0,1-5.81-30.9A22,22,0,0,1,71,12,17,17,0,0,1,96,27a16.68,16.68,0,0,1-.3,3.13A12,12,0,0,1,94,54ZM54,6A19.93,19.93,0,0,0,34.1,23.93a1,1,0,0,1-.67.84A14,14,0,0,0,38,52H94a10,10,0,0,0,.43-20,1,1,0,0,1-.93-1.25A15,15,0,0,0,71.24,14.18a1,1,0,0,1-1.32-.25A19.85,19.85,0,0,0,54,6Z"/><path class="cls-6" d="M34,33.5a1,1,0,0,1-1-.69A22,22,0,0,1,54,4a1,1,0,0,1,0,2A20,20,0,0,0,35,32.19a1,1,0,0,1-1,1.31Z"/><path class="cls-6" d="M86.76,34.72A1,1,0,0,1,86.1,33,12,12,0,0,1,94,30a1,1,0,0,1,0,2,10,10,0,0,0-6.59,2.48A1,1,0,0,1,86.76,34.72Z"/><path class="cls-6" d="M66,18.68a1,1,0,0,1-.81-1.58A17.05,17.05,0,0,1,79,10a1,1,0,0,1,0,2,15,15,0,0,0-12.2,6.27A1,1,0,0,1,66,18.68Z"/><polygon class="cls-7" points="57 87 57 44 49 44 64 29 79 44 71 44 71 87 57 87"/><g class="cls-1"><rect class="cls-8" height="4" width="14" x="57" y="61"/></g><g class="cls-9"><polygon class="cls-5" points="64 33 75 44 79 44 64 29 49 44 53 44 64 33"/></g><g class="cls-1"><path class="cls-8" d="M65,43h6V87H64V44A1,1,0,0,1,65,43Z"/></g><path class="cls-6" d="M71,88H57a1,1,0,0,1-1-1V45H49a1,1,0,0,1-.71-1.71l15-15a1,1,0,0,1,1.41,0l15,15A1,1,0,0,1,79,45H72V87A1,1,0,0,1,71,88ZM58,86H70V44a1,1,0,0,1,1-1h5.59L64,30.42,51.41,43H57a1,1,0,0,1,1,1Z"/><path class="cls-10" d="M27,65h74a3,3,0,0,1,3,3v52a0,0,0,0,1,0,0H24a0,0,0,0,1,0,0V68A3,3,0,0,1,27,65Z"/><path class="cls-6" d="M104,121H24a1,1,0,0,1-1-1V68a4,4,0,0,1,4-4h74a4,4,0,0,1,4,4v52A1,1,0,0,1,104,121Zm-79-2h78V68a2,2,0,0,0-2-2H27a2,2,0,0,0-2,2Z"/><path class="cls-11" d="M74,120H54a2,2,0,0,1-2-2v-1H76v1A2,2,0,0,1,74,120Z"/><path class="cls-6" d="M74,121H54a3,3,0,0,1-3-3v-1a1,1,0,0,1,1-1H76a1,1,0,0,1,1,1v1A3,3,0,0,1,74,121Zm-21-3a1,1,0,0,0,1,1H74a1,1,0,0,0,1-1Z"/><rect class="cls-12" height="44" width="72" x="28" y="69"/><polygon class="cls-13" points="100 71.02 100 69 28 69 28 105.22 100 71.02"/><polygon class="cls-13" points="100 76.47 28 110.67 28 107.67 100 73.47 100 76.47"/><g class="cls-1"><rect class="cls-14" height="4" width="72.05" x="27.95" y="69"/></g><path class="cls-6" d="M100,114H28a1,1,0,0,1-1-1V69a1,1,0,0,1,1-1h72a1,1,0,0,1,1,1v44A1,1,0,0,1,100,114Zm-71-2H99V70H29Z"/><path class="cls-3" d="M112,117H76v1a2,2,0,0,1-2,2H54a2,2,0,0,1-2-2v-1H16v2a4,4,0,0,0,4,4h88a4,4,0,0,0,4-4Z"/><g class="cls-1"><path class="cls-15" d="M108,120H20a4,4,0,0,1-3.86-3H16v2a4,4,0,0,0,4,4h88a4,4,0,0,0,4-4v-2h-.14A4,4,0,0,1,108,120Z"/></g><path class="cls-6" d="M108,124H20a5,5,0,0,1-5-5v-2a1,1,0,0,1,1-1H52a1,1,0,0,1,1,1v1a1,1,0,0,0,1,1H74a1,1,0,0,0,1-1v-1a1,1,0,0,1,1-1h36a1,1,0,0,1,1,1v2A5,5,0,0,1,108,124Zm-91-6v1a3,3,0,0,0,3,3h88a3,3,0,0,0,3-3v-1H77a3,3,0,0,1-3,3H54a3,3,0,0,1-3-3Z"/></svg>