<?xml version="1.0" ?><svg data-name="002" id="_002" viewBox="0 0 128 128" xmlns="http://www.w3.org/2000/svg"><defs><style>.cls-1{opacity:0.3;}.cls-2{fill:#97c1ff;}.cls-3{fill:#fff;}.cls-4,.cls-6{fill:#939fc6;}.cls-5{fill:#6d6daa;}.cls-6{fill-rule:evenodd;}.cls-7{fill:#c7e9ff;}.cls-8{fill:#ff91a9;}.cls-9{opacity:0.5;}.cls-10{fill:#c9c1f5;}.cls-11{fill:#96d7ff;}.cls-12{fill:#ced8ee;}.cls-13{fill:#6e7eb0;}.cls-14{fill:#7690a8;}.cls-15{fill:#ffc661;}.cls-16{fill:#48bc33;}.cls-17{fill:#fedbc1;}</style></defs><title/><g class="cls-1"><circle class="cls-2" cx="64" cy="69" r="52"/><circle class="cls-3" cx="91" cy="91" r="29"/><polyline class="cls-4" points="83.51 62.98 81.03 66.58 91 70 100.97 66.58 98.49 62.98"/><path class="cls-5" d="M91,71a1,1,0,0,1-.32-.05l-10-3.42a1,1,0,0,1-.5-1.51l2.47-3.6a1,1,0,1,1,1.65,1.13L82.6,66.06,91,68.94l8.4-2.88-1.73-2.51a1,1,0,0,1,1.65-1.13l2.47,3.6a1,1,0,0,1-.5,1.51l-10,3.42A1,1,0,0,1,91,71Z"/><polyline class="cls-4" points="62.04 89.47 64.69 92.93 71.03 84.51 70.86 73.97 66.67 75.22"/><path class="cls-5" d="M64.69,93.93a1,1,0,0,1-.79-.39l-2.66-3.46a1,1,0,0,1,1.59-1.22l1.85,2.42L70,84.18l-.15-8.88L67,76.17a1,1,0,1,1-.57-1.92L70.57,73a1,1,0,0,1,1.28.94L72,84.49a1,1,0,0,1-.2.62l-6.33,8.42a1,1,0,0,1-.79.4Z"/><polyline class="cls-4" points="115.33 75.22 111.14 73.97 110.97 84.51 117.31 92.93 119.96 89.47"/><path class="cls-5" d="M117.31,93.93h0a1,1,0,0,1-.79-.4l-6.33-8.42a1,1,0,0,1-.2-.62L110.15,74a1,1,0,0,1,1.28-.94l4.18,1.24a1,1,0,0,1-.57,1.92l-2.92-.87L112,84.19l5.34,7.09,1.85-2.42a1,1,0,0,1,1.59,1.22l-2.66,3.46A1,1,0,0,1,117.31,93.93Z"/><polyline class="cls-4" points="113.53 109.26 113.42 104.9 103.34 107.99 97.29 116.62 101.41 118.07"/><path class="cls-5" d="M101.41,119.07a1,1,0,0,1-.33-.06L97,117.56a1,1,0,0,1-.48-1.52l6.05-8.63A1,1,0,0,1,103,107l10.08-3.09a1,1,0,0,1,1.29.93l.11,4.36a1,1,0,1,1-2,.05l-.08-3-8.49,2.6-5.1,7.27,2.87,1a1,1,0,0,1-.33,1.94Z"/><polyline class="cls-4" points="80.59 118.07 84.71 116.62 78.66 107.99 68.58 104.9 68.47 109.26"/><path class="cls-5" d="M80.59,119.07a1,1,0,0,1-.33-1.94l2.87-1L78,108.84l-8.49-2.6-.08,3a1,1,0,0,1-1,1,1,1,0,0,1-1-1l.11-4.36a1,1,0,0,1,1.29-.93L78.95,107a1,1,0,0,1,.52.38L85.53,116a1,1,0,0,1-.48,1.52L80.93,119A1,1,0,0,1,80.59,119.07Z"/><polygon class="cls-6" points="91 78.41 79.65 86.66 83.98 100 98.02 100 102.35 86.66 91 78.41"/><path class="cls-5" d="M98,101H84a1,1,0,0,1-1-.69L78.7,87a1,1,0,0,1,.36-1.12L90.41,77.6a1,1,0,0,1,1.18,0l11.35,8.25A1,1,0,0,1,103.3,87L99,100.31A1,1,0,0,1,98,101ZM84.71,99H97.29l3.89-12L91,79.65,80.82,87Z"/><path class="cls-5" d="M91,71a1,1,0,0,1-.32-.05l-10-3.42a1,1,0,0,1-.5-1.51l2.47-3.6a1,1,0,1,1,1.65,1.13L82.6,66.06,91,68.94l8.4-2.88-1.73-2.51a1,1,0,0,1,1.65-1.13l2.47,3.6a1,1,0,0,1-.5,1.51l-10,3.42A1,1,0,0,1,91,71Z"/><path class="cls-5" d="M64.69,93.93a1,1,0,0,1-.79-.39l-2.66-3.46a1,1,0,0,1,1.59-1.22l1.85,2.42L70,84.18l-.15-8.88L67,76.17a1,1,0,1,1-.57-1.92L70.57,73a1,1,0,0,1,1.28.94L72,84.49a1,1,0,0,1-.2.62l-6.33,8.42a1,1,0,0,1-.79.4Z"/><path class="cls-5" d="M117.31,93.93h0a1,1,0,0,1-.79-.4l-6.33-8.42a1,1,0,0,1-.2-.62L110.15,74a1,1,0,0,1,1.28-.94l4.18,1.24a1,1,0,0,1-.57,1.92l-2.92-.87L112,84.19l5.34,7.09,1.85-2.42a1,1,0,0,1,1.59,1.22l-2.66,3.46A1,1,0,0,1,117.31,93.93Z"/><path class="cls-5" d="M101.41,119.07a1,1,0,0,1-.33-.06L97,117.56a1,1,0,0,1-.48-1.52l6.05-8.63A1,1,0,0,1,103,107l10.08-3.09a1,1,0,0,1,1.29.93l.11,4.36a1,1,0,1,1-2,.05l-.08-3-8.49,2.6-5.1,7.27,2.87,1a1,1,0,0,1-.33,1.94Z"/><path class="cls-5" d="M80.59,119.07a1,1,0,0,1-.33-1.94l2.87-1L78,108.84l-8.49-2.6-.08,3a1,1,0,0,1-1,1,1,1,0,0,1-1-1l.11-4.36a1,1,0,0,1,1.29-.93L78.95,107a1,1,0,0,1,.52.38L85.53,116a1,1,0,0,1-.48,1.52L80.93,119A1,1,0,0,1,80.59,119.07Z"/><path class="cls-5" d="M98,101H84a1,1,0,0,1-1-.69L78.7,87a1,1,0,0,1,.36-1.12L90.41,77.6a1,1,0,0,1,1.18,0l11.35,8.25A1,1,0,0,1,103.3,87L99,100.31A1,1,0,0,1,98,101ZM84.71,99H97.29l3.89-12L91,79.65,80.82,87Z"/><path class="cls-5" d="M91,71.12a1,1,0,0,1-1-1,1,1,0,0,1,1-1,1,1,0,0,1,1,1v.09A1,1,0,0,1,91,71.12Z"/><path class="cls-5" d="M91,76.84a1,1,0,0,1-1-1v-.18a1,1,0,1,1,2,0v.18A1,1,0,0,1,91,76.84ZM91,74a1,1,0,0,1-1-1V72.8a1,1,0,0,1,2,0V73A1,1,0,0,1,91,74Z"/><path class="cls-5" d="M91,79.62a1,1,0,0,1-1-1,1,1,0,0,1,1-1,1,1,0,0,1,1,1v.1A1,1,0,0,1,91,79.62Z"/><path class="cls-5" d="M71.13,85.55a1,1,0,0,1-.24,0,1,1,0,0,1-.78-1.22,1,1,0,0,1,1.16-.74l.09,0a1,1,0,0,1-.24,2Z"/><path class="cls-5" d="M76.87,87a1,1,0,0,1-.24,0l-.18,0A1,1,0,0,1,76.93,85l.18,0a1,1,0,0,1-.24,2ZM74,86.27a1,1,0,0,1-.24,0l-.18,0a1,1,0,1,1,.49-1.94l.18,0a1,1,0,0,1-.24,2Z"/><path class="cls-5" d="M79.65,87.68a1,1,0,0,1-.24,0,1,1,0,0,1-.78-1.22,1,1,0,0,1,1.17-.74l.09,0a1,1,0,0,1-.24,2Z"/><path class="cls-5" d="M102.17,87.66a1,1,0,0,1-1-.75,1,1,0,0,1,.69-1.2l.09,0a1,1,0,1,1,.47,1.94A1,1,0,0,1,102.17,87.66Z"/><path class="cls-5" d="M105,87a1,1,0,0,1-.23-2l.19,0a1,1,0,0,1,.47,1.94l-.19,0A1,1,0,0,1,105,87Zm3-.71a1,1,0,0,1-.23-2l.19,0a1,1,0,0,1,.47,1.94l-.19,0A1,1,0,0,1,107.92,86.27Z"/><path class="cls-5" d="M111,85.53a1,1,0,0,1-1-.75,1,1,0,0,1,.69-1.2l.09,0a1,1,0,0,1,.47,1.94A1,1,0,0,1,111,85.53Z"/><path class="cls-5" d="M83.69,101.39a1,1,0,0,1-.83-1.55,1,1,0,0,1,1.41-.32,1,1,0,0,1,.31,1.35l-.05.08A1,1,0,0,1,83.69,101.39Z"/><path class="cls-5" d="M80.3,106.52a1,1,0,0,1-.83-1.55l.11-.16a1,1,0,1,1,1.67,1.1l-.11.16A1,1,0,0,1,80.3,106.52ZM82,104a1,1,0,0,1-.83-1.55l.11-.16a1,1,0,1,1,1.67,1.1l-.11.16A1,1,0,0,1,82,104Z"/><path class="cls-5" d="M78.66,109a1,1,0,0,1-.83-1.55,1,1,0,0,1,1.41-.33,1,1,0,0,1,.31,1.35l-.05.08A1,1,0,0,1,78.66,109Z"/><path class="cls-5" d="M98.06,101.39a1,1,0,0,1-.84-.45,1,1,0,0,1,.26-1.43,1,1,0,0,1,1.36.24l.05.08a1,1,0,0,1-.83,1.55Z"/><path class="cls-5" d="M101.45,106.52a1,1,0,0,1-.84-.45l-.11-.16a1,1,0,1,1,1.67-1.1l.11.16a1,1,0,0,1-.83,1.55ZM99.75,104a1,1,0,0,1-.84-.45l-.11-.16a1,1,0,1,1,1.67-1.1l.11.16a1,1,0,0,1-.83,1.55Z"/><path class="cls-5" d="M103.09,109a1,1,0,0,1-.84-.45,1,1,0,0,1,.26-1.42,1,1,0,0,1,1.36.25l.05.08a1,1,0,0,1-.83,1.55Z"/><path class="cls-5" d="M81,67.66a1,1,0,0,1-.59-1.81,1,1,0,0,1,1.43.2,1,1,0,0,1-.19,1.37l-.08.06A1,1,0,0,1,81,67.66Z"/><path class="cls-5" d="M73.32,73.2a1,1,0,0,1-.59-1.81l.16-.12a1,1,0,1,1,1.18,1.62l-.16.12A1,1,0,0,1,73.32,73.2Zm2.55-1.85a1,1,0,0,1-.59-1.81l.16-.12A1,1,0,0,1,76.62,71l-.16.12A1,1,0,0,1,75.87,71.35Zm2.55-1.85a1,1,0,0,1-.59-1.81l.16-.12a1,1,0,0,1,1.18,1.62l-.16.12A1,1,0,0,1,78.42,69.51Z"/><path class="cls-5" d="M70.86,75a1,1,0,0,1-.59-1.81,1,1,0,0,1,1.43.2,1,1,0,0,1-.19,1.37l-.08.06A1,1,0,0,1,70.86,75Z"/><path class="cls-5" d="M101,67.66a1,1,0,0,1-.58-.19A1,1,0,0,1,100.2,66a1,1,0,0,1,1.36-.25l.08.06a1,1,0,0,1-.59,1.81Z"/><path class="cls-5" d="M108.69,73.2a1,1,0,0,1-.59-.19l-.16-.12a1,1,0,0,1,1.17-1.62l.16.12a1,1,0,0,1-.59,1.81Zm-2.55-1.85a1,1,0,0,1-.59-.19L105.4,71a1,1,0,1,1,1.17-1.62l.16.12a1,1,0,0,1-.59,1.81Zm-2.55-1.85a1,1,0,0,1-.59-.19l-.16-.12A1,1,0,0,1,104,67.58l.16.12a1,1,0,0,1-.59,1.81Z"/><path class="cls-5" d="M111.15,75a1,1,0,0,1-.58-.19,1,1,0,0,1-.26-1.42,1,1,0,0,1,1.36-.25l.08.06a1,1,0,0,1-.59,1.81Z"/><path class="cls-5" d="M117.28,94a1,1,0,0,1-1-1.31,1,1,0,0,1,1.27-.69,1,1,0,0,1,.66,1.21l0,.09A1,1,0,0,1,117.28,94Z"/><path class="cls-5" d="M114.36,103a1,1,0,0,1-1-1.31l.06-.19a1,1,0,1,1,1.9.62l-.06.19A1,1,0,0,1,114.36,103Zm1-3a1,1,0,0,1-1-1.31l.06-.19a1,1,0,0,1,1.9.62l-.06.19A1,1,0,0,1,115.34,100Zm1-3a1,1,0,0,1-1-1.31l.06-.19a1,1,0,1,1,1.9.62l-.06.19A1,1,0,0,1,116.31,97Z"/><path class="cls-5" d="M113.42,105.92a1,1,0,0,1-1-1.31,1,1,0,0,1,1.27-.69,1,1,0,0,1,.66,1.21l0,.09A1,1,0,0,1,113.42,105.92Z"/><path class="cls-5" d="M64.73,94a1,1,0,0,1-1-.69A1,1,0,0,1,64.41,92a1,1,0,0,1,1.25.6l0,.09a1,1,0,0,1-1,1.31Z"/><path class="cls-5" d="M67.65,103a1,1,0,0,1-1-.69l-.06-.19a1,1,0,1,1,1.9-.62l.06.19a1,1,0,0,1-1,1.31Zm-1-3a1,1,0,0,1-1-.69l-.06-.19a1,1,0,1,1,1.9-.62l.06.19a1,1,0,0,1-1,1.31Zm-1-3a1,1,0,0,1-1-.69l-.06-.19a1,1,0,1,1,1.9-.62l.06.19a1,1,0,0,1-1,1.31Z"/><path class="cls-5" d="M68.59,105.92a1,1,0,0,1-1-.69,1,1,0,0,1,.63-1.3,1,1,0,0,1,1.24.6l0,.09a1,1,0,0,1-1,1.31Z"/><path class="cls-5" d="M84.81,117.64a1,1,0,0,1-1-1,1,1,0,0,1,1-1h.1a1,1,0,0,1,0,2Z"/><path class="cls-5" d="M94.25,117.64h-.2a1,1,0,0,1,0-2h.2a1,1,0,0,1,0,2Zm-3.15,0h-.2a1,1,0,0,1,0-2h.2a1,1,0,0,1,0,2Zm-3.15,0h-.2a1,1,0,0,1,0-2H88a1,1,0,0,1,0,2Z"/><path class="cls-5" d="M97.3,117.64a1,1,0,0,1-1-1,1,1,0,0,1,1-1h.1a1,1,0,0,1,0,2Z"/><path class="cls-5" d="M91,121a30,30,0,1,1,30-30A30,30,0,0,1,91,121Zm0-58a28,28,0,1,0,28,28A28,28,0,0,0,91,63Z"/><circle class="cls-7" cx="36" cy="34" r="24"/><path class="cls-5" d="M36,59A25,25,0,1,1,61,34,25,25,0,0,1,36,59Zm0-48A23,23,0,1,0,59,34,23,23,0,0,0,36,11Z"/><path class="cls-5" d="M36,59c-7.56,0-13.48-11-13.48-25S28.44,9,36,9,49.48,20,49.48,34,43.56,59,36,59Zm0-48c-6.22,0-11.48,10.53-11.48,23S29.78,57,36,57,47.48,46.47,47.48,34,42.22,11,36,11Z"/><path class="cls-5" d="M36,59a1,1,0,0,1-1-1V10a1,1,0,0,1,2,0V58A1,1,0,0,1,36,59Z"/><path class="cls-5" d="M60,35H12a1,1,0,0,1,0-2H60a1,1,0,0,1,0,2Z"/><path class="cls-5" d="M36,24.44c-7.48,0-14.48-1.69-19.22-4.63a1,1,0,0,1,1.05-1.7c4.43,2.75,11.05,4.33,18.17,4.33s13.74-1.58,18.17-4.33a1,1,0,0,1,1.05,1.7C50.48,22.75,43.48,24.44,36,24.44Z"/><path class="cls-5" d="M54.7,50a1,1,0,0,1-.53-.15C49.74,47.14,43.12,45.56,36,45.56s-13.74,1.58-18.17,4.33a1,1,0,0,1-1.05-1.7c4.74-2.94,11.75-4.63,19.22-4.63s14.48,1.69,19.22,4.63A1,1,0,0,1,54.7,50Z"/><path class="cls-8" d="M32,15c0,7.11-8,15.11-8,15.11s-8-8-8-15.11a8,8,0,0,1,16,0Z"/><circle class="cls-3" cx="24" cy="15" r="3"/><path class="cls-5" d="M24,19a4,4,0,1,1,4-4A4,4,0,0,1,24,19Zm0-6a2,2,0,1,0,2,2A2,2,0,0,0,24,13Z"/><path class="cls-5" d="M24,31.11a1,1,0,0,1-.71-.29C23,30.48,15,22.44,15,15a9,9,0,0,1,18,0c0,7.44-8,15.48-8.29,15.82A1,1,0,0,1,24,31.11ZM24,8a7,7,0,0,0-7,7c0,5.41,5.09,11.54,7,13.65C25.9,26.54,31,20.4,31,15A7,7,0,0,0,24,8Z"/><rect class="cls-3" height="24" width="40" x="82" y="17"/><rect class="cls-4" height="8" width="8" x="114" y="17"/><rect class="cls-4" height="8" width="8" x="82" y="33"/><rect class="cls-4" height="8" width="8" x="90" y="25"/><rect class="cls-4" height="8" width="8" x="82" y="17"/><rect class="cls-4" height="8" width="8" x="98" y="17"/><rect class="cls-4" height="8" width="8" x="98" y="33"/><rect class="cls-4" height="8" width="8" x="114" y="33"/><path class="cls-5" d="M122,42H82a1,1,0,0,1-1-1V17a1,1,0,0,1,1-1h40a1,1,0,0,1,1,1V41A1,1,0,0,1,122,42ZM83,40h38V18H83Z"/><rect class="cls-4" height="8" width="8" x="106" y="25"/><path class="cls-5" d="M90,42a1,1,0,0,1-1-1V17a1,1,0,0,1,2,0V41A1,1,0,0,1,90,42Z"/><g class="cls-9"><path class="cls-5" d="M116,26a1,1,0,0,1-.71-1.71l6-6a1,1,0,0,1,1.41,1.41l-6,6A1,1,0,0,1,116,26Z"/><path class="cls-5" d="M114,23a1,1,0,0,1-.71-1.71l5-5a1,1,0,0,1,1.41,1.41l-5,5A1,1,0,0,1,114,23Z"/><path class="cls-5" d="M116,42a1,1,0,0,1-.71-1.71l6-6a1,1,0,0,1,1.41,1.41l-6,6A1,1,0,0,1,116,42Z"/><path class="cls-5" d="M114,39a1,1,0,0,1-.71-1.71l5-5a1,1,0,0,1,1.41,1.41l-5,5A1,1,0,0,1,114,39Z"/><path class="cls-5" d="M108,34a1,1,0,0,1-.71-1.71l6-6a1,1,0,0,1,1.41,1.41l-6,6A1,1,0,0,1,108,34Z"/><path class="cls-5" d="M106,31a1,1,0,0,1-.71-1.71l5-5a1,1,0,0,1,1.41,1.41l-5,5A1,1,0,0,1,106,31Z"/><path class="cls-5" d="M100,42a1,1,0,0,1-.71-1.71l6-6a1,1,0,0,1,1.41,1.41l-6,6A1,1,0,0,1,100,42Z"/><path class="cls-5" d="M98,39a1,1,0,0,1-.71-1.71l5-5a1,1,0,0,1,1.41,1.41l-5,5A1,1,0,0,1,98,39Z"/><path class="cls-5" d="M84,42a1,1,0,0,1-.71-1.71l6-6a1,1,0,0,1,1.41,1.41l-6,6A1,1,0,0,1,84,42Z"/><path class="cls-5" d="M82,39a1,1,0,0,1-.71-1.71l5-5a1,1,0,0,1,1.41,1.41l-5,5A1,1,0,0,1,82,39Z"/><path class="cls-5" d="M84,26a1,1,0,0,1-.71-1.71l6-6a1,1,0,0,1,1.41,1.41l-6,6A1,1,0,0,1,84,26Z"/><path class="cls-5" d="M82,23a1,1,0,0,1-.71-1.71l5-5a1,1,0,0,1,1.41,1.41l-5,5A1,1,0,0,1,82,23Z"/><path class="cls-5" d="M100,26a1,1,0,0,1-.71-1.71l6-6a1,1,0,0,1,1.41,1.41l-6,6A1,1,0,0,1,100,26Z"/><path class="cls-5" d="M98,23a1,1,0,0,1-.71-1.71l5-5a1,1,0,0,1,1.41,1.41l-5,5A1,1,0,0,1,98,23Z"/><path class="cls-5" d="M92,34a1,1,0,0,1-.71-1.71l6-6a1,1,0,0,1,1.41,1.41l-6,6A1,1,0,0,1,92,34Z"/><path class="cls-5" d="M90,31a1,1,0,0,1-.71-1.71l5-5a1,1,0,0,1,1.41,1.41l-5,5A1,1,0,0,1,90,31Z"/></g><path class="cls-5" d="M98,42a1,1,0,0,1-1-1V17a1,1,0,0,1,2,0V41A1,1,0,0,1,98,42Z"/><path class="cls-5" d="M106,42a1,1,0,0,1-1-1V17a1,1,0,0,1,2,0V41A1,1,0,0,1,106,42Z"/><path class="cls-5" d="M114,42a1,1,0,0,1-1-1V17a1,1,0,0,1,2,0V41A1,1,0,0,1,114,42Z"/><path class="cls-5" d="M122,26H82a1,1,0,0,1,0-2h40a1,1,0,0,1,0,2Z"/><path class="cls-5" d="M122,34H82a1,1,0,0,1,0-2h40a1,1,0,0,1,0,2Z"/><path class="cls-5" d="M82,58a1,1,0,0,1-1-1V15a1,1,0,0,1,2,0V57A1,1,0,0,1,82,58Z"/></g><path class="cls-10" d="M71.92,10.38a5.55,5.55,0,0,0,3.69,3.69q2.77.92,0,1.85a5.55,5.55,0,0,0-3.69,3.69q-.92,2.77-1.85,0a5.55,5.55,0,0,0-3.69-3.69q-2.77-.92,0-1.85a5.55,5.55,0,0,0,3.69-3.69Q71,7.62,71.92,10.38Z"/><path class="cls-10" d="M66.62,115.92a3.7,3.7,0,0,0,2.46,2.46q1.85.62,0,1.23a3.7,3.7,0,0,0-2.46,2.46q-.62,1.85-1.23,0a3.7,3.7,0,0,0-2.46-2.46q-1.85-.62,0-1.23a3.7,3.7,0,0,0,2.46-2.46Q66,114.08,66.62,115.92Z"/><path class="cls-11" d="M19.77,108.15a4.62,4.62,0,0,0,3.08,3.08q2.31.77,0,1.54a4.62,4.62,0,0,0-3.08,3.08q-.77,2.31-1.54,0a4.62,4.62,0,0,0-3.08-3.08q-2.31-.77,0-1.54a4.62,4.62,0,0,0,3.08-3.08Q19,105.85,19.77,108.15Z"/><path class="cls-10" d="M13.62,65.92a3.7,3.7,0,0,0,2.46,2.46q1.85.62,0,1.23a3.7,3.7,0,0,0-2.46,2.46q-.62,1.85-1.23,0a3.7,3.7,0,0,0-2.46-2.46q-1.85-.62,0-1.23a3.7,3.7,0,0,0,2.46-2.46Q13,64.08,13.62,65.92Z"/><path class="cls-11" d="M112.62,48.92a3.7,3.7,0,0,0,2.46,2.46q1.85.62,0,1.23a3.7,3.7,0,0,0-2.46,2.46q-.62,1.85-1.23,0a3.7,3.7,0,0,0-2.46-2.46q-1.85-.62,0-1.23a3.7,3.7,0,0,0,2.46-2.46Q112,47.08,112.62,48.92Z"/><path class="cls-12" d="M23,99a6,6,0,0,0,6,6H47a8,8,0,0,1-8-8V58H23Z"/><g class="cls-1"><path class="cls-13" d="M39.26,99H29a6,6,0,0,1-6-6v6a6,6,0,0,0,6,6H47A8,8,0,0,1,39.26,99Z"/></g><path class="cls-5" d="M47,106H29a7,7,0,0,1-7-7V58a1,1,0,0,1,1-1H39a1,1,0,0,1,1,1V97a7,7,0,0,0,7,7,1,1,0,0,1,0,2ZM24,59V99a5,5,0,0,0,5,5H41.35A9,9,0,0,1,38,97V59Z"/><path class="cls-3" d="M35,98c0,4-2,7-6,7H91a6,6,0,0,0,6-6V25H35V98Z"/><g class="cls-1"><path class="cls-14" d="M91,99H35c-.31,3.49-2.29,6-6,6H91a6,6,0,0,0,6-6V93A6,6,0,0,1,91,99Z"/></g><g class="cls-9"><path class="cls-5" d="M55,86H42a1,1,0,0,1,0-2H55a1,1,0,0,1,0,2Z"/><path class="cls-5" d="M64,86H60a1,1,0,0,1,0-2h4a1,1,0,0,1,0,2Z"/><path class="cls-5" d="M73,86H67a1,1,0,0,1,0-2h6a1,1,0,0,1,0,2Z"/><path class="cls-5" d="M90,86H78a1,1,0,0,1,0-2H90a1,1,0,0,1,0,2Z"/><path class="cls-5" d="M50,90H42a1,1,0,0,1,0-2h8a1,1,0,0,1,0,2Z"/><path class="cls-5" d="M55,90H53a1,1,0,0,1,0-2h2a1,1,0,0,1,0,2Z"/><path class="cls-5" d="M73,90H60a1,1,0,0,1,0-2H73a1,1,0,0,1,0,2Z"/><path class="cls-5" d="M90,90H78a1,1,0,0,1,0-2H90a1,1,0,0,1,0,2Z"/><path class="cls-5" d="M55,82H42a1,1,0,0,1,0-2H55a1,1,0,0,1,0,2Z"/><path class="cls-5" d="M73,82H60a1,1,0,0,1,0-2H73a1,1,0,0,1,0,2Z"/><path class="cls-5" d="M90,82H78a1,1,0,0,1,0-2H90a1,1,0,0,1,0,2Z"/><path class="cls-5" d="M55,94H42a1,1,0,0,1,0-2H55a1,1,0,0,1,0,2Z"/><path class="cls-5" d="M73,94H60a1,1,0,0,1,0-2H73a1,1,0,0,1,0,2Z"/><path class="cls-5" d="M90,94H82a1,1,0,0,1,0-2h8a1,1,0,0,1,0,2Z"/><path class="cls-5" d="M79,94H78a1,1,0,0,1,0-2h1a1,1,0,0,1,0,2Z"/><rect class="cls-12" height="6" width="48" x="42" y="33"/><path class="cls-5" d="M90,40H42a1,1,0,0,1-1-1V33a1,1,0,0,1,1-1H90a1,1,0,0,1,1,1v6A1,1,0,0,1,90,40ZM43,38H89V34H43Z"/></g><path class="cls-5" d="M91,106H29a1,1,0,0,1,0-2,5,5,0,0,0,5-5V25a1,1,0,0,1,1-1H97a1,1,0,0,1,1,1V99A7,7,0,0,1,91,106Zm-57.11-2H91a5,5,0,0,0,5-5V26H36V99A7,7,0,0,1,33.89,104Z"/><circle class="cls-2" cx="44" cy="56" r="3"/><circle class="cls-15" cx="87.5" cy="48.5" r="3.5"/><g class="cls-1"><circle class="cls-16" cx="77.5" cy="71.5" r="3.5"/></g><path class="cls-15" d="M68.41,61.37l1.68-2C72,57.19,74,54.31,74,51.31V46H60v5.31a12.5,12.5,0,0,0,2.91,8.08l1.68,2Z"/><g class="cls-9"><rect class="cls-3" height="3" width="14" x="60" y="46"/></g><path class="cls-3" d="M61,61.61a.56.56,0,0,0-.48-.61H58v8h2.52a.56.56,0,0,0,.48-.62Z"/><path class="cls-17" d="M61,68a5.52,5.52,0,0,0,2.82,1.08A17.69,17.69,0,0,0,68,68.84c.86-.31,3-2.6,2.89-6.44a.9.9,0,0,0-.88-.94c-1-.09-4-.09-5-.09L63.45,60C63,60.28,61,62,61,63Z"/><rect class="cls-8" height="11" width="9" x="49" y="60"/><path class="cls-5" d="M60.5,57h-.93a5.51,5.51,0,0,1-5.5-5.5,2.5,2.5,0,0,1,2.5-2.5h3a1,1,0,0,1,0,2h-3a.5.5,0,0,0-.5.5,3.5,3.5,0,0,0,3.5,3.5h.93a1,1,0,0,1,0,2Z"/><path class="cls-5" d="M76,47H58a1,1,0,0,1,0-2H76a1,1,0,0,1,0,2Z"/><path class="cls-5" d="M74.5,57H73.3a1,1,0,0,1,0-2h1.2A3.5,3.5,0,0,0,78,51.5a.5.5,0,0,0-.5-.5h-3a1,1,0,0,1,0-2h3A2.5,2.5,0,0,1,80,51.5,5.51,5.51,0,0,1,74.5,57Z"/><path class="cls-5" d="M69.41,62.37H64.59a1,1,0,0,1-.76-.35l-1.68-2A13.47,13.47,0,0,1,59,51.31V46a1,1,0,0,1,1-1H74a1,1,0,0,1,1,1v5.31A13.47,13.47,0,0,1,71.85,60l-1.68,2A1,1,0,0,1,69.41,62.37Zm-4.35-2h3.89l1.38-1.63A11.48,11.48,0,0,0,73,51.31V47H61v4.31a11.47,11.47,0,0,0,2.67,7.43Z"/><path class="cls-5" d="M60.52,70H58a1,1,0,0,1-1-1V61a1,1,0,0,1,1-1h2.52A1.55,1.55,0,0,1,62,61.61v6.77A1.54,1.54,0,0,1,60.52,70ZM59,68h1V62H59Z"/><path class="cls-5" d="M67,57a4,4,0,1,1,4-4A4,4,0,0,1,67,57Zm0-6a2,2,0,1,0,2,2A2,2,0,0,0,67,51Z"/><path class="cls-5" d="M58,72H49a1,1,0,0,1,0-2h8V61H49a1,1,0,0,1,0-2h9a1,1,0,0,1,1,1V71A1,1,0,0,1,58,72Z"/><path class="cls-5" d="M64.94,70.08H63.82A5.9,5.9,0,0,1,60.7,69l-.21-.13A1,1,0,0,1,60,68V63c0-1.7,2.68-3.69,3-3.85a1,1,0,0,1,1.14.12l1.27,1.1c1.69,0,3.83,0,4.72.09a1.88,1.88,0,0,1,1.8,1.92c.09,4.31-2.27,6.95-3.56,7.4A11.79,11.79,0,0,1,64.94,70.08ZM62,67.44a3.64,3.64,0,0,0,1.82.63h.54a15.73,15.73,0,0,0,3.3-.18c.47-.19,2.28-2.1,2.23-5.44-1.08-.08-3.94-.08-4.89-.08a1,1,0,0,1-.65-.24l-.94-.81A5.26,5.26,0,0,0,62,63ZM62,68h0Z"/><path class="cls-5" d="M67,73a1,1,0,0,1-1-1V69a1,1,0,0,1,2,0v3A1,1,0,0,1,67,73Z"/><path class="cls-5" d="M70,73H64a1,1,0,0,1,0-2h6a1,1,0,0,1,0,2Z"/><path class="cls-5" d="M42,55a1,1,0,0,1-.71-1.71A1,1,0,0,1,42.2,53a.63.63,0,0,1,.18.06.55.55,0,0,1,.17.09,1,1,0,0,1,.16.12,1,1,0,0,1,0,1.42l-.16.12a.55.55,0,0,1-.17.09L42.2,55Z"/><path class="cls-5" d="M85,60a1,1,0,1,1,.71-.29A1.05,1.05,0,0,1,85,60Z"/><path class="cls-5" d="M89,49a1,1,0,1,1,.71-.29A1.05,1.05,0,0,1,89,49Z"/><path class="cls-5" d="M78,72a1,1,0,0,1-.38-.08.94.94,0,0,1-.33-.21A1.05,1.05,0,0,1,77,71a1,1,0,0,1,.08-.38,1,1,0,0,1,.21-.33.93.93,0,0,1,.33-.21,1,1,0,0,1,1.09.21A1,1,0,0,1,78,72Z"/><path class="cls-5" d="M89,68a1,1,0,1,1,.71-.29A1.05,1.05,0,0,1,89,68Z"/><path class="cls-5" d="M54,48l-.2,0-.18-.06a.56.56,0,0,1-.17-.09l-.16-.12a1,1,0,0,1-.21-.33.95.95,0,0,1,0-.76,1.15,1.15,0,0,1,.21-.33l.16-.12a.56.56,0,0,1,.17-.09A.63.63,0,0,1,53.8,46a1,1,0,0,1,.91.27,1.16,1.16,0,0,1,.21.33.94.94,0,0,1,0,.76,1.16,1.16,0,0,1-.21.33A1.05,1.05,0,0,1,54,48Z"/></svg>