<?xml version="1.0" ?><svg data-name="001" id="_001" viewBox="0 0 128 128" xmlns="http://www.w3.org/2000/svg"><defs><style>.cls-1{opacity:0.3;}.cls-15,.cls-2{fill:#c9c1f5;}.cls-3{fill:#f2eed5;}.cls-4{fill:#6d6daa;}.cls-5{fill:#fffad1;}.cls-6{fill:#e0f3ff;}.cls-7{fill:#ff968c;}.cls-8{fill:#fff2cc;}.cls-9{fill:#ced8ee;}.cls-10{fill:#eef6ff;}.cls-11{fill:#7595b5;}.cls-12,.cls-16{fill:#fff;}.cls-13{opacity:0.5;}.cls-14{fill:#231f20;}.cls-15,.cls-16,.cls-17,.cls-18{fill-rule:evenodd;}.cls-17{fill:#554dad;}.cls-18{fill:#b1f1a8;}.cls-19{fill:#97c1ff;}.cls-20{fill:#534d94;}.cls-21{fill:#cc7e54;}.cls-22{fill:#f9e2dc;}.cls-23{fill:#d6b5b0;}.cls-24{fill:#ebf5ff;}.cls-25{fill:#7690a8;}</style></defs><title/><g class="cls-1"><path class="cls-2" d="M116.25,69.17A45.95,45.95,0,1,0,26,56.82a50.29,50.29,0,0,1-5.85,23.53A27,27,0,0,0,45.08,120a27.47,27.47,0,0,0,4.36-.53c10.76-2.2,22.06-1.18,31.83,3.83a24.53,24.53,0,0,0,34.24-13.41,24.48,24.48,0,0,0,.55-15.1A47.49,47.49,0,0,1,116.25,69.17Z"/><rect class="cls-3" height="21" width="6" x="6.01" y="66"/><path class="cls-4" d="M12,88H6a1,1,0,0,1-1-1V66a1,1,0,0,1,1-1h6a1,1,0,0,1,1,1V87A1,1,0,0,1,12,88ZM7,86h4V67H7Z"/><rect class="cls-5" height="6" width="44" x="1.01" y="87"/><path class="cls-4" d="M45,94H1a1,1,0,0,1-1-1V87a1,1,0,0,1,1-1H45a1,1,0,0,1,1,1v6A1,1,0,0,1,45,94ZM2,92H44V88H2Z"/><rect class="cls-6" height="21" width="6" x="24.01" y="66"/><path class="cls-4" d="M30,88H24a1,1,0,0,1-1-1V66a1,1,0,0,1,1-1h6a1,1,0,0,1,1,1V87A1,1,0,0,1,30,88Zm-5-2h4V67H25Z"/><rect class="cls-7" height="21" width="6" x="30.01" y="66"/><path class="cls-4" d="M36,88H30a1,1,0,0,1-1-1V66a1,1,0,0,1,1-1h6a1,1,0,0,1,1,1V87A1,1,0,0,1,36,88Zm-5-2h4V67H31Z"/><rect class="cls-6" height="21" width="6" x="18.01" y="66"/><path class="cls-4" d="M24,88H18a1,1,0,0,1-1-1V66a1,1,0,0,1,1-1h6a1,1,0,0,1,1,1V87A1,1,0,0,1,24,88Zm-5-2h4V67H19Z"/><rect class="cls-7" height="21" width="6" x="12.01" y="66"/><path class="cls-4" d="M18,88H12a1,1,0,0,1-1-1V66a1,1,0,0,1,1-1h6a1,1,0,0,1,1,1V87A1,1,0,0,1,18,88Zm-5-2h4V67H13Z"/><rect class="cls-8" height="21" width="6" x="36.01" y="66"/><path class="cls-4" d="M42,88H36a1,1,0,0,1-1-1V66a1,1,0,0,1,1-1h6a1,1,0,0,1,1,1V87A1,1,0,0,1,42,88Zm-5-2h4V67H37Z"/><path class="cls-4" d="M125,106H8a1,1,0,0,1,0-2H125a1,1,0,0,1,0,2Z"/><path class="cls-4" d="M5,106H4a1,1,0,1,1,0-2H5a1,1,0,1,1,0,2Z"/><circle class="cls-9" cx="22" cy="22" r="19"/><path class="cls-4" d="M22,42A20,20,0,1,1,42,22,20,20,0,0,1,22,42ZM22,4A18,18,0,1,0,40,22,18,18,0,0,0,22,4Z"/><circle class="cls-10" cx="22" cy="22" r="15"/><g class="cls-1"><path class="cls-11" d="M22,34.14A15,15,0,0,1,7.08,20.64C7,21.09,7,21.54,7,22a15,15,0,0,0,30,0c0-.46,0-.91-.08-1.36A15,15,0,0,1,22,34.14Z"/></g><path class="cls-12" d="M22,9.86a15,15,0,0,1,14.92,13.5c0-.45.08-.9.08-1.36A15,15,0,0,0,7,22c0,.46,0,.91.08,1.36A15,15,0,0,1,22,9.86Z"/><path class="cls-4" d="M22,38A16,16,0,1,1,38,22,16,16,0,0,1,22,38ZM22,8A14,14,0,1,0,36,22,14,14,0,0,0,22,8Z"/><path class="cls-4" d="M22,10.86a1,1,0,0,1-1-1,1,1,0,0,1,.29-.71A1,1,0,0,1,23,9.86a1,1,0,0,1-1,1Z"/><path class="cls-4" d="M22,35.14a1,1,0,0,1-.71-.29,1,1,0,0,1-.21-.32,1.09,1.09,0,0,1-.08-.39,1,1,0,0,1,1.2-1l.18.06a.76.76,0,0,1,.18.09l.15.13a1,1,0,0,1,.29.7,1.09,1.09,0,0,1-.08.39,1,1,0,0,1-.21.32.78.78,0,0,1-.15.12l-.18.1-.18,0A.68.68,0,0,1,22,35.14Z"/><path class="cls-4" d="M34.14,23a.84.84,0,0,1-.38-.08,1,1,0,0,1-.62-.92,1,1,0,0,1,.3-.71,1,1,0,0,1,.32-.21,1,1,0,0,1,1.38.92,1,1,0,0,1-.29.71A1,1,0,0,1,34.14,23Z"/><path class="cls-4" d="M9.86,23a1.05,1.05,0,0,1-.71-.29A1,1,0,0,1,8.86,22a1,1,0,0,1,.29-.71,1,1,0,0,1,1.41,0,1,1,0,0,1,.3.71,1,1,0,0,1-.3.71l-.15.12a.55.55,0,0,1-.17.09A.62.62,0,0,1,10,23Z"/><path class="cls-4" d="M22,24.43A2.43,2.43,0,1,1,24.43,22,2.43,2.43,0,0,1,22,24.43Zm0-2.86a.43.43,0,1,0,.43.43A.43.43,0,0,0,22,21.57Z"/><path class="cls-4" d="M22,21.57a1,1,0,0,1-1-1V13.43a1,1,0,0,1,2,0v7.14A1,1,0,0,1,22,21.57Z"/><path class="cls-4" d="M29.86,23H23.43a1,1,0,0,1,0-2h6.43a1,1,0,0,1,0,2Z"/><g class="cls-13"><path class="cls-4" d="M18,71H12a1,1,0,1,1,0-2h6a1,1,0,0,1,0,2Z"/><path class="cls-4" d="M18,84H12a1,1,0,1,1,0-2h6a1,1,0,0,1,0,2Z"/></g><g class="cls-13"><path class="cls-4" d="M24,71H18a1,1,0,0,1,0-2h6a1,1,0,0,1,0,2Z"/><path class="cls-4" d="M24,84H18a1,1,0,0,1,0-2h6a1,1,0,0,1,0,2Z"/></g><g class="cls-13"><path class="cls-4" d="M12,71H6a1,1,0,0,1,0-2h6a1,1,0,0,1,0,2Z"/><path class="cls-4" d="M12,84H6a1,1,0,0,1,0-2h6a1,1,0,0,1,0,2Z"/></g><g class="cls-13"><path class="cls-4" d="M36,71H30a1,1,0,0,1,0-2h6a1,1,0,0,1,0,2Z"/><path class="cls-4" d="M36,84H30a1,1,0,0,1,0-2h6a1,1,0,0,1,0,2Z"/></g><g class="cls-13"><path class="cls-4" d="M42,71H36a1,1,0,0,1,0-2h6a1,1,0,0,1,0,2Z"/><path class="cls-4" d="M42,84H36a1,1,0,0,1,0-2h6a1,1,0,0,1,0,2Z"/></g><g class="cls-13"><path class="cls-4" d="M30,71H24a1,1,0,0,1,0-2h6a1,1,0,0,1,0,2Z"/><path class="cls-4" d="M30,84H24a1,1,0,0,1,0-2h6a1,1,0,0,1,0,2Z"/></g><path class="cls-4" d="M69,118H59a1,1,0,0,1,0-2H69a1,1,0,0,1,0,2Z"/><path class="cls-4" d="M56,118H55a1,1,0,0,1,0-2h1a1,1,0,0,1,0,2Z"/><path class="cls-4" d="M116,126H12a1,1,0,0,1,0-2H116a1,1,0,1,1,0,2Z"/><path class="cls-4" d="M120,126h-1a1,1,0,0,1,0-2h1a1,1,0,1,1,0,2Z"/><rect class="cls-6" height="21" transform="translate(148 35) rotate(-180)" width="6" x="71" y="7"/><path class="cls-4" d="M77,29H71a1,1,0,0,1-1-1V7a1,1,0,0,1,1-1h6a1,1,0,0,1,1,1V28A1,1,0,0,1,77,29Zm-5-2h4V8H72Z"/><rect class="cls-7" height="21" width="6" x="83" y="7"/><path class="cls-4" d="M89,29H83a1,1,0,0,1-1-1V7a1,1,0,0,1,1-1h6a1,1,0,0,1,1,1V28A1,1,0,0,1,89,29Zm-5-2h4V8H84Z"/><rect class="cls-7" height="21" width="6" x="77" y="7"/><path class="cls-4" d="M83,29H77a1,1,0,0,1-1-1V7a1,1,0,0,1,1-1h6a1,1,0,0,1,1,1V28A1,1,0,0,1,83,29Zm-5-2h4V8H78Z"/><rect class="cls-3" height="21" width="6" x="89" y="7"/><path class="cls-4" d="M95,29H89a1,1,0,0,1-1-1V7a1,1,0,0,1,1-1h6a1,1,0,0,1,1,1V28A1,1,0,0,1,95,29Zm-5-2h4V8H90Z"/><rect class="cls-5" height="6" transform="translate(195 62.01) rotate(-180)" width="57" x="69" y="28"/><path class="cls-4" d="M126,35H69a1,1,0,0,1-1-1V28a1,1,0,0,1,1-1h57a1,1,0,0,1,1,1v6A1,1,0,0,1,126,35ZM70,33h55V29H70Z"/><rect class="cls-6" height="21" width="6" x="95" y="7"/><path class="cls-4" d="M101,29H95a1,1,0,0,1-1-1V7a1,1,0,0,1,1-1h6a1,1,0,0,1,1,1V28A1,1,0,0,1,101,29Zm-5-2h4V8H96Z"/><rect class="cls-2" height="12" width="15" x="109" y="16"/><path class="cls-4" d="M124,29H109a1,1,0,0,1-1-1V16a1,1,0,0,1,1-1h15a1,1,0,0,1,1,1V28A1,1,0,0,1,124,29Zm-14-2h13V17H110Z"/><rect class="cls-2" height="5" width="17" x="108" y="11"/><path class="cls-4" d="M125,17H108a1,1,0,0,1-1-1V11a1,1,0,0,1,1-1h17a1,1,0,0,1,1,1v5A1,1,0,0,1,125,17Zm-16-2h15V12H109Z"/><path class="cls-4" d="M119,21h-5a1,1,0,0,1,0-2h5a1,1,0,0,1,0,2Z"/><g class="cls-13"><line class="cls-7" x1="83" x2="77" y1="11" y2="11"/><path class="cls-4" d="M83,12H77a1,1,0,0,1,0-2h6a1,1,0,0,1,0,2Z"/><line class="cls-7" x1="83" x2="77" y1="24" y2="24"/><path class="cls-4" d="M83,25H77a1,1,0,0,1,0-2h6a1,1,0,0,1,0,2Z"/></g><g class="cls-13"><line class="cls-7" x1="77" x2="71" y1="11" y2="11"/><path class="cls-4" d="M77,12H71a1,1,0,0,1,0-2h6a1,1,0,0,1,0,2Z"/><line class="cls-7" x1="77" x2="71" y1="24" y2="24"/><path class="cls-4" d="M77,25H71a1,1,0,0,1,0-2h6a1,1,0,0,1,0,2Z"/><line class="cls-14" x1="77" x2="71" y1="11" y2="11"/><line class="cls-14" x1="77" x2="71" y1="11" y2="11"/><line class="cls-14" x1="77" x2="71" y1="24" y2="24"/><line class="cls-14" x1="77" x2="71" y1="24" y2="24"/></g><g class="cls-13"><line class="cls-7" x1="89" x2="83" y1="11" y2="11"/><path class="cls-4" d="M89,12H83a1,1,0,0,1,0-2h6a1,1,0,0,1,0,2Z"/><line class="cls-7" x1="89" x2="83" y1="24" y2="24"/><path class="cls-4" d="M89,25H83a1,1,0,0,1,0-2h6a1,1,0,0,1,0,2Z"/><line class="cls-14" x1="89" x2="83" y1="11" y2="11"/><line class="cls-14" x1="89" x2="83" y1="11" y2="11"/><line class="cls-14" x1="89" x2="83" y1="24" y2="24"/><line class="cls-14" x1="89" x2="83" y1="24" y2="24"/></g><g class="cls-13"><line class="cls-7" x1="101" x2="95" y1="11" y2="11"/><path class="cls-4" d="M101,12H95a1,1,0,0,1,0-2h6a1,1,0,0,1,0,2Z"/><line class="cls-7" x1="101" x2="95" y1="24" y2="24"/><path class="cls-4" d="M101,25H95a1,1,0,0,1,0-2h6a1,1,0,0,1,0,2Z"/></g><g class="cls-13"><line class="cls-7" x1="95" x2="89" y1="11" y2="11"/><path class="cls-4" d="M95,12H89a1,1,0,0,1,0-2h6a1,1,0,0,1,0,2Z"/><line class="cls-7" x1="95" x2="89" y1="24" y2="24"/><path class="cls-4" d="M95,25H89a1,1,0,0,1,0-2h6a1,1,0,0,1,0,2Z"/><line class="cls-14" x1="95" x2="89" y1="11" y2="11"/><line class="cls-14" x1="95" x2="89" y1="11" y2="11"/><line class="cls-14" x1="95" x2="89" y1="24" y2="24"/><line class="cls-14" x1="95" x2="89" y1="24" y2="24"/></g><path class="cls-15" d="M116.85,105h-15.7a2,2,0,0,1-2-1.62L97,92h24l-2.19,11.38A2,2,0,0,1,116.85,105Z"/><g class="cls-13"><polygon class="cls-16" points="106 105 103 105 101 92 104 92 106 105"/></g><g class="cls-1"><polygon class="cls-17" points="120.42 95 121 92 97 92 97.58 95 120.42 95"/></g><rect class="cls-2" height="8" width="28" x="95" y="84"/><g class="cls-13"><rect class="cls-12" height="8" width="3" x="100" y="84"/></g><path class="cls-4" d="M116.85,106h-15.7a3,3,0,0,1-2.95-2.43L96,92.19A1,1,0,0,1,97,91h24a1,1,0,0,1,1,1.19l-2.19,11.38A3,3,0,0,1,116.85,106ZM98.21,93l2,10.19a1,1,0,0,0,1,.81h15.7a1,1,0,0,0,1-.81l2-10.19Z"/><path class="cls-4" d="M123,93H95a1,1,0,0,1-1-1V84a1,1,0,0,1,1-1h28a1,1,0,0,1,1,1v8A1,1,0,0,1,123,93ZM96,91h26V85H96Z"/><path class="cls-18" d="M97,65v4a2,2,0,0,0,2,2h6a2,2,0,0,1,2,2h0a2,2,0,0,1-2,2H99a6,6,0,0,1-6-6V65a2,2,0,0,1,2-2h0A2,2,0,0,1,97,65Z"/><path class="cls-4" d="M105,76H99a7,7,0,0,1-7-7V65a3,3,0,1,1,6,0v4a1,1,0,0,0,1,1h6a3,3,0,0,1,0,6ZM95,64a1,1,0,0,0-1,1v4a5,5,0,0,0,5,5h6a1,1,0,0,0,0-2H99a3,3,0,0,1-3-3V65A1,1,0,0,0,95,64Z"/><path class="cls-18" d="M117,84H101V62a8,8,0,0,1,8-8h0a8,8,0,0,1,8,8Z"/><g class="cls-13"><path class="cls-16" d="M111,54.26a8,8,0,0,0-2-.26h0a8,8,0,0,0-8,8V84h4V62A8,8,0,0,1,111,54.26Z"/></g><path class="cls-4" d="M117,85H101a1,1,0,0,1-1-1V62a9,9,0,0,1,18,0V84A1,1,0,0,1,117,85Zm-15-2h14V62a7,7,0,0,0-14,0Z"/><path class="cls-18" d="M121,67v3a2,2,0,0,1-2,2h-5a3,3,0,0,0-3,3h0a3,3,0,0,0,3,3h5a8,8,0,0,0,8-8V67a3,3,0,0,0-3-3h0A3,3,0,0,0,121,67Z"/><g class="cls-13"><path class="cls-16" d="M115,75h0a3,3,0,0,1,3-3h-4a3,3,0,0,0-3,3h0a3,3,0,0,0,3,3h4A3,3,0,0,1,115,75Z"/></g><path class="cls-4" d="M119,79h-5a4,4,0,0,1,0-8h5a1,1,0,0,0,1-1V67a4,4,0,1,1,8,0v3A9,9,0,0,1,119,79Zm-5-6a2,2,0,0,0,0,4h5a7,7,0,0,0,7-7V67a2,2,0,1,0-4,0v3a3,3,0,0,1-3,3Z"/></g><path class="cls-19" d="M83.63,64.24S77.8,61.87,78,62c-1.85,4-9,6-14,7.42C59,68,51.36,66,50,62.05l-5.43,2.27A22.12,22.12,0,0,0,31,84.73V92H97V84.56A22.12,22.12,0,0,0,83.63,64.24Z"/><path class="cls-19" d="M44.19,65.67C46.39,71.35,55,76.18,64,76.18c9.29,0,17.37-5.1,20-11.06v-.7l-.37-.18S77.8,61.87,78,62c-1.85,4-9,6-14,7.42C59,68,51.36,66,50,62.05l-5.43,2.27-.42.19Z"/><g class="cls-1"><path class="cls-12" d="M83.63,64.24S77.8,61.87,78,62c-1.85,4-8,7.42-14,7.42S51.36,66,50,62.05l-5.43,2.27A22.12,22.12,0,0,0,31,84.73v4C31,80,38,68,49,66c1.33,3.93,9,7.42,15,7.42S77.15,70,79,66c11,3,18,13.72,18,22.56v-4A22.12,22.12,0,0,0,83.63,64.24Z"/></g><path class="cls-4" d="M84,93a1,1,0,0,1-1-1V82a1,1,0,0,1,2,0V92A1,1,0,0,1,84,93Z"/><path class="cls-4" d="M44,93a1,1,0,0,1-1-1V82a1,1,0,0,1,2,0V92A1,1,0,0,1,44,93Z"/><path class="cls-4" d="M97,93a1,1,0,0,1-1-1V84.56a21.1,21.1,0,0,0-12.76-19.4L77.6,62.73a1,1,0,1,1,.79-1.84L84,63.32A23.1,23.1,0,0,1,98,84.56V92A1,1,0,0,1,97,93Z"/><path class="cls-4" d="M31,93a1,1,0,0,1-1-1V84.73A23.06,23.06,0,0,1,44.21,63.4l5.41-2.26A1,1,0,0,1,50.39,63L45,65.24A21.07,21.07,0,0,0,32,84.73V92A1,1,0,0,1,31,93Z"/><path class="cls-19" d="M75.62,55.45c-1.3,3,.62,5.38,2.38,6.55-1.85,4-9,6-14,7.42C59,68,51.28,66,50,62c1.72-1,3.71-3.53,2.35-6.55Z"/><g class="cls-1"><path class="cls-20" d="M75.62,55.45H52.35a4.86,4.86,0,0,1-1.18,5.62l3,2.56A10,10,0,0,0,60.66,66h6.67a10,10,0,0,0,6.46-2.37l3.05-2.58A4.88,4.88,0,0,1,75.62,55.45Z"/></g><path class="cls-4" d="M64,70.42c-6.8,0-13.51-3.64-15-8.11a1,1,0,0,1,.44-1.16c1.27-.76,3.11-2.73,2-5.28A1,1,0,0,1,53.27,55a6,6,0,0,1-2,7.33c1.65,3.34,7.25,6.05,12.77,6.05,6,0,10.83-3,12.71-6.13-1.88-1.58-3.34-4.21-2-7.24a1,1,0,1,1,1.83.8c-1.28,2.93,1.46,4.94,2,5.32a1,1,0,0,1,.36,1.25C76.77,67.05,70.5,70.42,64,70.42Z"/><path class="cls-4" d="M64,77.18c-9.21,0-18.32-4.89-20.74-11.14a1,1,0,0,1,1.87-.72c2.11,5.44,10.57,9.86,18.88,9.86,9.49,0,16.79-5.27,19.09-10.47a1,1,0,1,1,1.83.81C81.93,72.27,73.13,77.18,64,77.18Z"/><g class="cls-13"><path class="cls-4" d="M64,70.43a1,1,0,0,1-1-1V63.25a1,1,0,0,1,2,0v6.18A1,1,0,0,1,64,70.43Z"/><path class="cls-4" d="M59.81,69.76a1,1,0,0,1-.92-1.39,10.58,10.58,0,0,0,.75-5.08,1,1,0,1,1,2-.09,12.62,12.62,0,0,1-.9,5.94A1,1,0,0,1,59.81,69.76Z"/><path class="cls-4" d="M56.11,68.51a1,1,0,0,1-.69-1.73c.73-.69.95-1.57,1-4.1a1,1,0,0,1,1-1,1,1,0,0,1,1,1c-.06,2.38-.21,4.16-1.64,5.5A1,1,0,0,1,56.11,68.51Z"/><path class="cls-4" d="M52.48,66.15a1,1,0,0,1-.68-1.73l.19-.17a4.12,4.12,0,0,0,1.63-3,1,1,0,1,1,2,.28,6,6,0,0,1-2.25,4.24l-.18.17A1,1,0,0,1,52.48,66.15Z"/><path class="cls-4" d="M68.19,69.76a1,1,0,0,1-.92-.61,12.62,12.62,0,0,1-.9-5.94,1,1,0,0,1,1-1,1,1,0,0,1,1,1,10.59,10.59,0,0,0,.75,5.08,1,1,0,0,1-.92,1.39Z"/><path class="cls-4" d="M72,68.41a1,1,0,0,1-.69-.27c-1.38-1.3-1.68-2.9-1.74-5.4a1,1,0,0,1,1-1,1,1,0,0,1,1,1c.06,2.32.32,3.25,1.11,4A1,1,0,0,1,72,68.41Z"/><path class="cls-4" d="M75.43,66a1,1,0,0,1-.68-.27l-.19-.17a5.74,5.74,0,0,1-2.14-4.13,1,1,0,0,1,2-.28,3.84,3.84,0,0,0,1.52,2.94l.2.18A1,1,0,0,1,75.43,66Z"/></g><g class="cls-1"><path class="cls-21" d="M75.62,55.45H52.35a4.6,4.6,0,0,1,0,3.92l1.44,1.44A10.87,10.87,0,0,0,61.5,64h5a10.87,10.87,0,0,0,7.68-3.18l1.46-1.46A4.57,4.57,0,0,1,75.62,55.45Z"/></g><path class="cls-22" d="M66.5,60h-5a10.87,10.87,0,0,1-7.68-3.18l-6.63-6.63A10.87,10.87,0,0,1,44,42.5V22.88A11.88,11.88,0,0,1,55.88,11H72.12A11.88,11.88,0,0,1,84,22.88V42.5a10.87,10.87,0,0,1-3.18,7.68l-6.63,6.63A10.87,10.87,0,0,1,66.5,60Z"/><g class="cls-1"><path class="cls-21" d="M84,28.39V22.88A11.88,11.88,0,0,0,72.12,11H55.88A11.88,11.88,0,0,0,44,22.88v3.49C46,24,48,22,49,19c11,7,25,3.37,31.65,4.08C83.43,23.38,83.93,26.7,84,28.39Z"/></g><path class="cls-23" d="M84,40v9a6.53,6.53,0,0,1-2.31,5L73.8,60.63A10,10,0,0,1,67.34,63H60.66a10,10,0,0,1-6.46-2.37L46.31,54A6.53,6.53,0,0,1,44,49V40l6.14,6.91a2.89,2.89,0,0,0,4,.3L55.6,46a8.62,8.62,0,0,1,5.52-2h5.76a8.62,8.62,0,0,1,5.52,2l1.45,1.21a2.89,2.89,0,0,0,4-.3Z"/><g class="cls-1"><path class="cls-21" d="M81.69,50,73.8,56.63A10,10,0,0,1,67.34,59H60.66a10,10,0,0,1-6.46-2.37L46.31,50A6.53,6.53,0,0,1,44,45v4a6.53,6.53,0,0,0,2.31,5l7.89,6.68A10,10,0,0,0,60.66,63h6.67a10,10,0,0,0,6.46-2.37L81.69,54A6.53,6.53,0,0,0,84,49V45A6.53,6.53,0,0,1,81.69,50Z"/></g><g class="cls-1"><path class="cls-12" d="M77.86,46.91a2.89,2.89,0,0,1-4,.3L72.4,46a8.62,8.62,0,0,0-5.52-2H61.12a8.62,8.62,0,0,0-5.52,2l-1.45,1.21a2.89,2.89,0,0,1-4-.3L44,40v3l6.14,6.91a2.89,2.89,0,0,0,4,.3L55.6,49a8.62,8.62,0,0,1,5.52-2h5.76a8.62,8.62,0,0,1,5.52,2l1.45,1.21a2.89,2.89,0,0,0,4-.3L84,43V40Z"/></g><path class="cls-4" d="M67.34,64H60.66a11,11,0,0,1-7.11-2.6l-7.89-6.68A7.52,7.52,0,0,1,43,49V40a1,1,0,0,1,1.75-.66l6.14,6.91a1.88,1.88,0,0,0,2.63.2L55,45.23A9.63,9.63,0,0,1,61.12,43h5.76A9.63,9.63,0,0,1,73,45.23l1.45,1.21a1.88,1.88,0,0,0,2.63-.2l6.14-6.91A1,1,0,0,1,85,40v9a7.52,7.52,0,0,1-2.67,5.75L74.44,61.4A11,11,0,0,1,67.34,64ZM45,42.63V49a5.53,5.53,0,0,0,2,4.23l7.89,6.68A9,9,0,0,0,60.66,62h6.67a9,9,0,0,0,5.81-2.13L81,53.19A5.53,5.53,0,0,0,83,49V42.63l-4.39,4.94a3.87,3.87,0,0,1-5.4.4l-1.45-1.21A7.63,7.63,0,0,0,66.88,45H61.12a7.63,7.63,0,0,0-4.88,1.77L54.79,48a3.87,3.87,0,0,1-5.4-.4Z"/><path class="cls-23" d="M77,5c7.1,3.29,12,7,9.34,20C86,26.82,84,26,84,26s.39-5.88-3.35-6.28C74,19,58,23,47,14c0,4-1,6-3,9,0,0-2.78,0-3-2-1-9,2-13,6-12C57-1,73.45,3.36,77,5Z"/><g class="cls-1"><path class="cls-12" d="M47,12.82c10-10,26.45-5.64,30-4,5.3,2.45,9.37,5.15,10,11.77C87.75,11.09,83.22,7.88,77,5,73.45,3.36,57-1,47,9c-3.8-1-6.7,2.63-6.11,10.72C41.34,14.34,43.86,12,47,12.82Z"/></g><path class="cls-4" d="M84.95,27.18a3.74,3.74,0,0,1-1.33-.26,1,1,0,0,1-.61-1s.28-4.93-2.46-5.22a45.92,45.92,0,0,0-6.35.07c-7.65.39-18,.92-26.29-4.84-.28,2.94-1.26,4.89-3.08,7.61A1.13,1.13,0,0,1,44,24c-1.27,0-3.74-.62-4-2.89-.64-5.75.28-10,2.59-12a4.87,4.87,0,0,1,4.08-1.15C57.16-2,73.81,2.42,77.42,4.09h0c7.11,3.29,12.76,7.14,9.9,21.11a2.36,2.36,0,0,1-1.19,1.71A2.5,2.5,0,0,1,84.95,27.18Zm-6.36-8.56a20.46,20.46,0,0,1,2.17.1c3.3.36,4.22,3.9,4.26,6.46a.44.44,0,0,0,.18,0c.1-.05.15-.23.17-.34,2.57-12.58-2-15.76-8.78-18.89h0A34.14,34.14,0,0,0,64.41,3.63c-4.84,0-11.62,1-16.7,6.07a1,1,0,0,1-.95.26,3,3,0,0,0-2.84.61c-1.78,1.55-2.48,5.31-1.92,10.31.08.7.93,1,1.5,1.06A12.47,12.47,0,0,0,46,14a1,1,0,0,1,1.63-.77c8,6.51,18.65,6,26.46,5.56C75.75,18.7,77.27,18.63,78.59,18.63Z"/><path class="cls-4" d="M50,11a1,1,0,0,1-.42-.09A9.56,9.56,0,0,0,46.9,10a1,1,0,1,1,.2-2,11,11,0,0,1,3.32,1.09A1,1,0,0,1,50,11Z"/><path class="cls-12" d="M76.58,22.75c-7.17-.08-12.5-2.58-17.58-3.45"/><path class="cls-4" d="M76.58,23.75h0A46.5,46.5,0,0,1,64.2,21.59c-1.88-.52-3.65-1-5.37-1.31a1,1,0,0,1,.34-2,56.56,56.56,0,0,1,5.57,1.35A44.24,44.24,0,0,0,76.6,21.75a1,1,0,0,1,0,2Z"/><path class="cls-4" d="M44,42a1,1,0,0,1-1-1V22.88a1,1,0,0,1,2,0V41A1,1,0,0,1,44,42Z"/><path class="cls-4" d="M84,42a1,1,0,0,1-1-1V26a1,1,0,0,1,2,0V41A1,1,0,0,1,84,42Z"/><path class="cls-19" d="M75.91,40H71.09a4.9,4.9,0,0,1-4.82-4L65,29H82l-1.27,7A4.9,4.9,0,0,1,75.91,40Z"/><path class="cls-19" d="M56.91,40H52.09a4.9,4.9,0,0,1-4.82-4L46,29H63l-1.27,7A4.9,4.9,0,0,1,56.91,40Z"/><g class="cls-13"><path class="cls-24" d="M65,29l1.27,7A4.88,4.88,0,0,0,69,39.5L79.49,29Z"/></g><g class="cls-13"><path class="cls-24" d="M46,29l1.27,7A4.88,4.88,0,0,0,50,39.5L60.49,29Z"/></g><path class="cls-4" d="M67,30H61a1,1,0,0,1,0-2h6a1,1,0,0,1,0,2Z"/><path class="cls-4" d="M84,30H80a1,1,0,0,1,0-2h4a1,1,0,0,1,0,2Z"/><path class="cls-4" d="M48,30H44a1,1,0,0,1,0-2h4a1,1,0,0,1,0,2Z"/><path class="cls-4" d="M75.91,41H71.09a5.89,5.89,0,0,1-5.8-4.84l-1.27-7A1,1,0,0,1,65,28H82a1,1,0,0,1,1,1.18l-1.27,7A5.89,5.89,0,0,1,75.91,41ZM66.2,30l1.05,5.8A3.89,3.89,0,0,0,71.09,39h4.83a3.89,3.89,0,0,0,3.83-3.2L80.8,30Z"/><path class="cls-4" d="M56.91,41H52.09a5.89,5.89,0,0,1-5.8-4.84l-1.27-7A1,1,0,0,1,46,28H63a1,1,0,0,1,1,1.18l-1.27,7A5.89,5.89,0,0,1,56.91,41ZM47.2,30l1.05,5.8A3.89,3.89,0,0,0,52.09,39h4.83a3.89,3.89,0,0,0,3.83-3.2L61.8,30Z"/><path class="cls-4" d="M64.21,42a3.21,3.21,0,0,1-1.88-.86,1,1,0,0,1,1.33-1.5,1.89,1.89,0,0,0,.58.36,3.17,3.17,0,0,0,.52-.35,1,1,0,1,1,1.33,1.5A3.21,3.21,0,0,1,64.21,42Z"/><path class="cls-4" d="M64,50.55a7.07,7.07,0,0,1-3.55-.72,1,1,0,0,1,1.11-1.67,5.73,5.73,0,0,0,2.45.39,5.73,5.73,0,0,0,2.45-.39,1,1,0,0,1,1.11,1.67A7.07,7.07,0,0,1,64,50.55Z"/><path class="cls-4" d="M78,31a1,1,0,0,1-.45-.11c-1.07-.54-3.19-.33-5.23-.12C71.2,30.88,70,31,69,31a1,1,0,0,1,0-2c1,0,2.05-.11,3.12-.22,2.43-.24,4.73-.47,6.32.32A1,1,0,0,1,78,31Z"/><path class="cls-4" d="M54,37a2,2,0,1,1,2-2A2,2,0,0,1,54,37Zm0-2h0Zm0,0h0Zm0,0h0Zm0,0h0Zm0,0h0Zm0,0h0Zm0,0h0Zm0,0h0Z"/><path class="cls-4" d="M50,31a1,1,0,0,1-.45-1.89c1.59-.79,3.89-.57,6.32-.32C56.95,28.89,58,29,59,29a1,1,0,0,1,0,2c-1,0-2.2-.12-3.32-.23-2-.21-4.16-.42-5.23.12A1,1,0,0,1,50,31Z"/><path class="cls-4" d="M74,37a2,2,0,1,1,2-2A2,2,0,0,1,74,37Zm0-2h0Zm0,0h0Zm0,0h0Zm0,0h0Zm0,0h0Zm0,0h0Zm0,0h0Zm0,0h0Z"/><path class="cls-4" d="M77,34H71a1,1,0,0,1,0-2h6a1,1,0,0,1,0,2Z"/><path class="cls-4" d="M57,34H51a1,1,0,0,1,0-2h6a1,1,0,0,1,0,2Z"/><path class="cls-22" d="M84,40.14V32c0-2.7,2-3.57,3.24-2.7,2,1.38-.54,6.68-.54,6.68C89,38,86.56,41,84,40.14Z"/><path class="cls-4" d="M84.92,41.29a3.87,3.87,0,0,1-1.24-.21,1,1,0,0,1-.68-.95V32a3.94,3.94,0,0,1,1.9-3.7,2.81,2.81,0,0,1,2.92.17c2.19,1.53.8,5.57.07,7.3a3.16,3.16,0,0,1,.29,3.62A3.81,3.81,0,0,1,84.92,41.29ZM86.22,30a.86.86,0,0,0-.4.1A2.08,2.08,0,0,0,85,32v7.26a1.77,1.77,0,0,0,1.45-.86,1.24,1.24,0,0,0-.4-1.67,1,1,0,0,1-.25-1.18c1-2.15,1.62-4.91.87-5.43A.79.79,0,0,0,86.22,30Z"/><path class="cls-22" d="M44,40.14V32c0-2.7-2-3.57-3.24-2.7-2,1.38.54,6.68.54,6.68C39,38,41.44,41,44,40.14Z"/><path class="cls-4" d="M43.08,41.29a3.81,3.81,0,0,1-3.26-1.87,3.16,3.16,0,0,1,.29-3.62c-.73-1.73-2.12-5.77.07-7.3a2.81,2.81,0,0,1,2.92-.17A3.94,3.94,0,0,1,45,32v8.11a1,1,0,0,1-.68.95A3.87,3.87,0,0,1,43.08,41.29ZM44,40.14h0ZM41.78,30a.78.78,0,0,0-.45.14c-.79.55,0,3.53.87,5.43A1,1,0,0,1,42,36.75a1.24,1.24,0,0,0-.4,1.67,1.77,1.77,0,0,0,1.45.86V32a2.08,2.08,0,0,0-.82-1.92A.86.86,0,0,0,41.78,30Z"/><path class="cls-10" d="M112,119H76v1a2,2,0,0,1-2,2H54a2,2,0,0,1-2-2v-1H16v2a4,4,0,0,0,4,4h88a4,4,0,0,0,4-4Z"/><g class="cls-1"><path class="cls-25" d="M108,122H20a4,4,0,0,1-3.86-3H16v2a4,4,0,0,0,4,4h88a4,4,0,0,0,4-4v-2h-.14A4,4,0,0,1,108,122Z"/></g><path class="cls-4" d="M108,126H20a5,5,0,0,1-5-5v-2a1,1,0,0,1,1-1H52a1,1,0,0,1,1,1v1a1,1,0,0,0,1,1H74a1,1,0,0,0,1-1v-1a1,1,0,0,1,1-1h36a1,1,0,0,1,1,1v2A5,5,0,0,1,108,126Zm-91-6v1a3,3,0,0,0,3,3h88a3,3,0,0,0,3-3v-1H77a3,3,0,0,1-3,3H54a3,3,0,0,1-3-3Z"/><path class="cls-10" d="M104,125H24V70a3,3,0,0,1,3-3h74a3,3,0,0,1,3,3Z"/><path class="cls-12" d="M101,67H27a3,3,0,0,0-3,3v4a3,3,0,0,1,3-3h74a3,3,0,0,1,3,3V70A3,3,0,0,0,101,67Z"/><path class="cls-4" d="M104,126H24a1,1,0,0,1-1-1V70a4,4,0,0,1,4-4h74a4,4,0,0,1,4,4v55A1,1,0,0,1,104,126Zm-79-2h78V70a2,2,0,0,0-2-2H27a2,2,0,0,0-2,2Z"/><circle class="cls-9" cx="64" cy="96" r="4"/><path class="cls-4" d="M64,101a5,5,0,1,1,5-5A5,5,0,0,1,64,101Zm0-8a3,3,0,1,0,3,3A3,3,0,0,0,64,93Z"/></svg>