<?xml version="1.0" ?><svg data-name="004" id="_004" viewBox="0 0 128 128" xmlns="http://www.w3.org/2000/svg"><defs><style>.cls-1{opacity:0.3;}.cls-2{fill:#97c1ff;}.cls-3{fill:#b1f1a8;}.cls-4{fill:#fff;}.cls-5{fill:#efdcd2;}.cls-6{fill:#cc7e54;}.cls-7{fill:#f9e2dc;}.cls-8{fill:#6d6daa;}.cls-9{fill:#d6b5b0;}.cls-10{fill:#ffd599;}.cls-11{fill:#ff99b1;}.cls-12{fill:#89dbba;}.cls-13{opacity:0.5;}.cls-14{fill:#ff9797;}.cls-15{fill:#c9c1f5;}.cls-16{fill:#ced8ee;}.cls-17{fill:#4e4e96;}.cls-18{fill:#eff7ff;}.cls-19{fill:#939fc6;}.cls-20{fill:#9eb2cc;}.cls-21{fill:#fff27d;}</style></defs><title/><g class="cls-1"><path class="cls-2" d="M2.53,84.89A30,30,0,0,0,28.84,107a19.69,19.69,0,0,1,11.63,5.21,37,37,0,0,0,62-22.89,21,21,0,0,1,9.18-14.87c13.19-9,18-28.79,3-45.06a16.6,16.6,0,0,0-6.89-4.12,20.58,20.58,0,0,1-11.24-9.61A28.49,28.49,0,0,0,52.71,8.13,20.06,20.06,0,0,1,36.55,13,29,29,0,0,0,4.78,50.86,20.08,20.08,0,0,1,4,65.19,29.83,29.83,0,0,0,2.53,84.89Z"/><path class="cls-3" d="M91.4,69.9H75v2.87H70.26L69,62.19a7,7,0,0,1,0-1.78l.92-7.74a5,5,0,0,1,2.82-4l5-2.27c.5,1.64,2.95,3,5.5,3a6.05,6.05,0,0,0,5.46-3.13h.05l5,2.38a5,5,0,0,1,2.78,3.95l.92,7.78a7,7,0,0,1,0,1.78L96.18,72.76H91.4Z"/><g class="cls-1"><path class="cls-4" d="M69.09,62.92l.83-7a5,5,0,0,1,2.82-4l4.06-2c.84,1.56,3.83,2.78,6.39,2.78A9.34,9.34,0,0,0,89.62,50l4.11,2a5,5,0,0,1,2.78,3.95l.83,7,.09-.73a7,7,0,0,0,0-1.78l-.92-7.78a5,5,0,0,0-2.78-3.95l-5-2.38h-.05a6.05,6.05,0,0,1-5.46,3.13c-2.55,0-5-1.38-5.5-3l-5,2.27a5,5,0,0,0-2.82,4L69,60.41a7,7,0,0,0,0,1.78Z"/></g><polygon class="cls-4" points="74.17 72.76 70.22 72.76 69.85 69.18 74.17 69.18 74.17 72.76"/><polygon class="cls-4" points="92.32 72.76 96.27 72.88 96.66 69.18 92.32 69.18 92.32 72.76"/><path class="cls-5" d="M87.89,43.69a2.13,2.13,0,0,0,.94,2.63c-.72,1.65-3.53,2.55-5.5,3.13-2-.59-5-1.39-5.5-3a2.23,2.23,0,0,0,.92-2.74Z"/><g class="cls-1"><path class="cls-6" d="M87.89,43.69H78.75a2.6,2.6,0,0,1,0,1.86l.57.6a4.17,4.17,0,0,0,3,1.31h2a4.17,4.17,0,0,0,3-1.31l.57-.6A2.58,2.58,0,0,1,87.89,43.69Z"/></g><path class="cls-7" d="M70.22,73h4a0,0,0,0,1,0,0v5.6a0,0,0,0,1,0,0h-.64a3.36,3.36,0,0,1-3.36-3.36V73A0,0,0,0,1,70.22,73Z"/><path class="cls-8" d="M74.22,79.6h-.64a4.37,4.37,0,0,1-4.36-4.36V73a1,1,0,0,1,1-1h4a1,1,0,0,1,1,1v5.6A1,1,0,0,1,74.22,79.6Zm-3-5.6v1.24a2.37,2.37,0,0,0,2,2.33V74Z"/><path class="cls-7" d="M95.58,73h.64a0,0,0,0,1,0,0v5.6a0,0,0,0,1,0,0h-4a0,0,0,0,1,0,0V76.36A3.36,3.36,0,0,1,95.58,73Z" transform="translate(188.44 151.6) rotate(180)"/><path class="cls-8" d="M92.86,79.6h-.64a1,1,0,0,1-1-1V73a1,1,0,0,1,1-1h4a1,1,0,0,1,1,1v2.24A4.37,4.37,0,0,1,92.86,79.6Zm.36-5.6v3.57a2.37,2.37,0,0,0,2-2.33V74Z"/><path class="cls-8" d="M92.22,70.9a1,1,0,0,1-1-1V57.41a2.43,2.43,0,0,0-.71-1.71,1,1,0,1,1,1.41-1.41,4.44,4.44,0,0,1,1.29,3.12V69.9A1,1,0,0,1,92.22,70.9Z"/><path class="cls-8" d="M74.22,70.9a1,1,0,0,1-1-1V57.41a4.38,4.38,0,0,1,1.29-3.12,1,1,0,0,1,1.41,1.42,2.39,2.39,0,0,0-.71,1.71V69.9A1,1,0,0,1,74.22,70.9Z"/><path class="cls-8" d="M96.18,74H91.4a1,1,0,0,1,0-2h3.88l1.15-9.93a6,6,0,0,0,0-1.53l-.92-7.79a4,4,0,0,0-2.21-3.16l-5-2.38a1,1,0,0,1,.86-1.81l5,2.38a6,6,0,0,1,3.34,4.73l.92,7.78a8,8,0,0,1,0,2l-1.25,10.8A1,1,0,0,1,96.18,74Z"/><path class="cls-8" d="M75,74H70.26a1,1,0,0,1-1-.88L68,62.31a8,8,0,0,1,0-2l.92-7.74a6,6,0,0,1,3.4-4.77l5-2.27.1,0a1,1,0,0,1,.67,1.88h0L73.17,49.6a4,4,0,0,0-2.25,3.18L70,60.53a6,6,0,0,0,0,1.53L71.15,72H75a1,1,0,0,1,0,2Z"/><path class="cls-8" d="M83.33,50.45c-3,0-5.81-1.64-6.45-3.73a1,1,0,0,1,.43-1.14,1.44,1.44,0,0,0,.54-1.65,1,1,0,0,1,1.84-.79,3.33,3.33,0,0,1-.61,3.51,5.56,5.56,0,0,0,4.26,1.79,5.34,5.34,0,0,0,4.21-2A3.44,3.44,0,0,1,87,43a1,1,0,1,1,1.85.77,1.55,1.55,0,0,0,.55,1.72,1,1,0,0,1,.34,1.22A7.07,7.07,0,0,1,83.33,50.45Z"/><polygon class="cls-2" points="74.22 104 81.22 104 81.22 77 85.22 77 85.22 104 92.22 104 92.22 69.9 74.22 69.9 74.22 104"/><path class="cls-8" d="M92.22,105h-7a1,1,0,0,1-1-1V78h-2v26a1,1,0,0,1-1,1h-7a1,1,0,0,1-1-1V69.9a1,1,0,0,1,1-1h18a1,1,0,0,1,1,1V104A1,1,0,0,1,92.22,105Zm-6-2h5V70.9h-16V103h5V77a1,1,0,0,1,1-1h4a1,1,0,0,1,1,1Z"/><path class="cls-8" d="M74.22,75.7A1,1,0,0,1,73.51,74l4.83-4.8a1,1,0,0,1,1.41,1.42l-4.83,4.8A1,1,0,0,1,74.22,75.7Z"/><path class="cls-8" d="M92.14,75.4a1,1,0,0,1-.71-.29l-4.5-4.5a1,1,0,0,1,1.41-1.41l4.5,4.5a1,1,0,0,1-.71,1.71Z"/><path class="cls-8" d="M96.22,70h-4a1,1,0,0,1,0-2h4a1,1,0,0,1,0,2Z"/><path class="cls-8" d="M74.22,70H70.45a1,1,0,0,1,0-2h3.77a1,1,0,0,1,0,2Z"/><path class="cls-8" d="M69.06,62.3a1,1,0,0,1-.34-1.94l1.72-.61a1,1,0,0,1,.67,1.88l-1.72.61A1,1,0,0,1,69.06,62.3Z"/><path class="cls-8" d="M97.37,62.3a1,1,0,0,1-.33-.06l-1.63-.57a1,1,0,0,1,.66-1.89l1.63.57a1,1,0,0,1-.33,1.94Z"/><path class="cls-9" d="M76.92,99.91h.6a3.7,3.7,0,0,1,3.7,3.7V105a0,0,0,0,1,0,0H73.89a.67.67,0,0,1-.67-.67v-.72A3.7,3.7,0,0,1,76.92,99.91Z"/><path class="cls-8" d="M81.22,106H73.89a1.67,1.67,0,0,1-1.67-1.67v-.72a4.7,4.7,0,0,1,4.7-4.7h.6a4.7,4.7,0,0,1,4.7,4.7V105A1,1,0,0,1,81.22,106Zm-7-2h6v-.39a2.7,2.7,0,0,0-2.7-2.7h-.6a2.7,2.7,0,0,0-2.7,2.7Z"/><path class="cls-9" d="M88.92,99.91h.6a3.7,3.7,0,0,1,3.7,3.7v.72a.67.67,0,0,1-.67.67H85.22a0,0,0,0,1,0,0v-1.39a3.7,3.7,0,0,1,3.7-3.7Z"/><path class="cls-8" d="M92.55,106H85.22a1,1,0,0,1-1-1v-1.39a4.7,4.7,0,0,1,4.7-4.7h.6a4.7,4.7,0,0,1,4.7,4.7v.72A1.67,1.67,0,0,1,92.55,106Zm-6.33-2h6v-.39a2.7,2.7,0,0,0-2.7-2.7h-.6a2.7,2.7,0,0,0-2.7,2.7Z"/><path class="cls-7" d="M84.32,45H82.11a4.3,4.3,0,0,1-3-1.24l-2.61-2.59a4.22,4.22,0,0,1-1.25-3V30.83c0-6.18,16-6.18,16,0v7.34a4.22,4.22,0,0,1-1.25,3l-2.61,2.59A4.3,4.3,0,0,1,84.32,45Z"/><g class="cls-1"><path class="cls-6" d="M87.35,41a4.3,4.3,0,0,1-3,1.24H82.11a4.3,4.3,0,0,1-3-1.24l-2.61-2.59a4.22,4.22,0,0,1-1.25-3v2.8a4.22,4.22,0,0,0,1.25,3l2.61,2.59a4.3,4.3,0,0,0,3,1.24h2.21a4.3,4.3,0,0,0,3-1.24L90,41.17a4.22,4.22,0,0,0,1.25-3v-2.8a4.22,4.22,0,0,1-1.25,3Z"/></g><g class="cls-1"><path class="cls-6" d="M91.12,33.69V30.51c0-5.75-15.85-5.75-15.85,0v2.91c.72-.84,1.88-1.49,2.27-2.66,4.5,2.1,9,.24,12,.78A2.35,2.35,0,0,1,91.12,33.69Z"/></g><path class="cls-8" d="M84.32,46H82.11a5.27,5.27,0,0,1-3.73-1.53l-2.61-2.59a5.26,5.26,0,0,1-1.55-3.71V30.83c0-3.87,4.67-5.63,9-5.63s9,1.76,9,5.63v7.34a5.18,5.18,0,0,1-1.55,3.71l-2.61,2.59A5.34,5.34,0,0,1,84.32,46Zm-1.1-18.8c-3.48,0-7,1.25-7,3.63v7.34a3.2,3.2,0,0,0,1,2.29L79.79,43a3.28,3.28,0,0,0,2.32,1h2.21a3.32,3.32,0,0,0,2.32-1l2.61-2.59a3.19,3.19,0,0,0,1-2.29V30.83a3,3,0,0,0-2-2.59A11.47,11.47,0,0,0,83.22,27.2Z"/><path class="cls-9" d="M88.4,24c2.3,1.06,4.26,2.25,4.26,5.52a11.38,11.38,0,0,1-.25,2.28c-.15.71-1.18.39-1.18.39s0-1.91-1.4-2.45c-3.52-1.41-9.25,1.07-13.13-1.56A3.56,3.56,0,0,1,75.52,31s-1.36,0-1.45-.78c-.39-3.51,1.06-5.07,2.62-4.68C80.6,21.62,87,23.32,88.4,24Z"/><g class="cls-1"><path class="cls-4" d="M76.69,27.45c3.9-3.9,10.32-2.2,11.7-1.56,2.07,1,4,1.57,4.26,4.15.3-3.7-1.83-5-4.26-6.08-1.38-.64-7.8-2.34-11.7,1.56-1.48-.37-2.89,1-2.66,4.18C74.21,27.6,75.47,27.14,76.69,27.45Z"/></g><path class="cls-8" d="M91.71,33.22a2.75,2.75,0,0,1-.78-.12,1,1,0,0,1-.7-.89,2.3,2.3,0,0,0-.9-1.65c-1-.56-2.68-.44-4.46-.31-2.3.17-4.9.36-7.37-.67a5.17,5.17,0,0,1-1.19,2,1,1,0,0,1-.79.38c-1.12,0-2.31-.52-2.44-1.67-.26-2.35.21-4.18,1.33-5.16a2.74,2.74,0,0,1,1.94-.69C80.57,20.68,86.73,22.13,88.8,23s4.76,2.57,4.86,6.41A11,11,0,0,1,93.39,32a1.52,1.52,0,0,1-.72,1A1.86,1.86,0,0,1,91.71,33.22Zm-4.64-5.08a6.47,6.47,0,0,1,3.25.68,3.51,3.51,0,0,1,1.32,1.35,6.07,6.07,0,0,0,0-.68C91.59,27,90.15,25.81,88,24.87h0c-1.67-.73-7.19-2.05-10.6,1.35a1,1,0,0,1-.95.26.74.74,0,0,0-.72.17c-.45.39-.85,1.44-.68,3.25l.05,0a2.36,2.36,0,0,0,.53-1.1,1.65,1.65,0,0,1,.88-1.17,1.67,1.67,0,0,1,1.48,0c2.1,1,4.46.81,6.74.65C85.53,28.21,86.32,28.15,87.07,28.15Z"/><path class="cls-8" d="M83.41,39.26a1.83,1.83,0,0,1-1.14-.49,1,1,0,0,1,1.14-1.63,1,1,0,0,1,1.19.23,1,1,0,0,1-.06,1.4A1.83,1.83,0,0,1,83.41,39.26Z"/><path class="cls-8" d="M83.33,42a3.59,3.59,0,0,1-2.09-.53,1,1,0,0,1-.48-1.36,1,1,0,0,1,1.31-.47l.21.12a1.69,1.69,0,0,0,1,.24,1.91,1.91,0,0,0,1.1-.23,1,1,0,0,1,1.29,1.53A3.58,3.58,0,0,1,83.33,42Z"/><path class="cls-8" d="M88.79,35.08a1,1,0,0,1-.45-.11,5.19,5.19,0,0,0-1.71,0c-.45,0-.92.09-1.36.09a1,1,0,0,1,0-2c.36,0,.76,0,1.16-.08a5.31,5.31,0,0,1,2.8.19,1,1,0,0,1-.45,1.89Z"/><path class="cls-8" d="M79.41,37.23a1.36,1.36,0,1,1,1.36-1.36A1.36,1.36,0,0,1,79.41,37.23Zm0-2a.64.64,0,1,0,.64.64A.64.64,0,0,0,79.41,35.23Z"/><path class="cls-8" d="M81.38,35.08a11.59,11.59,0,0,1-1.55-.14,4.61,4.61,0,0,0-1.52-.07,1,1,0,1,1-.89-1.79A4.71,4.71,0,0,1,80.1,33a10.05,10.05,0,0,0,1.28.12,1,1,0,0,1,0,2Z"/><path class="cls-8" d="M87.29,37.23a1.36,1.36,0,1,1,1.36-1.36A1.36,1.36,0,0,1,87.29,37.23Zm0-2a.64.64,0,1,0,.64.64A.64.64,0,0,0,87.29,35.23Z"/><circle class="cls-8" cx="79.41" cy="35.87" r="1"/><circle class="cls-8" cx="87.29" cy="35.87" r="1"/><path class="cls-10" d="M6.16,51.73V32.59A9.84,9.84,0,0,1,16.22,22.54h0A9.84,9.84,0,0,1,26.27,32.59V51.73Z"/><g class="cls-1"><path class="cls-4" d="M16.22,22.54h0A9.84,9.84,0,0,0,6.16,32.59v1.62A9.84,9.84,0,0,1,16.22,24.16h0A9.84,9.84,0,0,1,26.27,34.22V32.59A9.84,9.84,0,0,0,16.22,22.54Z"/></g><path class="cls-8" d="M26.27,52.73H6.16a1,1,0,0,1-1-1V32.59A10.81,10.81,0,0,1,16.22,21.54,10.81,10.81,0,0,1,27.27,32.59V51.73A1,1,0,0,1,26.27,52.73Zm-19.11-2H25.27V32.59a8.86,8.86,0,0,0-9.05-9.05,8.86,8.86,0,0,0-9.05,9.05Z"/><path class="cls-7" d="M17.61,86.36v2.86c0,6.44,3.58,13.6,3.58,13.6l.72,1.43a84.55,84.55,0,0,0,.76-17.9Z"/><path class="cls-7" d="M15,86.36s0,1.43,0,2.86a26,26,0,0,1-3.58,12.17l-.72,2.86a86.51,86.51,0,0,1-.72-17.9Z"/><g class="cls-1"><path class="cls-6" d="M14.75,89c0-1.37,0-2.69,0-2.69H9.73q-.08,1.27-.12,2.48C11.17,89,12.93,89,14.75,89Z"/></g><g class="cls-1"><path class="cls-6" d="M22.78,88.89q0-1.24-.12-2.53H17.61v2.7C19.42,89,21.19,89,22.78,88.89Z"/></g><path class="cls-8" d="M21.91,105.26a1,1,0,0,1-.89-.55l-.72-1.43c-.15-.3-3.69-7.45-3.69-14.05V86.36a1,1,0,0,1,2,0v2.86c0,4.34,1.73,9.09,2.74,11.53a87.93,87.93,0,0,0,.31-14.33,1,1,0,0,1,.94-1.06,1,1,0,0,1,1.06.94,84.82,84.82,0,0,1-.77,18.14,1,1,0,0,1-.84.82Z"/><path class="cls-8" d="M10.45,105.26h0a1,1,0,0,1-.95-.83A86.76,86.76,0,0,1,8.74,86.3a1,1,0,0,1,2,.13,90,90,0,0,0,.19,13.35,24.41,24.41,0,0,0,2.82-10.55c0-1.45,0-2.89,0-2.89a1,1,0,0,1,1-1h0a1,1,0,0,1,1,1s0,1.42,0,2.83a26.73,26.73,0,0,1-3.65,12.56l-.68,2.72A1,1,0,0,1,10.45,105.26Z"/><path class="cls-11" d="M10.45,105H6.87v-1.29h0l1.43-1.57,1.43-4.3h3.58v4.3A2.86,2.86,0,0,1,10.45,105Z"/><g class="cls-1"><polygon class="cls-4" points="9.73 97.82 9.02 99.97 13.31 99.97 13.31 97.82 9.73 97.82"/></g><path class="cls-11" d="M21.91,105h3.58v-1.29h0l-1.43-1.57-1.43-4.3H19v4.3A2.86,2.86,0,0,0,21.91,105Z"/><g class="cls-1"><polygon class="cls-4" points="22.62 97.82 23.34 99.97 19.04 99.97 19.04 97.82 22.62 97.82"/></g><path class="cls-8" d="M10.45,106H6.87a1,1,0,0,1-1-1v-1.29a1,1,0,0,1,.26-.67l1.29-1.42,1.37-4.1a1,1,0,0,1,.95-.68h3.58a1,1,0,0,1,1,1v4.3A3.87,3.87,0,0,1,10.45,106ZM8,104h2.49a1.87,1.87,0,0,0,1.86-1.86v-3.3H10.46l-1.2,3.61a1,1,0,0,1-.21.36Z"/><path class="cls-8" d="M25.49,106H21.91A3.87,3.87,0,0,1,18,102.11v-4.3a1,1,0,0,1,1-1h3.58a1,1,0,0,1,.95.68l1.37,4.1L26.23,103a1,1,0,0,1,.26.67V105A1,1,0,0,1,25.49,106ZM20,98.82v3.3A1.87,1.87,0,0,0,21.91,104H24.4l-1.08-1.19a1,1,0,0,1-.21-.36L21.9,98.82Z"/><path class="cls-8" d="M10.45,103.11H8.3a1,1,0,0,1,0-2h2.15a1,1,0,0,1,0,2Z"/><path class="cls-8" d="M24.05,103.11H21.91a1,1,0,0,1,0-2h2.15a1,1,0,0,1,0,2Z"/><path class="cls-3" d="M21.67,46.42h0l.6.29a11.44,11.44,0,0,1,6.24,7.88l1.94,8.87H25.26l-1.2-5c.72,2.09-.72,4.43-.63,7.26a45.75,45.75,0,0,1-14,0C9.73,62.92,7.9,62,8.55,58.5l-.82,5H2.34l1.58-8.62a11.44,11.44,0,0,1,6.35-8.27l.4-.19h0C12.6,50.56,19.76,50.56,21.67,46.42Z"/><g class="cls-1"><path class="cls-4" d="M3.92,57.6a11,11,0,0,1,6-8.27,8.85,8.85,0,0,0,12.27,0,11.76,11.76,0,0,1,6.36,8l1.35,6.16h.59L28.53,54.6a11.44,11.44,0,0,0-6.24-7.88l-.6-.29h0c-1.91,4.14-9.07,4.14-11,0h0l-.4.19a11.44,11.44,0,0,0-6.35,8.27L2.34,63.51h.5Z"/><path class="cls-4" d="M8.55,61.2v.05h0Z"/></g><path class="cls-12" d="M23.43,65.76c3.49,4.32,4.49,12.58,5.64,19.17,0,1.91-25.06,1.91-25.06,0,1-6,2.15-14.13,5.41-19.17A45.93,45.93,0,0,0,23.43,65.76Z"/><path class="cls-7" d="M7.25,63.59,6.15,74l-.61,0c-1.32,0-2.71-2.2-1.74-4.89a23.75,23.75,0,0,1-.74-5.51"/><path class="cls-8" d="M6.16,75h0l-.61,0a2.9,2.9,0,0,1-2.25-1.39,5.31,5.31,0,0,1-.5-4.52,27.14,27.14,0,0,1-.69-5.44,1,1,0,0,1,.95-1,1,1,0,0,1,1,.95,23.55,23.55,0,0,0,.69,5.26,1,1,0,0,1,0,.64,3.32,3.32,0,0,0,.17,3,1.53,1.53,0,0,0,.35.38l1-9.35a1,1,0,1,1,2,.21L7.15,74.1A1,1,0,0,1,6.16,75Z"/><path class="cls-8" d="M4.68,70.11h-.1L3.76,70A1,1,0,1,1,4,68l.82.08a1,1,0,0,1-.1,2Z"/><path class="cls-7" d="M25.92,63.59l1,10.4.61,0c1.32,0,2.81-2.2,1.83-4.89a23.75,23.75,0,0,0,.74-5.51"/><path class="cls-8" d="M26.92,75a1,1,0,0,1-1-.9l-1-10.4a1,1,0,1,1,2-.19l.9,9.35a1.68,1.68,0,0,0,.41-.43,3.34,3.34,0,0,0,.2-3,1,1,0,0,1,0-.64,23.52,23.52,0,0,0,.69-5.26,1,1,0,1,1,2,.1,27.11,27.11,0,0,1-.69,5.44,5.26,5.26,0,0,1-.53,4.47A3,3,0,0,1,27.56,75L27,75Z"/><path class="cls-8" d="M28.49,70.11a1,1,0,0,1-.1-2l.82-.08a1,1,0,1,1,.2,2l-.82.08Z"/><path class="cls-8" d="M16.54,87.36c-3.32,0-6.41-.13-8.72-.36C4.22,86.63,3,86.11,3,84.93a1,1,0,0,1,0-.16l.16-1c1-6,2.16-13.41,5.27-18.35a4.43,4.43,0,0,0-.07-1.14,1,1,0,0,1-.64.23H2.34a1,1,0,0,1-1-1.18l1.58-8.62a12.47,12.47,0,0,1,6.9-9l.4-.19.11,0A1,1,0,0,1,11,47.36l-.32.16A10.47,10.47,0,0,0,4.9,55.07L3.54,62.51H6.89l.61-3.76c0-.14,0-.29.07-.44a1,1,0,0,1,2,.34l-.07.4a6.33,6.33,0,0,0,.43,3.3,7.51,7.51,0,0,1,.51,3.52,1,1,0,0,1-.16.43c-3,4.59-4.16,11.91-5.1,17.8l-.07.44c3,1.13,19.84,1.13,22.9,0l-.33-1.93c-1-5.92-2.11-12.63-5-16.22a1,1,0,0,1-.22-.6,14.79,14.79,0,0,1,.48-3.71,8.42,8.42,0,0,0,.33-2.76l-.14-.59A1,1,0,0,1,25,58.17a4.64,4.64,0,0,1,.19.77L26,62.47h3.18l-1.67-7.66a10.38,10.38,0,0,0-5.7-7.19l-.59-.28a1,1,0,0,1-.53-1.25A1,1,0,0,1,22,45.48h0l.09,0,.6.29a12.36,12.36,0,0,1,6.79,8.57l1.94,8.87a1,1,0,0,1-1,1.21H25.26a1,1,0,0,1-.73-.31,9.43,9.43,0,0,0-.11,1.25c3.07,4,4.2,10.85,5.21,16.87.14.84.28,1.67.42,2.47a1,1,0,0,1,0,.17C30.07,85.78,30.07,87.36,16.54,87.36Z"/><path class="cls-5" d="M20.72,43.69a2.13,2.13,0,0,0,.94,2.63c-.72,1.65-3.53,2.55-5.5,3.13-2-.59-5-1.39-5.5-3a2.22,2.22,0,0,0,.92-2.74Z"/><g class="cls-1"><path class="cls-6" d="M20.72,43.69H11.59a2.6,2.6,0,0,1,0,1.86,7.06,7.06,0,0,0,9.13,0A2.58,2.58,0,0,1,20.72,43.69Z"/></g><path class="cls-8" d="M16.16,50.45c-3,0-5.81-1.64-6.45-3.73a1,1,0,0,1,.43-1.14,1.26,1.26,0,0,0,.54-1.5,1,1,0,0,1,1.84-.79,3.13,3.13,0,0,1-.6,3.37,5.57,5.57,0,0,0,4.25,1.77,5.34,5.34,0,0,0,4.19-1.93,3,3,0,0,1-.55-3.21,1,1,0,0,1,1.85.77,1.11,1.11,0,0,0,.55,1.42,1,1,0,0,1,.34,1.22A7.07,7.07,0,0,1,16.16,50.45Z"/><path class="cls-8" d="M16.87,67.31a34.1,34.1,0,0,1-7.42-.57,1,1,0,0,1,.65-1.89c1.88.64,11.65.55,12.79,0a1,1,0,0,1,.83,1.82C22.8,67.13,19.87,67.31,16.87,67.31Z"/><circle class="cls-10" cx="16.18" cy="66.31" r="2.15"/><path class="cls-8" d="M16.18,69.46a3.15,3.15,0,1,1,3.15-3.15A3.15,3.15,0,0,1,16.18,69.46Zm0-4.3a1.15,1.15,0,1,0,1.15,1.15A1.15,1.15,0,0,0,16.18,65.17Z"/><g class="cls-13"><path class="cls-8" d="M12.66,61.46A4.6,4.6,0,0,1,8,57a1,1,0,0,1,2,0,2.6,2.6,0,0,0,2.7,2.49A2.6,2.6,0,0,0,15.36,57a1,1,0,0,1,2,0A4.6,4.6,0,0,1,12.66,61.46Z"/><path class="cls-8" d="M20.06,61.46A4.6,4.6,0,0,1,15.36,57a1,1,0,0,1,2,0,2.71,2.71,0,0,0,5.4,0,1,1,0,0,1,2,0A4.6,4.6,0,0,1,20.06,61.46Z"/></g><path class="cls-12" d="M9.38,55.25a19.08,19.08,0,0,0-.82,3.25"/><path class="cls-8" d="M8.55,59.5h-.1a1,1,0,0,1-.89-1.1,19.68,19.68,0,0,1,.87-3.47,1,1,0,0,1,1.89.66,17.59,17.59,0,0,0-.77,3A1,1,0,0,1,8.55,59.5Z"/><path class="cls-12" d="M23.23,55.25a19,19,0,0,1,.82,3.25"/><path class="cls-8" d="M24.05,59.5a1,1,0,0,1-1-.92,17.4,17.4,0,0,0-.77-3,1,1,0,0,1,1.89-.65,19.21,19.21,0,0,1,.88,3.49,1,1,0,0,1-.92,1.08Z"/><path class="cls-7" d="M16.44,45.53H16a4.8,4.8,0,0,1-2.31-.59l-1.19-.65a8.18,8.18,0,0,1-4.28-7.17v-5.2c0-7.64,16-7.64,16,0v5.2a8.18,8.18,0,0,1-4.28,7.17l-1.19.65A4.8,4.8,0,0,1,16.44,45.53Z"/><g class="cls-1"><path class="cls-6" d="M19.94,42.08l-1.19.65a4.8,4.8,0,0,1-2.31.59H16a4.8,4.8,0,0,1-2.31-.59l-1.19-.65a8.18,8.18,0,0,1-4.28-7.17v2.21a8.18,8.18,0,0,0,4.28,7.17l1.19.65a4.8,4.8,0,0,0,2.31.59h.45a4.8,4.8,0,0,0,2.31-.59l1.19-.65a8.18,8.18,0,0,0,4.28-7.17V34.91A8.18,8.18,0,0,1,19.94,42.08Z"/></g><path class="cls-8" d="M16.44,46.53H16a5.82,5.82,0,0,1-2.79-.71L12,45.17a9.19,9.19,0,0,1-4.8-8v-5.2c0-4.63,4.67-6.73,9-6.73s9,2.11,9,6.73v5.2a9.19,9.19,0,0,1-4.8,8l-1.19.65A5.82,5.82,0,0,1,16.44,46.53Zm-.22-19.35c-3.37,0-7,1.48-7,4.73v5.2A7.19,7.19,0,0,0,13,43.41l1.19.65a3.81,3.81,0,0,0,1.83.47h.45a3.81,3.81,0,0,0,1.83-.47l1.19-.65a7.19,7.19,0,0,0,3.76-6.29v-5.2C23.22,28.67,19.59,27.19,16.22,27.19Z"/><path class="cls-8" d="M16.28,40.14a1.84,1.84,0,0,1-1.14-.49A1,1,0,0,1,16.29,38a1,1,0,0,1,1.19.23,1,1,0,0,1-.06,1.4A1.84,1.84,0,0,1,16.28,40.14Z"/><path class="cls-8" d="M16.2,42.78a4,4,0,0,1-2.09-.45A1,1,0,0,1,13.63,41a1,1,0,0,1,1.31-.47l.12.06a2.06,2.06,0,0,0,1.15.21c.86,0,1.06-.13,1.19-.21l1.09,1.68A3.74,3.74,0,0,1,16.2,42.78Z"/><path class="cls-8" d="M13,37.93a1.36,1.36,0,1,1,1.36-1.36A1.36,1.36,0,0,1,13,37.93Zm0-2a.64.64,0,1,0,.64.64A.64.64,0,0,0,13,35.93Z"/><path class="cls-8" d="M21.66,35.22a1,1,0,0,1-.45-.11A4.47,4.47,0,0,0,18.45,35a1,1,0,1,1-.61-1.91,6.42,6.42,0,0,1,4.26.27,1,1,0,0,1-.45,1.89Z"/><path class="cls-8" d="M10.74,35.18a1,1,0,0,1-.49-1.87,5.44,5.44,0,0,1,4.4-.15,1,1,0,0,1-.8,1.83,3.46,3.46,0,0,0-2.62.07A1,1,0,0,1,10.74,35.18Z"/><path class="cls-8" d="M19.44,37.93a1.36,1.36,0,1,1,1.36-1.36A1.36,1.36,0,0,1,19.44,37.93Zm0-2a.64.64,0,1,0,.64.64A.64.64,0,0,0,19.44,35.93Z"/><circle class="cls-8" cx="12.99" cy="36.57" r="1"/><circle class="cls-8" cx="19.44" cy="36.57" r="1"/><g class="cls-1"><circle class="cls-14" cx="20.52" cy="39.8" r="1.43"/></g><g class="cls-1"><circle class="cls-14" cx="11.92" cy="39.8" r="1.43"/></g><g class="cls-1"><path class="cls-6" d="M8.23,32.16a13.19,13.19,0,0,0,13.11-2.53c.92,3.29,2.86,2.69,2.88,2.69V30.44s-2,.83-2.94-2.47c-6,5.06-13,2.21-13,2.21Z"/></g><path class="cls-10" d="M8.18,30.15a12.78,12.78,0,0,0,13-2.36,2.53,2.53,0,0,0,2.94,2.71l.73,0C24.66,23,7.77,23,7.54,29.85Z"/><path class="cls-8" d="M12.92,32a13.66,13.66,0,0,1-5.08-.94l-.64-.28A1,1,0,0,1,8,29l.64.28a11.68,11.68,0,0,0,12-2.2,1,1,0,0,1,1.66.75,1.75,1.75,0,0,0,.45,1.36,2,2,0,0,0,1.36.36l.45,0a1,1,0,0,1,.17,2l-.41,0a3.92,3.92,0,0,1-2.88-.84,3.14,3.14,0,0,1-.79-1.08A13.21,13.21,0,0,1,12.92,32Z"/><path class="cls-8" d="M24.19,34.13a1,1,0,0,1-1-1V31.44a5.69,5.69,0,0,0-.05-.8,1,1,0,0,1,2-.28,7.73,7.73,0,0,1,.07,1.07v1.68A1,1,0,0,1,24.19,34.13Z"/><path class="cls-8" d="M8.23,33.72a1,1,0,0,1-1-1V31.44A7.81,7.81,0,0,1,7.36,30a1,1,0,1,1,2,.36,5.91,5.91,0,0,0-.09,1v1.28A1,1,0,0,1,8.23,33.72Z"/><path class="cls-9" d="M50.79,46a15.27,15.27,0,0,0,4.18-.6,4.17,4.17,0,0,0,2.87-5.33c-1.14-3.45-.23-6.24-1-9.64-1.06-4.52-5.15-7.93-10.64-7.93s-9.86,3.26-10.76,7.93c-.65,3.37.23,6.12-.85,9.51a4.2,4.2,0,0,0,2.8,5.32,14.72,14.72,0,0,0,3.95.74Z"/><g class="cls-1"><path class="cls-6" d="M55,43.3a15.27,15.27,0,0,1-4.18.6H41.31a14.72,14.72,0,0,1-3.95-.74c-1.56-.46-2.64-1.18-2.92-2.67a4.19,4.19,0,0,0,2.92,4.8,14.72,14.72,0,0,0,3.95.74h9.48a15.27,15.27,0,0,0,4.18-.6,4.16,4.16,0,0,0,3-4.8C57.67,42.14,56.56,42.88,55,43.3Z"/></g><g class="cls-1"><path class="cls-4" d="M57.18,35.19h0a20.4,20.4,0,0,0-.38-4.72c-1.06-4.52-5.15-7.93-10.64-7.93s-9.86,3.26-10.76,7.93A22.24,22.24,0,0,0,35.15,35a16.43,16.43,0,0,1,.27-2.93c.9-4.67,5.26-7.42,10.76-7.42s9.58,2.9,10.64,7.42A15.24,15.24,0,0,1,57.18,35.19Z"/></g><path class="cls-8" d="M41.9,47h0a20.09,20.09,0,0,1-4.8-.78A5.13,5.13,0,0,1,34,43.73a5.2,5.2,0,0,1-.36-4,15.27,15.27,0,0,0,.54-5,21.46,21.46,0,0,1,.29-4.38c1-5.14,5.82-8.74,11.74-8.74,5.72,0,10.39,3.5,11.61,8.7a19.78,19.78,0,0,1,.41,4.59,15.23,15.23,0,0,0,.59,5,5.2,5.2,0,0,1-.36,4.08,5.1,5.1,0,0,1-3.19,2.53,20.54,20.54,0,0,1-5.05.64,1,1,0,0,1,0-2h.22a19,19,0,0,0,4.29-.57,3.17,3.17,0,0,0,2.17-4,17.08,17.08,0,0,1-.69-5.57,17.91,17.91,0,0,0-.35-4.15c-1-4.28-4.89-7.16-9.67-7.16-4.95,0-9,2.93-9.78,7.12a19.62,19.62,0,0,0-.25,4,17.08,17.08,0,0,1-.63,5.63,3.22,3.22,0,0,0,.22,2.5,3.15,3.15,0,0,0,1.91,1.55,18.23,18.23,0,0,0,4.28.7,1,1,0,0,1,0,2Z"/><path class="cls-7" d="M47.61,86.36v2.86c0,6.44,3.58,13.6,3.58,13.6l.72,1.43a84.55,84.55,0,0,0,.76-17.9Z"/><path class="cls-7" d="M45,86.36s0,1.43,0,2.86a26,26,0,0,1-3.58,12.17l-.72,2.86a86.51,86.51,0,0,1-.72-17.9Z"/><g class="cls-1"><path class="cls-6" d="M44.75,89c0-1.37,0-2.69,0-2.69H39.73q-.08,1.27-.12,2.48C41.17,89,42.93,89,44.75,89Z"/></g><g class="cls-1"><path class="cls-6" d="M52.78,88.89q0-1.24-.12-2.53H47.61v2.7C49.42,89,51.19,89,52.78,88.89Z"/></g><path class="cls-8" d="M51.91,105.26a1,1,0,0,1-.89-.55l-.72-1.43c-.15-.3-3.69-7.45-3.69-14.05V86.36a1,1,0,0,1,2,0v2.86c0,4.34,1.73,9.09,2.74,11.53a87.93,87.93,0,0,0,.31-14.33,1,1,0,0,1,2-.12,84.82,84.82,0,0,1-.77,18.14,1,1,0,0,1-.84.82Z"/><path class="cls-8" d="M40.45,105.26h0a1,1,0,0,1-.95-.83,86.76,86.76,0,0,1-.73-18.13,1,1,0,0,1,2,.13,90,90,0,0,0,.19,13.35,24.41,24.41,0,0,0,2.82-10.55c0-1.45,0-2.89,0-2.89a1,1,0,0,1,1-1,1,1,0,0,1,1,1s0,1.42,0,2.83a26.73,26.73,0,0,1-3.65,12.56l-.68,2.72A1,1,0,0,1,40.45,105.26Z"/><path class="cls-15" d="M40.45,105H36.87v-1.29h0l1.43-1.57,1.43-4.3h3.58v4.3A2.86,2.86,0,0,1,40.45,105Z"/><g class="cls-1"><polygon class="cls-4" points="39.73 97.82 39.02 99.97 43.31 99.97 43.31 97.82 39.73 97.82"/></g><path class="cls-15" d="M51.91,105h3.58v-1.29h0l-1.43-1.57-1.43-4.3H49v4.3A2.86,2.86,0,0,0,51.91,105Z"/><g class="cls-1"><polygon class="cls-4" points="52.62 97.82 53.34 99.97 49.04 99.97 49.04 97.82 52.62 97.82"/></g><path class="cls-8" d="M40.45,106H36.87a1,1,0,0,1-1-1v-1.29a1,1,0,0,1,.26-.67l1.29-1.42,1.37-4.1a1,1,0,0,1,.95-.68h3.58a1,1,0,0,1,1,1v4.3A3.87,3.87,0,0,1,40.45,106ZM38,104h2.49a1.87,1.87,0,0,0,1.86-1.86v-3.3H40.46l-1.2,3.61a1,1,0,0,1-.21.36Z"/><path class="cls-8" d="M55.49,106H51.91A3.87,3.87,0,0,1,48,102.11v-4.3a1,1,0,0,1,1-1h3.58a1,1,0,0,1,.95.68l1.37,4.1L56.23,103a1,1,0,0,1,.26.67V105A1,1,0,0,1,55.49,106ZM50,98.82v3.3A1.87,1.87,0,0,0,51.91,104H54.4l-1.08-1.19a1,1,0,0,1-.21-.36L51.9,98.82Z"/><path class="cls-8" d="M40.45,103.11H38.3a1,1,0,1,1,0-2h2.15a1,1,0,0,1,0,2Z"/><path class="cls-8" d="M54.05,103.11H51.91a1,1,0,0,1,0-2h2.15a1,1,0,1,1,0,2Z"/><path class="cls-15" d="M51.67,46.42h0l.6.29a11.44,11.44,0,0,1,6.24,7.88l1.94,8.87H55.26l-1.2-5c.72,2.09-.72,4.43-.63,7.26a45.75,45.75,0,0,1-14,0c.32-2.84-1.52-3.72-.87-7.26l-.82,5h-5.4l1.58-8.62a11.44,11.44,0,0,1,6.35-8.27l.4-.19h0C42.6,50.56,49.76,50.56,51.67,46.42Z"/><g class="cls-1"><path class="cls-4" d="M33.92,57.6a11,11,0,0,1,6-8.27,8.85,8.85,0,0,0,12.27,0,11.76,11.76,0,0,1,6.36,8l1.35,6.16h.59L58.53,54.6a11.44,11.44,0,0,0-6.24-7.88l-.6-.29h0c-1.91,4.14-9.07,4.14-11,0h0l-.4.19a11.44,11.44,0,0,0-6.35,8.27l-1.58,8.62h.5Z"/><path class="cls-4" d="M38.55,61.2v.05h0Z"/></g><path class="cls-11" d="M53.43,65.76c3.49,4.32,4.49,12.58,5.64,19.17,0,1.91-25.06,1.91-25.06,0,1-6,2.15-14.13,5.41-19.17A45.93,45.93,0,0,0,53.43,65.76Z"/><path class="cls-7" d="M37.25,63.59,36.15,74l-.61,0c-1.32,0-2.71-2.2-1.74-4.89a23.75,23.75,0,0,1-.74-5.51"/><path class="cls-8" d="M36.16,75h0l-.61,0a2.9,2.9,0,0,1-2.25-1.39,5.31,5.31,0,0,1-.5-4.52,27.14,27.14,0,0,1-.69-5.44,1,1,0,0,1,.95-1,1,1,0,0,1,1,.95,23.55,23.55,0,0,0,.69,5.26,1,1,0,0,1,0,.64,3.32,3.32,0,0,0,.17,3,1.53,1.53,0,0,0,.35.38l1-9.35a1,1,0,1,1,2,.21l-1.1,10.4A1,1,0,0,1,36.16,75Z"/><path class="cls-8" d="M34.68,70.11h-.1L33.76,70a1,1,0,0,1-.9-1.09A1,1,0,0,1,34,68l.82.08a1,1,0,0,1-.1,2Z"/><path class="cls-7" d="M55.92,63.59l1,10.4.61,0c1.32,0,2.81-2.2,1.83-4.89a23.75,23.75,0,0,0,.74-5.51"/><path class="cls-8" d="M56.92,75a1,1,0,0,1-1-.9l-1-10.4a1,1,0,1,1,2-.19l.9,9.35a1.68,1.68,0,0,0,.41-.43,3.34,3.34,0,0,0,.2-3,1,1,0,0,1,0-.64,23.52,23.52,0,0,0,.69-5.26,1,1,0,1,1,2,.1,27.11,27.11,0,0,1-.69,5.44,5.26,5.26,0,0,1-.53,4.47A3,3,0,0,1,57.56,75L57,75Z"/><path class="cls-8" d="M58.49,70.11a1,1,0,0,1-.1-2l.82-.08a1,1,0,0,1,1.09.9,1,1,0,0,1-.9,1.09l-.82.08Z"/><path class="cls-8" d="M46.54,87.36c-3.32,0-6.41-.13-8.72-.36-3.6-.37-4.81-.89-4.81-2.07a1,1,0,0,1,0-.16l.16-1c1-6,2.16-13.41,5.27-18.35a4.43,4.43,0,0,0-.07-1.14,1,1,0,0,1-.64.23h-5.4a1,1,0,0,1-1-1.18l1.58-8.62a12.47,12.47,0,0,1,6.9-9l.4-.19.11,0A1,1,0,0,1,41,47.36l-.32.16a10.47,10.47,0,0,0-5.79,7.55l-1.36,7.44h3.35l.61-3.76c0-.14,0-.29.07-.44a1,1,0,0,1,2,.34l-.07.4a6.33,6.33,0,0,0,.43,3.3,7.51,7.51,0,0,1,.51,3.52,1,1,0,0,1-.16.43c-3,4.59-4.16,11.91-5.1,17.8l-.07.44c3,1.13,19.84,1.13,22.9,0l-.33-1.93c-1-5.92-2.11-12.63-5-16.22a1,1,0,0,1-.22-.6,14.79,14.79,0,0,1,.48-3.71,8.42,8.42,0,0,0,.33-2.76l-.14-.59A1,1,0,0,1,55,58.17a4.64,4.64,0,0,1,.19.77L56,62.47h3.18l-1.67-7.66a10.38,10.38,0,0,0-5.7-7.19l-.59-.28a1,1,0,0,1-.53-1.25A1,1,0,0,1,52,45.48h0l.09,0,.6.29a12.36,12.36,0,0,1,6.79,8.57l1.94,8.87a1,1,0,0,1-1,1.21H55.26a1,1,0,0,1-.73-.31,9.43,9.43,0,0,0-.11,1.25c3.07,4,4.2,10.85,5.21,16.87.14.84.28,1.67.42,2.47a1,1,0,0,1,0,.17C60.07,85.78,60.07,87.36,46.54,87.36Z"/><path class="cls-5" d="M50.72,43.69a2.13,2.13,0,0,0,.94,2.63c-.72,1.65-3.53,2.55-5.5,3.13-2-.59-5-1.39-5.5-3a2.22,2.22,0,0,0,.92-2.74Z"/><g class="cls-1"><path class="cls-6" d="M50.72,43.69H41.59a2.6,2.6,0,0,1,0,1.86,7.06,7.06,0,0,0,9.13,0A2.58,2.58,0,0,1,50.72,43.69Z"/></g><path class="cls-8" d="M46.16,50.45c-3,0-5.81-1.64-6.45-3.73a1,1,0,0,1,.43-1.14,1.26,1.26,0,0,0,.54-1.5,1,1,0,0,1,1.84-.79,3.13,3.13,0,0,1-.6,3.37,5.57,5.57,0,0,0,4.25,1.77,5.34,5.34,0,0,0,4.19-1.93,3,3,0,0,1-.55-3.21,1,1,0,0,1,1.85.77,1.11,1.11,0,0,0,.55,1.42,1,1,0,0,1,.34,1.22A7.07,7.07,0,0,1,46.16,50.45Z"/><path class="cls-8" d="M46.87,67.31a34.1,34.1,0,0,1-7.42-.57,1,1,0,0,1,.65-1.89c1.88.64,11.65.55,12.79,0a1,1,0,0,1,.83,1.82C52.8,67.13,49.87,67.31,46.87,67.31Z"/><circle class="cls-10" cx="46.18" cy="66.31" r="2.15"/><path class="cls-8" d="M46.18,69.46a3.15,3.15,0,1,1,3.15-3.15A3.15,3.15,0,0,1,46.18,69.46Zm0-4.3a1.15,1.15,0,1,0,1.15,1.15A1.15,1.15,0,0,0,46.18,65.17Z"/><g class="cls-13"><path class="cls-8" d="M42.66,61.46A4.6,4.6,0,0,1,38,57a1,1,0,0,1,2,0,2.71,2.71,0,0,0,5.4,0,1,1,0,0,1,2,0A4.6,4.6,0,0,1,42.66,61.46Z"/><path class="cls-8" d="M50.06,61.46A4.6,4.6,0,0,1,45.36,57a1,1,0,0,1,2,0,2.71,2.71,0,0,0,5.4,0,1,1,0,0,1,2,0A4.6,4.6,0,0,1,50.06,61.46Z"/></g><path class="cls-12" d="M39.38,55.25a19.08,19.08,0,0,0-.82,3.25"/><path class="cls-8" d="M38.55,59.5h-.1a1,1,0,0,1-.89-1.1,19.68,19.68,0,0,1,.87-3.47,1,1,0,0,1,1.89.66,17.59,17.59,0,0,0-.77,3A1,1,0,0,1,38.55,59.5Z"/><path class="cls-12" d="M53.23,55.25a19,19,0,0,1,.82,3.25"/><path class="cls-8" d="M54.05,59.5a1,1,0,0,1-1-.92,17.4,17.4,0,0,0-.77-3,1,1,0,0,1,1.89-.65,19.21,19.21,0,0,1,.88,3.49,1,1,0,0,1-.92,1.08Z"/><path class="cls-8" d="M46.75,84.18a1,1,0,0,1-.62-.22L44.67,82.8l-1.73,1.13a1,1,0,0,1-1.25-.13l-1.15-1.14-1.53,1a1,1,0,0,1-1.26-.15L36.5,82.21l-1.29.72a1,1,0,0,1-1-1.74l2-1.1a1,1,0,0,1,1.21.18l1.22,1.25,1.52-1a1,1,0,0,1,1.24.13l1.15,1.13,1.66-1.08a1,1,0,0,1,1.17.05l1.41,1.12,1.45-1.14a1,1,0,0,1,1.22,0l1.35,1L52,80.64a1,1,0,0,1,1.25-.1l1.41.95,1.13-1.22A1,1,0,0,1,57,80.09l1.87,1.12a1,1,0,1,1-1,1.72l-1.17-.7L55.5,83.47a1,1,0,0,1-1.29.15l-1.45-1L51.54,83.8a1,1,0,0,1-1.29.08l-1.41-1.06L47.37,84A1,1,0,0,1,46.75,84.18Z"/><path class="cls-8" d="M46.74,80.51a1,1,0,0,1-.62-.22l-1.38-1.1-1.64,1.07a1,1,0,0,1-1.25-.13l-1.08-1.07L39.33,80a1,1,0,0,1-1.26-.15l-1.18-1.21-1.21.68a1,1,0,0,1-1-1.74l1.88-1.06a1,1,0,0,1,1.21.18l1.15,1.18L40.37,77a1,1,0,0,1,1.24.13l1.08,1.07,1.56-1a1,1,0,0,1,1.17.05l1.32,1.05,1.37-1.07a1,1,0,0,1,1.22,0l1.27,1L51.72,77a1,1,0,0,1,1.25-.1l1.32.89,1.06-1.14a1,1,0,0,1,1.25-.18l1.79,1.07a1,1,0,1,1-1,1.72l-1.1-.66-1.09,1.18a1,1,0,0,1-1.29.15L52.52,79l-1.15,1.09a1,1,0,0,1-1.29.08l-1.33-1L47.36,80.3A1,1,0,0,1,46.74,80.51Z"/><path class="cls-7" d="M46.44,45.53H46a4.8,4.8,0,0,1-2.31-.59l-1.19-.65a8.18,8.18,0,0,1-4.28-7.17v-5.2c0-7.64,16-7.64,16,0v5.2a8.18,8.18,0,0,1-4.28,7.17l-1.19.65A4.8,4.8,0,0,1,46.44,45.53Z"/><g class="cls-1"><path class="cls-6" d="M49.94,42.08l-1.19.65a4.8,4.8,0,0,1-2.31.59H46a4.8,4.8,0,0,1-2.31-.59l-1.19-.65a8.18,8.18,0,0,1-4.28-7.17v2.21a8.18,8.18,0,0,0,4.28,7.17l1.19.65a4.8,4.8,0,0,0,2.31.59h.45a4.8,4.8,0,0,0,2.31-.59l1.19-.65a8.18,8.18,0,0,0,4.28-7.17V34.91A8.18,8.18,0,0,1,49.94,42.08Z"/></g><path class="cls-8" d="M46.44,46.53H46a5.82,5.82,0,0,1-2.79-.71L42,45.17a9.19,9.19,0,0,1-4.8-8v-5.2c0-4.63,4.67-6.73,9-6.73s9,2.11,9,6.73v5.2a9.19,9.19,0,0,1-4.8,8l-1.19.65A5.82,5.82,0,0,1,46.44,46.53Zm-.22-19.35c-3.37,0-7,1.48-7,4.73v5.2A7.19,7.19,0,0,0,43,43.41l1.19.65a3.81,3.81,0,0,0,1.83.47h.45a3.81,3.81,0,0,0,1.83-.47l1.19-.65a7.19,7.19,0,0,0,3.76-6.29v-5.2C53.22,28.67,49.59,27.19,46.22,27.19Z"/><path class="cls-8" d="M46.28,40.14a1.84,1.84,0,0,1-1.14-.49A1,1,0,0,1,46.29,38a1,1,0,0,1,1.19.23,1,1,0,0,1-.06,1.4A1.84,1.84,0,0,1,46.28,40.14Z"/><path class="cls-8" d="M46.2,42.78a4,4,0,0,1-2.09-.45A1,1,0,0,1,43.63,41a1,1,0,0,1,1.31-.47l.12.06a2.06,2.06,0,0,0,1.15.21c.86,0,1.06-.13,1.19-.21l1.09,1.68A3.74,3.74,0,0,1,46.2,42.78Z"/><path class="cls-8" d="M43,37.93a1.36,1.36,0,1,1,1.36-1.36A1.36,1.36,0,0,1,43,37.93Zm0-2a.64.64,0,1,0,.64.64A.64.64,0,0,0,43,35.93Z"/><path class="cls-8" d="M51.66,35.22a1,1,0,0,1-.45-.11A4.47,4.47,0,0,0,48.45,35a1,1,0,1,1-.61-1.91,6.42,6.42,0,0,1,4.26.27,1,1,0,0,1-.45,1.89Z"/><path class="cls-8" d="M40.74,35.18a1,1,0,0,1-.49-1.87,5.44,5.44,0,0,1,4.4-.15,1,1,0,0,1-.8,1.83,3.46,3.46,0,0,0-2.62.07A1,1,0,0,1,40.74,35.18Z"/><path class="cls-8" d="M49.44,37.93a1.36,1.36,0,1,1,1.36-1.36A1.36,1.36,0,0,1,49.44,37.93Zm0-2a.64.64,0,1,0,.64.64A.64.64,0,0,0,49.44,35.93Z"/><circle class="cls-8" cx="42.99" cy="36.57" r="1"/><circle class="cls-8" cx="49.44" cy="36.57" r="1"/><g class="cls-1"><circle class="cls-14" cx="50.52" cy="39.8" r="1.43"/></g><g class="cls-1"><circle class="cls-14" cx="41.92" cy="39.8" r="1.43"/></g><g class="cls-1"><path class="cls-6" d="M38.23,32.16a13.19,13.19,0,0,0,13.11-2.53c.92,3.29,2.86,2.69,2.88,2.69V30.44s-2,.83-2.94-2.47c-6,5.06-13,2.21-13,2.21Z"/></g><path class="cls-9" d="M38.18,30.15a12.78,12.78,0,0,0,13-2.36,2.53,2.53,0,0,0,2.94,2.71l.73,0C54.66,23,37.77,23,37.54,29.85Z"/><path class="cls-8" d="M42.92,32a13.66,13.66,0,0,1-5.08-.94l-.64-.28A1,1,0,0,1,38,29l.64.28a11.68,11.68,0,0,0,12-2.2,1,1,0,0,1,1.66.75,1.75,1.75,0,0,0,.45,1.36,2,2,0,0,0,1.36.36l.45,0a1,1,0,0,1,.17,2l-.41,0a3.92,3.92,0,0,1-2.88-.84,3.14,3.14,0,0,1-.79-1.08A13.21,13.21,0,0,1,42.92,32Z"/><path class="cls-8" d="M54.19,34.13a1,1,0,0,1-1-1V31.44a5.69,5.69,0,0,0-.05-.8,1,1,0,0,1,2-.28,7.73,7.73,0,0,1,.07,1.07v1.68A1,1,0,0,1,54.19,34.13Z"/><path class="cls-8" d="M38.23,33.72a1,1,0,0,1-1-1V31.44a7.81,7.81,0,0,1,.13-1.4,1,1,0,1,1,2,.36,5.91,5.91,0,0,0-.09,1v1.28A1,1,0,0,1,38.23,33.72Z"/><path class="cls-14" d="M37.4,79.9H21v2.87H16.26L15,72.19a7,7,0,0,1,0-1.78l.92-7.74a5,5,0,0,1,2.82-4l5-2.27c.5,1.64,2.95,3,5.5,3a6.05,6.05,0,0,0,5.46-3.13h.05l5,2.38a5,5,0,0,1,2.78,3.95l.92,7.78a7,7,0,0,1,0,1.78L42.18,82.76H37.4Z"/><g class="cls-1"><path class="cls-4" d="M15.09,72.92l.83-7a5,5,0,0,1,2.82-4l4.06-2c.84,1.56,3.83,2.78,6.39,2.78A9.34,9.34,0,0,0,35.62,60l4.11,2a5,5,0,0,1,2.78,3.95l.83,7,.09-.73a7,7,0,0,0,0-1.78l-.92-7.78a5,5,0,0,0-2.78-3.95l-5-2.38h-.05a6.05,6.05,0,0,1-5.46,3.13c-2.55,0-5-1.38-5.5-3l-5,2.27a5,5,0,0,0-2.82,4L15,70.41a7,7,0,0,0,0,1.78Z"/></g><polygon class="cls-4" points="20.17 82.76 16.22 82.76 15.85 79.18 20.17 79.18 20.17 82.76"/><polygon class="cls-4" points="38.32 82.76 42.27 82.88 42.66 79.18 38.32 79.18 38.32 82.76"/><path class="cls-7" d="M16.22,83h4a0,0,0,0,1,0,0v5.6a0,0,0,0,1,0,0h-.64a3.36,3.36,0,0,1-3.36-3.36V83A0,0,0,0,1,16.22,83Z"/><path class="cls-8" d="M20.22,89.6h-.64a4.37,4.37,0,0,1-4.36-4.36V83a1,1,0,0,1,1-1h4a1,1,0,0,1,1,1v5.6A1,1,0,0,1,20.22,89.6Zm-3-5.6v1.24a2.37,2.37,0,0,0,2,2.33V84Z"/><path class="cls-7" d="M41.58,83h.64a0,0,0,0,1,0,0v5.6a0,0,0,0,1,0,0h-4a0,0,0,0,1,0,0V86.36A3.36,3.36,0,0,1,41.58,83Z" transform="translate(80.44 171.6) rotate(180)"/><path class="cls-8" d="M38.86,89.6h-.64a1,1,0,0,1-1-1V83a1,1,0,0,1,1-1h4a1,1,0,0,1,1,1v2.24A4.37,4.37,0,0,1,38.86,89.6Zm.36-5.6v3.57a2.37,2.37,0,0,0,2-2.33V84Z"/><path class="cls-8" d="M38.22,80.9a1,1,0,0,1-1-1V67.41a2.4,2.4,0,0,0-.71-1.71,1,1,0,0,1,1.42-1.41,4.39,4.39,0,0,1,1.29,3.12V79.9A1,1,0,0,1,38.22,80.9Z"/><path class="cls-8" d="M20.22,80.9a1,1,0,0,1-1-1V67.41a4.38,4.38,0,0,1,1.29-3.12,1,1,0,0,1,1.41,1.41,2.4,2.4,0,0,0-.71,1.71V79.9A1,1,0,0,1,20.22,80.9Z"/><path class="cls-8" d="M42.18,84H37.4a1,1,0,0,1,0-2h3.88l1.15-9.93a6,6,0,0,0,0-1.53l-.92-7.79a4,4,0,0,0-2.21-3.16l-5-2.38a1,1,0,0,1,.86-1.81l5,2.38a6,6,0,0,1,3.34,4.73l.92,7.78a8,8,0,0,1,0,2l-1.25,10.8A1,1,0,0,1,42.18,84Z"/><path class="cls-8" d="M21,84H16.26a1,1,0,0,1-1-.88L14,72.3a8,8,0,0,1,0-2l.92-7.74a6,6,0,0,1,3.4-4.77l5-2.27.1,0a1,1,0,0,1,.67,1.88h0L19.17,59.6a4,4,0,0,0-2.25,3.18L16,70.53a6,6,0,0,0,0,1.53L17.15,82H21a1,1,0,0,1,0,2Z"/><polygon class="cls-10" points="20.22 114 27.22 114 27.22 87 31.22 87 31.22 114 38.22 114 38.22 79.9 20.22 79.9 20.22 114"/><path class="cls-8" d="M38.22,115h-7a1,1,0,0,1-1-1V88h-2v26a1,1,0,0,1-1,1h-7a1,1,0,0,1-1-1V79.9a1,1,0,0,1,1-1h18a1,1,0,0,1,1,1V114A1,1,0,0,1,38.22,115Zm-6-2h5V80.9h-16V113h5V87a1,1,0,0,1,1-1h4a1,1,0,0,1,1,1Z"/><path class="cls-8" d="M20.22,85.7A1,1,0,0,1,19.51,84l4.83-4.8a1,1,0,0,1,1.41,1.42l-4.83,4.8A1,1,0,0,1,20.22,85.7Z"/><path class="cls-8" d="M38.14,85.4a1,1,0,0,1-.71-.29l-4.5-4.5a1,1,0,0,1,1.41-1.41l4.5,4.5a1,1,0,0,1-.71,1.71Z"/><path class="cls-8" d="M42.22,80h-4a1,1,0,0,1,0-2h4a1,1,0,0,1,0,2Z"/><path class="cls-8" d="M20.22,80H16.45a1,1,0,1,1,0-2h3.77a1,1,0,0,1,0,2Z"/><path class="cls-8" d="M15.06,72.3a1,1,0,0,1-.34-1.94l1.72-.61a1,1,0,1,1,.67,1.88l-1.72.61A1,1,0,0,1,15.06,72.3Z"/><path class="cls-8" d="M43.37,72.3a1,1,0,0,1-.33-.06l-1.63-.57a1,1,0,0,1,.66-1.89l1.63.57a1,1,0,0,1-.33,1.94Z"/><polygon class="cls-16" points="35.72 58.87 22.77 58.87 22.83 54.42 35.64 54.42 35.72 58.87"/><path class="cls-8" d="M35.72,59.87h-13a1,1,0,0,1-1-1l.06-4.45a1,1,0,0,1,1-1H35.64a1,1,0,0,1,1,1l.08,4.45a1,1,0,0,1-1,1Zm-11.94-2H34.7l0-2.45H23.82Z"/><path class="cls-5" d="M33.94,53.84a2.13,2.13,0,0,0,1,2.65c-.75,1.62-3.64,2.43-5.67,3-2-.57-5.15-1.4-5.67-3a2.09,2.09,0,0,0,1-2.65Z"/><g class="cls-1"><polygon class="cls-17" points="32.88 58.92 30.2 58.92 29.24 59.5 28.25 58.92 25.6 58.92 25.6 61.35 32.88 61.35 32.88 58.92"/></g><g class="cls-1"><path class="cls-6" d="M33.94,53.84H24.53a1.34,1.34,0,0,1,0,1.33l.58.49a4.85,4.85,0,0,0,3.11,1.08h2a4.85,4.85,0,0,0,3.11-1.08l.59-.5A1.33,1.33,0,0,1,33.94,53.84Z"/></g><path class="cls-8" d="M29.24,60.5a1,1,0,0,1-.47-.12l-5.67-3a1,1,0,0,1,0-1.74c.09-.06.92-.58.55-1.38a1,1,0,0,1,1.82-.82,2.87,2.87,0,0,1-.2,2.81l4,2.12,4-2.13A2.84,2.84,0,0,1,33,53.44a1,1,0,1,1,1.83.8c-.31.71.32,1.23.6,1.42a1,1,0,0,1-.08,1.72l-5.67,3A1,1,0,0,1,29.24,60.5Z"/><path class="cls-18" d="M24.41,60.76l-3.67-3.06,2-3.24,4.86,4-1.2,1.93A1.35,1.35,0,0,1,24.41,60.76Z"/><path class="cls-18" d="M34.07,60.76l3.67-3.06-2-3.24-4.86,4,1.2,1.93A1.35,1.35,0,0,0,34.07,60.76Z"/><g class="cls-1"><polygon class="cls-4" points="22.77 56.09 26.96 59.58 27.62 58.52 22.77 54.47 20.74 57.71 21.41 58.26 22.77 56.09"/></g><g class="cls-1"><polygon class="cls-4" points="35.7 56.09 37.06 58.26 37.73 57.71 35.7 54.47 30.84 58.52 31.51 59.58 35.7 56.09"/></g><path class="cls-8" d="M25.27,62.08a2.35,2.35,0,0,1-1.5-.54L20.1,58.48a1,1,0,0,1-.21-1.3l2-3.24a1,1,0,0,1,1.49-.24l4.86,4a1,1,0,0,1,.21,1.3L27.27,61A2.35,2.35,0,0,1,25.65,62ZM22.05,57.5,25,60h0a.35.35,0,0,0,.52-.08l.74-1.19L23,56Z"/><path class="cls-8" d="M33.19,62.08l-.37,0A2.35,2.35,0,0,1,31.2,61L30,59a1,1,0,0,1,.21-1.3l4.86-4a1,1,0,0,1,1.49.24l2,3.24a1,1,0,0,1-.21,1.3L34.7,61.53A2.35,2.35,0,0,1,33.19,62.08Zm-1-3.35.74,1.19a.35.35,0,0,0,.24.16.34.34,0,0,0,.28-.08h0l3-2.5-1-1.53Z"/><polygon class="cls-19" points="26.64 60.5 28.4 63.13 30.08 63.13 31.82 60.47 30.92 58.92 27.56 58.92 26.64 60.5"/><polygon class="cls-19" points="32.04 72.67 30.08 63.13 28.4 63.13 26.44 72.67 29.23 75.47 32.04 72.67"/><path class="cls-8" d="M29.23,76.47a1,1,0,0,1-.71-.29l-2.79-2.79a1,1,0,0,1-.27-.91l2-9.54a1,1,0,0,1,1-.8h1.68a1,1,0,0,1,1,.8l2,9.54a1,1,0,0,1-.28.91l-2.82,2.79A1,1,0,0,1,29.23,76.47Zm-1.7-4.12,1.7,1.71L31,72.35l-1.74-8.21Z"/><path class="cls-8" d="M30.08,64.13H28.4a1,1,0,0,1-.83-.44L25.8,61.06a1,1,0,0,1,0-1.06l.92-1.58a1,1,0,0,1,.86-.49h3.36a1,1,0,0,1,.87.5L32.68,60a1,1,0,0,1,0,1l-1.73,2.66A1,1,0,0,1,30.08,64.13Zm-1.15-2h.61l1.1-1.69-.3-.52H28.13l-.32.54Z"/><path class="cls-9" d="M22.92,109.91h.6a3.7,3.7,0,0,1,3.7,3.7V115a0,0,0,0,1,0,0H19.89a.67.67,0,0,1-.67-.67v-.72A3.7,3.7,0,0,1,22.92,109.91Z"/><path class="cls-8" d="M27.22,116H19.89a1.67,1.67,0,0,1-1.67-1.67v-.72a4.7,4.7,0,0,1,4.7-4.7h.6a4.7,4.7,0,0,1,4.7,4.7V115A1,1,0,0,1,27.22,116Zm-7-2h6v-.39a2.7,2.7,0,0,0-2.7-2.7h-.6a2.7,2.7,0,0,0-2.7,2.7Z"/><path class="cls-9" d="M34.92,109.91h.6a3.7,3.7,0,0,1,3.7,3.7v.72a.67.67,0,0,1-.67.67H31.22a0,0,0,0,1,0,0v-1.39a3.7,3.7,0,0,1,3.7-3.7Z"/><path class="cls-8" d="M38.55,116H31.22a1,1,0,0,1-1-1v-1.39a4.7,4.7,0,0,1,4.7-4.7h.6a4.7,4.7,0,0,1,4.7,4.7v.72A1.67,1.67,0,0,1,38.55,116Zm-6.33-2h6v-.39a2.7,2.7,0,0,0-2.7-2.7h-.6a2.7,2.7,0,0,0-2.7,2.7Z"/><path class="cls-7" d="M30.32,55H28.11a4.3,4.3,0,0,1-3-1.24l-2.61-2.59a4.22,4.22,0,0,1-1.25-3V40.83c0-6.18,16-6.18,16,0v7.34a4.22,4.22,0,0,1-1.25,3l-2.61,2.59A4.3,4.3,0,0,1,30.32,55Z"/><g class="cls-1"><path class="cls-6" d="M33.35,51a4.3,4.3,0,0,1-3,1.24H28.11a4.3,4.3,0,0,1-3-1.24l-2.61-2.59a4.22,4.22,0,0,1-1.25-3v2.8a4.22,4.22,0,0,0,1.25,3l2.61,2.59a4.3,4.3,0,0,0,3,1.24h2.21a4.3,4.3,0,0,0,3-1.24L36,51.17a4.22,4.22,0,0,0,1.25-3v-2.8a4.22,4.22,0,0,1-1.25,3Z"/></g><g class="cls-1"><path class="cls-6" d="M37.12,43.69V40.51c0-5.75-15.85-5.75-15.85,0v2.91c.72-.84,1.88-1.49,2.27-2.66,4.5,2.1,9,.24,12,.78A2.35,2.35,0,0,1,37.12,43.69Z"/></g><path class="cls-8" d="M30.32,56H28.11a5.27,5.27,0,0,1-3.73-1.53l-2.61-2.59a5.26,5.26,0,0,1-1.55-3.71V40.83c0-3.87,4.67-5.63,9-5.63s9,1.76,9,5.63v7.34a5.18,5.18,0,0,1-1.55,3.71l-2.61,2.59A5.34,5.34,0,0,1,30.32,56Zm-1.1-18.8c-3.48,0-7,1.25-7,3.63v7.34a3.2,3.2,0,0,0,1,2.29L25.79,53a3.28,3.28,0,0,0,2.32,1h2.21a3.32,3.32,0,0,0,2.32-1l2.61-2.59a3.19,3.19,0,0,0,1-2.29V40.83a3,3,0,0,0-2-2.59A11.47,11.47,0,0,0,29.22,37.2Z"/><path class="cls-9" d="M34.4,34c2.3,1.06,4.26,2.25,4.26,5.52a11.38,11.38,0,0,1-.25,2.28c-.15.71-1.18.39-1.18.39s0-1.91-1.4-2.45c-3.52-1.41-9.25,1.07-13.13-1.56A3.56,3.56,0,0,1,21.52,41s-1.36,0-1.45-.78c-.39-3.51,1.06-5.07,2.62-4.68C26.6,31.62,33,33.32,34.4,34Z"/><g class="cls-1"><path class="cls-4" d="M22.69,37.45c3.9-3.9,10.32-2.2,11.7-1.56,2.07,1,4,1.57,4.26,4.15.3-3.7-1.83-5-4.26-6.08-1.38-.64-7.8-2.34-11.7,1.56-1.48-.37-2.89,1-2.66,4.18C20.21,37.6,21.47,37.14,22.69,37.45Z"/></g><path class="cls-8" d="M37.71,43.22a2.75,2.75,0,0,1-.78-.12,1,1,0,0,1-.7-.89,2.3,2.3,0,0,0-.9-1.65c-1-.56-2.68-.44-4.46-.31-2.3.17-4.9.36-7.37-.67a5.17,5.17,0,0,1-1.19,2,1.18,1.18,0,0,1-.79.38c-1.12,0-2.31-.52-2.44-1.67-.26-2.35.21-4.18,1.33-5.16a2.74,2.74,0,0,1,1.94-.69C26.57,30.68,32.72,32.13,34.8,33s4.76,2.57,4.86,6.41A11,11,0,0,1,39.39,42a1.52,1.52,0,0,1-.72,1A1.86,1.86,0,0,1,37.71,43.22Zm-4.64-5.08a6.47,6.47,0,0,1,3.25.68,3.51,3.51,0,0,1,1.32,1.35,6.07,6.07,0,0,0,0-.68C37.59,37,36.15,35.81,34,34.87h0c-1.67-.73-7.19-2.05-10.6,1.35a1,1,0,0,1-.95.26.75.75,0,0,0-.72.17c-.45.39-.85,1.44-.68,3.25l.05,0a2.36,2.36,0,0,0,.53-1.1,1.65,1.65,0,0,1,.88-1.17,1.66,1.66,0,0,1,1.48,0c2.1,1,4.46.82,6.74.65C31.53,38.21,32.32,38.15,33.07,38.15Z"/><path class="cls-8" d="M29.41,49.26a1.83,1.83,0,0,1-1.14-.49,1,1,0,0,1,1.14-1.63,1,1,0,0,1,1.19.23,1,1,0,0,1-.06,1.4A1.83,1.83,0,0,1,29.41,49.26Z"/><path class="cls-8" d="M29.33,52a3.59,3.59,0,0,1-2.09-.53,1,1,0,0,1-.48-1.36,1,1,0,0,1,1.31-.47l.21.12a1.69,1.69,0,0,0,1,.24,1.91,1.91,0,0,0,1.1-.23,1,1,0,0,1,1.29,1.53A3.58,3.58,0,0,1,29.33,52Z"/><path class="cls-8" d="M34.79,45.08a1,1,0,0,1-.45-.11,5.16,5.16,0,0,0-1.71,0c-.45,0-.92.09-1.36.09a1,1,0,0,1,0-2c.36,0,.76,0,1.16-.08a5.3,5.3,0,0,1,2.8.19,1,1,0,0,1-.45,1.89Z"/><path class="cls-8" d="M25.41,47.23a1.36,1.36,0,1,1,1.36-1.36A1.36,1.36,0,0,1,25.41,47.23Zm0-2a.64.64,0,1,0,.64.64A.64.64,0,0,0,25.41,45.23Z"/><path class="cls-8" d="M27.38,45.08a11.59,11.59,0,0,1-1.55-.14,4.62,4.62,0,0,0-1.52-.07,1,1,0,1,1-.89-1.79A4.71,4.71,0,0,1,26.1,43a10.05,10.05,0,0,0,1.28.12,1,1,0,0,1,0,2Z"/><path class="cls-8" d="M33.29,47.23a1.36,1.36,0,1,1,1.36-1.36A1.36,1.36,0,0,1,33.29,47.23Zm0-2a.64.64,0,1,0,.64.64A.64.64,0,0,0,33.29,45.23Z"/><circle class="cls-8" cx="25.41" cy="45.87" r="1"/><circle class="cls-8" cx="33.29" cy="45.87" r="1"/><path class="cls-18" d="M120.4,69.9H104v2.87H99.26L98,62.19a7,7,0,0,1,0-1.78l.92-7.74a5,5,0,0,1,2.82-4l5-2.27c.5,1.64,2.95,3,5.5,3a6.05,6.05,0,0,0,5.46-3.13h.05l5,2.38a5,5,0,0,1,2.78,3.95l.92,7.78a7,7,0,0,1,0,1.78l-1.26,10.57H120.4Z"/><path class="cls-4" d="M98.09,62.92l.83-7a5,5,0,0,1,2.82-4l4.06-2c.84,1.56,3.83,2.78,6.39,2.78A9.34,9.34,0,0,0,118.62,50l4.11,2a5,5,0,0,1,2.78,3.95l.83,7,.09-.73a7,7,0,0,0,0-1.78l-.92-7.78a5,5,0,0,0-2.78-3.95l-5-2.38h-.05a6.05,6.05,0,0,1-5.46,3.13c-2.55,0-5-1.38-5.5-3l-5,2.27a5,5,0,0,0-2.82,4L98,60.41a7,7,0,0,0,0,1.78Z"/><polygon class="cls-4" points="103.17 72.76 99.22 72.76 98.85 69.18 103.17 69.18 103.17 72.76"/><polygon class="cls-4" points="121.32 72.76 125.27 72.88 125.66 69.18 121.32 69.18 121.32 72.76"/><path class="cls-7" d="M99.22,73h4a0,0,0,0,1,0,0v5.6a0,0,0,0,1,0,0h-.64a3.36,3.36,0,0,1-3.36-3.36V73A0,0,0,0,1,99.22,73Z"/><path class="cls-8" d="M103.22,79.6h-.64a4.37,4.37,0,0,1-4.36-4.36V73a1,1,0,0,1,1-1h4a1,1,0,0,1,1,1v5.6A1,1,0,0,1,103.22,79.6Zm-3-5.6v1.24a2.37,2.37,0,0,0,2,2.33V74Z"/><path class="cls-7" d="M124.58,73h.64a0,0,0,0,1,0,0v5.6a0,0,0,0,1,0,0h-4a0,0,0,0,1,0,0V76.36A3.36,3.36,0,0,1,124.58,73Z" transform="translate(246.44 151.6) rotate(180)"/><path class="cls-8" d="M121.86,79.6h-.64a1,1,0,0,1-1-1V73a1,1,0,0,1,1-1h4a1,1,0,0,1,1,1v2.24A4.37,4.37,0,0,1,121.86,79.6Zm.36-5.6v3.57a2.37,2.37,0,0,0,2-2.33V74Z"/><path class="cls-8" d="M121.22,70.9a1,1,0,0,1-1-1V57.41a2.43,2.43,0,0,0-.71-1.71,1,1,0,1,1,1.41-1.41,4.44,4.44,0,0,1,1.29,3.12V69.9A1,1,0,0,1,121.22,70.9Z"/><path class="cls-8" d="M103.22,70.9a1,1,0,0,1-1-1V57.41a4.38,4.38,0,0,1,1.29-3.12,1,1,0,0,1,1.41,1.42,2.39,2.39,0,0,0-.71,1.71V69.9A1,1,0,0,1,103.22,70.9Z"/><path class="cls-8" d="M125.18,74H120.4a1,1,0,0,1,0-2h3.88l1.15-9.93a6,6,0,0,0,0-1.53l-.92-7.79a4,4,0,0,0-2.21-3.16l-5-2.38a1,1,0,0,1,.86-1.81l5,2.38a6,6,0,0,1,3.34,4.73l.92,7.78a8,8,0,0,1,0,2l-1.25,10.8A1,1,0,0,1,125.18,74Z"/><path class="cls-8" d="M104,74H99.26a1,1,0,0,1-1-.88L97,62.31a8,8,0,0,1,0-2l.92-7.74a6,6,0,0,1,3.4-4.77l5-2.27.1,0a1,1,0,0,1,.67,1.88h0l-4.87,2.24a4,4,0,0,0-2.25,3.18L99,60.53a6,6,0,0,0,0,1.53L100.15,72H104a1,1,0,0,1,0,2Z"/><polygon class="cls-19" points="103.22 104 110.22 104 110.22 77 114.22 77 114.22 104 121.22 104 121.22 69.9 103.22 69.9 103.22 104"/><path class="cls-8" d="M121.22,105h-7a1,1,0,0,1-1-1V78h-2v26a1,1,0,0,1-1,1h-7a1,1,0,0,1-1-1V69.9a1,1,0,0,1,1-1h18a1,1,0,0,1,1,1V104A1,1,0,0,1,121.22,105Zm-6-2h5V70.9h-16V103h5V77a1,1,0,0,1,1-1h4a1,1,0,0,1,1,1Z"/><path class="cls-8" d="M103.22,75.7a1,1,0,0,1-.71-1.71l4.83-4.8a1,1,0,0,1,1.41,1.42l-4.83,4.8A1,1,0,0,1,103.22,75.7Z"/><path class="cls-8" d="M121.14,75.4a1,1,0,0,1-.71-.29l-4.5-4.5a1,1,0,0,1,1.41-1.41l4.5,4.5a1,1,0,0,1-.71,1.71Z"/><path class="cls-8" d="M125.22,70h-4a1,1,0,0,1,0-2h4a1,1,0,0,1,0,2Z"/><path class="cls-8" d="M103.22,70H99.45a1,1,0,0,1,0-2h3.77a1,1,0,0,1,0,2Z"/><path class="cls-8" d="M98.06,62.3a1,1,0,0,1-.34-1.94l1.72-.61a1,1,0,0,1,.67,1.88l-1.72.61A1,1,0,0,1,98.06,62.3Z"/><path class="cls-8" d="M126.37,62.3a1,1,0,0,1-.33-.06l-1.63-.57a1,1,0,1,1,.66-1.89l1.63.57a1,1,0,0,1-.33,1.94Z"/><polygon class="cls-16" points="118.72 48.87 105.77 48.87 105.83 44.42 118.64 44.42 118.72 48.87"/><path class="cls-8" d="M118.72,49.87h-13a1,1,0,0,1-1-1l.06-4.45a1,1,0,0,1,1-1h12.81a1,1,0,0,1,1,1l.08,4.45a1,1,0,0,1-1,1Zm-11.94-2H117.7l0-2.45H106.82Z"/><path class="cls-5" d="M116.94,43.84a2.13,2.13,0,0,0,1,2.65c-.75,1.62-3.64,2.43-5.67,3-2-.57-5.15-1.4-5.67-3a2.09,2.09,0,0,0,1-2.65Z"/><g class="cls-1"><polygon class="cls-17" points="115.89 48.92 113.2 48.92 112.24 49.5 111.25 48.92 108.6 48.92 108.6 51.35 115.89 51.35 115.89 48.92"/></g><g class="cls-1"><path class="cls-6" d="M116.94,43.84h-9.42a1.34,1.34,0,0,1,0,1.33l.58.49a4.85,4.85,0,0,0,3.11,1.08h2a4.85,4.85,0,0,0,3.11-1.08l.59-.5A1.33,1.33,0,0,1,116.94,43.84Z"/></g><path class="cls-8" d="M112.24,50.5a1,1,0,0,1-.47-.12l-5.67-3a1,1,0,0,1,0-1.74c.09-.06.92-.58.55-1.38a1,1,0,0,1,1.82-.82,2.87,2.87,0,0,1-.2,2.81l4,2.12,4-2.13a2.84,2.84,0,0,1-.23-2.79,1,1,0,1,1,1.83.8c-.31.71.32,1.23.6,1.42a1,1,0,0,1-.08,1.72l-5.67,3A1,1,0,0,1,112.24,50.5Z"/><path class="cls-18" d="M107.41,50.76l-3.67-3.06,2-3.24,4.86,4-1.2,1.93A1.35,1.35,0,0,1,107.41,50.76Z"/><path class="cls-18" d="M117.07,50.76l3.67-3.06-2-3.24-4.86,4,1.2,1.93A1.35,1.35,0,0,0,117.07,50.76Z"/><g class="cls-1"><polygon class="cls-4" points="105.77 46.09 109.96 49.58 110.62 48.52 105.77 44.47 103.74 47.71 104.41 48.26 105.77 46.09"/></g><g class="cls-1"><polygon class="cls-4" points="118.7 46.09 120.06 48.26 120.73 47.71 118.7 44.47 113.84 48.52 114.51 49.58 118.7 46.09"/></g><path class="cls-8" d="M108.27,52.08a2.35,2.35,0,0,1-1.5-.54l-3.67-3.06a1,1,0,0,1-.21-1.3l2-3.24a1,1,0,0,1,1.49-.24l4.86,4a1,1,0,0,1,.21,1.3L110.27,51A2.35,2.35,0,0,1,108.65,52Zm-3.22-4.58,3,2.5h0a.35.35,0,0,0,.52-.08l.74-1.19L106,46Z"/><path class="cls-8" d="M116.19,52.08l-.37,0A2.35,2.35,0,0,1,114.2,51L113,49a1,1,0,0,1,.21-1.3l4.86-4a1,1,0,0,1,1.49.24l2,3.24a1,1,0,0,1-.21,1.3l-3.67,3.06A2.35,2.35,0,0,1,116.19,52.08Zm-1-3.35.74,1.19a.35.35,0,0,0,.24.16.34.34,0,0,0,.28-.08h0l3-2.5-1-1.53Z"/><polygon class="cls-19" points="109.64 50.5 111.4 53.13 113.08 53.13 114.82 50.47 113.92 48.92 110.56 48.92 109.64 50.5"/><polygon class="cls-19" points="115.04 62.67 113.08 53.13 111.4 53.13 109.44 62.67 112.23 65.47 115.04 62.67"/><path class="cls-8" d="M112.23,66.47a1,1,0,0,1-.71-.29l-2.79-2.79a1,1,0,0,1-.27-.91l2-9.54a1,1,0,0,1,1-.8h1.68a1,1,0,0,1,1,.8l2,9.54a1,1,0,0,1-.28.91l-2.82,2.79A1,1,0,0,1,112.23,66.47Zm-1.7-4.12,1.7,1.71L114,62.35l-1.74-8.22Z"/><path class="cls-8" d="M113.08,54.13H111.4a1,1,0,0,1-.83-.44l-1.77-2.63a1,1,0,0,1,0-1.06l.92-1.58a1,1,0,0,1,.86-.49h3.36a1,1,0,0,1,.87.5l.89,1.55a1,1,0,0,1,0,1l-1.73,2.66A1,1,0,0,1,113.08,54.13Zm-1.15-2h.61l1.1-1.69-.3-.52h-2.21l-.32.54Z"/><path class="cls-9" d="M105.92,99.91h.6a3.7,3.7,0,0,1,3.7,3.7V105a0,0,0,0,1,0,0h-7.33a.67.67,0,0,1-.67-.67v-.72A3.7,3.7,0,0,1,105.92,99.91Z"/><path class="cls-8" d="M110.22,106h-7.33a1.67,1.67,0,0,1-1.67-1.67v-.72a4.7,4.7,0,0,1,4.7-4.7h.6a4.7,4.7,0,0,1,4.7,4.7V105A1,1,0,0,1,110.22,106Zm-7-2h6v-.39a2.7,2.7,0,0,0-2.7-2.7h-.6a2.7,2.7,0,0,0-2.7,2.7Z"/><path class="cls-9" d="M117.92,99.91h.6a3.7,3.7,0,0,1,3.7,3.7v.72a.67.67,0,0,1-.67.67h-7.33a0,0,0,0,1,0,0v-1.39a3.7,3.7,0,0,1,3.7-3.7Z"/><path class="cls-8" d="M121.55,106h-7.33a1,1,0,0,1-1-1v-1.39a4.7,4.7,0,0,1,4.7-4.7h.6a4.7,4.7,0,0,1,4.7,4.7v.72A1.67,1.67,0,0,1,121.55,106Zm-6.33-2h6v-.39a2.7,2.7,0,0,0-2.7-2.7h-.6a2.7,2.7,0,0,0-2.7,2.7Z"/><path class="cls-7" d="M113.32,45h-2.21a4.3,4.3,0,0,1-3-1.24l-2.61-2.59a4.22,4.22,0,0,1-1.25-3V30.83c0-6.18,16-6.18,16,0v7.34a4.22,4.22,0,0,1-1.25,3l-2.61,2.59A4.3,4.3,0,0,1,113.32,45Z"/><g class="cls-1"><path class="cls-6" d="M116.35,41a4.3,4.3,0,0,1-3,1.24h-2.21a4.3,4.3,0,0,1-3-1.24l-2.61-2.59a4.22,4.22,0,0,1-1.25-3v2.8a4.22,4.22,0,0,0,1.25,3l2.61,2.59a4.3,4.3,0,0,0,3,1.24h2.21a4.3,4.3,0,0,0,3-1.24L119,41.17a4.22,4.22,0,0,0,1.25-3v-2.8a4.22,4.22,0,0,1-1.25,3Z"/></g><g class="cls-1"><path class="cls-6" d="M120.12,33.69V30.51c0-5.75-15.85-5.75-15.85,0v2.91c.72-.84,1.88-1.49,2.27-2.66,4.5,2.1,9,.24,12,.78A2.35,2.35,0,0,1,120.12,33.69Z"/></g><path class="cls-8" d="M113.32,46h-2.21a5.27,5.27,0,0,1-3.73-1.53l-2.61-2.59a5.26,5.26,0,0,1-1.55-3.71V30.83c0-3.87,4.67-5.63,9-5.63s9,1.76,9,5.63v7.34a5.18,5.18,0,0,1-1.55,3.71l-2.61,2.59A5.34,5.34,0,0,1,113.32,46Zm-1.1-18.8c-3.48,0-7,1.25-7,3.63v7.34a3.2,3.2,0,0,0,1,2.29L108.79,43a3.28,3.28,0,0,0,2.32,1h2.21a3.32,3.32,0,0,0,2.32-1l2.61-2.59a3.19,3.19,0,0,0,1-2.29V30.83a3,3,0,0,0-2-2.59A11.47,11.47,0,0,0,112.22,27.2Z"/><path class="cls-20" d="M117.4,24c2.3,1.06,4.26,2.25,4.26,5.52a11.38,11.38,0,0,1-.25,2.28c-.15.71-1.18.39-1.18.39s0-1.91-1.4-2.45c-3.52-1.41-9.25,1.07-13.13-1.56A3.56,3.56,0,0,1,104.52,31s-1.36,0-1.45-.78c-.39-3.51,1.06-5.07,2.62-4.68C109.6,21.62,116,23.32,117.4,24Z"/><g class="cls-1"><path class="cls-4" d="M105.69,27.45c3.9-3.9,10.32-2.2,11.7-1.56,2.07,1,4,1.57,4.26,4.15.3-3.7-1.83-5-4.26-6.08-1.38-.64-7.8-2.34-11.7,1.56-1.48-.37-2.89,1-2.66,4.18C103.21,27.6,104.47,27.14,105.69,27.45Z"/></g><path class="cls-8" d="M120.71,33.22a2.75,2.75,0,0,1-.78-.12,1,1,0,0,1-.7-.89,2.3,2.3,0,0,0-.9-1.65c-1-.56-2.68-.44-4.46-.31-2.3.17-4.9.36-7.37-.67a5.17,5.17,0,0,1-1.19,2,1.07,1.07,0,0,1-.79.38h0c-1.12,0-2.31-.52-2.44-1.67-.26-2.35.21-4.18,1.33-5.16a2.74,2.74,0,0,1,1.94-.69c4.21-3.78,10.37-2.33,12.44-1.42s4.76,2.57,4.86,6.41a11,11,0,0,1-.27,2.51,1.52,1.52,0,0,1-.72,1A1.86,1.86,0,0,1,120.71,33.22Zm-4.64-5.08a6.47,6.47,0,0,1,3.25.68,3.51,3.51,0,0,1,1.32,1.35,6.07,6.07,0,0,0,0-.68c-.07-2.54-1.51-3.69-3.66-4.63h0c-1.67-.73-7.19-2.05-10.6,1.35a1,1,0,0,1-.95.26.74.74,0,0,0-.72.17c-.45.39-.85,1.44-.68,3.25l.05,0a2.36,2.36,0,0,0,.53-1.1,1.65,1.65,0,0,1,.88-1.17,1.67,1.67,0,0,1,1.48,0c2.1,1,4.46.81,6.74.65C114.53,28.21,115.32,28.15,116.07,28.15Z"/><path class="cls-8" d="M112.41,39.26a1.83,1.83,0,0,1-1.14-.49,1,1,0,0,1,1.14-1.63,1,1,0,0,1,1.19.23,1,1,0,0,1-.06,1.4A1.83,1.83,0,0,1,112.41,39.26Z"/><path class="cls-8" d="M112.33,42a3.59,3.59,0,0,1-2.09-.53,1,1,0,0,1-.48-1.36,1,1,0,0,1,1.31-.47l.21.12a1.69,1.69,0,0,0,1,.24,1.91,1.91,0,0,0,1.1-.23,1,1,0,0,1,1.29,1.53A3.58,3.58,0,0,1,112.33,42Z"/><path class="cls-8" d="M117.79,35.08a1,1,0,0,1-.45-.11,5.19,5.19,0,0,0-1.71,0c-.45,0-.92.09-1.36.09a1,1,0,0,1,0-2c.36,0,.76,0,1.16-.08a5.31,5.31,0,0,1,2.8.19,1,1,0,0,1-.45,1.89Z"/><path class="cls-8" d="M108.41,37.23a1.36,1.36,0,1,1,1.36-1.36A1.36,1.36,0,0,1,108.41,37.23Zm0-2a.64.64,0,1,0,.64.64A.64.64,0,0,0,108.41,35.23Z"/><path class="cls-8" d="M110.38,35.08a11.59,11.59,0,0,1-1.55-.14,4.61,4.61,0,0,0-1.52-.07,1,1,0,0,1-.89-1.79A4.71,4.71,0,0,1,109.1,33a10.05,10.05,0,0,0,1.28.12,1,1,0,0,1,0,2Z"/><path class="cls-8" d="M116.29,37.23a1.36,1.36,0,1,1,1.36-1.36A1.36,1.36,0,0,1,116.29,37.23Zm0-2a.64.64,0,1,0,.64.64A.64.64,0,0,0,116.29,35.23Z"/><circle class="cls-8" cx="108.41" cy="35.87" r="1"/><circle class="cls-8" cx="116.29" cy="35.87" r="1"/><path class="cls-8" d="M90.22,126h-1a1,1,0,0,1,0-2h1a1,1,0,0,1,0,2Z"/><path class="cls-8" d="M86.23,126h-44a1,1,0,0,1,0-2h44a1,1,0,0,1,0,2Z"/><path class="cls-8" d="M85.22,116h-38a1,1,0,0,1,0-2h38a1,1,0,0,1,0,2Z"/><path class="cls-8" d="M117.22,116h-29a1,1,0,0,1,0-2h29a1,1,0,0,1,0,2Z"/><path class="cls-8" d="M12.21,116h-6a1,1,0,0,1,0-2h6a1,1,0,1,1,0,2Z"/><path class="cls-8" d="M44.23,116h-29a1,1,0,0,1,0-2h29a1,1,0,0,1,0,2Z"/><path class="cls-8" d="M114.22,106h-77a1,1,0,0,1,0-2h77a1,1,0,0,1,0,2Z"/><path class="cls-8" d="M127.22,106h-10a1,1,0,0,1,0-2h10a1,1,0,0,1,0,2Z"/><path class="cls-8" d="M34.23,106h-30a1,1,0,1,1,0-2h30a1,1,0,0,1,0,2Z"/><path class="cls-9" d="M103.79,56a15.27,15.27,0,0,0,4.18-.6,4.17,4.17,0,0,0,2.87-5.33c-1.14-3.45-.23-6.24-1-9.64-1.06-4.52-5.15-7.93-10.64-7.93s-9.86,3.26-10.76,7.93c-.65,3.37.23,6.12-.85,9.51a4.2,4.2,0,0,0,2.8,5.32,14.72,14.72,0,0,0,3.95.74Z"/><g class="cls-1"><path class="cls-6" d="M108,53.3a15.27,15.27,0,0,1-4.18.6H94.31a14.72,14.72,0,0,1-3.95-.74c-1.56-.46-2.64-1.18-2.92-2.67a4.19,4.19,0,0,0,2.92,4.8,14.72,14.72,0,0,0,3.95.74h9.48a15.27,15.27,0,0,0,4.18-.6,4.16,4.16,0,0,0,3-4.8C110.67,52.14,109.56,52.88,108,53.3Z"/></g><g class="cls-1"><path class="cls-4" d="M110.18,45.19h0a20.4,20.4,0,0,0-.38-4.72c-1.06-4.52-5.15-7.93-10.64-7.93s-9.86,3.26-10.76,7.93A22.24,22.24,0,0,0,88.15,45a16.43,16.43,0,0,1,.27-2.93c.9-4.67,5.26-7.42,10.76-7.42s9.58,2.9,10.64,7.42A15.24,15.24,0,0,1,110.18,45.19Z"/></g><path class="cls-8" d="M94.9,57h0a20.09,20.09,0,0,1-4.8-.78A5.13,5.13,0,0,1,87,53.73a5.2,5.2,0,0,1-.36-4,15.27,15.27,0,0,0,.54-5,21.46,21.46,0,0,1,.29-4.38c1-5.14,5.82-8.74,11.74-8.74,5.72,0,10.39,3.5,11.61,8.7a19.78,19.78,0,0,1,.41,4.59,15.23,15.23,0,0,0,.59,5,5.2,5.2,0,0,1-.36,4.08,5.1,5.1,0,0,1-3.19,2.53,20.5,20.5,0,0,1-5.05.64,1,1,0,0,1,0-2h.22a19,19,0,0,0,4.29-.57,3.17,3.17,0,0,0,2.17-4,17.08,17.08,0,0,1-.69-5.57,17.91,17.91,0,0,0-.35-4.15c-1-4.28-4.89-7.16-9.67-7.16-4.95,0-9,2.93-9.78,7.12a19.62,19.62,0,0,0-.25,4,17.08,17.08,0,0,1-.63,5.63,3.22,3.22,0,0,0,.22,2.5,3.15,3.15,0,0,0,1.91,1.55,18.23,18.23,0,0,0,4.28.7,1,1,0,0,1,0,2Z"/><path class="cls-7" d="M100.61,96.36v2.86c0,6.44,3.58,13.6,3.58,13.6l.72,1.43a84.55,84.55,0,0,0,.76-17.9Z"/><path class="cls-7" d="M98,96.36s0,1.43,0,2.86a26,26,0,0,1-3.58,12.17l-.72,2.86a86.51,86.51,0,0,1-.72-17.9Z"/><g class="cls-1"><path class="cls-6" d="M97.75,99c0-1.37,0-2.69,0-2.69H92.73q-.08,1.27-.12,2.48C94.17,99,95.93,99,97.75,99Z"/></g><g class="cls-1"><path class="cls-6" d="M105.78,98.89q0-1.24-.12-2.53h-5.06v2.7C102.42,99,104.19,99,105.78,98.89Z"/></g><path class="cls-8" d="M104.91,115.26a1,1,0,0,1-.89-.55l-.72-1.43c-.15-.3-3.69-7.45-3.69-14.05V96.36a1,1,0,0,1,2,0v2.86c0,4.34,1.73,9.09,2.74,11.53a87.93,87.93,0,0,0,.31-14.33,1,1,0,1,1,2-.12,84.82,84.82,0,0,1-.77,18.14,1,1,0,0,1-.84.82Z"/><path class="cls-8" d="M93.45,115.26h0a1,1,0,0,1-.95-.83,86.76,86.76,0,0,1-.73-18.13,1,1,0,0,1,1.06-.94,1,1,0,0,1,.94,1.06,90,90,0,0,0,.19,13.35,24.41,24.41,0,0,0,2.82-10.55c0-1.45,0-2.89,0-2.89a1,1,0,0,1,1-1h0a1,1,0,0,1,1,1s0,1.42,0,2.83a26.73,26.73,0,0,1-3.65,12.56l-.68,2.72A1,1,0,0,1,93.45,115.26Z"/><path class="cls-15" d="M93.45,115H89.87v-1.29h0l1.43-1.57,1.43-4.3h3.58v4.3A2.86,2.86,0,0,1,93.45,115Z"/><g class="cls-1"><polygon class="cls-4" points="92.73 107.82 92.02 109.97 96.31 109.97 96.31 107.82 92.73 107.82"/></g><path class="cls-15" d="M104.91,115h3.58v-1.29h0l-1.43-1.57-1.43-4.3H102v4.3A2.86,2.86,0,0,0,104.91,115Z"/><g class="cls-1"><polygon class="cls-4" points="105.62 107.82 106.34 109.97 102.04 109.97 102.04 107.82 105.62 107.82"/></g><path class="cls-8" d="M93.45,116H89.87a1,1,0,0,1-1-1v-1.29a1,1,0,0,1,.26-.67l1.29-1.42,1.37-4.1a1,1,0,0,1,.95-.68h3.58a1,1,0,0,1,1,1v4.3A3.87,3.87,0,0,1,93.45,116ZM91,114h2.49a1.87,1.87,0,0,0,1.86-1.86v-3.3H93.46l-1.2,3.61a1,1,0,0,1-.21.36Z"/><path class="cls-8" d="M108.49,116h-3.58a3.87,3.87,0,0,1-3.86-3.86v-4.3a1,1,0,0,1,1-1h3.58a1,1,0,0,1,.95.68l1.37,4.1,1.29,1.42a1,1,0,0,1,.26.67V115A1,1,0,0,1,108.49,116ZM103,108.82v3.3a1.87,1.87,0,0,0,1.86,1.86h2.49l-1.08-1.19a1,1,0,0,1-.21-.36l-1.21-3.61Z"/><path class="cls-8" d="M93.45,113.11H91.3a1,1,0,0,1,0-2h2.15a1,1,0,0,1,0,2Z"/><path class="cls-8" d="M107.05,113.11h-2.15a1,1,0,0,1,0-2h2.15a1,1,0,0,1,0,2Z"/><path class="cls-21" d="M104.67,56.42h0l.6.29a11.44,11.44,0,0,1,6.24,7.88l1.94,8.87h-5.21l-1.2-5c.72,2.09-.72,4.43-.63,7.26a45.75,45.75,0,0,1-14,0c.32-2.84-1.52-3.72-.87-7.26l-.82,5h-5.4l1.58-8.62a11.44,11.44,0,0,1,6.35-8.27l.4-.19h0C95.6,60.56,102.76,60.56,104.67,56.42Z"/><g class="cls-1"><path class="cls-4" d="M86.92,67.6a11,11,0,0,1,6-8.27,8.85,8.85,0,0,0,12.27,0,11.76,11.76,0,0,1,6.36,8l1.35,6.16h.59l-1.94-8.87a11.44,11.44,0,0,0-6.24-7.88l-.6-.29h0c-1.91,4.14-9.07,4.14-11,0h0l-.4.19a11.44,11.44,0,0,0-6.35,8.27l-1.58,8.62h.5Z"/><path class="cls-4" d="M91.55,71.2v.05h0Z"/></g><path class="cls-15" d="M106.43,75.76c3.49,4.32,4.49,12.58,5.64,19.17,0,1.91-25.06,1.91-25.06,0,1-6,2.15-14.13,5.41-19.17A45.93,45.93,0,0,0,106.43,75.76Z"/><path class="cls-7" d="M90.25,73.59,89.15,84l-.61,0c-1.32,0-2.71-2.2-1.74-4.89a23.75,23.75,0,0,1-.74-5.51"/><path class="cls-8" d="M89.15,85h0l-.61,0a2.9,2.9,0,0,1-2.25-1.39,5.31,5.31,0,0,1-.5-4.52,27.14,27.14,0,0,1-.69-5.44,1,1,0,0,1,.95-1,1,1,0,0,1,1,.95,23.55,23.55,0,0,0,.69,5.26,1,1,0,0,1,0,.64,3.32,3.32,0,0,0,.17,3,1.53,1.53,0,0,0,.35.38l1-9.35a1,1,0,0,1,2,.21l-1.1,10.4A1,1,0,0,1,89.15,85Z"/><path class="cls-8" d="M87.68,80.11h-.1L86.76,80a1,1,0,0,1-.9-1.09A1,1,0,0,1,87,78l.82.08a1,1,0,0,1-.1,2Z"/><path class="cls-7" d="M108.92,73.59l1,10.4.61,0c1.32,0,2.81-2.2,1.83-4.89a23.75,23.75,0,0,0,.74-5.51"/><path class="cls-8" d="M109.92,85a1,1,0,0,1-1-.9l-1-10.4a1,1,0,1,1,2-.19l.9,9.35a1.68,1.68,0,0,0,.41-.43,3.34,3.34,0,0,0,.2-3,1,1,0,0,1,0-.64,23.52,23.52,0,0,0,.69-5.26,1,1,0,0,1,2,.1,27,27,0,0,1-.69,5.44,5.26,5.26,0,0,1-.53,4.47A3,3,0,0,1,110.56,85L110,85Z"/><path class="cls-8" d="M111.49,80.11a1,1,0,0,1-.1-2l.82-.08a1,1,0,0,1,1.09.9,1,1,0,0,1-.9,1.09l-.82.08Z"/><path class="cls-8" d="M99.54,97.36c-3.32,0-6.41-.13-8.72-.36-3.6-.37-4.81-.89-4.81-2.07a1,1,0,0,1,0-.16l.16-1c1-6,2.16-13.41,5.27-18.35a4.43,4.43,0,0,0-.07-1.14,1,1,0,0,1-.64.23h-5.4a1,1,0,0,1-1-1.18l1.58-8.62a12.47,12.47,0,0,1,6.9-9l.4-.19.11,0A1,1,0,0,1,94,57.36l-.32.16a10.47,10.47,0,0,0-5.79,7.55l-1.36,7.44h3.35l.61-3.76c0-.14,0-.29.07-.44a1,1,0,0,1,2,.34l-.07.4a6.33,6.33,0,0,0,.43,3.3,7.51,7.51,0,0,1,.51,3.52,1,1,0,0,1-.16.43c-3,4.59-4.16,11.91-5.1,17.8l-.07.44c3,1.13,19.84,1.13,22.9,0l-.33-1.93c-1-5.92-2.11-12.63-5-16.22a1,1,0,0,1-.22-.6,14.78,14.78,0,0,1,.48-3.71,8.42,8.42,0,0,0,.33-2.76l-.14-.59a1,1,0,0,1,1.92-.56,4.65,4.65,0,0,1,.19.77l.85,3.53h3.18l-1.67-7.66a10.38,10.38,0,0,0-5.7-7.19l-.59-.28a1,1,0,0,1-.53-1.25,1,1,0,0,1,1.27-.61h0l.09,0,.6.29a12.36,12.36,0,0,1,6.79,8.57l1.94,8.87a1,1,0,0,1-1,1.21h-5.21a1,1,0,0,1-.73-.31,9.41,9.41,0,0,0-.11,1.25c3.07,4,4.2,10.85,5.21,16.87.14.84.28,1.67.42,2.47a1,1,0,0,1,0,.17C113.07,95.78,113.07,97.36,99.54,97.36Z"/><path class="cls-5" d="M103.72,53.69a2.13,2.13,0,0,0,.94,2.63c-.72,1.65-3.53,2.55-5.5,3.13-2-.59-5-1.39-5.5-3a2.22,2.22,0,0,0,.92-2.74Z"/><g class="cls-1"><path class="cls-6" d="M103.72,53.69H94.59a2.6,2.6,0,0,1,0,1.86,7.06,7.06,0,0,0,9.13,0A2.58,2.58,0,0,1,103.72,53.69Z"/></g><path class="cls-8" d="M99.16,60.45c-3,0-5.81-1.64-6.45-3.73a1,1,0,0,1,.43-1.14,1.26,1.26,0,0,0,.54-1.5,1,1,0,0,1,1.84-.79,3.13,3.13,0,0,1-.6,3.37,5.57,5.57,0,0,0,4.25,1.77,5.34,5.34,0,0,0,4.19-1.93,3,3,0,0,1-.55-3.21,1,1,0,0,1,1.85.77,1.11,1.11,0,0,0,.55,1.42,1,1,0,0,1,.34,1.22A7.07,7.07,0,0,1,99.16,60.45Z"/><path class="cls-8" d="M99.87,77.31a34.1,34.1,0,0,1-7.42-.57,1,1,0,1,1,.65-1.89c1.89.64,11.65.55,12.79,0a1,1,0,0,1,.83,1.82C105.8,77.13,102.87,77.31,99.87,77.31Z"/><circle class="cls-10" cx="99.18" cy="76.31" r="2.15"/><path class="cls-8" d="M99.18,79.46a3.15,3.15,0,1,1,3.15-3.15A3.15,3.15,0,0,1,99.18,79.46Zm0-4.3a1.15,1.15,0,1,0,1.15,1.15A1.15,1.15,0,0,0,99.18,75.17Z"/><g class="cls-13"><path class="cls-8" d="M95.66,71.46A4.6,4.6,0,0,1,91,67a1,1,0,0,1,2,0,2.71,2.71,0,0,0,5.4,0,1,1,0,0,1,2,0A4.6,4.6,0,0,1,95.66,71.46Z"/><path class="cls-8" d="M103.06,71.46A4.6,4.6,0,0,1,98.36,67a1,1,0,0,1,2,0,2.71,2.71,0,0,0,5.4,0,1,1,0,0,1,2,0A4.6,4.6,0,0,1,103.06,71.46Z"/></g><path class="cls-12" d="M92.38,65.25a19.08,19.08,0,0,0-.82,3.25"/><path class="cls-8" d="M91.55,69.5h-.1a1,1,0,0,1-.89-1.1,19.69,19.69,0,0,1,.87-3.47,1,1,0,0,1,1.89.66,17.62,17.62,0,0,0-.77,3A1,1,0,0,1,91.55,69.5Z"/><path class="cls-12" d="M106.23,65.25a19,19,0,0,1,.82,3.25"/><path class="cls-8" d="M107.05,69.5a1,1,0,0,1-1-.92,17.41,17.41,0,0,0-.77-3,1,1,0,0,1,1.89-.65,19.23,19.23,0,0,1,.88,3.49,1,1,0,0,1-.92,1.08Z"/><path class="cls-8" d="M99.75,94.18a1,1,0,0,1-.62-.22L97.67,92.8l-1.73,1.13a1,1,0,0,1-1.25-.13l-1.15-1.14-1.53,1a1,1,0,0,1-1.26-.15L89.5,92.21l-1.29.72a1,1,0,1,1-1-1.74l2-1.1a1,1,0,0,1,1.21.18l1.22,1.25,1.52-1a1,1,0,0,1,1.24.13l1.15,1.13,1.66-1.08a1,1,0,0,1,1.17.05l1.41,1.12,1.45-1.14a1,1,0,0,1,1.22,0l1.35,1L105,90.64a1,1,0,0,1,1.25-.1l1.41.95,1.13-1.22a1,1,0,0,1,1.25-.18l1.87,1.12a1,1,0,1,1-1,1.72l-1.17-.7-1.16,1.25a1,1,0,0,1-1.29.15l-1.45-1-1.22,1.16a1,1,0,0,1-1.29.08l-1.41-1.06L100.37,94A1,1,0,0,1,99.75,94.18Z"/><path class="cls-7" d="M99.44,55.53H99a4.8,4.8,0,0,1-2.31-.59l-1.19-.65a8.18,8.18,0,0,1-4.28-7.17v-5.2c0-7.64,16-7.64,16,0v5.2a8.18,8.18,0,0,1-4.28,7.17l-1.19.65A4.8,4.8,0,0,1,99.44,55.53Z"/><g class="cls-1"><path class="cls-6" d="M102.94,52.08l-1.19.65a4.8,4.8,0,0,1-2.31.59H99a4.8,4.8,0,0,1-2.31-.59l-1.19-.65a8.18,8.18,0,0,1-4.28-7.17v2.21a8.18,8.18,0,0,0,4.28,7.17l1.19.65a4.8,4.8,0,0,0,2.31.59h.45a4.8,4.8,0,0,0,2.31-.59l1.19-.65a8.18,8.18,0,0,0,4.28-7.17V44.91A8.18,8.18,0,0,1,102.94,52.08Z"/></g><path class="cls-8" d="M99.44,56.53H99a5.82,5.82,0,0,1-2.79-.71L95,55.17a9.19,9.19,0,0,1-4.8-8v-5.2c0-4.63,4.67-6.73,9-6.73s9,2.11,9,6.73v5.2a9.19,9.19,0,0,1-4.8,8l-1.19.65A5.82,5.82,0,0,1,99.44,56.53Zm-.22-19.35c-3.37,0-7,1.48-7,4.73v5.2A7.19,7.19,0,0,0,96,53.41l1.19.65a3.81,3.81,0,0,0,1.83.47h.45a3.81,3.81,0,0,0,1.83-.47l1.19-.65a7.19,7.19,0,0,0,3.76-6.29v-5.2C106.22,38.67,102.59,37.19,99.22,37.19Z"/><path class="cls-8" d="M99.28,50.14a1.84,1.84,0,0,1-1.14-.49A1,1,0,0,1,99.29,48a1,1,0,0,1,1.19.23,1,1,0,0,1-.06,1.4A1.84,1.84,0,0,1,99.28,50.14Z"/><path class="cls-8" d="M99.2,52.78a4,4,0,0,1-2.09-.45A1,1,0,0,1,96.63,51a1,1,0,0,1,1.31-.47l.12.06a2.06,2.06,0,0,0,1.15.21c.86,0,1.06-.13,1.19-.21l1.09,1.68A3.74,3.74,0,0,1,99.2,52.78Z"/><path class="cls-8" d="M96,47.93a1.36,1.36,0,1,1,1.36-1.36A1.36,1.36,0,0,1,96,47.93Zm0-2a.64.64,0,1,0,.64.64A.64.64,0,0,0,96,45.93Z"/><path class="cls-8" d="M104.66,45.22a1,1,0,0,1-.45-.11,4.47,4.47,0,0,0-2.76-.16,1,1,0,1,1-.61-1.91,6.43,6.43,0,0,1,4.26.27,1,1,0,0,1-.45,1.89Z"/><path class="cls-8" d="M93.74,45.18a1,1,0,0,1-.49-1.87,5.43,5.43,0,0,1,4.4-.15,1,1,0,0,1-.8,1.83,3.45,3.45,0,0,0-2.62.07A1,1,0,0,1,93.74,45.18Z"/><path class="cls-8" d="M102.44,47.93a1.36,1.36,0,1,1,1.36-1.36A1.36,1.36,0,0,1,102.44,47.93Zm0-2a.64.64,0,1,0,.64.64A.64.64,0,0,0,102.44,45.93Z"/><circle class="cls-8" cx="95.99" cy="46.57" r="1"/><circle class="cls-8" cx="102.44" cy="46.57" r="1"/><g class="cls-1"><circle class="cls-14" cx="103.52" cy="49.8" r="1.43"/></g><g class="cls-1"><circle class="cls-14" cx="94.92" cy="49.8" r="1.43"/></g><g class="cls-1"><path class="cls-6" d="M91.23,42.16a13.19,13.19,0,0,0,13.11-2.53c.92,3.29,2.86,2.69,2.88,2.69V40.44s-2,.83-2.94-2.47c-6,5.06-13,2.21-13,2.21Z"/></g><path class="cls-9" d="M91.18,40.15a12.78,12.78,0,0,0,13-2.36,2.53,2.53,0,0,0,2.94,2.71l.73,0c-.22-7.45-17.11-7.47-17.33-.6Z"/><path class="cls-8" d="M95.92,42a13.66,13.66,0,0,1-5.08-.94l-.64-.28A1,1,0,0,1,91,39l.64.28a11.68,11.68,0,0,0,12-2.2,1,1,0,0,1,1.66.75,1.75,1.75,0,0,0,.45,1.36,2,2,0,0,0,1.36.36l.45,0a1,1,0,0,1,.17,2l-.41,0a3.93,3.93,0,0,1-2.88-.84,3.14,3.14,0,0,1-.79-1.08A13.21,13.21,0,0,1,95.92,42Z"/><path class="cls-8" d="M107.19,44.13a1,1,0,0,1-1-1V41.44a5.69,5.69,0,0,0-.05-.8,1,1,0,0,1,2-.28,7.73,7.73,0,0,1,.07,1.07v1.68A1,1,0,0,1,107.19,44.13Z"/><path class="cls-8" d="M91.23,43.72a1,1,0,0,1-1-1V41.44a7.81,7.81,0,0,1,.13-1.4,1,1,0,1,1,2,.36,5.91,5.91,0,0,0-.09,1v1.28A1,1,0,0,1,91.23,43.72Z"/></g><path class="cls-2" d="M75.52,44.47s-3.36-1.37-3.24-1.29c-1.06,2.3-4.48,4.27-8.06,4.27s-7.28-2-8-4.24L53,44.52a12.74,12.74,0,0,0-7.83,11.75V77a3,3,0,0,0,3,3h32a3,3,0,0,0,3-3V56.17A12.74,12.74,0,0,0,75.52,44.47Z"/><path class="cls-4" d="M45.22,75h7a0,0,0,0,1,0,0v5a0,0,0,0,1,0,0h-4a3,3,0,0,1-3-3V75A0,0,0,0,1,45.22,75Z"/><path class="cls-4" d="M79.22,75h4a0,0,0,0,1,0,0v5a0,0,0,0,1,0,0h-7a0,0,0,0,1,0,0V78A3,3,0,0,1,79.22,75Z" transform="translate(159.44 155) rotate(180)"/><g class="cls-1"><path class="cls-4" d="M75.49,44.47s-3.36-1.37-3.24-1.29c-1.06,2.3-4.61,4.27-8.06,4.27s-7.28-2-8-4.24L53,44.52a12.74,12.74,0,0,0-7.83,11.75v2.3a11.72,11.72,0,0,1,9.86-11.44c1,1.94,5.68,4.17,9.14,4.17s8-2.23,9.09-4.17c6.33,1.73,9.91,6.25,9.91,11.34v-2.3A12.74,12.74,0,0,0,75.49,44.47Z"/></g><path class="cls-8" d="M76.22,86a1,1,0,0,1-1-1V55a1,1,0,0,1,2,0V85A1,1,0,0,1,76.22,86Z"/><path class="cls-8" d="M52.22,86a1,1,0,0,1-1-1V55a1,1,0,0,1,2,0V85A1,1,0,0,1,52.22,86Z"/><path class="cls-8" d="M80.22,81h-4a1,1,0,0,1,0-2h4a2,2,0,0,0,2-2V56.17a11.73,11.73,0,0,0-7.09-10.78L71.88,44a1,1,0,0,1,.79-1.84l3.25,1.4a13.73,13.73,0,0,1,8.3,12.62V77A4,4,0,0,1,80.22,81Z"/><path class="cls-8" d="M52.25,81h-4a4,4,0,0,1-4-4V56.27a13.7,13.7,0,0,1,8.44-12.68l3.11-1.3a1,1,0,1,1,.77,1.85l-3.11,1.3a11.71,11.71,0,0,0-7.21,10.83V77a2,2,0,0,0,2,2h4a1,1,0,0,1,0,2Z"/><path class="cls-7" d="M47.22,80h5a0,0,0,0,1,0,0v7a0,0,0,0,1,0,0h-.66a4.34,4.34,0,0,1-4.34-4.34V80A0,0,0,0,1,47.22,80Z"/><path class="cls-8" d="M52.22,88h-.66a5.35,5.35,0,0,1-5.34-5.34V80a1,1,0,0,1,1-1h5a1,1,0,0,1,1,1v7A1,1,0,0,1,52.22,88Zm-4-7v1.66a3.35,3.35,0,0,0,3,3.33V81Z"/><path class="cls-7" d="M80.56,80h.66a0,0,0,0,1,0,0v7a0,0,0,0,1,0,0h-5a0,0,0,0,1,0,0V84.34A4.34,4.34,0,0,1,80.56,80Z" transform="translate(157.44 167) rotate(180)"/><path class="cls-8" d="M76.87,88h-.66a1,1,0,0,1-1-1V80a1,1,0,0,1,1-1h5a1,1,0,0,1,1,1v2.66A5.35,5.35,0,0,1,76.87,88Zm.34-7v5a3.35,3.35,0,0,0,3-3.33V81Z"/><path class="cls-10" d="M61.22,124V88a3,3,0,0,1,3-3h0a3,3,0,0,1,3,3v36h9V76h-24v48Z"/><path class="cls-8" d="M76.22,125h-9a1,1,0,0,1-1-1V88a2,2,0,0,0-4,0v36a1,1,0,0,1-1,1h-9a1,1,0,0,1-1-1V76a1,1,0,0,1,1-1h24a1,1,0,0,1,1,1v48A1,1,0,0,1,76.22,125Zm-8-2h7V77h-22v46h7V88a4,4,0,0,1,8,0Z"/><path class="cls-8" d="M52.22,83a1,1,0,0,1-.71-1.71l6-6a1,1,0,0,1,1.41,1.41l-6,6A1,1,0,0,1,52.22,83Z"/><path class="cls-8" d="M76.22,83a1,1,0,0,1-.71-.29l-6-6a1,1,0,0,1,1.41-1.41l6,6A1,1,0,0,1,76.22,83Z"/><path class="cls-8" d="M52.22,76h-7a1,1,0,0,1,0-2h7a1,1,0,0,1,0,2Z"/><path class="cls-8" d="M83.22,76h-7a1,1,0,0,1,0-2h7a1,1,0,0,1,0,2Z"/><polygon class="cls-16" points="73.51 46.38 54.97 46.38 55.07 40.01 73.39 40.01 73.51 46.38"/><path class="cls-8" d="M73.51,47.38H55a1,1,0,0,1-1-1L54.07,40a1,1,0,0,1,1-1H73.39a1,1,0,0,1,1,1l.12,6.37a1,1,0,0,1-1,1ZM56,45.38h16.5L72.41,41H56.05Z"/><path class="cls-5" d="M71,39.18A3.05,3.05,0,0,0,72.35,43c-1.07,2.32-5.21,3.48-8.11,4.3-2.9-.82-7.37-2-8.11-4.3a3,3,0,0,0,1.36-3.79Z"/><g class="cls-1"><polygon class="cls-17" points="69.45 46.45 65.61 46.45 64.24 47.27 62.83 46.45 59.03 46.45 59.03 49.92 69.45 49.92 69.45 46.45"/></g><g class="cls-1"><path class="cls-6" d="M71,39.18H57.5a2.66,2.66,0,0,1,0,2.27l.84.84a6.3,6.3,0,0,0,4.45,1.84h2.89a6.3,6.3,0,0,0,4.45-1.84l.85-.85A2.64,2.64,0,0,1,71,39.18Z"/></g><path class="cls-8" d="M64.24,48.27a1,1,0,0,1-.47-.12l-8.11-4.3a1,1,0,0,1,0-1.74,2.07,2.07,0,0,0,1-2.53,1,1,0,0,1,1.82-.82,3.74,3.74,0,0,1-.54,4l6.37,3.38,6.39-3.39a3.72,3.72,0,0,1-.58-4,1,1,0,0,1,1.83.8,2.12,2.12,0,0,0,1,2.56,1,1,0,0,1-.08,1.72l-8.11,4.3A1,1,0,0,1,64.24,48.27Z"/><path class="cls-18" d="M57.33,49.09l-5.25-4.37L55,40.08l7,5.79L60.2,48.63A1.93,1.93,0,0,1,57.33,49.09Z"/><path class="cls-18" d="M71.16,49.09l5.25-4.37-2.9-4.63-7,5.79,1.72,2.76A1.93,1.93,0,0,0,71.16,49.09Z"/><g class="cls-1"><polygon class="cls-4" points="54.97 42.39 60.97 47.39 61.92 45.87 54.97 40.08 52.08 44.71 53.03 45.51 54.97 42.39"/></g><g class="cls-1"><polygon class="cls-4" points="73.49 42.39 75.43 45.51 76.38 44.71 73.49 40.08 66.54 45.87 67.49 47.39 73.49 42.39"/></g><path class="cls-8" d="M58.56,50.53a2.93,2.93,0,0,1-1.88-.68h0l-5.25-4.37a1,1,0,0,1-.21-1.3l2.9-4.63a1,1,0,0,1,1.49-.24l7,5.79a1,1,0,0,1,.21,1.3L61,49.16a2.93,2.93,0,0,1-2.49,1.38ZM58,48.32a.93.93,0,0,0,1.39-.22l1.26-2-5.4-4.5L53.39,44.5Z"/><path class="cls-8" d="M69.9,50.53a3,3,0,0,1-.46,0,2.93,2.93,0,0,1-2-1.34L65.69,46.4a1,1,0,0,1,.21-1.3l7-5.79a1,1,0,0,1,1.49.24l2.9,4.63a1,1,0,0,1-.21,1.3l-5.25,4.37h0A2.93,2.93,0,0,1,69.9,50.53Zm1.24-1.45h0Zm-3.29-3,1.26,2a.93.93,0,0,0,1.39.22l4.58-3.82-1.83-2.92Z"/><polygon class="cls-19" points="60.51 48.7 63.04 52.47 65.44 52.47 67.93 48.67 66.65 46.45 61.84 46.45 60.51 48.7"/><polygon class="cls-19" points="68.25 66.13 65.44 52.47 63.04 52.47 60.23 66.13 64.22 70.13 68.25 66.13"/><path class="cls-8" d="M64.22,71.13a1,1,0,0,1-.71-.29l-4-4a1,1,0,0,1-.27-.91l2.8-13.66a1,1,0,0,1,1-.8h2.41a1,1,0,0,1,1,.8l2.8,13.66a1,1,0,0,1-.28.91l-4,4A1,1,0,0,1,64.22,71.13Zm-2.9-5.33,2.9,2.91,2.94-2.92L64.63,53.47h-.78Z"/><path class="cls-8" d="M65.44,53.47H63a1,1,0,0,1-.83-.44l-2.53-3.77a1,1,0,0,1,0-1.06L61,45.94a1,1,0,0,1,.86-.49h4.81a1,1,0,0,1,.87.5l1.28,2.22a1,1,0,0,1,0,1L66.28,53A1,1,0,0,1,65.44,53.47Zm-1.87-2H64.9l1.85-2.84-.68-1.19H62.41l-.72,1.22Z"/><path class="cls-9" d="M55.72,118h0a5.5,5.5,0,0,1,5.5,5.5V125a0,0,0,0,1,0,0h-10a1,1,0,0,1-1-1v-.5a5.5,5.5,0,0,1,5.5-5.5Z"/><path class="cls-8" d="M61.22,126h-10a2,2,0,0,1-2-2v-.5a6.5,6.5,0,0,1,13,0V125A1,1,0,0,1,61.22,126Zm-5.5-7a4.5,4.5,0,0,0-4.5,4.5v.5h9v-.5A4.5,4.5,0,0,0,55.72,119Z"/><path class="cls-9" d="M72.72,118h0a5.5,5.5,0,0,1,5.5,5.5v.5a1,1,0,0,1-1,1h-10a0,0,0,0,1,0,0v-1.5A5.5,5.5,0,0,1,72.72,118Z"/><path class="cls-8" d="M77.22,126h-10a1,1,0,0,1-1-1v-1.5a6.5,6.5,0,0,1,13,0v.5A2,2,0,0,1,77.22,126Zm-9-2h9v-.5a4.5,4.5,0,0,0-9,0Z"/><path class="cls-7" d="M65.59,42H62.84a6,6,0,0,1-4.23-1.73L55,36.65a5.89,5.89,0,0,1-1.75-4.18v-11c0-8.62,22-8.62,22,0v11a5.89,5.89,0,0,1-1.75,4.18l-3.65,3.61A6,6,0,0,1,65.59,42Z"/><g class="cls-1"><path class="cls-6" d="M69.82,37.27A6,6,0,0,1,65.59,39H62.84a6,6,0,0,1-4.23-1.73L55,33.65a5.89,5.89,0,0,1-1.75-4.18v3A5.89,5.89,0,0,0,55,36.65l3.65,3.61A6,6,0,0,0,62.84,42h2.75a6,6,0,0,0,4.23-1.73l3.65-3.61a5.89,5.89,0,0,0,1.75-4.18v-3a5.89,5.89,0,0,1-1.75,4.18Z"/></g><g class="cls-1"><path class="cls-6" d="M75.08,25.46V21c0-8-21.78-8-21.78,0v4.06c1-1.17,2.63-2.07,3.17-3.71,6.28,2.93,12.29.33,16.38,1.08C74.34,22.73,75,24.54,75.08,25.46Z"/></g><path class="cls-8" d="M65.59,43H62.84a7,7,0,0,1-4.93-2l-3.65-3.61a6.85,6.85,0,0,1-2-4.9v-11c0-5.13,6.22-7.47,12-7.47s12,2.34,12,7.47v11a6.84,6.84,0,0,1-2,4.9L70.52,41A7,7,0,0,1,65.59,43ZM64.22,16c-5,0-10,1.88-10,5.47v11a4.86,4.86,0,0,0,1.45,3.47l3.65,3.61A5,5,0,0,0,62.84,41h2.75a5,5,0,0,0,3.52-1.44l3.65-3.61a4.86,4.86,0,0,0,1.45-3.47v-11c0-1.62-1-3-2.9-4A15.93,15.93,0,0,0,64.22,16Z"/><path class="cls-9" d="M71.27,12.29c3.21,1.49,5.94,3.13,5.95,7.71a15.89,15.89,0,0,1-.35,3.18c-.2,1-1.65.54-1.65.54s-.06-2.66-2-3.42c-4.92-2-12.92,1.49-18.33-2.18a5,5,0,0,1-1.63,4s-1.9,0-2-1.09c-.54-4.9,1.48-7.08,3.65-6.54C60.38,9,69.34,11.39,71.27,12.29Z"/><g class="cls-1"><path class="cls-4" d="M54.93,17.16c5.45-5.45,14.41-3.07,16.34-2.18,2.89,1.34,5.61,2.19,5.95,5.79.41-5.17-2.56-6.92-5.95-8.49C69.34,11.39,60.38,9,54.93,14.47c-2.07-.52-4,1.43-3.71,5.84C51.47,17.38,53.22,16.73,54.93,17.16Z"/></g><path class="cls-8" d="M75.9,24.83a3.49,3.49,0,0,1-1-.14,1,1,0,0,1-.7-.89,3.61,3.61,0,0,0-1.45-2.62c-1.49-.85-3.79-.68-6.45-.48-3.34.25-7.07.52-10.53-1.09a6.44,6.44,0,0,1-1.69,3.09,1.09,1.09,0,0,1-.8.39c-1.39,0-2.86-.62-3-2-.35-3.14.26-5.58,1.73-6.86a3.38,3.38,0,0,1,2.59-.85c5.73-5.27,14.22-3.28,17.07-2h0c3,1.3,6.41,3.46,6.55,8.6a15.06,15.06,0,0,1-.37,3.41A1.73,1.73,0,0,1,77,24.55,2.22,2.22,0,0,1,75.9,24.83Zm-6.49-6.29a8.68,8.68,0,0,1,4.34.9,5,5,0,0,1,2.23,3A11.89,11.89,0,0,0,76.22,20c-.11-4-2.63-5.63-5.35-6.82h0c-2.39-1-10.32-2.94-15.23,2a1,1,0,0,1-.95.26,1.44,1.44,0,0,0-1.36.32c-.93.81-1.32,2.73-1.06,5.13a2.12,2.12,0,0,0,.59.16A4.09,4.09,0,0,0,53.93,18a1,1,0,0,1,1.54-.84c3.28,2.09,7.22,1.8,10.7,1.54C67.29,18.62,68.38,18.54,69.41,18.54Z"/><path class="cls-8" d="M64.31,32.84A2.16,2.16,0,0,1,63,32.26a1,1,0,0,1,1.32-1.5h0a1,1,0,0,1,1.32,1.5A2.16,2.16,0,0,1,64.31,32.84Z"/><path class="cls-8" d="M64.2,36.64A4.66,4.66,0,0,1,61.49,36l-.12-.07a1,1,0,0,1,.89-1.79l.27.15a2.72,2.72,0,0,0,1.67.39A3.07,3.07,0,0,0,66,34.23a1,1,0,0,1,1.28,1.53A4.36,4.36,0,0,1,64.2,36.64Z"/><path class="cls-8" d="M71.81,26.9a1,1,0,0,1-.45-.11,6.71,6.71,0,0,0-2.6,0c-.62.06-1.26.13-1.85.13a1,1,0,0,1,0-2c.5,0,1.06-.06,1.66-.12a7.07,7.07,0,0,1,3.69.22,1,1,0,0,1-.45,1.89Z"/><path class="cls-8" d="M58.72,30a1.5,1.5,0,1,1,1.5-1.5A1.5,1.5,0,0,1,58.72,30Zm0-2a.5.5,0,1,0,.5.5A.5.5,0,0,0,58.72,28Z"/><path class="cls-8" d="M61.47,27a15.8,15.8,0,0,1-2.11-.19A5.82,5.82,0,0,0,57,26.8,1,1,0,0,1,56.12,25a6.21,6.21,0,0,1,3.51-.13,14.44,14.44,0,0,0,1.84.17,1,1,0,0,1,0,2Z"/><path class="cls-8" d="M69.72,30a1.5,1.5,0,1,1,1.5-1.5A1.5,1.5,0,0,1,69.72,30Zm0-2a.5.5,0,1,0,.5.5A.5.5,0,0,0,69.72,28Z"/><circle class="cls-8" cx="58.72" cy="28.5" r="1"/><circle class="cls-8" cx="69.72" cy="28.5" r="1"/></svg>