<?xml version="1.0" ?><svg data-name="002" id="_002" viewBox="0 0 128 128" xmlns="http://www.w3.org/2000/svg"><defs><style>.cls-1{opacity:0.3;}.cls-2{fill:#97c1ff;}.cls-3{fill:#eef6ff;}.cls-4{fill:#ced8ee;}.cls-5{fill:#7690a8;}.cls-6{fill:#6d6daa;}.cls-7{fill:#fff;}.cls-8{fill:#c7e9ff;}.cls-9{fill:#1c64ba;}.cls-10{fill:#fff27d;}.cls-11{opacity:0.8;}.cls-12{opacity:0.5;}.cls-13{fill:#f7a706;}.cls-14{fill:#939fc6;}.cls-15{fill:#c9c1f5;}.cls-16{fill:#5b58bc;}.cls-17{fill:#5ecca0;}.cls-18{fill:#ff9797;}</style></defs><title/><g class="cls-1"><path class="cls-2" d="M116,49a39,39,0,1,0-77-12.09A20.62,20.62,0,0,1,23.54,53.71a30.75,30.75,0,1,0,22,57c7.61-4,17-2.68,22.64,3.84A33.75,33.75,0,0,0,121.6,73.44,33.63,33.63,0,0,1,116,49Z"/><path class="cls-3" d="M44,86.76V81.24l-4.74-1.58a15.77,15.77,0,0,0-1.4-3.38l2.24-4.47-3.9-3.9-4.47,2.24a15.76,15.76,0,0,0-3.38-1.4L26.76,64H21.24l-1.58,4.74a15.76,15.76,0,0,0-3.38,1.4l-4.47-2.24-3.9,3.9,2.24,4.47a15.76,15.76,0,0,0-1.4,3.38L4,81.24v5.52l4.74,1.58a15.76,15.76,0,0,0,1.4,3.38L7.91,96.19l3.9,3.9,4.47-2.24a15.76,15.76,0,0,0,3.38,1.4L21.24,104h5.52l1.58-4.74a15.75,15.75,0,0,0,3.38-1.4l4.47,2.24,3.9-3.9-2.24-4.47a15.77,15.77,0,0,0,1.4-3.38ZM24,88a4,4,0,1,1,4-4A4,4,0,0,1,24,88Z"/><path class="cls-4" d="M24,74A10,10,0,1,0,34,84,10,10,0,0,0,24,74Zm0,14a4,4,0,1,1,4-4A4,4,0,0,1,24,88Z"/><g class="cls-1"><path class="cls-5" d="M24,77a10,10,0,0,1,9.88,8.5,10,10,0,1,0-19.75,0A10,10,0,0,1,24,77Z"/></g><path class="cls-6" d="M26.76,105H21.24a1,1,0,0,1-.95-.68l-1.42-4.25A16.81,16.81,0,0,1,16.26,99l-4,2a1,1,0,0,1-1.15-.19L7.2,96.9A1,1,0,0,1,7,95.74l2-4a16.81,16.81,0,0,1-1.08-2.61L3.68,87.71A1,1,0,0,1,3,86.76V81.24a1,1,0,0,1,.68-.95l4.25-1.42A16.81,16.81,0,0,1,9,76.26l-2-4A1,1,0,0,1,7.2,71.1l3.9-3.9A1,1,0,0,1,12.26,67l4,2a16.81,16.81,0,0,1,2.61-1.08l1.42-4.25a1,1,0,0,1,.95-.68h5.52a1,1,0,0,1,.95.68l1.42,4.25A16.81,16.81,0,0,1,31.74,69l4-2a1,1,0,0,1,1.15.19l3.9,3.9A1,1,0,0,1,41,72.26l-2,4a16.81,16.81,0,0,1,1.08,2.61l4.25,1.42a1,1,0,0,1,.68.95v5.52a1,1,0,0,1-.68.95l-4.25,1.42A16.81,16.81,0,0,1,39,91.74l2,4a1,1,0,0,1-.19,1.15l-3.9,3.9a1,1,0,0,1-1.15.19l-4-2a16.81,16.81,0,0,1-2.61,1.08l-1.42,4.25A1,1,0,0,1,26.76,105ZM22,103H26l1.35-4.06a1,1,0,0,1,.67-.65A14.81,14.81,0,0,0,31.23,97a1,1,0,0,1,.93,0L36,98.88,38.88,96,37,92.17a1,1,0,0,1,0-.93,14.81,14.81,0,0,0,1.31-3.17,1,1,0,0,1,.65-.67L43,86V82l-4.06-1.35a1,1,0,0,1-.65-.67A14.81,14.81,0,0,0,37,76.77a1,1,0,0,1,0-.93L38.88,72,36,69.12,32.17,71a1,1,0,0,1-.93,0,14.81,14.81,0,0,0-3.17-1.31,1,1,0,0,1-.67-.65L26,65H22l-1.35,4.06a1,1,0,0,1-.67.65A14.81,14.81,0,0,0,16.77,71a1,1,0,0,1-.93,0L12,69.12,9.12,72,11,75.83a1,1,0,0,1,0,.93,14.81,14.81,0,0,0-1.31,3.17,1,1,0,0,1-.65.67L5,82V86l4.06,1.35a1,1,0,0,1,.65.67A14.81,14.81,0,0,0,11,91.23a1,1,0,0,1,0,.93L9.12,96,12,98.88,15.83,97a1,1,0,0,1,.93,0,14.81,14.81,0,0,0,3.17,1.31,1,1,0,0,1,.67.65ZM44,86.76h0ZM24,89a5,5,0,1,1,5-5A5,5,0,0,1,24,89Zm0-8a3,3,0,1,0,3,3A3,3,0,0,0,24,81Z"/><path class="cls-6" d="M24,95A11,11,0,1,1,35,84,11,11,0,0,1,24,95Zm0-20a9,9,0,1,0,9,9A9,9,0,0,0,24,75Z"/><path class="cls-4" d="M121.75,91.79l-2.91-.48a22.88,22.88,0,0,0-.71-3.56l2.5-1.56a1.5,1.5,0,0,0,.59-1.85L120.67,83a1.5,1.5,0,0,0-1.72-.89l-2.87.66a23,23,0,0,0-2-3l1.72-2.4a1.5,1.5,0,0,0-.16-1.93l-1-1a1.5,1.5,0,0,0-1.93-.16l-2.4,1.72a23,23,0,0,0-3-2l.66-2.87a1.5,1.5,0,0,0-.89-1.72l-1.35-.56a1.5,1.5,0,0,0-1.85.59l-1.56,2.5a22.88,22.88,0,0,0-3.56-.71l-.48-2.91A1.5,1.5,0,0,0,96.73,67H95.27a1.5,1.5,0,0,0-1.48,1.25l-.48,2.91a22.88,22.88,0,0,0-3.56.71l-1.56-2.5a1.5,1.5,0,0,0-1.85-.59L85,69.33a1.5,1.5,0,0,0-.89,1.72l.66,2.87a23,23,0,0,0-3,2l-2.4-1.72a1.5,1.5,0,0,0-1.93.16l-1,1a1.5,1.5,0,0,0-.16,1.93l1.72,2.4a23,23,0,0,0-2,3l-2.87-.66a1.5,1.5,0,0,0-1.72.89l-.56,1.35a1.5,1.5,0,0,0,.59,1.85l2.5,1.56a22.87,22.87,0,0,0-.71,3.56l-2.91.48A1.5,1.5,0,0,0,69,93.27v1.46a1.5,1.5,0,0,0,1.25,1.48l2.91.48a22.86,22.86,0,0,0,.71,3.56l-2.5,1.56a1.5,1.5,0,0,0-.59,1.85l.56,1.35a1.5,1.5,0,0,0,1.72.89l2.87-.66a23,23,0,0,0,2,3l-1.72,2.4a1.5,1.5,0,0,0,.16,1.93l1,1a1.5,1.5,0,0,0,1.93.16l2.4-1.71a23,23,0,0,0,3,2l-.66,2.87a1.5,1.5,0,0,0,.89,1.72l1.35.56a1.5,1.5,0,0,0,1.85-.59l1.56-2.5a22.88,22.88,0,0,0,3.56.71l.48,2.91A1.5,1.5,0,0,0,95.27,121h1.46a1.5,1.5,0,0,0,1.48-1.25l.48-2.91a22.88,22.88,0,0,0,3.56-.71l1.56,2.5a1.5,1.5,0,0,0,1.85.59l1.35-.56a1.5,1.5,0,0,0,.89-1.72l-.66-2.87a23,23,0,0,0,3-2l2.4,1.71a1.5,1.5,0,0,0,1.93-.16l1-1a1.5,1.5,0,0,0,.16-1.93l-1.72-2.4a23,23,0,0,0,2-3l2.87.66a1.5,1.5,0,0,0,1.72-.89l.56-1.35a1.5,1.5,0,0,0-.59-1.85l-2.5-1.56a22.88,22.88,0,0,0,.71-3.56l2.91-.48A1.5,1.5,0,0,0,123,94.73V93.27A1.5,1.5,0,0,0,121.75,91.79ZM96,97a3,3,0,1,1,3-3A3,3,0,0,1,96,97Z"/><path class="cls-3" d="M96,112A18,18,0,1,0,78,94,18,18,0,0,0,96,112Zm0-21a3,3,0,1,1-3,3A3,3,0,0,1,96,91Z"/><path class="cls-4" d="M96,83a11,11,0,1,0,11,11A11,11,0,0,0,96,83Zm0,14a3,3,0,1,1,3-3A3,3,0,0,1,96,97Z"/><g class="cls-1"><path class="cls-5" d="M96,86a11,11,0,0,1,10.89,9.5,11,11,0,1,0-21.77,0A11,11,0,0,1,96,86Z"/></g><path class="cls-6" d="M96.73,122H95.27a2.49,2.49,0,0,1-2.47-2.09l-.36-2.18c-.75-.11-1.5-.26-2.24-.44L89,119.16a2.49,2.49,0,0,1-3.08,1l-1.35-.56a2.5,2.5,0,0,1-1.48-2.87l.5-2.15q-1-.59-1.89-1.27l-1.8,1.29a2.49,2.49,0,0,1-3.22-.27l-1-1a2.49,2.49,0,0,1-.27-3.22l1.29-1.8c-.45-.61-.88-1.25-1.27-1.89l-2.15.5a2.49,2.49,0,0,1-2.87-1.48L69.85,104a2.49,2.49,0,0,1,1-3.08l1.87-1.17c-.18-.74-.33-1.48-.44-2.24l-2.18-.36A2.49,2.49,0,0,1,68,94.73V93.27a2.49,2.49,0,0,1,2.09-2.47l2.18-.36c.11-.75.26-1.5.44-2.24L70.84,87a2.49,2.49,0,0,1-1-3.08l.56-1.35a2.49,2.49,0,0,1,2.87-1.48l2.15.5c.39-.65.81-1.28,1.27-1.89l-1.29-1.8a2.49,2.49,0,0,1,.27-3.22l1-1a2.49,2.49,0,0,1,3.22-.27l1.8,1.29q.92-.68,1.89-1.27l-.5-2.15a2.5,2.5,0,0,1,1.48-2.87L86,67.85a2.48,2.48,0,0,1,3.08,1l1.17,1.87c.74-.18,1.48-.33,2.24-.44l.36-2.18A2.49,2.49,0,0,1,95.27,66h1.46a2.49,2.49,0,0,1,2.47,2.09l.36,2.18c.75.11,1.5.26,2.24.44L103,68.84a2.49,2.49,0,0,1,3.08-1l1.35.56a2.5,2.5,0,0,1,1.48,2.87l-.5,2.15q1,.59,1.89,1.27l1.8-1.29a2.49,2.49,0,0,1,3.22.27l1,1a2.49,2.49,0,0,1,.27,3.22l-1.29,1.8c.45.61.88,1.25,1.27,1.89l2.15-.5a2.49,2.49,0,0,1,2.87,1.48l.56,1.35a2.49,2.49,0,0,1-1,3.08l-1.87,1.17c.18.74.33,1.48.44,2.24l2.18.36h0A2.49,2.49,0,0,1,124,93.27v1.46a2.49,2.49,0,0,1-2.09,2.47l-2.18.36c-.11.75-.26,1.5-.44,2.24l1.87,1.17a2.49,2.49,0,0,1,1,3.08l-.56,1.35a2.49,2.49,0,0,1-2.87,1.48l-2.15-.5c-.39.65-.81,1.28-1.27,1.89l1.29,1.8a2.49,2.49,0,0,1-.27,3.22l-1,1a2.49,2.49,0,0,1-3.22.27l-1.8-1.29q-.92.68-1.89,1.27l.5,2.15a2.5,2.5,0,0,1-1.48,2.87l-1.35.56a2.49,2.49,0,0,1-3.08-1l-1.17-1.87c-.74.18-1.49.33-2.24.44l-.36,2.18A2.49,2.49,0,0,1,96.73,122Zm-7-6.87a1,1,0,0,1,.27,0,22.06,22.06,0,0,0,3.41.67,1,1,0,0,1,.87.83l.48,2.91a.5.5,0,0,0,.49.42h1.46a.5.5,0,0,0,.49-.42l.48-2.91a1,1,0,0,1,.87-.83,22.06,22.06,0,0,0,3.41-.67,1,1,0,0,1,1.12.43l1.56,2.5a.5.5,0,0,0,.61.2l1.35-.56a.5.5,0,0,0,.3-.58l-.67-2.87a1,1,0,0,1,.49-1.1,22.09,22.09,0,0,0,2.88-1.93,1,1,0,0,1,1.2,0l2.4,1.71a.5.5,0,0,0,.64-.05l1-1a.5.5,0,0,0,.05-.64l-1.71-2.4a1,1,0,0,1,0-1.2,21.88,21.88,0,0,0,1.93-2.88,1,1,0,0,1,1.1-.49l2.87.67a.5.5,0,0,0,.58-.3l.56-1.35a.5.5,0,0,0-.2-.61l-2.5-1.56a1,1,0,0,1-.43-1.12,22,22,0,0,0,.67-3.4,1,1,0,0,1,.83-.87l2.91-.48a.5.5,0,0,0,.42-.49V93.27a.5.5,0,0,0-.42-.49l-2.91-.48a1,1,0,0,1-.83-.87,22,22,0,0,0-.67-3.4,1,1,0,0,1,.43-1.12l2.5-1.56a.5.5,0,0,0,.2-.61l-.56-1.35a.5.5,0,0,0-.58-.3l-2.87.67a1,1,0,0,1-1.1-.49,21.88,21.88,0,0,0-1.93-2.88,1,1,0,0,1,0-1.2l1.71-2.4a.5.5,0,0,0-.05-.64l-1-1a.5.5,0,0,0-.64-.05l-2.4,1.71a1,1,0,0,1-1.2,0,22.09,22.09,0,0,0-2.88-1.93,1,1,0,0,1-.49-1.1l.67-2.87a.5.5,0,0,0-.3-.58l-1.35-.56a.49.49,0,0,0-.61.2l-1.56,2.5a1,1,0,0,1-1.12.43,22,22,0,0,0-3.4-.67,1,1,0,0,1-.87-.83l-.48-2.91a.5.5,0,0,0-.49-.42H95.27a.5.5,0,0,0-.49.42l-.48,2.91a1,1,0,0,1-.87.83,22,22,0,0,0-3.4.67,1,1,0,0,1-1.12-.43l-1.56-2.5a.49.49,0,0,0-.61-.2l-1.35.56a.5.5,0,0,0-.3.58l.67,2.87a1,1,0,0,1-.49,1.1,22.09,22.09,0,0,0-2.88,1.93,1,1,0,0,1-1.2,0L78.78,75a.5.5,0,0,0-.64.05l-1,1a.5.5,0,0,0-.05.64l1.71,2.4a1,1,0,0,1,0,1.2,21.88,21.88,0,0,0-1.93,2.88,1,1,0,0,1-1.1.49l-2.87-.67a.5.5,0,0,0-.58.3l-.56,1.35a.5.5,0,0,0,.2.61l2.5,1.56A1,1,0,0,1,74.83,88a22,22,0,0,0-.67,3.4,1,1,0,0,1-.83.87l-2.91.48a.5.5,0,0,0-.42.49v1.46a.5.5,0,0,0,.42.49l2.91.48a1,1,0,0,1,.83.87,22,22,0,0,0,.67,3.4,1,1,0,0,1-.43,1.12l-2.5,1.56a.5.5,0,0,0-.2.61l.56,1.35a.5.5,0,0,0,.58.3l2.87-.67a1,1,0,0,1,1.1.49,21.88,21.88,0,0,0,1.93,2.88,1,1,0,0,1,0,1.2L77,111.22a.5.5,0,0,0,.05.64l1,1a.5.5,0,0,0,.64.05l2.4-1.71a1,1,0,0,1,1.2,0,22.09,22.09,0,0,0,2.88,1.93,1,1,0,0,1,.49,1.1l-.67,2.87a.5.5,0,0,0,.3.58l1.35.56a.5.5,0,0,0,.61-.2l1.56-2.5A1,1,0,0,1,89.75,115.13ZM96,98a4,4,0,1,1,4-4A4,4,0,0,1,96,98Zm0-6a2,2,0,1,0,2,2A2,2,0,0,0,96,92Z"/><path class="cls-6" d="M96,106a12,12,0,1,1,12-12A12,12,0,0,1,96,106Zm0-22a10,10,0,1,0,10,10A10,10,0,0,0,96,84Z"/><path class="cls-7" d="M96,109A18,18,0,0,1,78.08,92.5c0,.5-.08,1-.08,1.5a18,18,0,0,0,36,0c0-.51,0-1-.08-1.5A18,18,0,0,1,96,109Z"/><path class="cls-3" d="M105,36.73V35.27a1.5,1.5,0,0,0-1.25-1.48l-2.91-.48a22.87,22.87,0,0,0-.71-3.56l2.5-1.56a1.5,1.5,0,0,0,.59-1.85L102.67,25a1.5,1.5,0,0,0-1.72-.89l-2.87.66a23,23,0,0,0-2-3l1.71-2.4a1.5,1.5,0,0,0-.16-1.93l-1-1a1.5,1.5,0,0,0-1.93-.16l-2.4,1.72a23,23,0,0,0-3-2l.66-2.87A1.5,1.5,0,0,0,89,11.33l-1.35-.56a1.5,1.5,0,0,0-1.85.59l-1.56,2.5a22.87,22.87,0,0,0-3.56-.71l-.48-2.91A1.5,1.5,0,0,0,78.73,9H77.27a1.5,1.5,0,0,0-1.48,1.25l-.48,2.91a22.87,22.87,0,0,0-3.56.71l-1.56-2.5a1.5,1.5,0,0,0-1.85-.59L67,11.33a1.5,1.5,0,0,0-.89,1.72l.66,2.87a23,23,0,0,0-3,2l-2.4-1.71a1.5,1.5,0,0,0-1.93.16l-1,1a1.5,1.5,0,0,0-.16,1.93l1.71,2.4a23,23,0,0,0-2,3l-2.87-.66a1.5,1.5,0,0,0-1.72.89l-.56,1.35a1.5,1.5,0,0,0,.59,1.85l2.5,1.56a22.87,22.87,0,0,0-.71,3.56l-2.91.48A1.5,1.5,0,0,0,51,35.27v1.46a1.5,1.5,0,0,0,1.25,1.48l2.91.48a22.87,22.87,0,0,0,.71,3.56l-2.5,1.56a1.5,1.5,0,0,0-.59,1.85L53.33,47a1.5,1.5,0,0,0,1.72.89l2.87-.66a23,23,0,0,0,2,3l-1.71,2.4a1.5,1.5,0,0,0,.16,1.93l1,1a1.5,1.5,0,0,0,1.93.16l2.4-1.71a23,23,0,0,0,3,2l-.66,2.87A1.5,1.5,0,0,0,67,60.67l1.35.56a1.5,1.5,0,0,0,1.85-.59l1.56-2.5a22.87,22.87,0,0,0,3.56.71l.48,2.91A1.5,1.5,0,0,0,77.27,63h1.46a1.5,1.5,0,0,0,1.48-1.25l.48-2.91a22.87,22.87,0,0,0,3.56-.71l1.56,2.5a1.5,1.5,0,0,0,1.85.59L89,60.67a1.5,1.5,0,0,0,.89-1.72l-.66-2.87a23,23,0,0,0,3-2l2.4,1.71a1.5,1.5,0,0,0,1.93-.16l1-1a1.5,1.5,0,0,0,.16-1.93l-1.71-2.4a23,23,0,0,0,2-3l2.87.66a1.5,1.5,0,0,0,1.72-.89l.56-1.35a1.5,1.5,0,0,0-.59-1.85l-2.5-1.56a22.87,22.87,0,0,0,.71-3.56l2.91-.48A1.5,1.5,0,0,0,105,36.73Z"/><g class="cls-1"><path class="cls-5" d="M82,13.37c-.43-.08-.87-.15-1.31-.21l-.48-2.91A1.5,1.5,0,0,0,78.73,9H78V63h.73a1.5,1.5,0,0,0,1.48-1.25l.48-2.91c.44-.05.87-.13,1.31-.21Z"/></g><circle class="cls-4" cx="78" cy="36" r="18"/><g class="cls-1"><path class="cls-5" d="M82,53.54V18.46A18,18,0,0,0,78,18V54A18,18,0,0,0,82,53.54Z"/></g><g class="cls-1"><path class="cls-5" d="M78,21A18,18,0,0,1,95.92,37.5c0-.5.08-1,.08-1.5a18,18,0,0,0-36,0c0,.51,0,1,.08,1.5A18,18,0,0,1,78,21Z"/></g><path class="cls-3" d="M92,37.66V34.34l-2.85-.95a9.45,9.45,0,0,0-.84-2l1.34-2.68-2.34-2.34-2.68,1.34a9.46,9.46,0,0,0-2-.84L81.66,24H78.34l-.95,2.85a9.46,9.46,0,0,0-2,.84l-2.68-1.34-2.34,2.34,1.34,2.68a9.46,9.46,0,0,0-.84,2L68,34.34v3.31l2.85.95a9.46,9.46,0,0,0,.84,2l-1.34,2.68,2.34,2.34,2.68-1.34a9.46,9.46,0,0,0,2,.84L78.34,48h3.31l.95-2.85a9.46,9.46,0,0,0,2-.84l2.68,1.34,2.34-2.34-1.34-2.68a9.45,9.45,0,0,0,.84-2Z"/><g class="cls-1"><polygon class="cls-5" points="78 25.03 78 46.97 78.34 48 81.66 48 82 46.97 82 25.03 81.66 24 78.34 24 78 25.03"/></g><circle class="cls-4" cx="78" cy="36" r="6"/><g class="cls-1"><path class="cls-5" d="M82,40.46V31.54A6,6,0,0,0,78,30V42A6,6,0,0,0,82,40.46Z"/></g><g class="cls-1"><path class="cls-5" d="M78,33a6,6,0,0,1,5.8,4.5,6,6,0,1,0-11.61,0A6,6,0,0,1,78,33Z"/></g><path class="cls-6" d="M78.73,64H77.27a2.49,2.49,0,0,1-2.47-2.09l-.36-2.18c-.75-.11-1.5-.26-2.24-.44L71,61.16a2.49,2.49,0,0,1-3.08,1l-1.35-.56a2.5,2.5,0,0,1-1.48-2.87l.5-2.15c-.65-.39-1.28-.81-1.89-1.27l-1.8,1.29a2.49,2.49,0,0,1-3.22-.27l-1-1a2.49,2.49,0,0,1-.27-3.22l1.29-1.8q-.68-.92-1.27-1.89l-2.15.5a2.49,2.49,0,0,1-2.87-1.48L51.85,46a2.49,2.49,0,0,1,1-3.08l1.87-1.17c-.18-.74-.33-1.48-.44-2.24l-2.18-.36A2.49,2.49,0,0,1,50,36.73V35.27a2.49,2.49,0,0,1,2.09-2.47l2.18-.36c.11-.75.26-1.5.44-2.24L52.84,29a2.49,2.49,0,0,1-1-3.08l.56-1.35a2.49,2.49,0,0,1,2.87-1.48l2.15.5c.39-.65.81-1.28,1.27-1.89l-1.29-1.8a2.49,2.49,0,0,1,.27-3.22l1-1a2.49,2.49,0,0,1,3.22-.27l1.8,1.29c.61-.45,1.25-.88,1.89-1.27l-.5-2.15a2.5,2.5,0,0,1,1.48-2.87L68,9.85a2.49,2.49,0,0,1,3.08,1l1.17,1.87c.74-.18,1.48-.33,2.24-.44l.36-2.18A2.49,2.49,0,0,1,77.27,8h1.46a2.49,2.49,0,0,1,2.47,2.09l.36,2.18c.75.11,1.5.26,2.24.44L85,10.84a2.49,2.49,0,0,1,3.08-1l1.35.56a2.5,2.5,0,0,1,1.48,2.87l-.5,2.15c.65.39,1.28.81,1.89,1.27l1.8-1.29a2.49,2.49,0,0,1,3.22.27l1,1a2.49,2.49,0,0,1,.27,3.22l-1.29,1.8c.45.61.88,1.25,1.27,1.89l2.15-.5a2.49,2.49,0,0,1,2.87,1.48l.56,1.35a2.49,2.49,0,0,1-1,3.08l-1.87,1.17c.18.74.33,1.48.44,2.24l2.18.36A2.49,2.49,0,0,1,106,35.27v1.46a2.49,2.49,0,0,1-2.09,2.47l-2.18.36c-.11.75-.26,1.5-.44,2.24L103.16,43a2.49,2.49,0,0,1,1,3.08l-.56,1.35a2.49,2.49,0,0,1-2.87,1.48l-2.15-.5q-.59,1-1.27,1.89l1.29,1.8a2.49,2.49,0,0,1-.27,3.22l-1,1a2.5,2.5,0,0,1-3.22.27l-1.8-1.29c-.61.45-1.25.88-1.89,1.27l.5,2.15a2.5,2.5,0,0,1-1.48,2.87L88,62.15a2.49,2.49,0,0,1-3.08-1l-1.17-1.87c-.74.18-1.48.33-2.24.44l-.36,2.18A2.49,2.49,0,0,1,78.73,64Zm-7-6.87a1,1,0,0,1,.27,0,21.92,21.92,0,0,0,3.4.67,1,1,0,0,1,.87.83l.48,2.91a.5.5,0,0,0,.49.42h1.46a.5.5,0,0,0,.49-.42l.48-2.91a1,1,0,0,1,.87-.83,22,22,0,0,0,3.4-.67,1,1,0,0,1,1.12.43l1.56,2.5a.5.5,0,0,0,.61.2l1.35-.56a.5.5,0,0,0,.3-.58l-.67-2.87a1,1,0,0,1,.49-1.1,21.88,21.88,0,0,0,2.88-1.93,1,1,0,0,1,1.2,0L95.22,55a.5.5,0,0,0,.64-.05l1-1a.5.5,0,0,0,.05-.64l-1.71-2.4a1,1,0,0,1,0-1.2,22.06,22.06,0,0,0,1.93-2.88,1,1,0,0,1,1.1-.49l2.87.67a.5.5,0,0,0,.58-.3l.56-1.35a.5.5,0,0,0-.2-.62L99.6,43.1A1,1,0,0,1,99.17,42a21.92,21.92,0,0,0,.67-3.4,1,1,0,0,1,.83-.87l2.91-.48a.5.5,0,0,0,.42-.49V35.27a.5.5,0,0,0-.42-.49l-2.91-.48a1,1,0,0,1-.83-.87,21.92,21.92,0,0,0-.67-3.4,1,1,0,0,1,.43-1.12l2.5-1.56a.5.5,0,0,0,.2-.62l-.56-1.35a.5.5,0,0,0-.58-.3l-2.87.67a1,1,0,0,1-1.1-.49,21.88,21.88,0,0,0-1.93-2.88,1,1,0,0,1,0-1.2L97,18.78a.5.5,0,0,0-.05-.64l-1-1a.5.5,0,0,0-.64-.05l-2.4,1.71a1,1,0,0,1-1.2,0,21.88,21.88,0,0,0-2.88-1.93,1,1,0,0,1-.49-1.1l.67-2.87a.5.5,0,0,0-.3-.58l-1.35-.56a.5.5,0,0,0-.62.2L85.1,14.4a1,1,0,0,1-1.12.43,22,22,0,0,0-3.4-.67,1,1,0,0,1-.87-.83l-.48-2.91a.5.5,0,0,0-.49-.42H77.27a.5.5,0,0,0-.49.42l-.48,2.91a1,1,0,0,1-.87.83,21.92,21.92,0,0,0-3.4.67,1,1,0,0,1-1.12-.43l-1.56-2.5a.5.5,0,0,0-.62-.2l-1.35.56a.5.5,0,0,0-.3.58l.67,2.87a1,1,0,0,1-.49,1.1,21.88,21.88,0,0,0-2.88,1.93,1,1,0,0,1-1.2,0L60.78,17a.5.5,0,0,0-.64.05l-1,1a.5.5,0,0,0-.05.64l1.71,2.4a1,1,0,0,1,0,1.2,21.88,21.88,0,0,0-1.93,2.88,1,1,0,0,1-1.1.49l-2.87-.67a.5.5,0,0,0-.58.3l-.56,1.35a.5.5,0,0,0,.2.62l2.5,1.56A1,1,0,0,1,56.83,30a21.92,21.92,0,0,0-.67,3.4,1,1,0,0,1-.83.87l-2.91.48a.5.5,0,0,0-.42.49v1.46a.5.5,0,0,0,.42.49l2.91.48a1,1,0,0,1,.83.87,21.92,21.92,0,0,0,.67,3.4,1,1,0,0,1-.43,1.12l-2.5,1.56a.5.5,0,0,0-.2.62l.56,1.35a.5.5,0,0,0,.58.3l2.87-.67a1,1,0,0,1,1.1.49,22.06,22.06,0,0,0,1.93,2.88,1,1,0,0,1,0,1.2L59,53.22a.5.5,0,0,0,.05.64l1,1a.5.5,0,0,0,.64.05l2.4-1.71a1,1,0,0,1,1.2,0,21.88,21.88,0,0,0,2.88,1.93,1,1,0,0,1,.49,1.1l-.67,2.87a.5.5,0,0,0,.3.58l1.35.56a.5.5,0,0,0,.62-.2l1.56-2.5A1,1,0,0,1,71.75,57.13Z"/><path class="cls-6" d="M78,55A19,19,0,1,1,97,36,19,19,0,0,1,78,55Zm0-36A17,17,0,1,0,95,36,17,17,0,0,0,78,19Z"/><path class="cls-6" d="M81.66,49H78.34a1,1,0,0,1-.95-.68L76.61,46a10.36,10.36,0,0,1-1.25-.52l-2.22,1.11A1,1,0,0,1,72,46.36L69.64,44a1,1,0,0,1-.19-1.15l1.11-2.22A10.36,10.36,0,0,1,70,39.39l-2.36-.79a1,1,0,0,1-.68-.95V34.34a1,1,0,0,1,.68-.95L70,32.61a10.36,10.36,0,0,1,.52-1.25l-1.11-2.22A1,1,0,0,1,69.64,28L72,25.64a1,1,0,0,1,1.15-.19l2.22,1.11A10.36,10.36,0,0,1,76.61,26l.79-2.36a1,1,0,0,1,.95-.68h3.31a1,1,0,0,1,.95.68L83.39,26a10.36,10.36,0,0,1,1.25.52l2.22-1.11a1,1,0,0,1,1.15.19L90.36,28a1,1,0,0,1,.19,1.15l-1.11,2.22A10.36,10.36,0,0,1,90,32.61l2.36.79a1,1,0,0,1,.68.95v3.31a1,1,0,0,1-.68.95L90,39.39a10.36,10.36,0,0,1-.52,1.25l1.11,2.22A1,1,0,0,1,90.36,44L88,46.36a1,1,0,0,1-1.15.19l-2.22-1.11a10.36,10.36,0,0,1-1.25.52l-.79,2.36A1,1,0,0,1,81.66,49Zm-2.59-2h1.87l.72-2.16a1,1,0,0,1,.68-.65,8.46,8.46,0,0,0,1.81-.75,1,1,0,0,1,.93,0l2,1,1.32-1.32-1-2a1,1,0,0,1,0-.93,8.46,8.46,0,0,0,.75-1.81,1,1,0,0,1,.65-.68L91,36.93V35.07l-2.16-.72a1,1,0,0,1-.65-.68,8.46,8.46,0,0,0-.75-1.81,1,1,0,0,1,0-.93l1-2-1.32-1.32-2,1a1,1,0,0,1-.93,0,8.46,8.46,0,0,0-1.81-.75,1,1,0,0,1-.68-.65L80.93,25H79.07l-.72,2.16a1,1,0,0,1-.68.65,8.46,8.46,0,0,0-1.81.75,1,1,0,0,1-.93,0l-2-1-1.32,1.32,1,2a1,1,0,0,1,0,.93,8.46,8.46,0,0,0-.75,1.81,1,1,0,0,1-.65.68L69,35.07v1.87l2.16.72a1,1,0,0,1,.65.68,8.46,8.46,0,0,0,.75,1.81,1,1,0,0,1,0,.93l-1,2,1.32,1.32,2-1a1,1,0,0,1,.93,0,8.46,8.46,0,0,0,1.81.75,1,1,0,0,1,.68.65ZM92,37.66h0Z"/><path class="cls-6" d="M78,43a7,7,0,1,1,7-7A7,7,0,0,1,78,43Zm0-12a5,5,0,1,0,5,5A5,5,0,0,0,78,31Z"/><path class="cls-8" d="M78,63A27,27,0,0,1,78,9Z"/><g class="cls-1"><path class="cls-9" d="M51.08,34c0,.66-.08,1.33-.08,2A27,27,0,0,0,78,63V59A27,27,0,0,1,51.08,34Z"/></g><g class="cls-1"><path class="cls-7" d="M51,36c0,.67,0,1.34.08,2A27,27,0,0,1,78,13V9A27,27,0,0,0,51,36Z"/></g><g class="cls-1"><path class="cls-6" d="M78,64c-5.24,0-19-8.61-19-28S72.76,8,78,8a1,1,0,0,1,0,2c-4.11,0-17,7.82-17,26,0,17.15,11.94,26,17,26a1,1,0,0,1,0,2Z"/><path class="cls-6" d="M78,64c-4.27,0-10-13.84-10-28a54.46,54.46,0,0,1,3.54-19.54C72.32,14.48,75.08,8,78,8a1,1,0,0,1,0,2c-1.55.07-8,10.59-8,26,0,14.92,6.13,26,8,26a1,1,0,0,1,0,2Z"/><path class="cls-6" d="M78,37H51a1,1,0,0,1,0-2H78a1,1,0,0,1,0,2Z"/><path class="cls-6" d="M72.32,25.28c-7.59,0-14-.89-17.72-2.51a1,1,0,1,1,.8-1.83c4.3,1.87,12.95,2.71,22.55,2.19a1,1,0,0,1,1.05.94,1,1,0,0,1-.94,1.05C76.09,25.23,74.17,25.28,72.32,25.28Z"/><path class="cls-6" d="M55,51.15a1,1,0,0,1-.4-1.92c4.64-2,13.41-2.9,23.45-2.35a1,1,0,1,1-.11,2c-9.6-.52-18.24.32-22.55,2.19A1,1,0,0,1,55,51.15Z"/></g><path class="cls-6" d="M78,64A28,28,0,0,1,78,8a1,1,0,0,1,1,1V63A1,1,0,0,1,78,64ZM77,10a26,26,0,0,0,0,52Z"/><path class="cls-10" d="M29,21A13,13,0,1,0,5.22,28.26,20.79,20.79,0,0,1,9,39.88V42H23V39.95a20.29,20.29,0,0,1,3.69-11.56A12.9,12.9,0,0,0,29,21Z"/><g class="cls-11"><path class="cls-7" d="M13.37,28.26a19.62,19.62,0,0,1-1.29-9C12.5,14,14.9,9.72,18,8.42a5.09,5.09,0,0,0-2.92-.34c-3.59.66-6.52,5.32-7,11.14a19.62,19.62,0,0,0,1.29,9,30.41,30.41,0,0,1,2.33,11.62V42h4V39.88A30.41,30.41,0,0,0,13.37,28.26Z"/></g><g class="cls-12"><path class="cls-13" d="M9,36c0,.29,0,.58,0,.88V39H23V36.95c0-.32,0-.63,0-.95Z"/></g><g class="cls-12"><path class="cls-6" d="M18,28H14a1,1,0,0,1,0-2h4a1,1,0,0,1,0,2Z"/><path class="cls-6" d="M18,40a1,1,0,0,1-1-1V27a1,1,0,0,1,2,0V39A1,1,0,0,1,18,40Z"/><path class="cls-6" d="M14,40a1,1,0,0,1-1-1V27a1,1,0,0,1,2,0V39A1,1,0,0,1,14,40Z"/><path class="cls-6" d="M14,28H12a3,3,0,1,1,3-3v2A1,1,0,0,1,14,28Zm-2-4a1,1,0,0,0,0,2h1V25A1,1,0,0,0,12,24Z"/><path class="cls-6" d="M20,28H18a1,1,0,0,1-1-1V25a3,3,0,1,1,3,3Zm-1-2h1a1,1,0,1,0-1-1Z"/></g><path class="cls-6" d="M23,43H9a1,1,0,0,1-1-1V39.88A19.83,19.83,0,0,0,4.39,28.82,14,14,0,1,1,30,21a13.88,13.88,0,0,1-2.49,8A19.24,19.24,0,0,0,24,40v2A1,1,0,0,1,23,43ZM10,41H22V40a21.22,21.22,0,0,1,3.87-12.13A11.9,11.9,0,0,0,28,21a12,12,0,0,0-4-9,11.89,11.89,0,0,0-9.39-3A12,12,0,0,0,6,27.7a21.82,21.82,0,0,1,4,12.18Z"/><rect class="cls-3" height="3" width="14" x="9" y="42"/><path class="cls-6" d="M23,46H9a1,1,0,0,1-1-1V42a1,1,0,0,1,1-1H23a1,1,0,0,1,1,1v3A1,1,0,0,1,23,46ZM10,44H22V43H10Z"/><rect class="cls-3" height="3" width="14" x="9" y="39"/><path class="cls-6" d="M23,43H9a1,1,0,0,1-1-1V39a1,1,0,0,1,1-1H23a1,1,0,0,1,1,1v3A1,1,0,0,1,23,43ZM10,41H22V40H10Z"/><polygon class="cls-3" points="20 48 12 48 9 45 23 45 20 48"/><path class="cls-6" d="M20,49H12a1,1,0,0,1-.71-.29l-3-3A1,1,0,0,1,9,44H23a1,1,0,0,1,.71,1.71l-3,3A1,1,0,0,1,20,49Zm-7.59-2h7.17l1-1H11.41Z"/><path class="cls-14" d="M18,51H14a2,2,0,0,1-2-2V48h8v1A2,2,0,0,1,18,51Z"/><path class="cls-6" d="M18,52H14a3,3,0,0,1-3-3V48a1,1,0,0,1,1-1h8a1,1,0,0,1,1,1v1A3,3,0,0,1,18,52Zm-5-3a1,1,0,0,0,1,1h4a1,1,0,0,0,1-1Z"/><path class="cls-10" d="M46,114.31l2.18-8.55a.66.66,0,0,0-1.23-.4l-8.46,11.19a.76.76,0,0,0,.56,1.16h6.18L43,126.24a.66.66,0,0,0,1.23.4l9.31-11.21a.76.76,0,0,0-.56-1.16Z"/><path class="cls-6" d="M43.65,128a1.62,1.62,0,0,1-.41-.05A1.72,1.72,0,0,1,42,126.24a1,1,0,0,1,0-.25l1.92-7.29H39.05a1.64,1.64,0,0,1-1.42-.83,1.84,1.84,0,0,1,0-1.82l.08-.12,8.43-11.14a1.61,1.61,0,0,1,1.79-.74,1.72,1.72,0,0,1,1.27,1.71,1,1,0,0,1,0,.25l-1.86,7.3,5.66,0a1.64,1.64,0,0,1,1.42.83,1.84,1.84,0,0,1,0,1.82l-.1.15L45,127.23A1.63,1.63,0,0,1,43.65,128Zm1.58-11.31a1,1,0,0,1,1,1.25l-1.83,6.93,8-9.6-6.34,0h0a1,1,0,0,1-1-1.25l1.73-6.8-7.14,9.44h5.61Z"/></g><rect class="cls-15" height="66" rx="2" ry="2" width="100" x="14" y="41"/><g class="cls-1"><path class="cls-16" d="M112,104H16a2,2,0,0,1-2-2v3a2,2,0,0,0,2,2h96a2,2,0,0,0,2-2v-3A2,2,0,0,1,112,104Z"/></g><g class="cls-1"><path class="cls-7" d="M16,44h96a2,2,0,0,1,2,2V43a2,2,0,0,0-2-2H16a2,2,0,0,0-2,2v3A2,2,0,0,1,16,44Z"/></g><path class="cls-6" d="M112,108H16a3,3,0,0,1-3-3V43a3,3,0,0,1,3-3h96a3,3,0,0,1,3,3v62A3,3,0,0,1,112,108ZM16,42a1,1,0,0,0-1,1v62a1,1,0,0,0,1,1h96a1,1,0,0,0,1-1V43a1,1,0,0,0-1-1Z"/><rect class="cls-4" height="6" width="46" x="18" y="97"/><path class="cls-6" d="M64,104H18a1,1,0,0,1-1-1V97a1,1,0,0,1,1-1H64a1,1,0,0,1,1,1v6A1,1,0,0,1,64,104Zm-45-2H63V98H19Z"/><path class="cls-4" d="M18,100v3H64a3,3,0,0,0-3-3Z"/><path class="cls-6" d="M64,104H18a1,1,0,0,1-1-1v-3a1,1,0,0,1,1-1H61a4,4,0,0,1,4,4A1,1,0,0,1,64,104Zm-45-2H62.73A2,2,0,0,0,61,101H19Z"/><path class="cls-7" d="M58,37H18V97H58a6,6,0,0,1,6,6V42C64,38.69,61.31,37,58,37Z"/><g class="cls-1"><path class="cls-5" d="M58,37H54c3.31,0,6,1.69,6,5V97.35A6,6,0,0,1,64,103V42C64,38.69,61.31,37,58,37Z"/></g><path class="cls-6" d="M64,104a1,1,0,0,1-1-1,5,5,0,0,0-5-5H18a1,1,0,0,1-1-1V37a1,1,0,0,1,1-1H58c4.19,0,7,2.41,7,6v61A1,1,0,0,1,64,104ZM19,96H58a7,7,0,0,1,5,2.11V42c0-2.95-2.58-4-5-4H19Z"/><rect class="cls-4" height="6" width="46" x="64" y="97"/><path class="cls-6" d="M110,104H64a1,1,0,0,1-1-1V97a1,1,0,0,1,1-1h46a1,1,0,0,1,1,1v6A1,1,0,0,1,110,104Zm-45-2h44V98H65Z"/><path class="cls-4" d="M110,100v3H64a3,3,0,0,1,3-3Z"/><path class="cls-6" d="M110,104H64a1,1,0,0,1-1-1,4,4,0,0,1,4-4h43a1,1,0,0,1,1,1v3A1,1,0,0,1,110,104Zm-44.73-2H109v-1H67A2,2,0,0,0,65.27,102Z"/><path class="cls-7" d="M70,37h40V97H70a6,6,0,0,0-6,6V42C64,38.69,66.69,37,70,37Z"/><g class="cls-1"><path class="cls-5" d="M70,37h4c-3.31,0-6,1.69-6,5V97.35A6,6,0,0,0,64,103V42C64,38.69,66.69,37,70,37Z"/></g><path class="cls-6" d="M64,104a1,1,0,0,1-1-1V42c0-3.59,2.81-6,7-6h40a1,1,0,0,1,1,1V97a1,1,0,0,1-1,1H70a5,5,0,0,0-5,5A1,1,0,0,1,64,104Zm6-66c-2.42,0-5,1.05-5,4V98.11A7,7,0,0,1,70,96h39V38Z"/><g class="cls-12"><path class="cls-6" d="M58,56H28a1,1,0,0,1,0-2H58a1,1,0,0,1,0,2Z"/><path class="cls-6" d="M58,60H28a1,1,0,0,1,0-2H58a1,1,0,0,1,0,2Z"/><path class="cls-6" d="M24,56a1,1,0,0,1-1-1,.83.83,0,0,1,.08-.38,1,1,0,0,1,.21-.33l.15-.12a.74.74,0,0,1,.18-.09A.65.65,0,0,1,23.8,54a1,1,0,0,1,1.12.6.94.94,0,0,1,0,.76,1.16,1.16,0,0,1-.21.33A1,1,0,0,1,24,56Z"/></g><g class="cls-12"><path class="cls-6" d="M58,66H28a1,1,0,0,1,0-2H58a1,1,0,0,1,0,2Z"/><path class="cls-6" d="M48,70H28a1,1,0,0,1,0-2H48a1,1,0,0,1,0,2Z"/><path class="cls-6" d="M24,66a1,1,0,0,1-.38-.08,1.15,1.15,0,0,1-.33-.21,1.22,1.22,0,0,1-.22-.33A1,1,0,0,1,23,65a1,1,0,0,1,.29-.71l.15-.12a.74.74,0,0,1,.18-.09A.65.65,0,0,1,23.8,64a1,1,0,0,1,.58.06,1.16,1.16,0,0,1,.33.21A1.05,1.05,0,0,1,25,65a1,1,0,0,1-.29.71,1.16,1.16,0,0,1-.33.21A1,1,0,0,1,24,66Z"/></g><g class="cls-12"><path class="cls-6" d="M58,76H28a1,1,0,0,1,0-2H58a1,1,0,0,1,0,2Z"/><path class="cls-6" d="M52,80H28a1,1,0,0,1,0-2H52a1,1,0,0,1,0,2Z"/><path class="cls-6" d="M24,76a1,1,0,0,1-.38-.08,1.15,1.15,0,0,1-.33-.21A1,1,0,0,1,23,75a.83.83,0,0,1,.08-.38,1,1,0,0,1,.21-.33l.15-.12a.74.74,0,0,1,.18-.09A.65.65,0,0,1,23.8,74a1,1,0,0,1,.91.27,1.15,1.15,0,0,1,.21.33.94.94,0,0,1,0,.76.9.9,0,0,1-.54.54A1,1,0,0,1,24,76Z"/></g><g class="cls-12"><path class="cls-6" d="M58,86H28a1,1,0,0,1,0-2H58a1,1,0,0,1,0,2Z"/><path class="cls-6" d="M54,90H28a1,1,0,0,1,0-2H54a1,1,0,0,1,0,2Z"/><path class="cls-6" d="M24,86a1,1,0,0,1-.71-.29,1.3,1.3,0,0,1-.22-.33A1,1,0,0,1,23,85a.83.83,0,0,1,.08-.38,1,1,0,0,1,.21-.33l.15-.12a.74.74,0,0,1,.18-.09A.65.65,0,0,1,23.8,84a1,1,0,0,1,1.12.6.94.94,0,0,1,0,.76,1.16,1.16,0,0,1-.21.33A1,1,0,0,1,24,86Z"/></g><path class="cls-17" d="M41,50a1,1,0,0,1-.71-.29l-2-2a1,1,0,0,1,1.41-1.41l1.21,1.21,3.3-4.13a1,1,0,1,1,1.56,1.25l-4,5a1,1,0,0,1-.73.37Z"/><g class="cls-12"><path class="cls-6" d="M104,56H74a1,1,0,0,1,0-2h30a1,1,0,0,1,0,2Z"/><path class="cls-6" d="M104,60H74a1,1,0,0,1,0-2h30a1,1,0,0,1,0,2Z"/><path class="cls-6" d="M70,56a1,1,0,0,1-.38-.08,1.15,1.15,0,0,1-.33-.21A1,1,0,0,1,69,55a.83.83,0,0,1,.08-.38,1.15,1.15,0,0,1,.21-.33,1,1,0,0,1,1.42,0,1,1,0,0,1,.21.33,1,1,0,0,1-.21,1.09,1.16,1.16,0,0,1-.33.21A1,1,0,0,1,70,56Z"/></g><g class="cls-12"><path class="cls-6" d="M104,66H74a1,1,0,0,1,0-2h30a1,1,0,0,1,0,2Z"/><path class="cls-6" d="M94,70H74a1,1,0,0,1,0-2H94a1,1,0,0,1,0,2Z"/><path class="cls-6" d="M70,66a1,1,0,0,1-.38-.08,1.15,1.15,0,0,1-.33-.21,1.5,1.5,0,0,1-.22-.33A1,1,0,0,1,69,65a1,1,0,0,1,.29-.71A1,1,0,0,1,70.2,64l.18.06a.74.74,0,0,1,.18.09l.15.12A1.05,1.05,0,0,1,71,65a1,1,0,0,1-.08.38.9.9,0,0,1-.54.54A1,1,0,0,1,70,66Z"/></g><g class="cls-12"><path class="cls-6" d="M104,76H74a1,1,0,0,1,0-2h30a1,1,0,0,1,0,2Z"/><path class="cls-6" d="M98,80H74a1,1,0,0,1,0-2H98a1,1,0,0,1,0,2Z"/><path class="cls-6" d="M70,76a1,1,0,0,1-.38-.07,1.44,1.44,0,0,1-.33-.22A1,1,0,0,1,69,75a1.39,1.39,0,0,1,0-.2.65.65,0,0,1,.06-.18.74.74,0,0,1,.09-.18,1.61,1.61,0,0,1,.12-.15,1,1,0,0,1,1.42,0l.12.15a.78.78,0,0,1,.09.18.62.62,0,0,1,.06.18,1.27,1.27,0,0,1,0,.2,1,1,0,0,1-.29.71,1.46,1.46,0,0,1-.33.22A1,1,0,0,1,70,76Z"/></g><g class="cls-12"><path class="cls-6" d="M104,86H74a1,1,0,0,1,0-2h30a1,1,0,0,1,0,2Z"/><path class="cls-6" d="M100,90H74a1,1,0,0,1,0-2h26a1,1,0,0,1,0,2Z"/><path class="cls-6" d="M70,86a1,1,0,0,1-.38-.08,1.15,1.15,0,0,1-.33-.21,1.5,1.5,0,0,1-.22-.33A1,1,0,0,1,69,85a.83.83,0,0,1,.08-.38,1.15,1.15,0,0,1,.21-.33A1,1,0,0,1,70.2,84l.18.06a.74.74,0,0,1,.18.09l.15.12a1.15,1.15,0,0,1,.21.33.94.94,0,0,1,0,.76.9.9,0,0,1-.54.54A1,1,0,0,1,70,86Z"/></g><path class="cls-18" d="M85,50a1,1,0,0,1-.71-1.71l5-5a1,1,0,0,1,1.41,1.41l-5,5A1,1,0,0,1,85,50Z"/><path class="cls-18" d="M90,50a1,1,0,0,1-.71-.29l-5-5a1,1,0,0,1,1.41-1.41l5,5A1,1,0,0,1,90,50Z"/></svg>