<?xml version="1.0" ?><svg data-name="001" id="_001" viewBox="0 0 128 128" xmlns="http://www.w3.org/2000/svg"><defs><style>.cls-1{opacity:0.3;}.cls-2{fill:#c9c1f5;}.cls-3{fill:#eef6ff;}.cls-4{fill:#6d6daa;}.cls-5{fill:#939fc6;}.cls-6{fill:#5cbeff;}.cls-7{fill:#ff9797;}.cls-8{fill:#5b6875;}.cls-9{fill:#96d7ff;}.cls-10{fill:#b1f1a8;}.cls-11{fill:#fff27d;}.cls-12{fill:#ced8ee;}.cls-13{fill:#7690a8;}.cls-14{fill:#fff;}.cls-15{opacity:0.5;}.cls-16{fill:#ff99b1;}</style></defs><title/><g class="cls-1"><path class="cls-2" d="M64.24,8.6a37.92,37.92,0,1,0-45.11,61,20,20,0,0,1,7.52,20.81,29.9,29.9,0,1,0,59,6.69c0-8.36,5.36-15.88,13.5-17.78A32.82,32.82,0,0,0,87.8,14.74,32.71,32.71,0,0,1,64.24,8.6Z"/><polygon class="cls-3" points="45.77 55.91 12.24 61.5 4.67 16.13 30.32 11.85 39.52 18.43 45.77 55.91"/><path class="cls-4" d="M12.24,62.5a1,1,0,0,1-1-.84L3.68,16.29a1,1,0,0,1,.82-1.15l25.65-4.28a1,1,0,0,1,.75.17l9.21,6.57a1,1,0,0,1,.41.65l6.25,37.48a1,1,0,0,1-.82,1.15L12.4,62.49ZM5.82,17l7.24,43.4,31.56-5.27L38.6,19l-8.53-6.09Z"/><polygon class="cls-3" points="30.32 11.85 31.63 19.74 39.52 18.43 30.32 11.85"/><path class="cls-4" d="M31.63,20.74a1,1,0,0,1-1-.84L29.33,12a1,1,0,0,1,1.57-1l9.21,6.57a1,1,0,0,1-.42,1.8L31.8,20.73Zm.07-6.67.75,4.52L37,17.84Z"/><path class="cls-5" d="M16.83,23.21a1,1,0,0,1-.16-2l3-.49a1,1,0,0,1,.33,2l-3,.49Z"/><path class="cls-6" d="M23.74,22.06a1,1,0,0,1-.16-2l3.95-.66a1,1,0,0,1,.33,2L23.9,22Z"/><path class="cls-5" d="M17.49,27.16a1,1,0,0,1-.16-2l4.93-.82a1,1,0,1,1,.33,2l-4.93.82Z"/><path class="cls-5" d="M26.37,25.67a1,1,0,0,1-.16-2l2-.33a1,1,0,0,1,.33,2l-2,.33Z"/><path class="cls-5" d="M32.29,24.69a1,1,0,0,1-.16-2l2-.33a1,1,0,1,1,.33,2l-2,.33Z"/><path class="cls-5" d="M31.3,37a1,1,0,0,1-.16-2l4.93-.82a1,1,0,0,1,.33,2L31.47,37Z"/><path class="cls-7" d="M25.39,38a1,1,0,0,1-.16-2l2-.33a1,1,0,0,1,.33,2l-2,.33Z"/><path class="cls-8" d="M19.47,39a1,1,0,0,1-.16-2l2-.33a1,1,0,1,1,.33,2l-2,.33Z"/><path class="cls-5" d="M30,41.29a1,1,0,0,1-.16-2l6.9-1.15a1,1,0,1,1,.33,2l-6.9,1.15Z"/><path class="cls-5" d="M20.13,42.94A1,1,0,0,1,20,41l5.92-1a1,1,0,1,1,.33,2l-5.92,1Z"/><path class="cls-5" d="M18.15,31.1a1,1,0,0,1-.16-2L24.89,28a1,1,0,0,1,.33,2l-6.9,1.15Z"/><path class="cls-7" d="M29,29.29a1,1,0,0,1-.16-2l5.92-1a1,1,0,0,1,.33,2l-5.92,1Z"/><path class="cls-7" d="M22.1,54.77a1,1,0,0,1-.16-2l6.9-1.15a1,1,0,1,1,.33,2l-6.9,1.15Z"/><path class="cls-5" d="M33,53a1,1,0,0,1-.16-2l5.92-1A1,1,0,1,1,39,52l-5.92,1Z"/><path class="cls-5" d="M20.78,46.88a1,1,0,0,1-.16-2l1-.16a1,1,0,1,1,.33,2l-1,.16Z"/><path class="cls-6" d="M25.72,46.06a1,1,0,0,1-.16-2l5.92-1a1,1,0,0,1,.33,2l-5.92,1Z"/><path class="cls-5" d="M35.58,44.41a1,1,0,0,1-.16-2l2-.33a1,1,0,0,1,.33,2l-2,.33Z"/><path class="cls-5" d="M21.44,50.83a1,1,0,0,1-.16-2l8.88-1.48a1,1,0,0,1,.33,2l-8.88,1.48Z"/><path class="cls-6" d="M34.27,48.69a1,1,0,0,1-.16-2L38,46a1,1,0,1,1,.33,2l-3.95.66Z"/><path class="cls-6" d="M18.81,35a1,1,0,0,1-.16-2l3-.49a1,1,0,1,1,.33,2L19,35Z"/><path class="cls-5" d="M25.71,33.9a1,1,0,0,1-.16-2l9.86-1.65a1,1,0,1,1,.33,2l-9.86,1.65Z"/><path class="cls-4" d="M11.9,24a1,1,0,0,1-.16-2l1-.16a1,1,0,0,1,.33,2l-1,.16Z"/><path class="cls-4" d="M12.56,28a1,1,0,0,1-.16-2l1-.16a1,1,0,1,1,.33,2l-1,.16Z"/><path class="cls-4" d="M13.22,31.92a1,1,0,0,1-.16-2l1-.16a1,1,0,0,1,.33,2l-1,.16Z"/><path class="cls-4" d="M13.88,35.87a1,1,0,0,1-.16-2l1-.16a1,1,0,0,1,.33,2l-1,.16Z"/><path class="cls-4" d="M14.54,39.81a1,1,0,0,1-.16-2l1-.16a1,1,0,0,1,.33,2l-1,.16Z"/><path class="cls-4" d="M15.19,43.76a1,1,0,0,1-.16-2l1-.16a1,1,0,1,1,.33,2l-1,.16Z"/><path class="cls-4" d="M15.85,47.71a1,1,0,0,1-.16-2l1-.16a1,1,0,0,1,.33,2l-1,.16Z"/><path class="cls-4" d="M16.51,51.65a1,1,0,0,1-.16-2l1-.16a1,1,0,0,1,.33,2l-1,.16Z"/><path class="cls-4" d="M17.17,55.6a1,1,0,0,1-.16-2l1-.16a1,1,0,0,1,.33,2l-1,.16Z"/><rect class="cls-3" height="40.23" rx="1.49" ry="1.49" transform="translate(8.38 63.31) rotate(-73.03)" width="31.29" x="31.3" y="5.88"/><path class="cls-4" d="M60.62,47.46a2.48,2.48,0,0,1-.73-.11L24.27,36.48a2.49,2.49,0,0,1-1.65-3.11L30.88,6.29A2.49,2.49,0,0,1,34,4.64L69.61,15.51a2.49,2.49,0,0,1,1.65,3.11L63,45.69A2.49,2.49,0,0,1,60.62,47.46ZM33.26,6.53a.49.49,0,0,0-.47.35L24.53,34a.49.49,0,0,0,.33.61L60.48,45.44h0a.49.49,0,0,0,.61-.33L69.36,18a.49.49,0,0,0-.33-.61L33.4,6.55Z"/><rect class="cls-9" height="34.27" transform="translate(8.38 63.31) rotate(-73.03)" width="25.33" x="34.28" y="8.86"/><polygon class="cls-10" points="59.64 43.11 26.86 33.11 38.45 25.74 42.41 33.18 54.44 24.39 59.64 43.11"/><path class="cls-4" d="M59.64,44.11a1,1,0,0,1-.29,0l-32.78-10a1,1,0,0,1-.24-1.8L37.92,24.9a1,1,0,0,1,1.42.37l3.42,6.42,11.1-8.11a1,1,0,0,1,1.55.54L60.6,42.84a1,1,0,0,1-1,1.27ZM29.23,32.78l29,8.83L53.87,26,43,34a1,1,0,0,1-1.47-.34l-3.45-6.49Z"/><path class="cls-4" d="M59.64,44.11a1,1,0,0,1-.29,0l-32.78-10a1,1,0,0,1-.66-1.25L33.29,8.59a1,1,0,0,1,1.25-.66l32.78,10A1,1,0,0,1,68,19.17L60.59,43.4a1,1,0,0,1-1,.71ZM28.11,32.44,59,41.86l6.81-22.31L34.92,10.13Z"/><circle class="cls-11" cx="39.2" cy="18.18" r="2.98" transform="translate(10.37 50.37) rotate(-73.03)"/><path class="cls-4" d="M39.2,22.16A4,4,0,1,1,43,19.34,4,4,0,0,1,39.2,22.16Zm0-6a2,2,0,0,0-.58,3.87,2,2,0,0,0,2.47-1.32h0A2,2,0,0,0,39.2,16.2Z"/><rect class="cls-3" height="46" transform="translate(33.37 112.7) rotate(-84.51)" width="52" x="52.71" y="14.98"/><path class="cls-12" d="M104.48,10.32l-.38,4L58.31,9.9l.38-4a2,2,0,0,1,2.18-1.8l41.81,4A2,2,0,0,1,104.48,10.32Z"/><rect class="cls-2" height="38" transform="translate(50.61 99.82) rotate(-84.51)" width="12" x="74.25" y="3.06"/><path class="cls-4" d="M98.58,30.85h-.1L60.66,27.21a1,1,0,0,1-.9-1.09l1.15-11.94a1,1,0,0,1,1.09-.9l37.83,3.64a1,1,0,0,1,.9,1.09L99.58,29.94a1,1,0,0,1-1,.9ZM61.85,25.31l35.83,3.44,1-10L62.81,15.36Z"/><polyline class="cls-2" points="57.31 62.05 57.7 58.07 95.52 61.7 95.14 65.68"/><path class="cls-4" d="M95.14,66.68H95a1,1,0,0,1-.9-1.09l.29-3L58.6,59.16l-.29,3a1,1,0,0,1-2-.19l.38-4a1,1,0,0,1,1.09-.9l37.83,3.64a1,1,0,0,1,.9,1.09l-.38,4A1,1,0,0,1,95.14,66.68Z"/><rect class="cls-10" height="10" transform="translate(23.18 96.82) rotate(-84.51)" width="6" x="61.87" y="30.65"/><path class="cls-4" d="M69.57,40.11h-.1l-10-1a1,1,0,0,1-.9-1.09l.57-6a1,1,0,0,1,1.09-.9l10,1a1,1,0,0,1,.9,1.09l-.57,6A1,1,0,0,1,69.57,40.11ZM60.7,37.26l8,.77L69,34l-8-.77Z"/><rect class="cls-10" height="10" transform="translate(34.45 111.9) rotate(-84.51)" width="6" x="75.81" y="31.99"/><path class="cls-4" d="M83.5,41.45h-.1l-10-1a1,1,0,0,1-.9-1.09l.57-6a1,1,0,0,1,1.09-.9l10,1a1,1,0,0,1,.9,1.09l-.57,6a1,1,0,0,1-1,.9ZM74.64,38.6l8,.77.38-4-8-.77Z"/><rect class="cls-10" height="10" transform="translate(45.72 126.98) rotate(-84.51)" width="6" x="89.75" y="33.33"/><path class="cls-4" d="M97.44,42.79h-.1l-10-1a1,1,0,0,1-.9-1.09l.57-6a1,1,0,0,1,1.09-.9l10,1a1,1,0,0,1,.9,1.09l-.57,6a1,1,0,0,1-1,.9Zm-8.86-2.86,8,.77.38-4L89,36Z"/><path class="cls-4" d="M99.12,67.07H99l-45.79-4.4a1,1,0,0,1-.9-1.09L57.7,5.83A3,3,0,0,1,61,3.13l41.81,4a3,3,0,0,1,2.7,3.27l-.38,4h0l-5,51.76A1,1,0,0,1,99.12,67.07Zm-44.7-6.3L98.22,65l5.26-54.75a1,1,0,0,0-.9-1.09l-41.81-4a1,1,0,0,0-1.09.9ZM104.1,14.3h0Z"/><path class="cls-4" d="M104.1,15.3H104L58.21,10.9a1,1,0,0,1,.19-2l45.79,4.4a1,1,0,0,1-.09,2Z"/><path class="cls-4" d="M101.4,12h-.1l-30.86-3a1,1,0,1,1,.19-2l30.86,3a1,1,0,0,1-.09,2Z"/><path class="cls-4" d="M97.05,46.77H97l-10-1a1,1,0,1,1,.19-2l10,1a1,1,0,0,1-.09,2Z"/><path class="cls-4" d="M83.12,45.44H83l-10-1a1,1,0,0,1,.19-2l10,1a1,1,0,0,1-.09,2Z"/><path class="cls-4" d="M69.18,44.1h-.1l-10-1a1,1,0,1,1,.19-2l10,1a1,1,0,0,1-.09,2Z"/><path class="cls-4" d="M96.67,50.76h-.1l-10-1a1,1,0,1,1,.19-2l10,1a1,1,0,0,1-.09,2Z"/><path class="cls-4" d="M82.74,49.42h-.1l-10-1a1,1,0,0,1,.19-2l10,1a1,1,0,0,1-.09,2Z"/><path class="cls-4" d="M68.8,48.08h-.1l-10-1a1,1,0,0,1,.19-2l10,1a1,1,0,0,1-.09,2Z"/><path class="cls-4" d="M96.29,54.74h-.1l-10-1a1,1,0,0,1,.19-2l10,1a1,1,0,0,1-.09,2Z"/><path class="cls-4" d="M82.35,53.4h-.1l-10-1a1,1,0,0,1,.19-2l10,1a1,1,0,0,1-.09,2Z"/><path class="cls-4" d="M68.42,52.06h-.1l-10-1a1,1,0,0,1,.19-2l10,1a1,1,0,0,1-.09,2Z"/><path class="cls-4" d="M95.91,58.72h-.1l-10-1a1,1,0,0,1,.19-2l10,1a1,1,0,0,1-.09,2Z"/><path class="cls-4" d="M82,57.38h-.1l-10-1a1,1,0,0,1,.19-2l10,1a1,1,0,0,1-.09,2Z"/><path class="cls-4" d="M68,56h-.1l-10-1a1,1,0,1,1,.19-2l10,1A1,1,0,0,1,68,56Z"/><path class="cls-7" d="M61.58,8.2a1,1,0,0,1-.92-1.38,1,1,0,0,1,.21-.32,1,1,0,0,1,1.42,0,1,1,0,0,1,.29.7,1,1,0,0,1-1,1Z"/><path class="cls-11" d="M64.57,8.49a1.08,1.08,0,0,1-.39-.08,1,1,0,0,1-.32-.21,1,1,0,0,1-.29-.71,1,1,0,0,1,.07-.38,1.2,1.2,0,0,1,.22-.33,1,1,0,0,1,.32-.21,1,1,0,0,1,1.09.21,1,1,0,0,1,.22.33,1,1,0,0,1,.08.38,1,1,0,0,1-1,1Z"/><path class="cls-10" d="M67.55,8.78a1,1,0,0,1-.7-.29,1,1,0,0,1-.3-.71,1,1,0,0,1,.08-.38.84.84,0,0,1,.22-.33,1.22,1.22,0,0,1,.32-.22,1,1,0,0,1,1.09.22,1,1,0,0,1,.22.33,1,1,0,0,1,.07.38,1,1,0,0,1-.29.71A1,1,0,0,1,67.55,8.78Z"/><path class="cls-4" d="M76.4,31.73a1,1,0,0,1-.38-.08.94.94,0,0,1-.33-.21,1.19,1.19,0,0,1-.22-.33,1,1,0,0,1-.07-.38,1,1,0,0,1,.29-.71.92.92,0,0,1,.33-.21,1,1,0,0,1,1.09.21,1.05,1.05,0,0,1,.29.71,1,1,0,0,1-.08.38,1.15,1.15,0,0,1-.21.33l-.16.12a.56.56,0,0,1-.17.09.62.62,0,0,1-.19.06Z"/><path class="cls-4" d="M79.39,32a1,1,0,0,1-.39-.08.88.88,0,0,1-.32-.22.64.64,0,0,1-.13-.15l-.09-.17-.06-.19a1.2,1.2,0,0,1,0-.19,1.08,1.08,0,0,1,.08-.39.87.87,0,0,1,.22-.32,1,1,0,0,1,1.63.32,1.08,1.08,0,0,1,.07.39.62.62,0,0,1,0,.19,1.12,1.12,0,0,1,0,.19l-.09.17a.64.64,0,0,1-.13.15A1,1,0,0,1,79.39,32Z"/><path class="cls-4" d="M82.37,32.3a1,1,0,0,1-.71-1.7,1,1,0,0,1,1.42,0,1,1,0,0,1,.29.7,1,1,0,0,1-.29.71.77.77,0,0,1-.15.12l-.18.1-.18,0A.68.68,0,0,1,82.37,32.3Z"/><rect class="cls-12" height="31.44" rx="1.26" ry="1.26" transform="translate(55.16 136.97) rotate(-80.94)" width="21.38" x="97.17" y="20.43"/><polyline class="cls-3" points="121.39 48.76 112.39 36.87 103.33 35.43 91.07 43.92"/><path class="cls-4" d="M91.07,44.92a1,1,0,0,1-.57-1.82l12.25-8.49a1,1,0,0,1,1.14,1.64L91.64,44.75A1,1,0,0,1,91.07,44.92Z"/><path class="cls-4" d="M121.39,49.76a1,1,0,0,1-.8-.4l-9-11.89a1,1,0,0,1,1.59-1.21l9,11.89a1,1,0,0,1-.8,1.6Z"/><path class="cls-3" d="M124.64,28.38l-14.5,10.05a3.77,3.77,0,0,1-5.16-.82L94.32,23.54"/><path class="cls-4" d="M108,40.11a4.76,4.76,0,0,1-3.8-1.9L93.53,24.15a1,1,0,1,1,1.59-1.21L105.78,37a2.77,2.77,0,0,0,3.79.61l14.5-10.05a1,1,0,0,1,1.14,1.64l-14.5,10.05A4.76,4.76,0,0,1,108,40.11Z"/><path class="cls-4" d="M120.65,50l-.36,0L91.74,45.42a2.26,2.26,0,0,1-1.87-2.58l3-18.63a2.26,2.26,0,0,1,2.58-1.87L124,26.89a2.26,2.26,0,0,1,1.87,2.58l-3,18.63a2.26,2.26,0,0,1-2.22,1.9ZM95.06,24.3a.26.26,0,0,0-.25.22l-3,18.63a.26.26,0,0,0,.21.29L120.61,48a.26.26,0,0,0,.19,0,.25.25,0,0,0,.1-.17l3-18.63a.26.26,0,0,0-.21-.29L95.1,24.31Z"/><path class="cls-4" d="M121,122H6a1,1,0,0,1,0-2H121a1,1,0,0,1,0,2Z"/><path class="cls-4" d="M125,122h-1a1,1,0,0,1,0-2h1a1,1,0,0,1,0,2Z"/></g><path class="cls-5" d="M20,52h90a3,3,0,0,1,3,3v62a0,0,0,0,1,0,0H17a0,0,0,0,1,0,0V55A3,3,0,0,1,20,52Z"/><path class="cls-4" d="M113,118H17a1,1,0,0,1-1-1V55a4,4,0,0,1,4-4h90a4,4,0,0,1,4,4v62A1,1,0,0,1,113,118Zm-95-2h94V55a2,2,0,0,0-2-2H20a2,2,0,0,0-2,2Z"/><path class="cls-12" d="M77,117H53a2,2,0,0,1-2-2v-1H79v1A2,2,0,0,1,77,117Z"/><path class="cls-4" d="M77,118H53a3,3,0,0,1-3-3v-1a1,1,0,0,1,1-1H79a1,1,0,0,1,1,1v1A3,3,0,0,1,77,118Zm-25-3a1,1,0,0,0,1,1H77a1,1,0,0,0,1-1Z"/><rect class="cls-3" height="54" width="88" x="21" y="56"/><g class="cls-1"><rect class="cls-13" height="4" width="88.05" x="20.95" y="56"/></g><path class="cls-4" d="M109,111H21a1,1,0,0,1-1-1V56a1,1,0,0,1,1-1h88a1,1,0,0,1,1,1v54A1,1,0,0,1,109,111Zm-87-2h86V57H22Z"/><circle class="cls-11" cx="33" cy="68" r="6"/><path class="cls-4" d="M33,75a7,7,0,1,1,7-7A7,7,0,0,1,33,75Zm0-12a5,5,0,1,0,5,5A5,5,0,0,0,33,63Z"/><path class="cls-14" d="M34.12,65.34a6,6,0,0,1-2.05-.79c-.17-.17-.05.77-.21.84a1.55,1.55,0,0,0-1,1.91c0,.24.08.47.12.7a.5.5,0,0,0-.12.37,2.39,2.39,0,0,0,.27,1c0,.59.54,1.07.54,1.52,0,.18,0,.36,0,.53a.3.3,0,0,1-.25.31,5.19,5.19,0,0,0-2.26.9,6,6,0,0,0,7.68,0,5.19,5.19,0,0,0-2.26-.9.3.3,0,0,1-.25-.31c0-.17,0-.34,0-.53,0-.42.51-.93.54-1.52a2.39,2.39,0,0,0,.27-1A.5.5,0,0,0,35,68c0-.22.08-.45.12-.7A1.57,1.57,0,0,0,34.12,65.34Z"/><path class="cls-4" d="M33,75a7,7,0,0,1-4.48-1.63,1,1,0,0,1,0-1.55,5.69,5.69,0,0,1,2.11-1l-.11-.19a3.29,3.29,0,0,1-.39-1,3.22,3.22,0,0,1-.29-1.24,1.7,1.7,0,0,1,.08-.52l-.06-.36A2.5,2.5,0,0,1,31,64.74a1.18,1.18,0,0,1,.69-1.14,1.09,1.09,0,0,1,1.11.23,4.82,4.82,0,0,0,1.25.44l.44.12h0a2.55,2.55,0,0,1,1.66,3.08l-.06.36a1.7,1.7,0,0,1,.08.52,3.22,3.22,0,0,1-.29,1.24,3.41,3.41,0,0,1-.39,1.06l-.09.18a5.68,5.68,0,0,1,2.1,1,1,1,0,0,1,0,1.55A7,7,0,0,1,33,75Zm-1.61-2.27a5.06,5.06,0,0,0,3.23,0l-.21,0a1.31,1.31,0,0,1-1.08-1.34c0-.15,0-.31,0-.48a2.41,2.41,0,0,1,.35-1.12,1.75,1.75,0,0,0,.19-.46,1,1,0,0,1,.1-.39,1.85,1.85,0,0,0,.16-.45,1,1,0,0,1-.09-.64l.12-.69c.12-.67-.15-.77-.36-.84l-.26-.07c-.28-.07-.57-.15-.84-.24a1,1,0,0,1-.41.33c-.4.18-.51.31-.42.83l.12.69a1,1,0,0,1-.09.64,1.85,1.85,0,0,0,.16.45,1,1,0,0,1,.1.39,1.61,1.61,0,0,0,.18.43,2.42,2.42,0,0,1,.35,1.14c0,.17,0,.33,0,.48a1.31,1.31,0,0,1-1.08,1.34Zm2.91-4h0Z"/><g class="cls-15"><path class="cls-4" d="M31,105H27a1,1,0,0,1,0-2h4a1,1,0,1,1,0,2Z"/><path class="cls-4" d="M39,81H27a1,1,0,0,1,0-2H39a1,1,0,0,1,0,2Z"/><path class="cls-4" d="M39,87H27a1,1,0,0,1,0-2H39a1,1,0,0,1,0,2Z"/><path class="cls-4" d="M39,93H27a1,1,0,0,1,0-2H39a1,1,0,0,1,0,2Z"/><path class="cls-4" d="M39,105H35a1,1,0,0,1,0-2h4a1,1,0,0,1,0,2Z"/></g><rect class="cls-9" height="18" width="26" x="45" y="62"/><path class="cls-4" d="M71,81H45a1,1,0,0,1-1-1V62a1,1,0,0,1,1-1H71a1,1,0,0,1,1,1V80A1,1,0,0,1,71,81ZM46,79H70V63H46Z"/><rect class="cls-2" height="18" width="26" x="77" y="62"/><path class="cls-4" d="M103,81H77a1,1,0,0,1-1-1V62a1,1,0,0,1,1-1h26a1,1,0,0,1,1,1V80A1,1,0,0,1,103,81ZM78,79h24V63H78Z"/><rect class="cls-10" height="18" width="26" x="45" y="86"/><path class="cls-4" d="M71,105H45a1,1,0,0,1-1-1V86a1,1,0,0,1,1-1H71a1,1,0,0,1,1,1v18A1,1,0,0,1,71,105Zm-25-2H70V87H46Z"/><rect class="cls-16" height="18" width="26" x="77" y="86"/><path class="cls-4" d="M103,105H77a1,1,0,0,1-1-1V86a1,1,0,0,1,1-1h26a1,1,0,0,1,1,1v18A1,1,0,0,1,103,105Zm-25-2h24V87H78Z"/><path class="cls-14" d="M48,78a1,1,0,0,1-.93-1.37c1.69-4.31,3.56-5.32,4.83-5.41a2.48,2.48,0,0,1,2.36,1.27,1.66,1.66,0,0,0,1.45.54c.36,0,.78-.15.89-.43.82-2,2.31-4.61,5.73-4.61a4.93,4.93,0,0,1,3.38,1.51c.81.69,1.2,1,2,.78a1,1,0,0,1,.51,1.93A3.86,3.86,0,0,1,64.42,71a3.06,3.06,0,0,0-2.08-1c-1.76,0-2.88,1-3.88,3.38A2.89,2.89,0,0,1,55.83,75a3.59,3.59,0,0,1-3.31-1.54.48.48,0,0,0-.48-.27c-.7.05-1.94,1.17-3.11,4.15A1,1,0,0,1,48,78Z"/><path class="cls-14" d="M51.08,101a4.73,4.73,0,0,1-4-2.7,1,1,0,0,1,1.81-.85A2.71,2.71,0,0,0,51.08,99a.45.45,0,0,0,.16,0,3.9,3.9,0,0,0,.18-.75c.2-1.08.57-3.08,3.5-3.11H55a4.7,4.7,0,0,1,4.29,2.42c.52.75.7.95,1.13.95s.7-1,1-2.33a8.57,8.57,0,0,1,1.48-3.82C65,89.85,68.21,91,68.35,91.06a1,1,0,0,1-.7,1.88,3.12,3.12,0,0,0-3.27.7,7.14,7.14,0,0,0-1,2.94c-.37,1.74-.83,3.91-2.95,3.91a3.29,3.29,0,0,1-2.77-1.81A2.75,2.75,0,0,0,55,97.13h0c-1.28,0-1.36.44-1.55,1.47C53.23,99.44,52.94,101,51.08,101Z"/><path class="cls-14" d="M83,101.5c-2.13,0-2.74-1.48-3.39-3-.15-.37-.32-.77-.52-1.2a1,1,0,1,1,1.81-.85c.21.46.39.89.55,1.28.62,1.5.8,1.77,1.39,1.8a9.13,9.13,0,0,0,.45-1.92c.33-2,.79-4.7,3.24-4.7,1.86,0,2.76,1.43,3.35,2.38.11.17.25.4.36.55a3.57,3.57,0,0,0,.38-.42,2.38,2.38,0,0,1,1.73-1c1.28-.1,2.37,1,3.34,1.88a8.11,8.11,0,0,0,1.23,1,2.87,2.87,0,0,0,.28-.72,14.67,14.67,0,0,0,.42-4.68c0-1.21-.08-2.16.59-2.83A2.43,2.43,0,0,1,100,88.5a1,1,0,0,1,1,1,1,1,0,0,1-1,1,1.65,1.65,0,0,0-.33,0,7.48,7.48,0,0,0,0,1.31,16.41,16.41,0,0,1-.49,5.28c-.12.46-.5,1.86-1.65,2.18s-2.19-.64-3.17-1.58c-.53-.51-1.41-1.35-1.81-1.33-.07,0-.18.1-.29.24a2.7,2.7,0,0,1-2.09,1.3c-1,0-1.47-.87-1.92-1.59-.56-.9-1-1.44-1.66-1.44s-1,1.37-1.27,3S84.66,101.5,83,101.5Z"/><path class="cls-14" d="M80,77h-.11a1,1,0,0,1-.89-1.1c.64-6,1-7.07,3.7-7.34h.15c1.72-.18,2.16,1.63,2.48,3,.43,1.78.76,2.58,1.58,2.65s1.26-.73,2-2,2-3.56,4.35-2.52a4.13,4.13,0,0,1,2.42,3.51c.18,1,.18,1,.83.92.82-.09,1.08-1.62,1.31-3.46.19-1.51.33-2.7,1.15-3.27a1.57,1.57,0,0,1,1.28-.22,1,1,0,0,1-.14,2,11.79,11.79,0,0,0-.3,1.77c-.26,2.08-.61,4.94-3.08,5.21s-2.83-1.56-3-2.55-.34-1.64-1.26-2c-.54-.23-.79-.16-1.8,1.65-.76,1.37-1.8,3.25-3.91,3.07-2.4-.21-3-2.59-3.35-4.17a7.08,7.08,0,0,0-.44-1.43h0c-1.15.12-1.33.13-1.91,5.57A1,1,0,0,1,80,77Z"/><path class="cls-3" d="M121,114H79v1a2,2,0,0,1-2,2H53a2,2,0,0,1-2-2v-1H9v3a4,4,0,0,0,4,4H117a4,4,0,0,0,4-4Z"/><g class="cls-1"><path class="cls-13" d="M117,118H13a4,4,0,0,1-4-4H9v3a4,4,0,0,0,4,4H117a4,4,0,0,0,4-4v-3A4,4,0,0,1,117,118Z"/></g><path class="cls-4" d="M117,122H13a5,5,0,0,1-5-5v-3a1,1,0,0,1,1-1H51a1,1,0,0,1,1,1v1a1,1,0,0,0,1,1H77a1,1,0,0,0,1-1v-1a1,1,0,0,1,1-1h42a1,1,0,0,1,1,1v3A5,5,0,0,1,117,122ZM10,115v2a3,3,0,0,0,3,3H117a3,3,0,0,0,3-3v-2H80a3,3,0,0,1-3,3H53a3,3,0,0,1-3-3Z"/></svg>