<?xml version="1.0" ?><svg data-name="005" id="_005" viewBox="0 0 128 128" xmlns="http://www.w3.org/2000/svg"><defs><style>.cls-1{opacity:0.3;}.cls-2{fill:#c9c1f5;}.cls-3{fill:#fff;}.cls-4{fill:#eef6ff;}.cls-5{fill:#5cbeff;}.cls-6{fill:#6d6daa;}.cls-7{fill:#ff9797;}.cls-8{fill:#97c1ff;}.cls-9{fill:#96d7ff;}.cls-10{fill:#b1f1a8;}.cls-11{fill:#fff27d;}.cls-12{fill:#ff91a9;}.cls-13{fill:#939fc6;}.cls-14{fill:#5b559e;}</style></defs><title/><g class="cls-1"><path class="cls-2" d="M10.62,37.23a30,30,0,0,0-1.84,34.3A19.69,19.69,0,0,1,11.61,84c-.41,3.85-1.44,7.8-.85,11.89C14,118,32.72,126,50.81,124.76a37,37,0,0,0,16.34-5,20.4,20.4,0,0,1,17.16-1.68c15.15,5.31,34-2.74,38.08-24.57a16.6,16.6,0,0,0-.85-8,20.58,20.58,0,0,1,.93-14.76,28.49,28.49,0,0,0-20.34-39.53,20.06,20.06,0,0,1-13.62-10,29,29,0,0,0-49.44-2.5,19.68,19.68,0,0,1-11.83,7.79A29.83,29.83,0,0,0,10.62,37.23Z"/><path class="cls-3" d="M120,84a1,1,0,0,1-.71-.3,1,1,0,0,1-.22-.32A1,1,0,0,1,119,83a1,1,0,0,1,.29-.71,1,1,0,0,1,1.41,0,1,1,0,0,1,.22,1.09.87.87,0,0,1-.22.32A1,1,0,0,1,120,84Z"/><path class="cls-3" d="M118,88h-6a1,1,0,0,1,0-2h6a1,1,0,0,1,0,2Z"/><path class="cls-3" d="M116,84h-7a1,1,0,0,1,0-2h7a1,1,0,0,1,0,2Z"/><path class="cls-3" d="M108,88h-2a1,1,0,1,1,0-2h2a1,1,0,1,1,0,2Z"/><path class="cls-3" d="M116,92h-8a1,1,0,1,1,0-2h8a1,1,0,1,1,0,2Z"/><path class="cls-3" d="M20,100a1,1,0,0,1-.38-.07,1.19,1.19,0,0,1-.33-.22,1.16,1.16,0,0,1-.21-.33.95.95,0,0,1,0-.76.9.9,0,0,1,.54-.54A1,1,0,0,1,20.2,98a.65.65,0,0,1,.18.06.74.74,0,0,1,.18.09l.15.12a1.46,1.46,0,0,1,.22.33A1,1,0,0,1,21,99a1,1,0,0,1-.29.71,1.21,1.21,0,0,1-.32.22A1,1,0,0,1,20,100Z"/><path class="cls-3" d="M21,96H19a1,1,0,0,1,0-2h2a1,1,0,0,1,0,2Z"/><path class="cls-3" d="M24,92H14a1,1,0,1,1,0-2H24a1,1,0,0,1,0,2Z"/><path class="cls-3" d="M15,96H11a1,1,0,1,1,0-2h4a1,1,0,0,1,0,2Z"/><path class="cls-3" d="M16,100H8a1,1,0,0,1,0-2h8a1,1,0,0,1,0,2Z"/><path class="cls-4" d="M97.83,67.87A5.25,5.25,0,0,1,108,65.45a2.8,2.8,0,0,1,4.54,2.18c0,.08,0,.16,0,.24A4.18,4.18,0,0,1,111.1,76H99.2a4.18,4.18,0,0,1-1.37-8.13Z"/><path class="cls-3" d="M97.83,69.61A5.25,5.25,0,0,1,108,67.2a2.8,2.8,0,0,1,4.54,2.18c0,.08,0,.16,0,.24a4.19,4.19,0,0,1,2.71,3.09,4.15,4.15,0,0,0-2.71-4.83c0-.08,0-.16,0-.24A2.8,2.8,0,0,0,108,65.45a5.24,5.24,0,0,0-10.13,2.41,4.15,4.15,0,0,0-2.73,4.84A4.19,4.19,0,0,1,97.83,69.61Z"/><g class="cls-1"><path class="cls-5" d="M111.1,74.26H99.2A4.19,4.19,0,0,1,95.1,71a4.14,4.14,0,0,0-.1.86A4.19,4.19,0,0,0,99.2,76h11.9a4.19,4.19,0,0,0,4.2-4.18,4.14,4.14,0,0,0-.1-.86A4.19,4.19,0,0,1,111.1,74.26Z"/></g><path class="cls-6" d="M111.1,77H99.2a5.18,5.18,0,0,1-2.4-9.78,6.25,6.25,0,0,1,11.6-3.15,3.8,3.8,0,0,1,5.08,3.13A5.18,5.18,0,0,1,111.1,77Zm-8-13.94a4.21,4.21,0,0,0-4.22,4.7,1,1,0,0,1-.67,1.06,3.18,3.18,0,0,0,1,6.19h11.9a3.18,3.18,0,0,0,1.06-6.18,1,1,0,0,1-.67-1c0-.05,0-.1,0-.15a1.8,1.8,0,0,0-2.92-1.4,1,1,0,0,1-1.56-.43A4.27,4.27,0,0,0,103,63.06Z"/><path class="cls-4" d="M99.2,67.64a4.21,4.21,0,0,0-1.38.23"/><path class="cls-6" d="M97.82,68.87a1,1,0,0,1-.33-1.95,5.2,5.2,0,0,1,1.7-.29,1,1,0,0,1,0,2,3.18,3.18,0,0,0-1.05.18A1,1,0,0,1,97.82,68.87Z"/><path class="cls-4" d="M112.49,67.87a4.21,4.21,0,0,0-1.39-.23"/><path class="cls-6" d="M112.49,68.87a1,1,0,0,1-.33-.06,3.22,3.22,0,0,0-1.06-.18,1,1,0,1,1,0-2,5.21,5.21,0,0,1,1.72.29,1,1,0,0,1-.33,1.94Z"/><path class="cls-4" d="M108,65.44a2.8,2.8,0,0,0-.76.91"/><path class="cls-6" d="M107.22,67.34a1,1,0,0,1-.88-1.47,3.84,3.84,0,0,1,1-1.23,1,1,0,1,1,1.23,1.58,1.82,1.82,0,0,0-.49.58A1,1,0,0,1,107.22,67.34Z"/><path class="cls-4" d="M59.27,100a8,8,0,0,1,11.88-8.85,10.49,10.49,0,0,1,18.8,5.25A7.5,7.5,0,0,1,87.5,111h-28a5.5,5.5,0,0,1-.23-11Z"/><path class="cls-3" d="M59.27,103a7.62,7.62,0,0,1-.2-3,5.47,5.47,0,0,0-4.84,7A5.48,5.48,0,0,1,59.27,103Z"/><path class="cls-3" d="M67,93a8,8,0,0,1,4.14,1.16,10.49,10.49,0,0,1,18.8,5.25,7.5,7.5,0,0,1,4.9,5.62,7.49,7.49,0,0,0-4.9-8.62,10.49,10.49,0,0,0-18.8-5.25A8,8,0,0,0,59,98a7.72,7.72,0,0,0,.15,1.45A8,8,0,0,1,67,93Z"/><path class="cls-5" d="M59.27,97c0-.18-.08-.38-.11-.57,0,.2-.07.39-.09.59Z"/><g class="cls-1"><path class="cls-5" d="M87.5,108h-28a5.5,5.5,0,0,1-5.28-4A5.44,5.44,0,0,0,54,105.5a5.5,5.5,0,0,0,5.5,5.5h28a7.43,7.43,0,0,0,7.34-9A7.5,7.5,0,0,1,87.5,108Z"/></g><path class="cls-6" d="M87.5,112h-28a6.5,6.5,0,0,1-1.42-12.84A8.68,8.68,0,0,1,58,98a9,9,0,0,1,12.89-8.11,11.49,11.49,0,0,1,20,5.8A8.5,8.5,0,0,1,87.5,112ZM67,91a7,7,0,0,0-6.77,8.76,1,1,0,0,1-.93,1.25,4.5,4.5,0,0,0,.19,9h28a6.5,6.5,0,0,0,2.12-12.64,1,1,0,0,1-.67-.84,9.49,9.49,0,0,0-17-4.75,1,1,0,0,1-1.32.25A7,7,0,0,0,67,91Z"/><path class="cls-6" d="M89.49,101.75a1,1,0,0,1-1-1.31A9.51,9.51,0,0,0,79.5,88a1,1,0,0,1,0-2,11.51,11.51,0,0,1,10.94,15.06A1,1,0,0,1,89.49,101.75Z"/><path class="cls-6" d="M63.12,102.36a1,1,0,0,1-.66-.25,4.49,4.49,0,0,0-3-1.11,1,1,0,0,1,0-2,6.5,6.5,0,0,1,4.28,1.61,1,1,0,0,1-.66,1.75Z"/><path class="cls-6" d="M73.51,94.34a1,1,0,0,1-.81-.42A7,7,0,0,0,67,91a1,1,0,0,1,0-2,9,9,0,0,1,7.32,3.76,1,1,0,0,1-.81,1.58Z"/><path class="cls-4" d="M68.05,67.76a6,6,0,0,0-8.91-6.64A7.87,7.87,0,0,0,45,65.06,5.62,5.62,0,0,0,46.88,76h21a4.12,4.12,0,0,0,.18-8.24Z"/><path class="cls-3" d="M68.05,70a5.72,5.72,0,0,0,.15-2.23A4.1,4.1,0,0,1,71.83,73,4.11,4.11,0,0,0,68.05,70Z"/><path class="cls-3" d="M62.25,62.5a6,6,0,0,0-3.11.87A7.87,7.87,0,0,0,45,67.31a5.62,5.62,0,0,0-3.67,4.22A5.62,5.62,0,0,1,45,65.06a7.87,7.87,0,0,1,14.1-3.94,6,6,0,0,1,9.11,5.13,5.79,5.79,0,0,1-.12,1.09A6,6,0,0,0,62.25,62.5Z"/><path class="cls-5" d="M68.05,65.51c0-.14.06-.28.08-.42,0,.15,0,.3.07.45Z"/><g class="cls-1"><path class="cls-5" d="M46.88,73.75h21a4.12,4.12,0,0,0,4-3,4.08,4.08,0,0,1,.17,1.1A4.12,4.12,0,0,1,67.88,76h-21a5.57,5.57,0,0,1-5.51-6.72A5.63,5.63,0,0,0,46.88,73.75Z"/></g><path class="cls-6" d="M67.88,77h-21a6.62,6.62,0,0,1-2.74-12.65,8.87,8.87,0,0,1,15.26-4.49,7,7,0,0,1,9.86,6.39,6.68,6.68,0,0,1,0,.68A5.12,5.12,0,0,1,67.88,77Zm-15-18A6.85,6.85,0,0,0,46,65.16a1,1,0,0,1-.67.84,4.62,4.62,0,0,0,1.51,9h21A3.12,3.12,0,0,0,68,68.76a1,1,0,0,1-.93-1.25A5,5,0,0,0,59.66,62a1,1,0,0,1-1.32-.25A6.82,6.82,0,0,0,52.88,59Z"/><path class="cls-6" d="M45.39,69.31a1,1,0,0,1-1-.69A8.88,8.88,0,0,1,52.88,57a1,1,0,0,1,0,2,6.88,6.88,0,0,0-6.54,9,1,1,0,0,1-1,1.31Z"/><path class="cls-6" d="M65.16,69.77A1,1,0,0,1,64.5,68a5.12,5.12,0,0,1,3.38-1.27,1,1,0,1,1,0,2,3.12,3.12,0,0,0-2.06.77A1,1,0,0,1,65.16,69.77Z"/><path class="cls-6" d="M57.37,63.76a1,1,0,0,1-.81-1.58,7,7,0,0,1,5.69-2.92,1,1,0,0,1,0,2,5,5,0,0,0-4.07,2.09A1,1,0,0,1,57.37,63.76Z"/></g><path class="cls-2" d="M114.08,16.62a6.47,6.47,0,0,0,4.31,4.31q3.23,1.08,0,2.15a6.47,6.47,0,0,0-4.31,4.31q-1.08,3.23-2.15,0a6.47,6.47,0,0,0-4.31-4.31q-3.23-1.08,0-2.15a6.47,6.47,0,0,0,4.31-4.31Q113,13.38,114.08,16.62Z"/><path class="cls-2" d="M106.92,97.38a5.55,5.55,0,0,0,3.69,3.69q2.77.92,0,1.85a5.55,5.55,0,0,0-3.69,3.69q-.92,2.77-1.85,0a5.55,5.55,0,0,0-3.69-3.69q-2.77-.92,0-1.85a5.55,5.55,0,0,0,3.69-3.69Q106,94.62,106.92,97.38Z"/><path class="cls-2" d="M43.62,111.92a3.7,3.7,0,0,0,2.46,2.46q1.85.62,0,1.23a3.7,3.7,0,0,0-2.46,2.46q-.62,1.85-1.23,0a3.7,3.7,0,0,0-2.46-2.46q-1.85-.62,0-1.23a3.7,3.7,0,0,0,2.46-2.46Q43,110.08,43.62,111.92Z"/><path class="cls-7" d="M88.77,8.15a4.62,4.62,0,0,0,3.08,3.08q2.31.77,0,1.54a4.62,4.62,0,0,0-3.08,3.08q-.77,2.31-1.54,0a4.62,4.62,0,0,0-3.08-3.08q-2.31-.77,0-1.54a4.62,4.62,0,0,0,3.08-3.08Q88,5.85,88.77,8.15Z"/><path class="cls-8" d="M24.93,13.4a5.54,5.54,0,0,0,3.69,3.69q2.77.92,0,1.84a5.54,5.54,0,0,0-3.69,3.69q-.92,2.77-1.84,0a5.54,5.54,0,0,0-3.69-3.69q-2.77-.92,0-1.84a5.54,5.54,0,0,0,3.69-3.69Q24,10.63,24.93,13.4Z"/><path class="cls-7" d="M83.62,74.92a3.7,3.7,0,0,0,2.46,2.46q1.85.62,0,1.23a3.7,3.7,0,0,0-2.46,2.46q-.62,1.85-1.23,0a3.7,3.7,0,0,0-2.46-2.46q-1.85-.62,0-1.23a3.7,3.7,0,0,0,2.46-2.46Q83,73.08,83.62,74.92Z"/><path class="cls-7" d="M60.46,47.69a2.77,2.77,0,0,0,1.85,1.85q1.38.46,0,.92a2.77,2.77,0,0,0-1.85,1.85q-.46,1.38-.92,0a2.77,2.77,0,0,0-1.85-1.85q-1.38-.46,0-.92a2.77,2.77,0,0,0,1.85-1.85Q60,46.31,60.46,47.69Z"/><path class="cls-8" d="M118.62,45.92a3.7,3.7,0,0,0,2.46,2.46q1.85.62,0,1.23a3.7,3.7,0,0,0-2.46,2.46q-.62,1.85-1.23,0a3.7,3.7,0,0,0-2.46-2.46q-1.85-.62,0-1.23a3.7,3.7,0,0,0,2.46-2.46Q118,44.08,118.62,45.92Z"/><path class="cls-2" d="M59.46,6.69a2.77,2.77,0,0,0,1.85,1.85q1.38.46,0,.92a2.77,2.77,0,0,0-1.85,1.85q-.46,1.38-.92,0a2.77,2.77,0,0,0-1.85-1.85q-1.38-.46,0-.92a2.77,2.77,0,0,0,1.85-1.85Q59,5.31,59.46,6.69Z"/><path class="cls-2" d="M31.85,86.49A2.5,2.5,0,0,1,29.58,85,33.51,33.51,0,0,1,88,52.62a2.5,2.5,0,0,1-4.18,2.75A28.51,28.51,0,0,0,34.12,82.94a2.5,2.5,0,0,1-2.27,3.55Z"/><path class="cls-9" d="M24,73.5A2.5,2.5,0,0,1,21.5,71,38.5,38.5,0,0,1,91.27,48.54a2.5,2.5,0,1,1-4.06,2.92A33.5,33.5,0,0,0,26.5,71,2.5,2.5,0,0,1,24,73.5Z"/><path class="cls-10" d="M20.78,85.5a2.5,2.5,0,0,1-2.39-1.77A43.51,43.51,0,0,1,93.95,43.8,2.5,2.5,0,1,1,90,46.93,38.51,38.51,0,0,0,23.18,82.27a2.5,2.5,0,0,1-2.39,3.23Z"/><path class="cls-11" d="M17,57.13a2.5,2.5,0,0,1-2.34-3.39,48.51,48.51,0,0,1,83-13.31,2.5,2.5,0,1,1-3.88,3.15A43.51,43.51,0,0,0,19.34,55.52,2.5,2.5,0,0,1,17,57.13Z"/><path class="cls-12" d="M17.36,45.5a2.5,2.5,0,0,1-2.09-3.87,53.51,53.51,0,0,1,86.38-4.19,2.5,2.5,0,1,1-3.89,3.14,48.51,48.51,0,0,0-78.32,3.8A2.5,2.5,0,0,1,17.36,45.5Z"/><path class="cls-13" d="M30.48,108.48h0a5.27,5.27,0,0,1,0-7.47L98,33.46a5.27,5.27,0,0,1,7.42,0h0a5.27,5.27,0,0,1,0,7.47L37.91,108.46A5.27,5.27,0,0,1,30.48,108.48Z"/><g class="cls-1"><path class="cls-3" d="M33.06,103.61l67.55-67.55a5.26,5.26,0,0,1,5.63-1.18,3,3,0,0,0-.8-1.44,5.27,5.27,0,0,0-7.42,0L30.46,101a5.27,5.27,0,0,0,0,7.47,2.9,2.9,0,0,0,1.4.76A5.26,5.26,0,0,1,33.06,103.61Z"/></g><path class="cls-4" d="M85.36,45.91,98,33.46a5.27,5.27,0,0,1,7.42,0h0a5.27,5.27,0,0,1,0,7.47L92.81,53.36Z"/><path class="cls-3" d="M105.81,33.89a5.21,5.21,0,0,0-.38-.46,5.27,5.27,0,0,0-7.42,0L85.46,46l2.6,2.6,12.55-12.55a5.26,5.26,0,0,1,5.63-1.18A5.17,5.17,0,0,0,105.81,33.89Z"/><g class="cls-1"><path class="cls-14" d="M105.43,33.43a5.21,5.21,0,0,0-2.35-1.32,5.26,5.26,0,0,1-.54,6.79L35,106.46a5.25,5.25,0,0,1-5.07,1.34,5.25,5.25,0,0,0,.56.68h0a5.27,5.27,0,0,0,7.42,0l67.55-67.55A5.27,5.27,0,0,0,105.43,33.43Z"/></g><path class="cls-6" d="M34.18,111a6.25,6.25,0,0,1-4.4-1.8h0a6.27,6.27,0,0,1,0-8.89L97.3,32.75a6.27,6.27,0,1,1,8.86,8.86L38.61,109.16A6.25,6.25,0,0,1,34.18,111Zm-3-3.22a4.28,4.28,0,0,0,6,0L104.75,40.2a4.27,4.27,0,0,0-6-6L31.16,101.71a4.27,4.27,0,0,0,0,6.06Z"/><path class="cls-6" d="M92.76,54.31a1,1,0,0,1-.71-.29L85.13,47.1a1,1,0,0,1,1.41-1.41l6.93,6.93a1,1,0,0,1-.71,1.71Z"/></svg>