<?xml version="1.0" ?><svg data-name="004" id="_004" viewBox="0 0 128 128" xmlns="http://www.w3.org/2000/svg"><defs><style>.cls-1{opacity:0.3;}.cls-2{fill:#97c1ff;}.cls-3{fill:#fff;}.cls-4{fill:#eef6ff;}.cls-5{fill:#6d6daa;}.cls-6{fill:#8d96b8;}.cls-7{fill:#939fc6;}.cls-8{fill:#96d7ff;}.cls-9{fill:#ff9797;}.cls-10{fill:#b1f1a8;}.cls-11{fill:#c9c1f5;}.cls-12{fill:#d4edff;}.cls-13{fill:#7690a8;}.cls-14{fill:#fff27d;}.cls-15{opacity:0.5;}.cls-16{fill:#ffd599;}.cls-17{fill:#f9e2dc;}.cls-18{fill:#cc7e54;}.cls-19{fill:#ff99b1;}.cls-20{fill:#89dbba;}.cls-21{fill:#efdcd2;}.cls-22{fill:#ced8ee;}.cls-23{fill:#4e4e96;}.cls-24{fill:#eff7ff;}.cls-25{fill:#d6b5b0;}.cls-26{fill:#9eb2cc;}</style></defs><title/><g class="cls-1"><path class="cls-2" d="M1.81,45.69a30,30,0,0,1,23.51-25A19.69,19.69,0,0,0,36.26,14.1a37,37,0,0,1,64.33,15.68A19.57,19.57,0,0,0,111,42.95,28,28,0,1,1,73.34,80.29,9.41,9.41,0,0,0,64.83,75H64a12.39,12.39,0,0,0-12,9.74A20,20,0,0,1,25.88,98.88,20,20,0,0,1,12.53,81,21.38,21.38,0,0,0,8,68.65,29.91,29.91,0,0,1,1.81,45.69Z"/><path class="cls-3" d="M44,12a1,1,0,0,1-.71-.3,1,1,0,0,1-.22-.32,1,1,0,0,1,.22-1.09,1,1,0,0,1,1.09-.22,1.21,1.21,0,0,1,.33.22,1,1,0,0,1,0,1.41A1,1,0,0,1,44,12Z"/><path class="cls-3" d="M56,16H50a1,1,0,0,1,0-2h6a1,1,0,0,1,0,2Z"/><path class="cls-3" d="M63,12H48a1,1,0,0,1,0-2H63a1,1,0,0,1,0,2Z"/><path class="cls-3" d="M53,20H46a1,1,0,0,1,0-2h7a1,1,0,0,1,0,2Z"/><path class="cls-3" d="M46,16H42a1,1,0,0,1,0-2h4a1,1,0,0,1,0,2Z"/><path class="cls-3" d="M44,12a1,1,0,0,1-.71-.3,1,1,0,0,1-.22-.32,1,1,0,0,1,.22-1.09,1,1,0,0,1,1.09-.22,1.21,1.21,0,0,1,.33.22,1,1,0,0,1,0,1.41A1,1,0,0,1,44,12Z"/><path class="cls-3" d="M56,16H50a1,1,0,0,1,0-2h6a1,1,0,0,1,0,2Z"/><path class="cls-3" d="M63,12H48a1,1,0,0,1,0-2H63a1,1,0,0,1,0,2Z"/><path class="cls-3" d="M53,20H46a1,1,0,0,1,0-2h7a1,1,0,0,1,0,2Z"/><path class="cls-3" d="M46,16H42a1,1,0,0,1,0-2h4a1,1,0,0,1,0,2Z"/><rect class="cls-4" height="4" width="4" x="16" y="79"/><path class="cls-5" d="M20,84H16a1,1,0,0,1-1-1V79a1,1,0,0,1,1-1h4a1,1,0,0,1,1,1v4A1,1,0,0,1,20,84Zm-3-2h2V80H17Z"/><rect class="cls-4" height="4" width="4" x="16" y="69"/><path class="cls-5" d="M20,74H16a1,1,0,0,1-1-1V69a1,1,0,0,1,1-1h4a1,1,0,0,1,1,1v4A1,1,0,0,1,20,74Zm-3-2h2V70H17Z"/><rect class="cls-4" height="4" width="4" x="16" y="59"/><path class="cls-5" d="M20,64H16a1,1,0,0,1-1-1V59a1,1,0,0,1,1-1h4a1,1,0,0,1,1,1v4A1,1,0,0,1,20,64Zm-3-2h2V60H17Z"/><rect class="cls-4" height="4" width="4" x="16" y="49"/><path class="cls-5" d="M20,54H16a1,1,0,0,1-1-1V49a1,1,0,0,1,1-1h4a1,1,0,0,1,1,1v4A1,1,0,0,1,20,54Zm-3-2h2V50H17Z"/><rect class="cls-4" height="4" width="4" x="16" y="39"/><path class="cls-5" d="M20,44H16a1,1,0,0,1-1-1V39a1,1,0,0,1,1-1h4a1,1,0,0,1,1,1v4A1,1,0,0,1,20,44Zm-3-2h2V40H17Z"/><rect class="cls-4" height="4" width="4" x="16" y="99"/><path class="cls-5" d="M20,104H16a1,1,0,0,1-1-1V99a1,1,0,0,1,1-1h4a1,1,0,0,1,1,1v4A1,1,0,0,1,20,104Zm-3-2h2v-2H17Z"/><rect class="cls-4" height="4" width="4" x="16" y="89"/><path class="cls-5" d="M20,94H16a1,1,0,0,1-1-1V89a1,1,0,0,1,1-1h4a1,1,0,0,1,1,1v4A1,1,0,0,1,20,94Zm-3-2h2V90H17Z"/><path class="cls-5" d="M70,109a1,1,0,0,1-1-1V34a1,1,0,0,1,2,0v74A1,1,0,0,1,70,109Z"/><path class="cls-5" d="M70,76H64a1,1,0,0,1,0-2h6a1,1,0,0,1,0,2Z"/><path class="cls-5" d="M70,72H64a1,1,0,0,1,0-2h6a1,1,0,0,1,0,2Z"/><path class="cls-5" d="M70,80H64a1,1,0,0,1,0-2h6a1,1,0,0,1,0,2Z"/><path class="cls-5" d="M70,64H64a1,1,0,0,1,0-2h6a1,1,0,0,1,0,2Z"/><path class="cls-5" d="M70,60H64a1,1,0,0,1,0-2h6a1,1,0,0,1,0,2Z"/><path class="cls-5" d="M70,68H64a1,1,0,0,1,0-2h6a1,1,0,0,1,0,2Z"/><path class="cls-5" d="M70,52H64a1,1,0,0,1,0-2h6a1,1,0,0,1,0,2Z"/><path class="cls-5" d="M70,48H64a1,1,0,0,1,0-2h6a1,1,0,0,1,0,2Z"/><path class="cls-5" d="M70,56H64a1,1,0,0,1,0-2h6a1,1,0,0,1,0,2Z"/><path class="cls-5" d="M70,40H64a1,1,0,0,1,0-2h6a1,1,0,0,1,0,2Z"/><path class="cls-5" d="M70,36H64a1,1,0,0,1,0-2h6a1,1,0,0,1,0,2Z"/><path class="cls-5" d="M70,44H64a1,1,0,0,1,0-2h6a1,1,0,0,1,0,2Z"/><path class="cls-5" d="M70,84H64a1,1,0,0,1,0-2h6a1,1,0,0,1,0,2Z"/><path class="cls-5" d="M70,88H64a1,1,0,0,1,0-2h6a1,1,0,0,1,0,2Z"/><path class="cls-5" d="M70,92H64a1,1,0,0,1,0-2h6a1,1,0,0,1,0,2Z"/><path class="cls-5" d="M70,96H64a1,1,0,0,1,0-2h6a1,1,0,0,1,0,2Z"/><path class="cls-5" d="M70,100H64a1,1,0,0,1,0-2h6a1,1,0,0,1,0,2Z"/><path class="cls-5" d="M70,104H64a1,1,0,0,1,0-2h6a1,1,0,0,1,0,2Z"/><path class="cls-5" d="M70,108H64a1,1,0,0,1,0-2h6a1,1,0,0,1,0,2Z"/><rect class="cls-6" height="3.99" width="44" x="20" y="25"/><path class="cls-5" d="M64,30H20a1,1,0,0,1-1-1V25a1,1,0,0,1,1-1H64a1,1,0,0,1,1,1v4A1,1,0,0,1,64,30ZM21,28H63V26H21Z"/><rect class="cls-4" height="86" width="44" x="20" y="29"/><path class="cls-5" d="M64,116H20a1,1,0,0,1-1-1V29a1,1,0,0,1,1-1H64a1,1,0,0,1,1,1v86A1,1,0,0,1,64,116Zm-43-2H63V30H21Z"/><rect class="cls-7" height="10" width="8" x="50" y="105"/><path class="cls-5" d="M58,116H50a1,1,0,0,1-1-1V105a1,1,0,0,1,1-1h8a1,1,0,0,1,1,1v10A1,1,0,0,1,58,116Zm-7-2h6v-8H51Z"/><rect class="cls-8" height="6" width="20" x="26" y="105"/><path class="cls-5" d="M46,112H26a1,1,0,0,1-1-1v-6a1,1,0,0,1,1-1H46a1,1,0,0,1,1,1v6A1,1,0,0,1,46,112Zm-19-2H45v-4H27Z"/><rect class="cls-8" height="6" width="10" x="26" y="95"/><path class="cls-5" d="M36,102H26a1,1,0,0,1-1-1V95a1,1,0,0,1,1-1H36a1,1,0,0,1,1,1v6A1,1,0,0,1,36,102Zm-9-2h8V96H27Z"/><path class="cls-5" d="M31,102a1,1,0,0,1-1-1V95a1,1,0,0,1,2,0v6A1,1,0,0,1,31,102Z"/><rect class="cls-8" height="6" width="10" x="26" y="85"/><path class="cls-5" d="M36,92H26a1,1,0,0,1-1-1V85a1,1,0,0,1,1-1H36a1,1,0,0,1,1,1v6A1,1,0,0,1,36,92Zm-9-2h8V86H27Z"/><path class="cls-5" d="M31,92a1,1,0,0,1-1-1V85a1,1,0,0,1,2,0v6A1,1,0,0,1,31,92Z"/><rect class="cls-8" height="6" width="10" x="26" y="75"/><path class="cls-5" d="M36,82H26a1,1,0,0,1-1-1V75a1,1,0,0,1,1-1H36a1,1,0,0,1,1,1v6A1,1,0,0,1,36,82Zm-9-2h8V76H27Z"/><path class="cls-5" d="M31,82a1,1,0,0,1-1-1V75a1,1,0,0,1,2,0v6A1,1,0,0,1,31,82Z"/><rect class="cls-8" height="6" width="10" x="26" y="65"/><path class="cls-5" d="M36,72H26a1,1,0,0,1-1-1V65a1,1,0,0,1,1-1H36a1,1,0,0,1,1,1v6A1,1,0,0,1,36,72Zm-9-2h8V66H27Z"/><path class="cls-5" d="M31,72a1,1,0,0,1-1-1V65a1,1,0,0,1,2,0v6A1,1,0,0,1,31,72Z"/><rect class="cls-8" height="6" width="10" x="48" y="95"/><path class="cls-5" d="M58,102H48a1,1,0,0,1-1-1V95a1,1,0,0,1,1-1H58a1,1,0,0,1,1,1v6A1,1,0,0,1,58,102Zm-9-2h8V96H49Z"/><path class="cls-5" d="M53,102a1,1,0,0,1-1-1V95a1,1,0,0,1,2,0v6A1,1,0,0,1,53,102Z"/><rect class="cls-8" height="6" width="10" x="48" y="85"/><path class="cls-5" d="M58,92H48a1,1,0,0,1-1-1V85a1,1,0,0,1,1-1H58a1,1,0,0,1,1,1v6A1,1,0,0,1,58,92Zm-9-2h8V86H49Z"/><path class="cls-5" d="M53,92a1,1,0,0,1-1-1V85a1,1,0,0,1,2,0v6A1,1,0,0,1,53,92Z"/><rect class="cls-8" height="6" width="10" x="48" y="75"/><path class="cls-5" d="M58,82H48a1,1,0,0,1-1-1V75a1,1,0,0,1,1-1H58a1,1,0,0,1,1,1v6A1,1,0,0,1,58,82Zm-9-2h8V76H49Z"/><path class="cls-5" d="M53,82a1,1,0,0,1-1-1V75a1,1,0,0,1,2,0v6A1,1,0,0,1,53,82Z"/><rect class="cls-8" height="6" width="10" x="48" y="65"/><path class="cls-5" d="M58,72H48a1,1,0,0,1-1-1V65a1,1,0,0,1,1-1H58a1,1,0,0,1,1,1v6A1,1,0,0,1,58,72Zm-9-2h8V66H49Z"/><path class="cls-5" d="M53,72a1,1,0,0,1-1-1V65a1,1,0,0,1,2,0v6A1,1,0,0,1,53,72Z"/><rect class="cls-8" height="6" width="10" x="26" y="55"/><path class="cls-5" d="M36,62H26a1,1,0,0,1-1-1V55a1,1,0,0,1,1-1H36a1,1,0,0,1,1,1v6A1,1,0,0,1,36,62Zm-9-2h8V56H27Z"/><path class="cls-5" d="M31,62a1,1,0,0,1-1-1V55a1,1,0,0,1,2,0v6A1,1,0,0,1,31,62Z"/><rect class="cls-8" height="6" width="10" x="48" y="55"/><path class="cls-5" d="M58,62H48a1,1,0,0,1-1-1V55a1,1,0,0,1,1-1H58a1,1,0,0,1,1,1v6A1,1,0,0,1,58,62Zm-9-2h8V56H49Z"/><path class="cls-5" d="M53,62a1,1,0,0,1-1-1V55a1,1,0,0,1,2,0v6A1,1,0,0,1,53,62Z"/><rect class="cls-8" height="6" width="10" x="26" y="45"/><path class="cls-5" d="M36,52H26a1,1,0,0,1-1-1V45a1,1,0,0,1,1-1H36a1,1,0,0,1,1,1v6A1,1,0,0,1,36,52Zm-9-2h8V46H27Z"/><path class="cls-5" d="M31,52a1,1,0,0,1-1-1V45a1,1,0,0,1,2,0v6A1,1,0,0,1,31,52Z"/><rect class="cls-8" height="6" width="10" x="48" y="45"/><path class="cls-5" d="M58,52H48a1,1,0,0,1-1-1V45a1,1,0,0,1,1-1H58a1,1,0,0,1,1,1v6A1,1,0,0,1,58,52Zm-9-2h8V46H49Z"/><path class="cls-5" d="M53,52a1,1,0,0,1-1-1V45a1,1,0,0,1,2,0v6A1,1,0,0,1,53,52Z"/><rect class="cls-8" height="6" width="10" x="26" y="35"/><path class="cls-5" d="M36,42H26a1,1,0,0,1-1-1V35a1,1,0,0,1,1-1H36a1,1,0,0,1,1,1v6A1,1,0,0,1,36,42Zm-9-2h8V36H27Z"/><path class="cls-5" d="M31,42a1,1,0,0,1-1-1V35a1,1,0,0,1,2,0v6A1,1,0,0,1,31,42Z"/><rect class="cls-8" height="6" width="10" x="48" y="35"/><path class="cls-5" d="M58,42H48a1,1,0,0,1-1-1V35a1,1,0,0,1,1-1H58a1,1,0,0,1,1,1v6A1,1,0,0,1,58,42Zm-9-2h8V36H49Z"/><path class="cls-5" d="M53,42a1,1,0,0,1-1-1V35a1,1,0,0,1,2,0v6A1,1,0,0,1,53,42Z"/><rect class="cls-2" height="66" width="4" x="40" y="35"/><path class="cls-5" d="M44,102H40a1,1,0,0,1-1-1V35a1,1,0,0,1,1-1h4a1,1,0,0,1,1,1v66A1,1,0,0,1,44,102Zm-3-2h2V36H41Z"/><path class="cls-5" d="M44,94H40a1,1,0,0,1,0-2h4a1,1,0,0,1,0,2Z"/><path class="cls-5" d="M44,84H40a1,1,0,0,1,0-2h4a1,1,0,0,1,0,2Z"/><path class="cls-5" d="M44,74H40a1,1,0,0,1,0-2h4a1,1,0,0,1,0,2Z"/><path class="cls-5" d="M44,64H40a1,1,0,0,1,0-2h4a1,1,0,0,1,0,2Z"/><path class="cls-5" d="M44,54H40a1,1,0,0,1,0-2h4a1,1,0,0,1,0,2Z"/><path class="cls-5" d="M44,44H40a1,1,0,0,1,0-2h4a1,1,0,0,1,0,2Z"/><path class="cls-5" d="M64,30H20a1,1,0,0,1,0-2H64a1,1,0,0,1,0,2Z"/><path class="cls-5" d="M66,26H18a1,1,0,0,1,0-2H66a1,1,0,0,1,0,2Z"/><rect class="cls-2" height="14" width="50" x="5" y="59.03"/><path class="cls-5" d="M55,74H5a1,1,0,0,1-1-1V59a1,1,0,0,1,1-1H55a1,1,0,0,1,1,1V73A1,1,0,0,1,55,74ZM6,72H54V60H6Z"/><polygon class="cls-4" points="51 77.03 51 75.03 30 61.5 9 75.03 9 77.03 7 77.03 7 115.03 53 115.03 53 109.34 53 83.45 53 77.03 51 77.03"/><path class="cls-5" d="M53,116H7a1,1,0,0,1-1-1V77a1,1,0,0,1,1-1H8V75a1,1,0,0,1,.46-.84l21-13.53a1,1,0,0,1,1.08,0l21,13.53A1,1,0,0,1,52,75v1h1a1,1,0,0,1,1,1v38A1,1,0,0,1,53,116ZM8,114H52V78H51a1,1,0,0,1-1-1V75.58L30,62.69,10,75.58V77a1,1,0,0,1-1,1H8Z"/><rect class="cls-8" height="12" width="18" x="13" y="99.03"/><path class="cls-5" d="M31,112H13a1,1,0,0,1-1-1V99a1,1,0,0,1,1-1H31a1,1,0,0,1,1,1v12A1,1,0,0,1,31,112Zm-17-2H30V100H14Z"/><rect class="cls-8" height="8" width="6" x="13" y="81.03"/><path class="cls-5" d="M19,90H13a1,1,0,0,1-1-1V81a1,1,0,0,1,1-1h6a1,1,0,0,1,1,1v8A1,1,0,0,1,19,90Zm-5-2h4V82H14Z"/><polygon class="cls-9" points="49 69.03 49 60.03 43 60.03 43 65.35 49 69.03"/><path class="cls-5" d="M49,70a1,1,0,0,1-.52-.15l-6-3.68a1,1,0,0,1-.48-.85V60a1,1,0,0,1,1-1h6a1,1,0,0,1,1,1v9a1,1,0,0,1-1,1Zm-5-5.24,4,2.45V61H44Z"/><rect class="cls-9" height="3" width="8" x="42" y="57.03"/><path class="cls-5" d="M50,61H42a1,1,0,0,1-1-1V57a1,1,0,0,1,1-1h8a1,1,0,0,1,1,1v3A1,1,0,0,1,50,61Zm-7-2h6V58H43Z"/><path class="cls-5" d="M22,112a1,1,0,0,1-1-1V99a1,1,0,0,1,2,0v12A1,1,0,0,1,22,112Z"/><path class="cls-5" d="M32,112H12a1,1,0,0,1,0-2H32a1,1,0,0,1,0,2Z"/><rect class="cls-9" height="13" width="10" x="37" y="99.03"/><path class="cls-5" d="M47,113H37a1,1,0,0,1-1-1V99a1,1,0,0,1,1-1H47a1,1,0,0,1,1,1v13A1,1,0,0,1,47,113Zm-9-2h8V100H38Z"/><path class="cls-5" d="M39,107H37a1,1,0,0,1,0-2h2a1,1,0,0,1,0,2Z"/><rect class="cls-7" height="3" width="12" x="36" y="112.03"/><path class="cls-5" d="M48,116H36a1,1,0,0,1-1-1v-3a1,1,0,0,1,1-1H48a1,1,0,0,1,1,1v3A1,1,0,0,1,48,116Zm-11-2H47v-1H37Z"/><rect class="cls-8" height="8" width="6" x="41" y="81.03"/><path class="cls-5" d="M47,90H41a1,1,0,0,1-1-1V81a1,1,0,0,1,1-1h6a1,1,0,0,1,1,1v8A1,1,0,0,1,47,90Zm-5-2h4V82H42Z"/><path class="cls-5" d="M20,90H12a1,1,0,0,1,0-2h8a1,1,0,0,1,0,2Z"/><rect class="cls-8" height="8" width="6" x="27" y="81.03"/><path class="cls-5" d="M33,90H27a1,1,0,0,1-1-1V81a1,1,0,0,1,1-1h6a1,1,0,0,1,1,1v8A1,1,0,0,1,33,90Zm-5-2h4V82H28Z"/><path class="cls-5" d="M19,86H13a1,1,0,0,1,0-2h6a1,1,0,0,1,0,2Z"/><path class="cls-5" d="M33,86H27a1,1,0,0,1,0-2h6a1,1,0,0,1,0,2Z"/><path class="cls-5" d="M47,86H41a1,1,0,0,1,0-2h6a1,1,0,0,1,0,2Z"/><path class="cls-5" d="M48,90H40a1,1,0,0,1,0-2h8a1,1,0,0,1,0,2Z"/><path class="cls-5" d="M34,90H26a1,1,0,0,1,0-2h8a1,1,0,0,1,0,2Z"/><path class="cls-8" d="M27,73V70a3,3,0,0,1,3-3h0a3,3,0,0,1,3,3v3Z"/><path class="cls-5" d="M33,74H27a1,1,0,0,1-1-1V70a4,4,0,0,1,8,0v3A1,1,0,0,1,33,74Zm-5-2h4V70a2,2,0,0,0-4,0Z"/><path class="cls-5" d="M34,74H26a1,1,0,0,1,0-2h8a1,1,0,0,1,0,2Z"/><path class="cls-5" d="M53,96H8a1,1,0,0,1,0-2H53a1,1,0,0,1,0,2Z"/><path class="cls-5" d="M53,78H8a1,1,0,0,1,0-2H53a1,1,0,0,1,0,2Z"/><polygon class="cls-2" points="51 77.03 51 75.03 30 61.5 9 75.03 9 77.03 5 77.03 5 73.03 30 57.03 55 73.03 55 77.03 51 77.03"/><path class="cls-5" d="M55,78H51a1,1,0,0,1-1-1V75.58L30,62.69,10,75.58V77a1,1,0,0,1-1,1H5a1,1,0,0,1-1-1V73a1,1,0,0,1,.46-.84l25-16a1,1,0,0,1,1.08,0l25,16A1,1,0,0,1,56,73v4A1,1,0,0,1,55,78Zm-3-2h2V73.58L30,58.22,6,73.58V76H8V75a1,1,0,0,1,.46-.84l21-13.53a1,1,0,0,1,1.08,0l21,13.53A1,1,0,0,1,52,75Z"/><path class="cls-10" d="M22,111a3,3,0,0,0-1.12.22,3,3,0,0,0-4.57-1.7,5,5,0,0,0-8.92.52,3.92,3.92,0,0,0-.4,0,4,4,0,0,0-4,4v1H25v-1A3,3,0,0,0,22,111Z"/><path class="cls-5" d="M25,116H3a1,1,0,0,1-1-1v-1a5,5,0,0,1,4.8-5,6,6,0,0,1,9.84-.77,4,4,0,0,1,4.83,1.8,3.81,3.81,0,0,1,.53,0,4,4,0,0,1,4,4v1A1,1,0,0,1,25,116ZM4,114H24a2,2,0,0,0-2.74-1.85,1,1,0,0,1-1.34-.67,2,2,0,0,0-3-1.14,1,1,0,0,1-1.43-.33A4,4,0,0,0,12,108a4,4,0,0,0-3.68,2.43,1,1,0,0,1-1,.6l-.18,0H7A3,3,0,0,0,4,114Z"/><path class="cls-5" d="M13.11,112.12a1,1,0,0,1-.59-.2c-.5-.37-.78-.32-1.11-.11a1,1,0,0,1-1.07-1.69,2.79,2.79,0,0,1,3.37.2,1,1,0,0,1-.6,1.8Z"/><rect class="cls-11" height="4" width="26" x="80" y="11.03"/><path class="cls-5" d="M106,16H80a1,1,0,0,1-1-1V11a1,1,0,0,1,1-1h26a1,1,0,0,1,1,1v4A1,1,0,0,1,106,16ZM81,14h24V12H81Z"/><rect class="cls-4" height="28" width="4" x="64" y="87.03"/><path class="cls-5" d="M68,116H64a1,1,0,0,1-1-1V87a1,1,0,0,1,1-1h4a1,1,0,0,1,1,1v28A1,1,0,0,1,68,116Zm-3-2h2V88H65Z"/><rect class="cls-12" height="28" width="6" x="68" y="87.03"/><path class="cls-5" d="M74,116H68a1,1,0,0,1-1-1V87a1,1,0,0,1,1-1h6a1,1,0,0,1,1,1v28A1,1,0,0,1,74,116Zm-5-2h4V88H69Z"/><rect class="cls-4" height="28" width="4" x="118" y="87.03"/><path class="cls-5" d="M122,116h-4a1,1,0,0,1-1-1V87a1,1,0,0,1,1-1h4a1,1,0,0,1,1,1v28A1,1,0,0,1,122,116Zm-3-2h2V88h-2Z"/><rect class="cls-12" height="28" width="6" x="112" y="87.03"/><path class="cls-5" d="M118,116h-6a1,1,0,0,1-1-1V87a1,1,0,0,1,1-1h6a1,1,0,0,1,1,1v28A1,1,0,0,1,118,116Zm-5-2h4V88h-4Z"/><rect class="cls-4" height="100" width="38" x="74" y="15.03"/><path class="cls-5" d="M112,116H74a1,1,0,0,1-1-1V15a1,1,0,0,1,1-1h38a1,1,0,0,1,1,1V115A1,1,0,0,1,112,116Zm-37-2h36V16H75Z"/><rect class="cls-8" height="80" width="30" x="78" y="19.03"/><path class="cls-5" d="M108,100H78a1,1,0,0,1-1-1V19a1,1,0,0,1,1-1h30a1,1,0,0,1,1,1V99A1,1,0,0,1,108,100ZM79,98h28V20H79Z"/><rect class="cls-12" height="16" width="30" x="78" y="99.03"/><path class="cls-5" d="M108,116H78a1,1,0,0,1-1-1V99a1,1,0,0,1,1-1h30a1,1,0,0,1,1,1v16A1,1,0,0,1,108,116Zm-29-2h28V100H79Z"/><path class="cls-5" d="M102,100a1,1,0,0,1-1-1V19a1,1,0,0,1,2,0V99A1,1,0,0,1,102,100Z"/><path class="cls-5" d="M96,100a1,1,0,0,1-1-1V19a1,1,0,0,1,2,0V99A1,1,0,0,1,96,100Z"/><path class="cls-5" d="M90,100a1,1,0,0,1-1-1V19a1,1,0,0,1,2,0V99A1,1,0,0,1,90,100Z"/><path class="cls-5" d="M93,12a1,1,0,0,1-1-1V7a1,1,0,1,1,2,0v4A1,1,0,0,1,93,12Z"/><rect class="cls-7" height="4" width="10" x="64" y="111.03"/><path class="cls-5" d="M74,116H64a1,1,0,0,1-1-1v-4a1,1,0,0,1,1-1H74a1,1,0,0,1,1,1v4A1,1,0,0,1,74,116Zm-9-2h8v-2H65Z"/><path class="cls-5" d="M84,100a1,1,0,0,1-1-1V19a1,1,0,0,1,2,0V99A1,1,0,0,1,84,100Z"/><path class="cls-5" d="M86,116a1,1,0,0,1-1-1V99a1,1,0,0,1,2,0v16A1,1,0,0,1,86,116Z"/><path class="cls-5" d="M100,116a1,1,0,0,1-1-1V99a1,1,0,0,1,2,0v16A1,1,0,0,1,100,116Z"/><path class="cls-5" d="M93,116a1,1,0,0,1-1-1V99a1,1,0,0,1,2,0v16A1,1,0,0,1,93,116Z"/><path class="cls-5" d="M108,80H78a1,1,0,0,1,0-2h30a1,1,0,0,1,0,2Z"/><path class="cls-5" d="M108,90H78a1,1,0,0,1,0-2h30a1,1,0,0,1,0,2Z"/><path class="cls-5" d="M108,50H78a1,1,0,0,1,0-2h30a1,1,0,1,1,0,2Z"/><path class="cls-5" d="M108,60H78a1,1,0,1,1,0-2h30a1,1,0,1,1,0,2Z"/><path class="cls-5" d="M108,70H78a1,1,0,0,1,0-2h30a1,1,0,0,1,0,2Z"/><path class="cls-5" d="M108,30H78a1,1,0,0,1,0-2h30a1,1,0,0,1,0,2Z"/><path class="cls-5" d="M108,40H78a1,1,0,0,1,0-2h30a1,1,0,1,1,0,2Z"/><path class="cls-5" d="M108,100H78a1,1,0,0,1,0-2h30a1,1,0,0,1,0,2Z"/><path class="cls-5" d="M118,112a1,1,0,0,1-1-1V91a1,1,0,0,1,2,0v20A1,1,0,0,1,118,112Z"/><rect class="cls-7" height="4" width="10" x="112" y="111.03"/><path class="cls-5" d="M122,116H112a1,1,0,0,1-1-1v-4a1,1,0,0,1,1-1h10a1,1,0,0,1,1,1v4A1,1,0,0,1,122,116Zm-9-2h8v-2h-8Z"/><rect class="cls-11" height="4" width="10" x="112" y="87.03"/><path class="cls-5" d="M122,92H112a1,1,0,0,1-1-1V87a1,1,0,0,1,1-1h10a1,1,0,0,1,1,1v4A1,1,0,0,1,122,92Zm-9-2h8V88h-8Z"/><rect class="cls-11" height="4" width="10" x="64" y="87.03"/><path class="cls-5" d="M74,92H64a1,1,0,0,1-1-1V87a1,1,0,0,1,1-1H74a1,1,0,0,1,1,1v4A1,1,0,0,1,74,92Zm-9-2h8V88H65Z"/><path class="cls-5" d="M113.09,115.92a1,1,0,0,1-1-1v-8a1,1,0,0,1,2,0v8A1,1,0,0,1,113.09,115.92Z"/><path class="cls-10" d="M119.09,101.42a6,6,0,0,1-12,0c0-3,2.69-16.5,6-16.5S119.09,98.38,119.09,101.42Z"/><path class="cls-5" d="M113.09,107.92a6.77,6.77,0,0,1-7-6.5c0-1.95,2.34-17.5,7-17.5s7,15.55,7,17.5A6.77,6.77,0,0,1,113.09,107.92Zm0-22c-2,0-5,11.79-5,15.5a5,5,0,0,0,10,0C118.09,97.71,115.11,85.92,113.09,85.92Z"/><path class="cls-5" d="M111.81,103.78a1,1,0,0,1-.25,0,2.79,2.79,0,0,1-2.18-2.57,1,1,0,1,1,2-.25c.08.61.31.79.69.88a1,1,0,0,1-.24,2Z"/><path class="cls-5" d="M114.11,94.37a1,1,0,0,1-.83-.44c-.35-.51-.63-.56-1-.47a1,1,0,0,1-.44-2,2.8,2.8,0,0,1,3.11,1.3,1,1,0,0,1-.83,1.56Z"/><path class="cls-10" d="M64.14,111.17a3,3,0,0,1,4.54-1.62,5,5,0,0,1,9.11,1.15A4,4,0,0,1,84,114v1H62v-1A3,3,0,0,1,64.14,111.17Z"/><path class="cls-5" d="M84,116H62a1,1,0,0,1-1-1v-1a4,4,0,0,1,2.36-3.64,4,4,0,0,1,5-2.13,6,6,0,0,1,10,1.05A5,5,0,0,1,85,114v1A1,1,0,0,1,84,116Zm-21-2H83a3,3,0,0,0-4.65-2.5,1,1,0,0,1-1.51-.57A4,4,0,0,0,73,108a4,4,0,0,0-3.45,2,1,1,0,0,1-.64.48,1,1,0,0,1-.79-.15,2,2,0,0,0-3,1.08,1,1,0,0,1-.67.67A2,2,0,0,0,63,114Zm1.14-2.86h0Z"/><path class="cls-5" d="M74.11,112.06a1,1,0,0,1-.55-.17c-.51-.34-.8-.28-1.12-.05a1,1,0,1,1-1.15-1.63,2.8,2.8,0,0,1,3.37,0,1,1,0,0,1-.55,1.83Z"/><path class="cls-5" d="M112,116H23a1,1,0,1,1,0-2h89a1,1,0,1,1,0,2Z"/><path class="cls-5" d="M127,116H115a1,1,0,0,1,0-2h12a1,1,0,1,1,0,2Z"/><path class="cls-5" d="M6,116H1a1,1,0,1,1,0-2H6a1,1,0,0,1,0,2Z"/><path class="cls-5" d="M20,116H9a1,1,0,1,1,0-2H20a1,1,0,0,1,0,2Z"/><path class="cls-5" d="M119,126h-2a1,1,0,0,1,0-2h2a1,1,0,1,1,0,2Z"/><path class="cls-5" d="M114,126H13a1,1,0,0,1,0-2H114a1,1,0,0,1,0,2Z"/></g><path class="cls-4" d="M97,1H31a4,4,0,0,0-4,4V29a4,4,0,0,0,4,4h3v6l7-6H58l6,6,6-6H87l7,6V33h3a4,4,0,0,0,4-4V5A4,4,0,0,0,97,1Z"/><g class="cls-1"><path class="cls-13" d="M35,31a1,1,0,0,0-1-1H31a4,4,0,0,1-4-4v3a4,4,0,0,0,4,4h4Z"/><path class="cls-13" d="M68.71,30.29,64,35l-4.71-4.71a1,1,0,0,0-.71-.29H40.36a1,1,0,0,0-.64.23L34,35v4l7-6H58l6,6,6-6H87l7,6V35l-5.72-4.77a1,1,0,0,0-.64-.23H69.41A1,1,0,0,0,68.71,30.29Z"/><path class="cls-13" d="M97,30H94a1,1,0,0,0-1,1v2h4a4,4,0,0,0,4-4V26A4,4,0,0,1,97,30Z"/></g><path class="cls-3" d="M97,1H31a4,4,0,0,0-4,4V8a4,4,0,0,1,4-4H97a4,4,0,0,1,4,4V5A4,4,0,0,0,97,1Z"/><path class="cls-5" d="M94,40a1,1,0,0,1-.65-.24L86.63,34H70.41l-5.71,5.71a1,1,0,0,1-1.41,0L57.59,34H41.37l-6.72,5.76A1,1,0,0,1,33,39V34H31a5,5,0,0,1-5-5V5a5,5,0,0,1,5-5H97a5,5,0,0,1,5,5V29a5,5,0,0,1-5,5H95v5a1,1,0,0,1-1,1ZM41,32H58a1,1,0,0,1,.71.29L64,37.59l5.29-5.29A1,1,0,0,1,70,32H87a1,1,0,0,1,.65.24L93,36.83V33a1,1,0,0,1,1-1h3a3,3,0,0,0,3-3V5a3,3,0,0,0-3-3H31a3,3,0,0,0-3,3V29a3,3,0,0,0,3,3h3a1,1,0,0,1,1,1v3.83l5.35-4.58A1,1,0,0,1,41,32Z"/><path class="cls-14" d="M64,15.31l2.18-8.55A.66.66,0,0,0,65,6.35L56.49,17.54a.76.76,0,0,0,.56,1.16h6.18L61,27.24a.66.66,0,0,0,1.23.4l9.31-11.21A.76.76,0,0,0,71,15.28Z"/><path class="cls-5" d="M61.65,29a1.61,1.61,0,0,1-.41-.05A1.72,1.72,0,0,1,60,27.24,1,1,0,0,1,60,27l1.92-7.29H57.05a1.63,1.63,0,0,1-1.42-.83,1.84,1.84,0,0,1,0-1.82l.08-.12L64.12,5.79a1.61,1.61,0,0,1,1.79-.74,1.72,1.72,0,0,1,1.27,1.71,1,1,0,0,1,0,.25l-1.86,7.3,5.66,0a1.64,1.64,0,0,1,1.42.83,1.84,1.84,0,0,1,0,1.82,1,1,0,0,1-.1.15L63,28.23A1.63,1.63,0,0,1,61.65,29Zm1.58-11.31a1,1,0,0,1,1,1.25l-1.83,6.93,8-9.6-6.34,0h0a1,1,0,0,1-1-1.25l1.73-6.8L57.62,17.7h5.61Z"/><g class="cls-15"><path class="cls-5" d="M49,18a1,1,0,0,1-.38-.08,1.15,1.15,0,0,1-.33-.21,1,1,0,0,1-.21-1.09,1.15,1.15,0,0,1,.21-.33,1,1,0,0,1,1.09-.21.9.9,0,0,1,.54.54A.84.84,0,0,1,50,17a1,1,0,0,1-1,1Z"/><path class="cls-5" d="M43,18a1,1,0,0,1-.92-1.38,1.15,1.15,0,0,1,.21-.33,1,1,0,0,1,1.42,0,1.16,1.16,0,0,1,.21.33A.84.84,0,0,1,44,17a1,1,0,0,1-.29.71,1.15,1.15,0,0,1-.33.21A1,1,0,0,1,43,18Z"/><path class="cls-5" d="M37,18a1,1,0,0,1-.38-.08,1.15,1.15,0,0,1-.33-.21,1,1,0,0,1-.21-1.09,1.15,1.15,0,0,1,.21-.33,1,1,0,0,1,1.42,0,1.16,1.16,0,0,1,.21.33,1,1,0,0,1-.21,1.09,1.15,1.15,0,0,1-.33.21A1,1,0,0,1,37,18Z"/><path class="cls-5" d="M91,18a1,1,0,0,1-.38-.08,1.15,1.15,0,0,1-.33-.21,1,1,0,0,1-.21-1.09,1.15,1.15,0,0,1,.21-.33,1,1,0,0,1,1.09-.21.9.9,0,0,1,.54.54A.84.84,0,0,1,92,17a1,1,0,0,1-1,1Z"/><path class="cls-5" d="M85,18a1,1,0,0,1-.92-1.38,1.15,1.15,0,0,1,.21-.33,1,1,0,0,1,1.42,0,1.16,1.16,0,0,1,.21.33A.84.84,0,0,1,86,17a1,1,0,0,1-.29.71,1.15,1.15,0,0,1-.33.21A1,1,0,0,1,85,18Z"/><path class="cls-5" d="M79,18a1,1,0,0,1-.38-.08,1.15,1.15,0,0,1-.33-.21,1,1,0,0,1-.21-1.09,1.15,1.15,0,0,1,.21-.33,1,1,0,0,1,1.42,0,1.16,1.16,0,0,1,.21.33,1,1,0,0,1-.21,1.09,1.15,1.15,0,0,1-.33.21A1,1,0,0,1,79,18Z"/></g><path class="cls-16" d="M21.95,71.73V52.59A9.84,9.84,0,0,1,32,42.54h0A9.84,9.84,0,0,1,42.05,52.59V71.73Z"/><g class="cls-1"><path class="cls-3" d="M32,42.54h0A9.84,9.84,0,0,0,21.95,52.59v1.62A9.84,9.84,0,0,1,32,44.16h0A9.84,9.84,0,0,1,42.05,54.22V52.59A9.84,9.84,0,0,0,32,42.54Z"/></g><path class="cls-5" d="M42.05,72.73H21.95a1,1,0,0,1-1-1V52.59A10.81,10.81,0,0,1,32,41.54,10.81,10.81,0,0,1,43.05,52.59V71.73A1,1,0,0,1,42.05,72.73Zm-19.11-2H41.05V52.59A8.86,8.86,0,0,0,32,43.54a8.86,8.86,0,0,0-9.05,9.05Z"/><path class="cls-17" d="M33.39,106.36v2.86c0,6.44,3.58,13.6,3.58,13.6l.72,1.43a84.55,84.55,0,0,0,.76-17.9Z"/><path class="cls-17" d="M30.74,106.36s0,1.43,0,2.86a26,26,0,0,1-3.58,12.17l-.72,2.86a86.51,86.51,0,0,1-.72-17.9Z"/><g class="cls-1"><path class="cls-18" d="M30.53,109c0-1.37,0-2.69,0-2.69H25.52q-.08,1.27-.12,2.48C27,109,28.71,109,30.53,109Z"/></g><g class="cls-1"><path class="cls-18" d="M38.57,108.89q0-1.24-.12-2.53H33.39v2.7C35.2,109,37,109,38.57,108.89Z"/></g><path class="cls-5" d="M37.69,125.26a1,1,0,0,1-.89-.55l-.72-1.43c-.15-.3-3.69-7.45-3.69-14.05v-2.86a1,1,0,0,1,2,0v2.86c0,4.34,1.73,9.1,2.74,11.53a88.06,88.06,0,0,0,.31-14.33,1,1,0,1,1,2-.12,84.75,84.75,0,0,1-.77,18.14,1,1,0,0,1-.84.82Z"/><path class="cls-5" d="M26.23,125.26h0a1,1,0,0,1-.95-.83,86.66,86.66,0,0,1-.73-18.13,1,1,0,0,1,1.06-.94,1,1,0,0,1,.94,1.06,90.08,90.08,0,0,0,.19,13.35,24.4,24.4,0,0,0,2.82-10.54c0-1.45,0-2.89,0-2.89a1,1,0,0,1,1-1,1,1,0,0,1,1,1s0,1.42,0,2.83a26.73,26.73,0,0,1-3.65,12.56l-.68,2.72A1,1,0,0,1,26.23,125.26Z"/><path class="cls-19" d="M26.23,125H22.65v-1.29h0l1.43-1.57,1.43-4.3H29.1v4.3A2.86,2.86,0,0,1,26.23,125Z"/><g class="cls-1"><polygon class="cls-3" points="25.52 117.82 24.8 119.97 29.1 119.97 29.1 117.82 25.52 117.82"/></g><path class="cls-19" d="M37.69,125h3.58v-1.29h0l-1.43-1.57-1.43-4.3H34.82v4.3A2.86,2.86,0,0,0,37.69,125Z"/><g class="cls-1"><polygon class="cls-3" points="38.41 117.82 39.12 119.97 34.83 119.97 34.83 117.82 38.41 117.82"/></g><path class="cls-5" d="M26.23,126H22.65a1,1,0,0,1-1-1v-1.29a1,1,0,0,1,.26-.67l1.29-1.42,1.36-4.1a1,1,0,0,1,.95-.68H29.1a1,1,0,0,1,1,1v4.3A3.87,3.87,0,0,1,26.23,126Zm-2.49-2h2.49a1.87,1.87,0,0,0,1.86-1.86v-3.3H26.24L25,122.43a1,1,0,0,1-.21.36Z"/><path class="cls-5" d="M41.27,126H37.69a3.87,3.87,0,0,1-3.86-3.86v-4.3a1,1,0,0,1,1-1H38.4a1,1,0,0,1,.95.68l1.37,4.1L42,123a1,1,0,0,1,.26.67V125A1,1,0,0,1,41.27,126Zm-5.44-7.16v3.3A1.87,1.87,0,0,0,37.69,124h2.49l-1.08-1.19a1,1,0,0,1-.21-.36l-1.2-3.61Z"/><path class="cls-5" d="M26.23,123.11H24.08a1,1,0,0,1,0-2h2.15a1,1,0,0,1,0,2Z"/><path class="cls-5" d="M39.84,123.11H37.69a1,1,0,1,1,0-2h2.15a1,1,0,0,1,0,2Z"/><path class="cls-10" d="M37.46,66.42h0l.6.29a11.44,11.44,0,0,1,6.24,7.88l1.94,8.87H41l-1.2-5c.72,2.09-.72,4.43-.63,7.26a45.75,45.75,0,0,1-14,0c.32-2.84-1.52-3.72-.87-7.26l-.82,5h-5.4l1.58-8.62A11.44,11.44,0,0,1,26,66.62l.4-.19h0C28.38,70.56,35.54,70.56,37.46,66.42Z"/><g class="cls-15"><path class="cls-3" d="M19.7,77.6a11,11,0,0,1,6-8.27,8.85,8.85,0,0,0,12.27,0,11.76,11.76,0,0,1,6.36,8l1.35,6.16h.59L44.31,74.6a11.44,11.44,0,0,0-6.24-7.88l-.6-.29h0c-1.91,4.14-9.07,4.14-11,0h0l-.4.19a11.44,11.44,0,0,0-6.35,8.27l-1.58,8.62h.5Z"/><path class="cls-3" d="M24.34,81.2v.05h0Z"/></g><path class="cls-20" d="M39.21,85.76c3.49,4.32,4.49,12.58,5.64,19.17,0,1.91-25.06,1.91-25.06,0,1-6,2.15-14.13,5.41-19.17A45.93,45.93,0,0,0,39.21,85.76Z"/><path class="cls-17" d="M23,83.59,21.94,94l-.61,0c-1.32,0-2.71-2.2-1.74-4.89a23.75,23.75,0,0,1-.74-5.51"/><path class="cls-5" d="M21.94,95h0l-.61,0A2.9,2.9,0,0,1,19,93.59a5.31,5.31,0,0,1-.5-4.52,27.12,27.12,0,0,1-.69-5.44,1,1,0,0,1,.95-1,1,1,0,0,1,1,1,23.54,23.54,0,0,0,.69,5.26,1,1,0,0,1,0,.64,3.32,3.32,0,0,0,.17,3,1.55,1.55,0,0,0,.35.38l1-9.36a1,1,0,0,1,2,.21l-1.1,10.4A1,1,0,0,1,21.94,95Z"/><path class="cls-5" d="M20.46,90.11h-.1L19.54,90a1,1,0,1,1,.2-2l.82.08a1,1,0,0,1-.1,2Z"/><path class="cls-17" d="M41.7,83.59l1,10.4.61,0c1.32,0,2.81-2.2,1.83-4.89a23.75,23.75,0,0,0,.74-5.51"/><path class="cls-5" d="M42.7,95a1,1,0,0,1-1-.9l-1-10.4a1,1,0,0,1,2-.19l.9,9.35a1.68,1.68,0,0,0,.41-.43,3.34,3.34,0,0,0,.2-3,1,1,0,0,1,0-.64,23.48,23.48,0,0,0,.69-5.26,1,1,0,1,1,2,.1,27.06,27.06,0,0,1-.69,5.44,5.26,5.26,0,0,1-.53,4.47A3,3,0,0,1,43.34,95l-.61,0Z"/><path class="cls-5" d="M44.27,90.11a1,1,0,0,1-.1-2L45,88a1,1,0,1,1,.2,2l-.82.08Z"/><path class="cls-5" d="M32.32,107.36c-3.32,0-6.41-.13-8.72-.36-3.6-.37-4.81-.89-4.81-2.07a1,1,0,0,1,0-.16l.16-1c1-6,2.16-13.41,5.27-18.35a4.45,4.45,0,0,0-.07-1.14,1,1,0,0,1-.64.23h-5.4a1,1,0,0,1-1-1.18l1.58-8.62a12.47,12.47,0,0,1,6.9-9l.4-.19.11,0a1,1,0,0,1,1.28.63,1,1,0,0,1-.58,1.24l-.35.17a10.47,10.47,0,0,0-5.8,7.55l-1.36,7.44h3.35l.61-3.76c0-.14,0-.29.07-.44a1,1,0,0,1,2,.34l-.06.4a6.33,6.33,0,0,0,.43,3.3,7.51,7.51,0,0,1,.51,3.52,1,1,0,0,1-.15.43c-3,4.59-4.16,11.91-5.1,17.79l-.07.44c3,1.13,19.84,1.13,22.9,0-.11-.63-.22-1.27-.33-1.93-1-5.92-2.11-12.64-5-16.23a1,1,0,0,1-.22-.6,14.74,14.74,0,0,1,.47-3.71A8.4,8.4,0,0,0,39,79.32l-.14-.59a1,1,0,0,1,1.92-.56,4.53,4.53,0,0,1,.19.77l.85,3.53H45l-1.67-7.66a10.37,10.37,0,0,0-5.7-7.19l-.59-.28a1,1,0,0,1-.54-1.23,1,1,0,0,1,1.25-.64h0l.12,0,.6.29a12.36,12.36,0,0,1,6.79,8.57l1.94,8.87a1,1,0,0,1-1,1.21H41a1,1,0,0,1-.73-.31,9.25,9.25,0,0,0-.11,1.25c3.07,4,4.2,10.85,5.21,16.87.14.84.28,1.67.42,2.47a1,1,0,0,1,0,.17C45.85,105.78,45.85,107.36,32.32,107.36Z"/><path class="cls-21" d="M36.5,63.69a2.13,2.13,0,0,0,.94,2.63c-.72,1.65-3.53,2.55-5.5,3.13-2-.59-5-1.39-5.5-3a2.22,2.22,0,0,0,.92-2.74Z"/><g class="cls-1"><path class="cls-18" d="M36.5,63.69H27.37a2.6,2.6,0,0,1,0,1.86,7.06,7.06,0,0,0,9.13,0A2.58,2.58,0,0,1,36.5,63.69Z"/></g><path class="cls-5" d="M31.94,70.45c-3,0-5.81-1.64-6.45-3.73a1,1,0,0,1,.43-1.14,1.28,1.28,0,0,0,.54-1.49,1,1,0,1,1,1.84-.79,3.13,3.13,0,0,1-.6,3.37,5.58,5.58,0,0,0,4.25,1.77,5.34,5.34,0,0,0,4.19-1.93,2.94,2.94,0,0,1-.55-3.21,1,1,0,0,1,1.85.77A1.11,1.11,0,0,0,38,65.5a1,1,0,0,1,.34,1.22A7.07,7.07,0,0,1,31.94,70.45Z"/><path class="cls-5" d="M32.65,87.31a34.09,34.09,0,0,1-7.42-.57,1,1,0,0,1,.65-1.89c1.88.64,11.65.55,12.79,0a1,1,0,0,1,.83,1.82C38.58,87.13,35.65,87.31,32.65,87.31Z"/><circle class="cls-16" cx="31.96" cy="86.31" r="2.15"/><path class="cls-5" d="M32,89.46a3.15,3.15,0,1,1,3.15-3.15A3.15,3.15,0,0,1,32,89.46Zm0-4.3a1.15,1.15,0,1,0,1.15,1.15A1.15,1.15,0,0,0,32,85.17Z"/><g class="cls-15"><path class="cls-5" d="M28.44,81.46A4.6,4.6,0,0,1,23.74,77a1,1,0,0,1,2,0,2.71,2.71,0,0,0,5.4,0,1,1,0,1,1,2,0A4.6,4.6,0,0,1,28.44,81.46Z"/><path class="cls-5" d="M35.84,81.46A4.6,4.6,0,0,1,31.14,77a1,1,0,1,1,2,0,2.71,2.71,0,0,0,5.4,0,1,1,0,0,1,2,0A4.6,4.6,0,0,1,35.84,81.46Z"/></g><path class="cls-20" d="M25.16,75.25a19.08,19.08,0,0,0-.82,3.25"/><path class="cls-5" d="M24.34,79.5h-.11a1,1,0,0,1-.89-1.1,19.8,19.8,0,0,1,.88-3.47,1,1,0,1,1,1.89.66,17.68,17.68,0,0,0-.77,3A1,1,0,0,1,24.34,79.5Z"/><path class="cls-20" d="M39,75.25a19,19,0,0,1,.82,3.25"/><path class="cls-5" d="M39.84,79.5a1,1,0,0,1-1-.92,17.5,17.5,0,0,0-.77-3A1,1,0,1,1,40,74.93a19.13,19.13,0,0,1,.88,3.49,1,1,0,0,1-.92,1.08Z"/><path class="cls-17" d="M32.22,65.53h-.45a4.8,4.8,0,0,1-2.31-.59l-1.19-.65A8.18,8.18,0,0,1,24,57.12v-5.2c0-7.64,16-7.64,16,0v5.2a8.18,8.18,0,0,1-4.28,7.17l-1.19.65A4.8,4.8,0,0,1,32.22,65.53Z"/><g class="cls-1"><path class="cls-18" d="M35.72,62.08l-1.19.65a4.8,4.8,0,0,1-2.31.59h-.45a4.8,4.8,0,0,1-2.31-.59l-1.19-.65A8.18,8.18,0,0,1,24,54.91v2.21a8.18,8.18,0,0,0,4.28,7.17l1.19.65a4.8,4.8,0,0,0,2.31.59h.45a4.8,4.8,0,0,0,2.31-.59l1.19-.65A8.18,8.18,0,0,0,40,57.12V54.91A8.18,8.18,0,0,1,35.72,62.08Z"/></g><path class="cls-5" d="M32.22,66.53h-.45A5.82,5.82,0,0,1,29,65.82l-1.19-.65a9.19,9.19,0,0,1-4.8-8v-5.2c0-4.62,4.67-6.73,9-6.73s9,2.11,9,6.73v5.2a9.19,9.19,0,0,1-4.8,8L35,65.82A5.82,5.82,0,0,1,32.22,66.53ZM32,47.18c-3.37,0-7,1.48-7,4.73v5.2a7.19,7.19,0,0,0,3.76,6.29l1.19.65a3.82,3.82,0,0,0,1.82.46h.45a3.82,3.82,0,0,0,1.83-.46l1.19-.65A7.19,7.19,0,0,0,39,57.12v-5.2C39,48.67,35.37,47.18,32,47.18Z"/><path class="cls-5" d="M32.06,60.14a1.83,1.83,0,0,1-1.14-.49A1,1,0,0,1,32.07,58a1,1,0,0,1,1.19.23,1,1,0,0,1-.06,1.4A1.84,1.84,0,0,1,32.06,60.14Z"/><path class="cls-5" d="M32,62.78a4,4,0,0,1-2.09-.45A1,1,0,0,1,29.41,61a1,1,0,0,1,1.31-.47l.12.06a2.06,2.06,0,0,0,1.15.21c.86,0,1.06-.13,1.19-.21l1.09,1.68A3.73,3.73,0,0,1,32,62.78Z"/><path class="cls-5" d="M28.78,57.93a1.36,1.36,0,1,1,1.36-1.36A1.36,1.36,0,0,1,28.78,57.93Zm0-2a.64.64,0,1,0,.64.64A.64.64,0,0,0,28.78,55.93Z"/><path class="cls-5" d="M37.44,55.22a1,1,0,0,1-.45-.11A4.52,4.52,0,0,0,34.23,55a1,1,0,0,1-.61-1.91,6.45,6.45,0,0,1,4.26.27,1,1,0,0,1-.45,1.89Z"/><path class="cls-5" d="M26.52,55.18A1,1,0,0,1,26,53.3a5.43,5.43,0,0,1,4.4-.15,1,1,0,1,1-.8,1.83,3.45,3.45,0,0,0-2.62.07A1,1,0,0,1,26.52,55.18Z"/><path class="cls-5" d="M35.22,57.93a1.36,1.36,0,1,1,1.36-1.36A1.36,1.36,0,0,1,35.22,57.93Zm0-2a.64.64,0,1,0,.64.64A.64.64,0,0,0,35.22,55.93Z"/><circle class="cls-5" cx="28.78" cy="56.57" r="1"/><circle class="cls-5" cx="35.22" cy="56.57" r="1"/><g class="cls-1"><circle class="cls-9" cx="36.3" cy="59.8" r="1.43"/></g><g class="cls-1"><circle class="cls-9" cx="27.7" cy="59.8" r="1.43"/></g><g class="cls-1"><path class="cls-18" d="M24,52.16a13.19,13.19,0,0,0,13.11-2.53C38,52.92,40,52.32,40,52.32V50.44s-2,.83-2.94-2.47c-6,5.06-13,2.21-13,2.21Z"/></g><path class="cls-16" d="M24,50.15a12.78,12.78,0,0,0,13-2.36,2.53,2.53,0,0,0,2.94,2.71l.73,0C40.44,43,23.55,43,23.32,49.85Z"/><path class="cls-5" d="M28.71,52a13.65,13.65,0,0,1-5.08-.94L23,50.78a1,1,0,1,1,.8-1.83l.64.28a11.68,11.68,0,0,0,12-2.2,1,1,0,0,1,1.66.75,1.74,1.74,0,0,0,.46,1.36,2,2,0,0,0,1.35.36l.45,0a1,1,0,1,1,.17,2l-.41,0a3.91,3.91,0,0,1-2.88-.84,3.14,3.14,0,0,1-.79-1.08A13.21,13.21,0,0,1,28.71,52Z"/><path class="cls-5" d="M40,54.13a1,1,0,0,1-1-1V51.44a5.81,5.81,0,0,0-.05-.8,1,1,0,0,1,2-.27A7.94,7.94,0,0,1,41,51.44v1.68A1,1,0,0,1,40,54.13Z"/><path class="cls-5" d="M24,53.72a1,1,0,0,1-1-1V51.44a7.74,7.74,0,0,1,.13-1.4,1,1,0,0,1,2,.36,5.73,5.73,0,0,0-.09,1v1.28A1,1,0,0,1,24,53.72Z"/><path class="cls-2" d="M72.19,89.9H55.81v2.87H51L49.78,82.19a7,7,0,0,1,0-1.78l.92-7.74a5,5,0,0,1,2.82-4l5-2.27c.5,1.64,2.95,3,5.5,3a6.05,6.05,0,0,0,5.46-3.13h.05l5,2.38a5,5,0,0,1,2.78,3.95l.92,7.78a7,7,0,0,1,0,1.78L77,92.76H72.19Z"/><g class="cls-1"><path class="cls-3" d="M49.87,82.92l.83-7a5,5,0,0,1,2.82-4l4.06-2c.84,1.56,3.83,2.78,6.39,2.78A9.34,9.34,0,0,0,70.41,70l4.11,2a5,5,0,0,1,2.78,3.95l.83,7,.09-.73a7,7,0,0,0,0-1.78l-.92-7.78a5,5,0,0,0-2.78-3.95l-5-2.38h-.05A6.05,6.05,0,0,1,64,69.45c-2.55,0-5-1.38-5.5-3l-5,2.27a5,5,0,0,0-2.82,4l-.92,7.74a7,7,0,0,0,0,1.78Z"/></g><polygon class="cls-3" points="54.95 92.76 51 92.76 50.63 89.18 54.95 89.18 54.95 92.76"/><polygon class="cls-3" points="73.1 92.76 77.05 92.88 77.44 89.18 73.1 89.18 73.1 92.76"/><path class="cls-17" d="M51,93h4a0,0,0,0,1,0,0v5.6a0,0,0,0,1,0,0h-.64A3.36,3.36,0,0,1,51,95.24V93A0,0,0,0,1,51,93Z"/><path class="cls-5" d="M55,99.6h-.64A4.37,4.37,0,0,1,50,95.24V93a1,1,0,0,1,1-1h4a1,1,0,0,1,1,1v5.6A1,1,0,0,1,55,99.6ZM52,94v1.24a2.37,2.37,0,0,0,2,2.33V94Z"/><path class="cls-17" d="M76.36,93H77a0,0,0,0,1,0,0v5.6a0,0,0,0,1,0,0H73a0,0,0,0,1,0,0V96.36A3.36,3.36,0,0,1,76.36,93Z" transform="translate(150 191.6) rotate(180)"/><path class="cls-5" d="M73.64,99.6H73a1,1,0,0,1-1-1V93a1,1,0,0,1,1-1h4a1,1,0,0,1,1,1v2.24A4.37,4.37,0,0,1,73.64,99.6ZM74,94v3.57a2.37,2.37,0,0,0,2-2.33V94Z"/><path class="cls-5" d="M73,90.9a1,1,0,0,1-1-1V77.41a2.4,2.4,0,0,0-.71-1.71,1,1,0,0,1,1.42-1.41A4.39,4.39,0,0,1,74,77.41V89.9A1,1,0,0,1,73,90.9Z"/><path class="cls-5" d="M55,90.9a1,1,0,0,1-1-1V77.41a4.38,4.38,0,0,1,1.29-3.12,1,1,0,0,1,1.41,1.41A2.4,2.4,0,0,0,56,77.41V89.9A1,1,0,0,1,55,90.9Z"/><path class="cls-5" d="M77,94H72.19a1,1,0,0,1,0-2h3.88l1.15-9.93a6,6,0,0,0,0-1.53l-.92-7.79a4,4,0,0,0-2.21-3.16l-5-2.38a1,1,0,1,1,.86-1.81l5,2.38a6,6,0,0,1,3.34,4.73l.92,7.78a8,8,0,0,1,0,2L78,93.12A1,1,0,0,1,77,94Z"/><path class="cls-5" d="M55.81,94H51a1,1,0,0,1-1-.88L48.79,82.3a8,8,0,0,1,0-2l.92-7.74a6,6,0,0,1,3.4-4.77l5-2.27.44.9.36.93h0L53.95,69.6a4,4,0,0,0-2.25,3.18l-.92,7.75a6,6,0,0,0,0,1.53L51.93,92h3.88a1,1,0,1,1,0,2Z"/><polygon class="cls-7" points="55 124 62 124 62 97 66 97 66 124 73 124 73 89.9 55 89.9 55 124"/><path class="cls-5" d="M73,125H66a1,1,0,0,1-1-1V98H63v26a1,1,0,0,1-1,1H55a1,1,0,0,1-1-1V89.9a1,1,0,0,1,1-1H73a1,1,0,0,1,1,1V124A1,1,0,0,1,73,125Zm-6-2h5V90.9H56V123h5V97a1,1,0,0,1,1-1h4a1,1,0,0,1,1,1Z"/><path class="cls-5" d="M55,95.7A1,1,0,0,1,54.3,94l4.83-4.8a1,1,0,0,1,1.41,1.42l-4.83,4.8A1,1,0,0,1,55,95.7Z"/><path class="cls-5" d="M72.92,95.4a1,1,0,0,1-.71-.29l-4.5-4.5a1,1,0,0,1,1.41-1.41l4.5,4.5a1,1,0,0,1-.71,1.71Z"/><path class="cls-5" d="M77,90H73a1,1,0,0,1,0-2h4a1,1,0,1,1,0,2Z"/><path class="cls-5" d="M55,90H51.23a1,1,0,1,1,0-2H55a1,1,0,1,1,0,2Z"/><path class="cls-5" d="M49.85,82.3a1,1,0,0,1-.34-1.94l1.72-.61a1,1,0,0,1,.67,1.88l-1.72.61A1,1,0,0,1,49.85,82.3Z"/><path class="cls-5" d="M78.15,82.3a1,1,0,0,1-.33-.06l-1.63-.57a1,1,0,0,1,.66-1.89l1.63.57a1,1,0,0,1-.33,1.94Z"/><polygon class="cls-22" points="70.5 68.87 57.55 68.87 57.61 64.42 70.42 64.42 70.5 68.87"/><path class="cls-5" d="M70.5,69.87h-13a1,1,0,0,1-1-1l.06-4.45a1,1,0,0,1,1-1H70.42a1,1,0,0,1,1,1l.08,4.45a1,1,0,0,1-1,1Zm-11.94-2H69.48l0-2.45H58.6Z"/><path class="cls-21" d="M68.73,63.84a2.13,2.13,0,0,0,1,2.65c-.75,1.62-3.64,2.43-5.67,3-2-.57-5.15-1.4-5.67-3a2.09,2.09,0,0,0,1-2.65Z"/><g class="cls-1"><polygon class="cls-23" points="67.67 68.92 64.98 68.92 64.02 69.5 63.04 68.92 60.38 68.92 60.38 71.35 67.67 71.35 67.67 68.92"/></g><g class="cls-1"><path class="cls-18" d="M68.73,63.84H59.31a1.34,1.34,0,0,1,0,1.33l.58.49A4.85,4.85,0,0,0,63,66.75h2a4.85,4.85,0,0,0,3.11-1.08l.59-.5A1.33,1.33,0,0,1,68.73,63.84Z"/></g><path class="cls-5" d="M64,70.5a1,1,0,0,1-.47-.12l-5.67-3a1,1,0,0,1,0-1.74c.1-.06.92-.58.56-1.38a1,1,0,1,1,1.82-.82,2.87,2.87,0,0,1-.2,2.81l4,2.12,4-2.13a2.84,2.84,0,0,1-.23-2.79,1,1,0,0,1,1.83.8c-.31.71.32,1.23.6,1.42a1,1,0,0,1-.08,1.72l-5.67,3A1,1,0,0,1,64,70.5Z"/><path class="cls-24" d="M59.19,70.76l-3.67-3.06,2-3.24,4.86,4-1.2,1.93A1.35,1.35,0,0,1,59.19,70.76Z"/><path class="cls-24" d="M68.86,70.76l3.67-3.06-2-3.24-4.86,4,1.2,1.93A1.35,1.35,0,0,0,68.86,70.76Z"/><g class="cls-1"><polygon class="cls-3" points="57.55 66.09 61.74 69.58 62.41 68.52 57.55 64.47 55.52 67.71 56.19 68.26 57.55 66.09"/></g><g class="cls-1"><polygon class="cls-3" points="70.48 66.09 71.84 68.26 72.51 67.71 70.48 64.47 65.63 68.52 66.29 69.58 70.48 66.09"/></g><path class="cls-5" d="M60.06,72.08a2.35,2.35,0,0,1-1.5-.54l-3.67-3.06a1,1,0,0,1-.21-1.3l2-3.24a1,1,0,0,1,1.49-.24l4.86,4a1,1,0,0,1,.21,1.3L62,71A2.35,2.35,0,0,1,60.43,72ZM56.83,67.5l3,2.5h0a.34.34,0,0,0,.28.08.34.34,0,0,0,.24-.16l.74-1.19L57.79,66Z"/><path class="cls-5" d="M68,72.08l-.37,0A2.35,2.35,0,0,1,66,71L64.78,69a1,1,0,0,1,.21-1.3l4.86-4a1,1,0,0,1,.8-.22,1,1,0,0,1,.69.46l2,3.24a1,1,0,0,1-.21,1.3l-3.67,3.06A2.35,2.35,0,0,1,68,72.08Zm-1-3.35.74,1.19a.35.35,0,0,0,.52.08h0l3-2.5-1-1.53Z"/><polygon class="cls-9" points="61.42 70.5 63.18 73.13 64.86 73.13 66.6 70.47 65.7 68.92 62.34 68.92 61.42 70.5"/><path class="cls-5" d="M64.86,74.13H63.18a1,1,0,0,1-.83-.44l-1.77-2.63a1,1,0,0,1,0-1.06l.92-1.58a1,1,0,0,1,.86-.49H65.7a1,1,0,0,1,.87.5L67.46,70a1,1,0,0,1,0,1L65.7,73.68A1,1,0,0,1,64.86,74.13Zm-1.15-2h.61l1.1-1.69-.3-.52H62.91l-.32.54Z"/><polygon class="cls-9" points="66.82 82.67 64.86 73.13 63.18 73.13 61.22 82.67 64.01 85.47 66.82 82.67"/><path class="cls-5" d="M64,86.47a1,1,0,0,1-.71-.29l-2.78-2.79a1,1,0,0,1-.27-.91l2-9.54a1,1,0,0,1,1-.8h1.68a1,1,0,0,1,1,.8l2,9.54a1,1,0,0,1-.27.91l-2.82,2.79A1,1,0,0,1,64,86.47Zm-1.7-4.12L64,84.06l1.72-1.71L64,74.13Z"/><polygon class="cls-9" points="66.82 82.67 64.86 73.13 63.18 73.13 61.22 82.67 64.01 85.47 66.82 82.67"/><path class="cls-5" d="M64,86.47a1,1,0,0,1-.71-.29l-2.78-2.79a1,1,0,0,1-.27-.91l2-9.54a1,1,0,0,1,1-.8h1.68a1,1,0,0,1,1,.8l2,9.54a1,1,0,0,1-.27.91l-2.82,2.79A1,1,0,0,1,64,86.47Zm-1.7-4.12L64,84.06l1.72-1.71L64,74.13Z"/><polygon class="cls-9" points="61.42 70.5 63.18 73.13 64.86 73.13 66.6 70.47 65.7 68.92 62.34 68.92 61.42 70.5"/><path class="cls-5" d="M64.86,74.13H63.18a1,1,0,0,1-.83-.44l-1.77-2.63a1,1,0,0,1,0-1.06l.92-1.58a1,1,0,0,1,.86-.49H65.7a1,1,0,0,1,.87.5L67.46,70a1,1,0,0,1,0,1L65.7,73.68A1,1,0,0,1,64.86,74.13Zm-1.15-2h.61l1.1-1.69-.3-.52H62.91l-.32.54Z"/><path class="cls-25" d="M57.7,119.91h.6a3.7,3.7,0,0,1,3.7,3.7V125a0,0,0,0,1,0,0H54.67a.67.67,0,0,1-.67-.67v-.72A3.7,3.7,0,0,1,57.7,119.91Z"/><path class="cls-5" d="M62,126H54.67A1.67,1.67,0,0,1,53,124.33v-.72a4.7,4.7,0,0,1,4.7-4.7h.6a4.7,4.7,0,0,1,4.7,4.7V125A1,1,0,0,1,62,126Zm-7-2h6v-.39a2.7,2.7,0,0,0-2.7-2.7h-.6a2.7,2.7,0,0,0-2.7,2.7Z"/><path class="cls-25" d="M69.7,119.91h.6a3.7,3.7,0,0,1,3.7,3.7v.72a.67.67,0,0,1-.67.67H66a0,0,0,0,1,0,0v-1.39A3.7,3.7,0,0,1,69.7,119.91Z"/><path class="cls-5" d="M73.33,126H66a1,1,0,0,1-1-1v-1.39a4.7,4.7,0,0,1,4.7-4.7h.6a4.7,4.7,0,0,1,4.7,4.7v.72A1.67,1.67,0,0,1,73.33,126ZM67,124h6v-.39a2.7,2.7,0,0,0-2.7-2.7h-.6a2.7,2.7,0,0,0-2.7,2.7Z"/><path class="cls-17" d="M65.1,65H62.9a4.3,4.3,0,0,1-3-1.24l-2.61-2.59a4.22,4.22,0,0,1-1.25-3V50.83c0-6.18,16-6.18,16,0v7.34a4.22,4.22,0,0,1-1.25,3l-2.61,2.59A4.3,4.3,0,0,1,65.1,65Z"/><g class="cls-1"><path class="cls-18" d="M68.13,61a4.3,4.3,0,0,1-3,1.24H62.9a4.3,4.3,0,0,1-3-1.24l-2.61-2.59a4.22,4.22,0,0,1-1.25-3v2.8a4.22,4.22,0,0,0,1.25,3l2.61,2.59a4.3,4.3,0,0,0,3,1.24H65.1a4.3,4.3,0,0,0,3-1.24l2.61-2.59a4.22,4.22,0,0,0,1.25-3v-2.8a4.22,4.22,0,0,1-1.25,3Z"/></g><g class="cls-1"><path class="cls-18" d="M71.9,53.69V50.51c0-5.75-15.85-5.75-15.85,0v2.91c.72-.84,1.88-1.49,2.27-2.66,4.5,2.1,9,.24,12,.78A2.35,2.35,0,0,1,71.9,53.69Z"/></g><path class="cls-5" d="M65.1,66H62.9a5.26,5.26,0,0,1-3.73-1.53l-2.61-2.59A5.26,5.26,0,0,1,55,58.17V50.83c0-3.87,4.67-5.63,9-5.63s9,1.76,9,5.63v7.34a5.25,5.25,0,0,1-1.55,3.71l-2.61,2.59A5.27,5.27,0,0,1,65.1,66ZM64,47.2c-3.48,0-7,1.25-7,3.63v7.34a3.24,3.24,0,0,0,1,2.29L60.57,63a3.28,3.28,0,0,0,2.32,1H65.1a3.32,3.32,0,0,0,2.32-1L70,60.46a3.24,3.24,0,0,0,1-2.29V50.83a3,3,0,0,0-2-2.58A11.46,11.46,0,0,0,64,47.2Z"/><path class="cls-25" d="M69.18,44c2.3,1.06,4.26,2.25,4.26,5.52a11.38,11.38,0,0,1-.25,2.28c-.15.71-1.18.39-1.18.39s0-1.91-1.4-2.45c-3.52-1.41-9.25,1.07-13.13-1.56A3.56,3.56,0,0,1,56.31,51s-1.36,0-1.45-.78c-.39-3.51,1.06-5.07,2.62-4.68C61.38,41.62,67.8,43.32,69.18,44Z"/><g class="cls-1"><path class="cls-3" d="M57.48,47.45c3.9-3.9,10.32-2.2,11.7-1.56,2.07,1,4,1.57,4.26,4.15.3-3.7-1.83-5-4.26-6.08-1.38-.64-7.8-2.34-11.7,1.56-1.48-.37-2.89,1-2.66,4.18C55,47.6,56.25,47.14,57.48,47.45Z"/></g><path class="cls-5" d="M72.49,53.22a2.71,2.71,0,0,1-.78-.12,1,1,0,0,1-.7-.89,2.3,2.3,0,0,0-.9-1.65c-1-.56-2.67-.44-4.46-.31-2.3.17-4.9.36-7.37-.67a5.15,5.15,0,0,1-1.19,2,1.07,1.07,0,0,1-.79.38h0c-1.12,0-2.31-.52-2.44-1.67-.26-2.35.21-4.18,1.33-5.16a2.7,2.7,0,0,1,1.94-.69c4.21-3.78,10.37-2.33,12.44-1.42h0c2.21,1,4.76,2.57,4.86,6.41a11.07,11.07,0,0,1-.27,2.5,1.52,1.52,0,0,1-.72,1A1.87,1.87,0,0,1,72.49,53.22Zm-4.64-5.08a6.47,6.47,0,0,1,3.25.68,3.51,3.51,0,0,1,1.32,1.35,6.16,6.16,0,0,0,0-.68c-.07-2.54-1.51-3.69-3.66-4.63h0c-1.67-.73-7.19-2.05-10.6,1.35a1,1,0,0,1-.95.26.75.75,0,0,0-.72.17c-.22.19-.89,1-.68,3.24l.05,0a2.36,2.36,0,0,0,.53-1.1,1.67,1.67,0,0,1,2.36-1.2c2.1,1,4.46.81,6.74.65C66.31,48.21,67.1,48.15,67.85,48.15Z"/><path class="cls-5" d="M64.19,59.26a1.83,1.83,0,0,1-1.14-.49,1,1,0,0,1,1.14-1.62,1,1,0,0,1,1.19.23,1,1,0,0,1-.06,1.4A1.83,1.83,0,0,1,64.19,59.26Z"/><path class="cls-5" d="M64.11,62A3.59,3.59,0,0,1,62,61.47a1,1,0,0,1-.48-1.36,1,1,0,0,1,1.31-.47l.22.12a1.68,1.68,0,0,0,1,.24,1.92,1.92,0,0,0,1.1-.23A1,1,0,0,1,66.5,61.3,3.58,3.58,0,0,1,64.11,62Z"/><path class="cls-5" d="M69.57,55.08a1,1,0,0,1-.45-.11,5.22,5.22,0,0,0-1.71,0c-.45,0-.92.09-1.36.09a1,1,0,0,1,0-2c.36,0,.76,0,1.16-.08a5.33,5.33,0,0,1,2.8.19,1,1,0,0,1-.45,1.89Z"/><path class="cls-5" d="M60.19,57.23a1.36,1.36,0,1,1,1.36-1.36A1.36,1.36,0,0,1,60.19,57.23Zm0-2a.64.64,0,1,0,.64.64A.64.64,0,0,0,60.19,55.23Z"/><path class="cls-5" d="M62.16,55.08a11.51,11.51,0,0,1-1.55-.14,4.67,4.67,0,0,0-1.52-.07,1,1,0,0,1-.89-1.79A4.73,4.73,0,0,1,60.88,53a10.21,10.21,0,0,0,1.28.12,1,1,0,0,1,0,2Z"/><path class="cls-5" d="M68.07,57.23a1.36,1.36,0,1,1,1.36-1.36A1.36,1.36,0,0,1,68.07,57.23Zm0-2a.64.64,0,1,0,.64.64A.64.64,0,0,0,68.07,55.23Z"/><circle class="cls-5" cx="60.19" cy="55.87" r="1"/><circle class="cls-5" cx="68.07" cy="55.87" r="1"/><path class="cls-24" d="M104.19,89.9H87.81v2.87H83L81.78,82.19a7,7,0,0,1,0-1.78l.92-7.74a5,5,0,0,1,2.82-4l5-2.27c.5,1.64,2.95,3,5.5,3a6.05,6.05,0,0,0,5.46-3.13h.05l5,2.38a5,5,0,0,1,2.78,3.95l.92,7.78a7,7,0,0,1,0,1.78L109,92.76h-4.77Z"/><path class="cls-3" d="M81.87,82.92l.83-7a5,5,0,0,1,2.82-4l4.06-2c.84,1.56,3.83,2.78,6.39,2.78A9.34,9.34,0,0,0,102.41,70l4.11,2a5,5,0,0,1,2.78,3.95l.83,7,.09-.73a7,7,0,0,0,0-1.78l-.92-7.78a5,5,0,0,0-2.78-3.95l-5-2.38h-.05A6.05,6.05,0,0,1,96,69.45c-2.55,0-5-1.38-5.5-3l-5,2.27a5,5,0,0,0-2.82,4l-.92,7.74a7,7,0,0,0,0,1.78Z"/><polygon class="cls-3" points="86.95 92.76 83 92.76 82.64 89.18 86.95 89.18 86.95 92.76"/><polygon class="cls-3" points="105.1 92.76 109.05 92.88 109.44 89.18 105.1 89.18 105.1 92.76"/><path class="cls-21" d="M100.67,63.69a2.13,2.13,0,0,0,.94,2.63c-.72,1.65-3.53,2.55-5.5,3.13-2-.59-5-1.39-5.5-3a2.23,2.23,0,0,0,.92-2.74Z"/><g class="cls-1"><path class="cls-18" d="M100.67,63.69H91.54a2.6,2.6,0,0,1,0,1.86l.57.6a4.17,4.17,0,0,0,3,1.31h2a4.17,4.17,0,0,0,3-1.31l.57-.6A2.58,2.58,0,0,1,100.67,63.69Z"/></g><path class="cls-17" d="M83,93h4a0,0,0,0,1,0,0v5.6a0,0,0,0,1,0,0h-.64A3.36,3.36,0,0,1,83,95.24V93A0,0,0,0,1,83,93Z"/><path class="cls-5" d="M87,99.6h-.64A4.37,4.37,0,0,1,82,95.24V93a1,1,0,0,1,1-1h4a1,1,0,0,1,1,1v5.6A1,1,0,0,1,87,99.6ZM84,94v1.24a2.37,2.37,0,0,0,2,2.33V94Z"/><path class="cls-17" d="M108.36,93H109a0,0,0,0,1,0,0v5.6a0,0,0,0,1,0,0h-4a0,0,0,0,1,0,0V96.36A3.36,3.36,0,0,1,108.36,93Z" transform="translate(214 191.6) rotate(180)"/><path class="cls-5" d="M105.64,99.6H105a1,1,0,0,1-1-1V93a1,1,0,0,1,1-1h4a1,1,0,0,1,1,1v2.24A4.37,4.37,0,0,1,105.64,99.6ZM106,94v3.57a2.37,2.37,0,0,0,2-2.33V94Z"/><path class="cls-5" d="M105,90.9a1,1,0,0,1-1-1V77.41a2.4,2.4,0,0,0-.71-1.71,1,1,0,0,1,1.42-1.41A4.39,4.39,0,0,1,106,77.41V89.9A1,1,0,0,1,105,90.9Z"/><path class="cls-5" d="M87,90.9a1,1,0,0,1-1-1V77.41a4.38,4.38,0,0,1,1.29-3.12,1,1,0,0,1,1.41,1.41A2.4,2.4,0,0,0,88,77.41V89.9A1,1,0,0,1,87,90.9Z"/><path class="cls-5" d="M109,94h-4.77a1,1,0,1,1,0-2h3.88l1.15-9.93a6,6,0,0,0,0-1.53l-.92-7.79a4,4,0,0,0-2.21-3.16l-5-2.38a1,1,0,1,1,.86-1.81l5,2.38a6,6,0,0,1,3.34,4.73l.92,7.78a8,8,0,0,1,0,2L110,93.12A1,1,0,0,1,109,94Z"/><path class="cls-5" d="M87.81,94H83a1,1,0,0,1-1-.88L80.79,82.3a8,8,0,0,1,0-2l.92-7.74a6,6,0,0,1,3.4-4.77l5-2.27.44.9.36.93h0L85.95,69.6a4,4,0,0,0-2.25,3.18l-.92,7.75a6,6,0,0,0,0,1.53L83.93,92h3.88a1,1,0,1,1,0,2Z"/><path class="cls-5" d="M96.11,70.45c-3,0-5.81-1.64-6.45-3.73a1,1,0,0,1,.42-1.14,1.44,1.44,0,0,0,.54-1.65,1,1,0,1,1,1.84-.79,3.33,3.33,0,0,1-.61,3.51,5.56,5.56,0,0,0,4.26,1.79,5.34,5.34,0,0,0,4.21-2A3.44,3.44,0,0,1,99.75,63a1,1,0,0,1,1.85.77,1.55,1.55,0,0,0,.55,1.72,1,1,0,0,1,.34,1.22A7.07,7.07,0,0,1,96.11,70.45Z"/><polygon class="cls-16" points="87 124 94 124 94 97 98 97 98 124 105 124 105 89.9 87 89.9 87 124"/><path class="cls-5" d="M105,125H98a1,1,0,0,1-1-1V98H95v26a1,1,0,0,1-1,1H87a1,1,0,0,1-1-1V89.9a1,1,0,0,1,1-1h18a1,1,0,0,1,1,1V124A1,1,0,0,1,105,125Zm-6-2h5V90.9H88V123h5V97a1,1,0,0,1,1-1h4a1,1,0,0,1,1,1Z"/><path class="cls-5" d="M87,95.7A1,1,0,0,1,86.3,94l4.83-4.8a1,1,0,0,1,1.41,1.42l-4.83,4.8A1,1,0,0,1,87,95.7Z"/><path class="cls-5" d="M104.92,95.4a1,1,0,0,1-.71-.29l-4.5-4.5a1,1,0,0,1,1.41-1.41l4.5,4.5a1,1,0,0,1-.71,1.71Z"/><path class="cls-5" d="M109,90h-4a1,1,0,0,1,0-2h4a1,1,0,0,1,0,2Z"/><path class="cls-5" d="M87,90H83.23a1,1,0,1,1,0-2H87a1,1,0,1,1,0,2Z"/><path class="cls-5" d="M81.85,82.3a1,1,0,0,1-.34-1.94l1.72-.61a1,1,0,0,1,.67,1.88l-1.72.61A1,1,0,0,1,81.85,82.3Z"/><path class="cls-5" d="M110.15,82.3a1,1,0,0,1-.33-.06l-1.63-.57a1,1,0,0,1,.66-1.89l1.63.57a1,1,0,0,1-.33,1.94Z"/><path class="cls-25" d="M89.7,119.91h.6a3.7,3.7,0,0,1,3.7,3.7V125a0,0,0,0,1,0,0H86.67a.67.67,0,0,1-.67-.67v-.72A3.7,3.7,0,0,1,89.7,119.91Z"/><path class="cls-5" d="M94,126H86.67A1.67,1.67,0,0,1,85,124.33v-.72a4.7,4.7,0,0,1,4.7-4.7h.6a4.7,4.7,0,0,1,4.7,4.7V125A1,1,0,0,1,94,126Zm-7-2h6v-.39a2.7,2.7,0,0,0-2.7-2.7h-.6a2.7,2.7,0,0,0-2.7,2.7Z"/><path class="cls-25" d="M101.7,119.91h.6a3.7,3.7,0,0,1,3.7,3.7v.72a.67.67,0,0,1-.67.67H98a0,0,0,0,1,0,0v-1.39a3.7,3.7,0,0,1,3.7-3.7Z"/><path class="cls-5" d="M105.33,126H98a1,1,0,0,1-1-1v-1.39a4.7,4.7,0,0,1,4.7-4.7h.6a4.7,4.7,0,0,1,4.7,4.7v.72A1.67,1.67,0,0,1,105.33,126ZM99,124h6v-.39a2.7,2.7,0,0,0-2.7-2.7h-.6a2.7,2.7,0,0,0-2.7,2.7Z"/><path class="cls-17" d="M97.1,65H94.9a4.3,4.3,0,0,1-3-1.24l-2.61-2.59a4.22,4.22,0,0,1-1.25-3V50.83c0-6.18,16-6.18,16,0v7.34a4.22,4.22,0,0,1-1.25,3l-2.61,2.59A4.3,4.3,0,0,1,97.1,65Z"/><g class="cls-1"><path class="cls-18" d="M100.13,61a4.3,4.3,0,0,1-3,1.24H94.9a4.3,4.3,0,0,1-3-1.24l-2.61-2.59a4.22,4.22,0,0,1-1.25-3v2.8a4.22,4.22,0,0,0,1.25,3l2.61,2.59a4.3,4.3,0,0,0,3,1.24H97.1a4.3,4.3,0,0,0,3-1.24l2.61-2.59a4.22,4.22,0,0,0,1.25-3v-2.8a4.22,4.22,0,0,1-1.25,3Z"/></g><g class="cls-1"><path class="cls-18" d="M103.9,53.69V50.51c0-5.75-15.85-5.75-15.85,0v2.91c.72-.84,1.88-1.49,2.27-2.66,4.5,2.1,9,.24,12,.78A2.35,2.35,0,0,1,103.9,53.69Z"/></g><path class="cls-5" d="M97.1,66H94.9a5.26,5.26,0,0,1-3.73-1.53l-2.61-2.59A5.26,5.26,0,0,1,87,58.17V50.83c0-3.87,4.67-5.63,9-5.63s9,1.76,9,5.63v7.34a5.25,5.25,0,0,1-1.55,3.71l-2.61,2.59A5.27,5.27,0,0,1,97.1,66ZM96,47.2c-3.48,0-7,1.25-7,3.63v7.34a3.24,3.24,0,0,0,1,2.29L92.57,63a3.28,3.28,0,0,0,2.32,1H97.1a3.32,3.32,0,0,0,2.32-1L102,60.46a3.24,3.24,0,0,0,1-2.29V50.83a3,3,0,0,0-2-2.58A11.46,11.46,0,0,0,96,47.2Z"/><path class="cls-26" d="M101.18,44c2.3,1.06,4.26,2.25,4.26,5.52a11.38,11.38,0,0,1-.25,2.28c-.15.71-1.18.39-1.18.39s0-1.91-1.4-2.45c-3.52-1.41-9.25,1.07-13.13-1.56A3.56,3.56,0,0,1,88.31,51s-1.36,0-1.45-.78c-.39-3.51,1.06-5.07,2.62-4.68C93.38,41.62,99.8,43.32,101.18,44Z"/><g class="cls-1"><path class="cls-3" d="M89.48,47.45c3.9-3.9,10.32-2.2,11.7-1.56,2.07,1,4,1.57,4.26,4.15.3-3.7-1.83-5-4.26-6.08-1.38-.64-7.8-2.34-11.7,1.56-1.48-.37-2.89,1-2.66,4.18C87,47.6,88.25,47.14,89.48,47.45Z"/></g><path class="cls-5" d="M104.49,53.22a2.71,2.71,0,0,1-.78-.12,1,1,0,0,1-.7-.89,2.3,2.3,0,0,0-.9-1.65c-1-.56-2.67-.44-4.46-.31-2.3.17-4.9.36-7.37-.67a5.15,5.15,0,0,1-1.19,2,1.07,1.07,0,0,1-.79.38h0c-1.12,0-2.31-.52-2.44-1.67-.26-2.35.21-4.18,1.33-5.16a2.7,2.7,0,0,1,1.94-.69c4.21-3.78,10.37-2.33,12.44-1.42h0c2.21,1,4.76,2.57,4.86,6.41a11.07,11.07,0,0,1-.27,2.5,1.52,1.52,0,0,1-.72,1A1.87,1.87,0,0,1,104.49,53.22Zm-4.64-5.08a6.47,6.47,0,0,1,3.25.68,3.51,3.51,0,0,1,1.32,1.35,6.16,6.16,0,0,0,0-.68c-.07-2.54-1.51-3.69-3.66-4.63h0c-1.67-.73-7.19-2.05-10.6,1.35a1,1,0,0,1-.95.26.75.75,0,0,0-.72.17c-.22.19-.89,1-.68,3.24l.05,0a2.36,2.36,0,0,0,.53-1.1,1.67,1.67,0,0,1,2.36-1.2c2.1,1,4.46.81,6.74.65C98.31,48.21,99.1,48.15,99.85,48.15Z"/><path class="cls-5" d="M96.19,59.26a1.83,1.83,0,0,1-1.14-.49,1,1,0,0,1,1.14-1.62,1,1,0,0,1,1.19.23,1,1,0,0,1-.06,1.4A1.83,1.83,0,0,1,96.19,59.26Z"/><path class="cls-5" d="M96.11,62A3.59,3.59,0,0,1,94,61.47a1,1,0,0,1-.48-1.36,1,1,0,0,1,1.31-.47l.22.12a1.68,1.68,0,0,0,1,.24,1.92,1.92,0,0,0,1.1-.23A1,1,0,0,1,98.5,61.3,3.58,3.58,0,0,1,96.11,62Z"/><path class="cls-5" d="M101.57,55.08a1,1,0,0,1-.45-.11,5.22,5.22,0,0,0-1.71,0c-.45,0-.92.09-1.36.09a1,1,0,1,1,0-2c.36,0,.76,0,1.16-.08a5.33,5.33,0,0,1,2.8.19,1,1,0,0,1-.45,1.89Z"/><path class="cls-5" d="M92.19,57.23a1.36,1.36,0,1,1,1.36-1.36A1.36,1.36,0,0,1,92.19,57.23Zm0-2a.64.64,0,1,0,.64.64A.64.64,0,0,0,92.19,55.23Z"/><path class="cls-5" d="M94.16,55.08a11.51,11.51,0,0,1-1.55-.14,4.67,4.67,0,0,0-1.52-.07,1,1,0,0,1-.89-1.79A4.73,4.73,0,0,1,92.88,53a10.21,10.21,0,0,0,1.28.12,1,1,0,1,1,0,2Z"/><path class="cls-5" d="M100.07,57.23a1.36,1.36,0,1,1,1.36-1.36A1.36,1.36,0,0,1,100.07,57.23Zm0-2a.64.64,0,1,0,.64.64A.64.64,0,0,0,100.07,55.23Z"/><circle class="cls-5" cx="92.19" cy="55.87" r="1"/><circle class="cls-5" cx="100.07" cy="55.87" r="1"/></svg>