<?xml version="1.0" ?><svg data-name="001" id="_001" viewBox="0 0 128 128" xmlns="http://www.w3.org/2000/svg"><defs><style>.cls-1{opacity:0.3;}.cls-2{fill:#97c1ff;}.cls-3{fill:#939fc6;}.cls-4{fill:#6d6daa;}.cls-5{fill:#ced8ee;}.cls-6{fill:#e0f3ff;}.cls-7{fill:#c7e9ff;}.cls-8{fill:#0070b8;}.cls-9{fill:#eef6ff;}.cls-10{fill:#7690a8;}.cls-11{fill:#c9c1f5;}.cls-12{fill:#ff9797;}.cls-13{opacity:0.8;}.cls-14{fill:#96d7ff;}.cls-15{fill:#b1f1a8;}.cls-16{fill:#ff91a9;}.cls-17{fill:#fff27d;}.cls-18{fill:#fff;}.cls-19{fill:#5b559e;}</style></defs><title/><g class="cls-1"><path class="cls-2" d="M125.7,48.65a30,30,0,0,0-23.51-25,19.69,19.69,0,0,1-10.93-6.55A37,37,0,0,0,27,32.43,21,21,0,0,1,16.12,46.1C2,53.46-5.14,72.56,7.77,90.48a16.6,16.6,0,0,0,6.35,4.91,20.58,20.58,0,0,1,10,10.88,28.49,28.49,0,0,0,42.62,12.64A20.06,20.06,0,0,1,83.39,116a29,29,0,0,0,36-33.79A20.08,20.08,0,0,1,121.94,68,29.83,29.83,0,0,0,125.7,48.65Z"/></g><path class="cls-3" d="M21,24.07h90a3,3,0,0,1,3,3v62a0,0,0,0,1,0,0H18a0,0,0,0,1,0,0v-62A3,3,0,0,1,21,24.07Z"/><path class="cls-4" d="M114,90.07H18a1,1,0,0,1-1-1v-62a4,4,0,0,1,4-4h90a4,4,0,0,1,4,4v62A1,1,0,0,1,114,90.07Zm-95-2h94v-61a2,2,0,0,0-2-2H21a2,2,0,0,0-2,2Z"/><path class="cls-5" d="M78,89.07H54a2,2,0,0,1-2-2v-1H80v1A2,2,0,0,1,78,89.07Z"/><path class="cls-4" d="M78,90.07H54a3,3,0,0,1-3-3v-1a1,1,0,0,1,1-1H80a1,1,0,0,1,1,1v1A3,3,0,0,1,78,90.07Zm-25-3a1,1,0,0,0,1,1H78a1,1,0,0,0,1-1Z"/><rect class="cls-6" height="54" width="88" x="22" y="28.07"/><polygon class="cls-7" points="109.96 30.51 110 28.07 22 28.07 22 72.29 109.96 30.51"/><polygon class="cls-7" points="109.73 36.07 22 77.74 22 74.74 109.75 33.06 109.73 36.07"/><g class="cls-1"><rect class="cls-8" height="4" width="88.05" x="21.95" y="28.07"/></g><path class="cls-4" d="M110,83.07H22a1,1,0,0,1-1-1v-54a1,1,0,0,1,1-1h88a1,1,0,0,1,1,1v54A1,1,0,0,1,110,83.07Zm-87-2h86v-52H23Z"/><path class="cls-9" d="M122,86.07H80v1a2,2,0,0,1-2,2H54a2,2,0,0,1-2-2v-1H10v3a4,4,0,0,0,4,4H118a4,4,0,0,0,4-4Z"/><g class="cls-1"><path class="cls-10" d="M118,90.07H14a4,4,0,0,1-4-4h0v3a4,4,0,0,0,4,4H118a4,4,0,0,0,4-4v-3A4,4,0,0,1,118,90.07Z"/></g><path class="cls-4" d="M118,94.07H14a5,5,0,0,1-5-5v-3a1,1,0,0,1,1-1H52a1,1,0,0,1,1,1v1a1,1,0,0,0,1,1H78a1,1,0,0,0,1-1v-1a1,1,0,0,1,1-1h42a1,1,0,0,1,1,1v3A5,5,0,0,1,118,94.07Zm-107-7v2a3,3,0,0,0,3,3H118a3,3,0,0,0,3-3v-2H81a3,3,0,0,1-3,3H54a3,3,0,0,1-3-3Z"/><path class="cls-11" d="M117.62,98.92a3.7,3.7,0,0,0,2.46,2.46q1.85.62,0,1.23a3.7,3.7,0,0,0-2.46,2.46q-.62,1.85-1.23,0a3.7,3.7,0,0,0-2.46-2.46q-1.85-.62,0-1.23a3.7,3.7,0,0,0,2.46-2.46Q117,97.08,117.62,98.92Z"/><path class="cls-12" d="M115.62,11.92a3.7,3.7,0,0,0,2.46,2.46q1.85.62,0,1.23a3.7,3.7,0,0,0-2.46,2.46q-.62,1.85-1.23,0a3.7,3.7,0,0,0-2.46-2.46q-1.85-.62,0-1.23a3.7,3.7,0,0,0,2.46-2.46Q115,10.08,115.62,11.92Z"/><path class="cls-12" d="M54.62,107.92a3.7,3.7,0,0,0,2.46,2.46q1.85.62,0,1.23a3.7,3.7,0,0,0-2.46,2.46q-.62,1.85-1.23,0a3.7,3.7,0,0,0-2.46-2.46q-1.85-.62,0-1.23a3.7,3.7,0,0,0,2.46-2.46Q54,106.08,54.62,107.92Z"/><path class="cls-11" d="M9.46,30.69a2.77,2.77,0,0,0,1.85,1.85q1.38.46,0,.92a2.77,2.77,0,0,0-1.85,1.85q-.46,1.38-.92,0a2.77,2.77,0,0,0-1.85-1.85q-1.38-.46,0-.92a2.77,2.77,0,0,0,1.85-1.85Q9,29.31,9.46,30.69Z"/><path class="cls-2" d="M60.3,7.34a5.05,5.05,0,0,0,3.36,3.36q2.52.84,0,1.68a5.05,5.05,0,0,0-3.36,3.36q-.84,2.52-1.68,0a5.05,5.05,0,0,0-3.36-3.36q-2.52-.84,0-1.68a5.05,5.05,0,0,0,3.36-3.36Q59.46,4.81,60.3,7.34Z"/><path class="cls-2" d="M81.92,112.38a5.55,5.55,0,0,0,3.69,3.69q2.77.92,0,1.85a5.55,5.55,0,0,0-3.69,3.69q-.92,2.77-1.85,0a5.55,5.55,0,0,0-3.69-3.69q-2.77-.92,0-1.85a5.55,5.55,0,0,0,3.69-3.69Q81,109.62,81.92,112.38Z"/><g class="cls-13"><path class="cls-11" d="M24.81,100.56a2.5,2.5,0,0,1-2.09-1.12A31.5,31.5,0,0,1,75.27,64.69a2.5,2.5,0,0,1-4.17,2.76A26.5,26.5,0,0,0,26.89,96.68a2.5,2.5,0,0,1-2.08,3.88Z"/><path class="cls-14" d="M21,103.86a2.5,2.5,0,0,1-2.06-1.08A36.5,36.5,0,0,1,79.06,61.35a2.5,2.5,0,0,1-4.12,2.84A31.5,31.5,0,0,0,23.06,99.94,2.5,2.5,0,0,1,21,103.86Z"/><path class="cls-15" d="M13.89,101.57a2.5,2.5,0,0,1-2.25-1.41A41.12,41.12,0,0,1,7.5,82.07,41.5,41.5,0,0,1,83,58.33a2.5,2.5,0,0,1-4.1,2.86A36.5,36.5,0,0,0,12.5,82.07,36.17,36.17,0,0,0,16.14,98a2.5,2.5,0,0,1-2.25,3.59Z"/><path class="cls-16" d="M6.27,60.57a2.5,2.5,0,0,1-2.18-3.73,51.51,51.51,0,0,1,85.63-6.3,2.5,2.5,0,1,1-4,3.06A46.51,46.51,0,0,0,8.45,59.29,2.5,2.5,0,0,1,6.27,60.57Z"/><path class="cls-17" d="M5,84.57a2.5,2.5,0,0,1-2.5-2.5A46.5,46.5,0,0,1,86,53.88a2.5,2.5,0,0,1-4,3A41.5,41.5,0,0,0,7.5,82.07,2.5,2.5,0,0,1,5,84.57Z"/></g><path class="cls-3" d="M21.62,117.56h0a5,5,0,0,1,0-7.07l63.9-63.9a5,5,0,0,1,7,0h0a5,5,0,0,1,0,7.07l-63.9,63.9A5,5,0,0,1,21.62,117.56Z"/><g class="cls-1"><path class="cls-18" d="M24.05,113,88,49.05a5,5,0,0,1,5.32-1.12,2.79,2.79,0,0,0-.76-1.36,5,5,0,0,0-7,0l-63.9,63.9a5,5,0,0,0,0,7.07,2.74,2.74,0,0,0,1.32.72A5,5,0,0,1,24.05,113Z"/></g><path class="cls-9" d="M73.53,58.38l12-11.78a5,5,0,0,1,7,0h0a5,5,0,0,1,0,7.07l-12,11.78Z"/><path class="cls-18" d="M92.88,47a4.93,4.93,0,0,0-.36-.44,5,5,0,0,0-7,0L73.62,58.47l2.46,2.46L88,49.05a5,5,0,0,1,5.32-1.12A4.89,4.89,0,0,0,92.88,47Z"/><g class="cls-1"><path class="cls-19" d="M92.52,46.57a4.93,4.93,0,0,0-2.22-1.25,5,5,0,0,1-.51,6.43l-63.9,63.9a5,5,0,0,1-4.8,1.27,5,5,0,0,0,.53.64h0a5,5,0,0,0,7,0l63.9-63.9A5,5,0,0,0,92.52,46.57Z"/></g><path class="cls-4" d="M25.12,120a6,6,0,0,1-4.2-1.72h0a6,6,0,0,1,0-8.49l63.9-63.9a6,6,0,0,1,8.43,0,6,6,0,0,1,0,8.49l-63.9,63.9A6,6,0,0,1,25.12,120Zm-2.8-3.14a4,4,0,0,0,5.61,0l63.9-63.9A4,4,0,1,0,86.2,47.3L22.3,111.2a4,4,0,0,0,0,5.65Z"/><path class="cls-4" d="M80.53,66.38a1,1,0,0,1-.71-.29l-6.55-6.55a1,1,0,0,1,1.41-1.41l6.55,6.55a1,1,0,0,1-.71,1.71Z"/></svg>